<?xml version="1.0" encoding="UTF-8" standalone="no"?>
<!-- Created with Inkscape (http://www.inkscape.org/) -->

<svg
   width="1080"
   height="1350"
   viewBox="0 0 285.74999 357.1875"
   version="1.1"
   id="svg1"
   inkscape:version="1.4 (e7c3feb1, 2024-10-09)"
   sodipodi:docname="panel-00.svg"
   inkscape:export-filename="/Users/eggdice/Projects/productkind/kim-and-tim/assets/dist/week-012/day-2/panel-00.png"
   inkscape:export-xdpi="96"
   inkscape:export-ydpi="96"
   xmlns:inkscape="http://www.inkscape.org/namespaces/inkscape"
   xmlns:sodipodi="http://sodipodi.sourceforge.net/DTD/sodipodi-0.dtd"
   xmlns="http://www.w3.org/2000/svg"
   xmlns:svg="http://www.w3.org/2000/svg">
  <sodipodi:namedview
     id="namedview1"
     pagecolor="#ffffff"
     bordercolor="#000000"
     borderopacity="0.25"
     inkscape:showpageshadow="2"
     inkscape:pageopacity="0.0"
     inkscape:pagecheckerboard="0"
     inkscape:deskcolor="#d1d1d1"
     inkscape:document-units="px"
     inkscape:zoom="0.43542589"
     inkscape:cx="119.42331"
     inkscape:cy="803.81072"
     inkscape:window-width="1728"
     inkscape:window-height="1057"
     inkscape:window-x="2560"
     inkscape:window-y="355"
     inkscape:window-maximized="0"
     inkscape:current-layer="layer1"
     inkscape:export-bgcolor="#ffffffff" />
  <defs
     id="defs1">
    <rect
       x="337.60629"
       y="293.08679"
       width="868.13049"
       height="871.84045"
       id="rect26" />
    <rect
       x="358.01108"
       y="335.75131"
       width="877.4054"
       height="734.57196"
       id="rect25" />
    <rect
       x="418.44797"
       y="244.75258"
       width="748.0744"
       height="801.36731"
       id="rect16" />
    <clipPath
       clipPathUnits="userSpaceOnUse"
       id="clipPath3">
      <rect
         style="fill:#370188;stroke:#370188;stroke-width:3.175"
         id="rect4"
         width="387.91391"
         height="225.63065"
         x="-131.6772"
         y="-44.129654"
         ry="1.5951835" />
    </clipPath>
    <clipPath
       clipPathUnits="userSpaceOnUse"
       id="clipPath7">
      <rect
         style="fill:#fdc458;fill-opacity:1;stroke:#370188;stroke-width:1"
         id="rect8"
         width="44.744373"
         height="55.042683"
         x="274.50317"
         y="-8.5227375"
         ry="1.4910408" />
    </clipPath>
  </defs>
  <g
     inkscape:label="Layer 1"
     inkscape:groupmode="layer"
     id="layer1">
    <text
       xml:space="preserve"
       transform="scale(0.26458333)"
       id="text16"
       style="font-style:normal;font-variant:normal;font-weight:bold;font-stretch:normal;font-size:60px;font-family:'Josefin Slab';-inkscape-font-specification:'Josefin Slab Bold';text-align:start;letter-spacing:0px;word-spacing:0px;writing-mode:lr-tb;direction:ltr;white-space:pre;shape-inside:url(#rect16);display:inline;fill:#000000;fill-opacity:0;stroke:#370188;stroke-width:12;stroke-opacity:1" />
    <text
       xml:space="preserve"
       transform="scale(0.26458333)"
       id="text25"
       style="font-style:normal;font-variant:normal;font-weight:bold;font-stretch:normal;font-size:60px;font-family:'Josefin Slab';-inkscape-font-specification:'Josefin Slab Bold';text-align:start;letter-spacing:0px;word-spacing:0px;writing-mode:lr-tb;direction:ltr;white-space:pre;shape-inside:url(#rect25);display:inline;fill:#000000;fill-opacity:0;stroke:#370188;stroke-width:12;stroke-opacity:1" />
    <text
       xml:space="preserve"
       transform="scale(0.26458333)"
       id="text26"
       style="font-style:normal;font-variant:normal;font-weight:bold;font-stretch:normal;font-size:60px;font-family:'Josefin Slab';-inkscape-font-specification:'Josefin Slab Bold';text-align:start;letter-spacing:0px;word-spacing:0px;writing-mode:lr-tb;direction:ltr;white-space:pre;shape-inside:url(#rect26);display:inline;fill:#000000;fill-opacity:0;stroke:#370188;stroke-width:12;stroke-opacity:1" />
    <rect
       style="fill:none;fill-opacity:1;fill-rule:nonzero;stroke:#370188;stroke-width:3.175;stroke-dasharray:none;stroke-opacity:1"
       id="rect113-4-2"
       width="282.57498"
       height="354.01248"
       x="1.5875"
       y="1.5875" />
    <rect
       width="9.8019896"
       height="15.875"
       rx="0"
       ry="0"
       fill="#6002ee"
       stroke-width="0"
       id="rect1-3-4-39-4-2-0-5-6"
       x="247.60098"
       y="332.84583" />
    <text
       font-family="Montserrat"
       font-size="618.11px"
       font-weight="200"
       stroke-width="0"
       fill="#33333"
       id="text3-0-3-0-0-5-3-3-2"
       x="248.33717"
       y="345.42685"
       style="font-style:normal;font-variant:normal;font-weight:300;font-stretch:normal;font-size:13.0774px;font-family:Montserrat;-inkscape-font-specification:'Montserrat Light'"
       transform="scale(0.99938968,1.0006107)"><tspan
         y="345.42685"
         font-weight="200"
         stroke-width="0"
         id="tspan1-4-8-6-2-1-2-5-9"
         style="font-style:normal;font-variant:normal;font-weight:300;font-stretch:normal;font-size:13.0774px;font-family:Montserrat;-inkscape-font-specification:'Montserrat Light'"><tspan
           style="font-style:normal;font-variant:normal;font-weight:300;font-stretch:normal;font-size:13.0774px;font-family:Montserrat;-inkscape-font-specification:'Montserrat Light';fill:#ffffff;fill-opacity:1;stroke-width:0"
           id="tspan3-6-3-13-5-2-1-6-6">k</tspan></tspan></text>
    <text
       dx="0"
       dy="0"
       font-family="Montserrat"
       font-size="465.256px"
       font-weight="200"
       stroke-width="0"
       fill="#33333"
       id="text3-0-3-6-8-4-0-8-9"
       x="195.17656"
       y="345.42685"
       style="font-style:normal;font-variant:normal;font-weight:300;font-stretch:normal;font-size:13.0774px;font-family:Montserrat;-inkscape-font-specification:'Montserrat Light'"
       transform="scale(0.99938968,1.0006107)"><tspan
         y="345.42685"
         font-weight="200"
         stroke-width="0"
         id="tspan1-4-8-3-9-0-0-6-9"
         style="font-style:normal;font-variant:normal;font-weight:300;font-stretch:normal;font-size:13.0774px;font-family:Montserrat;-inkscape-font-specification:'Montserrat Light'">product</tspan></text>
    <text
       font-family="Montserrat"
       font-size="465.256px"
       font-weight="200"
       stroke-width="0"
       fill="#33333"
       id="text3-0-3-6-4-3-4-3-7-8"
       x="257.78415"
       y="345.42685"
       style="font-style:normal;font-variant:normal;font-weight:300;font-stretch:normal;font-size:13.0774px;font-family:Montserrat;-inkscape-font-specification:'Montserrat Light'"
       transform="scale(0.99938968,1.0006107)"><tspan
         y="345.42685"
         font-weight="200"
         stroke-width="0"
         id="tspan1-4-8-3-6-9-9-9-7-0"
         style="font-style:normal;font-variant:normal;font-weight:300;font-stretch:normal;font-size:13.0774px;font-family:Montserrat;-inkscape-font-specification:'Montserrat Light'">ind</tspan></text>
    <text
       xml:space="preserve"
       style="font-style:normal;font-variant:normal;font-weight:normal;font-stretch:normal;font-size:19.05px;font-family:'Nanum Pen';-inkscape-font-specification:'Nanum Pen';text-align:center;letter-spacing:0px;word-spacing:0px;writing-mode:lr-tb;direction:ltr;text-anchor:middle;white-space:pre;inline-size:173.549;display:inline;fill:#370188;fill-opacity:1;stroke:none;stroke-width:1.5875;stroke-linecap:round;stroke-dasharray:none;stroke-opacity:1"
       x="58.399593"
       y="156.49693"
       id="text17-6-5-0-9-6"
       transform="translate(84.471769,-121.93979)"><tspan
         x="58.399593"
         y="156.49693"
         id="tspan7"><tspan
   style="baseline-shift:baseline;opacity:1;vector-effect:none;stop-color:#000000;stop-opacity:1"
   id="tspan1">This app went viral</tspan><tspan
   y="156.49693"
   id="tspan8"> </tspan></tspan><tspan
         x="58.399593"
         y="180.30944"
         id="tspan10"><tspan
           style="baseline-shift:baseline;opacity:1;vector-effect:none;stop-color:#000000;stop-opacity:1"
           id="tspan9">overnight!</tspan></tspan></text>
    <text
       xml:space="preserve"
       style="font-style:normal;font-variant:normal;font-weight:normal;font-stretch:normal;font-size:19.05px;font-family:'Nanum Pen';-inkscape-font-specification:'Nanum Pen';text-align:center;letter-spacing:0px;word-spacing:0px;writing-mode:lr-tb;direction:ltr;text-anchor:middle;white-space:pre;inline-size:173.549;display:inline;fill:#370188;fill-opacity:1;stroke:none;stroke-width:1.5875;stroke-linecap:round;stroke-dasharray:none;stroke-opacity:1"
       x="58.399593"
       y="156.49693"
       id="text17-6-5-0-9-6-2"
       transform="translate(10.151244,-19.84554)"><tspan
         x="58.399593"
         y="156.49693"
         id="tspan11">Wow!!!</tspan></text>
    <path
       style="fill:none;fill-opacity:1;stroke:#370188;stroke-width:1.5875;stroke-linecap:round;stroke-dasharray:none;stroke-opacity:1"
       d="M 151.14569,135.34267 C 151.4445,124.6053 142.6929,76.409402 142.96116,65.801262"
       id="path13-1-9-2-1-7-8-0-7"
       sodipodi:nodetypes="cc" />
    <path
       style="fill:#ffffff;fill-opacity:1;fill-rule:nonzero;stroke:#370188;stroke-width:3.175;stroke-dasharray:none;stroke-opacity:1"
       d="m 183.75214,220.66551 c 16.19634,5.3238 13.8764,14.98207 -2.92417,11.09709"
       id="path61-9-5"
       sodipodi:nodetypes="cc" />
    <path
       style="fill:#ffffff;fill-opacity:1;fill-rule:nonzero;stroke:#370188;stroke-width:3.175;stroke-dasharray:none;stroke-opacity:1"
       d="m 113.61173,221.08418 c -16.196342,5.32379 -13.876402,14.98207 2.92417,11.09709"
       id="path61-93"
       sodipodi:nodetypes="cc" />
    <path
       style="fill:#ffffff;fill-opacity:1;fill-rule:nonzero;stroke:#370188;stroke-width:3.175;stroke-dasharray:none;stroke-opacity:1"
       d="m 130.96097,205.93081 c -25.53268,-25.40051 -6.65648,-52.884 18.84147,-51.92555 25.11596,0.9441 40.3705,29.17676 17.00911,51.85551 3.85426,24.96865 10.08031,70.52397 10.63111,104.67395 -1.63141,9.3433 -16.16079,8.9782 -17.23816,-1.43652 -1.0774,-10.41472 -14.01283,-11.94105 -14.57938,-0.16732 -0.50342,10.462 -17.31089,10.41554 -17.74218,-0.1918 -2.53708,-17.45114 1.06293,-77.48945 3.07803,-102.80824 z"
       id="path49-6"
       sodipodi:nodetypes="csccssccc" />
    <path
       style="fill:#fd8658;fill-opacity:1;fill-rule:nonzero;stroke:#370188;stroke-width:3.175;stroke-dasharray:none;stroke-opacity:1"
       d="m 166.8427,204.98656 9.99496,71.52352 -50.86547,-0.19186 3.98771,-70.98697 15.05207,4.21067 4.05041,7.53825 3.71288,-7.31323 z"
       id="path56-7"
       sodipodi:nodetypes="cccccccc" />
    <path
       style="fill:#fd8658;fill-opacity:1;fill-rule:nonzero;stroke:#370188;stroke-width:3.175;stroke-dasharray:none;stroke-opacity:1"
       d="m 133.4102,211.57727 -20.37448,5.84918 3.43427,17.48755 15.32887,-3.61492"
       id="path57-2"
       sodipodi:nodetypes="cccc" />
    <path
       style="fill:#fd8658;fill-opacity:1;fill-rule:nonzero;stroke:#370188;stroke-width:3.175;stroke-dasharray:none;stroke-opacity:1"
       d="m 165.20471,210.82713 19.524,6.41619 -3.43427,17.48754 -13.61456,-3.06634"
       id="path57-4-4"
       sodipodi:nodetypes="cccc" />
    <path
       style="fill:#fd8658;fill-opacity:1;fill-rule:nonzero;stroke:#370188;stroke-width:3.175;stroke-dasharray:none;stroke-opacity:1"
       d="m 129.91938,205.35547 -3.91468,6.00248 17.09405,5.21953 1.21104,-6.917 z"
       id="path58-4"
       sodipodi:nodetypes="ccccc" />
    <path
       style="fill:#fd8658;fill-opacity:1;fill-rule:nonzero;stroke:#370188;stroke-width:3.175;stroke-dasharray:none;stroke-opacity:1"
       d="m 153.62943,209.40062 13.21822,-4.43661 3.91465,6.43651 -14.98673,4.87935 z"
       id="path59-0"
       sodipodi:nodetypes="ccccc" />
    <path
       style="fill:#ffffff;fill-opacity:1;fill-rule:nonzero;stroke:#370188;stroke-width:3.175;stroke-dasharray:none;stroke-opacity:1"
       d="m 149.0908,215.59857 3e-5,59.83335"
       id="path60-3"
       sodipodi:nodetypes="cc" />
    <circle
       style="fill:#370188;fill-opacity:1;stroke:#370188;stroke-width:0.797947;stroke-opacity:1"
       id="path3-3-6-6-7-1"
       r="0.75558645"
       cy="260.35663"
       cx="154.32591"
       inkscape:transform-center-x="2.5473966"
       inkscape:transform-center-y="-7.9173349e-05" />
    <circle
       style="fill:#370188;fill-opacity:1;stroke:#370188;stroke-width:0.797947;stroke-opacity:1"
       id="path3-3-6-6-7-0-4"
       r="0.75558645"
       cy="242.34795"
       cx="154.03407"
       inkscape:transform-center-x="2.5473966"
       inkscape:transform-center-y="-7.9173349e-05" />
    <circle
       style="fill:#370188;fill-opacity:1;stroke:#370188;stroke-width:0.797947;stroke-opacity:1"
       id="path3-3-6-60-5-3-8"
       r="0.75558645"
       cy="251.35913"
       cx="154.24637"
       inkscape:transform-center-x="2.5474322"
       inkscape:transform-center-y="1.983531e-06" />
    <circle
       style="fill:#370188;fill-opacity:1;stroke:#370188;stroke-width:0.797947;stroke-opacity:1"
       id="path3-3-6-6-7-0-0-8"
       r="0.75558645"
       cy="223.72752"
       cx="153.94252"
       inkscape:transform-center-x="2.5473966"
       inkscape:transform-center-y="-7.9173349e-05" />
    <circle
       style="fill:#370188;fill-opacity:1;stroke:#370188;stroke-width:0.797947;stroke-opacity:1"
       id="path3-3-6-60-5-3-6-7"
       r="0.75558645"
       cy="233.2699"
       cx="153.97778"
       inkscape:transform-center-x="2.5474322"
       inkscape:transform-center-y="1.983531e-06" />
    <circle
       style="fill:#370188;fill-opacity:1;stroke:none;stroke-width:12.6211;stroke-dasharray:none;stroke-opacity:1"
       id="path9-5-7-5"
       cx="138.96307"
       cy="174.49263"
       r="2.6458333" />
    <circle
       style="fill:#370188;fill-opacity:1;stroke:none;stroke-width:12.6211;stroke-dasharray:none;stroke-opacity:1"
       id="path9-5-7-6-7"
       cx="158.02625"
       cy="174.58926"
       r="2.6458333" />
    <path
       style="fill:#ffffff;fill-opacity:1;stroke:#370188;stroke-width:3.175;stroke-dasharray:none;stroke-opacity:1"
       d="m 156.93927,182.66556 c 6.06831,4.66704 8.42245,10.65536 7.81469,12.26755 -0.58963,1.564 -13.19041,3.00085 -21.69093,2.11256 -2.72063,-0.28429 -5.21897,-2.42379 -6.22735,-4.2501"
       id="path7-6"
       sodipodi:nodetypes="cssc" />
    <path
       style="fill:#370188;fill-opacity:1;stroke:#370188;stroke-width:3.2566;stroke-dasharray:none;stroke-opacity:1"
       d="m 160.16227,189.90596 c -0.97469,0.31423 -2.79022,3.05635 -2.6396,4.61959 0.1505,1.56324 3.22079,-0.1932 3.22079,-0.1932 l 2.09886,-0.57127 -0.77686,-2.32696 c 0,0 -0.92856,-1.84244 -1.90319,-1.52819 z"
       id="path8-8"
       sodipodi:nodetypes="zzcccz"
       inkscape:transform-center-x="-5.9806234"
       inkscape:transform-center-y="1.0600401" />
    <path
       style="fill:#ffffff;fill-opacity:1;fill-rule:nonzero;stroke:#370188;stroke-width:3.175;stroke-dasharray:none;stroke-opacity:1"
       d="m 129.37662,167.73925 c -38.836572,-14.6384 16.13214,-50.18882 11.94971,-5.67612"
       id="path67"
       sodipodi:nodetypes="cc" />
    <path
       style="fill:#ffffff;fill-opacity:1;fill-rule:nonzero;stroke:#370188;stroke-width:3.175;stroke-dasharray:none;stroke-opacity:1"
       d="m 167.66077,167.07305 c 38.83656,-14.63841 -16.13215,-50.18882 -11.94972,-5.67612"
       id="path67-5"
       sodipodi:nodetypes="cc" />
    <path
       style="fill:#9a58fd;fill-opacity:1;fill-rule:nonzero;stroke:#370188;stroke-width:3.175;stroke-dasharray:none;stroke-opacity:1"
       d="m 122.62657,311.69516 26.58288,0.41306 3.29812,-17.87241 3.43056,17.81317 27.34976,-0.10287 -8.4561,-46.74727 -48.51949,-0.29556 z"
       id="path55-9"
       sodipodi:nodetypes="cccccccc" />
    <path
       style="fill:#ffffff;fill-opacity:1;fill-rule:nonzero;stroke:#370188;stroke-width:6.35;stroke-dasharray:none;stroke-opacity:1"
       d="m 126.23515,264.71301 49.04597,-10e-6"
       id="path69"
       sodipodi:nodetypes="cc" />
    <rect
       style="fill:none;fill-opacity:1;fill-rule:nonzero;stroke:#fdc458;stroke-width:3.175;stroke-dasharray:none;stroke-opacity:1"
       id="rect68"
       width="12.757616"
       height="11.623605"
       x="145.22987"
       y="258.75946"
       rx="4.7624989" />
    <path
       style="fill:none;fill-opacity:1;fill-rule:nonzero;stroke:#fdc458;stroke-width:3.175;stroke-dasharray:none;stroke-opacity:1"
       d="m 150.89988,264.4295 h 6.52056"
       id="path70" />
    <path
       style="fill:none;fill-opacity:1;fill-rule:nonzero;stroke:#370188;stroke-width:3.175;stroke-dasharray:none;stroke-opacity:1"
       d="m 151.48233,295.37917 4.18938,0.11045 -1.61756,-16.88499"
       id="path71"
       sodipodi:nodetypes="ccc" />
    <path
       style="fill:none;fill-opacity:1;fill-rule:nonzero;stroke:#370188;stroke-width:3.175;stroke-dasharray:none;stroke-opacity:1"
       d="m 175.93504,271.49523 c 20.34213,-1.95018 3.26374,-23.39214 23.81761,-27.51034"
       id="path72"
       sodipodi:nodetypes="cc" />
    <g
       id="g6"
       clip-path="url(#clipPath7)"
       transform="matrix(3.1749999,0,0,3.1749999,-731.00799,175.31468)">
      <path
         style="fill:#bb7a02;fill-opacity:1;stroke:#370188;stroke-width:1;stroke-dasharray:none;stroke-opacity:1"
         d="m 307.16212,40.776642 10.07164,1.854506 13.26439,-1.909846 -4.24343,-11.454819 -15.18611,-0.931933 z"
         id="path31-3-5-6-6-6"
         sodipodi:nodetypes="cccccc" />
      <path
         style="fill:#fdc458;fill-opacity:1;stroke:#370188;stroke-width:1;stroke-dasharray:none;stroke-opacity:1"
         d="m 302.19891,27.997124 c -1.7511,0.302522 -2.59329,1.360662 -3.13788,1.940006 -0.82877,0.881665 -1.57216,0.757981 -1.46695,-0.229668 0.1882,-1.766725 3.20973,-3.631771 4.47322,-3.750084"
         id="path30-6-0-7-0-8"
         sodipodi:nodetypes="cssc" />
      <path
         style="fill:#fdc458;fill-opacity:1;stroke:#370188;stroke-width:1;stroke-dasharray:none;stroke-opacity:1"
         d="m 307.29093,16.970319 c -3.82065,0.0838 -5.00544,3.521944 -5.08658,5.678286 -0.11334,3.012028 -0.4382,12.916805 0.60521,16.643238 1.0434,3.726433 1.63962,4.918891 7.60191,5.067949 5.9623,0.149057 20.86803,-0.149058 20.86803,-0.149058 0,0 -15.87498,-1.807224 -17.66367,-4.937428 -1.78869,-3.130204 -2.10274,-13.245437 -2.0119,-16.526826 0.0653,-2.357491 -0.73563,-5.627104 -4.313,-5.776161 z"
         id="path26-4-2-4-6-1"
         sodipodi:nodetypes="cssscssc" />
      <path
         sodipodi:type="spiral"
         style="fill:#bb7a02;fill-opacity:1;fill-rule:evenodd;stroke:#370188;stroke-width:0.695287;stroke-dasharray:none;stroke-opacity:1"
         id="path27-2-5-1-1-0"
         sodipodi:cx="105.75211"
         sodipodi:cy="39.133308"
         sodipodi:expansion="1.9"
         sodipodi:revolution="1.8526812"
         sodipodi:radius="10.963904"
         sodipodi:argument="-18.497511"
         sodipodi:t0="0.12886804"
         d="m 105.69006,39.348002 c -0.32401,0.23185 -0.69518,-0.169724 -0.77545,-0.456763 -0.23505,-0.84048 0.61833,-1.513252 1.36817,-1.59391 1.54382,-0.166068 2.64192,1.346958 2.66371,2.75927 0.0376,2.433734 -2.34374,4.074062 -4.61129,3.978909 -3.50843,-0.147224 -5.803332,-3.600767 -5.534662,-6.911455 0.386726,-4.765445 5.112132,-7.824404 9.650082,-7.326992 2.50124,0.274164 4.82855,1.527219 6.51074,3.386706"
         transform="matrix(-1.4382541,0,0,1.4382541,477.28914,-20.335728)" />
      <circle
         style="fill:#fdc458;fill-opacity:1;stroke:#370188;stroke-width:1;stroke-dasharray:none;stroke-opacity:1"
         id="path28-9-4-1-9-6"
         cx="301.12848"
         cy="11.127217"
         r="0.77635616" />
      <path
         style="fill:#ffffff;fill-opacity:1;stroke:#370188;stroke-width:1;stroke-dasharray:none;stroke-opacity:1"
         d="m 304.07864,17.86599 -2.48433,-5.838198"
         id="path29-2-2-1-0-0" />
      <circle
         style="fill:#fdc458;fill-opacity:1;stroke:#370188;stroke-width:1;stroke-dasharray:none;stroke-opacity:1"
         id="path28-0-2-1-2-2-4"
         cx="-312.83136"
         cy="11.026357"
         r="0.77635616"
         transform="scale(-1,1)" />
      <path
         style="fill:#ffffff;fill-opacity:1;stroke:#370188;stroke-width:1;stroke-dasharray:none;stroke-opacity:1"
         d="m 309.8812,17.765125 2.48433,-5.838198"
         id="path29-6-1-5-9-3-9" />
      <path
         style="fill:#fdc458;fill-opacity:1;stroke:#370188;stroke-width:1;stroke-dasharray:none;stroke-opacity:1"
         d="m 310.92238,27.820368 c 1.75109,0.302522 2.49446,1.953646 3.03905,2.53299 0.82877,0.881665 1.67099,0.527376 1.56578,-0.460273 -0.1882,-1.766725 -3.20974,-3.99415 -4.47322,-4.112463"
         id="path30-2-4-1-1-7-9"
         sodipodi:nodetypes="cssc" />
      <path
         style="mix-blend-mode:normal;fill:#02ee25;fill-opacity:1;fill-rule:nonzero;stroke:#370188;stroke-width:1;stroke-dasharray:none;stroke-opacity:1"
         d="m 301.36651,26.08006 0.51193,2.119187 -0.21218,1.637019 c 0,1.500673 -0.0199,9.956147 -2.66722,13.291934 4.98838,0.17497 25.14443,-0.04888 27.8223,-0.05739 -11.67011,-1.571153 -14.97834,-12.802599 -15.55469,-13.933461 -0.083,-0.162765 -0.0732,-0.840823 -0.0732,-0.840823 l 0.84366,-1.967865 -0.91598,-0.979057 -1.56457,1.954961 -6.1442,-0.05115 -1.0867,-1.986774 z"
         id="path33-0-6-6-2-4"
         sodipodi:nodetypes="cccccsccccccc" />
      <path
         style="fill:#370188;fill-opacity:1;stroke:none;stroke-width:3.97515;stroke-dasharray:none;stroke-opacity:1"
         id="path9-5-7-5-7-5"
         sodipodi:type="arc"
         sodipodi:cx="305.146"
         sodipodi:cy="20.829941"
         sodipodi:rx="0.83333331"
         sodipodi:ry="0.83333331"
         sodipodi:start="5.9341195"
         sodipodi:end="3.4906585"
         sodipodi:arc-type="chord"
         d="m 305.92907,20.544924 a 0.83333331,0.83333331 0 0 1 -0.28544,0.953453 0.83333331,0.83333331 0 0 1 -0.99527,0 0.83333331,0.83333331 0 0 1 -0.28544,-0.953453 z"
         sodipodi:open="true" />
      <path
         style="fill:#370188;fill-opacity:1;stroke:#370188;stroke-width:0.25;stroke-linecap:butt;stroke-dasharray:none;stroke-opacity:1"
         d="m 303.48891,20.557042 3.1561,-0.01383"
         id="path18-6-0"
         sodipodi:nodetypes="cc" />
      <path
         style="fill:#370188;fill-opacity:1;stroke:none;stroke-width:3.97515;stroke-dasharray:none;stroke-opacity:1"
         id="path9-5-7-5-7-6-6"
         sodipodi:type="arc"
         sodipodi:cx="308.82025"
         sodipodi:cy="20.812149"
         sodipodi:rx="0.83333331"
         sodipodi:ry="0.83333331"
         sodipodi:start="5.9341195"
         sodipodi:end="3.4906585"
         sodipodi:arc-type="chord"
         d="m 309.60333,20.527132 a 0.83333331,0.83333331 0 0 1 -0.28545,0.953453 0.83333331,0.83333331 0 0 1 -0.99526,0 0.83333331,0.83333331 0 0 1 -0.28545,-0.953453 z"
         sodipodi:open="true" />
      <path
         style="fill:#370188;fill-opacity:1;stroke:#370188;stroke-width:0.25;stroke-linecap:butt;stroke-dasharray:none;stroke-opacity:1"
         d="m 307.16318,20.539256 3.1561,-0.01383"
         id="path18-6-3-9"
         sodipodi:nodetypes="cc" />
    </g>
    <path
       style="fill:none;fill-opacity:1;stroke:#370188;stroke-width:1.5875;stroke-linecap:round;stroke-dasharray:none;stroke-opacity:1"
       d="m 60.665745,186.67553 c 0.29881,-10.73737 5.52299,-32.80464 5.79125,-43.41278"
       id="path13-1-9-2-1-7-8-0-7-4"
       sodipodi:nodetypes="cc" />
    <path
       style="fill:#018816;fill-opacity:1;stroke:#370188;stroke-width:3.175;stroke-dasharray:none;stroke-opacity:1"
       d="m 38.761664,253.46171 -2.44821,35.65858 51.518659,1.38376 -2.022443,-39.59698 z"
       id="path25-4-88" />
    <path
       style="fill:#ffffff;fill-opacity:1;stroke:#370188;stroke-width:3.175;stroke-dasharray:none;stroke-opacity:1"
       d="m 22.100404,261.90952 c 0,15.83268 7.10918,26.92819 17.07233,33.28661 2.37048,1.51282 4.90258,2.75752 7.53891,3.73402 23.316625,8.63654 54.788086,-3.70364 54.763766,-37.02063 l -15.068046,15.50715 -15.15129,-6.57609 -19.95754,9.34237 -10.75538,-11.69092 -8.4902,5.14359 z"
       id="path1-8-72"
       sodipodi:nodetypes="cssccccccc" />
    <path
       style="fill:#370189;fill-opacity:1;stroke:#370188;stroke-width:0;stroke-dasharray:none;stroke-opacity:1"
       d="m 46.028414,297.24546 -3.82692,-5.27259 5.07117,2.35369 1.32626,-3.92795 0.37681,4.14213 4.16998,-3.19913 -2.57346,4.76485 5.63245,0.54649 -3.69281,2.89899 z"
       id="path3-2-3"
       sodipodi:nodetypes="cccccccccc" />
    <path
       style="fill:#370189;fill-opacity:1;stroke:#370188;stroke-width:0;stroke-dasharray:none;stroke-opacity:1"
       d="m 77.17313,297.78182 3.03511,-5.32826 -4.745514,2.65567 -0.408241,-3.99876 -1.235837,4.49196 -4.724654,-1.3668 3.40941,3.17528 -4.781804,1.08258 4.502499,2.28216 z"
       id="path3-1-5-47"
       sodipodi:nodetypes="cccccccccc" />
    <path
       style="fill:#ee4302;fill-opacity:1;stroke:#370188;stroke-width:3.175;stroke-dasharray:none;stroke-opacity:1"
       d="m 46.622744,298.57553 c -0.0908,0.82798 -0.11081,10.87927 -0.11081,10.87927 l -7.65791,4.01428 9.17048,-1.55093 0.74285,0.90942 0.70028,-0.93297 8.75249,1.41576 -6.92597,-3.71138 c 0,0 0.0702,-8.98281 0.0127,-9.10428 z"
       id="path7-8-5"
       sodipodi:nodetypes="cccccccccc" />
    <path
       style="fill:#ee4302;fill-opacity:1;stroke:#370188;stroke-width:3.175;stroke-dasharray:none;stroke-opacity:1"
       d="m 76.661289,297.83763 0.340042,12.60688 7.871142,2.69119 -9.9795,-1.45316 -0.742855,0.90941 -0.70031,-0.93297 -9.076213,1.20136 7.41826,-3.10319 c 0,0 0.16637,-9.20292 0.179705,-9.394 z"
       id="path7-4-0-1"
       sodipodi:nodetypes="cccccccccc" />
    <path
       style="fill:none;fill-opacity:1;stroke:#370188;stroke-width:3.175;stroke-dasharray:none;stroke-opacity:1"
       d="m 47.120904,274.25789 3.90572,-9.47851 22.305455,-0.053 3.054921,7.69033"
       id="path19-60-09"
       sodipodi:nodetypes="cccc" />
    <path
       style="fill:#fdc458;fill-opacity:1;stroke:#370188;stroke-width:3.175;stroke-dasharray:none;stroke-opacity:1"
       d="m 35.476904,243.51551 c 0,0 -38.4727796,27.21074 6.9562,15.58833 z"
       id="path17-0-6"
       sodipodi:nodetypes="ccc" />
    <path
       style="fill:#fdc458;fill-opacity:1;stroke:#370188;stroke-width:3.175;stroke-dasharray:none;stroke-opacity:1"
       d="m 91.729425,244.5544 c 0,0 34.302285,21.19084 -7.534782,15.42339 z"
       id="path16-7-5"
       sodipodi:nodetypes="ccc" />
    <path
       style="fill:#fdc458;fill-opacity:1;stroke:#370188;stroke-width:3.175;stroke-dasharray:none;stroke-opacity:1"
       d="m 78.107533,229.75408 c 17.425955,-38.94192 -49.630839,-38.34514 -32.591499,0.64325 l 15.59274,7.69652 z"
       id="path23-5-08"
       sodipodi:nodetypes="cccc" />
    <path
       style="fill:#018816;fill-opacity:1;stroke:#370188;stroke-width:3.175;stroke-dasharray:none;stroke-opacity:1"
       d="m 44.475684,259.21674 -9.80031,4.04721 -6.62149,-19.13719 13.52251,-5.46455 -0.30575,-10.09069 19.875563,9.57891 20.4871,-10.49623 v 8.56176 l 14.32217,7.7724 -6.590696,18.69104 -9.531286,-3.85836"
       id="path12-0-8"
       sodipodi:nodetypes="ccccccccccc" />
    <path
       style="fill:none;fill-opacity:1;stroke:#370188;stroke-width:3.175;stroke-dasharray:none;stroke-opacity:1"
       d="m 41.271284,238.46069 19.874923,4.4824 20.996306,-6.52113"
       id="path22-1-8"
       sodipodi:nodetypes="ccc" />
    <path
       style="fill:none;fill-opacity:1;stroke:#370188;stroke-width:3.175;stroke-dasharray:none;stroke-opacity:1"
       d="m 51.964614,237.51375 -3.37312,20.3066"
       id="path10-79-2"
       sodipodi:nodetypes="cc" />
    <path
       style="fill:none;fill-opacity:1;stroke:#370188;stroke-width:3.175;stroke-dasharray:none;stroke-opacity:1"
       d="m 69.404509,237.00733 2.501138,20.97739"
       id="path11-71-5"
       sodipodi:nodetypes="cc" />
    <path
       style="fill:none;fill-opacity:1;stroke:#370188;stroke-width:3.175;stroke-dasharray:none;stroke-opacity:1"
       d="m 60.801274,219.91879 5.982749,3.09451 -7.220549,3.30086"
       id="path24-70-7" />
    <path
       style="fill:none;fill-opacity:1;stroke:#370188;stroke-width:3.175;stroke-dasharray:none;stroke-opacity:1"
       d="m 61.915573,202.8504 c 5.406327,-4.70872 -5.057489,-5.05752 0.523208,-8.89426"
       id="path26-0-1"
       sodipodi:nodetypes="cc" />
    <path
       style="fill:#370188;fill-opacity:1;stroke:#370188;stroke-width:0.79375;stroke-linecap:butt;stroke-dasharray:none;stroke-opacity:1"
       d="m 56.199524,213.77183 c -0.0444,-2.675 3.3435,-2.41303 3.3435,-0.13939 0,2.27378 -2.94224,2.19015 -3.25434,4.15183 -0.44577,-2.2292 -3.29918,-1.73876 -3.43294,-3.87878 -0.13367,-2.14001 3.2546,-3.25459 3.34378,-0.13366 z"
       id="path14"
       sodipodi:nodetypes="sscsss" />
    <path
       style="fill:#370188;fill-opacity:1;stroke:#370188;stroke-width:0.79375;stroke-linecap:butt;stroke-dasharray:none;stroke-opacity:1"
       d="m 68.893524,213.72087 c -0.04445,-2.675 3.343498,-2.41303 3.343498,-0.13938 0,2.27377 -2.942241,2.19014 -3.254344,4.15182 -0.44577,-2.2292 -3.299174,-1.73876 -3.432936,-3.87877 -0.133668,-2.14002 3.254597,-3.2546 3.343782,-0.13367 z"
       id="path14-5"
       sodipodi:nodetypes="sscsss" />
  </g>
</svg>
