<?xml version="1.0" encoding="UTF-8" standalone="no"?>
<!-- Created with Inkscape (http://www.inkscape.org/) -->

<svg
   width="600"
   height="715.76398"
   viewBox="0 0 600 715.764"
   version="1.1"
   id="svg1"
   inkscape:version="1.4 (e7c3feb1, 2024-10-09)"
   sodipodi:docname="logo-invert.svg"
   xmlns:inkscape="http://www.inkscape.org/namespaces/inkscape"
   xmlns:sodipodi="http://sodipodi.sourceforge.net/DTD/sodipodi-0.dtd"
   xmlns="http://www.w3.org/2000/svg"
   xmlns:svg="http://www.w3.org/2000/svg">
  <sodipodi:namedview
     id="namedview1"
     pagecolor="#ffffff"
     bordercolor="#000000"
     borderopacity="0.25"
     inkscape:showpageshadow="2"
     inkscape:pageopacity="0.0"
     inkscape:pagecheckerboard="0"
     inkscape:deskcolor="#d1d1d1"
     inkscape:document-units="px"
     inkscape:zoom="0.26440037"
     inkscape:cx="-442.51073"
     inkscape:cy="1013.6143"
     inkscape:window-width="1728"
     inkscape:window-height="1057"
     inkscape:window-x="2560"
     inkscape:window-y="355"
     inkscape:window-maximized="0"
     inkscape:current-layer="g2" />
  <defs
     id="defs1" />
  <g
     inkscape:label="Layer 1"
     inkscape:groupmode="layer"
     id="layer1">
    <g
       id="g2"
       inkscape:label="logo"
       transform="translate(-672,-126)">
      <rect
         style="fill:none;stroke:#ffffff;stroke-width:50;stroke-linecap:round;stroke-dasharray:none;stroke-opacity:1"
         id="rect1-5-6-6-7-3-0-5-1-2-0-0"
         width="550"
         height="550"
         x="697"
         y="151"
         inkscape:label="logo-rect" />
      <path
         style="font-weight:bold;font-size:224px;font-family:Montserrat;-inkscape-font-specification:'Montserrat Bold';letter-spacing:0px;word-spacing:0px;white-space:pre;fill:#ffffff;stroke-width:1.00157;stroke-linecap:round"
         d="m -1163.0986,621.56044 0.896,-42.56 56.224,-53.312 h 41.664 l -53.984,54.88 -18.144,14.784 z m -28.896,24.64 v -166.208 h 34.944 v 166.208 z m 89.824,0 -40.768,-50.624 21.952,-27.104 61.152,77.728 z"
         id="text1-3-8-8-3-9-8-16-2-5-7-5-4-1-2"
         inkscape:label="logo-k"
         transform="scale(-1,1)"
         aria-label="k" />
      <path
         style="font-weight:bold;font-size:228px;font-family:Montserrat;-inkscape-font-specification:'Montserrat Bold';letter-spacing:0px;word-spacing:0px;white-space:pre;fill:#ffffff;stroke-width:1.00157;stroke-linecap:round"
         d="m 824.50398,332.31204 q -15.504,0 -27.132,-6.84 -11.628,-6.84 -18.24,-20.748 -6.384,-14.136 -6.384,-35.568 0,-21.66 6.156,-35.568 6.156,-13.908 17.784,-20.748 11.628,-6.84 27.816,-6.84 17.328,0 31.008,7.98 13.908,7.752 21.888,21.888 8.208,14.136 8.208,33.288 0,19.38 -8.208,33.516 -7.98,14.136 -21.888,21.888 -13.68,7.752 -31.008,7.752 z m -72.504,42.408 v -166.896 h 33.972 v 25.08 l -0.684,36.48 2.28,36.252 v 69.084 z m 66.348,-71.592 q 8.892,0 15.732,-4.104 7.068,-4.104 11.172,-11.628 4.332,-7.752 4.332,-18.24 0,-10.716 -4.332,-18.24 -4.104,-7.524 -11.172,-11.628 -6.84,-4.104 -15.732,-4.104 -8.892,0 -15.96,4.104 -7.068,4.104 -11.172,11.628 -4.104,7.524 -4.104,18.24 0,10.488 4.104,18.24 4.104,7.524 11.172,11.628 7.068,4.104 15.96,4.104 z"
         id="text1-3-8-8-3-9-40-2-2-2-5-0-5"
         inkscape:label="logo-p"
         aria-label="p" />
      <path
         style="font-weight:bold;font-size:94.0506px;line-height:0;font-family:Montserrat;-inkscape-font-specification:'Montserrat Bold';letter-spacing:0px;word-spacing:0px;white-space:pre;fill:#ffffff;stroke-width:5.44143;stroke-linecap:round"
         d="m 701.90825,824.27023 q -6.39544,0 -11.19202,-2.82152 -4.79658,-2.82152 -7.52405,-8.55861 -2.63342,-5.83113 -2.63342,-14.67189 0,-8.93481 2.53937,-14.67189 2.53937,-5.73709 7.33595,-8.55861 4.79658,-2.82151 11.47417,-2.82151 7.14784,0 12.79088,3.29177 5.73709,3.19772 9.02886,9.02885 3.38582,5.83114 3.38582,13.73139 0,7.9943 -3.38582,13.82544 -3.29177,5.83114 -9.02886,9.02886 -5.64304,3.19772 -12.79088,3.19772 z m -29.90809,17.49341 V 772.9186 h 14.01354 v 10.34557 l -0.28215,15.04809 0.9405,14.95405 v 28.49733 z m 27.36872,-29.53189 q 3.66798,0 6.48949,-1.69291 2.91557,-1.69291 4.60848,-4.79658 1.78696,-3.19772 1.78696,-7.52405 0,-4.42038 -1.78696,-7.52405 -1.69291,-3.10367 -4.60848,-4.79658 -2.82151,-1.69291 -6.48949,-1.69291 -3.66797,0 -6.58354,1.69291 -2.91557,1.69291 -4.60848,4.79658 -1.69291,3.10367 -1.69291,7.52405 0,4.32633 1.69291,7.52405 1.69291,3.10367 4.60848,4.79658 2.91557,1.69291 6.58354,1.69291 z m 37.52624,11.28607 V 772.9186 h 14.01354 v 14.29569 l -1.97506,-4.13822 q 2.25722,-5.36089 7.2419,-8.08836 4.98468,-2.82151 12.13252,-2.82151 v 13.54328 q -0.9405,-0.0941 -1.69291,-0.0941 -0.7524,-0.094 -1.59886,-0.094 -6.01923,0 -9.78126,3.47987 -3.66797,3.38582 -3.66797,10.62772 v 23.88885 z m 63.80227,0.75241 q -8.08835,0 -14.38974,-3.38582 -6.20734,-3.38583 -9.87532,-9.21696 -3.57392,-5.92519 -3.57392,-13.44924 0,-7.6181 3.57392,-13.44923 3.66798,-5.92519 9.87532,-9.21696 6.30139,-3.38582 14.38974,-3.38582 7.9943,0 14.29569,3.38582 6.30139,3.29177 9.87531,9.12291 3.57393,5.83113 3.57393,13.54328 0,7.52405 -3.57393,13.44924 -3.57392,5.83113 -9.87531,9.21696 -6.30139,3.38582 -14.29569,3.38582 z m 0,-12.03848 q 3.66797,0 6.58354,-1.69291 2.91557,-1.69291 4.60848,-4.79658 1.69291,-3.19772 1.69291,-7.52405 0,-4.42038 -1.69291,-7.52405 -1.69291,-3.10367 -4.60848,-4.79658 -2.91557,-1.69291 -6.58354,-1.69291 -3.66797,0 -6.58354,1.69291 -2.91557,1.69291 -4.70253,4.79658 -1.69291,3.10367 -1.69291,7.52405 0,4.32633 1.69291,7.52405 1.78696,3.10367 4.70253,4.79658 2.91557,1.69291 6.58354,1.69291 z m 59.25194,12.03848 q -7.14785,0 -12.88493,-3.19772 -5.73709,-3.29177 -9.12291,-9.12291 -3.29177,-5.83114 -3.29177,-13.73139 0,-7.9943 3.29177,-13.82544 3.38582,-5.83113 9.12291,-9.02885 5.73708,-3.19772 12.88493,-3.19772 6.39544,0 11.19202,2.82151 4.79658,2.82152 7.43,8.55861 2.63341,5.73708 2.63341,14.67189 0,8.84076 -2.53936,14.67189 -2.53937,5.73709 -7.33595,8.55861 -4.70253,2.82152 -11.38012,2.82152 z m 2.53936,-12.03848 q 3.57393,0 6.48949,-1.69291 2.91557,-1.69291 4.60848,-4.79658 1.78697,-3.19772 1.78697,-7.52405 0,-4.42038 -1.78697,-7.52405 -1.69291,-3.10367 -4.60848,-4.79658 -2.91556,-1.69291 -6.48949,-1.69291 -3.66797,0 -6.58354,1.69291 -2.91557,1.69291 -4.70253,4.79658 -1.69291,3.10367 -1.69291,7.52405 0,4.32633 1.69291,7.52405 1.78696,3.10367 4.70253,4.79658 2.91557,1.69291 6.58354,1.69291 z m 13.26114,11.28607 v -10.34556 l 0.28215,-15.0481 -0.94051,-14.95404 v -29.43784 h 14.6719 v 69.78554 z m 48.90626,0.75241 q -6.30139,0 -11.28608,-2.44532 -4.89063,-2.44531 -7.61809,-7.43 -2.72747,-5.07873 -2.72747,-12.88493 V 772.9186 h 14.67189 v 26.42822 q 0,6.30139 2.63342,9.31101 2.72747,2.91557 7.6181,2.91557 3.38582,0 6.01924,-1.41076 2.63341,-1.50481 4.13822,-4.51443 1.50481,-3.10367 1.50481,-7.71215 V 772.9186 h 14.6719 v 50.59922 h -13.91949 v -13.91949 l 2.53936,4.04418 q -2.53936,5.26683 -7.52405,7.9943 -4.89063,2.63342 -10.72176,2.63342 z m 67.71644,0 q -8.1824,0 -14.57784,-3.29177 -6.39544,-3.38583 -10.06341,-9.31101 -3.57393,-5.92519 -3.57393,-13.44924 0,-7.6181 3.57393,-13.44923 3.66797,-5.92519 10.06341,-9.21696 6.39544,-3.38582 14.57784,-3.38582 7.99427,0 13.91947,3.38582 5.9252,3.29177 8.7467,9.49911 l -11.3801,6.11329 q -1.9751,-3.57393 -4.98468,-5.26684 -2.91556,-1.69291 -6.39544,-1.69291 -3.76202,0 -6.77164,1.69291 -3.00962,1.69291 -4.79658,4.79658 -1.69291,3.10367 -1.69291,7.52405 0,4.42038 1.69291,7.52405 1.78696,3.10367 4.79658,4.79658 3.00962,1.69291 6.77164,1.69291 3.47988,0 6.39544,-1.59886 3.00958,-1.69291 4.98468,-5.36088 l 11.3801,6.20734 q -2.8215,6.11328 -8.7467,9.49911 -5.9252,3.29177 -13.91947,3.29177 z m 52.59217,0 q -8.9348,0 -13.9195,-4.51443 -4.9847,-4.60848 -4.9847,-13.63734 v -44.39188 h 14.6719 v 44.20378 q 0,3.19772 1.6929,4.98468 1.6929,1.69291 4.6085,1.69291 3.4799,0 5.9252,-1.88101 l 3.9501,10.34557 q -2.2572,1.59886 -5.4549,2.44531 -3.1037,0.75241 -6.4895,0.75241 z m -26.7104,-40.06556 V 772.9186 h 35.0809 v 11.28607 z m 59.0637,28.96759 0.3763,-17.86962 23.6067,-22.38404 h 17.4934 l -22.6662,23.0424 -7.6181,6.20734 z m -12.1325,10.34556 v -69.78554 h 14.6719 v 69.78554 z m 37.7143,0 -17.1172,-21.25543 9.217,-11.38013 25.6758,32.63556 z m 23.8889,0 V 772.9186 h 14.6719 v 50.59922 z m 7.3359,-57.65301 q -4.0441,0 -6.5835,-2.35127 -2.5394,-2.35126 -2.5394,-5.83114 0,-3.47987 2.5394,-5.83113 2.5394,-2.35127 6.5835,-2.35127 4.0442,0 6.5836,2.25722 2.5394,2.16316 2.5394,5.64303 0,3.66798 -2.5394,6.11329 -2.4453,2.35127 -6.5836,2.35127 z m 20.9734,57.65301 V 772.9186 h 14.0135 v 14.01354 l -2.6334,-4.23228 q 2.7275,-5.07873 7.8062,-7.8062 5.0788,-2.72746 11.5682,-2.72746 6.0193,0 10.7218,2.44531 4.7966,2.35127 7.5241,7.33595 2.7274,4.89063 2.7274,12.60278 v 28.96758 h -14.6719 v -26.71037 q 0,-6.11329 -2.7274,-9.02886 -2.6335,-2.91556 -7.5241,-2.91556 -3.4799,0 -6.3014,1.50481 -2.7274,1.41075 -4.3263,4.42037 -1.5048,3.00962 -1.5048,7.71215 v 25.01746 z m 87.0879,0.75241 q -7.1478,0 -12.8849,-3.19772 -5.7371,-3.29177 -9.1229,-9.12291 -3.2918,-5.83114 -3.2918,-13.73139 0,-7.9943 3.2918,-13.82544 3.3858,-5.83113 9.1229,-9.02885 5.7371,-3.19772 12.8849,-3.19772 6.3955,0 11.1921,2.82151 4.7965,2.82152 7.4299,8.55861 2.6335,5.73708 2.6335,14.67189 0,8.84076 -2.5394,14.67189 -2.5394,5.73709 -7.3359,8.55861 -4.7026,2.82152 -11.3802,2.82152 z m 2.5394,-12.03848 q 3.5739,0 6.4895,-1.69291 2.9156,-1.69291 4.6085,-4.79658 1.7869,-3.19772 1.7869,-7.52405 0,-4.42038 -1.7869,-7.52405 -1.6929,-3.10367 -4.6085,-4.79658 -2.9156,-1.69291 -6.4895,-1.69291 -3.668,0 -6.5835,1.69291 -2.9156,1.69291 -4.7026,4.79658 -1.6929,3.10367 -1.6929,7.52405 0,4.32633 1.6929,7.52405 1.787,3.10367 4.7026,4.79658 2.9155,1.69291 6.5835,1.69291 z m 13.2611,11.28607 v -10.34556 l 0.2822,-15.0481 -0.9405,-14.95404 V 753.73228 H 1272 v 69.78554 z"
         id="text1-3-8-8-9-2-1-4-0-0-6-4"
         inkscape:label="logo-productkind"
         aria-label="productkind&#10;" />
    </g>
  </g>
</svg>
