<?xml version="1.0" encoding="UTF-8" standalone="no"?>
<!-- Created with Inkscape (http://www.inkscape.org/) -->

<svg
   width="600"
   height="59.775002"
   viewBox="0 0 600 59.775002"
   version="1.1"
   id="svg1"
   inkscape:version="1.4 (e7c3feb1, 2024-10-09)"
   sodipodi:docname="logo-thoughts.svg"
   xmlns:inkscape="http://www.inkscape.org/namespaces/inkscape"
   xmlns:sodipodi="http://sodipodi.sourceforge.net/DTD/sodipodi-0.dtd"
   xmlns:xlink="http://www.w3.org/1999/xlink"
   xmlns="http://www.w3.org/2000/svg"
   xmlns:svg="http://www.w3.org/2000/svg">
  <sodipodi:namedview
     id="namedview1"
     pagecolor="#ffffff"
     bordercolor="#000000"
     borderopacity="0.25"
     inkscape:showpageshadow="2"
     inkscape:pageopacity="0.0"
     inkscape:pagecheckerboard="0"
     inkscape:deskcolor="#d1d1d1"
     inkscape:document-units="px"
     showguides="true"
     inkscape:zoom="1.3440046"
     inkscape:cx="339.28455"
     inkscape:cy="199.40408"
     inkscape:window-width="1728"
     inkscape:window-height="1057"
     inkscape:window-x="2560"
     inkscape:window-y="355"
     inkscape:window-maximized="0"
     inkscape:current-layer="g1" />
  <defs
     id="defs1">
    <linearGradient
       inkscape:collect="always"
       xlink:href="#linearGradient57"
       id="linearGradient7"
       gradientUnits="userSpaceOnUse"
       gradientTransform="matrix(0.53498008,0,0,0.53498008,-939.16529,-1088.4152)"
       x1="2236.4951"
       y1="2222.7791"
       x2="1752.0898"
       y2="1986.3248" />
    <linearGradient
       id="linearGradient57"
       inkscape:collect="always"
       inkscape:label="ez">
      <stop
         style="stop-color:#00e5f0;stop-opacity:1;"
         offset="0.20183486"
         id="stop53" />
      <stop
         style="stop-color:#a7d4ff;stop-opacity:1;"
         offset="0.34709349"
         id="stop54" />
      <stop
         style="stop-color:#dac5ff;stop-opacity:1;"
         offset="0.4966068"
         id="stop55" />
      <stop
         style="stop-color:#ffb9ee;stop-opacity:1;"
         offset="0.64847851"
         id="stop56" />
      <stop
         style="stop-color:#ffbeca;stop-opacity:1;"
         offset="0.80035025"
         id="stop57" />
    </linearGradient>
  </defs>
  <g
     inkscape:label="Layer 1"
     inkscape:groupmode="layer"
     id="layer1">
    <g
       id="g1">
      <rect
         style="fill:url(#linearGradient7);stroke:none;stroke-width:26.7491;stroke-linecap:round;stroke-dasharray:none;stroke-opacity:1"
         id="rect63-90"
         width="256.74515"
         height="25.750462"
         x="0"
         y="24.715538"
         ry="0" />
      <path
         style="font-weight:bold;font-size:39.0504px;line-height:0;font-family:Montserrat;-inkscape-font-specification:'Montserrat Bold';letter-spacing:0px;word-spacing:0px;white-space:pre;fill:#0b0b0d;stroke-width:2.71051;stroke-linecap:round"
         d="m 363.29426,43.635287 q -2.65543,0 -4.647,-1.171512 -1.99157,-1.171512 -3.12403,-3.553587 -1.09341,-2.421124 -1.09341,-6.091862 0,-3.709788 1.05436,-6.091862 1.05436,-2.382075 3.04593,-3.553587 1.99157,-1.171512 4.76415,-1.171512 2.96783,0 5.31086,1.366764 2.38207,1.327714 3.74883,3.748839 1.40582,2.421124 1.40582,5.701358 0,3.319284 -1.40582,5.740409 -1.36676,2.421125 -3.74883,3.748838 -2.34303,1.327714 -5.31086,1.327714 z m -12.41803,7.263374 V 22.313769 h 5.81851 v 4.295544 l -0.11715,6.248063 0.39051,6.209014 V 50.898661 Z M 362.2399,38.636836 q 1.52297,0 2.69448,-0.702908 1.21056,-0.702907 1.91347,-1.99157 0.74196,-1.327714 0.74196,-3.124032 0,-1.835369 -0.74196,-3.124032 -0.70291,-1.288663 -1.91347,-1.99157 -1.17151,-0.702908 -2.69448,-0.702908 -1.52296,0 -2.73353,0.702908 -1.21056,0.702907 -1.91347,1.99157 -0.7029,1.288663 -0.7029,3.124032 0,1.796318 0.7029,3.124032 0.70291,1.288663 1.91347,1.99157 1.21057,0.702908 2.73353,0.702908 z m 15.58113,4.686048 V 22.313769 h 5.81851 v 5.93566 l -0.82006,-1.718217 q 0.93721,-2.225873 3.00688,-3.358335 2.06968,-1.171512 5.03751,-1.171512 v 5.623258 q -0.39051,-0.03905 -0.70291,-0.03905 -0.3124,-0.03905 -0.66386,-0.03905 -2.49922,0 -4.06124,1.444865 -1.52297,1.405814 -1.52297,4.412695 v 9.918802 z m 26.4911,0.312403 q -3.35833,0 -5.97471,-1.405815 -2.57733,-1.405814 -4.10029,-3.826939 -1.48392,-2.460175 -1.48392,-5.584207 0,-3.163082 1.48392,-5.584207 1.52296,-2.460175 4.10029,-3.826939 2.61638,-1.405815 5.97471,-1.405815 3.31929,0 5.93566,1.405815 2.61638,1.366764 4.10029,3.787888 1.48392,2.421125 1.48392,5.623258 0,3.124032 -1.48392,5.584207 -1.48391,2.421125 -4.10029,3.826939 -2.61637,1.405815 -5.93566,1.405815 z m 0,-4.998451 q 1.52297,0 2.73353,-0.702908 1.21056,-0.702907 1.91347,-1.99157 0.70291,-1.327714 0.70291,-3.124032 0,-1.835369 -0.70291,-3.124032 -0.70291,-1.288663 -1.91347,-1.99157 -1.21056,-0.702908 -2.73353,-0.702908 -1.52296,0 -2.73353,0.702908 -1.21056,0.702907 -1.95252,1.99157 -0.7029,1.288663 -0.7029,3.124032 0,1.796318 0.7029,3.124032 0.74196,1.288663 1.95252,1.99157 1.21057,0.702908 2.73353,0.702908 z m 24.60178,4.998451 q -2.96783,0 -5.3499,-1.327714 -2.38208,-1.366764 -3.78789,-3.787889 -1.36676,-2.421124 -1.36676,-5.701358 0,-3.319284 1.36676,-5.740409 1.40581,-2.421124 3.78789,-3.748838 2.38207,-1.327714 5.3499,-1.327714 2.65543,0 4.647,1.171512 1.99157,1.171512 3.08498,3.553587 1.09341,2.382074 1.09341,6.091862 0,3.670738 -1.05436,6.091862 -1.05436,2.382075 -3.04593,3.553587 -1.95252,1.171512 -4.7251,1.171512 z m 1.05436,-4.998451 q 1.48392,0 2.69448,-0.702908 1.21056,-0.702907 1.91347,-1.99157 0.74196,-1.327714 0.74196,-3.124032 0,-1.835369 -0.74196,-3.124032 -0.70291,-1.288663 -1.91347,-1.99157 -1.21056,-0.702908 -2.69448,-0.702908 -1.52296,0 -2.73352,0.702908 -1.21057,0.702907 -1.95252,1.99157 -0.70291,1.288663 -0.70291,3.124032 0,1.796318 0.70291,3.124032 0.74195,1.288663 1.95252,1.99157 1.21056,0.702908 2.73352,0.702908 z m 5.50611,4.686048 V 39.02734 l 0.11715,-6.248064 -0.3905,-6.209014 V 14.347487 h 6.09186 v 28.975397 z m 20.30618,0.312403 q -2.61638,0 -4.68605,-1.015311 -2.03062,-1.01531 -3.16308,-3.084981 -1.13246,-2.108722 -1.13246,-5.349905 V 22.313769 h 6.09186 v 10.973162 q 0,2.616377 1.09341,3.865989 1.13246,1.210563 3.16309,1.210563 1.40581,0 2.49922,-0.585756 1.09341,-0.624807 1.71822,-1.874419 0.62481,-1.288664 0.62481,-3.202133 V 22.313769 h 6.09186 v 21.009115 h -5.77946 v -5.77946 l 1.05436,1.679168 q -1.05436,2.186822 -3.12403,3.319284 -2.03062,1.093411 -4.45175,1.093411 z m 28.1163,0 q -3.39738,0 -6.05281,-1.366764 -2.65543,-1.405815 -4.17839,-3.86599 -1.48392,-2.460175 -1.48392,-5.584207 0,-3.163082 1.48392,-5.584207 1.52296,-2.460175 4.17839,-3.826939 2.65543,-1.405815 6.05281,-1.405815 3.31929,0 5.77946,1.405815 2.46018,1.366764 3.63169,3.94409 l -4.7251,2.538276 q -0.82006,-1.483915 -2.06967,-2.186822 -1.21056,-0.702908 -2.65543,-0.702908 -1.56201,0 -2.81163,0.702908 -1.24961,0.702907 -1.99157,1.99157 -0.70291,1.288663 -0.70291,3.124032 0,1.835369 0.70291,3.124032 0.74196,1.288663 1.99157,1.99157 1.24962,0.702908 2.81163,0.702908 1.44487,0 2.65543,-0.663857 1.24961,-0.702907 2.06967,-2.225873 l 4.7251,2.577326 q -1.17151,2.538276 -3.63169,3.944091 -2.46017,1.366764 -5.77946,1.366764 z m 21.83659,0 q -3.70979,0 -5.77946,-1.874419 -2.06967,-1.91347 -2.06967,-5.662308 V 17.666771 h 6.09186 v 18.353688 q 0,1.327713 0.70291,2.069671 0.70291,0.702907 1.91347,0.702907 1.44486,0 2.46017,-0.781008 l 1.64012,4.295544 q -0.93721,0.663857 -2.26492,1.015311 -1.28866,0.312403 -2.69448,0.312403 z M 494.64314,26.999816 v -4.686047 h 14.5658 v 4.686047 z m 24.52362,12.027524 0.1562,-7.419576 9.80165,-9.293995 h 7.26337 l -9.41114,9.567347 -3.16309,2.577327 z m -5.0375,4.295544 V 14.347487 h 6.09186 v 28.975397 z m 15.65921,0 -7.10718,-8.825391 3.82694,-4.725098 10.66076,13.550489 z m 9.91883,0 V 22.313769 h 6.09187 v 21.009115 z m 3.04594,-23.937895 q -1.67917,0 -2.73353,-0.97626 -1.05436,-0.97626 -1.05436,-2.421125 0,-1.444865 1.05436,-2.421125 1.05436,-0.97626 2.73353,-0.97626 1.67916,0 2.73352,0.93721 1.05436,0.898159 1.05436,2.343024 0,1.522965 -1.05436,2.538276 -1.01531,0.97626 -2.73352,0.97626 z m 8.70826,23.937895 V 22.313769 h 5.81851 v 5.818509 L 556.1866,26.37501 q 1.13246,-2.108721 3.24118,-3.241183 2.10872,-1.132462 4.8032,-1.132462 2.49923,0 4.45175,1.015311 1.99157,0.97626 3.12403,3.045931 1.13246,2.030621 1.13246,5.232753 v 12.027524 h -6.09186 V 32.23257 q 0,-2.538276 -1.13246,-3.748838 -1.09341,-1.210563 -3.12404,-1.210563 -1.44486,0 -2.61637,0.624807 -1.13246,0.585756 -1.79632,1.835368 -0.62481,1.249613 -0.62481,3.202133 v 10.387407 z m 36.15947,0.312403 q -2.96783,0 -5.34991,-1.327714 -2.38207,-1.366764 -3.78789,-3.787889 -1.36676,-2.421124 -1.36676,-5.701358 0,-3.319284 1.36676,-5.740409 1.40582,-2.421124 3.78789,-3.748838 2.38208,-1.327714 5.34991,-1.327714 2.65542,0 4.64699,1.171512 1.99158,1.171512 3.08499,3.553587 1.09341,2.382074 1.09341,6.091862 0,3.670738 -1.05436,6.091862 -1.05436,2.382075 -3.04593,3.553587 -1.95252,1.171512 -4.7251,1.171512 z m 1.05436,-4.998451 q 1.48391,0 2.69448,-0.702908 1.21056,-0.702907 1.91347,-1.99157 0.74195,-1.327714 0.74195,-3.124032 0,-1.835369 -0.74195,-3.124032 -0.70291,-1.288663 -1.91347,-1.99157 -1.21057,-0.702908 -2.69448,-0.702908 -1.52297,0 -2.73353,0.702908 -1.21056,0.702907 -1.95252,1.99157 -0.70291,1.288663 -0.70291,3.124032 0,1.796318 0.70291,3.124032 0.74196,1.288663 1.95252,1.99157 1.21056,0.702908 2.73353,0.702908 z m 5.5061,4.686048 V 39.02734 l 0.11716,-6.248064 -0.39051,-6.209014 V 14.347487 h 6.09186 v 28.975397 z"
         id="text1-3-8-8-9-2-1-4-0-0-6-0-45"
         inkscape:label="logo-productkind"
         aria-label="productkind&#10;" />
      <path
         style="font-weight:bold;font-size:59.7752px;line-height:2;font-family:'Josefin Slab';-inkscape-font-specification:'Josefin Slab Bold';text-align:center;letter-spacing:0px;word-spacing:0px;text-anchor:middle;white-space:pre;fill:#0b0b0d;stroke-width:24.9064;stroke-linecap:round"
         d="M 31.812181,44.831398 V 40.109157 H 27.448592 V 7.7109989 h 9.265156 v 4.4831401 h 4.72224 V 2.9887581 H 8.3803028 V 12.194139 H 13.102544 V 7.7109989 H 22.48725 V 40.109157 h -5.140667 v 4.722241 z m 27.078119,0 v -4.722241 h -3.765838 v -6.156845 q 0,-1.554156 0.657527,-2.86921 0.657527,-1.315054 1.733481,-2.271458 1.075954,-0.956403 2.450783,-1.49438 1.434605,-0.537976 2.98876,-0.537976 2.271458,0.11955 3.287636,1.315054 1.075954,1.135729 1.195504,2.749659 v 9.265156 h -4.60269 v 4.722241 H 76.105557 V 40.109157 H 72.399495 V 28.572544 q -0.119551,-2.98876 -2.151907,-4.841792 -2.032357,-1.853031 -5.559094,-1.853031 -3.407186,0.179326 -5.917745,1.793256 -2.510558,1.554155 -3.825613,4.48314 l 0.179326,-2.689884 V -1.9073486e-6 H 45.620205 V 4.7222389 H 50.16312 V 40.109157 h -4.542915 v 4.722241 z m 40.706878,-2.928985 q 1.613932,-1.61393 2.510562,-3.706062 0.9564,-2.151907 0.9564,-4.602691 0,-2.391008 -0.9564,-4.542915 -0.89663,-2.151907 -2.510562,-3.765837 -1.61393,-1.554156 -3.825613,-2.450784 -2.211682,-0.956403 -4.722241,-0.956403 -2.510558,0 -4.72224,0.956403 -2.151908,0.896628 -3.765838,2.450784 -1.61393,1.61393 -2.570334,3.765837 -0.896628,2.151907 -0.896628,4.542915 0,2.510559 0.896628,4.602691 0.956404,2.092132 2.570334,3.706062 1.61393,1.613931 3.765838,2.570334 2.211682,0.896628 4.72224,0.896628 2.510559,0 4.722241,-0.896628 2.211683,-0.956403 3.825613,-2.570334 z M 86.087983,38.495227 q -0.956403,-0.896628 -1.49438,-2.151907 -0.537977,-1.25528 -0.537977,-2.689884 0,-1.434605 0.537977,-2.689884 0.537977,-1.25528 1.49438,-2.211683 0.896628,-0.956403 2.151907,-1.49438 1.255279,-0.537977 2.689884,-0.537977 1.434605,0 2.689884,0.537977 1.255279,0.537977 2.211682,1.49438 0.956404,0.956403 1.49438,2.211683 0.537977,1.255279 0.537977,2.689884 0,1.434604 -0.537977,2.689884 -0.537976,1.255279 -1.49438,2.151907 -0.956403,0.956403 -2.211682,1.49438 -1.255279,0.537977 -2.689884,0.537977 -1.434605,0 -2.689884,-0.537977 -1.255279,-0.537977 -2.151907,-1.49438 z m 42.261157,0.597752 -0.17933,2.689884 v 3.048535 h 8.66741 v -4.184264 h -3.70607 V 22.415698 h -8.9065 v 4.722241 h 3.94516 v 6.156845 q 0,1.554156 -0.65753,2.86921 -0.65752,1.315054 -1.73348,2.271458 -1.07595,0.956403 -2.51055,1.49438 -1.37483,0.537976 -2.92899,0.537976 -2.27146,-0.11955 -3.34741,-1.255279 -1.01618,-1.195504 -1.13573,-2.809434 V 22.415698 h -8.9065 v 4.722241 h 3.94516 v 11.536613 q 0.11955,2.98876 2.15191,4.841792 2.03235,1.853031 5.55909,1.853031 3.22786,0 5.85797,-1.673706 2.68988,-1.733481 3.88539,-4.60269 z m 14.64489,17.095707 q 1.79326,1.255279 4.30382,2.391008 2.51056,1.195504 5.20044,1.195504 2.51056,0 4.66246,-0.896628 2.15191,-0.896628 3.76584,-2.450783 1.61393,-1.49438 2.51056,-3.586512 0.9564,-2.032357 0.9564,-4.423365 V 27.137939 h 4.54292 v -4.722241 h -8.6674 q -0.11956,0.836853 -0.17933,1.49438 -0.0598,0.657527 -0.0598,1.315054 -0.7173,-1.135728 -2.74965,-2.211682 -1.97259,-1.135729 -4.8418,-1.135729 -2.51055,0 -4.72224,0.956403 -2.21168,0.956404 -3.82561,2.570334 -1.61393,1.61393 -2.57033,3.765838 -0.89663,2.151907 -0.89663,4.48314 0,2.391008 0.89663,4.542915 0.9564,2.092132 2.57033,3.646287 1.61393,1.61393 3.82561,2.570334 2.21169,0.896628 4.72224,0.896628 1.61393,0 2.92899,-0.298876 1.31505,-0.298876 2.27146,-0.777078 0.7173,-0.358651 1.25528,-0.717302 0.53797,-0.418427 0.7173,-0.717303 -0.11955,0.358651 -0.17933,0.777078 0,0.418426 0,0.537977 v 3.526736 q 0,1.49438 -0.53797,2.74966 -0.47821,1.315054 -1.43461,2.211682 -0.9564,0.956403 -2.27146,1.49438 -1.25528,0.537977 -2.80943,0.537977 -1.73348,0 -3.34741,-0.836853 -1.55416,-0.777078 -2.74966,-1.673706 z m 9.44448,-29.469174 q 1.37483,0 2.57034,0.418427 1.1955,0.418426 2.09213,1.135729 1.07595,0.956403 1.67371,2.331232 0.65752,1.315055 0.65752,2.98876 0,1.434605 -0.4782,2.689884 -0.4782,1.25528 -1.37483,2.151908 -0.89663,0.956403 -2.21168,1.554155 -1.31506,0.537977 -2.92899,0.537977 -1.49438,0 -2.74966,-0.478202 -1.1955,-0.478202 -2.1519,-1.315054 -0.95641,-0.956404 -1.55416,-2.271458 -0.53797,-1.315054 -0.53797,-2.86921 0,-1.374829 0.41842,-2.570333 0.41843,-1.195504 1.25528,-2.092132 0.89663,-1.016179 2.27146,-1.613931 1.37483,-0.597752 3.04853,-0.597752 z m 33.95237,18.111886 v -4.722241 h -3.76584 v -6.156845 q 0,-1.554156 0.65753,-2.86921 0.65752,-1.315054 1.73348,-2.271458 1.07595,-0.956403 2.45078,-1.49438 1.4346,-0.537976 2.98876,-0.537976 2.27146,0.11955 3.28764,1.315054 1.07595,1.135729 1.1955,2.749659 v 9.265156 h -4.60269 v 4.722241 h 13.27009 v -4.722241 h -3.70606 V 28.572544 q -0.11955,-2.98876 -2.15191,-4.841792 -2.03235,-1.853031 -5.55909,-1.853031 -3.40719,0.179326 -5.91774,1.793256 -2.51056,1.554155 -3.82562,4.48314 l 0.17933,-2.689884 V -1.9073486e-6 h -9.50426 V 4.7222389 h 4.54292 V 40.109157 h -4.54292 v 4.722241 z m 34.66957,0 v -4.722241 h -4.48314 V 27.257489 h 5.85797 v -4.841791 h -5.85797 V 7.8305493 h -4.96134 V 22.415698 h -5.02111 v 4.841791 h 5.02111 v 17.573909 z m 19.96487,-2.211682 q 0.83686,-1.135729 1.13573,-2.331233 0.35865,-1.195504 0.35865,-2.032357 0,-1.853031 -0.65752,-3.048535 -0.65753,-1.255279 -1.67371,-2.092132 -1.01618,-0.777078 -2.21168,-1.315055 -1.19551,-0.537976 -2.21168,-0.956403 -1.07596,-0.418426 -1.85304,-0.836853 -0.77707,-0.478201 -0.89662,-1.195504 -0.0598,-0.478201 0.0598,-0.836852 0.11955,-0.418427 0.41843,-0.717303 0.29887,-0.239101 0.77708,-0.358651 0.4782,-0.179326 1.13572,-0.179326 0.47821,0 0.89663,0.119551 0.41843,0.05978 0.89663,0.179325 v 2.570334 h 4.42336 V 24.38828 q -0.65752,-0.717303 -1.55415,-1.195504 -0.83685,-0.478202 -1.73348,-0.777078 -0.89663,-0.298876 -1.79326,-0.418426 -0.83685,-0.119551 -1.4346,-0.119551 -1.01618,0 -2.27146,0.358651 -1.25528,0.358652 -2.33123,1.195504 -1.07596,0.777078 -1.79326,2.032357 -0.7173,1.255279 -0.7173,3.108311 0,2.092132 0.7173,3.347411 0.7173,1.255279 1.79326,1.912806 1.13573,0.717303 2.39101,1.135729 1.25527,0.358651 2.27145,0.777078 1.07596,0.358651 1.67371,0.956403 0.65753,0.537977 0.65753,1.61393 0,0.597752 -0.2391,1.016179 -0.17933,0.358651 -0.47821,0.597752 -0.41842,0.298876 -0.9564,0.418426 -0.4782,0.11955 -0.9564,0.11955 -1.01618,0 -1.73348,-0.05977 -0.65753,-0.11955 -1.37483,-0.418426 v -2.331233 h -4.42337 v 5.200442 q 1.19551,1.315055 3.22786,1.912807 2.03236,0.537977 4.24404,0.537977 2.39101,0 3.88539,-0.777078 1.49438,-0.777078 2.33123,-1.912806 z m 23.3721,2.211682 h 8.90651 v -1.195504 q 0,-0.418426 0,-0.597752 0,-0.179326 0,-0.597752 0.0598,0.179326 0.59775,0.657527 0.53798,0.478202 1.55416,0.956403 0.9564,0.537977 2.33123,0.896628 1.37483,0.418427 3.10831,0.418427 2.51056,0 4.72224,-0.896628 2.21168,-0.956403 3.82561,-2.570334 1.61393,-1.61393 2.51056,-3.765837 0.9564,-2.151908 0.9564,-4.542916 0,-2.391008 -0.9564,-4.48314 -0.89663,-2.151907 -2.51056,-3.765837 -1.61393,-1.613931 -3.82561,-2.510559 -2.21168,-0.956403 -4.72224,-0.956403 -1.55416,0 -2.92899,0.418427 -1.31505,0.418426 -2.33123,0.956403 -1.01618,0.537977 -1.4346,0.956403 -0.41843,0.358651 -0.47821,0.537977 0.11955,-0.478202 0.11955,-0.777078 0.0598,-0.358651 0.0598,-0.777077 V -1.9073486e-6 h -8.9065 V 4.7222389 h 3.94516 V 40.109157 h -4.54292 z m 16.49796,-18.111886 q 1.4346,0 2.63011,0.478202 1.25528,0.418426 2.1519,1.195504 1.01618,0.896628 1.61393,2.271458 0.59776,1.315054 0.59776,2.928984 0,1.49438 -0.53798,2.809435 -0.53798,1.255279 -1.4346,2.211682 -0.95641,0.896628 -2.21169,1.434605 -1.25528,0.478202 -2.80943,0.478202 -1.43461,0 -2.68989,-0.478202 -1.1955,-0.478202 -2.1519,-1.255279 -1.01618,-0.956403 -1.61393,-2.271458 -0.53798,-1.374829 -0.53798,-2.928985 0,-1.374829 0.41843,-2.570333 0.4782,-1.255279 1.31505,-2.151907 0.89663,-1.016179 2.21168,-1.554156 1.37483,-0.597752 3.04854,-0.597752 z m 30.48535,33.055686 v -4.722241 h -2.92898 q 3.52674,-7.053473 6.9937,-13.927621 3.52673,-6.933924 7.05347,-13.987397 h 4.90157 v -4.722241 h -13.68852 v 4.722241 h 3.70606 q -1.73348,3.287636 -3.46696,6.635047 -1.67371,3.287636 -2.80944,6.635047 -1.13573,-3.347411 -2.86921,-6.635047 -1.73348,-3.347411 -3.46696,-6.635047 h 3.16809 v -4.722241 h -13.2701 v 4.722241 h 5.02112 q 2.27146,4.48314 4.42337,8.846729 2.21168,4.36359 4.48313,8.84673 -1.31505,2.510558 -2.6301,5.080892 -1.25528,2.570334 -2.51056,5.140667 h -5.37977 v 4.722241 z"
         id="text8-1"
         aria-label="Thoughts by" />
    </g>
  </g>
</svg>
