<?xml version="1.0" encoding="UTF-8" standalone="no"?>
<!-- Created with Inkscape (http://www.inkscape.org/) -->

<svg
   width="600"
   height="600"
   viewBox="0 0 158.75 158.75"
   version="1.1"
   id="svg1"
   inkscape:version="1.4 (e7c3feb1, 2024-10-09)"
   sodipodi:docname="logo-seminars.svg"
   xmlns:inkscape="http://www.inkscape.org/namespaces/inkscape"
   xmlns:sodipodi="http://sodipodi.sourceforge.net/DTD/sodipodi-0.dtd"
   xmlns:xlink="http://www.w3.org/1999/xlink"
   xmlns="http://www.w3.org/2000/svg"
   xmlns:svg="http://www.w3.org/2000/svg">
  <sodipodi:namedview
     id="namedview1"
     pagecolor="#ffffff"
     bordercolor="#000000"
     borderopacity="0.25"
     inkscape:showpageshadow="2"
     inkscape:pageopacity="0.0"
     inkscape:pagecheckerboard="0"
     inkscape:deskcolor="#d1d1d1"
     inkscape:document-units="px"
     showguides="true"
     inkscape:zoom="0.84764738"
     inkscape:cx="121.51279"
     inkscape:cy="390.49256"
     inkscape:window-width="1728"
     inkscape:window-height="1057"
     inkscape:window-x="0"
     inkscape:window-y="32"
     inkscape:window-maximized="0"
     inkscape:current-layer="g16" />
  <defs
     id="defs1">
    <linearGradient
       id="linearGradient4"
       inkscape:collect="always">
      <stop
         style="stop-color:#6002ee;stop-opacity:1;"
         offset="0"
         id="stop4" />
      <stop
         style="stop-color:#ff00e3;stop-opacity:1;"
         offset="1"
         id="stop5" />
    </linearGradient>
    <rect
       x="2895.6289"
       y="2287.6228"
       width="9223.7227"
       height="4950.9526"
       id="rect7-0-0-7-2-3-8-2-6-2-7-80-7-0-0-4-7" />
    <linearGradient
       inkscape:collect="always"
       xlink:href="#linearGradient4"
       id="linearGradient2"
       gradientUnits="userSpaceOnUse"
       x1="2985.6289"
       y1="3126.873"
       x2="8421.625"
       y2="3126.873" />
    <linearGradient
       inkscape:collect="always"
       xlink:href="#linearGradient57"
       id="linearGradient7"
       gradientUnits="userSpaceOnUse"
       gradientTransform="matrix(0.29025292,0,0,0.29025292,-509.54319,-535.77929)"
       x1="2236.4951"
       y1="2222.7791"
       x2="1752.0898"
       y2="1986.3248" />
    <linearGradient
       id="linearGradient57"
       inkscape:collect="always"
       inkscape:label="ez">
      <stop
         style="stop-color:#00e5f0;stop-opacity:1;"
         offset="0.20183486"
         id="stop53" />
      <stop
         style="stop-color:#a7d4ff;stop-opacity:1;"
         offset="0.34709349"
         id="stop54" />
      <stop
         style="stop-color:#dac5ff;stop-opacity:1;"
         offset="0.4966068"
         id="stop55" />
      <stop
         style="stop-color:#ffb9ee;stop-opacity:1;"
         offset="0.64847851"
         id="stop56" />
      <stop
         style="stop-color:#ffbeca;stop-opacity:1;"
         offset="0.80035025"
         id="stop57" />
    </linearGradient>
  </defs>
  <g
     inkscape:label="Layer 1"
     inkscape:groupmode="layer"
     id="layer1">
    <g
       id="text7-3-8-8-9-0-4-9-1-0-58-6-8-2-3-6-2"
       style="font-size:1500px;font-family:'Monaspace Neon';-inkscape-font-specification:'Monaspace Neon';white-space:pre;fill:url(#linearGradient2);stroke-width:18"
       transform="matrix(3.6511272,0,0,3.6511272,-10881.861,-9336.9986)"
       aria-label="Seminars" />
    <g
       id="g9">
      <g
         id="g10">
        <g
           id="g16">
          <rect
             style="fill:url(#linearGradient7);stroke:none;stroke-width:14.5127;stroke-linecap:round;stroke-dasharray:none;stroke-opacity:1"
             id="rect63-90"
             width="158.75"
             height="13.970889"
             x="0"
             y="68.148705"
             ry="0" />
          <path
             id="path48-3-8-0"
             style="opacity:1;fill:#0b0b0d;stroke-width:1.40703;stroke-linejoin:bevel;fill-opacity:1"
             d="m 32.434963,65.692054 c -0.699592,0.05234 -1.3834,0.251276 -2.008853,0.566097 -1.250914,0.629652 -2.29489,1.73943 -2.848344,3.101837 -0.530323,1.305458 -0.610273,2.842847 0.0096,4.412022 l 1.04251,-0.419023 c -1.058568,-2.679975 0.328318,-5.102527 2.299116,-6.09453 1.006998,-0.50687 2.143189,-0.625739 3.204269,-0.2116 1.026212,0.400522 2.020396,1.30912 2.75393,2.996599 l 1.039806,-0.417566 c -0.826718,-1.914367 -2.042104,-3.095645 -3.387022,-3.620566 -0.69172,-0.269976 -1.405446,-0.365632 -2.105038,-0.31327 z m 1.51694,2.316629 c -0.916648,-0.372837 -1.895467,-0.256121 -2.698617,0.170379 -1.550087,0.823147 -2.54794,2.82872 -1.74356,4.820595 l 1.040346,-0.417435 c -0.597572,-1.468857 0.15805,-2.842874 1.228096,-3.411098 0.553914,-0.294145 1.163003,-0.362631 1.750529,-0.123674 0.547426,0.222651 1.113124,0.727683 1.565137,1.715253 l 1.039581,-0.416781 C 35.58809,69.134158 34.81761,68.360799 33.951903,68.008688 Z m -0.684274,1.937396 c -0.48532,-0.17887 -0.987174,-0.03252 -1.335565,0.239086 -0.3484,0.271534 -0.597418,0.68374 -0.610079,1.17069 -0.0072,0.275939 0.08119,0.56182 0.252109,0.815941 l 1.116778,-0.447184 c -0.246757,-0.156246 -0.250097,-0.247895 -0.247667,-0.341278 0.0025,-0.09441 0.07294,-0.233659 0.178622,-0.316028 0.105686,-0.0823 0.192339,-0.093 0.258324,-0.06866 0.06409,0.02366 0.209266,0.113495 0.330057,0.518171 l 1.04193,-0.416971 C 34.057345,70.52376 33.71528,70.111127 33.267629,69.946116 Z M 79.224238,57.613424 c -0.295324,0 -0.550363,0.107394 -0.765141,0.322165 -0.214771,0.214776 -0.32217,0.469823 -0.32217,0.76514 0,0.295318 0.107395,0.550364 0.32217,0.76514 0.214778,0.187929 0.469817,0.281895 0.765141,0.281895 0.268466,0 0.510096,-0.09396 0.724874,-0.281895 0.214771,-0.214776 0.322168,-0.469822 0.322168,-0.76514 0,-0.295317 -0.107394,-0.550364 -0.322168,-0.76514 -0.214778,-0.214776 -0.456408,-0.322165 -0.724874,-0.322165 z m -46.351323,5.960039 c -1.100728,0 -2.134336,0.214776 -3.100832,0.644328 -0.939645,0.402705 -1.758474,0.95307 -2.456497,1.651096 -0.724874,0.698021 -1.288664,1.530271 -1.69137,2.496767 -0.402697,0.966495 -0.60405,1.986683 -0.60405,3.060563 0,1.100726 0.201353,2.120913 0.60405,3.060555 0.402706,0.93965 0.966496,1.771907 1.69137,2.496774 0.698023,0.69802 1.516852,1.261817 2.456497,1.691369 0.966496,0.402698 2.000104,0.604055 3.100832,0.604055 1.047035,0 2.013522,-0.18793 2.89948,-0.56379 0.912794,-0.37586 1.718205,-0.899377 2.416228,-1.57055 l -0.724867,-0.845685 c -0.590632,0.590636 -1.275237,1.047034 -2.053798,1.369202 -0.778569,0.32216 -1.624241,0.483244 -2.537043,0.483244 -1.396044,0 -2.644431,-0.362433 -3.74516,-1.087299 -1.10072,-0.751719 -1.90614,-1.731635 -2.416228,-2.939753 -0.06898,-0.200164 -0.276442,-0.796374 -0.322175,-1.047034 -0.295317,-1.047033 -0.335586,-2.067221 -0.120813,-3.060555 0.241622,-0.993342 0.657754,-1.879291 1.248386,-2.657858 0.617485,-0.805411 1.382628,-1.449739 2.295422,-1.932984 0.939644,-0.510098 1.959834,-0.765145 3.060563,-0.765145 1.181266,0 2.255152,0.335594 3.221639,1.006767 0.966496,0.671175 1.704788,1.543706 2.214874,2.617585 0,0 0.343233,0.678593 0.463904,1.000621 0.328011,-0.131885 0.656626,-0.264077 0.985837,-0.396566 -0.268473,-0.778558 -0.63091,-1.476585 -1.087304,-2.094067 -0.429557,-0.644328 -0.9128,-1.194691 -1.449739,-1.65109 -0.590633,-0.510089 -1.261813,-0.899376 -2.01353,-1.167844 -0.751716,-0.268468 -1.530277,-0.402706 -2.335689,-0.402706 z m 81.346395,0 c -1.10073,0 -2.13434,0.214776 -3.10083,0.644328 -0.93965,0.402705 -1.75848,0.95307 -2.4565,1.651096 -0.72487,0.698021 -1.28865,1.530271 -1.69136,2.496767 -0.4027,0.966495 -0.60406,1.986683 -0.60406,3.060563 0,1.100726 0.20136,2.120913 0.60406,3.060555 0.40271,0.93965 0.96649,1.758482 1.69136,2.456501 0.69802,0.724874 1.51685,1.30209 2.4565,1.731642 0.96649,0.402698 2.0001,0.604055 3.10083,0.604055 0.83226,0 1.61083,-0.107394 2.33569,-0.322168 0.75172,-0.241622 1.42289,-0.577209 2.01353,-1.00676 0.59063,-0.37586 1.10073,-0.818839 1.53028,-1.328929 0.42955,-0.536943 0.76514,-1.100733 1.00675,-1.691362 0,0.375853 -0.0134,0.738294 -0.0403,1.087308 v 1.087298 1.892718 h 4.02704 v -1.087306 h -2.98001 V 63.895631 h -0.88594 c -0.0268,0.69802 -0.0537,1.382622 -0.0805,2.053795 l -0.0805,2.013522 c -0.5101,-1.234956 -1.36919,-2.268564 -2.57732,-3.100821 -1.20811,-0.859104 -2.63099,-1.288664 -4.26867,-1.288664 z m -60.768171,0.04028 c -1.530277,0 -2.886054,0.389287 -4.06732,1.167844 -1.154423,0.751721 -2.01353,1.771901 -2.57732,3.060558 0,-0.429553 -0.01342,-0.791986 -0.04027,-1.0873 0,-0.322168 -0.01342,-0.684601 -0.04027,-1.087307 l -0.04027,-1.7719 H 42.85999 v 1.0873 h 2.939749 v 12.926838 h -3.141102 v 1.087306 h 7.409775 V 77.909769 H 46.927314 V 70.45972 c 0,-0.832256 0.174502,-1.597396 0.523513,-2.295416 0.349011,-0.724873 0.832263,-1.342347 1.44974,-1.852445 0.590642,-0.483245 1.275238,-0.872531 2.053799,-1.167846 0.778561,-0.295314 1.610823,-0.442977 2.496773,-0.442977 1.127572,0.0537 2.000104,0.429558 2.617581,1.127578 0.644328,0.671175 0.993339,1.46316 1.047034,2.375963 v 9.705192 h -3.181363 v 1.087306 h 7.409774 v -1.087306 h -3.100832 v -7.651404 c 0,-0.805405 0.187927,-1.543698 0.563782,-2.214872 0.375863,-0.671173 0.859107,-1.261809 1.449741,-1.771907 0.590632,-0.483244 1.261811,-0.859103 2.013529,-1.127573 0.778561,-0.295314 1.597397,-0.442977 2.456496,-0.442977 1.154424,0.0537 2.040373,0.429558 2.657858,1.127578 0.617484,0.671175 0.95307,1.46316 1.006765,2.375963 v 9.705192 h -3.181371 v 1.087306 h 7.409775 v -1.087306 h -3.100833 v -9.785738 c -0.0537,-1.342347 -0.510095,-2.429647 -1.369193,-3.261904 -0.832263,-0.832258 -1.973261,-1.248391 -3.423001,-1.248391 -1.476582,0 -2.79209,0.362433 -3.946504,1.0873 -1.154424,0.724872 -2.013531,1.704788 -2.577321,2.939751 -0.134233,-1.20811 -0.630901,-2.174612 -1.490001,-2.89948 -0.832263,-0.751719 -1.919565,-1.127571 -3.261916,-1.127571 z m 43.008868,0 c -1.503435,0 -2.85921,0.389287 -4.06732,1.167844 -1.181267,0.751721 -2.040373,1.771901 -2.57732,3.060558 0,-0.429553 -0.01342,-0.791986 -0.04027,-1.0873 0,-0.322168 -0.01343,-0.684601 -0.04028,-1.087307 l -0.04027,-1.7719 h -3.825698 v 1.0873 h 2.939749 v 12.926838 h -3.141102 v 1.087306 H 93.07727 V 77.909769 H 89.936182 V 70.45972 c 0,-0.832256 0.174509,-1.597396 0.523513,-2.295416 0.349019,-0.724873 0.832271,-1.342347 1.449748,-1.852445 0.590634,-0.483245 1.27523,-0.872531 2.053791,-1.167846 0.778568,-0.295314 1.610823,-0.442977 2.496773,-0.442977 1.127571,0.0537 2.000104,0.429558 2.617582,1.127578 0.64433,0.671175 0.993351,1.46316 1.047031,2.375963 v 9.705192 h -3.181361 v 1.087306 h 7.409771 v -1.087306 h -3.10083 v -9.785738 c -0.0537,-1.342347 -0.5101,-2.429647 -1.369201,-3.261904 -0.83225,-0.832258 -1.973253,-1.248391 -3.422992,-1.248391 z m 42.122963,0 c -0.67118,0 -1.32893,0.09396 -1.97325,0.281895 -0.6175,0.18793 -1.20812,0.469818 -1.77191,0.845677 -0.61748,0.349006 -1.15443,0.791985 -1.61083,1.328929 -0.4564,0.51009 -0.84567,1.100726 -1.16783,1.771901 0,-0.429553 -0.0134,-0.738294 -0.0402,-0.926224 v -0.885949 l -0.0805,-2.134334 h -3.82569 v 1.0873 h 2.93975 v 12.926838 h -3.14111 v 1.087306 h 7.40978 v -1.087306 h -3.14111 v -7.369509 c 0,-0.832257 0.17451,-1.597396 0.52352,-2.295424 0.37586,-0.724865 0.8591,-1.328928 1.44974,-1.812172 0.59063,-0.483244 1.2484,-0.859103 1.97326,-1.127573 0.75172,-0.29532 1.55713,-0.456398 2.41623,-0.483243 z m 8.49703,0.08053 c -0.48324,0 -1.00674,0.09396 -1.57054,0.281895 -0.5638,0.161083 -1.06046,0.416125 -1.49001,0.765138 -0.40271,0.349006 -0.72488,0.778566 -0.9665,1.288657 -0.24163,0.483251 -0.36243,1.073879 -0.36243,1.771906 0,0.832258 0.18793,1.490006 0.56379,1.973257 0.40271,0.483245 0.88595,0.845677 1.44974,1.087299 0.56379,0.295322 1.18125,0.536944 1.85244,0.724874 0.69801,0.187922 1.32892,0.402706 1.89271,0.644328 0.56379,0.214776 1.03361,0.536943 1.40947,0.966495 0.37585,0.402706 0.56379,0.993334 0.56379,1.771901 0,0.536942 -0.10734,1.00676 -0.32217,1.409466 -0.21478,0.402706 -0.48324,0.724866 -0.80539,0.966488 -0.34902,0.295321 -0.73832,0.510098 -1.16786,0.644328 -0.40272,0.134238 -0.84567,0.201357 -1.32892,0.201357 -0.61748,0 -1.23498,-0.04028 -1.85246,-0.120812 -0.61747,-0.107394 -1.19468,-0.362433 -1.73162,-0.765139 v -2.214879 h -1.08731 v 2.818934 c 0.64434,0.56379 1.3692,0.939649 2.17462,1.127571 0.80541,0.187932 1.59738,0.281895 2.37595,0.281895 0.85911,0 1.5974,-0.13423 2.21488,-0.402706 0.64433,-0.295314 1.16784,-0.671166 1.57055,-1.127571 0.37585,-0.429552 0.64433,-0.899377 0.8054,-1.409468 0.18793,-0.536942 0.28191,-1.04704 0.28191,-1.530284 0,-0.859105 -0.18794,-1.543698 -0.5638,-2.053796 -0.37586,-0.510089 -0.84568,-0.926222 -1.40947,-1.248382 -0.59063,-0.295315 -1.22154,-0.536944 -1.8927,-0.724873 -0.64433,-0.187922 -1.26182,-0.416125 -1.85245,-0.684594 -0.56378,-0.214777 -1.04703,-0.510097 -1.44974,-0.88595 -0.37587,-0.37586 -0.56379,-0.912796 -0.56379,-1.610824 0,-0.510089 0.0939,-0.939649 0.28189,-1.288655 0.18793,-0.37586 0.44298,-0.684602 0.76514,-0.926224 0.29532,-0.214774 0.64433,-0.362433 1.04704,-0.442977 0.40271,-0.107382 0.77856,-0.161077 1.12758,-0.161077 0.53694,0 1.0336,0.0537 1.49,0.161077 0.48325,0.107394 0.93965,0.295322 1.36921,0.563788 v 2.255152 h 1.04701 v -2.81894 c -0.21477,-0.214776 -0.48323,-0.402706 -0.8054,-0.563783 -0.29531,-0.161084 -0.60405,-0.295322 -0.92621,-0.402706 -0.4564,-0.134238 -0.83227,-0.214784 -1.12758,-0.24163 -0.29532,-0.0537 -0.63091,-0.08053 -1.00677,-0.08053 z m -71.64119,0.201356 v 1.0873 h 3.221638 V 77.90977 H 75.43881 v 1.087306 h 7.409782 V 77.909769 H 79.788028 V 63.895631 Z m 38.7805,0.765132 c 0.93964,0 1.81217,0.174511 2.61758,0.523524 0.83226,0.349006 1.55713,0.832258 2.17461,1.44974 0.61748,0.617482 1.10073,1.342347 1.44974,2.174605 0.34902,0.805413 0.52352,1.677936 0.52352,2.617585 0,0.966488 -0.1745,1.852446 -0.52352,2.657857 -0.34901,0.805411 -0.83226,1.516852 -1.44974,2.134333 -0.61748,0.590636 -1.34235,1.060453 -2.17461,1.409467 -0.80541,0.349014 -1.67794,0.523517 -2.61758,0.523517 -0.9128,0 -1.77189,-0.161084 -2.57731,-0.483244 -0.80541,-0.349014 -1.50343,-0.818831 -2.09406,-1.409467 -0.64433,-0.590635 -1.15443,-1.302082 -1.53029,-2.134341 -0.34901,-0.83225 -0.52352,-1.731634 -0.52352,-2.698122 0,-0.912797 0.17451,-1.771907 0.52352,-2.577312 0.34901,-0.832257 0.81884,-1.557124 1.40947,-2.174605 0.61748,-0.617482 1.32894,-1.100733 2.13433,-1.449747 0.83226,-0.375854 1.71821,-0.56379 2.65786,-0.56379 z m -94.514851,12.52414 q 1.16784,-1.006769 1.812168,-2.456508 0.684605,-1.449732 0.644328,-3.22164 -0.04027,-2.69812 -1.167841,-4.188132 Q 19.905812,65.828616 18.254718,64.982932 16.523088,64.17752 14.590105,63.694276 12.657112,63.211031 11.086566,62.52643 9.556289,61.882102 8.5897927,60.835069 7.6233041,59.747766 7.6233041,57.774508 q 0,-1.167844 0.3221603,-2.214878 0.362437,-1.087304 1.1275726,-1.973255 0.724874,-0.805411 1.852445,-1.328927 1.12758,-0.523517 2.617588,-0.523517 1.812169,0 3.100825,0.402705 1.288655,0.402704 2.094068,0.966492 v 3.906241 h 1.087303 V 52.53934 q -0.724866,-0.563787 -1.530279,-0.926222 -0.80541,-0.402704 -1.610815,-0.644327 -0.805412,-0.161082 -1.610823,-0.241624 -0.805412,-0.08055 -1.44974,-0.08055 -1.973253,0 -3.342455,0.6846 -1.369193,0.644327 -2.2551514,1.731631 -0.8456812,1.087304 -1.2483784,2.456502 -0.362437,1.328927 -0.2818989,2.657855 0.040267,1.812174 0.8054109,2.939747 0.7651431,1.127575 1.9329848,1.771904 1.127579,0.724872 2.537042,1.167844 1.40947,0.402706 2.778665,0.805412 1.288655,0.402705 2.456504,0.88595 1.208117,0.483251 2.134337,1.24839 0.845681,0.765138 1.369202,1.89271 0.523512,1.087308 0.523512,2.738396 0,1.530286 -0.644327,2.738396 -0.644328,1.208118 -1.651093,2.094067 -1.047035,0.845685 -2.416228,1.328929 -1.328933,0.442979 -2.778665,0.442979 -2.375966,0 -4.02705,-0.724874 Q 7.8649263,76.74192 6.6970784,75.654613 V 72.030268 H 5.609775 v 4.147862 q 0.4027061,0.442979 1.1275712,1.006769 0.724874,0.523517 1.7316392,0.966488 0.9664886,0.523516 2.2551436,0.845684 1.328933,0.32216 2.939749,0.32216 1.73163,0 3.302185,-0.523517 1.570547,-0.563781 2.738396,-1.610815 z" />
          <text
             xml:space="preserve"
             style="font-style:normal;font-variant:normal;font-weight:900;font-stretch:normal;font-size:10.0092px;line-height:0;font-family:Montserrat;-inkscape-font-specification:'Montserrat Heavy';text-align:start;text-decoration-color:#000000;letter-spacing:0px;word-spacing:0px;writing-mode:lr-tb;direction:ltr;text-anchor:start;white-space:pre;fill:#000000;fill-opacity:1;stroke:none;stroke-width:0.717156;stroke-linecap:round;stroke-dasharray:none"
             x="45.199924"
             y="92.817596"
             id="text1-3-8-8-9-2-1-4-0-0-6-0-45"
             inkscape:label="logo-productkind"><tspan
               sodipodi:role="line"
               id="tspan1-5-4-1-0-5-2-5-4-8-4-7-81"
               style="font-style:normal;font-variant:normal;font-weight:bold;font-stretch:normal;font-size:13.2292px;font-family:Montserrat;-inkscape-font-specification:'Montserrat Bold';writing-mode:lr-tb;fill:#0b0b0d;fill-opacity:1;stroke:none;stroke-width:0.717156;stroke-dasharray:none"
               x="45.199924"
               y="92.817596">by productkind</tspan><tspan
               sodipodi:role="line"
               style="font-style:normal;font-variant:normal;font-weight:bold;font-stretch:normal;font-size:10.0092px;line-height:2;font-family:Montserrat;-inkscape-font-specification:'Montserrat Bold';writing-mode:lr-tb;fill:#000000;fill-opacity:1;stroke:none;stroke-width:0.717156;stroke-dasharray:none"
               x="45.199924"
               y="92.817596"
               id="tspan2-5-7-7" /></text>
        </g>
      </g>
    </g>
  </g>
</svg>
