<?xml version="1.0" encoding="UTF-8" standalone="no"?>
<!-- Created with Inkscape (http://www.inkscape.org/) -->

<svg
   width="1344"
   height="256"
   viewBox="0 0 1344 256"
   version="1.1"
   id="svg1"
   inkscape:version="1.4 (e7c3feb1, 2024-10-09)"
   sodipodi:docname="logo-thoughts-by-productkind-linear.svg"
   inkscape:export-filename="logo-thoughts-by-productkind-linear.png"
   inkscape:export-xdpi="96"
   inkscape:export-ydpi="96"
   xmlns:inkscape="http://www.inkscape.org/namespaces/inkscape"
   xmlns:sodipodi="http://sodipodi.sourceforge.net/DTD/sodipodi-0.dtd"
   xmlns:xlink="http://www.w3.org/1999/xlink"
   xmlns="http://www.w3.org/2000/svg"
   xmlns:svg="http://www.w3.org/2000/svg">
  <sodipodi:namedview
     id="namedview1"
     pagecolor="#ffffff"
     bordercolor="#000000"
     borderopacity="0.25"
     inkscape:showpageshadow="2"
     inkscape:pageopacity="0.0"
     inkscape:pagecheckerboard="0"
     inkscape:deskcolor="#d1d1d1"
     inkscape:document-units="px"
     inkscape:zoom="0.55681166"
     inkscape:cx="611.51736"
     inkscape:cy="366.37164"
     inkscape:window-width="1728"
     inkscape:window-height="1057"
     inkscape:window-x="0"
     inkscape:window-y="32"
     inkscape:window-maximized="0"
     inkscape:current-layer="g46-5-1-7"
     showguides="true" />
  <defs
     id="defs1">
    <rect
       x="566.10034"
       y="149.53595"
       width="874.32751"
       height="160.21709"
       id="rect6" />
    <rect
       x="326.18387"
       y="71.871017"
       width="1059.6368"
       height="355.6694"
       id="rect5" />
    <rect
       x="309.59824"
       y="5.5285401"
       width="1113.0793"
       height="434.91183"
       id="rect2" />
    <rect
       x="-25.808619"
       y="-315.23383"
       width="766.88464"
       height="901.45813"
       id="rect3" />
    <rect
       x="172.83533"
       y="-358.19492"
       width="1858.606"
       height="1292.5076"
       id="rect1" />
    <linearGradient
       id="linearGradient4"
       inkscape:collect="always">
      <stop
         style="stop-color:#6002ee;stop-opacity:1;"
         offset="0"
         id="stop4" />
      <stop
         style="stop-color:#ff00e3;stop-opacity:1;"
         offset="1"
         id="stop5" />
    </linearGradient>
    <rect
       x="2895.6289"
       y="2287.6228"
       width="9223.7227"
       height="4950.9526"
       id="rect7-0-0-7-2-3-8-2-6-2-7-80-7-0-0-4-7" />
    <linearGradient
       inkscape:collect="always"
       xlink:href="#linearGradient4"
       id="linearGradient9"
       x1="15269.863"
       y1="6937.166"
       x2="15454.212"
       y2="6937.166"
       gradientUnits="userSpaceOnUse"
       gradientTransform="matrix(4.161918,0,0,4.161918,-61224.779,-23463.497)" />
    <clipPath
       clipPathUnits="userSpaceOnUse"
       id="clipPath46-7-7-3">
      <rect
         style="fill:none;stroke:#0b0b0d;stroke-width:2.69655;stroke-linecap:round;stroke-dasharray:none;stroke-opacity:1"
         id="rect47-0-1-9"
         width="32.358547"
         height="32.358547"
         x="205.18127"
         y="27.402294"
         inkscape:label="logo-rect"
         transform="matrix(0,1,1,0,0,0)" />
    </clipPath>
    <clipPath
       clipPathUnits="userSpaceOnUse"
       id="clipPath46-7-7-3-6">
      <rect
         style="fill:none;stroke:#0b0b0d;stroke-width:2.69655;stroke-linecap:round;stroke-dasharray:none;stroke-opacity:1"
         id="rect47-0-1-9-5"
         width="32.358547"
         height="32.358547"
         x="205.18127"
         y="27.402294"
         inkscape:label="logo-rect"
         transform="matrix(0,1,1,0,0,0)" />
    </clipPath>
    <linearGradient
       inkscape:collect="always"
       xlink:href="#linearGradient253"
       id="linearGradient78-3-9"
       x1="41.46246"
       y1="238.44952"
       x2="48.383949"
       y2="223.60632"
       gradientUnits="userSpaceOnUse" />
    <linearGradient
       id="linearGradient253"
       inkscape:collect="always"
       inkscape:label="ez">
      <stop
         style="stop-color:#00e8b6;stop-opacity:1;"
         offset="0"
         id="stop241" />
      <stop
         style="stop-color:#00e4db;stop-opacity:1;"
         offset="0.09633028"
         id="stop242" />
      <stop
         style="stop-color:#00dffa;stop-opacity:1;"
         offset="0.2"
         id="stop243" />
      <stop
         style="stop-color:#77d4ff;stop-opacity:1;"
         offset="0.27247897"
         id="stop244" />
      <stop
         style="stop-color:#9accff;stop-opacity:1;"
         offset="0.34938708"
         id="stop245" />
      <stop
         style="stop-color:#b1c5ff;stop-opacity:1;"
         offset="0.42299694"
         id="stop246" />
      <stop
         style="stop-color:#c5bdff;stop-opacity:1;"
         offset="0.4966068"
         id="stop247" />
      <stop
         style="stop-color:#deb2ff;stop-opacity:1;"
         offset="0.57254267"
         id="stop248" />
      <stop
         style="stop-color:#ff9ff7;stop-opacity:1;"
         offset="0.64847851"
         id="stop249" />
      <stop
         style="stop-color:#ffa8d1;stop-opacity:1;"
         offset="0.72441435"
         id="stop250" />
      <stop
         style="stop-color:#ffacb8;stop-opacity:1;"
         offset="0.80035025"
         id="stop251" />
      <stop
         style="stop-color:#ffafa2;stop-opacity:1;"
         offset="0.90137613"
         id="stop252" />
      <stop
         style="stop-color:#ffb288;stop-opacity:1;"
         offset="0.99770641"
         id="stop253" />
    </linearGradient>
    <clipPath
       clipPathUnits="userSpaceOnUse"
       id="clipPath46-7-8-41-5-4">
      <rect
         style="fill:none;stroke:#0b0b0d;stroke-width:2.69655;stroke-linecap:round;stroke-dasharray:none;stroke-opacity:1"
         id="rect47-0-8-1-1-3"
         width="32.358547"
         height="32.358547"
         x="205.18127"
         y="27.402294"
         inkscape:label="logo-rect"
         transform="matrix(0,1,1,0,0,0)" />
    </clipPath>
    <linearGradient
       inkscape:collect="always"
       xlink:href="#linearGradient253"
       id="linearGradient78-7-7-6-4"
       x1="41.46246"
       y1="238.44952"
       x2="48.383949"
       y2="223.60632"
       gradientUnits="userSpaceOnUse" />
  </defs>
  <g
     inkscape:label="Layer 1"
     inkscape:groupmode="layer"
     id="layer1">
    <g
       id="g84"
       transform="translate(-2089.4304,-16939.281)">
      <text
         xml:space="preserve"
         style="font-style:normal;font-variant:normal;font-weight:normal;font-stretch:normal;font-size:24.2507px;line-height:0.8;font-family:'Monaspace Neon';-inkscape-font-specification:'Monaspace Neon';text-align:start;writing-mode:lr-tb;direction:ltr;text-anchor:start;white-space:pre;inline-size:346.394;display:inline;fill:#0b0b0d;fill-opacity:1;stroke:none;stroke-width:0.524481;stroke-dasharray:none;stroke-opacity:1"
         x="17.849133"
         y="118.99422"
         id="text18-6-2-9-1-0-5-0-3-7-9-7-7-1-2-4-8-6-0-4-7"
         transform="matrix(6.6266986,0,0,6.6267017,2336.851,16278.055)"
         inkscape:label="LittleParrotText"><tspan
           x="17.849133"
           y="118.99422"
           id="tspan6"><tspan
             style="font-weight:bold;font-family:Montserrat;-inkscape-font-specification:'Montserrat Bold'"
             id="tspan5">Let's build</tspan></tspan></text>
      <text
         xml:space="preserve"
         style="font-style:normal;font-variant:normal;font-weight:normal;font-stretch:normal;font-size:24.2507px;line-height:0.8;font-family:'Monaspace Neon';-inkscape-font-specification:'Monaspace Neon';text-align:start;writing-mode:lr-tb;direction:ltr;text-anchor:start;white-space:pre;inline-size:211.711;display:inline;fill:#0b0b0d;fill-opacity:1;stroke:none;stroke-width:0.524481;stroke-dasharray:none;stroke-opacity:1"
         x="17.849133"
         y="118.99422"
         id="text18-6-2-9-1-0-5-0-3-7-9-7-7-1-2-4-2-8-7-5-8-6"
         transform="matrix(4.1901177,0,0,4.1901201,2390.2258,16668.155)"
         inkscape:label="LittleParrotText"><tspan
           x="17.849133"
           y="118.99422"
           id="tspan8"><tspan
             style="font-weight:bold;font-family:Montserrat;-inkscape-font-specification:'Montserrat Bold'"
             id="tspan7">digital products</tspan></tspan></text>
      <g
         id="g46-5-1-7"
         transform="translate(-12706.06,6491.1089)">
        <text
           xml:space="preserve"
           style="font-style:normal;font-variant:normal;font-weight:900;font-stretch:normal;font-size:30.2437px;line-height:0;font-family:Montserrat;-inkscape-font-specification:'Montserrat Heavy';text-align:start;text-decoration-color:#000000;letter-spacing:0px;word-spacing:0px;writing-mode:lr-tb;direction:ltr;text-anchor:start;white-space:pre;fill:#000000;fill-opacity:1;stroke:none;stroke-width:1.74978;stroke-linecap:round;stroke-dasharray:none"
           x="10453.994"
           y="-14886.086"
           id="text1-3-8-8-9-2-1-4-0-0-6-4-8-6-3-3-3-6-7-1-7-3-7-5-1-0-4"
           inkscape:label="logo-productkind"
           transform="rotate(90)"><tspan
             sodipodi:role="line"
             id="tspan1-5-4-1-0-5-2-5-4-8-4-7-8-3-8-8-9-1-0-3-1-9-0-0-9-8-7"
             style="font-style:normal;font-variant:normal;font-weight:bold;font-stretch:normal;font-size:30.2437px;font-family:Montserrat;-inkscape-font-specification:'Montserrat Bold';writing-mode:lr-tb;fill:#0b0b0d;fill-opacity:1;stroke:none;stroke-width:1.74978;stroke-dasharray:none"
             x="10453.994"
             y="-14886.086">by productkind</tspan><tspan
             sodipodi:role="line"
             style="font-style:normal;font-variant:normal;font-weight:bold;font-stretch:normal;font-size:30.2437px;line-height:2;font-family:Montserrat;-inkscape-font-specification:'Montserrat Bold';writing-mode:lr-tb;fill:#000000;fill-opacity:1;stroke:none;stroke-width:1.74978;stroke-dasharray:none"
             x="10453.994"
             y="-14886.086"
             id="tspan2-5-3-7-4-4-0-3-4-6-0-2-4-9-8-4-4-7" /></text>
        <g
           id="g3-7-4-0-6"
           transform="matrix(-6.8463616,0,0,6.8463616,15336.107,9060.6575)"
           clip-path="url(#clipPath46-7-7-3-6)">
          <g
             id="g47-3-1-2"
             transform="matrix(1.053027,0,0,1.053027,-3.1695767,-13.110297)">
            <path
               style="fill:#ffffff;fill-opacity:1;stroke:#0b0b0d;stroke-width:1.0053;stroke-dasharray:none;stroke-opacity:1"
               d="m 53.1253,241.37655 c 0.25531,2.0425 1.409609,6.63258 3.794299,9.42012 1.916261,2.23997 4.551562,2.65051 5.878532,3.37621 3.055229,1.67087 2.115638,4.38815 -0.603701,3.69579 -3.963241,-1.00905 -9.9504,-2.17752 -9.674119,-4.94036"
               id="path2-4-7-9-0-2"
               sodipodi:nodetypes="csssc" />
            <path
               style="fill:#ffffff;fill-opacity:1;stroke:#0b0b0d;stroke-width:1.0053;stroke-dasharray:none;stroke-opacity:1"
               d="m 38.273671,213.92748 c -0.931411,-1.14462 0.225537,-2.0901 1.188189,-0.78542"
               id="path15-0-0-0-5-2"
               sodipodi:nodetypes="cc" />
            <path
               style="fill:#ffffff;fill-opacity:1;stroke:#0b0b0d;stroke-width:1.00532;stroke-dasharray:none;stroke-opacity:1"
               d="m 44.782471,221.53629 c -2.89593,5.41084 -13.870011,2.13385 -9.526111,-3.73423 4.3439,-5.86809 6.020499,-6.40155 9.4499,-6.24914 3.429399,0.15242 6.13847,3.22467 6.477761,5.71568 0.446879,3.28084 1.03994,18.50631 1.802038,23.00263 0.62439,3.68395 -0.248139,10.65462 -0.650838,14.57519 -0.0888,0.86456 -0.154762,1.5808 -0.176781,2.08076 -0.13864,3.14753 -4.192611,3.384 -4.420129,0.22863 -0.168561,-2.33793 -3.15218,-1.94141 -3.246602,0 -0.14103,2.89984 -4.308069,2.85233 -4.558368,-0.0816 -0.290501,-3.40514 -1.928933,-12.72052 -1.609862,-16.32132 0.30389,-3.4294 2.11508,-16.54927 2.11508,-16.54927 v 0"
               id="path1-2-1-4-2-3"
               sodipodi:nodetypes="csssssssssscc" />
            <path
               style="fill:none;fill-opacity:1;stroke:#0b0b0d;stroke-width:1.00493;stroke-dasharray:none;stroke-opacity:1"
               d="m 38.713391,216.0683 c 0.487578,-1.41508 2.635968,-0.54537 1.99971,0.45448"
               id="path32-1-6-9-4"
               sodipodi:nodetypes="cc" />
            <path
               style="fill:none;fill-opacity:1;stroke:#0b0b0d;stroke-width:1.00493;stroke-dasharray:none;stroke-opacity:1"
               d="m 42.347511,217.31598 c 0.487578,-1.41508 2.635978,-0.54537 1.999697,0.45448"
               id="path32-9-1-1-5-8"
               sodipodi:nodetypes="cc" />
            <path
               style="fill:#0b0b0d;fill-opacity:1;stroke:#0b0b0d;stroke-width:1.00533;stroke-dasharray:none;stroke-opacity:1"
               d="m 37.84615,219.50898 c 0.33251,-0.21568 1.568961,0.14542 1.72549,0.4853 0.146441,0.31798 -1.19343,0.9897 -1.419931,0.86275 -0.165808,-0.0929 -0.638079,-1.13236 -0.305559,-1.34805 z"
               id="path4-8-1-5-9"
               sodipodi:nodetypes="zssz" />
            <path
               style="fill:none;fill-opacity:1;stroke:#0b0b0d;stroke-width:1.0053;stroke-dasharray:none;stroke-opacity:1"
               d="m 52.916408,248.99817 -0.31103,8.65662 -5.987058,-0.18143 -0.622031,-1.86609 -0.544281,1.89201 -6.37583,0.18143 c 0,0 -0.0663,-6.24793 -0.207338,-9.07131 -0.14103,-2.82337 -0.972479,-4.17345 -0.60646,-7.86435 0.366019,-3.6909 1.717521,-14.06899 1.717521,-14.06899 l 1.65275,0.35416 1.53469,3.18744 1.298589,-3.24646 7.26028,-0.47222 c 0,0 0.115921,2.02698 0.315443,4.65126 0.04095,0.53858 0.08542,1.10232 0.133127,1.67885 0.222924,2.69382 0.516619,5.66707 0.852589,7.65916 0.75824,4.49588 -0.110961,8.50992 -0.110961,8.50992 z"
               id="path14-2-9-5-8"
               sodipodi:nodetypes="cccccczzcccccsssc" />
            <path
               style="fill:#ffffff;fill-opacity:1;stroke:#370188;stroke-width:1.0053;stroke-dasharray:none;stroke-opacity:1"
               d="m 44.6866,226.70381 -1.303549,3.5152"
               id="path10-5-9-8-0-7"
               sodipodi:nodetypes="cc" />
            <path
               style="display:inline;opacity:1;fill:url(#linearGradient78-3-9);fill-opacity:1;stroke:none;stroke-width:0.325311;stroke-dasharray:none;stroke-opacity:1"
               d="m 51.715726,236.54813 -13.749063,0.14292 -1.057612,-2.60117 1.236184,-3.38234 0.889932,-0.97739 0.08935,-0.68003 -1.415107,-0.64852 0.914695,-2.14383 12.434173,-0.88611 1.028177,3.00298 -1.086256,0.61296 0.185811,2.5535 1.758825,2.17717 -0.25725,2.57259 z"
               id="path77-8-0"
               transform="matrix(0.94964327,0,0,0.94964327,3.0099754,12.450105)"
               inkscape:label="grad-bg"
               sodipodi:nodetypes="ccccccccccccccc" />
            <path
               style="fill:none;fill-opacity:1;stroke:#0b0b0d;stroke-width:1.0053;stroke-dasharray:none;stroke-opacity:1"
               d="m 45.85769,229.82134 -0.960929,-2.79858 6.901398,-0.50441 0.825412,2.82017 z"
               id="path7-1-2-9-9-1"
               sodipodi:nodetypes="ccccc" />
            <path
               style="fill:#ffffff;fill-opacity:1;stroke:#370188;stroke-width:1.0053;stroke-dasharray:none;stroke-opacity:1"
               d="M 43.285939,230.30665 41.6946,226.7038"
               id="path9-9-6-7-5-2"
               sodipodi:nodetypes="cc" />
            <path
               style="fill:none;fill-opacity:1;stroke:#0b0b0d;stroke-width:1.0053;stroke-dasharray:none;stroke-opacity:1"
               d="m 39.94426,226.70177 1.599959,0.24876 -0.629411,2.83654 -1.997209,-0.57053 z"
               id="path8-9-9-5-7-2"
               sodipodi:nodetypes="ccccc" />
            <path
               style="fill:none;fill-opacity:1;stroke:#0b0b0d;stroke-width:1.0053;stroke-dasharray:none;stroke-opacity:1"
               d="m 43.316169,230.16015 c 0,0 -0.41566,8.8249 -0.447638,9.75216 -0.032,0.92726 0.581238,10.35169 0.581238,10.35169 l 1.635052,-0.12595"
               id="path11-7-6-3-6-2"
               sodipodi:nodetypes="csc" />
            <circle
               style="fill:#0b0b0d;fill-opacity:1;stroke:#0b0b0d;stroke-width:0.251322;stroke-opacity:1"
               id="path3-3-6-4-5-2-6"
               r="0.23798001"
               cy="232.85405"
               cx="44.463379"
               inkscape:transform-center-x="2.5473964"
               inkscape:transform-center-y="-3.3359917e-05" />
            <circle
               style="fill:#0b0b0d;fill-opacity:1;stroke:#0b0b0d;stroke-width:0.251322;stroke-opacity:1"
               id="path3-3-6-9-8-5-5-6"
               r="0.23798001"
               cy="236.0197"
               cx="44.311127"
               inkscape:transform-center-x="2.5473672"
               inkscape:transform-center-y="-8.8337132e-06" />
            <circle
               style="fill:#370188;fill-opacity:1;stroke:#0b0b0d;stroke-width:0.251322;stroke-opacity:1"
               id="path3-3-6-2-7-0-4-0"
               r="0.23798001"
               cy="238.96605"
               cx="44.160797"
               inkscape:transform-center-x="2.5473177"
               inkscape:transform-center-y="2.1149829e-06" />
            <circle
               style="fill:#370188;fill-opacity:1;stroke:#0b0b0d;stroke-width:0.251322;stroke-opacity:1"
               id="path3-3-6-1-3-6-3-2"
               r="0.23798001"
               cy="242.02641"
               cx="44.212372"
               inkscape:transform-center-x="2.547382"
               inkscape:transform-center-y="3.4559455e-05" />
            <circle
               style="fill:#370188;fill-opacity:1;stroke:#0b0b0d;stroke-width:0.251322;stroke-opacity:1"
               id="path3-3-6-6-4-5-2-5"
               r="0.23798001"
               cy="245.19487"
               cx="44.391418"
               inkscape:transform-center-x="2.5473966"
               inkscape:transform-center-y="-7.9173349e-05" />
            <circle
               style="fill:#370188;fill-opacity:1;stroke:#0b0b0d;stroke-width:0.251322;stroke-opacity:1"
               id="path3-3-6-60-7-5-1-1"
               r="0.23798001"
               cy="248.25612"
               cx="44.569824"
               inkscape:transform-center-x="2.5474322"
               inkscape:transform-center-y="1.983531e-06" />
            <path
               style="fill:#ffffff;fill-opacity:1;stroke:#0b0b0d;stroke-width:1.0053;stroke-dasharray:none;stroke-opacity:1"
               d="m 46.907939,215.29153 c 1.054082,-0.96547 1.920321,0.56471 0.965452,1.16333"
               id="path15-9-8-2-4"
               sodipodi:nodetypes="cc" />
            <path
               style="fill:#ffffff;fill-opacity:1;stroke:#0b0b0d;stroke-width:1.00532;stroke-opacity:1"
               d="m 39.843249,226.34195 c 0.205241,6.4309 8.369301,6.48952 8.50612,-0.01"
               id="path18-8-0-2-6-2"
               sodipodi:nodetypes="cc" />
            <ellipse
               style="fill:#ffffff;fill-opacity:1;stroke:#0b0b0d;stroke-width:1.00532;stroke-opacity:1"
               id="path2-6-7-6-1"
               cx="44.095459"
               cy="226.36685"
               rx="4.2585411"
               ry="1.1075325" />
            <ellipse
               style="fill:#0b0b0d;fill-opacity:1;stroke:none;stroke-width:1.95987"
               id="path20-0-4-6-2"
               cx="44.114563"
               cy="226.61852"
               rx="2.7531805"
               ry="0.58996719" />
            <path
               style="fill:#ffffff;fill-opacity:1;stroke:#0b0b0d;stroke-width:1.0053;stroke-dasharray:none;stroke-opacity:1"
               d="m 40.480589,231.54038 c 0.281202,-0.34052 0.51453,-0.56463 1.129372,-1.0507 1.110499,-0.87792 2.639128,0.82874 1.596438,1.89873 -0.231928,0.238 -0.411756,0.42238 -0.553151,0.56618"
               id="path5-6-4-0-8"
               sodipodi:nodetypes="cssc" />
            <path
               style="fill:none;fill-opacity:1;stroke:#0b0b0d;stroke-width:1.0053;stroke-dasharray:none;stroke-opacity:1"
               d="m 40.020509,231.15399 3.0864,2.29269 -4.367058,3.40435 c -0.86555,-1.85303 -0.789071,-3.61634 0.621508,-5.25259 z"
               id="path13-0-6-1-5"
               sodipodi:nodetypes="ccccc" />
            <path
               style="fill:#ffffff;fill-opacity:1;stroke:#0b0b0d;stroke-width:1.0053;stroke-dasharray:none;stroke-opacity:1"
               d="m 46.969463,232.78416 c -0.149831,-0.13846 -0.124071,-0.16605 -0.525855,-0.63328 -1.112692,-1.29395 0.311497,-3.25837 1.912413,-1.96264 0.103975,0.0841 0.235586,0.19634 0.382265,0.32467"
               id="path6-2-0-9-6"
               sodipodi:nodetypes="cssc" />
            <path
               style="fill:none;fill-opacity:1;stroke:#0b0b0d;stroke-width:1.0053;stroke-dasharray:none;stroke-opacity:1"
               d="m 52.095019,232.74017 -2.889848,-2.63359 -2.310312,3.02852 5.75343,4.56 c 0.277571,-1.65164 1.297719,-3.30328 -0.55327,-4.95493 z"
               id="path12-2-5-3-9-2"
               sodipodi:nodetypes="ccccc" />
          </g>
        </g>
        <g
           id="g1"
           transform="matrix(0.39999973,0,0,0.39999973,15854.931,10054.972)">
          <rect
             style="fill:none;stroke:#0b0b0d;stroke-width:50;stroke-linecap:round;stroke-dasharray:none;stroke-opacity:1"
             id="rect1-5-6-6-7-3-0-5-1-2-0-0"
             width="550"
             height="550"
             x="-2318"
             y="1028"
             inkscape:label="logo-rect" />
          <g
             id="g46-5-8-1"
             transform="matrix(-1.6773098,0,0,1.677309,23667.915,-12452.157)"
             inkscape:label="kim"
             style="display:inline">
            <g
               id="g3-7-4-9-4-3-8"
               transform="matrix(9.4368927,0,0,9.4368927,14915.855,6108.1394)"
               clip-path="url(#clipPath46-7-8-41-5-4)"
               inkscape:label="kim-clip">
              <g
                 id="g47-3-2-6-4-6"
                 transform="matrix(1.053027,0,0,1.053027,-3.1695767,-13.110297)"
                 inkscape:label="kim-group-for-klip">
                <path
                   style="fill:#ffffff;fill-opacity:1;stroke:#0b0b0d;stroke-width:1.0053;stroke-dasharray:none;stroke-opacity:1"
                   d="m 53.1253,241.37655 c 0.25531,2.0425 1.409609,6.63258 3.794299,9.42012 1.916261,2.23997 4.551562,2.65051 5.878532,3.37621 3.055229,1.67087 2.115638,4.38815 -0.603701,3.69579 -3.963241,-1.00905 -9.9504,-2.17752 -9.674119,-4.94036"
                   id="path2-4-7-9-6-5-7-3"
                   sodipodi:nodetypes="csssc"
                   inkscape:label="tail" />
                <path
                   style="fill:#ffffff;fill-opacity:1;stroke:#0b0b0d;stroke-width:1.0053;stroke-dasharray:none;stroke-opacity:1"
                   d="m 38.273671,213.92748 c -0.931411,-1.14462 0.225537,-2.0901 1.188189,-0.78542"
                   id="path15-0-0-0-51-0-6-0"
                   sodipodi:nodetypes="cc"
                   inkscape:label="ear-left" />
                <path
                   style="fill:#ffffff;fill-opacity:1;stroke:#0b0b0d;stroke-width:1.00532;stroke-dasharray:none;stroke-opacity:1"
                   d="m 44.782471,221.53629 c -2.89593,5.41084 -13.870011,2.13385 -9.526111,-3.73423 4.3439,-5.86809 6.020499,-6.40155 9.4499,-6.24914 3.429399,0.15242 6.13847,3.22467 6.477761,5.71568 0.446879,3.28084 1.03994,18.50631 1.802038,23.00263 0.62439,3.68395 -0.248139,10.65462 -0.650838,14.57519 -0.0888,0.86456 -0.154762,1.5808 -0.176781,2.08076 -0.13864,3.14753 -4.192611,3.384 -4.420129,0.22863 -0.168561,-2.33793 -3.15218,-1.94141 -3.246602,0 -0.14103,2.89984 -4.308069,2.85233 -4.558368,-0.0816 -0.290501,-3.40514 -1.928933,-12.72052 -1.609862,-16.32132 0.30389,-3.4294 2.11508,-16.54927 2.11508,-16.54927 v 0"
                   id="path1-2-1-4-0-6-5-9"
                   sodipodi:nodetypes="csssssssssscc"
                   inkscape:label="body" />
                <path
                   style="fill:none;fill-opacity:1;stroke:#0b0b0d;stroke-width:1.00493;stroke-dasharray:none;stroke-opacity:1"
                   d="m 38.713391,216.0683 c 0.487578,-1.41508 2.635968,-0.54537 1.99971,0.45448"
                   id="path32-1-6-0-6-6-6"
                   sodipodi:nodetypes="cc"
                   inkscape:label="eye-right" />
                <path
                   style="fill:none;fill-opacity:1;stroke:#0b0b0d;stroke-width:1.00493;stroke-dasharray:none;stroke-opacity:1"
                   d="m 42.347511,217.31598 c 0.487578,-1.41508 2.635978,-0.54537 1.999697,0.45448"
                   id="path32-9-1-1-4-3-5-2"
                   sodipodi:nodetypes="cc"
                   inkscape:label="eye-left" />
                <path
                   style="fill:#0b0b0d;fill-opacity:1;stroke:#0b0b0d;stroke-width:1.00533;stroke-dasharray:none;stroke-opacity:1"
                   d="m 37.84615,219.50898 c 0.33251,-0.21568 1.568961,0.14542 1.72549,0.4853 0.146441,0.31798 -1.19343,0.9897 -1.419931,0.86275 -0.165808,-0.0929 -0.638079,-1.13236 -0.305559,-1.34805 z"
                   id="path4-8-1-4-0-4-8"
                   sodipodi:nodetypes="zssz"
                   inkscape:label="nose" />
                <path
                   style="fill:none;fill-opacity:1;stroke:#0b0b0d;stroke-width:1.0053;stroke-dasharray:none;stroke-opacity:1"
                   d="m 52.916408,248.99817 -0.31103,8.65662 -5.987058,-0.18143 -0.622031,-1.86609 -0.544281,1.89201 -6.37583,0.18143 c 0,0 -0.0663,-6.24793 -0.207338,-9.07131 -0.14103,-2.82337 -0.972479,-4.17345 -0.60646,-7.86435 0.366019,-3.6909 1.717521,-14.06899 1.717521,-14.06899 l 1.65275,0.35416 1.53469,3.18744 1.298589,-3.24646 7.26028,-0.47222 c 0,0 0.115921,2.02698 0.315443,4.65126 0.04095,0.53858 0.08542,1.10232 0.133127,1.67885 0.222924,2.69382 0.516619,5.66707 0.852589,7.65916 0.75824,4.49588 -0.110961,8.50992 -0.110961,8.50992 z"
                   id="path14-2-9-0-1-0-9"
                   sodipodi:nodetypes="cccccczzcccccsssc"
                   inkscape:label="jumpsuit-contour" />
                <path
                   style="fill:#ffffff;fill-opacity:1;stroke:#370188;stroke-width:1.0053;stroke-dasharray:none;stroke-opacity:1"
                   d="m 44.6866,226.70381 -1.303549,3.5152"
                   id="path10-5-9-8-4-1-4-3"
                   sodipodi:nodetypes="cc"
                   inkscape:label="collar-v-right" />
                <path
                   style="display:inline;opacity:1;fill:url(#linearGradient78-7-7-6-4);fill-opacity:1;stroke:none;stroke-width:0.325311;stroke-dasharray:none;stroke-opacity:1"
                   d="m 51.715726,236.54813 0.23305,1.35694 -14.013079,0.24797 0.21731,-1.59251 -1.243956,-2.47129 1.236184,-3.38234 0.889932,-0.97739 0.08935,-0.68003 -1.415107,-0.64852 0.914695,-2.14383 12.434173,-0.88611 1.028177,3.00298 -1.086256,0.61296 0.185811,2.5535 1.758825,2.17717 -0.25725,2.57259 z"
                   id="path77-86-1-0-9"
                   transform="matrix(0.94964327,0,0,0.94964327,3.0099754,12.450105)"
                   inkscape:label="grad-bg"
                   sodipodi:nodetypes="ccccccccccccccccc" />
                <path
                   style="fill:none;fill-opacity:1;stroke:#0b0b0d;stroke-width:1.0053;stroke-dasharray:none;stroke-opacity:1"
                   d="m 45.85769,229.82134 -0.960929,-2.79858 6.901398,-0.50441 0.825412,2.82017 z"
                   id="path7-1-2-9-5-9-4-6"
                   sodipodi:nodetypes="ccccc"
                   inkscape:label="collar-right" />
                <path
                   style="fill:#ffffff;fill-opacity:1;stroke:#370188;stroke-width:1.0053;stroke-dasharray:none;stroke-opacity:1"
                   d="M 43.285939,230.30665 41.6946,226.7038"
                   id="path9-9-6-7-3-0-4-6"
                   sodipodi:nodetypes="cc"
                   inkscape:label="collar-v-left" />
                <path
                   style="fill:none;fill-opacity:1;stroke:#0b0b0d;stroke-width:1.0053;stroke-dasharray:none;stroke-opacity:1"
                   d="m 39.94426,226.70177 1.599959,0.24876 -0.629411,2.83654 -1.997209,-0.57053 z"
                   id="path8-9-9-5-1-5-3-4"
                   sodipodi:nodetypes="ccccc"
                   inkscape:label="collar-left" />
                <path
                   style="fill:none;fill-opacity:1;stroke:#0b0b0d;stroke-width:1.0053;stroke-dasharray:none;stroke-opacity:1"
                   d="m 43.316169,230.16015 c 0,0 -0.41566,8.8249 -0.447638,9.75216 -0.032,0.92726 0.581238,10.35169 0.581238,10.35169 l 1.635052,-0.12595"
                   id="path11-7-6-3-8-77-4-0"
                   sodipodi:nodetypes="csc"
                   inkscape:label="zip" />
                <circle
                   style="fill:#0b0b0d;fill-opacity:1;stroke:#0b0b0d;stroke-width:0.251322;stroke-opacity:1"
                   id="path3-3-6-4-5-5-3-3-8"
                   r="0.23798001"
                   cy="232.85405"
                   cx="44.463379"
                   inkscape:transform-center-x="2.5473964"
                   inkscape:transform-center-y="-3.3359917e-05"
                   inkscape:label="button-1" />
                <circle
                   style="fill:#0b0b0d;fill-opacity:1;stroke:#0b0b0d;stroke-width:0.251322;stroke-opacity:1"
                   id="path3-3-6-9-8-5-0-2-7-2"
                   r="0.23798001"
                   cy="236.0197"
                   cx="44.311127"
                   inkscape:transform-center-x="2.5473672"
                   inkscape:transform-center-y="-8.8337132e-06"
                   inkscape:label="button-2" />
                <circle
                   style="fill:#370188;fill-opacity:1;stroke:#0b0b0d;stroke-width:0.251322;stroke-opacity:1"
                   id="path3-3-6-2-7-0-1-9-2-0"
                   r="0.23798001"
                   cy="238.96605"
                   cx="44.160797"
                   inkscape:transform-center-x="2.5473177"
                   inkscape:transform-center-y="2.1149829e-06"
                   inkscape:label="button-3" />
                <circle
                   style="fill:#370188;fill-opacity:1;stroke:#0b0b0d;stroke-width:0.251322;stroke-opacity:1"
                   id="path3-3-6-1-3-6-9-8-3-6"
                   r="0.23798001"
                   cy="242.02641"
                   cx="44.212372"
                   inkscape:transform-center-x="2.547382"
                   inkscape:transform-center-y="3.4559455e-05"
                   inkscape:label="button-4" />
                <circle
                   style="fill:#370188;fill-opacity:1;stroke:#0b0b0d;stroke-width:0.251322;stroke-opacity:1"
                   id="path3-3-6-6-4-5-5-0-9-0"
                   r="0.23798001"
                   cy="245.19487"
                   cx="44.391418"
                   inkscape:transform-center-x="2.5473966"
                   inkscape:transform-center-y="-7.9173349e-05"
                   inkscape:label="button-5" />
                <circle
                   style="fill:#370188;fill-opacity:1;stroke:#0b0b0d;stroke-width:0.251322;stroke-opacity:1"
                   id="path3-3-6-60-7-5-5-76-3-7"
                   r="0.23798001"
                   cy="248.25612"
                   cx="44.569824"
                   inkscape:transform-center-x="2.5474322"
                   inkscape:transform-center-y="1.983531e-06"
                   inkscape:label="button-6" />
                <path
                   style="fill:#ffffff;fill-opacity:1;stroke:#0b0b0d;stroke-width:1.0053;stroke-dasharray:none;stroke-opacity:1"
                   d="m 46.907939,215.29153 c 1.054082,-0.96547 1.920321,0.56471 0.965452,1.16333"
                   id="path15-9-8-9-2-5-4"
                   sodipodi:nodetypes="cc"
                   inkscape:label="ear-right" />
                <path
                   style="fill:#ffffff;fill-opacity:1;stroke:#0b0b0d;stroke-width:1.00532;stroke-opacity:1"
                   d="m 39.843249,226.34195 c 0.205241,6.4309 8.369301,6.48952 8.50612,-0.01"
                   id="path18-8-0-2-1-9-4-2"
                   sodipodi:nodetypes="cc"
                   inkscape:label="coffee-mug" />
                <ellipse
                   style="fill:#ffffff;fill-opacity:1;stroke:#0b0b0d;stroke-width:1.00532;stroke-opacity:1"
                   id="path2-6-7-5-8-7-9"
                   cx="44.095459"
                   cy="226.36685"
                   rx="4.2585411"
                   ry="1.1075325"
                   inkscape:label="coffee-mug-brim" />
                <ellipse
                   style="fill:#0b0b0d;fill-opacity:1;stroke:none;stroke-width:1.95987"
                   id="path20-0-4-9-5-0-8"
                   cx="44.114563"
                   cy="226.61852"
                   rx="2.7531805"
                   ry="0.58996719"
                   inkscape:label="coffee-fill" />
                <path
                   style="fill:#ffffff;fill-opacity:1;stroke:#0b0b0d;stroke-width:1.0053;stroke-dasharray:none;stroke-opacity:1"
                   d="m 40.480589,231.54038 c 0.281202,-0.34052 0.51453,-0.56463 1.129372,-1.0507 1.110499,-0.87792 2.639128,0.82874 1.596438,1.89873 -0.231928,0.238 -0.411756,0.42238 -0.553151,0.56618"
                   id="path5-6-4-5-92-2-1"
                   sodipodi:nodetypes="cssc"
                   inkscape:label="hand-left" />
                <path
                   style="fill:none;fill-opacity:1;stroke:#0b0b0d;stroke-width:1.0053;stroke-dasharray:none;stroke-opacity:1"
                   d="m 40.020509,231.15399 3.0864,2.29269 -4.367058,3.40435 c -0.86555,-1.85303 -0.789071,-3.61634 0.621508,-5.25259 z"
                   id="path13-0-6-9-0-6-1"
                   sodipodi:nodetypes="ccccc"
                   inkscape:label="arm-left" />
                <path
                   style="fill:#ffffff;fill-opacity:1;stroke:#0b0b0d;stroke-width:1.0053;stroke-dasharray:none;stroke-opacity:1"
                   d="m 46.969463,232.78416 c -0.149831,-0.13846 -0.124071,-0.16605 -0.525855,-0.63328 -1.112692,-1.29395 0.311497,-3.25837 1.912413,-1.96264 0.103975,0.0841 0.235586,0.19634 0.382265,0.32467"
                   id="path6-2-0-5-4-3-6"
                   sodipodi:nodetypes="cssc"
                   inkscape:label="hand-right" />
                <path
                   style="fill:none;fill-opacity:1;stroke:#0b0b0d;stroke-width:1.0053;stroke-dasharray:none;stroke-opacity:1"
                   d="m 52.095019,232.74017 -2.889848,-2.63359 -2.310312,3.02852 5.75343,4.56 c 0.277571,-1.65164 1.297719,-3.30328 -0.55327,-4.95493 z"
                   id="path12-2-5-3-8-2-0-1"
                   sodipodi:nodetypes="ccccc"
                   inkscape:label="arm-right" />
              </g>
            </g>
          </g>
        </g>
      </g>
    </g>
  </g>
</svg>
