<?xml version="1.0" encoding="UTF-8" standalone="no"?>
<!-- Created with Inkscape (http://www.inkscape.org/) -->

<svg
   width="1344"
   height="256"
   viewBox="0 0 355.6 67.733338"
   version="1.1"
   id="svg1"
   inkscape:version="1.4 (e7c3feb1, 2024-10-09)"
   sodipodi:docname="logo-thoughts-by-productkind-linear.svg"
   inkscape:export-filename="logo-thoughts-by-productkind-linear.png"
   inkscape:export-xdpi="96"
   inkscape:export-ydpi="96"
   xmlns:inkscape="http://www.inkscape.org/namespaces/inkscape"
   xmlns:sodipodi="http://sodipodi.sourceforge.net/DTD/sodipodi-0.dtd"
   xmlns:xlink="http://www.w3.org/1999/xlink"
   xmlns="http://www.w3.org/2000/svg"
   xmlns:svg="http://www.w3.org/2000/svg">
  <sodipodi:namedview
     id="namedview1"
     pagecolor="#ffffff"
     bordercolor="#000000"
     borderopacity="0.25"
     inkscape:showpageshadow="2"
     inkscape:pageopacity="0.0"
     inkscape:pagecheckerboard="0"
     inkscape:deskcolor="#d1d1d1"
     inkscape:document-units="px"
     inkscape:zoom="0.8163122"
     inkscape:cx="267.6672"
     inkscape:cy="13.475236"
     inkscape:window-width="1728"
     inkscape:window-height="1057"
     inkscape:window-x="0"
     inkscape:window-y="32"
     inkscape:window-maximized="0"
     inkscape:current-layer="layer1"
     showguides="true">
    <sodipodi:guide
       position="212.71571,24.156666"
       orientation="0,-1"
       id="guide4"
       inkscape:locked="false" />
    <sodipodi:guide
       position="212.89347,37.817848"
       orientation="0,-1"
       id="guide7"
       inkscape:locked="false" />
  </sodipodi:namedview>
  <defs
     id="defs1">
    <rect
       x="566.10037"
       y="149.53595"
       width="874.32752"
       height="160.21709"
       id="rect6" />
    <rect
       x="326.18386"
       y="71.871021"
       width="1059.6368"
       height="355.66941"
       id="rect5" />
    <rect
       x="309.59824"
       y="5.52854"
       width="1113.0794"
       height="434.91182"
       id="rect2" />
    <rect
       x="-25.808619"
       y="-315.23383"
       width="766.88464"
       height="901.45813"
       id="rect3" />
    <rect
       x="172.83533"
       y="-358.19492"
       width="1858.606"
       height="1292.5076"
       id="rect1" />
    <linearGradient
       id="linearGradient4"
       inkscape:collect="always">
      <stop
         style="stop-color:#6002ee;stop-opacity:1;"
         offset="0"
         id="stop4" />
      <stop
         style="stop-color:#ff00e3;stop-opacity:1;"
         offset="1"
         id="stop5" />
    </linearGradient>
    <rect
       x="2895.6289"
       y="2287.6228"
       width="9223.7227"
       height="4950.9526"
       id="rect7-0-0-7-2-3-8-2-6-2-7-80-7-0-0-4-7" />
    <linearGradient
       inkscape:collect="always"
       xlink:href="#linearGradient4"
       id="linearGradient9"
       x1="15269.863"
       y1="6937.166"
       x2="15454.212"
       y2="6937.166"
       gradientUnits="userSpaceOnUse"
       gradientTransform="matrix(4.161918,0,0,4.161918,-61224.779,-23463.497)" />
    <linearGradient
       inkscape:collect="always"
       xlink:href="#linearGradient57"
       id="linearGradient7"
       gradientUnits="userSpaceOnUse"
       gradientTransform="matrix(0.31706489,0,0,0.31706489,-556.612,-628.9142)"
       x1="2236.4951"
       y1="2222.7791"
       x2="1752.0898"
       y2="1986.3248" />
    <linearGradient
       id="linearGradient57"
       inkscape:collect="always"
       inkscape:label="ez">
      <stop
         style="stop-color:#00e5f0;stop-opacity:1;"
         offset="0.20183486"
         id="stop53" />
      <stop
         style="stop-color:#a7d4ff;stop-opacity:1;"
         offset="0.34709349"
         id="stop54" />
      <stop
         style="stop-color:#dac5ff;stop-opacity:1;"
         offset="0.4966068"
         id="stop55" />
      <stop
         style="stop-color:#ffb9ee;stop-opacity:1;"
         offset="0.64847851"
         id="stop56" />
      <stop
         style="stop-color:#ffbeca;stop-opacity:1;"
         offset="0.80035025"
         id="stop57" />
    </linearGradient>
  </defs>
  <g
     inkscape:label="Layer 1"
     inkscape:groupmode="layer"
     id="layer1">
    <text
       xml:space="preserve"
       transform="scale(0.26458333)"
       id="text1"
       style="font-size:1200px;font-family:'Josefin Slab';-inkscape-font-specification:'Josefin Slab';text-align:start;letter-spacing:0px;word-spacing:0px;writing-mode:lr-tb;direction:ltr;white-space:pre;shape-inside:url(#rect1);display:inline;fill:#ffffff;stroke-width:105;stroke-linejoin:bevel" />
    <text
       xml:space="preserve"
       transform="scale(0.26458333)"
       id="text3"
       style="font-size:130px;font-family:'Josefin Slab';-inkscape-font-specification:'Josefin Slab';text-align:start;letter-spacing:0px;word-spacing:0px;writing-mode:lr-tb;direction:ltr;white-space:pre;shape-inside:url(#rect3);display:inline;fill:none;stroke-width:4;stroke-linejoin:bevel;stroke-dasharray:none" />
    <text
       xml:space="preserve"
       transform="scale(0.26458333)"
       id="text2"
       style="font-size:72px;font-family:'Nanum Pen';-inkscape-font-specification:'Nanum Pen';text-align:start;letter-spacing:0px;word-spacing:0px;writing-mode:lr-tb;direction:ltr;white-space:pre;shape-inside:url(#rect2);display:inline;fill:#ba50e1;stroke-width:12" />
    <text
       xml:space="preserve"
       transform="scale(0.26458333)"
       id="text5"
       style="font-size:72px;font-family:'Nanum Pen';-inkscape-font-specification:'Nanum Pen';text-align:start;letter-spacing:0px;word-spacing:0px;writing-mode:lr-tb;direction:ltr;white-space:pre;shape-inside:url(#rect5);display:inline;fill:#ba50e1;stroke-width:12" />
    <text
       xml:space="preserve"
       transform="scale(0.26458333)"
       id="text6"
       style="font-size:100px;font-family:'Nanum Pen';-inkscape-font-specification:'Nanum Pen';text-align:start;letter-spacing:0px;word-spacing:0px;writing-mode:lr-tb;direction:ltr;white-space:pre;shape-inside:url(#rect6);display:inline;fill:#ba50e1;stroke-width:12" />
    <rect
       style="fill:url(#linearGradient7);stroke:none;stroke-width:15.8533;stroke-linecap:round;stroke-dasharray:none;stroke-opacity:1"
       id="rect63-90"
       width="152.16431"
       height="15.261442"
       x="1.9362304e-05"
       y="30.801365"
       ry="0" />
    <path
       style="font-weight:bold;font-size:39.0504px;line-height:0;font-family:Montserrat;-inkscape-font-specification:'Montserrat Bold';letter-spacing:0px;word-spacing:0px;white-space:pre;fill:#0b0b0d;stroke-width:1.60643;stroke-linecap:round"
       d="m 215.31244,42.014467 q -1.57378,0 -2.75413,-0.694311 -1.18034,-0.694333 -1.85152,-2.106093 -0.64801,-1.434921 -0.64801,-3.610455 0,-2.198672 0.62487,-3.610432 0.6249,-1.411783 1.80522,-2.106093 1.18035,-0.694333 2.82357,-0.694333 1.75895,0 3.14757,0.810051 1.41177,0.78689 2.2218,2.221812 0.83319,1.434922 0.83319,3.378995 0,1.967235 -0.83319,3.402157 -0.81003,1.434922 -2.2218,2.221812 -1.38862,0.78689 -3.14757,0.78689 z m -7.35977,4.304765 V 29.377909 h 3.44846 v 2.545826 l -0.0694,3.703013 0.23143,3.679895 v 7.012589 z m 6.73488,-7.267188 q 0.90263,0 1.59695,-0.416572 0.71745,-0.416597 1.13404,-1.180348 0.43974,-0.78689 0.43974,-1.851516 0,-1.087765 -0.43974,-1.851493 -0.41659,-0.763751 -1.13404,-1.180348 -0.69432,-0.416594 -1.59695,-0.416594 -0.90261,0 -1.62006,0.416594 -0.71748,0.416597 -1.13407,1.180348 -0.41658,0.763728 -0.41658,1.851493 0,1.064626 0.41658,1.851516 0.41659,0.763751 1.13407,1.180348 0.71745,0.416572 1.62006,0.416572 z m 9.23443,2.777264 V 29.377909 h 3.44842 v 3.517875 l -0.48601,-1.018327 q 0.55545,-1.319203 1.78208,-1.990374 1.22663,-0.694333 2.98557,-0.694333 v 3.332739 q -0.23143,-0.02307 -0.41659,-0.02307 -0.18525,-0.02307 -0.39346,-0.02307 -1.48121,0 -2.40696,0.85633 -0.90263,0.833168 -0.90263,2.615244 v 5.878546 z m 15.70039,0.185248 q -1.99036,0 -3.541,-0.833191 -1.52751,-0.833168 -2.43012,-2.26809 -0.87947,-1.458061 -0.87947,-3.309577 0,-1.874656 0.87947,-3.309577 0.90261,-1.458062 2.43012,-2.268091 1.55064,-0.83319 3.541,-0.83319 1.96722,0 3.51786,0.83319 1.55065,0.810029 2.43012,2.244951 0.87947,1.434922 0.87947,3.332717 0,1.851516 -0.87947,3.309577 -0.87947,1.434922 -2.43012,2.26809 -1.55064,0.833191 -3.51786,0.833191 z m 0,-2.962423 q 0.90261,0 1.62006,-0.416572 0.71746,-0.416596 1.13405,-1.180347 0.4166,-0.78689 0.4166,-1.851516 0,-1.087766 -0.4166,-1.851494 -0.41659,-0.763751 -1.13405,-1.180347 -0.71745,-0.416594 -1.62006,-0.416594 -0.90261,0 -1.62006,0.416594 -0.71748,0.416596 -1.15721,1.180347 -0.41658,0.763728 -0.41658,1.851494 0,1.064626 0.41658,1.851516 0.43973,0.763751 1.15721,1.180347 0.71745,0.416572 1.62006,0.416572 z m 14.58063,2.962423 q -1.75889,0 -3.17068,-0.78689 -1.41179,-0.810029 -2.24496,-2.244951 -0.81003,-1.434921 -0.81003,-3.379017 0,-1.967213 0.81003,-3.402135 0.83317,-1.434921 2.24496,-2.221811 1.41179,-0.786912 3.17068,-0.786912 1.57381,0 2.75414,0.694332 1.18035,0.694311 1.82838,2.106093 0.64804,1.41176 0.64804,3.610433 0,2.175533 -0.6249,3.610455 -0.62489,1.41176 -1.80522,2.106093 -1.15721,0.69431 -2.80044,0.69431 z m 0.6249,-2.962423 q 0.87947,0 1.59695,-0.416572 0.71745,-0.416596 1.13404,-1.180347 0.43974,-0.78689 0.43974,-1.851516 0,-1.087766 -0.43974,-1.851494 -0.41659,-0.763751 -1.13404,-1.180347 -0.71748,-0.416594 -1.59695,-0.416594 -0.90261,0 -1.62004,0.416594 -0.71748,0.416596 -1.15721,1.180347 -0.4166,0.763728 -0.4166,1.851494 0,1.064626 0.4166,1.851516 0.43973,0.763751 1.15721,1.180347 0.71743,0.416572 1.62004,0.416572 z m 3.26331,2.777264 v -2.545826 l 0.0694,-3.703012 -0.23144,-3.679873 v -7.244025 h 3.61045 v 17.172736 z m 12.03477,0.185249 q -1.55064,0 -2.77725,-0.601731 -1.20348,-0.601756 -1.87466,-1.828379 -0.67117,-1.249763 -0.67117,-3.170697 v -7.035751 h 3.61044 v 6.503438 q 0,1.550638 0.64804,2.291227 0.67117,0.717472 1.87466,0.717472 0.83317,0 1.4812,-0.347154 0.64804,-0.370318 1.01833,-1.110907 0.37032,-0.76375 0.37032,-1.897794 v -6.156282 h 3.61042 v 12.451399 h -3.42528 v -3.425296 l 0.62487,0.995188 q -0.62487,1.296064 -1.8515,1.967235 -1.20349,0.648032 -2.63842,0.648032 z m 16.66362,0 q -2.01352,0 -3.58733,-0.810029 -1.57378,-0.833191 -2.47637,-2.291252 -0.87947,-1.458061 -0.87947,-3.309578 0,-1.874655 0.87947,-3.309577 0.90259,-1.458061 2.47637,-2.26809 1.57381,-0.833191 3.58733,-0.833191 1.96722,0 3.42529,0.833191 1.45806,0.810029 2.15237,2.33753 l -2.80041,1.50436 q -0.48604,-0.879467 -1.22663,-1.296064 -0.71745,-0.416594 -1.57376,-0.416594 -0.92577,0 -1.66638,0.416594 -0.7406,0.416597 -1.18033,1.180348 -0.4166,0.763728 -0.4166,1.851493 0,1.087766 0.4166,1.851517 0.43973,0.76375 1.18033,1.180347 0.74061,0.416572 1.66638,0.416572 0.85631,0 1.57376,-0.393433 0.74059,-0.416596 1.22663,-1.319205 l 2.80041,1.527501 q -0.69431,1.50434 -2.15237,2.337531 -1.45807,0.810029 -3.42529,0.810029 z m 12.94182,0 q -2.19868,0 -3.4253,-1.110907 -1.22661,-1.134044 -1.22661,-3.355856 v -10.92392 h 3.61042 v 10.877619 q 0,0.78689 0.4166,1.226624 0.41659,0.416596 1.13405,0.416596 0.85633,0 1.45806,-0.462873 l 0.97203,2.545827 q -0.55543,0.393433 -1.34232,0.601731 -0.76376,0.185249 -1.59693,0.185249 z m -6.57287,-9.859294 v -2.777264 h 8.63267 v 2.777264 z m 14.53435,7.128308 0.0925,-4.397322 5.80913,-5.50825 h 4.30473 l -5.57766,5.670247 -1.87466,1.527501 z m -2.98557,2.545827 V 24.656751 h 3.61044 v 17.172736 z m 9.28069,0 -4.2122,-5.230511 2.26812,-2.800404 6.31827,8.030915 z m 5.87856,0 V 29.378088 h 3.61044 v 12.451399 z m 1.80524,-14.187176 q -0.99521,0 -1.62008,-0.578614 -0.6249,-0.578592 -0.6249,-1.434922 0,-0.856306 0.6249,-1.434922 0.62487,-0.578592 1.62008,-0.578592 0.99517,0 1.62004,0.555453 0.62488,0.532315 0.62488,1.388643 0,0.902609 -0.62488,1.50434 -0.60173,0.578614 -1.62004,0.578614 z m 5.16109,14.187176 V 29.378088 h 3.44843 v 3.448435 l -0.64801,-1.041466 q 0.67115,-1.249763 1.92091,-1.920934 1.24977,-0.671194 2.84672,-0.671194 1.4812,0 2.63839,0.601753 1.18033,0.578594 1.8515,1.805218 0.67117,1.203484 0.67117,3.101279 v 7.128308 h -3.61042 v -6.572856 q 0,-1.504337 -0.67117,-2.221809 -0.64804,-0.71745 -1.85152,-0.71745 -0.85634,0 -1.55065,0.370293 -0.67117,0.347157 -1.06463,1.087768 -0.3703,0.740589 -0.3703,1.897795 v 6.156259 z m 21.43051,0.185249 q -1.75894,0 -3.17073,-0.78689 -1.41174,-0.81003 -2.24493,-2.244951 -0.81004,-1.434922 -0.81004,-3.379018 0,-1.967212 0.81004,-3.402134 0.83319,-1.434922 2.24493,-2.221812 1.41179,-0.786912 3.17073,-0.786912 1.57379,0 2.75411,0.694332 1.18033,0.694311 1.82836,2.106093 0.64804,1.411761 0.64804,3.610433 0,2.175533 -0.6249,3.610455 -0.62487,1.41176 -1.80522,2.106093 -1.15716,0.694311 -2.80039,0.694311 z m 0.62487,-2.962424 q 0.87948,0 1.59695,-0.416572 0.71743,-0.416596 1.13403,-1.180347 0.43973,-0.78689 0.43973,-1.851516 0,-1.087765 -0.43973,-1.851494 -0.4166,-0.76375 -1.13403,-1.180347 -0.71747,-0.416594 -1.59695,-0.416594 -0.90261,0 -1.62006,0.416594 -0.71747,0.416597 -1.15721,1.180347 -0.41657,0.763729 -0.41657,1.851494 0,1.064626 0.41657,1.851516 0.43974,0.763751 1.15721,1.180347 0.71745,0.416572 1.62006,0.416572 z m 3.26329,2.777265 V 39.28375 l 0.0694,-3.703012 -0.23146,-3.679873 V 24.65684 h 3.61047 v 17.172737 z"
       id="text1-3-8-8-9-2-1-4-0-0-6-0-45"
       inkscape:label="logo-productkind"
       aria-label="productkind&#10;" />
    <path
       style="font-weight:bold;font-size:59.7752px;line-height:2;font-family:'Josefin Slab';-inkscape-font-specification:'Josefin Slab Bold';text-align:center;letter-spacing:0px;word-spacing:0px;text-anchor:middle;white-space:pre;fill:#0b0b0d;stroke-width:14.7612;stroke-linecap:round"
       d="M 18.854033,42.72336 V 39.924636 H 16.267886 V 20.723331 h 5.491159 v 2.657023 h 2.798701 V 17.92463 H 4.9667479 v 5.455724 h 2.798701 V 20.723331 H 13.32746 v 19.201305 h -3.046692 v 2.798724 z m 16.048302,0 v -2.798724 h -2.231892 v -3.648938 q 0,-0.921111 0.389692,-1.700497 0.389716,-0.779384 1.027399,-1.346218 0.637661,-0.566831 1.452484,-0.885672 0.850237,-0.318842 1.771346,-0.318842 1.346218,0.07078 1.948464,0.779385 0.637685,0.67312 0.708534,1.629646 v 5.491136 h -2.727849 v 2.798724 h 7.864731 v -2.798724 h -2.196455 v -6.837353 q -0.07079,-1.771349 -1.275367,-2.869575 -1.204514,-1.098229 -3.294681,-1.098229 -2.019337,0.106177 -3.507258,1.062814 -1.48792,0.921087 -2.267306,2.656998 l 0.106176,-1.594208 V 16.153284 h -5.632839 v 2.798723 h 2.692435 v 20.972629 h -2.692435 v 2.798724 z m 24.125607,-1.735912 q 0.956526,-0.956523 1.487943,-2.196455 0.566809,-1.275366 0.566809,-2.727872 0,-1.417069 -0.566809,-2.692435 -0.531417,-1.275366 -1.487943,-2.231869 -0.956503,-0.921109 -2.267306,-1.452504 -1.310781,-0.566834 -2.798724,-0.566834 -1.48792,0 -2.798701,0.566834 -1.275366,0.531395 -2.231889,1.452504 -0.956526,0.956503 -1.523358,2.231869 -0.531394,1.275366 -0.531394,2.692435 0,1.487921 0.531394,2.727872 0.566832,1.239932 1.523358,2.196455 0.956523,0.956526 2.231889,1.523357 1.310781,0.531395 2.798701,0.531395 1.487943,0 2.798724,-0.531395 1.310803,-0.566831 2.267306,-1.523357 z m -8.006431,-2.019315 q -0.566834,-0.531417 -0.885675,-1.275366 -0.318842,-0.743972 -0.318842,-1.594209 0,-0.850235 0.318842,-1.594206 0.318841,-0.743972 0.885675,-1.310783 0.531394,-0.566832 1.275343,-0.885672 0.743972,-0.318843 1.594207,-0.318843 0.85026,0 1.594209,0.318843 0.743971,0.31884 1.310803,0.885672 0.566809,0.566811 0.885652,1.310783 0.31884,0.743971 0.31884,1.594206 0,0.850237 -0.31884,1.594209 -0.318843,0.743949 -0.885652,1.275366 -0.566832,0.566809 -1.310803,0.885652 -0.743949,0.31884 -1.594209,0.31884 -0.850235,0 -1.594207,-0.31884 -0.743949,-0.318843 -1.275343,-0.885652 z m 25.046761,0.354257 -0.106177,1.594207 v 1.806763 h 5.136879 V 40.243477 H 78.902497 V 29.438322 h -5.27858 v 2.798723 h 2.338181 v 3.648961 q 0,0.921087 -0.389717,1.700472 -0.389669,0.779386 -1.027352,1.346218 -0.637683,0.566832 -1.487921,0.885674 -0.814823,0.318841 -1.735934,0.318841 -1.346217,-0.07079 -1.9839,-0.743969 -0.602247,-0.708535 -0.673098,-1.665061 v -8.289859 h -5.278582 v 2.798723 h 2.338156 v 6.837354 q 0.07078,1.771346 1.275368,2.869575 1.204515,1.098226 3.294681,1.098226 1.913049,0 3.471821,-0.991938 1.594209,-1.027377 2.302741,-2.727872 z m 8.679553,10.132058 q 1.06279,0.743972 2.550733,1.417069 1.48792,0.708535 3.082129,0.708535 1.48792,0 2.763286,-0.531395 1.275366,-0.531396 2.23187,-1.452506 0.95652,-0.885674 1.48794,-2.125604 0.56681,-1.204515 0.56681,-2.621584 V 32.237045 h 2.692457 v -2.798723 h -5.136877 q -0.07079,0.49598 -0.106178,0.885674 -0.03539,0.389692 -0.03539,0.779384 -0.425129,-0.67312 -1.629644,-1.310781 -1.16908,-0.67312 -2.869575,-0.67312 -1.487898,0 -2.798701,0.566834 -1.31078,0.566832 -2.267306,1.523355 -0.956524,0.956526 -1.523357,2.231869 -0.531395,1.275367 -0.531395,2.657021 0,1.417069 0.531395,2.692435 0.566833,1.239932 1.523357,2.161018 0.956526,0.956526 2.267306,1.523357 1.310803,0.531418 2.798701,0.531418 0.956526,0 1.735932,-0.177185 0.779386,-0.177185 1.346218,-0.460546 0.425108,-0.212576 0.743949,-0.425128 0.318842,-0.247991 0.425131,-0.425131 -0.07079,0.212576 -0.106177,0.460568 0,0.247966 0,0.318818 v 2.090189 q 0,0.885674 -0.318842,1.629623 -0.283404,0.779409 -0.850236,1.310804 -0.566833,0.566832 -1.346217,0.885673 -0.743971,0.318842 -1.66506,0.318842 -1.027377,0 -1.983901,-0.495981 -0.921089,-0.460544 -1.629623,-0.991961 z M 90.34525,31.989054 q 0.814823,0 1.523357,0.247991 0.708535,0.247989 1.239929,0.673098 0.637683,0.566831 0.991963,1.381654 0.389692,0.779386 0.389692,1.771324 0,0.85026 -0.283428,1.594209 -0.283404,0.743971 -0.814798,1.275366 -0.53142,0.566832 -1.310806,0.921089 -0.779383,0.31884 -1.735909,0.31884 -0.885674,0 -1.629623,-0.283403 -0.708535,-0.283428 -1.275367,-0.779386 -0.566831,-0.566832 -0.921111,-1.346218 -0.318818,-0.779386 -0.318818,-1.700497 0,-0.814798 0.247969,-1.523333 0.247989,-0.708534 0.743969,-1.239953 0.531397,-0.602247 1.34622,-0.956524 0.814821,-0.354257 1.806761,-0.354257 z m 20.12243,10.734306 v -2.798724 h -2.23189 v -3.648938 q 0,-0.921111 0.3897,-1.700497 0.38969,-0.779384 1.02737,-1.346218 0.63768,-0.566831 1.45251,-0.885672 0.85023,-0.318842 1.77134,-0.318842 1.34622,0.07078 1.94847,0.779385 0.63768,0.67312 0.70853,1.629646 v 5.491136 h -2.72785 v 2.798724 h 7.86473 v -2.798724 h -2.19645 v -6.837353 q -0.0708,-1.771349 -1.27537,-2.869575 -1.20451,-1.098229 -3.29468,-1.098229 -2.01934,0.106177 -3.50726,1.062814 -1.48792,0.921087 -2.2673,2.656998 l 0.10617,-1.594208 V 16.153284 h -5.63286 v 2.798723 h 2.69246 v 20.972629 h -2.69246 v 2.798724 z m 20.5475,0 v -2.798724 h -2.657 V 32.307897 H 131.83 v -2.869575 h -3.47182 v -8.644139 h -2.94042 v 8.644139 h -2.97584 v 2.869575 h 2.97584 V 42.72336 Z m 11.83251,-1.310781 q 0.49598,-0.67312 0.67312,-1.381654 0.21258,-0.708535 0.21258,-1.204517 0,-1.098227 -0.38969,-1.806761 -0.3897,-0.743949 -0.99194,-1.239929 -0.60227,-0.460546 -1.31081,-0.779386 -0.70853,-0.318843 -1.31078,-0.566832 -0.63768,-0.247991 -1.09823,-0.495982 -0.46054,-0.283404 -0.53139,-0.708535 -0.0354,-0.283403 0.0354,-0.49598 0.0708,-0.247969 0.24799,-0.425106 0.17719,-0.141793 0.46055,-0.212577 0.2834,-0.106176 0.67309,-0.106176 0.28343,0 0.53142,0.07078 0.24799,0.03539 0.5314,0.106176 v 1.523335 h 2.62158 V 30.60731 q -0.38969,-0.425107 -0.92111,-0.708535 -0.49596,-0.283403 -1.02738,-0.460543 -0.53139,-0.177184 -1.06279,-0.247991 -0.49598,-0.07078 -0.85023,-0.07078 -0.60227,0 -1.34622,0.212577 -0.74397,0.212576 -1.38166,0.708534 -0.63768,0.460565 -1.06281,1.204514 -0.42511,0.743972 -0.42511,1.8422 0,1.239929 0.42511,1.983901 0.42513,0.743949 1.06281,1.133641 0.67312,0.425131 1.41707,0.67312 0.74397,0.212576 1.34622,0.460543 0.63768,0.212577 0.99196,0.566834 0.38969,0.31884 0.38969,0.956523 0,0.354257 -0.14179,0.602246 -0.10617,0.212577 -0.28343,0.35428 -0.24799,0.177185 -0.56683,0.247991 -0.2834,0.07078 -0.56683,0.07078 -0.60225,0 -1.02738,-0.03539 -0.38969,-0.07078 -0.8148,-0.247969 V 38.47213 h -2.62159 v 3.082127 q 0.70853,0.779386 1.91305,1.133666 1.20449,0.31884 2.5153,0.31884 1.41706,0 2.30274,-0.460565 0.88567,-0.460544 1.38163,-1.133641 z m 13.85187,1.310781 h 5.27861 v -0.708535 q 0,-0.247991 0,-0.354257 0,-0.106176 0,-0.354277 0.0354,0.106176 0.35425,0.389692 0.31884,0.283428 0.92111,0.566831 0.56681,0.318843 1.38164,0.531397 0.81482,0.247989 1.84219,0.247989 1.48792,0 2.7987,-0.531395 1.31081,-0.566831 2.26733,-1.523357 0.95653,-0.956523 1.48792,-2.231892 0.56683,-1.275366 0.56683,-2.692435 0,-1.417069 -0.56683,-2.656998 -0.53139,-1.275366 -1.48792,-2.231892 -0.95652,-0.956523 -2.26733,-1.487918 -1.31078,-0.566834 -2.7987,-0.566834 -0.92111,0 -1.73591,0.247991 -0.77938,0.247992 -1.38165,0.566832 -0.60225,0.318843 -0.85024,0.566832 -0.24799,0.212576 -0.28343,0.318842 0.0708,-0.283428 0.0708,-0.460565 0.0354,-0.212577 0.0354,-0.460546 V 16.153284 h -5.27858 v 2.798723 h 2.33816 v 20.972629 h -2.69244 z m 9.7778,-10.734306 q 0.85024,0 1.55877,0.283406 0.74398,0.247989 1.27537,0.708534 0.60225,0.531417 0.95653,1.346218 0.35425,0.779386 0.35425,1.735909 0,0.885674 -0.31884,1.66506 -0.31884,0.743972 -0.85024,1.310803 -0.56683,0.531395 -1.31078,0.850238 -0.74397,0.283403 -1.66506,0.283403 -0.85025,0 -1.5942,-0.283403 -0.70854,-0.283428 -1.27537,-0.743972 -0.60225,-0.566809 -0.95653,-1.346217 -0.31884,-0.814801 -0.31884,-1.735912 0,-0.814798 0.24799,-1.523333 0.28341,-0.743971 0.77939,-1.275368 0.53139,-0.602268 1.31078,-0.921109 0.81482,-0.354257 1.80678,-0.354257 z M 184.545,51.580052 v -2.798701 h -1.73591 q 2.09019,-4.180379 4.14494,-8.254446 2.09017,-4.109504 4.18036,-8.28986 h 2.90501 v -2.798723 h -8.11274 v 2.798723 h 2.19645 q -1.02737,1.948464 -2.05475,3.932364 -0.99194,1.948464 -1.66506,3.932367 -0.6731,-1.983903 -1.70047,-3.932367 -1.02738,-1.9839 -2.05476,-3.932364 h 1.87762 v -2.798723 h -7.86475 v 2.798723 h 2.97586 q 1.34621,2.656998 2.62158,5.243145 1.31078,2.586171 2.657,5.24317 -0.77938,1.48792 -1.55877,3.011275 -0.74397,1.523359 -1.48792,3.046716 h -3.18842 v 2.798701 z"
       id="text8-1"
       aria-label="Thoughts by" />
  </g>
</svg>
