<?xml version="1.0" encoding="UTF-8" standalone="no"?>
<!-- Created with Inkscape (http://www.inkscape.org/) -->

<svg
   width="1080"
   height="1350"
   viewBox="0 0 285.74999 357.1875"
   version="1.1"
   id="svg1"
   inkscape:version="1.4 (e7c3feb1, 2024-10-09)"
   sodipodi:docname="panel-00.svg"
   xmlns:inkscape="http://www.inkscape.org/namespaces/inkscape"
   xmlns:sodipodi="http://sodipodi.sourceforge.net/DTD/sodipodi-0.dtd"
   xmlns="http://www.w3.org/2000/svg"
   xmlns:svg="http://www.w3.org/2000/svg">
  <sodipodi:namedview
     id="namedview1"
     pagecolor="#ffffff"
     bordercolor="#000000"
     borderopacity="0.25"
     inkscape:showpageshadow="2"
     inkscape:pageopacity="0.0"
     inkscape:pagecheckerboard="0"
     inkscape:deskcolor="#d1d1d1"
     inkscape:document-units="px"
     inkscape:zoom="0.32445102"
     inkscape:cx="493.14069"
     inkscape:cy="533.20838"
     inkscape:window-width="1728"
     inkscape:window-height="1057"
     inkscape:window-x="0"
     inkscape:window-y="32"
     inkscape:window-maximized="0"
     inkscape:current-layer="layer1"
     showguides="true" />
  <defs
     id="defs1">
    <rect
       x="337.60629"
       y="293.08679"
       width="868.13049"
       height="871.84045"
       id="rect26" />
    <rect
       x="358.01108"
       y="335.75131"
       width="877.4054"
       height="734.57196"
       id="rect25" />
    <rect
       x="418.44797"
       y="244.75258"
       width="748.0744"
       height="801.36731"
       id="rect16" />
  </defs>
  <g
     inkscape:label="Layer 1"
     inkscape:groupmode="layer"
     id="layer1">
    <path
       style="fill:#ffffff;fill-opacity:1;fill-rule:nonzero;stroke:#370188;stroke-width:3.175;stroke-dasharray:none;stroke-opacity:1"
       d="m 247.00075,223.06615 c 16.19634,5.32381 13.8764,14.98206 -2.92417,11.0971"
       id="path61-9-5-3-0"
       sodipodi:nodetypes="cc" />
    <path
       style="fill:#ffffff;fill-opacity:1;fill-rule:nonzero;stroke:#370188;stroke-width:3.175;stroke-dasharray:none;stroke-opacity:1"
       d="m 176.86034,223.48481 c -16.19635,5.32381 -13.87641,14.98209 2.92417,11.0971"
       id="path61-93-6-3"
       sodipodi:nodetypes="cc" />
    <path
       style="fill:#ffffff;fill-opacity:1;fill-rule:nonzero;stroke:#370188;stroke-width:3.175;stroke-dasharray:none;stroke-opacity:1"
       d="m 194.20958,208.33145 c -25.53268,-25.4005 -6.65648,-52.884 18.84147,-51.92556 25.11596,0.94411 40.3705,29.17678 17.00911,51.85552 3.85426,24.96865 10.0803,70.52399 10.6311,104.67394 -1.63141,9.34332 -16.16078,8.97819 -17.23815,-1.4365 -1.07741,-10.41473 -14.01283,-11.94105 -14.57938,-0.16732 -0.50343,10.462 -17.31089,10.41552 -17.74218,-0.19177 -2.53708,-17.45113 1.06292,-77.48946 3.07803,-102.80824 z"
       id="path49-6-3-0"
       sodipodi:nodetypes="csccssccc" />
    <path
       style="fill:#ffffff;fill-opacity:1;fill-rule:nonzero;stroke:#370188;stroke-width:3.175;stroke-dasharray:none;stroke-opacity:1"
       d="m 230.0913,207.38721 9.99497,71.52351 -50.86547,-0.19177 3.9877,-70.98697 15.05208,4.21069 4.05041,7.53824 3.71287,-7.31323 z"
       id="path56-7-2-1"
       sodipodi:nodetypes="cccccccc" />
    <path
       style="fill:#ffffff;fill-opacity:1;fill-rule:nonzero;stroke:#370188;stroke-width:3.175;stroke-dasharray:none;stroke-opacity:1"
       d="m 196.65881,213.9779 -20.37448,5.84921 3.43427,17.48752 14.37544,-3.06632"
       id="path57-2-5-9"
       sodipodi:nodetypes="cccc" />
    <path
       style="fill:#ffffff;fill-opacity:1;fill-rule:nonzero;stroke:#370188;stroke-width:3.175;stroke-dasharray:none;stroke-opacity:1"
       d="m 228.45332,213.22778 19.524,6.4162 -3.43427,17.48752 -13.61456,-3.06632"
       id="path57-4-4-9-8"
       sodipodi:nodetypes="cccc" />
    <path
       style="fill:#ffffff;fill-opacity:1;fill-rule:nonzero;stroke:#370188;stroke-width:3.175;stroke-dasharray:none;stroke-opacity:1"
       d="m 193.16799,207.75611 -3.91468,6.00247 17.09404,5.21954 1.21104,-6.91699 z"
       id="path58-4-5-6"
       sodipodi:nodetypes="ccccc" />
    <path
       style="fill:#ffffff;fill-opacity:1;fill-rule:nonzero;stroke:#370188;stroke-width:3.175;stroke-dasharray:none;stroke-opacity:1"
       d="m 216.87803,211.80125 13.21823,-4.43662 3.91464,6.43652 -14.98672,4.87937 z"
       id="path59-0-6-9"
       sodipodi:nodetypes="ccccc" />
    <path
       style="fill:#ffffff;fill-opacity:1;fill-rule:nonzero;stroke:#370188;stroke-width:3.175;stroke-dasharray:none;stroke-opacity:1"
       d="m 196.88011,164.3958 c -21.60435,-59.31458 13.1537,-66.357336 9.60951,-1.2085"
       id="path67-8-64"
       sodipodi:nodetypes="cc" />
    <path
       style="fill:#5892fd;fill-opacity:1;fill-rule:nonzero;stroke:#370188;stroke-width:3.175;stroke-dasharray:none;stroke-opacity:1"
       d="m 185.87518,311.77406 26.58287,0.41307 3.29813,-15.55067 3.43056,15.49142 27.34976,-0.10287 -8.3533,-44.7339 -48.62229,0.0127 z"
       id="path55-9-6-4"
       sodipodi:nodetypes="cccccccc" />
    <path
       style="fill:none;fill-opacity:1;fill-rule:nonzero;stroke:#370188;stroke-width:3.175;stroke-dasharray:none;stroke-opacity:1"
       d="m 214.73094,297.7798 4.89836,0.11049 -1.97206,-17.41671"
       id="path71-3-8"
       sodipodi:nodetypes="ccc" />
    <path
       style="fill:#fd8658;fill-opacity:1;fill-rule:nonzero;stroke:#370188;stroke-width:3.175;stroke-dasharray:none;stroke-opacity:1"
       d="m 212.28194,221.97706 -3.60744,27.28278 4.29981,8.04481 4.43855,-7.90613 z"
       id="path75-6"
       sodipodi:nodetypes="ccccc" />
    <path
       style="fill:#fd8658;fill-opacity:1;fill-rule:nonzero;stroke:#370188;stroke-width:3.175;stroke-dasharray:none;stroke-opacity:1"
       d="m 212.28635,223.18353 3.49218,-8.85517 h -6.36076 z"
       id="path76-1"
       sodipodi:nodetypes="cccc" />
    <path
       style="fill:#b081f7;fill-opacity:1;fill-rule:nonzero;stroke:#370188;stroke-width:3.175;stroke-dasharray:none;stroke-opacity:1"
       d="m 209.31744,196.81401 7.84758,-7.77516"
       id="path77-4"
       sodipodi:nodetypes="cc" />
    <path
       style="fill:#b081f7;fill-opacity:1;fill-rule:nonzero;stroke:#370188;stroke-width:3.175;stroke-dasharray:none;stroke-opacity:1"
       d="m 217.16502,196.81401 -7.84758,-7.77516"
       id="path77-2-0"
       sodipodi:nodetypes="cc" />
    <rect
       style="fill:#ffffff;fill-opacity:1;fill-rule:nonzero;stroke:#370188;stroke-width:3.175;stroke-dasharray:none;stroke-opacity:1"
       id="rect78-8"
       width="10.424397"
       height="11.062675"
       x="197.23958"
       y="226.03264"
       rx="1.0583333"
       ry="1.0583333" />
    <path
       style="fill:#ffffff;fill-opacity:1;fill-rule:nonzero;stroke:#370188;stroke-width:3.175;stroke-dasharray:none;stroke-opacity:1"
       d="m 226.57493,164.66743 c 21.60435,-59.31459 -13.15371,-66.357344 -9.60952,-1.2085"
       id="path67-8-6-1"
       sodipodi:nodetypes="cc" />
    <path
       sodipodi:type="spiral"
       style="fill:none;fill-rule:evenodd;stroke:#370188;stroke-width:0.477792;stroke-dasharray:none;stroke-opacity:1"
       id="path2"
       sodipodi:cx="387.07599"
       sodipodi:cy="38.620319"
       sodipodi:expansion="1"
       sodipodi:revolution="3"
       sodipodi:radius="3.120249"
       sodipodi:argument="-10.70645"
       sodipodi:t0="0.07"
       d="m 386.85773,38.612066 c -0.13133,-0.187616 0.0555,-0.414843 0.23634,-0.469843 0.34116,-0.10378 0.66009,0.182576 0.71985,0.506001 0.0896,0.485126 -0.31049,0.910705 -0.77566,0.969862 -0.62747,0.0798 -1.16329,-0.438564 -1.21987,-1.045322 -0.0718,-0.769364 0.56666,-1.416823 1.31498,-1.469881 0.91108,-0.0646 1.67089,0.694761 1.71989,1.584643 0.058,1.052728 -0.82286,1.925286 -1.8543,1.9699 -1.19434,0.05166 -2.1799,-0.95097 -2.21991,-2.123964 -0.0456,-1.335914 1.07907,-2.434667 2.39362,-2.469919 1.47748,-0.03962 2.68954,1.207183 2.71993,2.663285 0.0338,1.619044 -1.33529,2.944501 -2.93295,2.969938 -0.26003,0.0041 -0.52045,-0.02487 -0.77328,-0.08571"
       transform="matrix(1.6612889,0,0,1.6612889,-441.30945,113.00949)" />
    <path
       sodipodi:type="spiral"
       style="fill:none;fill-rule:evenodd;stroke:#370188;stroke-width:0.477792;stroke-dasharray:none;stroke-opacity:1"
       id="path2-7"
       sodipodi:cx="387.07599"
       sodipodi:cy="38.620319"
       sodipodi:expansion="1"
       sodipodi:revolution="3"
       sodipodi:radius="3.120249"
       sodipodi:argument="-10.70645"
       sodipodi:t0="0.07"
       d="m 386.85773,38.612066 c -0.13133,-0.187616 0.0555,-0.414843 0.23634,-0.469843 0.34116,-0.10378 0.66009,0.182576 0.71985,0.506001 0.0896,0.485126 -0.31049,0.910705 -0.77566,0.969862 -0.62747,0.0798 -1.16329,-0.438564 -1.21987,-1.045322 -0.0718,-0.769364 0.56666,-1.416823 1.31498,-1.469881 0.91108,-0.0646 1.67089,0.694761 1.71989,1.584643 0.058,1.052728 -0.82286,1.925286 -1.8543,1.9699 -1.19434,0.05166 -2.1799,-0.95097 -2.21991,-2.123964 -0.0456,-1.335914 1.07907,-2.434667 2.39362,-2.469919 1.47748,-0.03962 2.68954,1.207183 2.71993,2.663285 0.0338,1.619044 -1.33529,2.944501 -2.93295,2.969938 -0.26003,0.0041 -0.52045,-0.02487 -0.77328,-0.08571"
       transform="matrix(1.6612889,0,0,1.6612889,-422.01234,112.79575)" />
    <text
       xml:space="preserve"
       transform="scale(0.26458333)"
       id="text16"
       style="font-style:normal;font-variant:normal;font-weight:bold;font-stretch:normal;font-size:60px;font-family:'Josefin Slab';-inkscape-font-specification:'Josefin Slab Bold';text-align:start;letter-spacing:0px;word-spacing:0px;writing-mode:lr-tb;direction:ltr;white-space:pre;shape-inside:url(#rect16);display:inline;fill:#000000;fill-opacity:0;stroke:#370188;stroke-width:12;stroke-opacity:1" />
    <text
       xml:space="preserve"
       transform="scale(0.26458333)"
       id="text25"
       style="font-style:normal;font-variant:normal;font-weight:bold;font-stretch:normal;font-size:60px;font-family:'Josefin Slab';-inkscape-font-specification:'Josefin Slab Bold';text-align:start;letter-spacing:0px;word-spacing:0px;writing-mode:lr-tb;direction:ltr;white-space:pre;shape-inside:url(#rect25);display:inline;fill:#000000;fill-opacity:0;stroke:#370188;stroke-width:12;stroke-opacity:1" />
    <text
       xml:space="preserve"
       transform="scale(0.26458333)"
       id="text26"
       style="font-style:normal;font-variant:normal;font-weight:bold;font-stretch:normal;font-size:60px;font-family:'Josefin Slab';-inkscape-font-specification:'Josefin Slab Bold';text-align:start;letter-spacing:0px;word-spacing:0px;writing-mode:lr-tb;direction:ltr;white-space:pre;shape-inside:url(#rect26);display:inline;fill:#000000;fill-opacity:0;stroke:#370188;stroke-width:12;stroke-opacity:1" />
    <rect
       style="fill:none;fill-opacity:1;fill-rule:nonzero;stroke:#370188;stroke-width:3.175;stroke-dasharray:none;stroke-opacity:1"
       id="rect113-4-2"
       width="282.57498"
       height="354.01248"
       x="1.5875"
       y="1.5875" />
    <rect
       width="9.8019896"
       height="15.875"
       rx="0"
       ry="0"
       fill="#6002ee"
       stroke-width="0"
       id="rect1-3-4-39-4-2-0-5-6"
       x="247.60098"
       y="332.84583" />
    <text
       font-family="Montserrat"
       font-size="618.11px"
       font-weight="200"
       stroke-width="0"
       fill="#33333"
       id="text3-0-3-0-0-5-3-3-2"
       x="248.33717"
       y="345.42685"
       style="font-style:normal;font-variant:normal;font-weight:300;font-stretch:normal;font-size:13.0774px;font-family:Montserrat;-inkscape-font-specification:'Montserrat Light'"
       transform="scale(0.99938968,1.0006107)"><tspan
         y="345.42685"
         font-weight="200"
         stroke-width="0"
         id="tspan1-4-8-6-2-1-2-5-9"
         style="font-style:normal;font-variant:normal;font-weight:300;font-stretch:normal;font-size:13.0774px;font-family:Montserrat;-inkscape-font-specification:'Montserrat Light'"><tspan
           style="font-style:normal;font-variant:normal;font-weight:300;font-stretch:normal;font-size:13.0774px;font-family:Montserrat;-inkscape-font-specification:'Montserrat Light';fill:#ffffff;fill-opacity:1;stroke-width:0"
           id="tspan3-6-3-13-5-2-1-6-6">k</tspan></tspan></text>
    <text
       dx="0"
       dy="0"
       font-family="Montserrat"
       font-size="465.256px"
       font-weight="200"
       stroke-width="0"
       fill="#33333"
       id="text3-0-3-6-8-4-0-8-9"
       x="195.17656"
       y="345.42685"
       style="font-style:normal;font-variant:normal;font-weight:300;font-stretch:normal;font-size:13.0774px;font-family:Montserrat;-inkscape-font-specification:'Montserrat Light'"
       transform="scale(0.99938968,1.0006107)"><tspan
         y="345.42685"
         font-weight="200"
         stroke-width="0"
         id="tspan1-4-8-3-9-0-0-6-9"
         style="font-style:normal;font-variant:normal;font-weight:300;font-stretch:normal;font-size:13.0774px;font-family:Montserrat;-inkscape-font-specification:'Montserrat Light'">product</tspan></text>
    <text
       font-family="Montserrat"
       font-size="465.256px"
       font-weight="200"
       stroke-width="0"
       fill="#33333"
       id="text3-0-3-6-4-3-4-3-7-8"
       x="257.78415"
       y="345.42685"
       style="font-style:normal;font-variant:normal;font-weight:300;font-stretch:normal;font-size:13.0774px;font-family:Montserrat;-inkscape-font-specification:'Montserrat Light'"
       transform="scale(0.99938968,1.0006107)"><tspan
         y="345.42685"
         font-weight="200"
         stroke-width="0"
         id="tspan1-4-8-3-6-9-9-9-7-0"
         style="font-style:normal;font-variant:normal;font-weight:300;font-stretch:normal;font-size:13.0774px;font-family:Montserrat;-inkscape-font-specification:'Montserrat Light'">ind</tspan></text>
    <path
       style="fill:#5c58fd;fill-opacity:1;stroke:#370188;stroke-width:3.175;stroke-dasharray:none;stroke-opacity:1"
       d="m 156.9448,215.02641 -9.75693,-80.75767 -9.72115,80.61239 c 0,0 5.99905,-21.53572 5.23053,0.62234 0,0 4.48564,-22.24227 4.48564,0.2451 0,-22.53316 4.93275,-0.12997 4.93275,-0.12997 -1.63826,-22.35036 4.82916,-0.59251 4.82916,-0.59251 z"
       id="path1"
       sodipodi:nodetypes="cccccscc" />
    <path
       style="fill:none;fill-opacity:1;stroke:#370188;stroke-width:3.175;stroke-dasharray:none"
       d="m 147.18716,134.07282 v 91.31113 c 0,15.20004 23.22747,15.36627 23.22747,-0.93375"
       id="path3"
       sodipodi:nodetypes="ccc" />
    <text
       xml:space="preserve"
       style="font-style:normal;font-variant:normal;font-weight:normal;font-stretch:normal;font-size:19.05px;font-family:'Nanum Pen';-inkscape-font-specification:'Nanum Pen';text-align:end;letter-spacing:0px;word-spacing:0px;writing-mode:lr-tb;direction:ltr;text-anchor:end;white-space:pre;inline-size:184.959;display:inline;fill:#370188;fill-opacity:1;stroke:none;stroke-width:1.5875;stroke-linecap:round;stroke-dasharray:none;stroke-opacity:1"
       x="59.175774"
       y="156.49693"
       id="text17-6"
       transform="translate(214.19688,-129.71601)"><tspan
         x="59.175774"
         y="156.49693"
         id="tspan1">The last batch of umbrellas<tspan
   y="156.49693"
   id="tspan2"> </tspan></tspan><tspan
         x="59.175774"
         y="180.30944"
         id="tspan3">won’t open, and we’ve<tspan
   y="180.30944"
   id="tspan5"> </tspan></tspan><tspan
         x="59.175774"
         y="204.12194"
         id="tspan6">already sent them out.</tspan></text>
    <text
       xml:space="preserve"
       style="font-style:normal;font-variant:normal;font-weight:normal;font-stretch:normal;font-size:19.05px;font-family:'Nanum Pen';-inkscape-font-specification:'Nanum Pen';text-align:start;letter-spacing:0px;word-spacing:0px;writing-mode:lr-tb;direction:ltr;text-anchor:start;white-space:pre;inline-size:97.2021;display:inline;fill:#370188;fill-opacity:1;stroke:none;stroke-width:1.5875;stroke-linecap:round;stroke-dasharray:none;stroke-opacity:1"
       x="-44.677448"
       y="156.49693"
       id="text17-6-6"
       transform="translate(57.270498,-76.979696)"><tspan
         x="-44.677448"
         y="156.49693"
         id="tspan7">No worries, </tspan><tspan
         x="-44.677448"
         y="180.30944"
         id="tspan8">I’ll handle it...</tspan></text>
    <path
       style="fill:none;fill-opacity:1;stroke:#370188;stroke-width:1.5875;stroke-linecap:round;stroke-dasharray:none;stroke-opacity:1"
       d="m 211.15554,116.54091 c 0.0199,-12.85633 -4.56366,-21.546196 -5.09003,-35.067586"
       id="path13-1-9-2-1"
       sodipodi:nodetypes="cc" />
    <path
       style="fill:none;fill-opacity:1;stroke:#370188;stroke-width:1.5875;stroke-linecap:round;stroke-dasharray:none;stroke-opacity:1"
       d="m 68.692204,139.02865 c 0.0199,-12.85634 -18.23999,-11.28894 -18.76636,-24.81033"
       id="path13-1-9-2-1-9"
       sodipodi:nodetypes="cc" />
    <path
       style="fill:#ffffff;fill-opacity:1;fill-rule:nonzero;stroke:#370188;stroke-width:3.175;stroke-dasharray:none;stroke-opacity:1"
       d="m 104.19637,223.84759 c 16.19634,5.3238 13.8764,14.98207 -2.92417,11.0971"
       id="path61-9-5-0"
       sodipodi:nodetypes="cc" />
    <path
       style="fill:#ffffff;fill-opacity:1;fill-rule:nonzero;stroke:#370188;stroke-width:3.175;stroke-dasharray:none;stroke-opacity:1"
       d="m 34.055959,224.26626 c -16.19634,5.3238 -13.8764,14.98207 2.92417,11.09709"
       id="path61-93-8"
       sodipodi:nodetypes="cc" />
    <path
       style="fill:#ffffff;fill-opacity:1;fill-rule:nonzero;stroke:#370188;stroke-width:3.175;stroke-dasharray:none;stroke-opacity:1"
       d="m 51.405199,209.11289 c -25.53268,-25.4005 -6.65648,-52.884 18.84147,-51.92555 25.115964,0.94409 40.370501,29.17676 17.009109,51.85551 3.85426,24.96865 10.080308,70.52397 10.631107,104.67395 -1.631411,9.34331 -16.160782,8.9782 -17.238154,-1.43651 -1.077405,-10.41472 -14.012832,-11.94106 -14.579382,-0.16733 -0.50342,10.46201 -17.31089,10.41554 -17.74218,-0.1918 -2.53708,-17.45114 1.06293,-77.48945 3.07803,-102.80824 z"
       id="path49-6-5"
       sodipodi:nodetypes="csccssccc" />
    <path
       style="fill:#fd8658;fill-opacity:1;fill-rule:nonzero;stroke:#370188;stroke-width:3.175;stroke-dasharray:none;stroke-opacity:1"
       d="m 87.286925,208.16864 9.994963,71.52352 -50.865469,-0.19186 3.98771,-70.98697 15.05207,4.21067 4.05041,7.53825 3.712876,-7.31323 z"
       id="path56-7-2"
       sodipodi:nodetypes="cccccccc" />
    <path
       style="fill:#fd8658;fill-opacity:1;fill-rule:nonzero;stroke:#370188;stroke-width:3.175;stroke-dasharray:none;stroke-opacity:1"
       d="m 53.854429,214.75935 -20.37448,5.84919 3.43427,17.48754 15.32887,-3.61492"
       id="path57-2-3"
       sodipodi:nodetypes="cccc" />
    <path
       style="fill:#fd8658;fill-opacity:1;fill-rule:nonzero;stroke:#370188;stroke-width:3.175;stroke-dasharray:none;stroke-opacity:1"
       d="m 85.648943,214.00922 19.523997,6.41618 -3.43427,17.48755 -13.614561,-3.06635"
       id="path57-4-4-0"
       sodipodi:nodetypes="cccc" />
    <path
       style="fill:#fd8658;fill-opacity:1;fill-rule:nonzero;stroke:#370188;stroke-width:3.175;stroke-dasharray:none;stroke-opacity:1"
       d="m 50.363609,208.53755 -3.91468,6.00248 17.09405,5.21954 1.21104,-6.91701 z"
       id="path58-4-2"
       sodipodi:nodetypes="ccccc" />
    <path
       style="fill:#fd8658;fill-opacity:1;fill-rule:nonzero;stroke:#370188;stroke-width:3.175;stroke-dasharray:none;stroke-opacity:1"
       d="m 74.073655,212.5827 13.218223,-4.43661 3.914648,6.43651 -14.98673,4.87935 z"
       id="path59-0-6"
       sodipodi:nodetypes="ccccc" />
    <path
       style="fill:#ffffff;fill-opacity:1;fill-rule:nonzero;stroke:#370188;stroke-width:3.175;stroke-dasharray:none;stroke-opacity:1"
       d="m 69.535029,218.78065 3e-5,59.83336"
       id="path60-3-4"
       sodipodi:nodetypes="cc" />
    <circle
       style="fill:#370188;fill-opacity:1;stroke:#370188;stroke-width:0.797947;stroke-opacity:1"
       id="path3-3-6-6-7-1-6"
       r="0.75558645"
       cy="263.53873"
       cx="74.770187"
       inkscape:transform-center-x="2.5473966"
       inkscape:transform-center-y="-7.9173349e-05" />
    <circle
       style="fill:#370188;fill-opacity:1;stroke:#370188;stroke-width:0.797947;stroke-opacity:1"
       id="path3-3-6-6-7-0-4-4"
       r="0.75558645"
       cy="245.53001"
       cx="74.47834"
       inkscape:transform-center-x="2.5473966"
       inkscape:transform-center-y="-7.9173349e-05" />
    <circle
       style="fill:#370188;fill-opacity:1;stroke:#370188;stroke-width:0.797947;stroke-opacity:1"
       id="path3-3-6-60-5-3-8-4"
       r="0.75558645"
       cy="254.54121"
       cx="74.690636"
       inkscape:transform-center-x="2.5474322"
       inkscape:transform-center-y="1.983531e-06" />
    <circle
       style="fill:#370188;fill-opacity:1;stroke:#370188;stroke-width:0.797947;stroke-opacity:1"
       id="path3-3-6-6-7-0-0-8-7"
       r="0.75558645"
       cy="226.90959"
       cx="74.38678"
       inkscape:transform-center-x="2.5473966"
       inkscape:transform-center-y="-7.9173349e-05" />
    <circle
       style="fill:#370188;fill-opacity:1;stroke:#370188;stroke-width:0.797947;stroke-opacity:1"
       id="path3-3-6-60-5-3-6-7-3"
       r="0.75558645"
       cy="236.45195"
       cx="74.42205"
       inkscape:transform-center-x="2.5474322"
       inkscape:transform-center-y="1.983531e-06" />
    <path
       style="fill:#ffffff;fill-opacity:1;stroke:#370188;stroke-width:3.175;stroke-dasharray:none;stroke-opacity:1"
       d="m 77.383497,185.84764 c 6.068314,4.66704 8.42245,10.65536 7.814691,12.26756 -0.589629,1.56399 -13.19041,3.00085 -21.690929,2.11255 -2.72063,-0.28429 -5.21897,-2.42378 -6.22735,-4.2501"
       id="path7-6-3"
       sodipodi:nodetypes="cssc" />
    <path
       style="fill:#370188;fill-opacity:1;stroke:#370188;stroke-width:3.2566;stroke-dasharray:none;stroke-opacity:1"
       d="m 80.606503,193.08804 c -0.974693,0.31423 -2.790221,3.05635 -2.6396,4.61959 0.150495,1.56324 3.220784,-0.1932 3.220784,-0.1932 l 2.098865,-0.57126 -0.776859,-2.32696 c 0,0 -0.92856,-1.84244 -1.90319,-1.5282 z"
       id="path8-8-8"
       sodipodi:nodetypes="zzcccz"
       inkscape:transform-center-x="-5.9806234"
       inkscape:transform-center-y="1.0600401" />
    <path
       style="fill:#ffffff;fill-opacity:1;fill-rule:nonzero;stroke:#370188;stroke-width:3.175;stroke-dasharray:none;stroke-opacity:1"
       d="m 49.820849,170.92133 c -38.83657,-14.6384 16.13214,-50.18882 11.94971,-5.67611"
       id="path67-0"
       sodipodi:nodetypes="cc" />
    <path
       style="fill:#ffffff;fill-opacity:1;fill-rule:nonzero;stroke:#370188;stroke-width:3.175;stroke-dasharray:none;stroke-opacity:1"
       d="M 88.104996,170.25513 C 126.94156,155.61672 71.972853,120.06631 76.15528,164.57901"
       id="path67-5-6"
       sodipodi:nodetypes="cc" />
    <path
       style="fill:#9a58fd;fill-opacity:1;fill-rule:nonzero;stroke:#370188;stroke-width:3.175;stroke-dasharray:none;stroke-opacity:1"
       d="m 43.070799,314.87724 26.58288,0.41306 3.298122,-17.8724 3.430555,17.81316 27.349764,-0.10287 -8.456101,-46.74727 -48.51949,-0.29556 z"
       id="path55-9-6"
       sodipodi:nodetypes="cccccccc" />
    <path
       style="fill:#ffffff;fill-opacity:1;fill-rule:nonzero;stroke:#370188;stroke-width:6.35;stroke-dasharray:none;stroke-opacity:1"
       d="M 46.679379,267.89509 H 95.725345"
       id="path69-3"
       sodipodi:nodetypes="cc" />
    <rect
       style="fill:none;fill-opacity:1;fill-rule:nonzero;stroke:#fdc458;stroke-width:3.175;stroke-dasharray:none;stroke-opacity:1"
       id="rect68-0"
       width="12.757616"
       height="11.623605"
       x="65.674088"
       y="261.94153"
       rx="4.7624989" />
    <path
       style="fill:none;fill-opacity:1;fill-rule:nonzero;stroke:#fdc458;stroke-width:3.175;stroke-dasharray:none;stroke-opacity:1"
       d="m 71.344108,267.61158 h 6.520561"
       id="path70-7" />
    <path
       style="fill:none;fill-opacity:1;fill-rule:nonzero;stroke:#370188;stroke-width:3.175;stroke-dasharray:none;stroke-opacity:1"
       d="m 71.926561,298.56125 4.189381,0.11046 -1.617567,-16.885"
       id="path71-7"
       sodipodi:nodetypes="ccc" />
    <path
       style="fill:none;fill-opacity:1;fill-rule:nonzero;stroke:#370188;stroke-width:3.175;stroke-dasharray:none;stroke-opacity:1"
       d="m 96.379268,274.67731 c 20.342132,-1.95018 3.263741,-23.39214 23.817612,-27.51033"
       id="path72-8"
       sodipodi:nodetypes="cc" />
    <path
       style="fill:none;stroke:#370188;stroke-width:3.175"
       d="m 56.595659,177.62118 c 0.40012,-3.07391 4.73898,-3.17942 5.66938,-0.23356"
       id="path1-1"
       sodipodi:nodetypes="cc" />
    <path
       style="fill:none;stroke:#370188;stroke-width:3.175"
       d="m 75.713765,177.74299 c 0.400113,-3.0739 4.738973,-3.17942 5.669375,-0.23355"
       id="path1-0"
       sodipodi:nodetypes="cc" />
  </g>
</svg>
