<?xml version="1.0" encoding="UTF-8" standalone="no"?>
<!-- Created with Inkscape (http://www.inkscape.org/) -->

<svg
   width="1080"
   height="1350"
   viewBox="0 0 285.74999 357.1875"
   version="1.1"
   id="svg1"
   inkscape:version="1.4 (e7c3feb1, 2024-10-09)"
   sodipodi:docname="panel-03.svg"
   xmlns:inkscape="http://www.inkscape.org/namespaces/inkscape"
   xmlns:sodipodi="http://sodipodi.sourceforge.net/DTD/sodipodi-0.dtd"
   xmlns="http://www.w3.org/2000/svg"
   xmlns:svg="http://www.w3.org/2000/svg">
  <sodipodi:namedview
     id="namedview1"
     pagecolor="#ffffff"
     bordercolor="#000000"
     borderopacity="0.25"
     inkscape:showpageshadow="2"
     inkscape:pageopacity="0.0"
     inkscape:pagecheckerboard="0"
     inkscape:deskcolor="#d1d1d1"
     inkscape:document-units="px"
     inkscape:zoom="0.31247162"
     inkscape:cx="-22.402034"
     inkscape:cy="544.0494"
     inkscape:window-width="1728"
     inkscape:window-height="1057"
     inkscape:window-x="0"
     inkscape:window-y="32"
     inkscape:window-maximized="0"
     inkscape:current-layer="layer1" />
  <defs
     id="defs1">
    <rect
       x="337.60629"
       y="293.08679"
       width="868.13049"
       height="871.84045"
       id="rect26" />
    <rect
       x="358.01108"
       y="335.75131"
       width="877.4054"
       height="734.57196"
       id="rect25" />
    <rect
       x="418.44797"
       y="244.75258"
       width="748.0744"
       height="801.36731"
       id="rect16" />
    <clipPath
       clipPathUnits="userSpaceOnUse"
       id="clipPath3">
      <rect
         style="fill:#58fded;stroke-width:0.473119"
         id="rect4"
         width="80.109879"
         height="75.452332"
         x="93.521271"
         y="188.51921" />
    </clipPath>
    <clipPath
       clipPathUnits="userSpaceOnUse"
       id="clipPath2">
      <rect
         style="fill:#58fded;stroke-width:0.473119"
         id="rect3"
         width="80.109879"
         height="75.452332"
         x="93.521271"
         y="188.51921" />
    </clipPath>
    <clipPath
       clipPathUnits="userSpaceOnUse"
       id="clipPath51">
      <rect
         style="fill:none;fill-opacity:1;stroke:#370188;stroke-width:1;stroke-dasharray:none;stroke-opacity:1"
         id="rect51"
         width="89"
         height="89"
         x="0.5"
         y="182.82777" />
    </clipPath>
    <clipPath
       clipPathUnits="userSpaceOnUse"
       id="clipPath50">
      <rect
         style="fill:none;fill-opacity:1;stroke:#370188;stroke-width:1;stroke-dasharray:none;stroke-opacity:1"
         id="rect50"
         width="89"
         height="89"
         x="0.5"
         y="182.82777" />
    </clipPath>
    <rect
       x="143.04041"
       y="2404.8069"
       width="301.31342"
       height="84.782651"
       id="rect53" />
    <rect
       x="112.28611"
       y="2443.1587"
       width="900.57051"
       height="352.27767"
       id="rect57" />
    <clipPath
       clipPathUnits="userSpaceOnUse"
       id="clipPath5">
      <rect
         style="fill:#fdc458;stroke:#370188;stroke-width:3.175"
         id="rect5"
         width="164.55612"
         height="170.74908"
         x="503.40018"
         y="59.275593" />
    </clipPath>
  </defs>
  <g
     inkscape:label="Layer 1"
     inkscape:groupmode="layer"
     id="layer1">
    <text
       xml:space="preserve"
       transform="scale(0.26458333)"
       id="text16"
       style="font-style:normal;font-variant:normal;font-weight:bold;font-stretch:normal;font-size:60px;font-family:'Josefin Slab';-inkscape-font-specification:'Josefin Slab Bold';text-align:start;letter-spacing:0px;word-spacing:0px;writing-mode:lr-tb;direction:ltr;white-space:pre;shape-inside:url(#rect16);display:inline;fill:#000000;fill-opacity:0;stroke:#370188;stroke-width:12;stroke-opacity:1" />
    <text
       xml:space="preserve"
       transform="scale(0.26458333)"
       id="text25"
       style="font-style:normal;font-variant:normal;font-weight:bold;font-stretch:normal;font-size:60px;font-family:'Josefin Slab';-inkscape-font-specification:'Josefin Slab Bold';text-align:start;letter-spacing:0px;word-spacing:0px;writing-mode:lr-tb;direction:ltr;white-space:pre;shape-inside:url(#rect25);display:inline;fill:#000000;fill-opacity:0;stroke:#370188;stroke-width:12;stroke-opacity:1" />
    <text
       xml:space="preserve"
       transform="scale(0.26458333)"
       id="text26"
       style="font-style:normal;font-variant:normal;font-weight:bold;font-stretch:normal;font-size:60px;font-family:'Josefin Slab';-inkscape-font-specification:'Josefin Slab Bold';text-align:start;letter-spacing:0px;word-spacing:0px;writing-mode:lr-tb;direction:ltr;white-space:pre;shape-inside:url(#rect26);display:inline;fill:#000000;fill-opacity:0;stroke:#370188;stroke-width:12;stroke-opacity:1" />
    <rect
       style="fill:none;fill-opacity:1;fill-rule:nonzero;stroke:#370188;stroke-width:3.175;stroke-dasharray:none;stroke-opacity:1"
       id="rect113-4-2"
       width="282.57498"
       height="354.01248"
       x="1.5875"
       y="1.5875" />
    <rect
       width="9.8019896"
       height="15.875"
       rx="0"
       ry="0"
       fill="#6002ee"
       stroke-width="0"
       id="rect1-3-4-39-4-2-0-5-6"
       x="247.60098"
       y="332.84583" />
    <text
       font-family="Montserrat"
       font-size="618.11px"
       font-weight="200"
       stroke-width="0"
       fill="#33333"
       id="text3-0-3-0-0-5-3-3-2"
       x="248.33717"
       y="345.42685"
       style="font-style:normal;font-variant:normal;font-weight:300;font-stretch:normal;font-size:13.0774px;font-family:Montserrat;-inkscape-font-specification:'Montserrat Light'"
       transform="scale(0.99938968,1.0006107)"><tspan
         y="345.42685"
         font-weight="200"
         stroke-width="0"
         id="tspan1-4-8-6-2-1-2-5-9"
         style="font-style:normal;font-variant:normal;font-weight:300;font-stretch:normal;font-size:13.0774px;font-family:Montserrat;-inkscape-font-specification:'Montserrat Light'"><tspan
           style="font-style:normal;font-variant:normal;font-weight:300;font-stretch:normal;font-size:13.0774px;font-family:Montserrat;-inkscape-font-specification:'Montserrat Light';fill:#ffffff;fill-opacity:1;stroke-width:0"
           id="tspan3-6-3-13-5-2-1-6-6">k</tspan></tspan></text>
    <text
       dx="0"
       dy="0"
       font-family="Montserrat"
       font-size="465.256px"
       font-weight="200"
       stroke-width="0"
       fill="#33333"
       id="text3-0-3-6-8-4-0-8-9"
       x="195.17656"
       y="345.42685"
       style="font-style:normal;font-variant:normal;font-weight:300;font-stretch:normal;font-size:13.0774px;font-family:Montserrat;-inkscape-font-specification:'Montserrat Light'"
       transform="scale(0.99938968,1.0006107)"><tspan
         y="345.42685"
         font-weight="200"
         stroke-width="0"
         id="tspan1-4-8-3-9-0-0-6-9"
         style="font-style:normal;font-variant:normal;font-weight:300;font-stretch:normal;font-size:13.0774px;font-family:Montserrat;-inkscape-font-specification:'Montserrat Light'">product</tspan></text>
    <text
       font-family="Montserrat"
       font-size="465.256px"
       font-weight="200"
       stroke-width="0"
       fill="#33333"
       id="text3-0-3-6-4-3-4-3-7-8"
       x="257.78415"
       y="345.42685"
       style="font-style:normal;font-variant:normal;font-weight:300;font-stretch:normal;font-size:13.0774px;font-family:Montserrat;-inkscape-font-specification:'Montserrat Light'"
       transform="scale(0.99938968,1.0006107)"><tspan
         y="345.42685"
         font-weight="200"
         stroke-width="0"
         id="tspan1-4-8-3-6-9-9-9-7-0"
         style="font-style:normal;font-variant:normal;font-weight:300;font-stretch:normal;font-size:13.0774px;font-family:Montserrat;-inkscape-font-specification:'Montserrat Light'">ind</tspan></text>
    <rect
       style="fill:none;fill-opacity:1;stroke:#370188;stroke-width:3.07932;stroke-dasharray:none;stroke-opacity:1"
       id="rect45"
       width="260.44568"
       height="162.81441"
       x="11.62536"
       y="69.607529" />
    <path
       style="fill:none;fill-opacity:1;stroke:#370188;stroke-width:1;stroke-dasharray:none;stroke-opacity:1"
       d="M 4.0178988,239.22709 29.014525,263.76911 H 111.82183 L 86.123435,238.97355"
       id="path45"
       sodipodi:nodetypes="cccc"
       clip-path="url(#clipPath51)"
       transform="matrix(3.1749999,0,0,3.1749999,-1.5559681,-526.74293)" />
    <rect
       style="fill:none;fill-opacity:1;stroke:#370188;stroke-width:2.72808;stroke-dasharray:none;stroke-opacity:1"
       id="rect46"
       width="22.671923"
       height="8.9135904"
       x="130.0125"
       y="74.194458"
       ry="4.7624998"
       rx="4.7624998" />
    <rect
       style="fill:none;fill-opacity:1;stroke:#370188;stroke-width:3.27492;stroke-dasharray:none;stroke-opacity:1"
       id="rect47"
       width="250.72507"
       height="139.60007"
       x="16.485695"
       y="88.226158" />
    <path
       style="fill:#370188;fill-opacity:1;stroke:#370188;stroke-width:1;stroke-dasharray:none;stroke-opacity:1"
       d="m 9.6221563,240.99802 12.1788927,11.72185 h 75.20803 L 84.904202,241.07203 Z"
       id="path49"
       sodipodi:nodetypes="ccccc"
       clip-path="url(#clipPath50)"
       transform="matrix(3.1749999,0,0,3.1749999,-1.5559681,-526.74293)" />
    <path
       style="fill:none;fill-opacity:1;stroke:#370188;stroke-width:3.175;stroke-dasharray:none;stroke-opacity:1"
       d="m 251.17923,302.0834 -19.59,-19.59001 h -74.00667 l 19.55401,19.554 z"
       id="path50" />
    <text
       xml:space="preserve"
       transform="matrix(0.26458331,0,0,0.26458331,24.848801,-504.80975)"
       id="text53"
       style="font-style:normal;font-variant:normal;font-weight:bold;font-stretch:normal;font-size:48px;font-family:Montserrat;-inkscape-font-specification:'Montserrat Bold';text-align:start;letter-spacing:0px;word-spacing:0px;writing-mode:lr-tb;direction:ltr;white-space:pre;shape-inside:url(#rect53);display:inline;fill:none;fill-opacity:1;stroke:#370188;stroke-width:12;stroke-dasharray:none;stroke-opacity:1"
       x="-26.306301"
       y="0"><tspan
         x="143.04102"
         y="2448.9231"
         id="tspan2"><tspan
           style="font-weight:900;-inkscape-font-specification:'Montserrat Heavy';fill:#370188;stroke:none"
           id="tspan1">Animal Inc
</tspan></tspan><tspan
         x="143.04102"
         y="2508.9231"
         id="tspan4"><tspan
           style="font-weight:900;-inkscape-font-specification:'Montserrat Heavy';fill:#370188;stroke:none"
           id="tspan3">
</tspan></tspan></text>
    <text
       xml:space="preserve"
       transform="matrix(0.26458331,0,0,0.26458331,-6.7638924,-487.73991)"
       id="text57"
       style="font-style:normal;font-variant:normal;font-weight:bold;font-stretch:normal;font-size:48px;font-family:Montserrat;-inkscape-font-specification:'Montserrat Bold';text-align:start;letter-spacing:0px;word-spacing:0px;writing-mode:lr-tb;direction:ltr;white-space:pre;shape-inside:url(#rect57);display:inline;fill:#370188;fill-opacity:1;stroke:none;stroke-width:12;stroke-dasharray:none;stroke-opacity:1"><tspan
         x="112.28516"
         y="2487.2747"
         id="tspan5">We f*cked up. Sorry!</tspan></text>
    <g
       id="g1"
       transform="translate(9.6633523,-0.19812553)">
      <path
         style="fill:#ffffff;fill-opacity:1;fill-rule:nonzero;stroke:#370188;stroke-width:1;stroke-dasharray:none;stroke-opacity:1"
         d="m 143.51269,282.49435 c -21.0928,-20.98362 -5.49898,-43.68802 15.56513,-42.89624 20.74855,0.77995 33.35049,24.1032 14.0514,42.83837 3.18404,20.62684 8.32744,58.26054 8.78247,86.47219 -1.34773,7.71862 -13.35059,7.41699 -14.24062,-1.1867 -0.89005,-8.60371 -11.57614,-9.86463 -12.04417,-0.13828 -0.41589,8.64277 -14.30071,8.60437 -14.657,-0.15843 -2.09591,-14.41657 0.87809,-64.01481 2.54279,-84.93091 z"
         id="path49-6-5-8"
         sodipodi:nodetypes="csccssccc"
         clip-path="url(#clipPath3)"
         transform="matrix(3.1749999,0,0,3.1749999,-278.36793,-515.20362)" />
      <path
         style="fill:#ffffff;fill-opacity:1;fill-rule:nonzero;stroke:#370188;stroke-width:3.175;stroke-dasharray:none;stroke-opacity:1"
         d="m 173.12928,281.54324 c -101.864407,-38.39502 42.31297,-131.6402 31.3429,-14.88786"
         id="path67-0-9"
         sodipodi:nodetypes="cc" />
      <path
         style="fill:#ffffff;fill-opacity:1;fill-rule:nonzero;stroke:#370188;stroke-width:1;stroke-dasharray:none;stroke-opacity:1"
         d="m 173.83077,250.39355 c 32.08327,-12.09294 -13.32692,-41.46149 -9.87178,-4.6891"
         id="path67-5-6-1"
         sodipodi:nodetypes="cc"
         clip-path="url(#clipPath2)"
         transform="matrix(3.1749999,0,0,3.1749999,-278.36793,-515.20362)" />
    </g>
    <rect
       style="fill:#8bdefe;fill-opacity:1;stroke:#370188;stroke-width:3.175"
       id="rect6"
       width="31.119204"
       height="31.119204"
       x="24.43005"
       y="123.22927" />
    <g
       id="g2"
       clip-path="url(#clipPath5)"
       transform="matrix(0.228514,0,0,0.228514,-95.648868,100.27013)">
      <path
         id="path6-3-1-4-1"
         style="fill:#5c58fd;fill-opacity:1;stroke:#370188;stroke-width:3.175;stroke-dasharray:none"
         d="m 545.54068,163.33537 c 0,-4.2183 3.69877,-7.6749 7.9375,-7.6749 4.23873,0 7.9375,3.43617 7.9375,7.6749 v 0 c 0,-4.23873 3.69877,-7.6749 7.9375,-7.6749 4.23873,0 7.9375,3.43617 7.9375,7.6749 v 0 c 0,-4.23873 3.69877,-7.6749 7.9375,-7.6749 4.23873,0 7.9375,3.43617 7.9375,7.6749 v 0 c 0,-4.23873 3.69877,-7.6749 7.9375,-7.6749 4.23873,0 7.9375,3.43617 7.9375,7.6749 v 0 c 0,-4.23873 3.69877,-7.6749 7.9375,-7.6749 4.23873,0 7.9375,3.43617 7.9375,7.6749 v 0 c 0,-4.23873 3.69877,-7.6749 7.9375,-7.6749 4.23874,0 7.9375,3.43617 7.93651,7.6744 -9.9e-4,-25.62528 -22.00122,-46.39842 -47.62599,-46.39842 -25.62478,0 -47.62302,20.95542 -47.62302,46.39892 z"
         sodipodi:nodetypes="csccsccsccsccsccscsc" />
      <path
         style="fill:none;fill-opacity:1;stroke:#370188;stroke-width:3.175;stroke-dasharray:none"
         d="m 593.1637,116.93645 c 5.92832,0 31.75211,14.47804 31.75211,46.39892"
         id="path2"
         sodipodi:nodetypes="cc" />
      <path
         style="fill:none;fill-opacity:1;stroke:#370188;stroke-width:3.175;stroke-dasharray:none"
         d="m 593.1637,116.93645 c 5.92832,0 15.87444,26.5791 15.87444,46.34823"
         id="path2-1"
         sodipodi:nodetypes="cc" />
      <path
         style="fill:none;fill-opacity:1;stroke:#370188;stroke-width:3.175;stroke-dasharray:none"
         d="m 593.20655,116.93645 c -5.92833,0 -15.87445,26.57909 -15.87445,46.34822"
         id="path2-1-1"
         sodipodi:nodetypes="cc" />
      <path
         d="m 593.18566,116.92542 c -5.92833,0 -31.75212,14.47804 -31.75212,46.39892"
         style="fill:none;fill-opacity:1;stroke:#370188;stroke-width:3.175;stroke-dasharray:none"
         id="path1" />
      <path
         style="fill:none;fill-opacity:1;stroke:#370188;stroke-width:3.175;stroke-dasharray:none"
         d="m 593.15822,117.12473 v 43.50191"
         id="path3"
         sodipodi:nodetypes="cc" />
      <path
         style="fill:#fdb226;fill-opacity:1;fill-rule:nonzero;stroke:#370188;stroke-width:3.175;stroke-dasharray:none;stroke-opacity:1"
         d="m 590.65105,200.87937 c 3.5687,3.17218 18.59572,10.10546 22.16442,1.77848 3.5687,-8.32695 -14.68307,-21.37134 -23.01002,-20.97481 -8.32697,0.39649 -11.89564,8.32694 -11.89564,15.06782 0,6.74087 -7.53396,84.06263 -7.53396,84.06263 l 18.63649,21.01567 9.2951,-7.57472 -2.81652,-90.24369"
         id="path83"
         sodipodi:nodetypes="cssscccc" />
      <circle
         style="fill:#370188;fill-opacity:1;stroke:none;stroke-width:12.6211;stroke-dasharray:none;stroke-opacity:1"
         id="path9-5-7-5-2-3-8-3"
         cx="-597.28625"
         cy="170.11563"
         r="2.6458333"
         transform="scale(-1,1)" />
      <circle
         style="fill:#370188;fill-opacity:1;stroke:none;stroke-width:12.6211;stroke-dasharray:none;stroke-opacity:1"
         id="path9-5-7-5-2-3-8-8"
         cx="-589.08423"
         cy="170.64482"
         r="2.6458333"
         transform="scale(-1,1)" />
      <path
         style="fill:#fdb226;fill-opacity:1;fill-rule:nonzero;stroke:#370188;stroke-width:3.175;stroke-dasharray:none;stroke-opacity:1"
         d="m 612.65237,291.39262 c 0,0 16.79744,1.0955 18.98841,5.11226 2.19097,4.01678 3.28644,7.30323 -0.36516,9.12904 -3.65163,1.82582 -21.90966,-4.01679 -21.90966,-4.01679"
         id="path82-4" />
      <path
         style="fill:#fdb226;fill-opacity:1;fill-rule:nonzero;stroke:#370188;stroke-width:3.175;stroke-dasharray:none;stroke-opacity:1"
         d="m 601.44694,370.74298 c 0,0 4.10372,18.93538 0.0718,21.09854 -4.19938,2.25304 -6.71887,2.38369 -10.09862,0.0937 -2.54985,-1.7278 -0.65923,-22.26507 -0.65923,-22.26507"
         id="path82-2-5"
         sodipodi:nodetypes="cssc" />
      <path
         style="fill:#fdb226;fill-opacity:1;fill-rule:nonzero;stroke:#370188;stroke-width:3.175;stroke-dasharray:none;stroke-opacity:1"
         d="m 567.30436,370.65322 c 0,0 4.10371,18.93541 0.0718,21.09854 -4.19938,2.25305 -6.71887,2.3837 -10.09863,0.0937 -2.54984,-1.7278 -0.65922,-22.26506 -0.65922,-22.26506"
         id="path82-2-7-3"
         sodipodi:nodetypes="cssc" />
      <path
         style="fill:#fdb226;fill-opacity:1;fill-rule:nonzero;stroke:#370188;stroke-width:3.175;stroke-dasharray:none;stroke-opacity:1"
         d="m 557.77151,290.95069 c 0,0 -16.79743,1.09547 -18.9884,5.11226 -2.19097,4.01675 -3.28644,7.30323 0.36516,9.12901 3.65163,1.82582 21.90965,-4.01675 21.90965,-4.01675"
         id="path82-5-0" />
      <path
         style="fill:#885901;fill-opacity:1;fill-rule:nonzero;stroke:#370188;stroke-width:2.84831;stroke-dasharray:none;stroke-opacity:1"
         d="m 596.93114,273.22689 c -0.2267,1.95516 -4.30702,3.46218 -6.95151,1.31607 -2.64449,-2.14608 -3.91966,-9.97109 -3.17849,-14.33195 0.74117,-4.36083 3.38614,-9.26446 6.0391,-9.15651 2.653,0.10795 3.70717,2.20907 3.77305,6.54304 0.066,4.33394 0.54451,13.67418 0.31785,15.62935 z M 578.0798,257.87167 c -3.1042,0.76778 -4.79289,-2.98758 -4.61804,-6.328 0.17462,-3.34042 0.67212,-9.02913 0.94996,-13.43266 0.27781,-4.4035 2.18954,-7.29596 4.96214,-6.45862 2.77264,0.83735 2.98158,7.32816 2.87551,11.93886 -0.10605,4.6107 -1.06541,13.51264 -4.16957,14.28042 z m 17.84007,-23.08333 c 0.3121,3.24431 -2.74473,6.00783 -4.97704,5.58775 -2.23231,-0.42006 -3.06819,-2.98225 -3.53749,-7.36235 -0.46933,-4.38014 0.92437,-15.84125 3.88512,-17.25025 2.96075,-1.40901 3.73815,-0.64072 3.9525,3.17065 0.21431,3.81139 0.36461,12.60989 0.67691,15.8542 z m -20.25476,62.11208 c -3.55695,0.63389 -4.54047,-2.91726 -4.61806,-6.32797 -0.0775,-3.41071 -0.0222,-10.19238 0.41151,-13.20784 0.43253,-3.01542 3.59064,-4.28637 5.85962,-3.76072 2.26898,0.52568 4.35054,2.22393 4.84997,6.76786 0.49943,4.54396 -2.94615,15.89481 -6.50304,16.52867 z"
         id="path84"
         sodipodi:nodetypes="zzzzzzzzzzzzzzzzzzzzzzzz" />
      <path
         style="fill:#9a58fd;fill-opacity:1;fill-rule:nonzero;stroke:#370188;stroke-width:3.175;stroke-dasharray:none;stroke-opacity:1"
         d="m 564.58503,290.10576 -8.7904,57.84047 50.86547,-0.19177 -6.19332,-54.76129 c -12.30483,3.05038 -23.59758,1.43554 -35.88175,-2.88732 z"
         id="path56-7-2-0-7"
         sodipodi:nodetypes="ccccc" />
      <path
         style="fill:#0288bb;fill-opacity:1;fill-rule:nonzero;stroke:#370188;stroke-width:3.175;stroke-dasharray:none;stroke-opacity:1"
         d="m 609.79017,380.80957 -26.58288,0.41307 -3.29812,-15.55071 -3.43056,15.49146 -27.34976,-0.10287 8.4561,-44.42555 47.87284,0.13557 z"
         id="path55-9-6-4-6"
         sodipodi:nodetypes="cccccccc" />
      <path
         style="fill:none;fill-opacity:1;fill-rule:nonzero;stroke:#370188;stroke-width:3.175;stroke-dasharray:none;stroke-opacity:1"
         d="m 581.14996,366.81531 -4.89836,0.11049 1.97206,-17.41674"
         id="path71-3-2-4"
         sodipodi:nodetypes="ccc" />
      <path
         style="fill:#853200;fill-opacity:1;fill-rule:nonzero;stroke:#370188;stroke-width:3.175;stroke-dasharray:none;stroke-opacity:1"
         d="m 593.88253,184.89166 3.08337,-13.21444"
         id="path85" />
      <path
         style="fill:#853200;fill-opacity:1;fill-rule:nonzero;stroke:#370188;stroke-width:3.175;stroke-dasharray:none;stroke-opacity:1"
         d="M 589.10489,184.53597 V 172.20249"
         id="path86" />
      <path
         style="fill:#9a58fd;fill-opacity:1;fill-rule:nonzero;stroke:#370188;stroke-width:3.175;stroke-dasharray:none;stroke-opacity:1"
         d="m 595.96527,302.55408 19.46977,5.30993 4.56466,-20.02869 -19.65607,-5.30994 c -10.36006,6.2932 -20.84886,7.01421 -32.69803,-1.58365 l -20.02866,7.26621 4.28521,18.63134 17.88607,-6.24148"
         id="path87"
         sodipodi:nodetypes="cccccccc" />
      <path
         style="fill:none;fill-opacity:1;stroke:#370188;stroke-width:3.175;stroke-dasharray:none"
         d="m 625.02428,162.37586 -25.01575,21.97036 -19.79507,3.0454 -18.05485,-25.01576"
         id="path4"
         sodipodi:nodetypes="cccc" />
      <path
         style="fill:none;fill-opacity:1;stroke:#370188;stroke-width:3.19065;stroke-dasharray:none;stroke-opacity:1"
         d="m 601.41115,190.7346 c -0.72809,-2.64791 -5.038,-1.27031 -4.04287,1.23798"
         id="path32-7"
         sodipodi:nodetypes="cc" />
      <path
         style="fill:none;fill-opacity:1;stroke:#370188;stroke-width:3.19065;stroke-dasharray:none;stroke-opacity:1"
         d="m 593.82256,192.95372 c -0.72809,-2.64791 -5.038,-1.27031 -4.04287,1.23798"
         id="path32-7-2"
         sodipodi:nodetypes="cc" />
    </g>
    <path
       style="fill:none;fill-opacity:1;stroke:#370188;stroke-width:1.5875;stroke-dasharray:none"
       d="M 161.81836,174.01187 V 157.6852"
       id="path7" />
  </g>
</svg>
