<?xml version="1.0" encoding="UTF-8" standalone="no"?>
<!-- Created with Inkscape (http://www.inkscape.org/) -->

<svg
   width="1080"
   height="1350"
   viewBox="0 0 285.74999 357.1875"
   version="1.1"
   id="svg1"
   inkscape:version="1.4 (e7c3feb1, 2024-10-09)"
   sodipodi:docname="panel-00.svg"
   xmlns:inkscape="http://www.inkscape.org/namespaces/inkscape"
   xmlns:sodipodi="http://sodipodi.sourceforge.net/DTD/sodipodi-0.dtd"
   xmlns="http://www.w3.org/2000/svg"
   xmlns:svg="http://www.w3.org/2000/svg">
  <sodipodi:namedview
     id="namedview1"
     pagecolor="#ffffff"
     bordercolor="#000000"
     borderopacity="0.25"
     inkscape:showpageshadow="2"
     inkscape:pageopacity="0.0"
     inkscape:pagecheckerboard="0"
     inkscape:deskcolor="#d1d1d1"
     inkscape:document-units="px"
     inkscape:zoom="0.30174945"
     inkscape:cx="490.47314"
     inkscape:cy="328.08676"
     inkscape:window-width="1728"
     inkscape:window-height="1057"
     inkscape:window-x="2560"
     inkscape:window-y="355"
     inkscape:window-maximized="0"
     inkscape:current-layer="layer1"
     showguides="true" />
  <defs
     id="defs1">
    <rect
       x="337.60629"
       y="293.08679"
       width="868.13049"
       height="871.84045"
       id="rect26" />
    <rect
       x="358.01108"
       y="335.75131"
       width="877.4054"
       height="734.57196"
       id="rect25" />
    <rect
       x="418.44797"
       y="244.75258"
       width="748.0744"
       height="801.36731"
       id="rect16" />
    <clipPath
       clipPathUnits="userSpaceOnUse"
       id="clipPath32">
      <rect
         style="fill:none;fill-opacity:1;fill-rule:nonzero;stroke:#370188;stroke-width:3.175;stroke-dasharray:none;stroke-opacity:1"
         id="rect33"
         width="282.57498"
         height="354.01248"
         x="1.5875"
         y="15.875003" />
    </clipPath>
    <clipPath
       clipPathUnits="userSpaceOnUse"
       id="clipPath33">
      <rect
         style="fill:none;fill-opacity:1;fill-rule:nonzero;stroke:#370188;stroke-width:3.175;stroke-dasharray:none;stroke-opacity:1"
         id="rect34"
         width="282.57498"
         height="354.01248"
         x="1.5875"
         y="15.875003"
         transform="scale(-1,1)" />
    </clipPath>
    <clipPath
       clipPathUnits="userSpaceOnUse"
       id="clipPath34">
      <rect
         style="fill:none;fill-opacity:1;fill-rule:nonzero;stroke:#370188;stroke-width:3.175;stroke-dasharray:none;stroke-opacity:1"
         id="rect35"
         width="282.57498"
         height="354.01248"
         x="1.5875"
         y="15.875003" />
    </clipPath>
    <clipPath
       clipPathUnits="userSpaceOnUse"
       id="clipPath35">
      <rect
         style="fill:none;fill-opacity:1;fill-rule:nonzero;stroke:#370188;stroke-width:3.175;stroke-dasharray:none;stroke-opacity:1"
         id="rect36"
         width="282.57498"
         height="354.01248"
         x="1.5875"
         y="15.875003" />
    </clipPath>
    <clipPath
       clipPathUnits="userSpaceOnUse"
       id="clipPath1">
      <rect
         style="fill:none;fill-opacity:1;fill-rule:nonzero;stroke:#370188;stroke-width:0.695287;stroke-dasharray:none;stroke-opacity:1"
         id="rect2"
         width="61.880581"
         height="77.524551"
         x="-167.02388"
         y="-16.952217"
         transform="scale(-1,1)" />
    </clipPath>
  </defs>
  <g
     inkscape:label="Layer 1"
     inkscape:groupmode="layer"
     id="layer1">
    <rect
       style="fill:none;fill-opacity:1;stroke:#370188;stroke-width:4.23333;stroke-linecap:round;stroke-dasharray:none;stroke-opacity:1"
       id="rect37"
       width="259.29166"
       height="140.15659"
       x="13.758331"
       y="34.042046" />
    <text
       xml:space="preserve"
       transform="scale(0.26458333)"
       id="text16"
       style="font-style:normal;font-variant:normal;font-weight:bold;font-stretch:normal;font-size:60px;font-family:'Josefin Slab';-inkscape-font-specification:'Josefin Slab Bold';text-align:start;letter-spacing:0px;word-spacing:0px;writing-mode:lr-tb;direction:ltr;white-space:pre;shape-inside:url(#rect16);display:inline;fill:#000000;fill-opacity:0;stroke:#370188;stroke-width:12;stroke-opacity:1" />
    <text
       xml:space="preserve"
       transform="scale(0.26458333)"
       id="text25"
       style="font-style:normal;font-variant:normal;font-weight:bold;font-stretch:normal;font-size:60px;font-family:'Josefin Slab';-inkscape-font-specification:'Josefin Slab Bold';text-align:start;letter-spacing:0px;word-spacing:0px;writing-mode:lr-tb;direction:ltr;white-space:pre;shape-inside:url(#rect25);display:inline;fill:#000000;fill-opacity:0;stroke:#370188;stroke-width:12;stroke-opacity:1" />
    <text
       xml:space="preserve"
       transform="scale(0.26458333)"
       id="text26"
       style="font-style:normal;font-variant:normal;font-weight:bold;font-stretch:normal;font-size:60px;font-family:'Josefin Slab';-inkscape-font-specification:'Josefin Slab Bold';text-align:start;letter-spacing:0px;word-spacing:0px;writing-mode:lr-tb;direction:ltr;white-space:pre;shape-inside:url(#rect26);display:inline;fill:#000000;fill-opacity:0;stroke:#370188;stroke-width:12;stroke-opacity:1" />
    <rect
       width="9.8019896"
       height="15.875"
       rx="0"
       ry="0"
       fill="#6002ee"
       stroke-width="0"
       id="rect1-3-4-39-4-2-0-5-6"
       x="247.60098"
       y="332.84583" />
    <text
       font-family="Montserrat"
       font-size="618.11px"
       font-weight="200"
       stroke-width="0"
       fill="#33333"
       id="text3-0-3-0-0-5-3-3-2"
       x="248.33717"
       y="345.42685"
       style="font-style:normal;font-variant:normal;font-weight:300;font-stretch:normal;font-size:13.0774px;font-family:Montserrat;-inkscape-font-specification:'Montserrat Light'"
       transform="scale(0.99938968,1.0006107)"><tspan
         y="345.42685"
         font-weight="200"
         stroke-width="0"
         id="tspan1-4-8-6-2-1-2-5-9"
         style="font-style:normal;font-variant:normal;font-weight:300;font-stretch:normal;font-size:13.0774px;font-family:Montserrat;-inkscape-font-specification:'Montserrat Light'"><tspan
           style="font-style:normal;font-variant:normal;font-weight:300;font-stretch:normal;font-size:13.0774px;font-family:Montserrat;-inkscape-font-specification:'Montserrat Light';fill:#ffffff;fill-opacity:1;stroke-width:0"
           id="tspan3-6-3-13-5-2-1-6-6">k</tspan></tspan></text>
    <text
       dx="0"
       dy="0"
       font-family="Montserrat"
       font-size="465.256px"
       font-weight="200"
       stroke-width="0"
       fill="#33333"
       id="text3-0-3-6-8-4-0-8-9"
       x="195.17656"
       y="345.42685"
       style="font-style:normal;font-variant:normal;font-weight:300;font-stretch:normal;font-size:13.0774px;font-family:Montserrat;-inkscape-font-specification:'Montserrat Light'"
       transform="scale(0.99938968,1.0006107)"><tspan
         y="345.42685"
         font-weight="200"
         stroke-width="0"
         id="tspan1-4-8-3-9-0-0-6-9"
         style="font-style:normal;font-variant:normal;font-weight:300;font-stretch:normal;font-size:13.0774px;font-family:Montserrat;-inkscape-font-specification:'Montserrat Light'">product</tspan></text>
    <text
       font-family="Montserrat"
       font-size="465.256px"
       font-weight="200"
       stroke-width="0"
       fill="#33333"
       id="text3-0-3-6-4-3-4-3-7-8"
       x="257.78415"
       y="345.42685"
       style="font-style:normal;font-variant:normal;font-weight:300;font-stretch:normal;font-size:13.0774px;font-family:Montserrat;-inkscape-font-specification:'Montserrat Light'"
       transform="scale(0.99938968,1.0006107)"><tspan
         y="345.42685"
         font-weight="200"
         stroke-width="0"
         id="tspan1-4-8-3-6-9-9-9-7-0"
         style="font-style:normal;font-variant:normal;font-weight:300;font-stretch:normal;font-size:13.0774px;font-family:Montserrat;-inkscape-font-specification:'Montserrat Light'">ind</tspan></text>
    <path
       style="fill:#018816;fill-opacity:1;stroke:#370188;stroke-width:3.175;stroke-dasharray:none;stroke-opacity:1"
       d="m 36.984889,266.57104 -2.44821,35.65858 51.51866,1.38376 -2.02244,-39.59698 z"
       id="path25-4" />
    <path
       style="fill:#ffffff;fill-opacity:1;stroke:#370188;stroke-width:3.175;stroke-dasharray:none;stroke-opacity:1"
       d="m 20.323635,275.01885 c 0,15.83268 7.109174,26.92819 17.072324,33.28661 2.37049,1.51282 4.90258,2.75752 7.53891,3.73402 23.31663,8.63654 54.788081,-3.70364 54.763761,-37.02063 l -15.068041,15.50715 -15.15129,-6.5761 -19.95754,9.34238 -10.75537,-11.69092 -8.490209,5.14359 z"
       id="path1-8"
       sodipodi:nodetypes="cssccccccc" />
    <path
       style="fill:#370189;fill-opacity:1;stroke:#370188;stroke-width:0;stroke-dasharray:none;stroke-opacity:1"
       d="m 44.251639,310.35479 -3.82692,-5.27259 5.07117,2.35369 1.32626,-3.92795 0.37681,4.14213 4.16998,-3.19913 -2.57346,4.76485 5.63245,0.54648 -3.69281,2.899 z"
       id="path3-2"
       sodipodi:nodetypes="cccccccccc" />
    <path
       style="fill:#370189;fill-opacity:1;stroke:#370188;stroke-width:0;stroke-dasharray:none;stroke-opacity:1"
       d="m 75.396359,310.89114 3.03511,-5.32825 -4.74552,2.65567 -0.40824,-3.99876 -1.23583,4.49196 -4.72466,-1.3668 3.40941,3.17528 -4.7818,1.08258 4.5025,2.28216 z"
       id="path3-1-5"
       sodipodi:nodetypes="cccccccccc" />
    <path
       style="fill:#ee4302;fill-opacity:1;stroke:#370188;stroke-width:3.175;stroke-dasharray:none;stroke-opacity:1"
       d="m 44.845969,311.68486 c -0.0908,0.82798 -0.11081,10.87927 -0.11081,10.87927 l -7.65791,4.01428 9.17048,-1.55093 0.74286,0.90942 0.70028,-0.93298 8.75249,1.41577 -6.92598,-3.71139 c 0,0 0.0702,-8.9828 0.0127,-9.10428 z"
       id="path7-8"
       sodipodi:nodetypes="cccccccccc" />
    <path
       style="fill:#ee4302;fill-opacity:1;stroke:#370188;stroke-width:3.175;stroke-dasharray:none;stroke-opacity:1"
       d="m 74.884519,310.94696 0.34004,12.60688 7.87114,2.69119 -9.9795,-1.45316 -0.74285,0.90941 -0.70031,-0.93297 -9.07622,1.20135 7.41826,-3.10318 c 0,0 0.16637,-9.20293 0.17971,-9.394 z"
       id="path7-4-0"
       sodipodi:nodetypes="cccccccccc" />
    <path
       style="fill:#fdc458;fill-opacity:1;stroke:#370188;stroke-width:3.175;stroke-dasharray:none;stroke-opacity:1"
       d="m 33.700129,256.62484 c 0,0 -38.4727723,27.21073 6.95621,15.58833 z"
       id="path17-0"
       sodipodi:nodetypes="ccc" />
    <path
       style="fill:#fdc458;fill-opacity:1;stroke:#370188;stroke-width:3.175;stroke-dasharray:none;stroke-opacity:1"
       d="m 89.952649,257.66373 c 0,0 34.302301,21.19084 -7.53478,15.42339 z"
       id="path16-7"
       sodipodi:nodetypes="ccc" />
    <path
       style="fill:#fdc458;fill-opacity:1;stroke:#370188;stroke-width:3.175;stroke-dasharray:none;stroke-opacity:1"
       d="m 76.330759,242.86341 c 17.425961,-38.94192 -49.630835,-38.34514 -32.5915,0.64325 l 15.59274,7.69652 z"
       id="path23-5"
       sodipodi:nodetypes="cccc" />
    <path
       style="fill:#018816;fill-opacity:1;stroke:#370188;stroke-width:3.175;stroke-dasharray:none;stroke-opacity:1"
       d="m 42.698909,272.32607 -9.800306,4.04721 -6.621494,-19.13719 13.52252,-5.46456 -0.30576,-10.09068 c 14.73755,2.54163 25.85575,0.94063 40.36267,-0.91733 v 8.56177 l 14.322171,7.7724 -6.590701,18.69104 -9.53129,-3.85836"
       id="path12-0"
       sodipodi:nodetypes="cccccccccc" />
    <path
       style="fill:none;fill-opacity:1;stroke:#370188;stroke-width:3.175;stroke-dasharray:none;stroke-opacity:1"
       d="m 39.494509,251.57002 c 16.68306,23.49109 26.66987,22.63731 40.87123,-2.03873"
       id="path22-1"
       sodipodi:nodetypes="cc" />
    <path
       style="fill:none;fill-opacity:1;stroke:#370188;stroke-width:3.175;stroke-dasharray:none;stroke-opacity:1"
       d="m 60.138799,215.95973 c 5.40633,-4.70872 -5.05749,-5.05752 0.52321,-8.89426"
       id="path26-0"
       sodipodi:nodetypes="cc" />
    <text
       xml:space="preserve"
       style="font-style:normal;font-variant:normal;font-weight:normal;font-stretch:normal;font-size:19.05px;font-family:'Nanum Pen';-inkscape-font-specification:'Nanum Pen';text-align:center;letter-spacing:0px;word-spacing:0px;writing-mode:lr-tb;direction:ltr;text-anchor:middle;white-space:pre;inline-size:162.075;display:inline;fill:#370188;fill-opacity:1;stroke:none;stroke-width:1.5875;stroke-linecap:round;stroke-dasharray:none;stroke-opacity:1"
       x="23.771687"
       y="156.49693"
       id="text17"
       transform="translate(167.86244,40.881041)"><tspan
         x="23.771687"
         y="156.49693"
         id="tspan1">Okay, if the user clicks<tspan
   y="156.49693"
   id="tspan2"> </tspan></tspan><tspan
         x="23.771687"
         y="180.30944"
         id="tspan3">‘back’ then ‘refresh’<tspan
   y="180.30944"
   id="tspan4"> </tspan></tspan><tspan
         x="23.771687"
         y="204.12194"
         id="tspan5">then what happens?!</tspan></text>
    <rect
       style="fill:none;fill-opacity:1;fill-rule:nonzero;stroke:#370188;stroke-width:3.175;stroke-dasharray:none;stroke-opacity:1"
       id="rect113-4-2"
       width="282.57498"
       height="354.01248"
       x="1.5875"
       y="1.5875" />
    <path
       style="fill:#fe8b96;fill-opacity:1;stroke:#370188;stroke-width:3.175;stroke-linejoin:miter;stroke-dasharray:none;stroke-opacity:1"
       d="m 28.452779,63.235409 h 17.184687 v 10.108637 c 0,0 0.604298,3.170384 1.819561,5.054327 -5.23621,0.002 -14.970633,0.40207 -17.860105,0.0896 -1.276572,-2.194157 -1.548479,-5.548271 -1.548479,-5.548271 z"
       id="path2"
       sodipodi:nodetypes="ccccccc" />
    <path
       style="fill:#fe8b96;fill-opacity:1;stroke:#370188;stroke-width:3.175;stroke-linejoin:miter;stroke-dasharray:none;stroke-opacity:1"
       d="m 59.938179,123.29575 h 17.184687 v 10.10863 c 0,0 0.604298,3.17039 1.819561,5.05433 -5.23621,0.002 -14.970633,0.40207 -17.860105,0.0896 -1.276572,-2.19416 -1.548479,-5.54827 -1.548479,-5.54827 z"
       id="path2-0"
       sodipodi:nodetypes="ccccccc" />
    <path
       style="fill:#fe8b96;fill-opacity:1;stroke:#370188;stroke-width:3.175;stroke-linejoin:miter;stroke-dasharray:none;stroke-opacity:1"
       d="m 196.72778,74.612492 h 17.18469 v 10.108635 c 0,0 0.60429,3.170372 1.81956,5.054313 -5.23621,0.002 -14.97064,0.402067 -17.86011,0.0896 -1.27657,-2.194138 -1.54848,-5.54825 -1.54848,-5.54825 z"
       id="path2-09"
       sodipodi:nodetypes="ccccccc" />
    <path
       style="fill:#fe8b96;fill-opacity:1;stroke:#370188;stroke-width:3.175;stroke-linejoin:miter;stroke-dasharray:none;stroke-opacity:1"
       d="m 100.94868,66.674992 h 17.18469 v 10.108637 c 0,0 0.60429,3.170385 1.81956,5.054326 -5.23621,0.002 -14.97064,0.402067 -17.86011,0.0896 -1.27657,-2.194158 -1.54848,-5.54827 -1.54848,-5.54827 z"
       id="path2-02"
       sodipodi:nodetypes="ccccccc" />
    <path
       style="fill:#fe8b96;fill-opacity:1;stroke:#370188;stroke-width:3.175;stroke-linejoin:miter;stroke-dasharray:none;stroke-opacity:1"
       d="m 214.98408,145.25616 h 17.18469 v 10.10864 c 0,0 0.60429,3.17038 1.81956,5.05432 -5.23621,0.002 -14.97064,0.40208 -17.86011,0.0896 -1.27657,-2.19415 -1.54848,-5.54827 -1.54848,-5.54827 z"
       id="path2-8"
       sodipodi:nodetypes="ccccccc" />
    <path
       style="fill:#fe8b96;fill-opacity:1;stroke:#370188;stroke-width:3.175;stroke-linejoin:miter;stroke-dasharray:none;stroke-opacity:1"
       d="m 175.82577,121.70824 h 17.18469 v 10.10864 c 0,0 0.60429,3.17038 1.81956,5.05432 -5.23621,0.002 -14.97064,0.40208 -17.86011,0.0896 -1.27657,-2.19415 -1.54848,-5.54827 -1.54848,-5.54827 z"
       id="path2-8-9"
       sodipodi:nodetypes="ccccccc" />
    <path
       style="fill:#fe8b96;fill-opacity:1;stroke:#370188;stroke-width:3.175;stroke-linejoin:miter;stroke-dasharray:none;stroke-opacity:1"
       d="m 160.21535,76.19999 h 17.18469 v 10.108638 c 0,0 0.60429,3.170362 1.81956,5.054293 -5.23621,0.002 -14.97064,0.402077 -17.86011,0.0896 -1.27657,-2.194138 -1.54848,-5.54824 -1.54848,-5.54824 z"
       id="path2-8-3"
       sodipodi:nodetypes="ccccccc" />
    <path
       style="fill:#fe8b96;fill-opacity:1;stroke:#370188;stroke-width:3.175;stroke-linejoin:miter;stroke-dasharray:none;stroke-opacity:1"
       d="m 214.19035,43.127078 h 17.18469 v 10.10864 c 0,0 0.60429,3.17038 1.81956,5.05432 -5.23621,0.002 -14.97064,0.40208 -17.86011,0.0896 -1.27657,-2.19415 -1.54848,-5.54827 -1.54848,-5.54827 z"
       id="path2-8-4"
       sodipodi:nodetypes="ccccccc" />
    <path
       style="fill:#fe8b96;fill-opacity:1;stroke:#370188;stroke-width:3.175;stroke-linejoin:miter;stroke-dasharray:none;stroke-opacity:1"
       d="m 36.39035,103.18741 h 17.18469 v 10.10864 c 0,0 0.60429,3.17038 1.81956,5.05432 -5.23621,0.002 -14.97064,0.40208 -17.86011,0.0896 -1.27657,-2.19415 -1.54848,-5.54827 -1.54848,-5.54827 z"
       id="path2-8-0"
       sodipodi:nodetypes="ccccccc" />
    <path
       style="fill:#fe8b96;fill-opacity:1;stroke:#370188;stroke-width:3.175;stroke-linejoin:miter;stroke-dasharray:none;stroke-opacity:1"
       d="m 236.15073,63.235409 h 17.18469 v 10.108637 c 0,0 0.60429,3.170384 1.81956,5.054327 -5.23621,0.002 -14.97064,0.40207 -17.86011,0.0896 -1.27657,-2.194157 -1.54848,-5.548271 -1.54848,-5.548271 z"
       id="path2-1"
       sodipodi:nodetypes="ccccccc" />
    <path
       style="fill:#fe8b96;fill-opacity:1;stroke:#370188;stroke-width:3.175;stroke-linejoin:miter;stroke-dasharray:none;stroke-opacity:1"
       d="m 141.69448,106.89158 h 17.18469 v 10.10864 c 0,0 0.60429,3.17038 1.81956,5.05432 -5.23621,0.002 -14.97064,0.40207 -17.86011,0.0896 -1.27657,-2.19415 -1.54848,-5.54827 -1.54848,-5.54827 z"
       id="path2-17"
       sodipodi:nodetypes="ccccccc" />
    <path
       style="fill:#fed68b;fill-opacity:1;stroke:#370188;stroke-width:3.175;stroke-linejoin:miter;stroke-dasharray:none;stroke-opacity:1"
       d="m 68.669517,92.868692 h 17.184687 v 10.108598 c 0,0 0.604266,3.17039 1.81956,5.05433 -5.236209,0.002 -14.970632,0.40207 -17.860104,0.0896 -1.276572,-2.19416 -1.548479,-5.54827 -1.548479,-5.54827 z"
       id="path2-41"
       sodipodi:nodetypes="ccccccc" />
    <path
       style="fill:#fed68b;fill-opacity:1;stroke:#370188;stroke-width:3.175;stroke-linejoin:miter;stroke-dasharray:none;stroke-opacity:1"
       d="M 97.244511,92.868702 H 114.4292 V 102.9773 c 0,0 0.60426,3.17039 1.81956,5.05433 -5.23621,0.002 -14.97063,0.40207 -17.860106,0.0896 -1.276572,-2.19416 -1.548479,-5.54827 -1.548479,-5.54827 z"
       id="path2-41-07"
       sodipodi:nodetypes="ccccccc" />
    <path
       style="fill:#fed68b;fill-opacity:1;stroke:#370188;stroke-width:3.175;stroke-linejoin:miter;stroke-dasharray:none;stroke-opacity:1"
       d="m 85.073678,121.70824 h 17.184682 v 10.10864 c 0,0 0.60427,3.17039 1.81956,5.05433 -5.236204,0.002 -14.970627,0.40207 -17.860099,0.0896 -1.276572,-2.19416 -1.548479,-5.54827 -1.548479,-5.54827 z"
       id="path2-41-1"
       sodipodi:nodetypes="ccccccc" />
    <path
       style="fill:#fed68b;fill-opacity:1;stroke:#370188;stroke-width:3.175;stroke-linejoin:miter;stroke-dasharray:none;stroke-opacity:1"
       d="m 100.94868,42.197017 h 17.18468 v 10.10864 c 0,0 0.60427,3.17039 1.81956,5.05433 -5.2362,0.002 -14.97063,0.40207 -17.8601,0.0896 -1.27657,-2.19416 -1.54848,-5.54827 -1.54848,-5.54827 z"
       id="path2-41-87"
       sodipodi:nodetypes="ccccccc" />
    <path
       style="fill:#fed68b;fill-opacity:1;stroke:#370188;stroke-width:3.175;stroke-linejoin:miter;stroke-dasharray:none;stroke-opacity:1"
       d="m 137.46122,51.064567 h 17.18468 v 10.108641 c 0,0 0.60427,3.170383 1.81956,5.054324 -5.23621,0.0023 -14.97063,0.402072 -17.8601,0.0896 -1.27657,-2.194157 -1.54848,-5.548271 -1.54848,-5.548271 z"
       id="path2-41-6"
       sodipodi:nodetypes="ccccccc" />
    <path
       style="fill:#fed68b;fill-opacity:1;stroke:#370188;stroke-width:3.175;stroke-linejoin:miter;stroke-dasharray:none;stroke-opacity:1"
       d="m 194.08202,95.514517 h 17.18468 v 10.108613 c 0,0 0.60427,3.17038 1.81956,5.05432 -5.23621,0.002 -14.97063,0.40208 -17.8601,0.0896 -1.27657,-2.19416 -1.54848,-5.54827 -1.54848,-5.54827 z"
       id="path2-41-8"
       sodipodi:nodetypes="ccccccc" />
    <path
       style="fill:#fed68b;fill-opacity:1;stroke:#370188;stroke-width:3.175;stroke-linejoin:miter;stroke-dasharray:none;stroke-opacity:1"
       d="m 233.50492,89.42913 h 17.18468 v 10.108583 c 0,0 0.60427,3.170387 1.81956,5.054327 -5.23621,0.002 -14.97063,0.40207 -17.8601,0.0896 -1.27657,-2.19415 -1.54848,-5.548264 -1.54848,-5.548264 z"
       id="path2-41-4"
       sodipodi:nodetypes="ccccccc" />
    <path
       style="fill:#fed68b;fill-opacity:1;stroke:#370188;stroke-width:3.175;stroke-linejoin:miter;stroke-dasharray:none;stroke-opacity:1"
       d="m 244.88202,125.94157 h 17.18468 v 10.10864 c 0,0 0.60427,3.17039 1.81956,5.05433 -5.23621,0.002 -14.97063,0.40207 -17.8601,0.0896 -1.27657,-2.19415 -1.54848,-5.54827 -1.54848,-5.54827 z"
       id="path2-41-0"
       sodipodi:nodetypes="ccccccc" />
    <path
       style="fill:#fed68b;fill-opacity:1;stroke:#370188;stroke-width:3.175;stroke-linejoin:miter;stroke-dasharray:none;stroke-opacity:1"
       d="m 28.337382,140.88651 h 17.184687 v 10.10864 c 0,0 0.604266,3.17039 1.81956,5.05433 -5.236209,0.002 -14.970632,0.40207 -17.860104,0.0896 -1.276572,-2.19416 -1.548479,-5.54827 -1.548479,-5.54827 z"
       id="path2-41-43"
       sodipodi:nodetypes="ccccccc" />
    <path
       style="fill:#fed68b;fill-opacity:1;stroke:#370188;stroke-width:3.175;stroke-linejoin:miter;stroke-dasharray:none;stroke-opacity:1"
       d="m 187.99662,43.04047 h 17.18468 v 10.108641 c 0,0 0.60427,3.170383 1.81956,5.054324 -5.23621,0.0023 -14.97063,0.402072 -17.8601,0.0896 -1.27657,-2.194157 -1.54848,-5.548271 -1.54848,-5.548271 z"
       id="path2-41-64"
       sodipodi:nodetypes="ccccccc" />
    <path
       style="fill:#fed68b;fill-opacity:1;stroke:#370188;stroke-width:3.175;stroke-linejoin:miter;stroke-dasharray:none;stroke-opacity:1"
       d="m 64.171617,54.50415 h 17.184687 v 10.108641 c 0,0 0.604266,3.170383 1.81956,5.054324 -5.236209,0.0023 -14.970632,0.402072 -17.860104,0.0896 -1.276572,-2.194157 -1.548479,-5.548271 -1.548479,-5.548271 z"
       id="path2-41-81"
       sodipodi:nodetypes="ccccccc" />
    <path
       style="fill:none;fill-opacity:1;stroke:#370188;stroke-width:1.5875;stroke-linecap:round;stroke-dasharray:none;stroke-opacity:1"
       d="m 112.89781,261.01472 c 17.31088,-1.28985 73.82498,7.79364 74.8687,-6.59807"
       id="path13-1-4"
       sodipodi:nodetypes="cc" />
  </g>
</svg>
