<?xml version="1.0" encoding="UTF-8" standalone="no"?>
<!-- Created with Inkscape (http://www.inkscape.org/) -->

<svg
   width="1080"
   height="1350"
   viewBox="0 0 285.74999 357.1875"
   version="1.1"
   id="svg1"
   inkscape:version="1.4 (e7c3feb1, 2024-10-09)"
   sodipodi:docname="panel-01.svg"
   xmlns:inkscape="http://www.inkscape.org/namespaces/inkscape"
   xmlns:sodipodi="http://sodipodi.sourceforge.net/DTD/sodipodi-0.dtd"
   xmlns="http://www.w3.org/2000/svg"
   xmlns:svg="http://www.w3.org/2000/svg">
  <sodipodi:namedview
     id="namedview1"
     pagecolor="#ffffff"
     bordercolor="#000000"
     borderopacity="0.25"
     inkscape:showpageshadow="2"
     inkscape:pageopacity="0.0"
     inkscape:pagecheckerboard="0"
     inkscape:deskcolor="#d1d1d1"
     inkscape:document-units="px"
     inkscape:zoom="0.45443456"
     inkscape:cx="264.06443"
     inkscape:cy="972.6373"
     inkscape:window-width="1728"
     inkscape:window-height="1057"
     inkscape:window-x="2560"
     inkscape:window-y="355"
     inkscape:window-maximized="0"
     inkscape:current-layer="layer1"
     showguides="true" />
  <defs
     id="defs1">
    <rect
       x="337.60629"
       y="293.08679"
       width="868.13049"
       height="871.84045"
       id="rect26" />
    <rect
       x="358.01108"
       y="335.75131"
       width="877.4054"
       height="734.57196"
       id="rect25" />
    <rect
       x="418.44797"
       y="244.75258"
       width="748.0744"
       height="801.36731"
       id="rect16" />
    <clipPath
       clipPathUnits="userSpaceOnUse"
       id="clipPath32">
      <rect
         style="fill:none;fill-opacity:1;fill-rule:nonzero;stroke:#370188;stroke-width:3.175;stroke-dasharray:none;stroke-opacity:1"
         id="rect33"
         width="282.57498"
         height="354.01248"
         x="1.5875"
         y="15.875003" />
    </clipPath>
    <clipPath
       clipPathUnits="userSpaceOnUse"
       id="clipPath33">
      <rect
         style="fill:none;fill-opacity:1;fill-rule:nonzero;stroke:#370188;stroke-width:3.175;stroke-dasharray:none;stroke-opacity:1"
         id="rect34"
         width="282.57498"
         height="354.01248"
         x="1.5875"
         y="15.875003"
         transform="scale(-1,1)" />
    </clipPath>
    <clipPath
       clipPathUnits="userSpaceOnUse"
       id="clipPath34">
      <rect
         style="fill:none;fill-opacity:1;fill-rule:nonzero;stroke:#370188;stroke-width:3.175;stroke-dasharray:none;stroke-opacity:1"
         id="rect35"
         width="282.57498"
         height="354.01248"
         x="1.5875"
         y="15.875003" />
    </clipPath>
    <clipPath
       clipPathUnits="userSpaceOnUse"
       id="clipPath35">
      <rect
         style="fill:none;fill-opacity:1;fill-rule:nonzero;stroke:#370188;stroke-width:3.175;stroke-dasharray:none;stroke-opacity:1"
         id="rect36"
         width="282.57498"
         height="354.01248"
         x="1.5875"
         y="15.875003" />
    </clipPath>
    <clipPath
       clipPathUnits="userSpaceOnUse"
       id="clipPath1">
      <rect
         style="fill:none;fill-opacity:1;fill-rule:nonzero;stroke:#370188;stroke-width:0.695287;stroke-dasharray:none;stroke-opacity:1"
         id="rect2"
         width="61.880581"
         height="77.524551"
         x="-167.02388"
         y="-16.952217"
         transform="scale(-1,1)" />
    </clipPath>
    <clipPath
       clipPathUnits="userSpaceOnUse"
       id="clipPath2">
      <rect
         style="fill:none;fill-opacity:1;fill-rule:nonzero;stroke:#370188;stroke-width:3.175;stroke-dasharray:none;stroke-opacity:1"
         id="rect3"
         width="282.57498"
         height="354.01248"
         x="139.64767"
         y="-132.82672"
         transform="rotate(21.214416)" />
    </clipPath>
  </defs>
  <g
     inkscape:label="Layer 1"
     inkscape:groupmode="layer"
     id="layer1">
    <rect
       style="fill:none;fill-opacity:1;stroke:#370188;stroke-width:4.23333;stroke-linecap:round;stroke-dasharray:none;stroke-opacity:1"
       id="rect37"
       width="259.29166"
       height="140.15659"
       x="13.758331"
       y="34.042046" />
    <text
       xml:space="preserve"
       transform="scale(0.26458333)"
       id="text16"
       style="font-style:normal;font-variant:normal;font-weight:bold;font-stretch:normal;font-size:60px;font-family:'Josefin Slab';-inkscape-font-specification:'Josefin Slab Bold';text-align:start;letter-spacing:0px;word-spacing:0px;writing-mode:lr-tb;direction:ltr;white-space:pre;shape-inside:url(#rect16);display:inline;fill:#000000;fill-opacity:0;stroke:#370188;stroke-width:12;stroke-opacity:1" />
    <text
       xml:space="preserve"
       transform="scale(0.26458333)"
       id="text25"
       style="font-style:normal;font-variant:normal;font-weight:bold;font-stretch:normal;font-size:60px;font-family:'Josefin Slab';-inkscape-font-specification:'Josefin Slab Bold';text-align:start;letter-spacing:0px;word-spacing:0px;writing-mode:lr-tb;direction:ltr;white-space:pre;shape-inside:url(#rect25);display:inline;fill:#000000;fill-opacity:0;stroke:#370188;stroke-width:12;stroke-opacity:1" />
    <text
       xml:space="preserve"
       transform="scale(0.26458333)"
       id="text26"
       style="font-style:normal;font-variant:normal;font-weight:bold;font-stretch:normal;font-size:60px;font-family:'Josefin Slab';-inkscape-font-specification:'Josefin Slab Bold';text-align:start;letter-spacing:0px;word-spacing:0px;writing-mode:lr-tb;direction:ltr;white-space:pre;shape-inside:url(#rect26);display:inline;fill:#000000;fill-opacity:0;stroke:#370188;stroke-width:12;stroke-opacity:1" />
    <rect
       width="9.8019896"
       height="15.875"
       rx="0"
       ry="0"
       fill="#6002ee"
       stroke-width="0"
       id="rect1-3-4-39-4-2-0-5-6"
       x="247.60098"
       y="332.84583" />
    <text
       font-family="Montserrat"
       font-size="618.11px"
       font-weight="200"
       stroke-width="0"
       fill="#33333"
       id="text3-0-3-0-0-5-3-3-2"
       x="248.33717"
       y="345.42685"
       style="font-style:normal;font-variant:normal;font-weight:300;font-stretch:normal;font-size:13.0774px;font-family:Montserrat;-inkscape-font-specification:'Montserrat Light'"
       transform="scale(0.99938968,1.0006107)"><tspan
         y="345.42685"
         font-weight="200"
         stroke-width="0"
         id="tspan1-4-8-6-2-1-2-5-9"
         style="font-style:normal;font-variant:normal;font-weight:300;font-stretch:normal;font-size:13.0774px;font-family:Montserrat;-inkscape-font-specification:'Montserrat Light'"><tspan
           style="font-style:normal;font-variant:normal;font-weight:300;font-stretch:normal;font-size:13.0774px;font-family:Montserrat;-inkscape-font-specification:'Montserrat Light';fill:#ffffff;fill-opacity:1;stroke-width:0"
           id="tspan3-6-3-13-5-2-1-6-6">k</tspan></tspan></text>
    <text
       dx="0"
       dy="0"
       font-family="Montserrat"
       font-size="465.256px"
       font-weight="200"
       stroke-width="0"
       fill="#33333"
       id="text3-0-3-6-8-4-0-8-9"
       x="195.17656"
       y="345.42685"
       style="font-style:normal;font-variant:normal;font-weight:300;font-stretch:normal;font-size:13.0774px;font-family:Montserrat;-inkscape-font-specification:'Montserrat Light'"
       transform="scale(0.99938968,1.0006107)"><tspan
         y="345.42685"
         font-weight="200"
         stroke-width="0"
         id="tspan1-4-8-3-9-0-0-6-9"
         style="font-style:normal;font-variant:normal;font-weight:300;font-stretch:normal;font-size:13.0774px;font-family:Montserrat;-inkscape-font-specification:'Montserrat Light'">product</tspan></text>
    <text
       font-family="Montserrat"
       font-size="465.256px"
       font-weight="200"
       stroke-width="0"
       fill="#33333"
       id="text3-0-3-6-4-3-4-3-7-8"
       x="257.78415"
       y="345.42685"
       style="font-style:normal;font-variant:normal;font-weight:300;font-stretch:normal;font-size:13.0774px;font-family:Montserrat;-inkscape-font-specification:'Montserrat Light'"
       transform="scale(0.99938968,1.0006107)"><tspan
         y="345.42685"
         font-weight="200"
         stroke-width="0"
         id="tspan1-4-8-3-6-9-9-9-7-0"
         style="font-style:normal;font-variant:normal;font-weight:300;font-stretch:normal;font-size:13.0774px;font-family:Montserrat;-inkscape-font-specification:'Montserrat Light'">ind</tspan></text>
    <text
       xml:space="preserve"
       style="font-style:normal;font-variant:normal;font-weight:normal;font-stretch:normal;font-size:19.05px;font-family:'Nanum Pen';-inkscape-font-specification:'Nanum Pen';text-align:center;letter-spacing:0px;word-spacing:0px;writing-mode:lr-tb;direction:ltr;text-anchor:middle;white-space:pre;inline-size:162.075;display:inline;fill:#370188;fill-opacity:1;stroke:none;stroke-width:1.5875;stroke-linecap:round;stroke-dasharray:none;stroke-opacity:1"
       x="23.771687"
       y="156.49693"
       id="text17"
       transform="translate(119.53774,44.374393)"><tspan
         x="23.771687"
         y="156.49693"
         id="tspan1">Chick, don’t do this to<tspan
   y="156.49693"
   id="tspan2"> </tspan></tspan><tspan
         x="23.771687"
         y="180.30944"
         id="tspan3">yourself.</tspan></text>
    <path
       style="fill:#fe8b96;fill-opacity:1;stroke:#370188;stroke-width:3.175;stroke-linejoin:miter;stroke-dasharray:none;stroke-opacity:1"
       d="m 28.452779,63.235409 h 17.184687 v 10.108637 c 0,0 0.604298,3.170384 1.819561,5.054327 -5.23621,0.002 -14.970633,0.40207 -17.860105,0.0896 -1.276572,-2.194157 -1.548479,-5.548271 -1.548479,-5.548271 z"
       id="path2"
       sodipodi:nodetypes="ccccccc" />
    <path
       style="fill:#fe8b96;fill-opacity:1;stroke:#370188;stroke-width:3.175;stroke-linejoin:miter;stroke-dasharray:none;stroke-opacity:1"
       d="m 59.938179,123.29575 h 17.184687 v 10.10863 c 0,0 0.604298,3.17039 1.819561,5.05433 -5.23621,0.002 -14.970633,0.40207 -17.860105,0.0896 -1.276572,-2.19416 -1.548479,-5.54827 -1.548479,-5.54827 z"
       id="path2-0"
       sodipodi:nodetypes="ccccccc" />
    <path
       style="fill:#fe8b96;fill-opacity:1;stroke:#370188;stroke-width:3.175;stroke-linejoin:miter;stroke-dasharray:none;stroke-opacity:1"
       d="m 196.72778,74.612492 h 17.18469 v 10.108635 c 0,0 0.60429,3.170372 1.81956,5.054313 -5.23621,0.002 -14.97064,0.402067 -17.86011,0.0896 -1.27657,-2.194138 -1.54848,-5.54825 -1.54848,-5.54825 z"
       id="path2-09"
       sodipodi:nodetypes="ccccccc" />
    <path
       style="fill:#fe8b96;fill-opacity:1;stroke:#370188;stroke-width:3.175;stroke-linejoin:miter;stroke-dasharray:none;stroke-opacity:1"
       d="m 100.94868,66.674992 h 17.18469 v 10.108637 c 0,0 0.60429,3.170385 1.81956,5.054326 -5.23621,0.002 -14.97064,0.402067 -17.86011,0.0896 -1.27657,-2.194158 -1.54848,-5.54827 -1.54848,-5.54827 z"
       id="path2-02"
       sodipodi:nodetypes="ccccccc" />
    <path
       style="fill:#fe8b96;fill-opacity:1;stroke:#370188;stroke-width:3.175;stroke-linejoin:miter;stroke-dasharray:none;stroke-opacity:1"
       d="m 214.98408,145.25616 h 17.18469 v 10.10864 c 0,0 0.60429,3.17038 1.81956,5.05432 -5.23621,0.002 -14.97064,0.40208 -17.86011,0.0896 -1.27657,-2.19415 -1.54848,-5.54827 -1.54848,-5.54827 z"
       id="path2-8"
       sodipodi:nodetypes="ccccccc" />
    <path
       style="fill:#fe8b96;fill-opacity:1;stroke:#370188;stroke-width:3.175;stroke-linejoin:miter;stroke-dasharray:none;stroke-opacity:1"
       d="m 175.82577,121.70824 h 17.18469 v 10.10864 c 0,0 0.60429,3.17038 1.81956,5.05432 -5.23621,0.002 -14.97064,0.40208 -17.86011,0.0896 -1.27657,-2.19415 -1.54848,-5.54827 -1.54848,-5.54827 z"
       id="path2-8-9"
       sodipodi:nodetypes="ccccccc" />
    <path
       style="fill:#fe8b96;fill-opacity:1;stroke:#370188;stroke-width:3.175;stroke-linejoin:miter;stroke-dasharray:none;stroke-opacity:1"
       d="m 160.21535,76.19999 h 17.18469 v 10.108638 c 0,0 0.60429,3.170362 1.81956,5.054293 -5.23621,0.002 -14.97064,0.402077 -17.86011,0.0896 -1.27657,-2.194138 -1.54848,-5.54824 -1.54848,-5.54824 z"
       id="path2-8-3"
       sodipodi:nodetypes="ccccccc" />
    <path
       style="fill:#fe8b96;fill-opacity:1;stroke:#370188;stroke-width:3.175;stroke-linejoin:miter;stroke-dasharray:none;stroke-opacity:1"
       d="m 214.19035,43.127078 h 17.18469 v 10.10864 c 0,0 0.60429,3.17038 1.81956,5.05432 -5.23621,0.002 -14.97064,0.40208 -17.86011,0.0896 -1.27657,-2.19415 -1.54848,-5.54827 -1.54848,-5.54827 z"
       id="path2-8-4"
       sodipodi:nodetypes="ccccccc" />
    <path
       style="fill:#fe8b96;fill-opacity:1;stroke:#370188;stroke-width:3.175;stroke-linejoin:miter;stroke-dasharray:none;stroke-opacity:1"
       d="m 36.39035,103.18741 h 17.18469 v 10.10864 c 0,0 0.60429,3.17038 1.81956,5.05432 -5.23621,0.002 -14.97064,0.40208 -17.86011,0.0896 -1.27657,-2.19415 -1.54848,-5.54827 -1.54848,-5.54827 z"
       id="path2-8-0"
       sodipodi:nodetypes="ccccccc" />
    <path
       style="fill:#fe8b96;fill-opacity:1;stroke:#370188;stroke-width:3.175;stroke-linejoin:miter;stroke-dasharray:none;stroke-opacity:1"
       d="m 236.15073,63.235409 h 17.18469 v 10.108637 c 0,0 0.60429,3.170384 1.81956,5.054327 -5.23621,0.002 -14.97064,0.40207 -17.86011,0.0896 -1.27657,-2.194157 -1.54848,-5.548271 -1.54848,-5.548271 z"
       id="path2-1"
       sodipodi:nodetypes="ccccccc" />
    <path
       style="fill:#fe8b96;fill-opacity:1;stroke:#370188;stroke-width:3.175;stroke-linejoin:miter;stroke-dasharray:none;stroke-opacity:1"
       d="m 141.69448,106.89158 h 17.18469 v 10.10864 c 0,0 0.60429,3.17038 1.81956,5.05432 -5.23621,0.002 -14.97064,0.40207 -17.86011,0.0896 -1.27657,-2.19415 -1.54848,-5.54827 -1.54848,-5.54827 z"
       id="path2-17"
       sodipodi:nodetypes="ccccccc" />
    <path
       style="fill:#fed68b;fill-opacity:1;stroke:#370188;stroke-width:3.175;stroke-linejoin:miter;stroke-dasharray:none;stroke-opacity:1"
       d="m 68.669517,92.868692 h 17.184687 v 10.108598 c 0,0 0.604266,3.17039 1.81956,5.05433 -5.236209,0.002 -14.970632,0.40207 -17.860104,0.0896 -1.276572,-2.19416 -1.548479,-5.54827 -1.548479,-5.54827 z"
       id="path2-41"
       sodipodi:nodetypes="ccccccc" />
    <path
       style="fill:#fed68b;fill-opacity:1;stroke:#370188;stroke-width:3.175;stroke-linejoin:miter;stroke-dasharray:none;stroke-opacity:1"
       d="M 97.244511,92.868702 H 114.4292 V 102.9773 c 0,0 0.60426,3.17039 1.81956,5.05433 -5.23621,0.002 -14.97063,0.40207 -17.860106,0.0896 -1.276572,-2.19416 -1.548479,-5.54827 -1.548479,-5.54827 z"
       id="path2-41-07"
       sodipodi:nodetypes="ccccccc" />
    <path
       style="fill:#fed68b;fill-opacity:1;stroke:#370188;stroke-width:3.175;stroke-linejoin:miter;stroke-dasharray:none;stroke-opacity:1"
       d="m 85.073678,121.70824 h 17.184682 v 10.10864 c 0,0 0.60427,3.17039 1.81956,5.05433 -5.236204,0.002 -14.970627,0.40207 -17.860099,0.0896 -1.276572,-2.19416 -1.548479,-5.54827 -1.548479,-5.54827 z"
       id="path2-41-1"
       sodipodi:nodetypes="ccccccc" />
    <path
       style="fill:#fed68b;fill-opacity:1;stroke:#370188;stroke-width:3.175;stroke-linejoin:miter;stroke-dasharray:none;stroke-opacity:1"
       d="m 100.94868,42.197017 h 17.18468 v 10.10864 c 0,0 0.60427,3.17039 1.81956,5.05433 -5.2362,0.002 -14.97063,0.40207 -17.8601,0.0896 -1.27657,-2.19416 -1.54848,-5.54827 -1.54848,-5.54827 z"
       id="path2-41-87"
       sodipodi:nodetypes="ccccccc" />
    <path
       style="fill:#fed68b;fill-opacity:1;stroke:#370188;stroke-width:3.175;stroke-linejoin:miter;stroke-dasharray:none;stroke-opacity:1"
       d="m 137.46122,51.064567 h 17.18468 v 10.108641 c 0,0 0.60427,3.170383 1.81956,5.054324 -5.23621,0.0023 -14.97063,0.402072 -17.8601,0.0896 -1.27657,-2.194157 -1.54848,-5.548271 -1.54848,-5.548271 z"
       id="path2-41-6"
       sodipodi:nodetypes="ccccccc" />
    <path
       style="fill:#fed68b;fill-opacity:1;stroke:#370188;stroke-width:3.175;stroke-linejoin:miter;stroke-dasharray:none;stroke-opacity:1"
       d="m 194.08202,95.514517 h 17.18468 v 10.108613 c 0,0 0.60427,3.17038 1.81956,5.05432 -5.23621,0.002 -14.97063,0.40208 -17.8601,0.0896 -1.27657,-2.19416 -1.54848,-5.54827 -1.54848,-5.54827 z"
       id="path2-41-8"
       sodipodi:nodetypes="ccccccc" />
    <path
       style="fill:#fed68b;fill-opacity:1;stroke:#370188;stroke-width:3.175;stroke-linejoin:miter;stroke-dasharray:none;stroke-opacity:1"
       d="m 233.50492,89.42913 h 17.18468 v 10.108583 c 0,0 0.60427,3.170387 1.81956,5.054327 -5.23621,0.002 -14.97063,0.40207 -17.8601,0.0896 -1.27657,-2.19415 -1.54848,-5.548264 -1.54848,-5.548264 z"
       id="path2-41-4"
       sodipodi:nodetypes="ccccccc" />
    <path
       style="fill:#fed68b;fill-opacity:1;stroke:#370188;stroke-width:3.175;stroke-linejoin:miter;stroke-dasharray:none;stroke-opacity:1"
       d="m 244.88202,125.94157 h 17.18468 v 10.10864 c 0,0 0.60427,3.17039 1.81956,5.05433 -5.23621,0.002 -14.97063,0.40207 -17.8601,0.0896 -1.27657,-2.19415 -1.54848,-5.54827 -1.54848,-5.54827 z"
       id="path2-41-0"
       sodipodi:nodetypes="ccccccc" />
    <path
       style="fill:#fed68b;fill-opacity:1;stroke:#370188;stroke-width:3.175;stroke-linejoin:miter;stroke-dasharray:none;stroke-opacity:1"
       d="m 28.337382,140.88651 h 17.184687 v 10.10864 c 0,0 0.604266,3.17039 1.81956,5.05433 -5.236209,0.002 -14.970632,0.40207 -17.860104,0.0896 -1.276572,-2.19416 -1.548479,-5.54827 -1.548479,-5.54827 z"
       id="path2-41-43"
       sodipodi:nodetypes="ccccccc" />
    <path
       style="fill:#fed68b;fill-opacity:1;stroke:#370188;stroke-width:3.175;stroke-linejoin:miter;stroke-dasharray:none;stroke-opacity:1"
       d="m 187.99662,43.04047 h 17.18468 v 10.108641 c 0,0 0.60427,3.170383 1.81956,5.054324 -5.23621,0.0023 -14.97063,0.402072 -17.8601,0.0896 -1.27657,-2.194157 -1.54848,-5.548271 -1.54848,-5.548271 z"
       id="path2-41-64"
       sodipodi:nodetypes="ccccccc" />
    <path
       style="fill:#fed68b;fill-opacity:1;stroke:#370188;stroke-width:3.175;stroke-linejoin:miter;stroke-dasharray:none;stroke-opacity:1"
       d="m 64.171617,54.50415 h 17.184687 v 10.108641 c 0,0 0.604266,3.170383 1.81956,5.054324 -5.236209,0.0023 -14.970632,0.402072 -17.860104,0.0896 -1.276572,-2.194157 -1.548479,-5.548271 -1.548479,-5.548271 z"
       id="path2-41-81"
       sodipodi:nodetypes="ccccccc" />
    <path
       style="fill:none;fill-opacity:1;stroke:#370188;stroke-width:1.5875;stroke-linecap:round;stroke-dasharray:none;stroke-opacity:1"
       d="m 145.50243,236.56125 c 2.17302,13.26578 84.30503,14.19812 85.34875,-0.19359"
       id="path13-1-4"
       sodipodi:nodetypes="cc" />
    <g
       id="g1"
       transform="rotate(-21.214416,289.83823,435.80963)"
       clip-path="url(#clipPath2)">
      <path
         style="fill:#ffffff;fill-opacity:1;stroke:#370188;stroke-width:3.21643;stroke-dasharray:none;stroke-opacity:1"
         d="m 328.6566,238.84686 c -1.24358,8.17195 -13.4967,27.73728 -15.45088,31.82325 -1.95415,4.08597 3.22145,8.96309 6.77443,5.76539 3.55302,-3.19777 15.76829,-21.08607 17.36715,-27.30386"
         id="path5-1-2-1-7"
         sodipodi:nodetypes="cssc" />
      <path
         style="fill:#ffffff;fill-opacity:1;stroke:#370188;stroke-width:3.21643;stroke-dasharray:none;stroke-opacity:1"
         d="m 371.02265,281.08392 c 0.81687,6.53498 4.51006,21.22091 12.1399,30.13967 6.13109,7.16677 14.56271,8.4803 18.80835,10.80214 9.77519,5.34601 6.76901,14.03995 -1.93154,11.82475 -12.68041,-3.22847 -31.83633,-6.967 -30.95234,-15.8067"
         id="path2-4-2-5-8-3"
         sodipodi:nodetypes="csssc" />
      <path
         style="fill:#d858fd;fill-opacity:1;stroke:#370188;stroke-width:3.21643;stroke-dasharray:none;stroke-opacity:1"
         d="m 327.20943,244.96966 -14.44256,20.39693 11.14863,9.75506"
         id="path13-6-7-6-8"
         sodipodi:nodetypes="ccc" />
      <path
         style="fill:#ffffff;fill-opacity:1;stroke:#370188;stroke-width:3.21643;stroke-dasharray:none;stroke-opacity:1"
         d="m 323.50488,193.26057 c -2.98009,-3.66221 0.72158,-6.68728 3.80158,-2.51292"
         id="path15-0-5-6-6-1"
         sodipodi:nodetypes="cc" />
      <path
         style="fill:#ffffff;fill-opacity:1;stroke:#370188;stroke-width:3.21656;stroke-dasharray:none;stroke-opacity:1"
         d="m 344.32976,217.60497 c -9.26553,17.31194 -44.37713,6.82724 -30.47879,-11.94765 13.89834,-18.77498 19.2626,-20.4818 30.23495,-19.99418 10.97239,0.48771 19.64005,10.31735 20.72561,18.2873 1.42977,10.49709 3.3273,59.21102 5.76564,73.59704 1.99771,11.78674 -0.79394,34.08943 -2.08242,46.63332 -0.28416,2.76612 -0.49511,5.05771 -0.56556,6.6573 -0.44358,10.0706 -13.41428,10.82717 -14.14215,0.73152 -0.53937,-7.48017 -10.08545,-6.2115 -10.38755,0 -0.45123,9.27808 -13.78369,9.12607 -14.58449,-0.2613 -0.92951,-10.89466 -6.17163,-40.69924 -5.15074,-52.22005 0.97228,-10.97235 6.7672,-52.94937 6.7672,-52.94937 v 0"
         id="path1-2-4-7-1-7"
         sodipodi:nodetypes="csssssssssscc" />
      <circle
         style="fill:#370188;fill-opacity:1;stroke:#370188;stroke-width:0.804104;stroke-opacity:1"
         id="path3-29-2-0"
         cx="327.07806"
         cy="199.56404"
         r="1.5030103" />
      <circle
         style="fill:#370188;fill-opacity:1;stroke:#370188;stroke-width:0.804104;stroke-opacity:1"
         id="path3-3-5-9-1"
         cx="337.72498"
         cy="201.89799"
         r="1.5030103" />
      <path
         style="fill:#370188;fill-opacity:1;stroke:#370188;stroke-width:3.21643;stroke-dasharray:none;stroke-opacity:1"
         d="m 322.13702,211.11861 c 1.06385,-0.69009 5.0199,0.46523 5.52069,1.5527 0.46854,1.01736 -3.81838,3.16652 -4.54307,2.76034 -0.53051,-0.29718 -2.04153,-3.62296 -0.97762,-4.31304 z"
         id="path4-2-3-9-6"
         sodipodi:nodetypes="zssz" />
      <path
         style="fill:#d858fd;fill-opacity:1;stroke:#370188;stroke-width:3.21643;stroke-dasharray:none;stroke-opacity:1"
         d="m 370.35432,305.46925 c -0.34052,5.32857 -0.99514,27.69689 -0.99514,27.69689 l -19.1556,-0.58045 -1.99019,-5.97062 -1.74142,6.05349 -20.39947,0.58051 c 0,0 -0.21209,-19.99024 -0.66339,-29.02366 -0.45123,-9.03341 -3.11143,-13.35293 -1.94037,-25.16196 1.17107,-11.80907 5.49523,-45.01379 5.49523,-45.01379 l 5.28793,1.13319 4.91023,10.19816 4.15487,-10.38704 23.22922,-1.51086 c 0,0 1.73711,30.37409 4.16313,44.75871 2.42598,14.38449 0.33385,17.47355 0.12985,20.37635 -0.20415,2.90281 -0.14414,1.52251 -0.48472,6.85108 z"
         id="path14-0-7-8-2"
         sodipodi:nodetypes="zccccczzccccczzz" />
      <path
         style="fill:#ffffff;fill-opacity:1;stroke:#370188;stroke-width:3.21643;stroke-dasharray:none;stroke-opacity:1"
         d="m 367.62598,244.79272 c 0.6911,10.08986 -1.55305,30.37776 -1.96276,34.40325 -0.55286,5.43208 -7.64343,6.63438 -8.74919,0.13811 -1.10572,-6.49627 -1.55673,-27.26404 -1.55673,-27.26404"
         id="path6-86-3-4-3"
         sodipodi:nodetypes="cssc" />
      <path
         style="fill:#ffffff;fill-opacity:1;stroke:#370188;stroke-width:3.21643;stroke-dasharray:none;stroke-opacity:1"
         d="m 344.02303,234.13843 -4.17071,11.2469"
         id="path10-5-4-0-6-1"
         sodipodi:nodetypes="cc" />
      <path
         style="fill:#d858fd;fill-opacity:1;stroke:#370188;stroke-width:3.21643;stroke-dasharray:none;stroke-opacity:1"
         d="m 347.76997,244.11301 -3.07457,-8.95407 22.08107,-1.61388 2.6409,9.02313 z"
         id="path7-1-7-2-3-4"
         sodipodi:nodetypes="ccccc" />
      <path
         style="fill:#ffffff;fill-opacity:1;stroke:#370188;stroke-width:3.21643;stroke-dasharray:none;stroke-opacity:1"
         d="m 339.54161,245.66575 -5.09152,-11.52732"
         id="path9-9-9-5-8-8"
         sodipodi:nodetypes="cc" />
      <path
         style="fill:#d858fd;fill-opacity:1;stroke:#370188;stroke-width:3.21643;stroke-dasharray:none;stroke-opacity:1"
         d="m 328.84989,234.13189 5.11909,0.79594 -2.01381,9.07552 -6.3901,-1.8254 z"
         id="path8-9-5-7-9-9"
         sodipodi:nodetypes="ccccc" />
      <path
         style="fill:#d858fd;fill-opacity:1;stroke:#370188;stroke-width:3.21643;stroke-dasharray:none;stroke-opacity:1"
         d="m 352.32813,250.15853 0.75266,24.69109 15.03528,-3.05023 -0.69475,-27.08948"
         id="path12-2-2-7-8-2"
         sodipodi:nodetypes="cccc" />
      <path
         style="fill:#d858fd;fill-opacity:1;stroke:#370188;stroke-width:3.21643;stroke-dasharray:none;stroke-opacity:1"
         d="m 339.63832,245.19702 c 0,0 -1.32988,28.23528 -1.43218,31.202 -0.10255,2.96675 1.85966,33.12029 1.85966,33.12029 l 5.23132,-0.403"
         id="path11-7-9-4-2-3"
         sodipodi:nodetypes="csc" />
      <circle
         style="fill:#370188;fill-opacity:1;stroke:#370188;stroke-width:0.804104;stroke-opacity:1"
         id="path3-3-6-16-4-6-1"
         r="0.76141715"
         cy="253.8161"
         cx="343.30875"
         inkscape:transform-center-x="2.5670641"
         inkscape:transform-center-y="-5.6852825e-06" />
      <circle
         style="fill:#370188;fill-opacity:1;stroke:#370188;stroke-width:0.804104;stroke-opacity:1"
         id="path3-3-6-9-41-1-0-5"
         r="0.76141715"
         cy="263.94464"
         cx="342.82156"
         inkscape:transform-center-x="2.5670306"
         inkscape:transform-center-y="-3.6976775e-06" />
      <circle
         style="fill:#370188;fill-opacity:1;stroke:#370188;stroke-width:0.804104;stroke-opacity:1"
         id="path3-3-6-2-6-2-9-0"
         r="0.76141715"
         cy="273.37152"
         cx="342.34058"
         inkscape:transform-center-x="2.567051"
         inkscape:transform-center-y="7.9723223e-06" />
      <circle
         style="fill:#370188;fill-opacity:1;stroke:#370188;stroke-width:0.804104;stroke-opacity:1"
         id="path3-3-6-1-3-7-6-7"
         r="0.76141715"
         cy="283.16312"
         cx="342.50568"
         inkscape:transform-center-x="2.5670693"
         inkscape:transform-center-y="1.4437816e-05" />
      <circle
         style="fill:#370188;fill-opacity:1;stroke:#370188;stroke-width:0.804104;stroke-opacity:1"
         id="path3-3-6-6-9-8-5-4"
         r="0.76141715"
         cy="293.30063"
         cx="343.07852"
         inkscape:transform-center-x="2.567042"
         inkscape:transform-center-y="-8.241693e-06" />
      <circle
         style="fill:#370188;fill-opacity:1;stroke:#370188;stroke-width:0.804104;stroke-opacity:1"
         id="path3-3-6-60-59-6-9-2"
         r="0.76141715"
         cy="303.095"
         cx="343.64941"
         inkscape:transform-center-x="2.5670372"
         inkscape:transform-center-y="-1.4574684e-05" />
      <path
         style="fill:#ffffff;fill-opacity:1;stroke:#370188;stroke-width:3.21643;stroke-dasharray:none;stroke-opacity:1"
         d="m 351.1302,197.62482 c 3.37258,-3.08898 6.1441,1.80683 3.08896,3.72209"
         id="path15-1-0-5-7"
         sodipodi:nodetypes="cc" />
    </g>
    <rect
       style="fill:none;fill-opacity:1;fill-rule:nonzero;stroke:#370188;stroke-width:3.175;stroke-dasharray:none;stroke-opacity:1"
       id="rect113-4-2"
       width="282.57498"
       height="354.01248"
       x="1.5875"
       y="1.5875" />
    <path
       style="fill:#018816;fill-opacity:1;stroke:#370188;stroke-width:3.175;stroke-dasharray:none;stroke-opacity:1"
       d="m 28.546272,268.92474 -2.44821,35.65858 51.51866,1.38376 -2.02245,-39.59697 z"
       id="path25-4-8" />
    <path
       style="fill:#ffffff;fill-opacity:1;stroke:#370188;stroke-width:3.175;stroke-dasharray:none;stroke-opacity:1"
       d="m 11.885012,277.37256 c 0,15.83268 7.10918,26.92819 17.07233,33.2866 2.37048,1.51283 4.90258,2.75752 7.53891,3.73403 23.31662,8.63653 54.78808,-3.70364 54.76376,-37.02063 l -15.06804,15.50714 -15.15129,-6.57609 -19.95754,9.34238 -10.75538,-11.69093 -8.4902,5.1436 z"
       id="path1-8-4"
       sodipodi:nodetypes="cssccccccc" />
    <path
       style="fill:#370189;fill-opacity:1;stroke:#370188;stroke-width:0;stroke-dasharray:none;stroke-opacity:1"
       d="m 35.813022,312.7085 -3.82693,-5.2726 5.07118,2.35369 1.32626,-3.92795 0.37681,4.14214 4.16998,-3.19913 -2.57346,4.76485 5.63245,0.54648 -3.69282,2.899 z"
       id="path3-2-7"
       sodipodi:nodetypes="cccccccccc" />
    <path
       style="fill:#370189;fill-opacity:1;stroke:#370188;stroke-width:0;stroke-dasharray:none;stroke-opacity:1"
       d="m 66.957732,313.24485 3.03511,-5.32825 -4.74551,2.65566 -0.40824,-3.99875 -1.23584,4.49196 -4.72465,-1.36681 3.40941,3.17529 -4.78181,1.08258 4.5025,2.28216 z"
       id="path3-1-5-7"
       sodipodi:nodetypes="cccccccccc" />
    <path
       style="fill:#ee4302;fill-opacity:1;stroke:#370188;stroke-width:3.175;stroke-dasharray:none;stroke-opacity:1"
       d="m 36.407352,314.03857 c -0.0908,0.82798 -0.11081,10.87926 -0.11081,10.87926 l -7.65791,4.01428 9.17048,-1.55092 0.74285,0.90941 0.70028,-0.93297 8.75249,1.41576 -6.92598,-3.71138 c 0,0 0.0702,-8.9828 0.0127,-9.10428 z"
       id="path7-8-1"
       sodipodi:nodetypes="cccccccccc" />
    <path
       style="fill:#ee4302;fill-opacity:1;stroke:#370188;stroke-width:3.175;stroke-dasharray:none;stroke-opacity:1"
       d="m 66.445892,313.30067 0.34005,12.60687 7.87114,2.6912 -9.9795,-1.45317 -0.74286,0.90942 -0.70031,-0.93298 -9.07621,1.20136 7.41826,-3.10318 c 0,0 0.16637,-9.20293 0.1797,-9.394 z"
       id="path7-4-0-2"
       sodipodi:nodetypes="cccccccccc" />
    <path
       style="fill:none;fill-opacity:1;stroke:#370188;stroke-width:3.175;stroke-dasharray:none;stroke-opacity:1"
       d="m 36.905502,289.72093 3.90573,-9.47852 22.30545,-0.053 3.05492,7.69032"
       id="path19-60"
       sodipodi:nodetypes="cccc" />
    <path
       style="fill:#fdc458;fill-opacity:1;stroke:#370188;stroke-width:3.175;stroke-dasharray:none;stroke-opacity:1"
       d="m 25.261512,258.97855 c 0,0 -38.47278,27.21073 6.9562,15.58833 z"
       id="path17-0-8"
       sodipodi:nodetypes="ccc" />
    <path
       style="fill:#fdc458;fill-opacity:1;stroke:#370188;stroke-width:3.175;stroke-dasharray:none;stroke-opacity:1"
       d="m 81.514032,260.01744 c 0,0 34.302288,21.19084 -7.53478,15.42339 z"
       id="path16-7-7"
       sodipodi:nodetypes="ccc" />
    <path
       style="fill:#fdc458;fill-opacity:1;stroke:#370188;stroke-width:3.175;stroke-dasharray:none;stroke-opacity:1"
       d="m 67.892142,245.21711 c 17.42595,-38.94191 -49.63084,-38.34514 -32.5915,0.64326 l 15.59274,7.69652 z"
       id="path23-5-4"
       sodipodi:nodetypes="cccc" />
    <path
       style="fill:#018816;fill-opacity:1;stroke:#370188;stroke-width:3.175;stroke-dasharray:none;stroke-opacity:1"
       d="m 34.260282,274.67978 -9.8003,4.0472 -6.62149,-19.13718 13.52251,-5.46456 -0.30575,-10.09069 19.87556,9.57891 20.4871,-10.49623 v 8.56177 l 14.32217,7.7724 -6.5907,18.69103 -9.53128,-3.85835"
       id="path12-0-2"
       sodipodi:nodetypes="ccccccccccc" />
    <circle
       style="fill:#370188;fill-opacity:1;stroke:none;stroke-width:8.13508;stroke-dasharray:none;stroke-opacity:1"
       id="path9-8"
       cx="45.631264"
       cy="230.25415"
       r="1.7054044" />
    <circle
       style="fill:#370188;fill-opacity:1;stroke:none;stroke-width:8.13508;stroke-dasharray:none;stroke-opacity:1"
       id="path9-4"
       cx="58.127892"
       cy="230.33926"
       r="1.7054044" />
    <path
       style="fill:none;fill-opacity:1;stroke:#370188;stroke-width:3.175;stroke-dasharray:none;stroke-opacity:1"
       d="m 31.055882,253.92372 19.87493,4.48241 20.99631,-6.52114"
       id="path22-1-6"
       sodipodi:nodetypes="ccc" />
    <path
       style="fill:none;fill-opacity:1;stroke:#370188;stroke-width:3.175;stroke-dasharray:none;stroke-opacity:1"
       d="m 41.749222,252.97678 -3.37312,20.3066"
       id="path10-79"
       sodipodi:nodetypes="cc" />
    <path
       style="fill:none;fill-opacity:1;stroke:#370188;stroke-width:3.175;stroke-dasharray:none;stroke-opacity:1"
       d="m 59.189112,252.47037 2.50114,20.97738"
       id="path11-71"
       sodipodi:nodetypes="cc" />
    <path
       style="fill:none;fill-opacity:1;stroke:#370188;stroke-width:3.175;stroke-dasharray:none;stroke-opacity:1"
       d="m 50.585882,235.38182 5.98275,3.09451 -7.22056,3.30086"
       id="path24-70" />
    <path
       style="fill:none;fill-opacity:1;stroke:#370188;stroke-width:3.175;stroke-dasharray:none;stroke-opacity:1"
       d="m 51.700182,218.31343 c 5.40632,-4.70871 -5.05749,-5.05752 0.52321,-8.89425"
       id="path26-0-5"
       sodipodi:nodetypes="cc" />
  </g>
</svg>
