<?xml version="1.0" encoding="UTF-8" standalone="no"?>
<!-- Created with Inkscape (http://www.inkscape.org/) -->

<svg
   width="1920"
   height="1080"
   viewBox="0 0 1920 1080"
   version="1.1"
   id="svg1"
   inkscape:version="1.4 (e7c3feb1, 2024-10-09)"
   sodipodi:docname="slicing-3.svg"
   inkscape:export-filename="/Users/eggdice/Projects/little-parrot-awakens/public/courses/vibe-coding-product-management-00/slicing-3.png"
   inkscape:export-xdpi="96"
   inkscape:export-ydpi="96"
   xmlns:inkscape="http://www.inkscape.org/namespaces/inkscape"
   xmlns:sodipodi="http://sodipodi.sourceforge.net/DTD/sodipodi-0.dtd"
   xmlns="http://www.w3.org/2000/svg"
   xmlns:svg="http://www.w3.org/2000/svg">
  <sodipodi:namedview
     id="namedview1"
     pagecolor="#ffffff"
     bordercolor="#000000"
     borderopacity="0.25"
     inkscape:showpageshadow="2"
     inkscape:pageopacity="0.0"
     inkscape:pagecheckerboard="0"
     inkscape:deskcolor="#d1d1d1"
     inkscape:document-units="px"
     inkscape:zoom="0.29273707"
     inkscape:cx="416.75624"
     inkscape:cy="809.60023"
     inkscape:window-width="1728"
     inkscape:window-height="1057"
     inkscape:window-x="0"
     inkscape:window-y="32"
     inkscape:window-maximized="0"
     inkscape:current-layer="layer1"
     inkscape:export-bgcolor="#ffffffff" />
  <defs
     id="defs1">
    <rect
       x="222.65923"
       y="-318.08461"
       width="216.83311"
       height="211.67621"
       id="rect3" />
    <rect
       x="222.65923"
       y="-318.08463"
       width="216.83311"
       height="211.67621"
       id="rect3-1" />
    <rect
       x="222.65923"
       y="-318.08463"
       width="216.83311"
       height="211.67621"
       id="rect3-9" />
  </defs>
  <g
     inkscape:label="Layer 1"
     inkscape:groupmode="layer"
     id="layer1">
    <path
       style="fill:#ff2e6f;fill-opacity:1;stroke:none;stroke-width:10.0872;stroke-linecap:round;stroke-opacity:1"
       d="m 54.857527,522.59273 70.890903,2.90834 0.72708,-41.08037 3.27189,0.36355 54.53147,57.80336 -53.80438,56.34918 -5.45315,1.45417 -1.81771,-39.26267 -70.890906,0.36356 z"
       id="path3" />
    <rect
       style="fill:none;fill-opacity:1;stroke:#080809;stroke-width:12;stroke-linecap:round;stroke-dasharray:none;stroke-opacity:1"
       id="rect10"
       width="1908"
       height="1068"
       x="6"
       y="6" />
    <path
       style="fill:#cee6ff;fill-opacity:1;stroke:#080809;stroke-width:21.768;stroke-linejoin:miter;stroke-dasharray:none;stroke-opacity:1"
       d="m 222.43866,118.62453 h 117.81939 v 69.30544 c 0,0 4.14311,21.73646 12.47504,34.65273 -35.89981,0.0163 -102.63968,2.7567 -122.45009,0.61384 -8.75227,-15.0432 -10.61649,-38.03916 -10.61649,-38.03916 z"
       id="path2-4"
       sodipodi:nodetypes="ccccccc"
       inkscape:label="postit-pink" />
    <path
       style="fill:#cee6ff;fill-opacity:1;stroke:#080809;stroke-width:21.768;stroke-linejoin:miter;stroke-dasharray:none;stroke-opacity:1"
       d="M 666.61373,118.62453 H 784.4332 v 69.30545 c 0,0 4.14305,21.73645 12.47501,34.65272 -35.89983,0.0163 -102.63975,2.7567 -122.45009,0.61384 -8.7523,-15.04323 -10.61655,-38.03917 -10.61655,-38.03917 z"
       id="path2-4-2"
       sodipodi:nodetypes="ccccccc"
       inkscape:label="postit-pink" />
    <path
       style="fill:#cee6ff;fill-opacity:1;stroke:#080809;stroke-width:21.768;stroke-linejoin:miter;stroke-dasharray:none;stroke-opacity:1"
       d="m 888.70119,118.62452 h 117.81951 v 69.30545 c 0,0 4.1431,21.73649 12.4749,34.65275 -35.8998,0.0164 -102.63961,2.75671 -122.45014,0.61385 -8.75217,-15.04319 -10.61643,-38.03914 -10.61643,-38.03914 z"
       id="path2-4-7"
       sodipodi:nodetypes="ccccccc"
       inkscape:label="postit-pink" />
    <path
       style="fill:#ffacb8;fill-opacity:1;stroke:#080809;stroke-width:21.768;stroke-linejoin:miter;stroke-dasharray:none;stroke-opacity:1"
       d="m 228.13915,309.90581 h 117.81938 v 69.30543 c 0,0 4.1431,21.73646 12.47502,34.65274 -35.8998,0.0163 -102.63966,2.75669 -122.45009,0.61383 -8.75226,-15.0432 -10.61648,-38.03915 -10.61648,-38.03915 z"
       id="path2-4-0"
       sodipodi:nodetypes="ccccccc"
       inkscape:label="postit-pink" />
    <path
       style="fill:#ffacb8;fill-opacity:1;stroke:#080809;stroke-width:21.768;stroke-linejoin:miter;stroke-dasharray:none;stroke-opacity:1"
       d="m 450.22669,309.90581 h 117.8194 v 69.30544 c 0,0 4.1431,21.73645 12.47502,34.65273 -35.89981,0.0163 -102.63968,2.75669 -122.45009,0.61386 -8.75226,-15.04323 -10.61648,-38.03918 -10.61648,-38.03918 z"
       id="path2-4-5-0"
       sodipodi:nodetypes="ccccccc"
       inkscape:label="postit-pink" />
    <path
       style="fill:#ffacb8;fill-opacity:1;stroke:#080809;stroke-width:21.768;stroke-linejoin:miter;stroke-dasharray:none;stroke-opacity:1"
       d="m 672.31425,309.90581 h 117.81934 v 69.30544 c 0,0 4.14318,21.73645 12.47501,34.65273 -35.89971,0.0163 -102.63963,2.75669 -122.45009,0.61383 -8.75217,-15.04322 -10.61644,-38.03916 -10.61644,-38.03916 z"
       id="path2-4-2-1"
       sodipodi:nodetypes="ccccccc"
       inkscape:label="postit-pink" />
    <path
       style="fill:#ffacb8;fill-opacity:1;stroke:#080809;stroke-width:21.768;stroke-linejoin:miter;stroke-dasharray:none;stroke-opacity:1"
       d="m 894.40172,309.90579 h 117.81948 v 69.30545 c 0,0 4.1431,21.73648 12.475,34.65276 -35.8998,0.0163 -102.6396,2.7567 -122.4502,0.61384 -8.75219,-15.04319 -10.61645,-38.03914 -10.61645,-38.03914 z"
       id="path2-4-7-0"
       sodipodi:nodetypes="ccccccc"
       inkscape:label="postit-pink" />
    <path
       style="fill:#ffacb8;fill-opacity:1;stroke:#080809;stroke-width:21.768;stroke-linejoin:miter;stroke-dasharray:none;stroke-opacity:1"
       d="m 1116.4895,309.90581 h 117.8193 v 69.30544 c 0,0 4.1432,21.73645 12.475,34.65273 -35.8997,0.0163 -102.6395,2.75669 -122.4501,0.61386 -8.7521,-15.04323 -10.6164,-38.03918 -10.6164,-38.03918 z"
       id="path2-4-3-3"
       sodipodi:nodetypes="ccccccc"
       inkscape:label="postit-pink" />
    <path
       style="fill:#ffe08b;fill-opacity:1;stroke:#080809;stroke-width:21.768;stroke-linejoin:miter;stroke-dasharray:none;stroke-opacity:1"
       d="m 231.77287,498.34986 h 117.81938 v 69.30544 c 0,0 4.1431,21.73646 12.47504,34.65273 -35.89982,0.0163 -102.63968,2.75672 -122.45011,0.61385 -8.75226,-15.04321 -10.61648,-38.03916 -10.61648,-38.03916 z"
       id="path2-4-0-4"
       sodipodi:nodetypes="ccccccc"
       inkscape:label="postit-pink" />
    <path
       style="fill:#ffe08b;fill-opacity:1;stroke:#080809;stroke-width:21.768;stroke-linejoin:miter;stroke-dasharray:none;stroke-opacity:1"
       d="M 453.86041,498.34986 H 571.6798 v 69.30545 c 0,0 4.1431,21.73645 12.47504,34.65272 -35.89982,0.0163 -102.63968,2.75672 -122.4501,0.61387 -8.75226,-15.04323 -10.61649,-38.03918 -10.61649,-38.03918 z"
       id="path2-4-5-0-0"
       sodipodi:nodetypes="ccccccc"
       inkscape:label="postit-pink" />
    <path
       style="fill:#ffe08b;fill-opacity:1;stroke:#080809;stroke-width:21.768;stroke-linejoin:miter;stroke-dasharray:none;stroke-opacity:1"
       d="m 681.2494,861.49646 h 117.81934 v 69.30545 c 0,0 4.14319,21.73645 12.47501,34.65272 -35.89982,0.0163 -102.63962,2.75672 -122.45007,0.61385 -8.75231,-15.04322 -10.61644,-38.03918 -10.61644,-38.03918 z"
       id="path2-4-2-1-9"
       sodipodi:nodetypes="ccccccc"
       inkscape:label="postit-pink" />
    <path
       style="fill:#ffe08b;fill-opacity:1;stroke:#080809;stroke-width:21.768;stroke-linejoin:miter;stroke-dasharray:none;stroke-opacity:1"
       d="m 898.03534,498.34985 h 117.81946 v 69.30545 c 0,0 4.1431,21.73648 12.4751,34.65275 -35.8999,0.0164 -102.6397,2.75671 -122.45031,0.61385 -8.75216,-15.04319 -10.61644,-38.03914 -10.61644,-38.03914 z"
       id="path2-4-7-0-2"
       sodipodi:nodetypes="ccccccc"
       inkscape:label="postit-pink" />
    <path
       style="fill:#ffe08b;fill-opacity:1;stroke:#080809;stroke-width:21.768;stroke-linejoin:miter;stroke-dasharray:none;stroke-opacity:1"
       d="m 1120.1231,498.34986 h 117.8193 v 69.30545 c 0,0 4.1432,21.73645 12.475,34.65272 -35.8997,0.0163 -102.6395,2.75672 -122.45,0.61387 -8.7522,-15.04323 -10.6165,-38.03918 -10.6165,-38.03918 z"
       id="path2-4-3-3-4"
       sodipodi:nodetypes="ccccccc"
       inkscape:label="postit-pink" />
    <path
       style="fill:#ffe08b;fill-opacity:1;stroke:#080809;stroke-width:21.768;stroke-linejoin:miter;stroke-dasharray:none;stroke-opacity:1"
       d="m 233.98038,678.11742 h 117.81939 v 69.30543 c 0,0 4.14311,21.73647 12.47504,34.65274 -35.89982,0.0163 -102.63968,2.75669 -122.45011,0.61384 -8.75227,-15.04322 -10.61649,-38.03916 -10.61649,-38.03916 z"
       id="path2-4-0-1"
       sodipodi:nodetypes="ccccccc"
       inkscape:label="postit-pink" />
    <path
       style="fill:#ffe08b;fill-opacity:1;stroke:#080809;stroke-width:21.768;stroke-linejoin:miter;stroke-dasharray:none;stroke-opacity:1"
       d="m 678.15549,678.11742 h 117.81935 v 69.30545 c 0,0 4.14318,21.73645 12.47501,34.65272 -35.89983,0.0163 -102.63962,2.75669 -122.45009,0.61384 -8.7523,-15.04323 -10.61644,-38.03918 -10.61644,-38.03918 z"
       id="path2-4-2-1-3"
       sodipodi:nodetypes="ccccccc"
       inkscape:label="postit-pink" />
    <path
       style="fill:#ffe08b;fill-opacity:1;stroke:#080809;stroke-width:21.768;stroke-linejoin:miter;stroke-dasharray:none;stroke-opacity:1"
       d="m 236.66787,858.47934 h 117.81938 v 69.30542 c 0,0 4.1431,21.73648 12.47501,34.65276 -35.89979,0.0163 -102.63968,2.75669 -122.45008,0.61382 -8.75228,-15.0432 -10.61647,-38.03915 -10.61647,-38.03915 z"
       id="path2-4-0-9"
       sodipodi:nodetypes="ccccccc"
       inkscape:label="postit-pink" />
    <path
       style="fill:#ffe08b;fill-opacity:1;stroke:#080809;stroke-width:21.768;stroke-linejoin:miter;stroke-dasharray:none;stroke-opacity:1"
       d="m 902.9305,858.47933 h 117.8193 v 69.30543 c 0,0 4.1432,21.7365 12.475,34.65277 -35.8997,0.0163 -102.63961,2.75669 -122.45,0.61384 -8.7522,-15.04318 -10.61648,-38.03915 -10.61648,-38.03915 z"
       id="path2-4-7-0-9"
       sodipodi:nodetypes="ccccccc"
       inkscape:label="postit-pink" />
    <path
       style="fill:#cee6ff;fill-opacity:1;stroke:#080809;stroke-width:21.768;stroke-linejoin:miter;stroke-dasharray:none;stroke-opacity:1"
       d="m 1330.1082,116.09289 h 117.8194 v 69.30545 c 0,0 4.1431,21.7365 12.4751,34.65276 -35.8998,0.0164 -102.6397,2.7567 -122.4502,0.61384 -8.7522,-15.04319 -10.6164,-38.03914 -10.6164,-38.03914 z"
       id="path2-4-7-5"
       sodipodi:nodetypes="ccccccc"
       inkscape:label="postit-pink" />
    <path
       style="fill:#ffacb8;fill-opacity:1;stroke:#080809;stroke-width:21.768;stroke-linejoin:miter;stroke-dasharray:none;stroke-opacity:1"
       d="m 1335.8087,307.37417 h 117.8194 v 69.30545 c 0,0 4.1432,21.73648 12.4751,34.65275 -35.8998,0.0163 -102.6397,2.75671 -122.4502,0.61385 -8.7522,-15.04319 -10.6164,-38.03914 -10.6164,-38.03914 z"
       id="path2-4-7-0-02"
       sodipodi:nodetypes="ccccccc"
       inkscape:label="postit-pink" />
    <path
       style="fill:#ffacb8;fill-opacity:1;stroke:#080809;stroke-width:21.768;stroke-linejoin:miter;stroke-dasharray:none;stroke-opacity:1"
       d="m 1557.8963,307.37419 h 117.8195 v 69.30545 c 0,0 4.1432,21.73644 12.475,34.65272 -35.8998,0.0163 -102.6396,2.75669 -122.4502,0.61386 -8.7522,-15.04324 -10.6164,-38.03919 -10.6164,-38.03919 z"
       id="path2-4-3-3-3"
       sodipodi:nodetypes="ccccccc"
       inkscape:label="postit-pink" />
    <path
       style="fill:#ffe08b;fill-opacity:1;stroke:#080809;stroke-width:21.768;stroke-linejoin:miter;stroke-dasharray:none;stroke-opacity:1"
       d="m 1339.4423,495.81823 h 117.8194 v 69.30544 c 0,0 4.1432,21.73649 12.4751,34.65276 -35.8998,0.0163 -102.6396,2.7567 -122.4502,0.61384 -8.7522,-15.04319 -10.6164,-38.03913 -10.6164,-38.03913 z"
       id="path2-4-7-0-2-2"
       sodipodi:nodetypes="ccccccc"
       inkscape:label="postit-pink" />
    <path
       style="fill:#ffe08b;fill-opacity:1;stroke:#080809;stroke-width:21.768;stroke-linejoin:miter;stroke-dasharray:none;stroke-opacity:1"
       d="m 1572.1327,864.26626 h 117.8195 v 69.30544 c 0,0 4.1432,21.73646 12.475,34.65273 -35.8998,0.0163 -102.6396,2.7567 -122.4502,0.61385 -8.7522,-15.04323 -10.6164,-38.03917 -10.6164,-38.03917 z"
       id="path2-4-3-3-4-7"
       sodipodi:nodetypes="ccccccc"
       inkscape:label="postit-pink" />
    <path
       style="fill:#ffe08b;fill-opacity:1;stroke:#080809;stroke-width:21.768;stroke-linejoin:miter;stroke-dasharray:none;stroke-opacity:1"
       d="m 1341.6499,675.58578 h 117.8192 v 69.30545 c 0,0 4.1433,21.73648 12.4751,34.65276 -35.8997,0.0163 -102.6396,2.7567 -122.4501,0.61383 -8.7522,-15.04318 -10.6164,-38.03913 -10.6164,-38.03913 z"
       id="path2-4-7-0-0-1"
       sodipodi:nodetypes="ccccccc"
       inkscape:label="postit-pink" />
    <path
       style="fill:#cee6ff;fill-opacity:1;stroke:#ff3d2b;stroke-width:13.3147;stroke-linecap:round;stroke-opacity:1"
       d="M 160.339,637.97182 H 1759.661"
       id="path1"
       sodipodi:nodetypes="cc" />
    <path
       style="fill:#cee6ff;fill-opacity:1;stroke:#95e100;stroke-width:13.3147;stroke-linecap:round;stroke-opacity:1"
       d="M 161.03759,822.87047 H 1760.3596"
       id="path2"
       sodipodi:nodetypes="cc" />
    <text
       xml:space="preserve"
       id="text3"
       style="font-weight:bold;font-size:144px;line-height:normal;font-family:Montserrat;-inkscape-font-specification:'Montserrat Bold';text-align:center;text-decoration-color:#000000;letter-spacing:0px;word-spacing:0px;writing-mode:lr-tb;direction:ltr;white-space:pre;shape-inside:url(#rect3);display:inline;fill:#080809;fill-opacity:1;stroke:none;stroke-width:7.34;stroke-linecap:round;stroke-opacity:1"
       transform="matrix(1.3742822,0,0,1.3742822,-343.86791,866.59198)"><tspan
         x="270.88867"
         y="-185.73452"
         id="tspan1">➪</tspan></text>
    <path
       style="fill:#ff2e6f;fill-opacity:1;stroke:none;stroke-width:10.0872;stroke-linecap:round;stroke-opacity:1"
       d="m 55.331103,713.47936 70.890907,2.90834 0.72708,-41.08037 3.27189,0.36355 54.53147,57.80336 -53.80438,56.34918 -5.45315,1.45417 -1.81771,-39.26267 -70.89091,0.36356 z"
       id="path3-9" />
    <text
       xml:space="preserve"
       id="text3-6"
       style="font-weight:bold;font-size:144px;line-height:normal;font-family:Montserrat;-inkscape-font-specification:'Montserrat Bold';text-align:center;text-decoration-color:#000000;letter-spacing:0px;word-spacing:0px;writing-mode:lr-tb;direction:ltr;white-space:pre;shape-inside:url(#rect3-1);display:inline;fill:#080809;fill-opacity:1;stroke:none;stroke-width:7.34;stroke-linecap:round;stroke-opacity:1"
       transform="matrix(1.3742822,0,0,1.3742822,-343.39433,1057.4786)"><tspan
         x="270.88867"
         y="-185.73452"
         id="tspan2">➪</tspan></text>
    <path
       style="fill:#ff2e6f;fill-opacity:1;stroke:none;stroke-width:10.0872;stroke-linecap:round;stroke-opacity:1"
       d="m 55.331107,897.47936 70.890903,2.90834 0.72708,-41.08037 3.27189,0.36355 54.53147,57.80336 -53.80438,56.34918 -5.45315,1.45417 -1.81771,-39.26267 -70.890906,0.36356 z"
       id="path3-3" />
    <text
       xml:space="preserve"
       id="text3-1"
       style="font-weight:bold;font-size:144px;line-height:normal;font-family:Montserrat;-inkscape-font-specification:'Montserrat Bold';text-align:center;text-decoration-color:#000000;letter-spacing:0px;word-spacing:0px;writing-mode:lr-tb;direction:ltr;white-space:pre;shape-inside:url(#rect3-9);display:inline;fill:#080809;fill-opacity:1;stroke:none;stroke-width:7.34;stroke-linecap:round;stroke-opacity:1"
       transform="matrix(1.3742822,0,0,1.3742822,-343.39433,1241.4786)"><tspan
         x="270.88867"
         y="-185.73452"
         id="tspan3">➪</tspan></text>
  </g>
</svg>
