<?xml version="1.0" encoding="UTF-8" standalone="no"?>
<!-- Created with Inkscape (http://www.inkscape.org/) -->

<svg
   width="1080"
   height="1350"
   viewBox="0 0 285.74999 357.1875"
   version="1.1"
   id="svg1"
   inkscape:version="1.4 (e7c3feb1, 2024-10-09)"
   sodipodi:docname="panel-00.svg"
   xml:space="preserve"
   xmlns:inkscape="http://www.inkscape.org/namespaces/inkscape"
   xmlns:sodipodi="http://sodipodi.sourceforge.net/DTD/sodipodi-0.dtd"
   xmlns="http://www.w3.org/2000/svg"
   xmlns:svg="http://www.w3.org/2000/svg"><sodipodi:namedview
     id="namedview1"
     pagecolor="#ffffff"
     bordercolor="#000000"
     borderopacity="0.25"
     inkscape:showpageshadow="2"
     inkscape:pageopacity="0.0"
     inkscape:pagecheckerboard="0"
     inkscape:deskcolor="#d1d1d1"
     inkscape:document-units="px"
     inkscape:zoom="0.52206283"
     inkscape:cx="306.47652"
     inkscape:cy="570.81252"
     inkscape:window-width="1728"
     inkscape:window-height="1057"
     inkscape:window-x="0"
     inkscape:window-y="32"
     inkscape:window-maximized="0"
     inkscape:current-layer="layer1"
     showguides="true"
     showgrid="false" /><defs
     id="defs1"><rect
       x="-122.81681"
       y="671.39855"
       width="540.39396"
       height="586.79142"
       id="rect1" /><rect
       x="337.60629"
       y="293.08679"
       width="868.13049"
       height="871.84045"
       id="rect26" /><rect
       x="358.01108"
       y="335.75131"
       width="877.4054"
       height="734.57196"
       id="rect25" /><rect
       x="418.44797"
       y="244.75258"
       width="748.0744"
       height="801.36731"
       id="rect16" /><clipPath
       clipPathUnits="userSpaceOnUse"
       id="clipPath32"><rect
         style="fill:none;fill-opacity:1;fill-rule:nonzero;stroke:#370188;stroke-width:3.175;stroke-dasharray:none;stroke-opacity:1"
         id="rect33"
         width="282.57498"
         height="354.01248"
         x="1.5875"
         y="15.875003" /></clipPath><clipPath
       clipPathUnits="userSpaceOnUse"
       id="clipPath33"><rect
         style="fill:none;fill-opacity:1;fill-rule:nonzero;stroke:#370188;stroke-width:3.175;stroke-dasharray:none;stroke-opacity:1"
         id="rect34"
         width="282.57498"
         height="354.01248"
         x="1.5875"
         y="15.875003"
         transform="scale(-1,1)" /></clipPath><clipPath
       clipPathUnits="userSpaceOnUse"
       id="clipPath34"><rect
         style="fill:none;fill-opacity:1;fill-rule:nonzero;stroke:#370188;stroke-width:3.175;stroke-dasharray:none;stroke-opacity:1"
         id="rect35"
         width="282.57498"
         height="354.01248"
         x="1.5875"
         y="15.875003" /></clipPath><clipPath
       clipPathUnits="userSpaceOnUse"
       id="clipPath35"><rect
         style="fill:none;fill-opacity:1;fill-rule:nonzero;stroke:#370188;stroke-width:3.175;stroke-dasharray:none;stroke-opacity:1"
         id="rect36"
         width="282.57498"
         height="354.01248"
         x="1.5875"
         y="15.875003" /></clipPath><clipPath
       clipPathUnits="userSpaceOnUse"
       id="clipPath1"><rect
         style="fill:none;fill-opacity:1;fill-rule:nonzero;stroke:#370188;stroke-width:0.695287;stroke-dasharray:none;stroke-opacity:1"
         id="rect2"
         width="61.880581"
         height="77.524551"
         x="-167.02388"
         y="-16.952217"
         transform="scale(-1,1)" /></clipPath><clipPath
       clipPathUnits="userSpaceOnUse"
       id="clipPath2"><rect
         style="fill:none;fill-opacity:1;fill-rule:nonzero;stroke:#370188;stroke-width:3.175;stroke-dasharray:none;stroke-opacity:1"
         id="rect3"
         width="282.57498"
         height="354.01248"
         x="139.64767"
         y="-132.82672"
         transform="rotate(21.214416)" /></clipPath><clipPath
       clipPathUnits="userSpaceOnUse"
       id="clipPath3"><rect
         style="fill:none;fill-opacity:1;fill-rule:nonzero;stroke:#370188;stroke-width:3.175;stroke-dasharray:none;stroke-opacity:1"
         id="rect4"
         width="282.57498"
         height="354.01248"
         x="1.5875"
         y="1.5875"
         transform="rotate(23.854687)" /></clipPath><clipPath
       clipPathUnits="userSpaceOnUse"
       id="clipPath5"><rect
         style="fill:none;fill-opacity:1;fill-rule:nonzero;stroke:#370188;stroke-width:3.175;stroke-dasharray:none;stroke-opacity:1"
         id="rect6"
         width="282.57498"
         height="354.01248"
         x="1.5875"
         y="1.5875"
         transform="rotate(23.854687)" /></clipPath><clipPath
       clipPathUnits="userSpaceOnUse"
       id="clipPath6"><rect
         style="fill:none;fill-opacity:1;fill-rule:nonzero;stroke:#370188;stroke-width:3.175;stroke-dasharray:none;stroke-opacity:1"
         id="rect7"
         width="282.57498"
         height="354.01248"
         x="114.21098"
         y="-148.05612"
         transform="rotate(21.830906)" /></clipPath><clipPath
       clipPathUnits="userSpaceOnUse"
       id="clipPath4"><rect
         style="fill:none;fill-opacity:1;fill-rule:nonzero;stroke:#370188;stroke-width:3.175;stroke-dasharray:none;stroke-opacity:1"
         id="rect5"
         width="282.57498"
         height="354.01248"
         x="-291.00757"
         y="-63.86795"
         transform="rotate(-15.932654)" /></clipPath></defs><g
     inkscape:label="Layer 1"
     inkscape:groupmode="layer"
     id="layer1"><text
       xml:space="preserve"
       transform="scale(0.26458333)"
       id="text16"
       style="font-style:normal;font-variant:normal;font-weight:bold;font-stretch:normal;font-size:60px;font-family:'Josefin Slab';-inkscape-font-specification:'Josefin Slab Bold';text-align:start;letter-spacing:0px;word-spacing:0px;writing-mode:lr-tb;direction:ltr;white-space:pre;shape-inside:url(#rect16);display:inline;fill:#000000;fill-opacity:0;stroke:#370188;stroke-width:12;stroke-opacity:1" /><text
       xml:space="preserve"
       transform="scale(0.26458333)"
       id="text25"
       style="font-style:normal;font-variant:normal;font-weight:bold;font-stretch:normal;font-size:60px;font-family:'Josefin Slab';-inkscape-font-specification:'Josefin Slab Bold';text-align:start;letter-spacing:0px;word-spacing:0px;writing-mode:lr-tb;direction:ltr;white-space:pre;shape-inside:url(#rect25);display:inline;fill:#000000;fill-opacity:0;stroke:#370188;stroke-width:12;stroke-opacity:1" /><text
       xml:space="preserve"
       transform="scale(0.26458333)"
       id="text26"
       style="font-style:normal;font-variant:normal;font-weight:bold;font-stretch:normal;font-size:60px;font-family:'Josefin Slab';-inkscape-font-specification:'Josefin Slab Bold';text-align:start;letter-spacing:0px;word-spacing:0px;writing-mode:lr-tb;direction:ltr;white-space:pre;shape-inside:url(#rect26);display:inline;fill:#000000;fill-opacity:0;stroke:#370188;stroke-width:12;stroke-opacity:1" /><rect
       width="9.8019896"
       height="15.875"
       rx="0"
       ry="0"
       fill="#6002ee"
       stroke-width="0"
       id="rect1-3-4-39-4-2-0-5-6"
       x="247.60098"
       y="332.84583" /><text
       font-family="Montserrat"
       font-size="618.11px"
       font-weight="200"
       stroke-width="0"
       fill="#33333"
       id="text3-0-3-0-0-5-3-3-2"
       x="248.33717"
       y="345.42685"
       style="font-style:normal;font-variant:normal;font-weight:300;font-stretch:normal;font-size:13.0774px;font-family:Montserrat;-inkscape-font-specification:'Montserrat Light'"
       transform="scale(0.99938968,1.0006107)"><tspan
         y="345.42685"
         font-weight="200"
         stroke-width="0"
         id="tspan1-4-8-6-2-1-2-5-9"
         style="font-style:normal;font-variant:normal;font-weight:300;font-stretch:normal;font-size:13.0774px;font-family:Montserrat;-inkscape-font-specification:'Montserrat Light'"><tspan
           style="font-style:normal;font-variant:normal;font-weight:300;font-stretch:normal;font-size:13.0774px;font-family:Montserrat;-inkscape-font-specification:'Montserrat Light';fill:#ffffff;fill-opacity:1;stroke-width:0"
           id="tspan3-6-3-13-5-2-1-6-6">k</tspan></tspan></text><text
       dx="0"
       dy="0"
       font-family="Montserrat"
       font-size="465.256px"
       font-weight="200"
       stroke-width="0"
       fill="#33333"
       id="text3-0-3-6-8-4-0-8-9"
       x="195.17656"
       y="345.42685"
       style="font-style:normal;font-variant:normal;font-weight:300;font-stretch:normal;font-size:13.0774px;font-family:Montserrat;-inkscape-font-specification:'Montserrat Light'"
       transform="scale(0.99938968,1.0006107)"><tspan
         y="345.42685"
         font-weight="200"
         stroke-width="0"
         id="tspan1-4-8-3-9-0-0-6-9"
         style="font-style:normal;font-variant:normal;font-weight:300;font-stretch:normal;font-size:13.0774px;font-family:Montserrat;-inkscape-font-specification:'Montserrat Light'">product</tspan></text><text
       font-family="Montserrat"
       font-size="465.256px"
       font-weight="200"
       stroke-width="0"
       fill="#33333"
       id="text3-0-3-6-4-3-4-3-7-8"
       x="257.78415"
       y="345.42685"
       style="font-style:normal;font-variant:normal;font-weight:300;font-stretch:normal;font-size:13.0774px;font-family:Montserrat;-inkscape-font-specification:'Montserrat Light'"
       transform="scale(0.99938968,1.0006107)"><tspan
         y="345.42685"
         font-weight="200"
         stroke-width="0"
         id="tspan1-4-8-3-6-9-9-9-7-0"
         style="font-style:normal;font-variant:normal;font-weight:300;font-stretch:normal;font-size:13.0774px;font-family:Montserrat;-inkscape-font-specification:'Montserrat Light'">ind</tspan></text><path
       style="fill:none;fill-opacity:1;stroke:#370188;stroke-width:1.5875;stroke-linecap:round;stroke-dasharray:none;stroke-opacity:1"
       d="m 101.49078,184.87186 c 4.42264,-23.56536 42.09094,-77.71702 42.94262,-96.66964"
       id="path13-1-9"
       sodipodi:nodetypes="cc" /><text
       xml:space="preserve"
       style="font-style:normal;font-variant:normal;font-weight:normal;font-stretch:normal;font-size:19.05px;font-family:'Nanum Pen';-inkscape-font-specification:'Nanum Pen';text-align:center;letter-spacing:0px;word-spacing:0px;writing-mode:lr-tb;direction:ltr;text-anchor:middle;white-space:pre;inline-size:253.265;display:inline;fill:#370188;fill-opacity:1;stroke:none;stroke-width:1.5875;stroke-linecap:round;stroke-dasharray:none;stroke-opacity:1"
       x="23.771687"
       y="156.49693"
       id="text17"
       transform="translate(119.32494,-112.31369)"><tspan
         x="23.771687"
         y="156.49693"
         id="tspan1">I gave it all my research and now it’s<tspan
   y="156.49693"
   id="tspan3"> </tspan></tspan><tspan
         x="23.771687"
         y="180.30944"
         id="tspan5">just… spiralling into nonsense.</tspan></text><rect
       style="fill:#9a58fd;fill-opacity:1;stroke:#370188;stroke-width:3.175;stroke-dasharray:none;stroke-opacity:1"
       id="rect18"
       width="105.83333"
       height="21.166666"
       x="152.57234"
       y="296.14682"
       rx="10.583333" /><rect
       style="fill:#d7bdfe;fill-opacity:1;stroke:#370188;stroke-width:3.17498;stroke-dasharray:none;stroke-opacity:1"
       id="rect10-8"
       width="9.5250206"
       height="17.991848"
       x="170.56395"
       y="204.07179"
       rx="4.7625103" /><rect
       style="fill:#d7bdfe;fill-opacity:1;stroke:#370188;stroke-width:3.17496;stroke-dasharray:none;stroke-opacity:1"
       id="rect10-8-8"
       width="9.525032"
       height="17.991699"
       x="227.71396"
       y="204.07185"
       rx="4.762516" /><rect
       style="fill:#9a58fd;fill-opacity:1;stroke:#370188;stroke-width:3.17506;stroke-dasharray:none;stroke-opacity:1"
       id="rect9"
       width="53.974957"
       height="39.158276"
       x="176.91403"
       y="189.25523"
       rx="9.7154922" /><rect
       style="fill:#ffffff;fill-opacity:1;stroke:#370188;stroke-width:3.175;stroke-dasharray:none;stroke-opacity:1"
       id="rect10"
       width="9.5249996"
       height="21.166666"
       x="186.43901"
       y="196.13248"
       rx="4.7624998" /><rect
       style="fill:#ffffff;fill-opacity:1;stroke:#370188;stroke-width:3.175;stroke-dasharray:none;stroke-opacity:1"
       id="rect10-9"
       width="9.5249996"
       height="21.166666"
       x="211.839"
       y="195.83191"
       rx="4.7624998" /><circle
       style="fill:#d7bdfe;fill-opacity:1;stroke:#370188;stroke-width:3.175;stroke-dasharray:none;stroke-opacity:1"
       id="path10"
       cx="203.9015"
       cy="165.69185"
       r="4.2333331" /><circle
       style="fill:#d7bdfe;fill-opacity:1;stroke:#370188;stroke-width:3.175;stroke-dasharray:none;stroke-opacity:1"
       id="path10-3"
       cx="163.68483"
       cy="306.73016"
       r="5.2916665" /><circle
       style="fill:#d7bdfe;fill-opacity:1;stroke:#370188;stroke-width:3.175;stroke-dasharray:none;stroke-opacity:1"
       id="path10-9"
       cx="246.76401"
       cy="306.73016"
       r="5.2916665" /><path
       style="fill:#ffffff;stroke:#370188;stroke-width:3.175;stroke-dasharray:none;stroke-opacity:1"
       d="m 203.9015,170.57555 v 17.98102"
       id="path11" /><rect
       style="fill:#ffffff;stroke:#370188;stroke-width:3.17495;stroke-dasharray:none;stroke-opacity:1"
       id="rect11"
       width="28.575048"
       height="3.1750476"
       x="189.61395"
       y="231.5885"
       rx="3.8625619" /><rect
       style="fill:#ffffff;stroke:#370188;stroke-width:3.17495;stroke-dasharray:none;stroke-opacity:1"
       id="rect11-0"
       width="28.575048"
       height="3.1750476"
       x="189.61395"
       y="237.93851"
       rx="3.8625619" /><rect
       style="fill:#ffffff;stroke:#370188;stroke-width:3.17495;stroke-dasharray:none;stroke-opacity:1"
       id="rect11-0-5"
       width="28.575048"
       height="3.1750476"
       x="189.61395"
       y="289.79678"
       rx="3.8625619" /><circle
       style="fill:#d7bdfe;fill-opacity:1;stroke:#370188;stroke-width:3.175;stroke-dasharray:none;stroke-opacity:1"
       id="path10-4"
       cx="180.30067"
       cy="306.73016"
       r="5.2916665" /><circle
       style="fill:#d7bdfe;fill-opacity:1;stroke:#370188;stroke-width:3.175;stroke-dasharray:none;stroke-opacity:1"
       id="path10-7"
       cx="196.91649"
       cy="306.73016"
       r="5.2916665" /><circle
       style="fill:#d7bdfe;fill-opacity:1;stroke:#370188;stroke-width:3.175;stroke-dasharray:none;stroke-opacity:1"
       id="path10-1"
       cx="213.53236"
       cy="306.73016"
       r="5.2916665" /><circle
       style="fill:#d7bdfe;fill-opacity:1;stroke:#370188;stroke-width:3.175;stroke-dasharray:none;stroke-opacity:1"
       id="path10-74"
       cx="230.14816"
       cy="306.73016"
       r="5.2916665" /><path
       style="fill:#d7bdfe;fill-opacity:1;stroke:#370188;stroke-width:3.175;stroke-dasharray:none;stroke-opacity:1"
       d="m 238.67407,260.61649 c 14.51235,0.70138 18.8462,9.5563 20.22453,11.55562 5.469,7.93302 14.78388,1.9285 8.64235,-6.32227 -3.65341,-4.90814 -12.91346,-16.87029 -28.71473,-16.14712"
       id="path19"
       sodipodi:nodetypes="cssc" /><path
       style="fill:none;fill-opacity:1;stroke:#370188;stroke-width:3.175;stroke-dasharray:none;stroke-opacity:1"
       id="path21"
       sodipodi:type="arc"
       sodipodi:cx="271.55591"
       sodipodi:cy="281.1171"
       sodipodi:rx="5.2916665"
       sodipodi:ry="5.2916665"
       sodipodi:start="2.191883"
       sodipodi:end="6.0837601"
       sodipodi:arc-type="arc"
       d="m 268.47659,285.42053 a 5.2916665,5.2916665 0 0 1 -1.8959,-6.10591 5.2916665,5.2916665 0 0 1 5.36686,-3.47468 5.2916665,5.2916665 0 0 1 4.79515,4.22885"
       sodipodi:open="true" /><path
       style="fill:none;fill-opacity:1;stroke:#370188;stroke-width:3.175;stroke-dasharray:none;stroke-opacity:1"
       d="m 244.99394,260.99571 2.96129,-9.98579"
       id="path22" /><path
       style="fill:none;fill-opacity:1;stroke:#370188;stroke-width:3.175;stroke-dasharray:none;stroke-opacity:1"
       d="m 251.38934,262.91208 5.13198,-7.81513"
       id="path23"
       sodipodi:nodetypes="cc" /><path
       style="fill:none;fill-opacity:1;stroke:#370188;stroke-width:3.175;stroke-dasharray:none;stroke-opacity:1"
       d="m 256.15048,267.53813 6.9556,-6.19808"
       id="path24" /><path
       style="fill:none;fill-opacity:1;stroke:#370188;stroke-width:3.175;stroke-dasharray:none;stroke-opacity:1"
       d="m 260.14479,273.32301 8.60844,-5.64714"
       id="path25" /><path
       style="fill:#d7bdfe;fill-opacity:1;stroke:#370188;stroke-width:3.175;stroke-dasharray:none;stroke-opacity:1"
       d="m 170.51673,250.69434 c -14.51235,-0.70138 -18.98475,-9.81901 -20.36308,-11.81834 -5.46904,-7.93301 -14.78388,-1.9285 -8.64239,6.32228 3.65341,4.90814 12.91346,16.87029 28.71474,16.14711"
       id="path19-3"
       sodipodi:nodetypes="cssc" /><path
       style="fill:none;fill-opacity:1;stroke:#370188;stroke-width:3.175;stroke-dasharray:none;stroke-opacity:1"
       id="path21-9"
       sodipodi:type="arc"
       sodipodi:cx="-137.49637"
       sodipodi:cy="-229.93149"
       sodipodi:rx="5.2916665"
       sodipodi:ry="5.2916665"
       sodipodi:start="2.191883"
       sodipodi:end="6.0837601"
       sodipodi:arc-type="arc"
       d="m -140.57569,-225.62806 a 5.2916665,5.2916665 0 0 1 -1.8959,-6.10591 5.2916665,5.2916665 0 0 1 5.36686,-3.47467 5.2916665,5.2916665 0 0 1 4.79515,4.22884"
       sodipodi:open="true"
       transform="scale(-1)" /><path
       style="fill:none;fill-opacity:1;stroke:#370188;stroke-width:3.175;stroke-dasharray:none;stroke-opacity:1"
       d="m 164.0583,250.0524 -2.96132,9.9858"
       id="path22-6" /><path
       style="fill:none;fill-opacity:1;stroke:#370188;stroke-width:3.175;stroke-dasharray:none;stroke-opacity:1"
       d="m 157.66287,248.13603 -5.13197,7.81514"
       id="path23-4"
       sodipodi:nodetypes="cc" /><path
       style="fill:none;fill-opacity:1;stroke:#370188;stroke-width:3.175;stroke-dasharray:none;stroke-opacity:1"
       d="m 152.90174,243.50999 -6.9556,6.19808"
       id="path24-9" /><path
       style="fill:none;fill-opacity:1;stroke:#370188;stroke-width:3.175;stroke-dasharray:none;stroke-opacity:1"
       d="m 148.90743,237.72511 -8.60844,5.64714"
       id="path25-2" /><rect
       style="fill:#9a58fd;fill-opacity:1;stroke:#370188;stroke-width:3.175;stroke-dasharray:none;stroke-opacity:1"
       id="rect16-7"
       width="68.791664"
       height="42.333332"
       x="169.50562"
       y="244.28851"
       rx="4.7624989" /><rect
       style="fill:#370188;fill-opacity:1;stroke:none;stroke-width:0;stroke-dasharray:none"
       id="rect17"
       width="52.916664"
       height="29.765625"
       x="177.44316"
       y="250.63849" /><text
       xml:space="preserve"
       style="font-weight:bold;font-size:12.7px;font-family:Helvetica;-inkscape-font-specification:'Helvetica Bold';text-align:center;letter-spacing:0px;word-spacing:0px;writing-mode:lr-tb;direction:ltr;text-anchor:middle;fill:#fe8bed;fill-opacity:1;stroke:#370188;stroke-width:3.175;stroke-dasharray:none"
       x="112.57917"
       y="100.13621"
       id="text4"><tspan
         sodipodi:role="line"
         id="tspan4"
         style="stroke-width:3.175" /></text><text
       xml:space="preserve"
       transform="scale(0.26458333)"
       id="text1"
       style="font-weight:bold;font-size:96px;font-family:Montserrat;-inkscape-font-specification:'Montserrat Bold';text-align:start;letter-spacing:0px;word-spacing:0px;writing-mode:lr-tb;direction:ltr;white-space:pre;shape-inside:url(#rect1);display:inline;fill:#fe8bed;stroke-width:12" /><g
       id="g1"><path
         style="fill:#018816;fill-opacity:1;stroke:#370188;stroke-width:3.175;stroke-dasharray:none;stroke-opacity:1"
         d="m 70.556272,256.39285 -2.44822,35.65858 51.518658,1.38376 -2.02244,-39.59698 z"
         id="path25-4-7" /><path
         style="fill:#ffffff;fill-opacity:1;stroke:#370188;stroke-width:3.175;stroke-dasharray:none;stroke-opacity:1"
         d="m 53.895012,264.84066 c 0,15.83268 7.10917,26.92819 17.07232,33.28661 2.37049,1.51282 4.90258,2.75752 7.53891,3.73402 23.316628,8.63654 54.788088,-3.70364 54.763768,-37.02063 l -15.06805,15.50715 -15.15129,-6.57609 -19.957538,9.34237 -10.75537,-11.69092 -8.49021,5.14359 z"
         id="path1-8-8"
         sodipodi:nodetypes="cssccccccc" /><path
         style="fill:#370189;fill-opacity:1;stroke:#370188;stroke-width:0;stroke-dasharray:none;stroke-opacity:1"
         d="m 77.823012,300.1766 -3.82692,-5.27259 5.07118,2.35369 1.32626,-3.92795 0.37681,4.14213 4.16998,-3.19913 -2.57347,4.76485 5.63245,0.54649 -3.69281,2.89899 z"
         id="path3-2-6"
         sodipodi:nodetypes="cccccccccc" /><path
         style="fill:#370189;fill-opacity:1;stroke:#370188;stroke-width:0;stroke-dasharray:none;stroke-opacity:1"
         d="m 108.96773,300.71296 3.03511,-5.32826 -4.74551,2.65567 -0.40824,-3.99876 -1.23584,4.49196 -4.72465,-1.3668 3.40941,3.17528 -4.781808,1.08258 4.502498,2.28216 z"
         id="path3-1-5-6"
         sodipodi:nodetypes="cccccccccc" /><path
         style="fill:#ee4302;fill-opacity:1;stroke:#370188;stroke-width:3.175;stroke-dasharray:none;stroke-opacity:1"
         d="m 78.417342,301.50667 c -0.0908,0.82798 -0.1108,10.87927 -0.1108,10.87927 l -7.65791,4.01428 9.17048,-1.55093 0.74285,0.90942 0.70028,-0.93297 8.75249,1.41576 -6.92598,-3.71138 c 0,0 0.0702,-8.98281 0.0127,-9.10428 z"
         id="path7-8-0"
         sodipodi:nodetypes="cccccccccc" /><path
         style="fill:#ee4302;fill-opacity:1;stroke:#370188;stroke-width:3.175;stroke-dasharray:none;stroke-opacity:1"
         d="m 108.45589,300.76877 0.34004,12.60688 7.87114,2.69119 -9.9795,-1.45316 -0.74285,0.90941 -0.70031,-0.93297 -9.076208,1.20136 7.418258,-3.10319 c 0,0 0.16637,-9.20292 0.1797,-9.394 z"
         id="path7-4-0-6"
         sodipodi:nodetypes="cccccccccc" /><path
         style="fill:none;fill-opacity:1;stroke:#370188;stroke-width:3.175;stroke-dasharray:none;stroke-opacity:1"
         d="m 78.915502,277.18903 3.90573,-9.47851 22.305448,-0.053 3.05492,7.69033"
         id="path19-60-5"
         sodipodi:nodetypes="cccc" /><path
         style="fill:#fdc458;fill-opacity:1;stroke:#370188;stroke-width:3.175;stroke-dasharray:none;stroke-opacity:1"
         d="m 109.90213,232.68522 c 17.42596,-38.94192 -49.630828,-38.34514 -32.591498,0.64325 l 15.59275,7.69652 z"
         id="path23-5-3"
         sodipodi:nodetypes="cccc" /><path
         style="fill:#018816;fill-opacity:1;stroke:#370188;stroke-width:3.175;stroke-dasharray:none;stroke-opacity:1"
         d="m 69.260627,261.64673 4.110375,-20.05338 -0.30575,-10.09069 19.87556,9.57891 20.487098,-10.49623 v 8.56176 c 4.90747,6.14476 0.71618,11.23113 6.22776,24.66869"
         id="path12-0-5"
         sodipodi:nodetypes="ccccccc" /><path
         style="fill:#370188;fill-opacity:1;stroke:none;stroke-width:8.13508;stroke-dasharray:none;stroke-opacity:1"
         id="path9-8-0"
         sodipodi:type="arc"
         sodipodi:cx="87.641258"
         sodipodi:cy="217.72224"
         sodipodi:rx="1.7054044"
         sodipodi:ry="1.7054044"
         sodipodi:start="5.9341195"
         sodipodi:end="3.4906585"
         sodipodi:arc-type="chord"
         d="m 89.243814,217.13896 a 1.7054044,1.7054044 0 0 1 -0.584159,1.95123 1.7054044,1.7054044 0 0 1 -2.036794,0 1.7054044,1.7054044 0 0 1 -0.584159,-1.95123 z"
         sodipodi:open="true" /><path
         style="fill:none;fill-opacity:1;stroke:#370188;stroke-width:3.175;stroke-dasharray:none;stroke-opacity:1"
         d="m 73.065882,241.39183 19.87493,4.4824 20.996298,-6.52113"
         id="path22-1-6"
         sodipodi:nodetypes="ccc" /><path
         style="fill:none;fill-opacity:1;stroke:#370188;stroke-width:3.175;stroke-dasharray:none;stroke-opacity:1"
         d="m 83.759222,240.44489 -3.37312,20.3066"
         id="path10-79-7"
         sodipodi:nodetypes="cc" /><path
         style="fill:none;fill-opacity:1;stroke:#370188;stroke-width:3.175;stroke-dasharray:none;stroke-opacity:1"
         d="m 96.602361,222.84993 -5.982753,3.09451 7.220557,3.30086"
         id="path24-70-9" /><path
         style="fill:none;fill-opacity:1;stroke:#370188;stroke-width:3.175;stroke-dasharray:none;stroke-opacity:1"
         d="m 93.710172,205.78154 c 5.40633,-4.70872 -5.05748,-5.05752 0.52321,-8.89426"
         id="path26-0-0"
         sodipodi:nodetypes="cc" /><path
         style="fill:#370188;fill-opacity:1;stroke:#370188;stroke-width:0.79375;stroke-linecap:butt;stroke-dasharray:none;stroke-opacity:1"
         d="m 84.162002,217.04898 6.77799,-0.0439"
         id="path18-6"
         sodipodi:nodetypes="cc" /><path
         style="fill:#370188;fill-opacity:1;stroke:none;stroke-width:8.13508;stroke-dasharray:none;stroke-opacity:1"
         id="path9-8-4"
         sodipodi:type="arc"
         sodipodi:cx="100.15598"
         sodipodi:cy="217.741"
         sodipodi:rx="1.7054044"
         sodipodi:ry="1.7054044"
         sodipodi:start="5.9341195"
         sodipodi:end="3.4906585"
         sodipodi:arc-type="chord"
         d="m 101.75854,217.15771 a 1.7054044,1.7054044 0 0 1 -0.58416,1.95123 1.7054044,1.7054044 0 0 1 -2.036794,0 1.7054044,1.7054044 0 0 1 -0.584159,-1.95123 z"
         sodipodi:open="true" /><path
         style="fill:#370188;fill-opacity:1;stroke:#370188;stroke-width:0.79375;stroke-linecap:butt;stroke-dasharray:none;stroke-opacity:1"
         d="m 96.676742,217.06774 6.777988,-0.0439"
         id="path18-6-1"
         sodipodi:nodetypes="cc" /><path
         style="fill:none;fill-opacity:1;stroke:#370188;stroke-width:3.175;stroke-dasharray:none;stroke-opacity:1"
         d="m 101.19911,239.93847 2.50114,20.97739"
         id="path11-71-1"
         sodipodi:nodetypes="cc" /><path
         style="fill:#fdc458;fill-opacity:1;stroke:#370188;stroke-width:3.175;stroke-dasharray:none;stroke-opacity:1"
         d="m 105.25574,246.51128 c 0,0 -34.302289,21.19084 7.53479,15.42339 z"
         id="path16-7-9"
         sodipodi:nodetypes="ccc" /><path
         style="fill:#018816;fill-opacity:1;stroke:#370188;stroke-width:3.175;stroke-opacity:1"
         d="m 114.41253,239.66056 -12.59644,7.05026 10.90438,17.95463 6.15641,0.094 c 5.40337,-10.50553 2.65105,-18.04241 -4.46435,-25.09889 z"
         id="path12"
         sodipodi:nodetypes="ccccc" /><path
         style="fill:#fdc458;fill-opacity:1;stroke:#370188;stroke-width:3.175;stroke-dasharray:none;stroke-opacity:1"
         d="m 82.392813,245.1917 c 0,0 38.472777,27.21074 -6.9562,15.58833 z"
         id="path17-0-7"
         sodipodi:nodetypes="ccc" /><path
         style="fill:#018816;fill-opacity:1;stroke:#370188;stroke-width:3.175;stroke-opacity:1"
         d="m 74.010914,239.34289 12.596447,7.05026 -10.904386,17.95463 -6.156405,0.094 c -5.403378,-10.50553 -2.651051,-18.04241 4.464344,-25.09889 z"
         id="path12-0"
         sodipodi:nodetypes="ccccc" /></g><g
       id="g2"
       transform="rotate(15.932654,-87.56954,1078.1464)"
       clip-path="url(#clipPath4)"><path
         style="fill:#ffffff;fill-opacity:1;stroke:#370188;stroke-width:3.21643;stroke-dasharray:none;stroke-opacity:1"
         d="m -211.61735,225.51229 c 1.24358,8.17195 13.4967,27.73728 15.45088,31.82325 1.95415,4.08597 -3.22145,8.96309 -6.77443,5.76539 -3.55302,-3.19777 -15.76829,-21.08607 -17.36715,-27.30386"
         id="path5-1-2-1-7"
         sodipodi:nodetypes="cssc" /><path
         style="fill:#ffffff;fill-opacity:1;stroke:#370188;stroke-width:3.21643;stroke-dasharray:none;stroke-opacity:1"
         d="m -253.9834,267.74935 c -0.81687,6.53498 -4.51006,21.22091 -12.1399,30.13967 -6.13109,7.16677 -14.56271,8.4803 -18.80835,10.80214 -9.77519,5.34601 -6.76901,14.03995 1.93154,11.82475 12.68041,-3.22847 31.83633,-6.967 30.95234,-15.8067"
         id="path2-4-2-5-8-3"
         sodipodi:nodetypes="csssc" /><path
         style="fill:#fd268c;fill-opacity:1;stroke:#370188;stroke-width:3.21643;stroke-dasharray:none;stroke-opacity:1"
         d="m -210.17018,231.63509 14.44256,20.39693 -11.14863,9.75506"
         id="path13-6-7-6-8"
         sodipodi:nodetypes="ccc" /><path
         style="fill:#ffffff;fill-opacity:1;stroke:#370188;stroke-width:3.21643;stroke-dasharray:none;stroke-opacity:1"
         d="m -206.46563,179.926 c 2.98009,-3.66221 -0.72158,-6.68728 -3.80158,-2.51292"
         id="path15-0-5-6-6-1"
         sodipodi:nodetypes="cc" /><path
         style="fill:#ffffff;fill-opacity:1;stroke:#370188;stroke-width:3.21656;stroke-dasharray:none;stroke-opacity:1"
         d="m -227.29051,204.2704 c 9.26553,17.31194 44.37713,6.82724 30.47879,-11.94765 -13.89834,-18.77498 -19.2626,-20.4818 -30.23495,-19.99418 -10.97239,0.48771 -19.64005,10.31735 -20.72561,18.2873 -1.42977,10.49709 -3.3273,59.21102 -5.76564,73.59704 -1.99771,11.78674 0.79394,34.08943 2.08242,46.63332 0.28416,2.76612 0.49511,5.05771 0.56556,6.6573 0.44358,10.0706 13.41428,10.82717 14.14215,0.73152 0.53937,-7.48017 10.08545,-6.2115 10.38755,0 0.45123,9.27808 13.78369,9.12607 14.58449,-0.2613 0.92951,-10.89466 6.17163,-40.69924 5.15074,-52.22005 -0.97228,-10.97235 -6.7672,-52.94937 -6.7672,-52.94937 v 0"
         id="path1-2-4-7-1-7"
         sodipodi:nodetypes="csssssssssscc" /><circle
         style="fill:#370188;fill-opacity:1;stroke:#370188;stroke-width:0.804104;stroke-opacity:1"
         id="path3-29-2-0"
         cx="210.0388"
         cy="186.22946"
         r="1.5030103"
         transform="scale(-1,1)" /><circle
         style="fill:#370188;fill-opacity:1;stroke:#370188;stroke-width:0.804104;stroke-opacity:1"
         id="path3-3-5-9-1"
         cx="220.68571"
         cy="188.56343"
         r="1.5030103"
         transform="scale(-1,1)" /><path
         style="fill:#370188;fill-opacity:1;stroke:#370188;stroke-width:3.21643;stroke-dasharray:none;stroke-opacity:1"
         d="m -205.09777,197.78404 c -1.06385,-0.69009 -5.0199,0.46523 -5.52069,1.5527 -0.46854,1.01736 3.81838,3.16652 4.54307,2.76034 0.53051,-0.29718 2.04153,-3.62296 0.97762,-4.31304 z"
         id="path4-2-3-9-6"
         sodipodi:nodetypes="zssz" /><path
         style="fill:#fd268c;fill-opacity:1;stroke:#370188;stroke-width:3.21643;stroke-dasharray:none;stroke-opacity:1"
         d="m -253.31507,292.13468 c 0.34052,5.32857 0.99514,27.69689 0.99514,27.69689 l 19.1556,-0.58045 1.99019,-5.97062 1.74142,6.05349 20.39947,0.58051 c 0,0 0.21209,-19.99024 0.66339,-29.02366 0.45123,-9.03341 3.11143,-13.35293 1.94037,-25.16196 -1.17107,-11.80907 -5.49523,-45.01379 -5.49523,-45.01379 l -5.28793,1.13319 -4.91023,10.19816 -4.15487,-10.38704 -23.22922,-1.51086 c 0,0 -1.73711,30.37409 -4.16313,44.75871 -2.42598,14.38449 -0.33385,17.47355 -0.12985,20.37635 0.20415,2.90281 0.14414,1.52251 0.48472,6.85108 z"
         id="path14-0-7-8-2"
         sodipodi:nodetypes="zccccczzccccczzz" /><path
         style="fill:#ffffff;fill-opacity:1;stroke:#370188;stroke-width:3.21643;stroke-dasharray:none;stroke-opacity:1"
         d="m -250.58673,231.45815 c -0.6911,10.08986 1.55305,30.37776 1.96276,34.40325 0.55286,5.43208 7.64343,6.63438 8.74919,0.13811 1.10572,-6.49627 1.55673,-27.26404 1.55673,-27.26404"
         id="path6-86-3-4-3"
         sodipodi:nodetypes="cssc" /><path
         style="fill:#ffffff;fill-opacity:1;stroke:#370188;stroke-width:3.21643;stroke-dasharray:none;stroke-opacity:1"
         d="m -226.98378,220.80386 4.17071,11.2469"
         id="path10-5-4-0-6-1"
         sodipodi:nodetypes="cc" /><path
         style="fill:#fd268c;fill-opacity:1;stroke:#370188;stroke-width:3.21643;stroke-dasharray:none;stroke-opacity:1"
         d="m -230.73072,230.77844 3.07457,-8.95407 -22.08107,-1.61388 -2.6409,9.02313 z"
         id="path7-1-7-2-3-4"
         sodipodi:nodetypes="ccccc" /><path
         style="fill:#ffffff;fill-opacity:1;stroke:#370188;stroke-width:3.21643;stroke-dasharray:none;stroke-opacity:1"
         d="m -222.50236,232.33118 5.09152,-11.52732"
         id="path9-9-9-5-8-8"
         sodipodi:nodetypes="cc" /><path
         style="fill:#fd268c;fill-opacity:1;stroke:#370188;stroke-width:3.21643;stroke-dasharray:none;stroke-opacity:1"
         d="m -211.81064,220.79732 -5.11909,0.79594 2.01381,9.07552 6.3901,-1.8254 z"
         id="path8-9-5-7-9-9"
         sodipodi:nodetypes="ccccc" /><path
         style="fill:#fd268c;fill-opacity:1;stroke:#370188;stroke-width:3.21643;stroke-dasharray:none;stroke-opacity:1"
         d="m -235.28888,236.82396 -0.75266,24.69109 -15.03528,-3.05023 0.69475,-27.08948"
         id="path12-2-2-7-8-2"
         sodipodi:nodetypes="cccc" /><path
         style="fill:#fd268c;fill-opacity:1;stroke:#370188;stroke-width:3.21643;stroke-dasharray:none;stroke-opacity:1"
         d="m -222.59907,231.86245 c 0,0 1.32988,28.23528 1.43218,31.202 0.10255,2.96675 -1.85966,33.12029 -1.85966,33.12029 l -5.23132,-0.403"
         id="path11-7-9-4-2-3"
         sodipodi:nodetypes="csc" /><circle
         style="fill:#370188;fill-opacity:1;stroke:#370188;stroke-width:0.804104;stroke-opacity:1"
         id="path3-3-6-16-4-6-1"
         r="0.76141715"
         cy="240.48152"
         cx="226.26949"
         inkscape:transform-center-x="-2.5670645"
         inkscape:transform-center-y="-5.6852825e-06"
         transform="scale(-1,1)" /><circle
         style="fill:#370188;fill-opacity:1;stroke:#370188;stroke-width:0.804104;stroke-opacity:1"
         id="path3-3-6-9-41-1-0-5"
         r="0.76141715"
         cy="250.61006"
         cx="225.7823"
         inkscape:transform-center-x="-2.567031"
         inkscape:transform-center-y="-3.6976775e-06"
         transform="scale(-1,1)" /><circle
         style="fill:#370188;fill-opacity:1;stroke:#370188;stroke-width:0.804104;stroke-opacity:1"
         id="path3-3-6-2-6-2-9-0"
         r="0.76141715"
         cy="260.03696"
         cx="225.30132"
         inkscape:transform-center-x="-2.5670514"
         inkscape:transform-center-y="7.9723223e-06"
         transform="scale(-1,1)" /><circle
         style="fill:#370188;fill-opacity:1;stroke:#370188;stroke-width:0.804104;stroke-opacity:1"
         id="path3-3-6-1-3-7-6-7"
         r="0.76141715"
         cy="269.82855"
         cx="225.46642"
         inkscape:transform-center-x="-2.5670697"
         inkscape:transform-center-y="1.4437816e-05"
         transform="scale(-1,1)" /><circle
         style="fill:#370188;fill-opacity:1;stroke:#370188;stroke-width:0.804104;stroke-opacity:1"
         id="path3-3-6-6-9-8-5-4"
         r="0.76141715"
         cy="279.96606"
         cx="226.03926"
         inkscape:transform-center-x="-2.5670424"
         inkscape:transform-center-y="-8.241693e-06"
         transform="scale(-1,1)" /><circle
         style="fill:#370188;fill-opacity:1;stroke:#370188;stroke-width:0.804104;stroke-opacity:1"
         id="path3-3-6-60-59-6-9-2"
         r="0.76141715"
         cy="289.76041"
         cx="226.61015"
         inkscape:transform-center-x="-2.5670376"
         inkscape:transform-center-y="-1.4574684e-05"
         transform="scale(-1,1)" /><path
         style="fill:#ffffff;fill-opacity:1;stroke:#370188;stroke-width:3.21643;stroke-dasharray:none;stroke-opacity:1"
         d="m -234.09095,184.29025 c -3.37258,-3.08898 -6.1441,1.80683 -3.08896,3.72209"
         id="path15-1-0-5-7"
         sodipodi:nodetypes="cc" /></g><rect
       style="fill:none;fill-opacity:1;fill-rule:nonzero;stroke:#370188;stroke-width:3.175;stroke-dasharray:none;stroke-opacity:1"
       id="rect113-4-2"
       width="282.57498"
       height="354.01248"
       x="1.5875"
       y="1.5875" /><path
       style="fill:#fe8b96;fill-opacity:1;stroke:#370188;stroke-width:3.175;stroke-linejoin:miter;stroke-dasharray:none;stroke-opacity:1"
       d="m 64.248097,210.86594 h 17.184687 v 10.10863 c 0,0 0.604298,3.17039 1.819561,5.05433 -5.23621,0.002 -14.970633,0.40207 -17.860105,0.0896 -1.276572,-2.19416 -1.548479,-5.54827 -1.548479,-5.54827 z"
       id="path2"
       sodipodi:nodetypes="ccccccc" /><path
       style="fill:#fe8b96;fill-opacity:1;stroke:#370188;stroke-width:3.175;stroke-linejoin:miter;stroke-dasharray:none;stroke-opacity:1"
       d="m 67.082012,255.32291 h 17.184687 v 10.10863 c 0,0 0.604298,3.17039 1.819561,5.05433 -5.23621,0.002 -14.970633,0.40207 -17.860105,0.0896 -1.276572,-2.19416 -1.548479,-5.54827 -1.548479,-5.54827 z"
       id="path2-3"
       sodipodi:nodetypes="ccccccc" /><path
       style="fill:#fe8b96;fill-opacity:1;stroke:#370188;stroke-width:3.175;stroke-linejoin:miter;stroke-dasharray:none;stroke-opacity:1"
       d="m 124.56201,214.65301 h 17.18469 v 10.10863 c 0,0 0.6043,3.17039 1.81956,5.05433 -5.23621,0.002 -14.97063,0.40207 -17.86011,0.0896 -1.27657,-2.19416 -1.54848,-5.54827 -1.54848,-5.54827 z"
       id="path2-6-9"
       sodipodi:nodetypes="ccccccc" /><path
       style="fill:#fe8b96;fill-opacity:1;stroke:#370188;stroke-width:3.175;stroke-linejoin:miter;stroke-dasharray:none;stroke-opacity:1"
       d="m 100.6841,258.76249 h 17.18469 v 10.10863 c 0,0 0.6043,3.17039 1.81956,5.05433 -5.23621,0.002 -14.97063,0.40207 -17.86011,0.0896 -1.27657,-2.19417 -1.54848,-5.54827 -1.54848,-5.54827 z"
       id="path2-6-97"
       sodipodi:nodetypes="ccccccc" /><path
       style="fill:#fed68b;fill-opacity:1;stroke:#370188;stroke-width:3.175;stroke-linejoin:miter;stroke-dasharray:none;stroke-opacity:1"
       d="m 117.61742,271.72708 h 17.1847 v 10.10864 c 0,0 0.60426,3.17038 1.81955,5.05432 -5.23621,0.002 -14.97063,0.40207 -17.8601,0.0896 -1.27658,-2.19416 -1.54848,-5.54827 -1.54848,-5.54827 z"
       id="path2-41-6"
       sodipodi:nodetypes="ccccccc" /><path
       style="fill:#fed68b;fill-opacity:1;stroke:#370188;stroke-width:3.175;stroke-linejoin:miter;stroke-dasharray:none;stroke-opacity:1"
       d="m 262.36028,280.63121 h 17.1847 v 10.10864 c 0,0 0.60426,3.17038 1.81955,5.05432 -5.23621,0.002 -14.97063,0.40207 -17.8601,0.0896 -1.27658,-2.19416 -1.54848,-5.54827 -1.54848,-5.54827 z"
       id="path2-41-6-0"
       sodipodi:nodetypes="ccccccc" /><path
       style="fill:#fed68b;fill-opacity:1;stroke:#370188;stroke-width:3.175;stroke-linejoin:miter;stroke-dasharray:none;stroke-opacity:1"
       d="m 54.646592,278.34166 h 17.18469 v 10.10864 c 0,0 0.60427,3.17038 1.81956,5.05432 -5.23621,0.002 -14.97063,0.40207 -17.8601,0.0896 -1.27658,-2.19416 -1.54848,-5.54827 -1.54848,-5.54827 z"
       id="path2-41-47"
       sodipodi:nodetypes="ccccccc" /><path
       style="fill:#fed68b;fill-opacity:1;stroke:#370188;stroke-width:3.175;stroke-linejoin:miter;stroke-dasharray:none;stroke-opacity:1"
       d="m 69.198675,234.15625 h 17.18469 v 10.10864 c 0,0 0.60427,3.17038 1.81956,5.05432 -5.23621,0.002 -14.97063,0.40207 -17.8601,0.0896 -1.27658,-2.19416 -1.54848,-5.54827 -1.54848,-5.54827 z"
       id="path2-41-49"
       sodipodi:nodetypes="ccccccc" /></g></svg>
