<?xml version="1.0" encoding="UTF-8" standalone="no"?>
<!-- Created with Inkscape (http://www.inkscape.org/) -->

<svg
   width="1080"
   height="1350"
   viewBox="0 0 285.74999 357.1875"
   version="1.1"
   id="svg1"
   inkscape:version="1.4 (e7c3feb1, 2024-10-09)"
   sodipodi:docname="panel-03.svg"
   xml:space="preserve"
   xmlns:inkscape="http://www.inkscape.org/namespaces/inkscape"
   xmlns:sodipodi="http://sodipodi.sourceforge.net/DTD/sodipodi-0.dtd"
   xmlns="http://www.w3.org/2000/svg"
   xmlns:svg="http://www.w3.org/2000/svg"><sodipodi:namedview
     id="namedview1"
     pagecolor="#ffffff"
     bordercolor="#000000"
     borderopacity="0.25"
     inkscape:showpageshadow="2"
     inkscape:pageopacity="0.0"
     inkscape:pagecheckerboard="0"
     inkscape:deskcolor="#d1d1d1"
     inkscape:document-units="px"
     inkscape:zoom="0.29065083"
     inkscape:cx="-154.82495"
     inkscape:cy="753.48142"
     inkscape:window-width="1728"
     inkscape:window-height="1057"
     inkscape:window-x="0"
     inkscape:window-y="32"
     inkscape:window-maximized="0"
     inkscape:current-layer="layer1"
     showguides="true"
     showgrid="false" /><defs
     id="defs1"><rect
       x="-122.81681"
       y="671.39855"
       width="540.39396"
       height="586.79142"
       id="rect1" /><rect
       x="337.60629"
       y="293.08679"
       width="868.13049"
       height="871.84045"
       id="rect26" /><rect
       x="358.01108"
       y="335.75131"
       width="877.4054"
       height="734.57196"
       id="rect25" /><rect
       x="418.44797"
       y="244.75258"
       width="748.0744"
       height="801.36731"
       id="rect16" /><clipPath
       clipPathUnits="userSpaceOnUse"
       id="clipPath32"><rect
         style="fill:none;fill-opacity:1;fill-rule:nonzero;stroke:#370188;stroke-width:3.175;stroke-dasharray:none;stroke-opacity:1"
         id="rect33"
         width="282.57498"
         height="354.01248"
         x="1.5875"
         y="15.875003" /></clipPath><clipPath
       clipPathUnits="userSpaceOnUse"
       id="clipPath33"><rect
         style="fill:none;fill-opacity:1;fill-rule:nonzero;stroke:#370188;stroke-width:3.175;stroke-dasharray:none;stroke-opacity:1"
         id="rect34"
         width="282.57498"
         height="354.01248"
         x="1.5875"
         y="15.875003"
         transform="scale(-1,1)" /></clipPath><clipPath
       clipPathUnits="userSpaceOnUse"
       id="clipPath34"><rect
         style="fill:none;fill-opacity:1;fill-rule:nonzero;stroke:#370188;stroke-width:3.175;stroke-dasharray:none;stroke-opacity:1"
         id="rect35"
         width="282.57498"
         height="354.01248"
         x="1.5875"
         y="15.875003" /></clipPath><clipPath
       clipPathUnits="userSpaceOnUse"
       id="clipPath35"><rect
         style="fill:none;fill-opacity:1;fill-rule:nonzero;stroke:#370188;stroke-width:3.175;stroke-dasharray:none;stroke-opacity:1"
         id="rect36"
         width="282.57498"
         height="354.01248"
         x="1.5875"
         y="15.875003" /></clipPath><clipPath
       clipPathUnits="userSpaceOnUse"
       id="clipPath1"><rect
         style="fill:none;fill-opacity:1;fill-rule:nonzero;stroke:#370188;stroke-width:0.695287;stroke-dasharray:none;stroke-opacity:1"
         id="rect2"
         width="61.880581"
         height="77.524551"
         x="-167.02388"
         y="-16.952217"
         transform="scale(-1,1)" /></clipPath><clipPath
       clipPathUnits="userSpaceOnUse"
       id="clipPath2"><rect
         style="fill:none;fill-opacity:1;fill-rule:nonzero;stroke:#370188;stroke-width:3.175;stroke-dasharray:none;stroke-opacity:1"
         id="rect3"
         width="282.57498"
         height="354.01248"
         x="139.64767"
         y="-132.82672"
         transform="rotate(21.214416)" /></clipPath><clipPath
       clipPathUnits="userSpaceOnUse"
       id="clipPath3"><rect
         style="fill:none;fill-opacity:1;fill-rule:nonzero;stroke:#370188;stroke-width:3.175;stroke-dasharray:none;stroke-opacity:1"
         id="rect4"
         width="282.57498"
         height="354.01248"
         x="1.5875"
         y="1.5875"
         transform="rotate(23.854687)" /></clipPath><clipPath
       clipPathUnits="userSpaceOnUse"
       id="clipPath5"><rect
         style="fill:none;fill-opacity:1;fill-rule:nonzero;stroke:#370188;stroke-width:3.175;stroke-dasharray:none;stroke-opacity:1"
         id="rect6"
         width="282.57498"
         height="354.01248"
         x="1.5875"
         y="1.5875"
         transform="rotate(23.854687)" /></clipPath><clipPath
       clipPathUnits="userSpaceOnUse"
       id="clipPath6"><rect
         style="fill:none;fill-opacity:1;fill-rule:nonzero;stroke:#370188;stroke-width:3.175;stroke-dasharray:none;stroke-opacity:1"
         id="rect7"
         width="282.57498"
         height="354.01248"
         x="114.21098"
         y="-148.05612"
         transform="rotate(21.830906)" /></clipPath><clipPath
       clipPathUnits="userSpaceOnUse"
       id="clipPath4"><rect
         style="fill:none;fill-opacity:1;fill-rule:nonzero;stroke:#370188;stroke-width:3.175;stroke-dasharray:none;stroke-opacity:1"
         id="rect5"
         width="282.57498"
         height="354.01248"
         x="-291.00757"
         y="-63.86795"
         transform="rotate(-15.932654)" /></clipPath></defs><g
     inkscape:label="Layer 1"
     inkscape:groupmode="layer"
     id="layer1"><text
       xml:space="preserve"
       transform="scale(0.26458333)"
       id="text16"
       style="font-style:normal;font-variant:normal;font-weight:bold;font-stretch:normal;font-size:60px;font-family:'Josefin Slab';-inkscape-font-specification:'Josefin Slab Bold';text-align:start;letter-spacing:0px;word-spacing:0px;writing-mode:lr-tb;direction:ltr;white-space:pre;shape-inside:url(#rect16);display:inline;fill:#000000;fill-opacity:0;stroke:#370188;stroke-width:12;stroke-opacity:1" /><text
       xml:space="preserve"
       transform="scale(0.26458333)"
       id="text25"
       style="font-style:normal;font-variant:normal;font-weight:bold;font-stretch:normal;font-size:60px;font-family:'Josefin Slab';-inkscape-font-specification:'Josefin Slab Bold';text-align:start;letter-spacing:0px;word-spacing:0px;writing-mode:lr-tb;direction:ltr;white-space:pre;shape-inside:url(#rect25);display:inline;fill:#000000;fill-opacity:0;stroke:#370188;stroke-width:12;stroke-opacity:1" /><text
       xml:space="preserve"
       transform="scale(0.26458333)"
       id="text26"
       style="font-style:normal;font-variant:normal;font-weight:bold;font-stretch:normal;font-size:60px;font-family:'Josefin Slab';-inkscape-font-specification:'Josefin Slab Bold';text-align:start;letter-spacing:0px;word-spacing:0px;writing-mode:lr-tb;direction:ltr;white-space:pre;shape-inside:url(#rect26);display:inline;fill:#000000;fill-opacity:0;stroke:#370188;stroke-width:12;stroke-opacity:1" /><rect
       width="9.8019896"
       height="15.875"
       rx="0"
       ry="0"
       fill="#6002ee"
       stroke-width="0"
       id="rect1-3-4-39-4-2-0-5-6"
       x="247.60098"
       y="332.84583" /><text
       font-family="Montserrat"
       font-size="618.11px"
       font-weight="200"
       stroke-width="0"
       fill="#33333"
       id="text3-0-3-0-0-5-3-3-2"
       x="248.33717"
       y="345.42685"
       style="font-style:normal;font-variant:normal;font-weight:300;font-stretch:normal;font-size:13.0774px;font-family:Montserrat;-inkscape-font-specification:'Montserrat Light'"
       transform="scale(0.99938968,1.0006107)"><tspan
         y="345.42685"
         font-weight="200"
         stroke-width="0"
         id="tspan1-4-8-6-2-1-2-5-9"
         style="font-style:normal;font-variant:normal;font-weight:300;font-stretch:normal;font-size:13.0774px;font-family:Montserrat;-inkscape-font-specification:'Montserrat Light'"><tspan
           style="font-style:normal;font-variant:normal;font-weight:300;font-stretch:normal;font-size:13.0774px;font-family:Montserrat;-inkscape-font-specification:'Montserrat Light';fill:#ffffff;fill-opacity:1;stroke-width:0"
           id="tspan3-6-3-13-5-2-1-6-6">k</tspan></tspan></text><text
       dx="0"
       dy="0"
       font-family="Montserrat"
       font-size="465.256px"
       font-weight="200"
       stroke-width="0"
       fill="#33333"
       id="text3-0-3-6-8-4-0-8-9"
       x="195.17656"
       y="345.42685"
       style="font-style:normal;font-variant:normal;font-weight:300;font-stretch:normal;font-size:13.0774px;font-family:Montserrat;-inkscape-font-specification:'Montserrat Light'"
       transform="scale(0.99938968,1.0006107)"><tspan
         y="345.42685"
         font-weight="200"
         stroke-width="0"
         id="tspan1-4-8-3-9-0-0-6-9"
         style="font-style:normal;font-variant:normal;font-weight:300;font-stretch:normal;font-size:13.0774px;font-family:Montserrat;-inkscape-font-specification:'Montserrat Light'">product</tspan></text><text
       font-family="Montserrat"
       font-size="465.256px"
       font-weight="200"
       stroke-width="0"
       fill="#33333"
       id="text3-0-3-6-4-3-4-3-7-8"
       x="257.78415"
       y="345.42685"
       style="font-style:normal;font-variant:normal;font-weight:300;font-stretch:normal;font-size:13.0774px;font-family:Montserrat;-inkscape-font-specification:'Montserrat Light'"
       transform="scale(0.99938968,1.0006107)"><tspan
         y="345.42685"
         font-weight="200"
         stroke-width="0"
         id="tspan1-4-8-3-6-9-9-9-7-0"
         style="font-style:normal;font-variant:normal;font-weight:300;font-stretch:normal;font-size:13.0774px;font-family:Montserrat;-inkscape-font-specification:'Montserrat Light'">ind</tspan></text><text
       xml:space="preserve"
       style="font-weight:bold;font-size:12.7px;font-family:Helvetica;-inkscape-font-specification:'Helvetica Bold';text-align:center;letter-spacing:0px;word-spacing:0px;writing-mode:lr-tb;direction:ltr;text-anchor:middle;fill:#fe8bed;fill-opacity:1;stroke:#370188;stroke-width:3.175;stroke-dasharray:none"
       x="112.57917"
       y="100.13621"
       id="text4"><tspan
         sodipodi:role="line"
         id="tspan4"
         style="stroke-width:3.175" /></text><text
       xml:space="preserve"
       transform="scale(0.26458333)"
       id="text1"
       style="font-weight:bold;font-size:96px;font-family:Montserrat;-inkscape-font-specification:'Montserrat Bold';text-align:start;letter-spacing:0px;word-spacing:0px;writing-mode:lr-tb;direction:ltr;white-space:pre;shape-inside:url(#rect1);display:inline;fill:#fe8bed;stroke-width:12" /><rect
       style="fill:none;fill-opacity:1;fill-rule:nonzero;stroke:#370188;stroke-width:3.175;stroke-dasharray:none;stroke-opacity:1"
       id="rect113-4-2"
       width="282.57498"
       height="354.01248"
       x="1.5875"
       y="1.5875" /><rect
       style="fill:#ffffff;fill-opacity:1;stroke:#370188;stroke-width:4.23332;stroke-linecap:round;stroke-dasharray:none;stroke-opacity:1"
       id="rect37-0"
       width="259.29166"
       height="140.15659"
       x="13.758327"
       y="69.056305" /><path
       style="fill:#fe8b96;fill-opacity:1;stroke:#370188;stroke-width:3.175;stroke-linejoin:miter;stroke-dasharray:none;stroke-opacity:1"
       d="m 63.10412,90.647896 h 17.184687 v 10.108644 c 0,0 0.604298,3.17038 1.819561,5.05432 -5.23621,0.002 -14.970633,0.40208 -17.860105,0.0896 -1.276572,-2.19415 -1.548479,-5.54827 -1.548479,-5.54827 z"
       id="path2"
       sodipodi:nodetypes="ccccccc" /><path
       style="fill:#fe8b96;fill-opacity:1;stroke:#370188;stroke-width:3.175;stroke-linejoin:miter;stroke-dasharray:none;stroke-opacity:1"
       d="m 92.517567,91.610326 h 17.184693 v 10.108644 c 0,0 0.6043,3.17038 1.81956,5.05432 -5.23621,0.002 -14.970638,0.40208 -17.86011,0.0896 -1.276572,-2.19415 -1.548479,-5.54827 -1.548479,-5.54827 z"
       id="path2-3"
       sodipodi:nodetypes="ccccccc" /><path
       style="fill:#fe8b96;fill-opacity:1;stroke:#370188;stroke-width:3.175;stroke-linejoin:miter;stroke-dasharray:none;stroke-opacity:1"
       d="m 125.31928,91.739307 h 17.18469 v 10.108643 c 0,0 0.6043,3.17038 1.81956,5.05432 -5.23621,0.002 -14.97064,0.40208 -17.86011,0.0896 -1.27657,-2.19415 -1.54848,-5.54827 -1.54848,-5.54827 z"
       id="path2-3-7"
       sodipodi:nodetypes="ccccccc" /><path
       style="fill:#018816;fill-opacity:1;stroke:#370188;stroke-width:3.175;stroke-dasharray:none;stroke-opacity:1"
       d="m 47.069736,273.34825 -2.448211,35.65858 51.51866,1.38376 -2.022444,-39.59698 z"
       id="path25-4-0" /><path
       style="fill:#ffffff;fill-opacity:1;stroke:#370188;stroke-width:3.175;stroke-dasharray:none;stroke-opacity:1"
       d="m 30.408479,281.79606 c 0,15.83268 7.109174,26.92819 17.072324,33.28661 2.370487,1.51282 4.902581,2.75752 7.53891,3.73402 23.316628,8.63654 54.788087,-3.70364 54.763767,-37.02063 l -15.068045,15.50715 -15.15129,-6.57609 -19.957541,9.34237 -10.755376,-11.69092 -8.490204,5.14359 z"
       id="path1-8-5"
       sodipodi:nodetypes="cssccccccc" /><path
       style="fill:#370189;fill-opacity:1;stroke:#370188;stroke-width:0;stroke-dasharray:none;stroke-opacity:1"
       d="m 54.336485,317.132 -3.826923,-5.27259 5.071174,2.35369 1.326261,-3.92795 0.376809,4.14213 4.169981,-3.19913 -2.573464,4.76485 5.632449,0.54649 -3.69281,2.89899 z"
       id="path3-2-0"
       sodipodi:nodetypes="cccccccccc" /><path
       style="fill:#370189;fill-opacity:1;stroke:#370188;stroke-width:0;stroke-dasharray:none;stroke-opacity:1"
       d="m 85.481202,317.66836 3.035109,-5.32826 -4.745513,2.65567 -0.408242,-3.99876 -1.235837,4.49196 -4.724654,-1.3668 3.409411,3.17528 -4.781804,1.08258 4.502499,2.28216 z"
       id="path3-1-5-5"
       sodipodi:nodetypes="cccccccccc" /><path
       style="fill:#ee4302;fill-opacity:1;stroke:#370188;stroke-width:3.175;stroke-dasharray:none;stroke-opacity:1"
       d="m 54.930813,318.46207 c -0.09081,0.82798 -0.110807,10.87927 -0.110807,10.87927 l -7.65791,4.01428 9.17048,-1.55093 0.742854,0.90942 0.700278,-0.93297 8.752491,1.41576 -6.925977,-3.71138 c 0,0 0.07017,-8.98281 0.0127,-9.10428 z"
       id="path7-8-7"
       sodipodi:nodetypes="cccccccccc" /><path
       style="fill:#ee4302;fill-opacity:1;stroke:#370188;stroke-width:3.175;stroke-dasharray:none;stroke-opacity:1"
       d="m 84.96936,317.72417 0.340043,12.60688 7.871142,2.69119 -9.979501,-1.45316 -0.742855,0.90941 -0.700309,-0.93297 -9.076214,1.20136 7.41826,-3.10319 c 0,0 0.16637,-9.20292 0.179705,-9.394 z"
       id="path7-4-0-4"
       sodipodi:nodetypes="cccccccccc" /><path
       style="fill:none;fill-opacity:1;stroke:#370188;stroke-width:3.175;stroke-dasharray:none;stroke-opacity:1"
       d="m 55.428971,294.14443 3.905726,-9.47851 22.305454,-0.053 3.054921,7.69033"
       id="path19-60-8"
       sodipodi:nodetypes="cccc" /><path
       style="fill:#fdc458;fill-opacity:1;stroke:#370188;stroke-width:3.175;stroke-dasharray:none;stroke-opacity:1"
       d="m 43.784976,263.40205 c 0,0 -38.4727755,27.21074 6.956203,15.58833 z"
       id="path17-0-0"
       sodipodi:nodetypes="ccc" /><path
       style="fill:#fdc458;fill-opacity:1;stroke:#370188;stroke-width:3.175;stroke-dasharray:none;stroke-opacity:1"
       d="m 100.0375,264.44094 c 0,0 34.30228,21.19084 -7.534786,15.42339 z"
       id="path16-7-6"
       sodipodi:nodetypes="ccc" /><path
       style="fill:#fdc458;fill-opacity:1;stroke:#370188;stroke-width:3.175;stroke-dasharray:none;stroke-opacity:1"
       d="M 86.415604,249.64062 C 103.84156,210.6987 36.784768,211.29548 53.824103,250.28387 l 15.592742,7.69652 z"
       id="path23-5-0"
       sodipodi:nodetypes="cccc" /><path
       style="fill:#018816;fill-opacity:1;stroke:#370188;stroke-width:3.175;stroke-dasharray:none;stroke-opacity:1"
       d="m 52.783751,279.10328 -9.800304,4.04721 -6.621494,-19.13719 13.522515,-5.46455 -0.305752,-10.09069 19.875563,9.57891 20.487099,-10.49623 v 8.56176 l 14.322172,7.7724 -6.590698,18.69104 -9.531286,-3.85836"
       id="path12-0-59"
       sodipodi:nodetypes="ccccccccccc" /><path
       style="fill:none;fill-opacity:1;stroke:#370188;stroke-width:3.175;stroke-dasharray:none;stroke-opacity:1"
       d="m 49.579351,258.34723 19.874928,4.4824 20.996306,-6.52113"
       id="path22-1-3"
       sodipodi:nodetypes="ccc" /><path
       style="fill:none;fill-opacity:1;stroke:#370188;stroke-width:3.175;stroke-dasharray:none;stroke-opacity:1"
       d="m 60.272687,257.40029 -3.37312,20.3066"
       id="path10-79-76"
       sodipodi:nodetypes="cc" /><path
       style="fill:none;fill-opacity:1;stroke:#370188;stroke-width:3.175;stroke-dasharray:none;stroke-opacity:1"
       d="m 77.71258,256.89387 2.501138,20.97739"
       id="path11-71-2"
       sodipodi:nodetypes="cc" /><path
       style="fill:none;fill-opacity:1;stroke:#370188;stroke-width:3.175;stroke-dasharray:none;stroke-opacity:1"
       d="m 69.109347,239.80533 5.982747,3.09451 -7.220553,3.30086"
       id="path24-70-98" /><path
       style="fill:none;fill-opacity:1;stroke:#370188;stroke-width:3.175;stroke-dasharray:none;stroke-opacity:1"
       d="m 70.223645,222.73694 c 5.406326,-4.70872 -5.057489,-5.05752 0.523208,-8.89426"
       id="path26-0-5"
       sodipodi:nodetypes="cc" /><path
       style="fill:none;stroke:#370188;stroke-width:3.175"
       d="m 61.23903,234.72877 c 0.400113,-3.07391 4.738973,-3.17942 5.669375,-0.23356"
       id="path1"
       sodipodi:nodetypes="cc" /><path
       style="fill:none;stroke:#370188;stroke-width:3.175"
       d="m 73.937283,234.6213 c 0.400114,-3.0739 4.738973,-3.17942 5.669375,-0.23355"
       id="path1-0"
       sodipodi:nodetypes="cc" /><path
       style="fill:#fed68b;fill-opacity:1;stroke:#370188;stroke-width:3.175;stroke-linejoin:miter;stroke-dasharray:none;stroke-opacity:1"
       d="m 33.573522,117.21076 h 17.184683 v 10.10864 c 0,0 0.60427,3.17039 1.81956,5.05433 -5.23621,0.002 -14.970628,0.40207 -17.8601,0.0896 -1.276572,-2.19416 -1.548479,-5.54827 -1.548479,-5.54827 z"
       id="path2-41"
       sodipodi:nodetypes="ccccccc" /><path
       style="fill:#fed68b;fill-opacity:1;stroke:#370188;stroke-width:3.175;stroke-linejoin:miter;stroke-dasharray:none;stroke-opacity:1"
       d="m 34.08682,143.93994 h 17.184683 v 10.10864 c 0,0 0.60427,3.17039 1.81956,5.05433 -5.23621,0.002 -14.970627,0.40207 -17.8601,0.0896 -1.276572,-2.19416 -1.548479,-5.54827 -1.548479,-5.54827 z"
       id="path2-41-7"
       sodipodi:nodetypes="ccccccc" /><path
       style="fill:#fed68b;fill-opacity:1;stroke:#370188;stroke-width:3.175;stroke-linejoin:miter;stroke-dasharray:none;stroke-opacity:1"
       d="m 34.273681,170.16264 h 17.184683 v 10.10864 c 0,0 0.60427,3.17039 1.81956,5.05433 -5.23621,0.002 -14.970628,0.40207 -17.8601,0.0896 -1.276572,-2.19416 -1.548479,-5.54827 -1.548479,-5.54827 z"
       id="path2-41-3"
       sodipodi:nodetypes="ccccccc" /><path
       style="fill:#fed68b;fill-opacity:1;stroke:#370188;stroke-width:3.175;stroke-linejoin:miter;stroke-dasharray:none;stroke-opacity:1"
       d="m 63.978121,117.63953 h 17.184683 v 10.10864 c 0,0 0.60427,3.17039 1.81956,5.05433 -5.23621,0.002 -14.970628,0.40207 -17.8601,0.0896 -1.276572,-2.19416 -1.548479,-5.54827 -1.548479,-5.54827 z"
       id="path2-41-6"
       sodipodi:nodetypes="ccccccc" /><path
       style="fill:#fed68b;fill-opacity:1;stroke:#370188;stroke-width:3.175;stroke-linejoin:miter;stroke-dasharray:none;stroke-opacity:1"
       d="m 93.117841,118.21087 h 17.184679 v 10.10864 c 0,0 0.60427,3.17039 1.81956,5.05433 -5.23621,0.002 -14.970624,0.40207 -17.860096,0.0896 -1.276572,-2.19416 -1.548479,-5.54827 -1.548479,-5.54827 z"
       id="path2-41-0"
       sodipodi:nodetypes="ccccccc" /><path
       style="fill:#fed68b;fill-opacity:1;stroke:#370188;stroke-width:3.175;stroke-linejoin:miter;stroke-dasharray:none;stroke-opacity:1"
       d="m 93.675945,143.73324 h 17.184685 v 10.10864 c 0,0 0.60427,3.17039 1.81956,5.05433 -5.23621,0.002 -14.97063,0.40207 -17.860102,0.0896 -1.276572,-2.19416 -1.548479,-5.54827 -1.548479,-5.54827 z"
       id="path2-41-0-9"
       sodipodi:nodetypes="ccccccc" /><path
       style="fill:#fed68b;fill-opacity:1;stroke:#370188;stroke-width:3.175;stroke-linejoin:miter;stroke-dasharray:none;stroke-opacity:1"
       d="m 126.70007,118.39773 h 17.18468 v 10.10864 c 0,0 0.60427,3.17039 1.81956,5.05433 -5.23621,0.002 -14.97062,0.40207 -17.8601,0.0896 -1.27657,-2.19416 -1.54847,-5.54827 -1.54847,-5.54827 z"
       id="path2-41-0-3"
       sodipodi:nodetypes="ccccccc" /><path
       style="fill:#fed68b;fill-opacity:1;stroke:#370188;stroke-width:3.175;stroke-linejoin:miter;stroke-dasharray:none;stroke-opacity:1"
       d="m 126.89769,143.03458 h 17.18468 v 10.10864 c 0,0 0.60427,3.17039 1.81956,5.05433 -5.23621,0.002 -14.97062,0.40207 -17.86009,0.0896 -1.27657,-2.19416 -1.54848,-5.54827 -1.54848,-5.54827 z"
       id="path2-41-0-7"
       sodipodi:nodetypes="ccccccc" /><path
       style="fill:#fed68b;fill-opacity:1;stroke:#370188;stroke-width:3.175;stroke-linejoin:miter;stroke-dasharray:none;stroke-opacity:1"
       d="m 127.17798,169.60453 h 17.18468 v 10.10864 c 0,0 0.60427,3.17039 1.81956,5.05433 -5.23621,0.002 -14.97062,0.40207 -17.86009,0.0896 -1.27657,-2.19416 -1.54848,-5.54827 -1.54848,-5.54827 z"
       id="path2-41-0-0"
       sodipodi:nodetypes="ccccccc" /><rect
       style="fill:#9a58fd;fill-opacity:1;stroke:#370188;stroke-width:3.175;stroke-dasharray:none;stroke-opacity:1"
       id="rect18"
       width="105.83333"
       height="21.166666"
       x="143.67807"
       y="251.61659"
       rx="10.583333" /><rect
       style="fill:#d7bdfe;fill-opacity:1;stroke:#370188;stroke-width:3.17498;stroke-dasharray:none;stroke-opacity:1"
       id="rect10-8"
       width="9.5250206"
       height="17.991848"
       x="161.66968"
       y="159.54156"
       rx="4.7625103" /><rect
       style="fill:#d7bdfe;fill-opacity:1;stroke:#370188;stroke-width:3.17496;stroke-dasharray:none;stroke-opacity:1"
       id="rect10-8-8"
       width="9.525032"
       height="17.991699"
       x="218.81969"
       y="159.54163"
       rx="4.762516" /><rect
       style="fill:#9a58fd;fill-opacity:1;stroke:#370188;stroke-width:3.17506;stroke-dasharray:none;stroke-opacity:1"
       id="rect9"
       width="53.974957"
       height="39.158276"
       x="168.01976"
       y="144.72501"
       rx="9.7154922" /><circle
       style="fill:#d7bdfe;fill-opacity:1;stroke:#370188;stroke-width:3.175;stroke-dasharray:none;stroke-opacity:1"
       id="path10"
       cx="195.00723"
       cy="121.16161"
       r="4.2333331" /><circle
       style="fill:#d7bdfe;fill-opacity:1;stroke:#370188;stroke-width:3.175;stroke-dasharray:none;stroke-opacity:1"
       id="path10-3"
       cx="154.79056"
       cy="262.19992"
       r="5.2916665" /><circle
       style="fill:#d7bdfe;fill-opacity:1;stroke:#370188;stroke-width:3.175;stroke-dasharray:none;stroke-opacity:1"
       id="path10-9"
       cx="237.86974"
       cy="262.19992"
       r="5.2916665" /><path
       style="fill:#ffffff;stroke:#370188;stroke-width:3.175;stroke-dasharray:none;stroke-opacity:1"
       d="m 195.00723,126.04533 v 17.98102"
       id="path11" /><rect
       style="fill:#ffffff;stroke:#370188;stroke-width:3.17495;stroke-dasharray:none;stroke-opacity:1"
       id="rect11"
       width="28.575048"
       height="3.1750476"
       x="180.71968"
       y="187.05827"
       rx="3.8625619" /><rect
       style="fill:#ffffff;stroke:#370188;stroke-width:3.17495;stroke-dasharray:none;stroke-opacity:1"
       id="rect11-0"
       width="28.575048"
       height="3.1750476"
       x="180.71968"
       y="193.40828"
       rx="3.8625619" /><rect
       style="fill:#ffffff;stroke:#370188;stroke-width:3.17495;stroke-dasharray:none;stroke-opacity:1"
       id="rect11-0-5"
       width="28.575048"
       height="3.1750476"
       x="180.71968"
       y="245.26656"
       rx="3.8625619" /><circle
       style="fill:#d7bdfe;fill-opacity:1;stroke:#370188;stroke-width:3.175;stroke-dasharray:none;stroke-opacity:1"
       id="path10-4"
       cx="171.4064"
       cy="262.19992"
       r="5.2916665" /><circle
       style="fill:#d7bdfe;fill-opacity:1;stroke:#370188;stroke-width:3.175;stroke-dasharray:none;stroke-opacity:1"
       id="path10-7"
       cx="188.02222"
       cy="262.19992"
       r="5.2916665" /><circle
       style="fill:#d7bdfe;fill-opacity:1;stroke:#370188;stroke-width:3.175;stroke-dasharray:none;stroke-opacity:1"
       id="path10-1"
       cx="204.63809"
       cy="262.19992"
       r="5.2916665" /><circle
       style="fill:#d7bdfe;fill-opacity:1;stroke:#370188;stroke-width:3.175;stroke-dasharray:none;stroke-opacity:1"
       id="path10-74"
       cx="221.25389"
       cy="262.19992"
       r="5.2916665" /><path
       style="fill:#d7bdfe;fill-opacity:1;stroke:#370188;stroke-width:3.175;stroke-dasharray:none;stroke-opacity:1"
       d="m 229.7798,216.08627 c 14.51235,0.70138 18.8462,9.5563 20.22453,11.55562 5.469,7.93302 14.78388,1.9285 8.64235,-6.32227 -3.65341,-4.90814 -12.91346,-16.87029 -28.71473,-16.14712"
       id="path19"
       sodipodi:nodetypes="cssc" /><path
       style="fill:none;fill-opacity:1;stroke:#370188;stroke-width:3.175;stroke-dasharray:none;stroke-opacity:1"
       id="path21"
       sodipodi:type="arc"
       sodipodi:cx="262.66165"
       sodipodi:cy="236.58687"
       sodipodi:rx="5.2916665"
       sodipodi:ry="5.2916665"
       sodipodi:start="2.191883"
       sodipodi:end="6.0837601"
       sodipodi:arc-type="arc"
       d="m 259.58233,240.8903 a 5.2916665,5.2916665 0 0 1 -1.8959,-6.10591 5.2916665,5.2916665 0 0 1 5.36686,-3.47468 5.2916665,5.2916665 0 0 1 4.79515,4.22885"
       sodipodi:open="true" /><path
       style="fill:none;fill-opacity:1;stroke:#370188;stroke-width:3.175;stroke-dasharray:none;stroke-opacity:1"
       d="m 236.09967,216.46549 2.96129,-9.98579"
       id="path22" /><path
       style="fill:none;fill-opacity:1;stroke:#370188;stroke-width:3.175;stroke-dasharray:none;stroke-opacity:1"
       d="m 242.49507,218.38186 5.13198,-7.81513"
       id="path23"
       sodipodi:nodetypes="cc" /><path
       style="fill:none;fill-opacity:1;stroke:#370188;stroke-width:3.175;stroke-dasharray:none;stroke-opacity:1"
       d="m 247.25621,223.00791 6.9556,-6.19808"
       id="path24" /><path
       style="fill:none;fill-opacity:1;stroke:#370188;stroke-width:3.175;stroke-dasharray:none;stroke-opacity:1"
       d="m 251.25052,228.79279 8.60844,-5.64714"
       id="path25" /><path
       style="fill:#d7bdfe;fill-opacity:1;stroke:#370188;stroke-width:3.175;stroke-dasharray:none;stroke-opacity:1"
       d="m 161.62246,206.16412 c -14.51235,-0.70138 -18.98475,-9.81901 -20.36308,-11.81834 -5.46904,-7.93301 -14.78388,-1.9285 -8.64239,6.32228 3.65341,4.90814 12.91346,16.87029 28.71474,16.14711"
       id="path19-3"
       sodipodi:nodetypes="cssc" /><path
       style="fill:none;fill-opacity:1;stroke:#370188;stroke-width:3.175;stroke-dasharray:none;stroke-opacity:1"
       id="path21-9"
       sodipodi:type="arc"
       sodipodi:cx="-128.6021"
       sodipodi:cy="-185.40126"
       sodipodi:rx="5.2916665"
       sodipodi:ry="5.2916665"
       sodipodi:start="2.191883"
       sodipodi:end="6.0837601"
       sodipodi:arc-type="arc"
       d="m -131.68142,-181.09783 a 5.2916665,5.2916665 0 0 1 -1.8959,-6.10591 5.2916665,5.2916665 0 0 1 5.36687,-3.47467 5.2916665,5.2916665 0 0 1 4.79514,4.22884"
       sodipodi:open="true"
       transform="scale(-1)" /><path
       style="fill:none;fill-opacity:1;stroke:#370188;stroke-width:3.175;stroke-dasharray:none;stroke-opacity:1"
       d="m 155.16403,205.52218 -2.96132,9.9858"
       id="path22-6" /><path
       style="fill:none;fill-opacity:1;stroke:#370188;stroke-width:3.175;stroke-dasharray:none;stroke-opacity:1"
       d="m 148.7686,203.60581 -5.13197,7.81514"
       id="path23-4"
       sodipodi:nodetypes="cc" /><path
       style="fill:none;fill-opacity:1;stroke:#370188;stroke-width:3.175;stroke-dasharray:none;stroke-opacity:1"
       d="m 144.00747,198.97977 -6.9556,6.19808"
       id="path24-9" /><path
       style="fill:none;fill-opacity:1;stroke:#370188;stroke-width:3.175;stroke-dasharray:none;stroke-opacity:1"
       d="m 140.01316,193.19489 -8.60844,5.64714"
       id="path25-2" /><rect
       style="fill:#9a58fd;fill-opacity:1;stroke:#370188;stroke-width:3.175;stroke-dasharray:none;stroke-opacity:1"
       id="rect16-7"
       width="68.791664"
       height="42.333332"
       x="160.61134"
       y="199.75829"
       rx="4.7624989" /><path
       style="fill:#fe8b96;fill-opacity:1;stroke:#370188;stroke-width:3.175;stroke-linejoin:miter;stroke-dasharray:none;stroke-opacity:1"
       d="m 32.511526,90.174003 h 17.18469 v 10.108627 c 0,0 0.6043,3.17039 1.81956,5.05433 -5.23621,0.002 -14.97063,0.40207 -17.86011,0.0896 -1.27657,-2.19416 -1.54848,-5.548267 -1.54848,-5.548267 z"
       id="path2-6-9"
       sodipodi:nodetypes="ccccccc" /></g></svg>
