<?xml version="1.0" encoding="UTF-8" standalone="no"?>
<!-- Created with Inkscape (http://www.inkscape.org/) -->

<svg
   width="1080"
   height="1350"
   viewBox="0 0 285.74999 357.1875"
   version="1.1"
   id="svg1"
   inkscape:version="1.4 (e7c3feb1, 2024-10-09)"
   sodipodi:docname="panel-01.svg"
   xml:space="preserve"
   xmlns:inkscape="http://www.inkscape.org/namespaces/inkscape"
   xmlns:sodipodi="http://sodipodi.sourceforge.net/DTD/sodipodi-0.dtd"
   xmlns="http://www.w3.org/2000/svg"
   xmlns:svg="http://www.w3.org/2000/svg"><sodipodi:namedview
     id="namedview1"
     pagecolor="#ffffff"
     bordercolor="#000000"
     borderopacity="0.25"
     inkscape:showpageshadow="2"
     inkscape:pageopacity="0.0"
     inkscape:pagecheckerboard="0"
     inkscape:deskcolor="#d1d1d1"
     inkscape:document-units="px"
     inkscape:zoom="0.53675781"
     inkscape:cx="419.18347"
     inkscape:cy="564.50041"
     inkscape:window-width="1728"
     inkscape:window-height="1057"
     inkscape:window-x="0"
     inkscape:window-y="32"
     inkscape:window-maximized="0"
     inkscape:current-layer="layer1"
     showguides="true" /><defs
     id="defs1"><rect
       x="333.80908"
       y="1018.855"
       width="416.9262"
       height="116.63209"
       id="rect14" /><rect
       x="337.60629"
       y="293.08679"
       width="868.13049"
       height="871.84045"
       id="rect26" /><rect
       x="358.01108"
       y="335.75131"
       width="877.4054"
       height="734.57196"
       id="rect25" /><rect
       x="418.44797"
       y="244.75258"
       width="748.0744"
       height="801.36731"
       id="rect16" /><clipPath
       clipPathUnits="userSpaceOnUse"
       id="clipPath32"><rect
         style="fill:none;fill-opacity:1;fill-rule:nonzero;stroke:#370188;stroke-width:3.175;stroke-dasharray:none;stroke-opacity:1"
         id="rect33"
         width="282.57498"
         height="354.01248"
         x="1.5875"
         y="15.875003" /></clipPath><clipPath
       clipPathUnits="userSpaceOnUse"
       id="clipPath33"><rect
         style="fill:none;fill-opacity:1;fill-rule:nonzero;stroke:#370188;stroke-width:3.175;stroke-dasharray:none;stroke-opacity:1"
         id="rect34"
         width="282.57498"
         height="354.01248"
         x="1.5875"
         y="15.875003"
         transform="scale(-1,1)" /></clipPath><clipPath
       clipPathUnits="userSpaceOnUse"
       id="clipPath34"><rect
         style="fill:none;fill-opacity:1;fill-rule:nonzero;stroke:#370188;stroke-width:3.175;stroke-dasharray:none;stroke-opacity:1"
         id="rect35"
         width="282.57498"
         height="354.01248"
         x="1.5875"
         y="15.875003" /></clipPath><clipPath
       clipPathUnits="userSpaceOnUse"
       id="clipPath35"><rect
         style="fill:none;fill-opacity:1;fill-rule:nonzero;stroke:#370188;stroke-width:3.175;stroke-dasharray:none;stroke-opacity:1"
         id="rect36"
         width="282.57498"
         height="354.01248"
         x="1.5875"
         y="15.875003" /></clipPath><clipPath
       clipPathUnits="userSpaceOnUse"
       id="clipPath1"><rect
         style="fill:none;fill-opacity:1;fill-rule:nonzero;stroke:#370188;stroke-width:0.695287;stroke-dasharray:none;stroke-opacity:1"
         id="rect2"
         width="61.880581"
         height="77.524551"
         x="-167.02388"
         y="-16.952217"
         transform="scale(-1,1)" /></clipPath><clipPath
       clipPathUnits="userSpaceOnUse"
       id="clipPath2"><rect
         style="fill:none;stroke:#370188;stroke-width:6.40779"
         id="rect3"
         width="56.397327"
         height="56.397327"
         x="-183.94559"
         y="134.2606" /></clipPath><clipPath
       clipPathUnits="userSpaceOnUse"
       id="clipPath34-6"><rect
         style="fill:none;fill-opacity:1;fill-rule:nonzero;stroke:#370188;stroke-width:3.175;stroke-dasharray:none;stroke-opacity:1"
         id="rect35-9"
         width="282.57498"
         height="354.01248"
         x="1.5875"
         y="15.875003" /></clipPath><clipPath
       clipPathUnits="userSpaceOnUse"
       id="clipPath35-1"><rect
         style="fill:none;fill-opacity:1;fill-rule:nonzero;stroke:#370188;stroke-width:3.175;stroke-dasharray:none;stroke-opacity:1"
         id="rect36-0"
         width="282.57498"
         height="354.01248"
         x="1.5875"
         y="15.875003" /></clipPath><clipPath
       clipPathUnits="userSpaceOnUse"
       id="clipPath33-4"><rect
         style="fill:none;fill-opacity:1;fill-rule:nonzero;stroke:#370188;stroke-width:3.175;stroke-dasharray:none;stroke-opacity:1"
         id="rect34-5"
         width="282.57498"
         height="354.01248"
         x="1.5875"
         y="15.875003"
         transform="scale(-1,1)" /></clipPath><clipPath
       clipPathUnits="userSpaceOnUse"
       id="clipPath32-8"><rect
         style="fill:none;fill-opacity:1;fill-rule:nonzero;stroke:#370188;stroke-width:3.175;stroke-dasharray:none;stroke-opacity:1"
         id="rect33-2"
         width="282.57498"
         height="354.01248"
         x="1.5875"
         y="15.875003" /></clipPath><clipPath
       clipPathUnits="userSpaceOnUse"
       id="clipPath1-1"><rect
         style="fill:none;fill-opacity:1;fill-rule:nonzero;stroke:#370188;stroke-width:0.695287;stroke-dasharray:none;stroke-opacity:1"
         id="rect2-6"
         width="61.880581"
         height="77.524551"
         x="-167.02388"
         y="-16.952217"
         transform="scale(-1,1)" /></clipPath><clipPath
       clipPathUnits="userSpaceOnUse"
       id="clipPath8"><rect
         style="fill:none;fill-opacity:1;fill-rule:nonzero;stroke:#370188;stroke-width:3.175;stroke-dasharray:none;stroke-opacity:1"
         id="rect8"
         width="282.57498"
         height="354.01248"
         x="1.5875"
         y="1.5875" /></clipPath><rect
       x="112.28611"
       y="2443.1587"
       width="250.23508"
       height="88.191882"
       id="rect57" /></defs><g
     inkscape:label="Layer 1"
     inkscape:groupmode="layer"
     id="layer1"><text
       xml:space="preserve"
       transform="scale(0.26458333)"
       id="text16"
       style="font-style:normal;font-variant:normal;font-weight:bold;font-stretch:normal;font-size:60px;font-family:'Josefin Slab';-inkscape-font-specification:'Josefin Slab Bold';text-align:start;letter-spacing:0px;word-spacing:0px;writing-mode:lr-tb;direction:ltr;white-space:pre;shape-inside:url(#rect16);display:inline;fill:#000000;fill-opacity:0;stroke:#370188;stroke-width:12;stroke-opacity:1" /><text
       xml:space="preserve"
       transform="scale(0.26458333)"
       id="text25"
       style="font-style:normal;font-variant:normal;font-weight:bold;font-stretch:normal;font-size:60px;font-family:'Josefin Slab';-inkscape-font-specification:'Josefin Slab Bold';text-align:start;letter-spacing:0px;word-spacing:0px;writing-mode:lr-tb;direction:ltr;white-space:pre;shape-inside:url(#rect25);display:inline;fill:#000000;fill-opacity:0;stroke:#370188;stroke-width:12;stroke-opacity:1" /><text
       xml:space="preserve"
       transform="scale(0.26458333)"
       id="text26"
       style="font-style:normal;font-variant:normal;font-weight:bold;font-stretch:normal;font-size:60px;font-family:'Josefin Slab';-inkscape-font-specification:'Josefin Slab Bold';text-align:start;letter-spacing:0px;word-spacing:0px;writing-mode:lr-tb;direction:ltr;white-space:pre;shape-inside:url(#rect26);display:inline;fill:#000000;fill-opacity:0;stroke:#370188;stroke-width:12;stroke-opacity:1" /><rect
       width="9.8019896"
       height="15.875"
       rx="0"
       ry="0"
       fill="#6002ee"
       stroke-width="0"
       id="rect1-3-4-39-4-2-0-5-6"
       x="247.60098"
       y="332.84583" /><text
       font-family="Montserrat"
       font-size="618.11px"
       font-weight="200"
       stroke-width="0"
       fill="#33333"
       id="text3-0-3-0-0-5-3-3-2"
       x="248.33717"
       y="345.42685"
       style="font-style:normal;font-variant:normal;font-weight:300;font-stretch:normal;font-size:13.0774px;font-family:Montserrat;-inkscape-font-specification:'Montserrat Light'"
       transform="scale(0.99938968,1.0006107)"><tspan
         y="345.42685"
         font-weight="200"
         stroke-width="0"
         id="tspan1-4-8-6-2-1-2-5-9"
         style="font-style:normal;font-variant:normal;font-weight:300;font-stretch:normal;font-size:13.0774px;font-family:Montserrat;-inkscape-font-specification:'Montserrat Light'"><tspan
           style="font-style:normal;font-variant:normal;font-weight:300;font-stretch:normal;font-size:13.0774px;font-family:Montserrat;-inkscape-font-specification:'Montserrat Light';fill:#ffffff;fill-opacity:1;stroke-width:0"
           id="tspan3-6-3-13-5-2-1-6-6">k</tspan></tspan></text><text
       dx="0"
       dy="0"
       font-family="Montserrat"
       font-size="465.256px"
       font-weight="200"
       stroke-width="0"
       fill="#33333"
       id="text3-0-3-6-8-4-0-8-9"
       x="195.17656"
       y="345.42685"
       style="font-style:normal;font-variant:normal;font-weight:300;font-stretch:normal;font-size:13.0774px;font-family:Montserrat;-inkscape-font-specification:'Montserrat Light'"
       transform="scale(0.99938968,1.0006107)"><tspan
         y="345.42685"
         font-weight="200"
         stroke-width="0"
         id="tspan1-4-8-3-9-0-0-6-9"
         style="font-style:normal;font-variant:normal;font-weight:300;font-stretch:normal;font-size:13.0774px;font-family:Montserrat;-inkscape-font-specification:'Montserrat Light'">product</tspan></text><text
       font-family="Montserrat"
       font-size="465.256px"
       font-weight="200"
       stroke-width="0"
       fill="#33333"
       id="text3-0-3-6-4-3-4-3-7-8"
       x="257.78415"
       y="345.42685"
       style="font-style:normal;font-variant:normal;font-weight:300;font-stretch:normal;font-size:13.0774px;font-family:Montserrat;-inkscape-font-specification:'Montserrat Light'"
       transform="scale(0.99938968,1.0006107)"><tspan
         y="345.42685"
         font-weight="200"
         stroke-width="0"
         id="tspan1-4-8-3-6-9-9-9-7-0"
         style="font-style:normal;font-variant:normal;font-weight:300;font-stretch:normal;font-size:13.0774px;font-family:Montserrat;-inkscape-font-specification:'Montserrat Light'">ind</tspan></text><path
       id="path5-1-2-1-7"
       style="fill:#fdc458;fill-opacity:1;stroke:#370188;stroke-width:3.175;stroke-dasharray:none;stroke-opacity:1"
       d="m 318.72195,189.37551 c -33.26103,-9.19874 -61.17286,-17.49726 -72.4022,-19.82961 -30.15401,-6.26273 -53.94337,35.83403 -27.05613,54.09692 10.10068,6.8606 35.89712,18.40595 66.43359,30.17521 10.78232,-21.5964 21.93874,-43.00174 33.02474,-64.44252 z"
       sodipodi:nodetypes="ccccc"
       clip-path="url(#clipPath8)" /><rect
       style="fill:none;fill-opacity:1;fill-rule:nonzero;stroke:#370188;stroke-width:3.175;stroke-dasharray:none;stroke-opacity:1"
       id="rect113-4-2"
       width="282.57498"
       height="354.01248"
       x="1.5875"
       y="1.5875" /><rect
       style="fill:#ffffff;fill-opacity:1;stroke:#370188;stroke-width:3.175;stroke-dasharray:none"
       id="rect9"
       width="156.843"
       height="274.26996"
       x="63.76255"
       y="39.748955"
       ry="27.098528" /><rect
       style="fill:#febddc;fill-opacity:1;stroke:#370188;stroke-width:1.00012"
       id="rect1-8"
       width="58.254902"
       height="36.732529"
       x="149.40709"
       y="134.82007"
       ry="4.7340546" /><rect
       style="fill:#370188;fill-opacity:1;stroke:#370188;stroke-width:3.175;stroke-dasharray:none"
       id="rect10"
       width="58.530125"
       height="9.4681091"
       x="113.6173"
       y="49.062012"
       ry="4.7340546" /><rect
       style="fill:#370188;fill-opacity:1;stroke:#370188;stroke-width:3.175;stroke-dasharray:none"
       id="rect11"
       width="4.7340536"
       height="2.5822113"
       x="160.95782"
       y="53.365696"
       ry="1.2911056" /><text
       xml:space="preserve"
       transform="scale(0.26458333)"
       id="text14"
       style="font-weight:bold;font-size:48px;font-family:Helvetica;-inkscape-font-specification:'Helvetica Bold';text-align:end;letter-spacing:0px;word-spacing:0px;writing-mode:lr-tb;direction:ltr;white-space:pre;shape-inside:url(#rect14);display:inline;fill:#370188;fill-opacity:1;stroke:#370188;stroke-width:12;stroke-dasharray:none" /><rect
       style="fill:#d7bdfe;fill-opacity:1;stroke:#370188;stroke-width:1.00012"
       id="rect1"
       width="107.83485"
       height="36.732525"
       x="78.282593"
       y="85.089775"
       ry="4.7340546" /><g
       id="g3"
       transform="matrix(0.43911739,0,0,0.43911739,-124.7686,56.166941)"><g
         id="color-13"
         transform="translate(636.70878,70.9556)"><path
           fill="#ffffff"
           stroke-miterlimit="10"
           d="M 48.72,20.15 C 49.0251,29.448 40.699,32.9 37.9,39.36 v 7.565 c 0,1.39 -1.11,2.5 -2.5,2.5 -1.38,0 -2.5,-1.11 -2.5,-2.5 V 37.06 C 36.393,30.918 43.28,29.591 43.57,20 c 0,-5.66 -6.543,-6.151 -7.988,-6.175 h -0.05 c -5.767,1.187 -6.135,4.99 -7.289,9.549 -0.6671,1.521 -1.564,2.045 -2.9,2.03 -1.36,-0.2401 -2.26,-1.54 -2.02,-2.9 0.5877,-2.752 0.758,-6.639 2.35,-8.502 2.71,-3.14 4.819,-4.957 9.179,-5.167 0.24,0 0.49,-0.01 0.73,-0.01 0.09,0 0.18,0 0.27,0.01 8.27,0.2401 12.6,2.992 12.87,11.32 z"
           id="path1-48" /><circle
           cx="34.950001"
           cy="58.84"
           r="3"
           fill="#ffffff"
           stroke-miterlimit="10"
           id="circle1-6" /></g><g
         id="line-150"
         transform="translate(636.79453,70.812681)"><circle
           cx="35.299999"
           cy="58.84"
           r="2.625"
           fill="none"
           stroke="#000000"
           stroke-linecap="round"
           stroke-linejoin="round"
           stroke-miterlimit="10"
           stroke-width="1.75"
           id="circle2-6"
           style="stroke:#370188;stroke-opacity:1" /><path
           d="m 35.67,10.07 c 6.57,0 12.03,3.431 12.03,10.21 0,3.671 -0.48,6.526 -3.71,9.755 -3.956,3.956 -7.184,6.346 -7.208,8.549 -0.0651,5.826 -0.005,8.278 -0.0044,8.36 a 1.476,1.476 0 0 1 -1.464,1.487 h -0.0115 a 1.476,1.476 0 0 1 -1.476,-1.464 c -5e-4,-0.0819 -0.0607,-2.561 0.0044,-8.416 0.0358,-3.231 3.63,-6.127 8.385,-10.88 2.178,-2.174 2.474,-4.716 2.474,-7.127 0,-3.282 -2.965,-7.587 -8.984,-7.587 -5.338,0 -8.499,3.467 -8.499,9.552 a 1.434,1.434 0 0 1 -1.395,1.587 1.552,1.552 0 0 1 -1.505,-1.759 c 0,-9.882 7.291,-12.27 11.36,-12.27 m 0,-2 c -4.964,0 -13.36,3.005 -13.36,14.27 a 3.519,3.519 0 0 0 3.505,3.759 3.418,3.418 0 0 0 3.395,-3.587 c 0,-3.445 1.128,-7.552 6.499,-7.552 4.817,0 6.984,3.267 6.984,5.587 0,2.364 -0.3155,4.144 -1.886,5.712 -0.7515,0.75 -1.474,1.454 -2.157,2.12 -3.933,3.833 -6.775,6.602 -6.815,10.15 -0.055,4.946 -0.0218,7.539 -0.005,8.424 a 3.4760221,3.4760221 0 1 0 6.952,-0.0248 l -0.0012,-0.075 c -0.0164,-0.8595 -0.0488,-3.384 0.0056,-8.248 0.0092,-0.8384 2.102,-2.822 3.948,-4.572 0.8091,-0.767 1.726,-1.636 2.675,-2.585 3.577,-3.577 4.296,-6.926 4.296,-11.17 0,-7.301 -5.638,-12.21 -14.03,-12.21 z"
           id="path2-53"
           style="fill:#370188;fill-opacity:1" /></g></g><g
       id="g2"
       transform="matrix(0.43911739,0,0,0.43911739,-140.27161,56.818839)"><path
         fill="#6a462f"
         stroke="#6a462f"
         stroke-miterlimit="10"
         stroke-width="2"
         d="m 588.57316,107.30877 c 2.2654,-7.928904 10,-3 10,-3 6,5 1,15 -8,13 -9,-2 -9,-12 -6,-17 3,-5.000004 14,-9.000004 21,-1.000004 1.8184,2.078104 2,6.000004 1,14.000004 l -1,5 -9,1"
         id="path1-5"
         style="fill:#bb7a02;fill-opacity:1;stroke:#bb7a02;stroke-opacity:1" /><path
         fill="#a57939"
         stroke="none"
         d="m 576.57316,122.30877 c 18.4032,1.6003 30.4041,0.9994 34.4661,0.2956 0.9792,-0.1697 1.901,-0.575 2.6746,-1.1989 16.7713,-13.5248 14.8593,-22.096704 9.8593,-23.096704 -3.1009,-0.6202 -9.1515,10.375604 -12,14.000004 -1.5905,2.0237 -5,4 -9,4"
         id="path2-45"
         style="fill:#fdb226;fill-opacity:1" /><g
         id="line-30"
         transform="translate(565.57316,68.308766)"
         style="stroke:#370188;stroke-opacity:1"><line
           x1="55"
           x2="57"
           y1="27"
           y2="30"
           fill="none"
           stroke="#000000"
           stroke-linecap="round"
           stroke-linejoin="round"
           stroke-miterlimit="10"
           stroke-width="2"
           id="line2-1"
           style="stroke:#370188;stroke-opacity:1" /><line
           x1="58.833302"
           x2="61"
           y1="29.3333"
           y2="25"
           fill="none"
           stroke="#000000"
           stroke-linecap="round"
           stroke-linejoin="round"
           stroke-miterlimit="10"
           stroke-width="2"
           id="line3-9"
           style="stroke:#370188;stroke-opacity:1" /><path
           fill="none"
           stroke="#000000"
           stroke-linecap="round"
           stroke-linejoin="round"
           stroke-miterlimit="10"
           stroke-width="2"
           d="m 23.0007,39 c 2.2654,-7.9289 10,-3 10,-3 6,5 1,15 -8,13 -9,-2 -9,-12 -6,-17 3,-5 14,-9 21,-1 1.8184,2.0781 3,5 1,12"
           id="path3-4"
           style="stroke:#370188;stroke-opacity:1" /><path
           fill="none"
           stroke="#000000"
           stroke-linecap="round"
           stroke-linejoin="round"
           stroke-miterlimit="10"
           stroke-width="2"
           d="m 11,55 c 18.4032,1.6003 30.4041,-6e-4 34.4661,-0.7044 0.9792,-0.1697 1.901,-0.575 2.6746,-1.1989 C 64.912,39.5719 63,31 58,30 54.8991,29.3798 48.8485,40.3756 46,44 c -1.5905,2.0237 -5,5 -9,5"
           id="path4-59"
           style="stroke:#370188;stroke-opacity:1" /></g></g><g
       id="g4"
       transform="matrix(0.43911739,0,0,0.43911739,-128.19642,55.704778)"><path
         fill="#fcea2b"
         stroke="#fcea2b"
         stroke-miterlimit="10"
         stroke-width="1.8"
         d="m 36.1089,44.1242 c 0,0 21.3368,-0.7112 10.6684,-20.6256 0,0 -2.8449,-7.8235 -10.6684,-7.8235 -2.2075,0 -4.0187,0.5096 -5.4973,1.2733 -3.7618,1.9427 -5.3718,5.5292 -5.8823,6.5502 -0.7113,1.4225 -11.3797,19.2032 11.3796,20.6256 z"
         id="path1-03"
         style="fill:#fdc458;fill-opacity:1;stroke:#fdc458;stroke-opacity:1"
         transform="translate(473.76615,74.493108)" /><path
         fill="#f1b31c"
         stroke="none"
         d="m 35.3719,30.6032 c 0,0 5.9251,-0.2907 0,5.2324 0,0 -5.9251,-5.2324 0,-5.2324 z"
         id="path2-00"
         style="fill:#fdb226;fill-opacity:1"
         transform="translate(473.76615,74.493108)" /><path
         fill="#ffffff"
         stroke="none"
         d="M 61.6942,37.9501 C 61.6942,52.3371 50.0313,64 35.6443,64 21.2573,64 9.5944,52.3371 9.5944,37.9501 l 7.4428,3.7214 6.5125,-4.6518 8.3732,5.5821 6.2024,-5.5821 8.1758,4.7364 7.0199,-5.6667 z"
         id="path3-3"
         transform="translate(473.76615,74.493108)" /><g
         id="line-60"
         transform="translate(473.76615,74.493108)"
         style="stroke:#370188;stroke-opacity:1"><circle
           cx="30.908001"
           cy="26.3629"
           r="2.3682001"
           fill="#000000"
           stroke="none"
           id="circle4-4"
           style="fill:#370188;fill-opacity:1;stroke:#370188;stroke-opacity:1" /><circle
           cx="40.380699"
           cy="26.3629"
           r="2.3682001"
           fill="#000000"
           stroke="none"
           id="circle5-0"
           style="fill:#370188;fill-opacity:1;stroke:#370188;stroke-opacity:1" /><line
           x1="34.796299"
           x2="33.433399"
           y1="14.9035"
           y2="9.7856998"
           fill="none"
           stroke="#000000"
           stroke-linecap="round"
           stroke-linejoin="round"
           stroke-miterlimit="10"
           stroke-width="2"
           id="line5-9"
           style="stroke:#370188;stroke-opacity:1" /><line
           x1="36.8284"
           x2="36.8284"
           y1="15.7062"
           y2="12.1539"
           fill="none"
           stroke="#000000"
           stroke-linecap="round"
           stroke-linejoin="round"
           stroke-miterlimit="10"
           stroke-width="2"
           id="line6-2"
           style="stroke:#370188;stroke-opacity:1" /><line
           x1="38.999199"
           x2="40.380699"
           y1="15.9035"
           y2="9.7856998"
           fill="none"
           stroke="#000000"
           stroke-linecap="round"
           stroke-linejoin="round"
           stroke-miterlimit="10"
           stroke-width="2"
           id="line7-4"
           style="stroke:#370188;stroke-opacity:1" /><path
           fill="none"
           stroke="#000000"
           stroke-linecap="round"
           stroke-linejoin="round"
           stroke-miterlimit="10"
           stroke-width="2"
           d="m 35.3719,30.6032 c 0,0 5.9251,-0.2907 0,5.2324 0,0 -5.9251,-5.2324 0,-5.2324 z"
           id="path7-92"
           style="stroke:#370188;stroke-opacity:1" /><path
           fill="none"
           stroke="#000000"
           stroke-linecap="round"
           stroke-linejoin="round"
           stroke-miterlimit="10"
           stroke-width="2"
           d="m 49.7637,33.4191 c 0.0286,-2.6167 -0.8175,-5.8717 -2.9865,-9.9204 0,0 -2.8449,-7.8235 -10.6684,-7.8235 -2.2075,0 -4.0187,0.5096 -5.4973,1.2733 -3.7618,1.9427 -5.3718,5.5292 -5.8823,6.5502 -0.3479,0.6959 -3.0787,5.3065 -3.1133,10.0017"
           id="path8-9"
           style="stroke:#370188;stroke-opacity:1" /><path
           fill="none"
           stroke="#000000"
           stroke-linecap="round"
           stroke-linejoin="round"
           stroke-miterlimit="10"
           stroke-width="2"
           d="M 61.6942,37.9501 C 61.6942,52.3371 50.0313,64 35.6443,64 21.2573,64 9.5944,52.3371 9.5944,37.9501 l 7.4428,3.7214 6.5125,-4.6518 8.3732,5.5821 6.2024,-5.5821 8.1758,4.7364 7.0199,-5.6667 z"
           id="path9-1"
           style="stroke:#370188;stroke-opacity:1" /></g></g><g
       id="color-2"
       transform="matrix(0.43911739,0,0,0.43911739,133.83014,88.61381)"><path
         fill="#f4aa41"
         stroke="none"
         d="m 52.2637,19.7373 c 0.4765,0.4775 0.916,0.9775 1.3418,1.4854 l 2.9004,-5.7286 C 45.1807,4.1689 26.8184,4.1689 15.4941,15.4941 l 2.9004,5.7286 c 0.4258,-0.5079 0.8653,-1.0079 1.3418,-1.4854 8.9834,-8.9834 23.544,-8.9834 32.5274,0 z"
         id="path1-6"
         sodipodi:nodetypes="ccccccc"
         style="fill:#fdb226;fill-opacity:1" /><path
         fill="#fcea2b"
         stroke="none"
         d="m 53.6055,21.2227 c -0.4258,-0.5079 -0.8653,-1.0079 -1.3418,-1.4854 -8.9834,-8.9834 -23.544,-8.9834 -32.5274,0 -0.4765,0.4775 -0.916,0.9775 -1.3418,1.4854 L 36,56 Z"
         id="path2-6"
         sodipodi:nodetypes="cccccc"
         style="fill:#fed68b;fill-opacity:1" /><circle
         cx="31"
         cy="24"
         r="5"
         fill="#ea5a47"
         stroke="none"
         id="circle2"
         style="fill:#ee4302;fill-opacity:1" /><circle
         cx="44"
         cy="24"
         r="3"
         fill="#ea5a47"
         stroke="none"
         id="circle3" /><circle
         cx="37"
         cy="36"
         r="3"
         fill="#ea5a47"
         stroke="none"
         id="circle4" /></g><g
       id="line-7"
       transform="matrix(0.43911739,0,0,0.43911739,133.83014,88.61381)"
       style="stroke:#370188;stroke-opacity:1"><path
         fill="none"
         stroke="#000000"
         stroke-linecap="round"
         stroke-linejoin="round"
         stroke-miterlimit="10"
         stroke-width="2"
         d="m 52.2637,19.7373 c 0.4765,0.4775 0.916,0.9775 1.3418,1.4854 l 2.9004,-5.7286 C 45.1807,4.1689 26.8184,4.1689 15.4941,15.4941 l 2.9004,5.7286 c 0.4258,-0.5079 0.8653,-1.0079 1.3418,-1.4854 8.9834,-8.9834 23.544,-8.9834 32.5274,0 z"
         id="path4-8"
         style="stroke:#370188;stroke-opacity:1" /><path
         fill="none"
         stroke="#000000"
         stroke-linecap="round"
         stroke-linejoin="round"
         stroke-miterlimit="10"
         stroke-width="2"
         d="m 53.6055,21.2227 c -0.4258,-0.5079 -0.8653,-1.0079 -1.3418,-1.4854 -8.9834,-8.9834 -23.544,-8.9834 -32.5274,0 -0.4765,0.4775 -0.916,0.9775 -1.3418,1.4854 L 36,56 Z"
         id="path5-41"
         style="stroke:#370188;stroke-opacity:1" /><circle
         cx="31"
         cy="24"
         r="5"
         fill="none"
         stroke="#000000"
         stroke-linecap="round"
         stroke-linejoin="round"
         stroke-miterlimit="10"
         stroke-width="2"
         id="circle5"
         style="stroke:#370188;stroke-opacity:1" /><circle
         cx="44"
         cy="24"
         r="3"
         fill="none"
         stroke="#000000"
         stroke-linecap="round"
         stroke-linejoin="round"
         stroke-miterlimit="10"
         stroke-width="2"
         id="circle6"
         style="fill:#ee4302;fill-opacity:1;stroke:#370188;stroke-opacity:1" /><circle
         cx="37"
         cy="36"
         r="3"
         fill="none"
         stroke="#000000"
         stroke-linecap="round"
         stroke-linejoin="round"
         stroke-miterlimit="10"
         stroke-width="2"
         id="circle7"
         style="fill:#ee4302;fill-opacity:1;stroke:#370188;stroke-opacity:1" /></g><text
       xml:space="preserve"
       transform="matrix(0.26458331,0,0,0.26458331,131.05257,-500.61056)"
       id="text57"
       style="font-style:normal;font-variant:normal;font-weight:bold;font-stretch:normal;font-size:48px;line-height:1.3;font-family:Montserrat;-inkscape-font-specification:'Montserrat Bold';text-align:start;letter-spacing:0px;word-spacing:0px;writing-mode:lr-tb;direction:ltr;white-space:pre;shape-inside:url(#rect57);display:inline;fill:#370188;fill-opacity:1;stroke:none;stroke-width:12;stroke-dasharray:none;stroke-opacity:1"><tspan
         x="112.28516"
         y="2488.4747"
         id="tspan1">Okay!</tspan></text></g></svg>
