<?xml version="1.0" encoding="UTF-8" standalone="no"?>
<!-- Created with Inkscape (http://www.inkscape.org/) -->

<svg
   width="6480"
   height="3240"
   viewBox="0 0 540 270"
   version="1.1"
   id="svg1"
   inkscape:version="1.4 (e7c3feb1, 2024-10-09)"
   sodipodi:docname="props.svg"
   xmlns:inkscape="http://www.inkscape.org/namespaces/inkscape"
   xmlns:sodipodi="http://sodipodi.sourceforge.net/DTD/sodipodi-0.dtd"
   xmlns:xlink="http://www.w3.org/1999/xlink"
   xmlns="http://www.w3.org/2000/svg"
   xmlns:svg="http://www.w3.org/2000/svg">
  <sodipodi:namedview
     id="namedview1"
     pagecolor="#ffffff"
     bordercolor="#000000"
     borderopacity="0.25"
     inkscape:showpageshadow="2"
     inkscape:pageopacity="0.0"
     inkscape:pagecheckerboard="0"
     inkscape:deskcolor="#d1d1d1"
     inkscape:document-units="px"
     inkscape:zoom="0.48940236"
     inkscape:cx="674.2918"
     inkscape:cy="2390.6709"
     inkscape:window-width="1104"
     inkscape:window-height="1057"
     inkscape:window-x="627"
     inkscape:window-y="32"
     inkscape:window-maximized="0"
     inkscape:current-layer="layer1"
     showguides="true"
     showgrid="false">
    <sodipodi:guide
       position="-112.46061,89.999674"
       orientation="0,-1"
       id="guide1"
       inkscape:locked="false" />
    <sodipodi:guide
       position="90,187.3597"
       orientation="1,0"
       id="guide2"
       inkscape:locked="false" />
    <sodipodi:guide
       position="0,209.35185"
       orientation="1,0"
       id="guide3"
       inkscape:locked="false" />
    <sodipodi:guide
       position="-10.710286,180"
       orientation="0,-1"
       id="guide4"
       inkscape:locked="false" />
    <sodipodi:guide
       position="180.00033,187.53841"
       orientation="1,0"
       id="guide5"
       inkscape:locked="false" />
    <sodipodi:guide
       position="269.96329,208.01051"
       orientation="1,0"
       id="guide6"
       inkscape:locked="false" />
    <sodipodi:guide
       position="360.00033,216.23047"
       orientation="1,0"
       id="guide7"
       inkscape:locked="false" />
    <sodipodi:guide
       position="449.99999,193.05214"
       orientation="1,0"
       id="guide8"
       inkscape:locked="false" />
    <sodipodi:guide
       position="-7.3948568,89.999674"
       orientation="0,-1"
       id="guide9"
       inkscape:locked="false" />
  </sodipodi:namedview>
  <defs
     id="defs1">
    <rect
       x="112.28611"
       y="2443.1586"
       width="882.38169"
       height="392.06567"
       id="rect57" />
    <rect
       x="100.12178"
       y="2431.93"
       width="581.08062"
       height="301.30106"
       id="rect56" />
    <rect
       x="90.641608"
       y="2414.9514"
       width="718.65846"
       height="328.03629"
       id="rect54" />
    <rect
       x="143.04041"
       y="2404.8069"
       width="251.29422"
       height="83.645853"
       id="rect53" />
    <rect
       x="130.56037"
       y="2384.6468"
       width="400.32114"
       height="269.76077"
       id="rect52" />
    <linearGradient
       id="swatch44"
       inkscape:swatch="solid">
      <stop
         style="stop-color:#ff80f1;stop-opacity:1;"
         offset="0"
         id="stop44" />
    </linearGradient>
    <linearGradient
       id="swatch43">
      <stop
         style="stop-color:#ff80f1;stop-opacity:1;"
         offset="0"
         id="stop43" />
    </linearGradient>
    <pattern
       inkscape:collect="always"
       xlink:href="#pattern12"
       preserveAspectRatio="xMidYMid"
       id="pattern15"
       patternTransform="translate(-4.2089842e-6,-2.1347655e-5)" />
    <pattern
       inkscape:collect="always"
       xlink:href="#pattern11"
       preserveAspectRatio="xMidYMid"
       id="pattern13"
       patternTransform="translate(-4.2089842e-6,-1.1347656e-5)" />
    <pattern
       patternUnits="userSpaceOnUse"
       width="145.16318"
       height="23.960763"
       patternTransform="translate(194.64706,528.93462)"
       preserveAspectRatio="xMidYMid"
       id="pattern11">
      <rect
         style="fill:#ffffff;stroke:#6002ee;stroke-width:12;stroke-dasharray:none"
         id="rect11-6"
         width="133.16318"
         height="11.960763"
         x="6"
         y="6"
         rx="17.999998" />
    </pattern>
    <pattern
       patternUnits="userSpaceOnUse"
       width="145.16317"
       height="23.960763"
       patternTransform="translate(194.64706,528.93461)"
       preserveAspectRatio="xMidYMid"
       id="pattern12">
      <rect
         style="fill:url(#pattern13);stroke:none"
         width="145.16318"
         height="23.960762"
         x="0"
         y="0"
         id="rect12" />
    </pattern>
    <pattern
       patternUnits="userSpaceOnUse"
       width="145.16317"
       height="23.960763"
       patternTransform="translate(194.64706,528.93461)"
       preserveAspectRatio="xMidYMid"
       id="pattern14"
       inkscape:label="pattern14">
      <rect
         style="fill:url(#pattern15);stroke:none"
         width="145.16318"
         height="23.960762"
         x="0"
         y="0"
         id="rect13" />
    </pattern>
    <clipPath
       clipPathUnits="userSpaceOnUse"
       id="clipPath50">
      <rect
         style="fill:none;fill-opacity:1;stroke:#370188;stroke-width:1;stroke-dasharray:none;stroke-opacity:1"
         id="rect50"
         width="89"
         height="89"
         x="0.5"
         y="182.82777" />
    </clipPath>
    <clipPath
       clipPathUnits="userSpaceOnUse"
       id="clipPath51">
      <rect
         style="fill:none;fill-opacity:1;stroke:#370188;stroke-width:1;stroke-dasharray:none;stroke-opacity:1"
         id="rect51"
         width="89"
         height="89"
         x="0.5"
         y="182.82777" />
    </clipPath>
  </defs>
  <g
     inkscape:label="Layer 1"
     inkscape:groupmode="layer"
     id="layer1">
    <rect
       style="fill:#fed68b;fill-opacity:1;stroke:none;stroke-width:1;stroke-dasharray:none;stroke-opacity:1"
       id="rect34"
       width="2.7398002"
       height="17.058477"
       x="27.065237"
       y="108.46325" />
    <path
       id="rect34-9"
       style="fill:#fed68b;fill-opacity:1;stroke:none;stroke-width:1;stroke-dasharray:none;stroke-opacity:1"
       d="m 21.817546,147.22786 0.03731,10.35818 c 0.104621,-0.067 0.170214,0.05 0.270961,0.29384 0.124528,-0.0987 0.24506,-0.20221 0.367513,-0.30338 0.142135,-0.12603 0.287014,-0.24805 0.437825,-0.36377 0.158511,-0.11608 0.318259,-0.23043 0.486003,-0.33285 0.622133,-0.45631 0.257059,-0.43104 1.269264,-0.64539 l -0.04088,-9.00711 z"
       sodipodi:nodetypes="ccccccccc" />
    <rect
       style="fill:#fed68b;fill-opacity:1;stroke:none;stroke-width:1;stroke-dasharray:none;stroke-opacity:1"
       id="rect34-1"
       width="5.8196478"
       height="17.103771"
       x="32.451836"
       y="108.37541" />
    <rect
       style="fill:#fed68b;fill-opacity:1;stroke:none;stroke-width:1;stroke-dasharray:none;stroke-opacity:1"
       id="rect34-1-3"
       width="4.2370462"
       height="16.595087"
       x="40.975361"
       y="108.99857" />
    <rect
       style="fill:#fed68b;fill-opacity:1;stroke:none;stroke-width:0.718779;stroke-dasharray:none;stroke-opacity:1"
       id="rect34-1-3-6"
       width="2.7324078"
       height="8.2048254"
       x="48.273994"
       y="154.84219"
       ry="0" />
    <path
       style="fill:#ffffff;fill-opacity:1;stroke:#370188;stroke-width:1;stroke-linejoin:miter;stroke-dasharray:none;stroke-opacity:1"
       d="M 155.83176,59.144663 H 108.47785 L 95.925034,74.822587 h 49.046196 z"
       id="path2-3"
       sodipodi:nodetypes="ccccc" />
    <path
       style="fill:#ffffff;fill-opacity:1;stroke:#370188;stroke-width:1;stroke-linejoin:miter;stroke-dasharray:none;stroke-opacity:1"
       d="m 139.78387,69.759719 5.51173,-8.069358 h -8.09646"
       id="path21"
       sodipodi:nodetypes="ccc" />
    <path
       style="fill:#ffffff;fill-opacity:1;stroke:#370188;stroke-width:1;stroke-linejoin:miter;stroke-dasharray:none;stroke-opacity:1"
       d="m 139.56729,69.580235 h -25.82458 l -4.69978,-16.254762 h 25.01511 z"
       id="path18"
       sodipodi:nodetypes="ccccc" />
    <ellipse
       style="fill:#370188;fill-opacity:1;stroke:#370188;stroke-width:0.74485;stroke-linejoin:miter;stroke-dasharray:none;stroke-opacity:1"
       id="path20"
       cx="-106.28683"
       cy="63.371471"
       rx="2.2072914"
       ry="1.7179495"
       transform="matrix(-1,0,0.26648382,0.96383939,0,0)" />
    <path
       style="fill:#370188;fill-opacity:1;stroke:#370188;stroke-width:0.812913;stroke-linejoin:miter;stroke-dasharray:none;stroke-opacity:1"
       d="m 139.19394,67.838087 2.48633,-3.778497 h -3.8036 z"
       id="path22"
       sodipodi:nodetypes="cccc" />
    <rect
       style="fill:#ffffff;fill-opacity:1;stroke:none;stroke-width:0.5;stroke-linecap:round;stroke-dasharray:none;stroke-opacity:1"
       id="rect14"
       width="8.4248276"
       height="11.862704"
       x="37.599022"
       y="37.612782" />
    <ellipse
       style="fill:#ffffff;fill-opacity:1;stroke:#370188;stroke-width:1.00532;stroke-opacity:1"
       id="path2-5-03-8"
       cx="41.760231"
       cy="38.213673"
       rx="4.2585411"
       ry="1.1075325" />
    <path
       style="fill:#ffffff;fill-opacity:1;stroke:#370188;stroke-width:1.00532;stroke-opacity:1"
       id="path2-5-03-3-2"
       sodipodi:type="arc"
       sodipodi:cx="41.760231"
       sodipodi:cy="48.856091"
       sodipodi:rx="4.2585411"
       sodipodi:ry="1.1075325"
       sodipodi:start="0"
       sodipodi:end="3.1415927"
       sodipodi:open="true"
       sodipodi:arc-type="arc"
       d="m 46.018772,48.856091 a 4.2585411,1.1075325 0 0 1 -2.12927,0.959151 4.2585411,1.1075325 0 0 1 -4.258542,0 4.2585411,1.1075325 0 0 1 -2.12927,-0.959151" />
    <ellipse
       style="fill:#370188;fill-opacity:1;stroke:none;stroke-width:1.95987"
       id="path20-5-6-6"
       cx="41.796959"
       cy="38.465336"
       rx="2.7531805"
       ry="0.58996719" />
    <path
       style="fill:#885901;stroke:#370188;stroke-width:1"
       d="M 37.499034,38.204008 V 48.880377"
       id="path2-5"
       sodipodi:nodetypes="cc" />
    <path
       style="fill:#885901;stroke:#370188;stroke-width:1"
       d="M 46.021447,38.203974 V 48.880342"
       id="path2-55-0"
       sodipodi:nodetypes="cc" />
    <text
       xml:space="preserve"
       style="font-weight:bold;font-size:1.66667px;font-family:'Josefin Slab';-inkscape-font-specification:'Josefin Slab Bold';text-align:start;letter-spacing:0px;word-spacing:0px;writing-mode:lr-tb;direction:ltr;text-anchor:start;fill:#370188;fill-opacity:1;stroke:none;stroke-width:2.14644"
       x="55.875923"
       y="-6.748436"
       id="text2-5"
       transform="rotate(53.658793)"><tspan
         sodipodi:role="line"
         style="font-style:normal;font-variant:normal;font-weight:900;font-stretch:normal;font-size:1.66667px;font-family:Montserrat;-inkscape-font-specification:'Montserrat Heavy';fill:#370188;fill-opacity:1;stroke:none;stroke-width:2.14644"
         x="55.875923"
         y="-6.748436"
         id="tspan5-3">talk &gt; type</tspan></text>
    <path
       style="fill:none;fill-opacity:1;stroke:#370188;stroke-width:1;stroke-opacity:1"
       d="m 46.01784,43.252745 c 0,-5.225562 3.245748,-4.15891 2.391692,-0.237159 -0.5451,2.50304 -2.39549,2.230668 -2.39549,4.782271"
       id="path6-6"
       sodipodi:nodetypes="csc" />
    <rect
       style="fill:#0e0023;fill-opacity:1;stroke:#9a58fd;stroke-width:1.33333;stroke-linecap:round;stroke-dasharray:none;stroke-opacity:1"
       id="rect37"
       width="81.666664"
       height="44.143806"
       x="183.83504"
       y="25.705574" />
    <rect
       style="fill:#ffffff;fill-opacity:1;stroke:#370188;stroke-width:1.33333;stroke-linecap:round;stroke-dasharray:none;stroke-opacity:1"
       id="rect37-0"
       width="81.666664"
       height="44.143806"
       x="274.3985"
       y="25.895304" />
    <path
       style="fill:#fe8b96;fill-opacity:1;stroke:#370188;stroke-width:1;stroke-linejoin:miter;stroke-dasharray:none;stroke-opacity:1"
       d="m 387.95673,47.766717 h 5.4125 v 3.183823 c 0,0 0.19033,0.998546 0.57309,1.591913 -1.6492,7.24e-4 -4.71516,0.126637 -5.62523,0.02822 -0.40207,-0.691072 -0.48771,-1.747486 -0.48771,-1.747486 z"
       id="path2"
       sodipodi:nodetypes="ccccccc" />
    <path
       style="fill:#fed68b;fill-opacity:1;stroke:#370188;stroke-width:1;stroke-linejoin:miter;stroke-dasharray:none;stroke-opacity:1"
       d="m 399.78701,48.093908 h 5.4125 v 3.183824 c 0,0 0.19032,0.998546 0.57309,1.591913 -1.6492,7.24e-4 -4.71516,0.126637 -5.62523,0.02822 -0.40207,-0.691073 -0.48771,-1.747487 -0.48771,-1.747487 z"
       id="path2-41"
       sodipodi:nodetypes="ccccccc" />
    <path
       style="fill:#ffffff;fill-opacity:1;stroke:#370188;stroke-width:1;stroke-opacity:1;stroke-dasharray:none"
       d="m 62.047534,40.490654 c 0.205241,6.4309 8.369301,6.48952 8.50612,-0.01"
       id="path18-9"
       sodipodi:nodetypes="cc" />
    <ellipse
       style="fill:#ffffff;fill-opacity:1;stroke:#370188;stroke-width:1;stroke-opacity:1;stroke-dasharray:none"
       id="path2-7"
       cx="66.299744"
       cy="40.515556"
       rx="4.2585411"
       ry="1.1075325" />
    <ellipse
       style="fill:#370188;fill-opacity:1;stroke:none;stroke-width:1.95987"
       id="path20-3"
       cx="66.318848"
       cy="40.76722"
       rx="2.7531805"
       ry="0.58996719" />
    <path
       style="fill:#563801;fill-opacity:1;stroke:#370188;stroke-width:1;stroke-dasharray:none;stroke-opacity:1"
       d="m 490.4023,48.353301 -15.45175,-0.266409 -7.19305,3.596527 0.0282,4.251568 16.5796,0.0045 6.00743,-4.022667 z"
       id="path8"
       sodipodi:nodetypes="ccccccc" />
    <path
       style="fill:none;fill-opacity:1;stroke:#370188;stroke-width:1;stroke-dasharray:none;stroke-opacity:1"
       d="m 490.27403,48.405262 -6.10264,3.749035 -16.2759,0.08541"
       id="path9"
       sodipodi:nodetypes="ccc" />
    <path
       style="fill:none;fill-opacity:1;stroke:#9a58fd;stroke-width:0.604902;stroke-dasharray:none;stroke-opacity:1"
       d="m 483.05551,50.301419 c 0.69835,0.01698 1.41509,-0.07598 2.00207,-0.262703 0.0391,-0.01249 0.0595,-0.03617 0.10019,-0.04777 0.0452,-0.01295 0.10793,-0.0088 0.15016,-0.02388 0.0298,-0.01069 0.0236,-0.03517 0.0503,-0.04777 0.10361,-0.04942 -0.004,0.07552 0.1,-0.02388 0.0683,-0.06528 -0.0724,-0.177748 -0.15015,-0.214938 -0.076,-0.03622 -0.15938,-0.0934 -0.25025,-0.119409 -0.33288,-0.0953 -1.38896,-0.06493 -1.75181,0 -0.75649,0.135355 -1.40093,0.34531 -2.05212,0.573166 -0.29498,0.103214 -0.61772,0.25484 -0.95098,0.334347 -0.0615,0.01468 -0.13869,0.0092 -0.20023,0.02388 -0.0211,0.005 -0.0265,0.02389 -0.0503,0.02389 -0.1335,0 -0.006,-0.230323 0,-0.23882 0.14344,-0.205332 0.2719,-0.422117 0.45048,-0.620929 0.13992,-0.155773 0.34172,-0.302225 0.50051,-0.453758 0.0297,-0.02822 0.17739,-0.191054 0.25027,-0.191054 0.0168,0 0,0.01592 0,0.02388 0,0.01606 0.0147,0.05755 0,0.07165 -0.0328,0.03132 -0.0979,0.02699 -0.15017,0.04777 -0.0726,0.02883 -0.12783,0.06669 -0.20021,0.09552 -0.15828,0.06293 -0.36817,0.09978 -0.55056,0.143292 -0.72233,0.172327 -0.41406,-0.334348 -0.95098,-0.334348 -0.035,0 -0.21924,-0.0074 -0.25025,0 -0.30273,0.07222 -0.38593,0.272507 -0.45047,0.405994 -0.14395,0.297669 -0.0718,0.03471 -0.20022,0.382112 -0.27272,0.737375 0.11036,-0.191929 -0.10008,0.310465 -0.0121,0.0292 -0.15311,0.43128 -0.25025,0.477638 -0.0614,0.02925 -0.1204,-0.05768 -0.2002,-0.143291 -0.20638,-0.221551 -0.40048,-0.445867 -0.60064,-0.668695 -0.0208,-0.02314 -0.023,-0.05007 -0.05,-0.07165 -0.0175,-0.0138 -0.18363,-0.09552 -0.2002,-0.09552 -0.0334,0 0,0.03184 0,0.04777 0,0.06557 0.0148,0.03352 -0.0503,0.09552 -0.18153,0.17323 -0.4249,0.429947 -0.95099,0.358228 -0.2504,-0.03413 -0.73094,-0.328485 -0.90091,-0.429875 -0.026,-0.01545 -0.19396,-0.143291 -0.20022,-0.143291 -0.0166,0 0,0.01592 0,0.02388 0,0.03963 0.008,0.05877 -0.05,0.09552 -0.0835,0.05311 -0.63477,0.196486 -0.75077,0.214938 -0.30161,0.04797 -0.66463,0.127996 -0.66463,0.340393"
       id="path10"
       sodipodi:nodetypes="csssccssssssscsssssssssssssssssssssssscsc" />
    <circle
       style="fill:none;fill-opacity:1;stroke:#370188;stroke-width:1;stroke-dasharray:none;stroke-opacity:1"
       id="path11"
       cx="-488.99789"
       cy="48.426884"
       r="0.50674933"
       transform="scale(-1,1)" />
    <circle
       style="fill:none;fill-opacity:1;stroke:#370188;stroke-width:1;stroke-dasharray:none;stroke-opacity:1"
       id="path11-6"
       cx="-486.55829"
       cy="49.921219"
       r="0.50674933"
       transform="scale(-1,1)" />
    <circle
       style="fill:none;fill-opacity:1;stroke:#370188;stroke-width:1;stroke-dasharray:none;stroke-opacity:1"
       id="path11-5"
       cx="-487.51959"
       cy="49.302872"
       r="0.50674933"
       transform="scale(-1,1)" />
    <circle
       style="fill:none;fill-opacity:1;stroke:#370188;stroke-width:1;stroke-dasharray:none;stroke-opacity:1"
       id="path11-6-2"
       cx="-485.38916"
       cy="50.64262"
       r="0.50674933"
       transform="scale(-1,1)" />
    <circle
       style="fill:none;fill-opacity:1;stroke:#370188;stroke-width:1;stroke-dasharray:none;stroke-opacity:1"
       id="path11-3"
       cx="-472.48923"
       cy="48.117714"
       r="0.50674933"
       transform="scale(-1,1)" />
    <circle
       style="fill:none;fill-opacity:1;stroke:#370188;stroke-width:1;stroke-dasharray:none;stroke-opacity:1"
       id="path11-6-25"
       cx="-471.28629"
       cy="48.787586"
       r="0.50674933"
       transform="scale(-1,1)" />
    <circle
       style="fill:none;fill-opacity:1;stroke:#370188;stroke-width:1;stroke-dasharray:none;stroke-opacity:1"
       id="path11-5-6"
       cx="-468.74365"
       cy="50.333447"
       r="0.50674933"
       transform="scale(-1,1)" />
    <circle
       style="fill:none;fill-opacity:1;stroke:#370188;stroke-width:1;stroke-dasharray:none;stroke-opacity:1"
       id="path11-6-2-1"
       cx="-470.0141"
       cy="49.560516"
       r="0.50674933"
       transform="scale(-1,1)" />
    <circle
       style="fill:none;fill-opacity:1;stroke:#370188;stroke-width:1;stroke-dasharray:none;stroke-opacity:1"
       id="path11-1"
       cx="-490.47421"
       cy="47.417751"
       r="0.50674933"
       transform="scale(-1,1)" />
    <circle
       style="fill:none;fill-opacity:1;stroke:#370188;stroke-width:1;stroke-dasharray:none;stroke-opacity:1"
       id="path11-6-7"
       cx="-488.80753"
       cy="47.417751"
       r="0.50674933"
       transform="scale(-1,1)" />
    <circle
       style="fill:none;fill-opacity:1;stroke:#370188;stroke-width:1;stroke-dasharray:none;stroke-opacity:1"
       id="path11-5-12"
       cx="-487.14087"
       cy="47.417751"
       r="0.50674933"
       transform="scale(-1,1)" />
    <circle
       style="fill:none;fill-opacity:1;stroke:#370188;stroke-width:1;stroke-dasharray:none;stroke-opacity:1"
       id="path11-6-2-4"
       cx="-485.47418"
       cy="47.417751"
       r="0.50674933"
       transform="scale(-1,1)" />
    <circle
       style="fill:none;fill-opacity:1;stroke:#370188;stroke-width:1;stroke-dasharray:none;stroke-opacity:1"
       id="path11-3-5"
       cx="-483.80753"
       cy="47.417751"
       r="0.50674933"
       transform="scale(-1,1)" />
    <circle
       style="fill:none;fill-opacity:1;stroke:#370188;stroke-width:1;stroke-dasharray:none;stroke-opacity:1"
       id="path11-6-25-1"
       cx="-482.14084"
       cy="47.417751"
       r="0.50674933"
       transform="scale(-1,1)" />
    <circle
       style="fill:none;fill-opacity:1;stroke:#370188;stroke-width:1;stroke-dasharray:none;stroke-opacity:1"
       id="path11-5-6-3"
       cx="-480.47418"
       cy="47.417751"
       r="0.50674933"
       transform="scale(-1,1)" />
    <circle
       style="fill:none;fill-opacity:1;stroke:#370188;stroke-width:1;stroke-dasharray:none;stroke-opacity:1"
       id="path11-6-2-1-9"
       cx="-478.8075"
       cy="47.417751"
       r="0.50674933"
       transform="scale(-1,1)" />
    <circle
       style="fill:none;fill-opacity:1;stroke:#370188;stroke-width:1;stroke-dasharray:none;stroke-opacity:1"
       id="path11-63-7"
       cx="-477.14087"
       cy="47.417751"
       r="0.50674933"
       transform="scale(-1,1)" />
    <circle
       style="fill:none;fill-opacity:1;stroke:#370188;stroke-width:1;stroke-dasharray:none;stroke-opacity:1"
       id="path11-6-0-9"
       cx="-475.47418"
       cy="47.417751"
       r="0.50674933"
       transform="scale(-1,1)" />
    <circle
       style="fill:none;fill-opacity:1;stroke:#370188;stroke-width:1;stroke-dasharray:none;stroke-opacity:1"
       id="path11-5-1-9"
       cx="-473.80753"
       cy="47.417751"
       r="0.50674933"
       transform="scale(-1,1)" />
    <circle
       style="fill:none;fill-opacity:1;stroke:#370188;stroke-width:1;stroke-dasharray:none;stroke-opacity:1"
       id="path11-1-3"
       cx="-484.40964"
       cy="51.405403"
       r="0.50674933"
       transform="scale(-1,1)" />
    <circle
       style="fill:none;fill-opacity:1;stroke:#370188;stroke-width:1;stroke-dasharray:none;stroke-opacity:1"
       id="path11-6-7-4"
       cx="-482.74295"
       cy="51.405403"
       r="0.50674933"
       transform="scale(-1,1)" />
    <circle
       style="fill:none;fill-opacity:1;stroke:#370188;stroke-width:1;stroke-dasharray:none;stroke-opacity:1"
       id="path11-5-12-0"
       cx="-481.07629"
       cy="51.405403"
       r="0.50674933"
       transform="scale(-1,1)" />
    <circle
       style="fill:none;fill-opacity:1;stroke:#370188;stroke-width:1;stroke-dasharray:none;stroke-opacity:1"
       id="path11-6-2-4-8"
       cx="-479.40961"
       cy="51.405403"
       r="0.50674933"
       transform="scale(-1,1)" />
    <circle
       style="fill:none;fill-opacity:1;stroke:#370188;stroke-width:1;stroke-dasharray:none;stroke-opacity:1"
       id="path11-3-5-0"
       cx="-477.74295"
       cy="51.405403"
       r="0.50674933"
       transform="scale(-1,1)" />
    <circle
       style="fill:none;fill-opacity:1;stroke:#370188;stroke-width:1;stroke-dasharray:none;stroke-opacity:1"
       id="path11-6-25-1-1"
       cx="-476.07626"
       cy="51.405403"
       r="0.50674933"
       transform="scale(-1,1)" />
    <circle
       style="fill:none;fill-opacity:1;stroke:#370188;stroke-width:1;stroke-dasharray:none;stroke-opacity:1"
       id="path11-5-6-3-5"
       cx="-474.40961"
       cy="51.405403"
       r="0.50674933"
       transform="scale(-1,1)" />
    <circle
       style="fill:none;fill-opacity:1;stroke:#370188;stroke-width:1;stroke-dasharray:none;stroke-opacity:1"
       id="path11-6-2-1-9-6"
       cx="-472.74292"
       cy="51.405403"
       r="0.50674933"
       transform="scale(-1,1)" />
    <circle
       style="fill:none;fill-opacity:1;stroke:#370188;stroke-width:1;stroke-dasharray:none;stroke-opacity:1"
       id="path11-63-7-5"
       cx="-471.07629"
       cy="51.405403"
       r="0.50674933"
       transform="scale(-1,1)" />
    <circle
       style="fill:none;fill-opacity:1;stroke:#370188;stroke-width:1;stroke-dasharray:none;stroke-opacity:1"
       id="path11-6-0-9-5"
       cx="-469.40961"
       cy="51.405403"
       r="0.50674933"
       transform="scale(-1,1)" />
    <circle
       style="fill:none;fill-opacity:1;stroke:#370188;stroke-width:1;stroke-dasharray:none;stroke-opacity:1"
       id="path11-5-1-9-8"
       cx="-467.74295"
       cy="51.405403"
       r="0.50674933"
       transform="scale(-1,1)" />
    <path
       style="fill:none;fill-opacity:1;stroke:#370188;stroke-width:1;stroke-dasharray:none;stroke-opacity:1"
       d="m 484.51682,55.854798 -0.0758,-4.113661"
       id="path12"
       sodipodi:nodetypes="cc" />
    <path
       id="rect15"
       style="fill:#fed68b;fill-opacity:1;stroke:#370188;stroke-width:1;stroke-dasharray:none;stroke-opacity:1"
       d="m 24.421071,108.83333 h -1.587727 c -0.554,0 -1,0.446 -1,1 V 124.5 c 0,0.554 0.446,1 1,1 h 1.587727 m 2.642701,0 h 2.737956 m 0,-14.37533 v -2.29134 h -2.737956 m 11.216661,0 h -5.835934 v 2.29134 m 0,14.37533 h 5.822754 m 7.129297,-16.70411 -0.08063,0.0374 H 41.089845 M 40.909987,125.5 h 4.367025 m 2.809581,0 h 1.913411 c 0.554,0 1,-0.446 1,-1 v -14.66667 c 0,-0.554 -0.446,-1 -1,-1 h -2.041341 v 0.417"
       sodipodi:nodetypes="csssscccccccccccccccccsssscc" />
    <g
       id="path15">
      <path
         style="fill:#fed68b"
         d="m 24.333333,116.5 h 24"
         id="path19" />
      <path
         id="path23"
         style="fill:#563801"
         d="m 22.333961,115.5 v 2 h 2.087077 v -2 z m 4.729811,0 v 2 h 2.737956 v -2 z m 5.380727,0 v 2 H 38.2736 c 4.66e-4,-0.66666 0.0011,-1.33334 0.0016,-2 z m 8.473466,0 c -5.65e-4,0.66667 -0.0012,1.33333 -0.0016,2 h 4.24707 c -0.0029,-0.66668 -0.0023,-1.33331 -0.0036,-2 z m 7.05108,0 c 0.0013,0.66669 8.55e-4,1.33332 0.0037,2 h 2.527832 v -2 z"
         sodipodi:nodetypes="ccccccccccccccccccccccccc" />
    </g>
    <g
       id="path15-5">
      <path
         style="fill:#fed68b"
         d="m 24.333333,121.5 h 24"
         id="path24" />
      <path
         id="path25"
         style="fill:#563801"
         d="m 22.333961,120.5 v 2 h 2.087077 v -2 z m 4.729811,0 v 2 h 2.737956 v -2 z m 5.380727,0 v 2 h 5.825195 c 2.95e-4,-0.66667 0.0011,-1.33334 0.0015,-2 z m 8.469397,0 c -3.48e-4,0.66667 -0.0012,1.33333 -0.0015,2 h 4.303874 c -0.01081,-0.66665 -0.02083,-1.33329 -0.02783,-2 z m 7.083957,0 c 0.007,0.66671 0.0173,1.33335 0.02816,2 h 2.474609 v -2 z"
         sodipodi:nodetypes="ccccccccccccccccccccccccc" />
    </g>
    <path
       id="path16"
       style="fill:#563801;fill-opacity:1;stroke:#563801;stroke-width:1;stroke-dasharray:none;stroke-opacity:1"
       d="m 23.266937,107.89079 c -1.584687,0 -2.201008,0.62347 -2.201008,2.50911 0,1.88564 0.541006,2.00574 2.157064,2.02474 0.626448,0.007 0.985946,-0.10547 1.198078,-0.28646 v -4.24739 z m 3.796835,0 v 2.0472 c 0.138725,-0.0137 0.289442,-0.0223 0.460612,-0.0223 2.046771,0 2.071682,0.7312 2.277344,1.26286 v -0.0539 -3.23388 z m 5.380727,0 v 3.23388 0.56218 c 2.336347,-0.22296 0.654156,-1.59522 3.607096,-1.59522 1.693916,0 1.930062,0.55601 2.226888,1.09831 0.0012,-0.935 7.24e-4,-1.87 0.0023,-2.80501 2.98e-4,-0.13987 9.98e-4,-0.34025 0.0013,-0.49414 z m 8.479668,0 c -2.06e-4,0.16584 -3.01e-4,0.33172 -6.51e-4,0.49756 -0.002,1.26128 -0.0015,2.52257 -0.0029,3.78385 0.125877,0.0136 0.252541,0.027 0.400879,0.0324 3.074196,0.11094 2.462067,-0.84563 3.831055,-1.02507 -7.08e-4,-0.64304 -0.0015,-1.2862 -0.0033,-1.92919 v -1.35954 z m 6.86779,0 v 1.35954 c 0.0019,0.70027 0.0029,1.40073 0.0036,2.10107 0.813107,0.3537 0.929744,1.05189 2.141275,1.11735 1.628707,0.088 1.928711,-1.27573 1.928711,-2.33219 0,-1.05646 -0.300061,-2.24577 -1.796711,-2.24577 z"
       sodipodi:nodetypes="sscccsccscccccccscccccccccccccccsssc" />
    <path
       id="rect34-7"
       style="fill:#fed68b;fill-opacity:1;stroke:none;stroke-width:1;stroke-dasharray:none;stroke-opacity:1"
       d="m 27.249349,146.40576 v 17.0586 h 2.739746 v -4.98096 c -0.127224,-0.0806 -0.250979,-0.16756 -0.370117,-0.26319 -0.278047,-0.2375 -0.537811,-0.49327 -0.765137,-0.78059 -0.209174,-0.26246 -0.417915,-0.52743 -0.562337,-0.83285 -0.03663,-0.0864 -0.07694,-0.17121 -0.109863,-0.25911 -0.104651,-0.27934 -0.141826,-0.5801 -0.148926,-0.87647 0.0017,-0.20449 0.0047,-0.40887 0.01107,-0.61328 0.01234,-0.34602 0.02774,-0.69427 0.110677,-1.03206 0.07809,-0.24291 0.10549,-0.38109 0.252929,-0.60157 0.224081,-0.33511 0.52419,-0.57909 0.887858,-0.74528 0.225856,-0.0974 0.457717,-0.17763 0.693848,-0.24365 v -5.82959 z"
       sodipodi:nodetypes="cccccccscccscccc" />
    <path
       id="rect34-1-1"
       style="fill:#fed68b;fill-opacity:1;stroke:none;stroke-width:1;stroke-dasharray:none;stroke-opacity:1"
       d="m 32.635905,146.31803 v 5.58366 c 0.04528,0.008 0.0909,0.0136 0.132812,0.0225 2.84e-4,1e-5 6.96e-4,-1e-5 9.77e-4,0 0.01783,10e-4 0.03572,10e-4 0.05355,0.002 0.136951,0.006 0.273858,0.0149 0.409994,0.0316 0.01852,0.002 0.185507,0.0211 0.184244,0.026 0.13194,0.001 0.263927,0.003 0.395671,0.0111 0.147005,0.0102 0.293661,0.0256 0.438802,0.0516 0.0084,0.002 0.03366,0.006 0.02506,0.006 -0.02065,0 -0.08249,-0.003 -0.06185,-0.002 0.08415,0.003 0.168229,0.005 0.252279,0.01 0.15292,0.0101 0.305553,0.0258 0.45638,0.0536 0.04295,0.003 0.08582,0.004 0.111654,9.8e-4 0.18807,0.007 0.375925,0.0185 0.563314,0.0365 0.270355,0.0279 0.540073,0.0637 0.805501,0.12337 0.286058,0.0565 0.568326,0.12874 0.849284,0.20654 0.280237,0.0803 0.562485,0.15401 0.843099,0.23291 0.119702,0.0286 0.239281,0.0575 0.358886,0.0864 v -6.48259 z m 1.855469,5.81088 c 0.0067,0.002 0.01334,0.004 0.02002,0.006 0.0043,9.7e-4 0.0081,0.002 0.01237,0.003 -0.0044,-0.002 -0.0059,-0.002 -0.0088,-0.003 -0.0074,-0.002 -0.01522,-0.004 -0.0236,-0.006 z m -1.855469,8.10123 v 3.19157 h 5.819661 v -2.43229 c -0.03867,0.007 -0.077,0.0162 -0.115722,0.0231 -0.187734,0.0338 -0.377327,0.0478 -0.567871,0.0418 -0.111697,-4e-5 -0.223427,-1.4e-4 -0.335124,-3.2e-4 -0.131448,-0.001 -0.262762,-9.6e-4 -0.394206,-0.002 -0.136724,-0.001 -0.273477,-0.004 -0.409993,-0.012 -0.174441,-0.0111 -0.348745,-0.0261 -0.521322,-0.0547 -0.128982,-0.0211 -0.188311,-0.0273 -0.384277,-0.0537 -0.04566,-0.008 -0.06471,-0.0136 -0.08496,-0.0187 -0.05078,-0.004 -0.104005,-0.008 -0.07536,-0.005 -0.1275,-0.0142 -0.253806,-0.0358 -0.378581,-0.0654 -0.0435,-0.005 -0.08712,-0.009 -0.130371,-0.0155 -0.0391,-0.006 -0.147105,-0.0257 -0.20166,-0.0374 -0.08154,-0.006 -0.162997,-0.0142 -0.243653,-0.0282 -0.04399,-0.008 -0.104477,-0.0218 -0.161132,-0.0343 -0.08899,-0.008 -0.17766,-0.0189 -0.264812,-0.04 -0.06177,-0.0151 -0.127903,-0.0342 -0.191731,-0.055 l -0.03141,-0.006 c -0.07674,-0.0186 -0.150468,-0.0416 -0.224772,-0.0646 -0.08725,-0.0168 -0.201017,-0.0392 -0.222982,-0.0485 -0.002,-5.5e-4 -0.0027,-8e-4 -0.006,-0.002 -0.05795,-0.01 -0.116176,-0.022 -0.172852,-0.036 -0.02695,-0.007 -0.05352,-0.0146 -0.08024,-0.0225 -0.09025,-0.0164 -0.179085,-0.0388 -0.266276,-0.0684 0.100767,0.082 -0.06815,-0.007 -0.207194,-0.0822 -0.02566,-0.0114 -0.04951,-0.025 -0.07422,-0.0379 -0.02484,-0.0102 -0.04856,-0.0227 -0.07292,-0.0339 z m 0.147135,0.0718 c 0.03678,0.0164 0.07403,0.0319 0.110189,0.0472 0.03199,0.0131 0.06453,0.024 0.09701,0.035 -0.01176,-0.01 -0.01814,-0.0158 -0.03971,-0.0314 -0.07905,-0.0254 -0.156679,-0.054 -0.233236,-0.0851 0.01666,0.009 0.0339,0.0172 0.06576,0.0343 z m 0.644857,0.17578 c 0.270821,0.0541 0.142353,0.001 0.01221,0.002 -0.0041,-4.2e-4 -0.0081,-10e-4 -0.01221,-0.002 z"
       sodipodi:nodetypes="cccccccccscccccccccccscccsscccccccccccccccccccccccccccccccsccccssccc" />
    <path
       id="rect34-1-3-4"
       style="fill:#fed68b;fill-opacity:1;stroke:none;stroke-width:1;stroke-dasharray:none;stroke-opacity:1"
       d="m 41.159505,146.94108 v 5.77669 c 0.09644,0.0352 0.192126,0.0723 0.28597,0.11426 0.18266,0.0723 0.189863,0.0881 0.336101,0.132 0.262644,0.0941 0.506571,0.22866 0.712402,0.41943 0.185125,0.1807 0.35919,0.37227 0.510579,0.58269 0.100347,0.14263 0.199713,0.28606 0.298828,0.42952 0.192248,0.19231 0.178311,0.15563 0.388021,0.51579 0.07224,0.15178 0.135284,0.30841 0.169434,0.47379 0.03566,0.15965 0.08475,0.31716 0.09798,0.48129 0.02458,0.20744 0.02976,0.41543 0.01579,0.62386 -0.01277,0.19118 -0.03439,0.38204 -0.0817,0.56819 -0.042,0.15639 -0.09307,0.30953 -0.146973,0.46208 -0.0746,0.18349 -0.114362,0.30778 -0.235189,0.4834 -0.01111,0.0161 0.01921,-0.0342 0.02881,-0.0513 -0.109676,0.18751 -0.229494,0.36805 -0.37321,0.53174 -0.149838,0.17587 -0.300819,0.35172 -0.47347,0.50602 -0.06324,0.0546 -0.270512,0.24942 -0.320312,0.26302 -0.01171,0.003 0.01853,-0.0154 0.02783,-0.0234 -0.232132,0.18962 -0.231931,0.16802 -0.4528,0.32325 -0.107158,0.0614 -0.216967,0.13547 -0.336751,0.17887 -0.08483,0.0452 -0.129335,0.069 -0.234863,0.12207 -1.71e-4,9e-5 -3.18e-4,2.3e-4 -4.89e-4,3.2e-4 -0.0063,0.004 -0.0079,0.004 -0.01188,0.007 -0.34242,0.19002 -0.08909,0.0498 -0.204102,0.11019 v 3.56478 H 45.39649 V 151.4961 c -0.351135,-0.20843 -0.701472,-0.41818 -1.052408,-0.62695 -0.276142,-0.16263 -0.54086,-0.34325 -0.797201,-0.53532 -0.227429,-0.17321 -0.41948,-0.37957 -0.580892,-0.61475 -0.124953,-0.19024 -0.204352,-0.40457 -0.253092,-0.62581 -0.03251,-0.15113 -0.03739,-0.30558 -0.03939,-0.45948 -0.002,-0.13327 0.005,-0.26637 -0.01253,-0.39876 -0.03277,-0.29083 -0.0894,-0.57835 -0.13265,-0.86784 -0.02149,-0.14154 -0.0393,-0.28352 -0.05485,-0.42578 z"
       sodipodi:nodetypes="cccccccccccccscccccccsccccccccccccccc" />
    <path
       id="rect15-4"
       style="fill:#fed68b;fill-opacity:1;stroke:#370188;stroke-width:1;stroke-dasharray:none;stroke-opacity:1"
       d="m 42.456706,146.76562 -1.18278,0.0103 h 1.183756 c -3.12e-4,-0.003 -6.68e-4,-0.007 -9.76e-4,-0.0103 z m -17.851561,0.0103 -1.58773,-5e-5 c -0.554,0 -1,0.446 -1,1 v 8.18564 c -0.01273,0.39441 0.01298,0.9962 0.02497,1.96382 m 5.205504,-11.14946 h 2.737956 z m 5.380697,0 v 2.29134 l 5.835937,-2.29134 z m 15.642087,16.66667 h 1.913411 c 0.554,0 1,-0.446 1,-1 v -8.17451 m -23.936195,9.17451 h 2.737956 z m 5.380697,0 h 5.822754 z m 8.465495,0 H 45.4611 Z"
       sodipodi:nodetypes="ccccccsccccccccccsscccccccccc" />
    <g
       id="path15-2"
       transform="translate(0.184071,37.942563)">
      <path
         style="fill:#fed68b"
         d="m 24.333333,116.5 h 24"
         id="path19-2" />
      <path
         id="path23-8"
         style="fill:#563801"
         d="m 22.333995,115.49998 v 2 h 2.087077 v -2 z m 4.729818,0 v 2 h 0.785319 c 0.0018,-0.19493 0.0045,-0.38977 0.01058,-0.58463 0.01235,-0.34602 0.02774,-0.69428 0.110677,-1.03207 0.04941,-0.15369 0.08107,-0.26609 0.133138,-0.3833 z m 15.302572,0 c 0.163411,0.16379 0.318669,0.33536 0.454101,0.5236 0.100347,0.14263 0.199713,0.28607 0.298828,0.42953 0.192248,0.19231 0.178311,0.15563 0.388021,0.51579 0.07224,0.15178 0.135284,0.30841 0.169434,0.47379 0.0043,0.0191 0.0093,0.0382 0.01383,0.0573 h 1.472819 c -0.0029,-0.66668 -0.0023,-1.33331 -0.0036,-2 z m 5.602702,0 c 0.0013,0.66669 7.15e-4,1.33332 0.0036,2 h 2.527832 v -1.13786 c -0.500196,-0.22914 -0.997505,-0.46448 -1.49056,-0.70865 -0.09841,-0.0496 -0.194879,-0.10292 -0.292806,-0.15349 z" />
    </g>
    <g
       id="path15-5-3"
       transform="translate(0.184071,37.942563)">
      <path
         style="fill:#fed68b"
         d="m 24.333333,121.5 h 24"
         id="path24-4" />
      <path
         id="path25-6"
         style="fill:#563801"
         d="m 27.063813,120.49998 v 2 h 2.737956 v -1.96126 c -0.01958,-0.0124 -0.03853,-0.026 -0.05794,-0.0387 z m 15.952962,0 c -0.01166,0.0139 -0.02252,0.0283 -0.03451,0.042 -0.149838,0.17587 -0.300819,0.35173 -0.47347,0.50603 -0.06324,0.0546 -0.270512,0.24942 -0.320312,0.26302 -0.01171,0.003 0.01853,-0.0154 0.02783,-0.0234 -0.232132,0.18962 -0.231931,0.16801 -0.4528,0.32324 -0.107158,0.0614 -0.216967,0.13548 -0.336751,0.17888 -0.08483,0.0452 -0.129335,0.069 -0.234863,0.12207 -1.71e-4,9e-5 -3.18e-4,2.3e-4 -4.89e-4,3.2e-4 -0.0063,0.003 -0.0079,0.004 -0.01188,0.007 -0.381982,0.21198 0.01967,-0.009 -0.227702,0.12288 0.02332,-0.0145 -0.01709,0.008 -0.03906,0.0207 -1.07e-4,0.14589 -2.59e-4,0.29177 -3.25e-4,0.43766 h 4.303874 c -0.01081,-0.66665 -0.02083,-1.33329 -0.02783,-2 z m 4.98112,0 c 0.007,0.66671 0.0173,1.33335 0.02816,2 h 2.474609 v -2 z m -15.553385,1.78435 v 0.21565 h 0.582356 c -0.07453,-0.0153 -0.148307,-0.0339 -0.220703,-0.0584 0.100767,0.082 -0.06815,-0.007 -0.207194,-0.0822 -0.02566,-0.0114 -0.04951,-0.0251 -0.07422,-0.0379 -0.02731,-0.0112 -0.05352,-0.0247 -0.08024,-0.0371 z m 0.154459,0.075 c 0.03678,0.0164 0.07403,0.032 0.110189,0.0472 0.03199,0.0131 0.06453,0.024 0.097,0.035 -0.01176,-0.01 -0.01814,-0.0158 -0.03971,-0.0314 -0.07905,-0.0254 -0.156679,-0.054 -0.233236,-0.0851 0.01666,0.009 0.0339,0.0172 0.06575,0.0343 z" />
    </g>
    <path
       id="path16-2"
       style="fill:#563801;fill-opacity:1;stroke:#563801;stroke-width:1;stroke-dasharray:none;stroke-opacity:1"
       d="m 23.451009,145.83333 c -1.584687,0 -2.201009,0.62348 -2.201009,2.50912 0,1.88564 0.541006,2.00574 2.157064,2.02474 0.626448,0.007 0.985947,-0.10547 1.198079,-0.28646 v -4.2474 z m 3.796875,0 v 2.0472 c 0.138725,-0.0137 0.289442,-0.0223 0.460612,-0.0223 2.046771,0 2.071682,0.73119 2.277344,1.26285 v -0.0539 -3.23389 z m 5.380697,0 v 3.23389 0.56217 c 2.336347,-0.22296 0.654156,-1.59521 3.607096,-1.59521 1.693916,0 1.930062,0.55601 2.226888,1.09831 0.0012,-0.935 6.82e-4,-1.87001 0.0023,-2.80502 2.98e-4,-0.13987 10e-4,-0.34025 0.0013,-0.49414 z m 8.479655,0 c -2.06e-4,0.16584 -3.01e-4,0.33172 -6.51e-4,0.49756 -0.002,1.26128 -0.0015,2.52258 -0.0029,3.78386 0.125877,0.0136 0.252541,0.027 0.400879,0.0324 0.787301,0.0284 1.330709,-0.0138 1.729655,-0.0944 -0.09794,-0.10365 -0.187556,-0.21502 -0.269206,-0.33398 -0.124953,-0.19024 -0.204352,-0.40457 -0.253092,-0.62581 -0.03251,-0.15113 -0.03739,-0.30558 -0.03939,-0.45948 -0.002,-0.13327 0.005,-0.26637 -0.01253,-0.39876 -0.03277,-0.29083 -0.0894,-0.57835 -0.13265,-0.86784 -0.0369,-0.24309 -0.06575,-0.48725 -0.08415,-0.73242 -0.01421,-0.26679 -0.01632,-0.53398 -0.01807,-0.80111 z"
       sodipodi:nodetypes="sscccsccscccccccsccccccccccccccccc" />
    <rect
       style="fill:none;fill-opacity:1;stroke:#370188;stroke-width:0.969865;stroke-dasharray:none;stroke-opacity:1"
       id="rect45"
       width="82.030136"
       height="51.280132"
       x="4.1515994"
       y="187.82692" />
    <path
       style="fill:none;fill-opacity:1;stroke:#370188;stroke-width:1;stroke-dasharray:none;stroke-opacity:1"
       d="m 4.0178988,239.22709 24.9966262,24.54202 82.807305,0 -25.698395,-24.79556"
       id="path45"
       sodipodi:nodetypes="cccc"
       clip-path="url(#clipPath51)" />
    <rect
       style="fill:none;fill-opacity:1;stroke:#370188;stroke-width:0.859237;stroke-dasharray:none;stroke-opacity:1"
       id="rect46"
       width="7.1407633"
       height="2.80743"
       x="41.438892"
       y="189.27162"
       ry="1.5"
       rx="1.5" />
    <rect
       style="fill:none;fill-opacity:1;stroke:#370188;stroke-width:1.03147;stroke-dasharray:none;stroke-opacity:1"
       id="rect47"
       width="78.968529"
       height="43.968525"
       x="5.6824141"
       y="193.69106" />
    <path
       style="fill:#370188;fill-opacity:1;stroke:#370188;stroke-width:1;stroke-dasharray:none;stroke-opacity:1"
       d="m 9.6221563,240.99802 12.1788927,11.72185 h 75.20803 L 84.904202,241.07203 Z"
       id="path49"
       sodipodi:nodetypes="ccccc"
       clip-path="url(#clipPath50)" />
    <path
       style="fill:none;fill-opacity:1;stroke:#370188;stroke-width:1;stroke-dasharray:none;stroke-opacity:1"
       d="M 79.601638,261.04767 73.43156,254.87759 H 50.122371 l 6.158743,6.15874 z"
       id="path50" />
    <text
       xml:space="preserve"
       style="font-style:normal;font-variant:normal;font-weight:bold;font-stretch:normal;font-size:1px;font-family:Montserrat;-inkscape-font-specification:'Montserrat Bold';text-align:center;letter-spacing:0px;word-spacing:0px;writing-mode:lr-tb;direction:ltr;text-anchor:middle;fill:none;fill-opacity:1;stroke:#370188;stroke-width:1;stroke-dasharray:none;stroke-opacity:1"
       x="15.360044"
       y="200.00056"
       id="text51"><tspan
         sodipodi:role="line"
         id="tspan51"
         style="stroke-width:1"
         x="15.360044"
         y="200.00056" /></text>
    <text
       xml:space="preserve"
       transform="scale(0.08333333)"
       id="text52"
       style="fill:none;text-orientation:auto;-inkscape-font-specification:'Montserrat Bold';font-family:Montserrat;font-size:12px;letter-spacing:0px;word-spacing:0px;stroke-width:12;font-weight:bold;text-align:center;stroke:#370188;writing-mode:lr-tb;direction:ltr;stroke-opacity:1;fill-opacity:1;stroke-dasharray:none;font-style:normal;font-stretch:normal;font-variant:normal;white-space:pre;shape-inside:url(#rect52)" />
    <text
       xml:space="preserve"
       transform="matrix(0.08333333,0,0,0.08333333,-4.6364493,-5.7241593)"
       id="text53"
       style="font-style:normal;font-variant:normal;font-weight:bold;font-stretch:normal;font-size:48px;font-family:Montserrat;-inkscape-font-specification:'Montserrat Bold';text-align:start;letter-spacing:0px;word-spacing:0px;writing-mode:lr-tb;direction:ltr;white-space:pre;shape-inside:url(#rect53);fill:none;fill-opacity:1;stroke:#370188;stroke-width:12;stroke-dasharray:none;stroke-opacity:1"
       x="-26.306301"
       y="0"><tspan
         x="143.04102"
         y="2463.6286"
         id="tspan14"><tspan
           style="font-size:64px;fill:#370188;stroke:none"
           id="tspan12">CHIRA</tspan><tspan
           style="font-weight:900;-inkscape-font-specification:'Montserrat Heavy';fill:#370188;stroke:none"
           id="tspan13">
</tspan></tspan><tspan
         x="143.04102"
         y="2528.9231"
         id="tspan16"><tspan
           style="font-weight:900;-inkscape-font-specification:'Montserrat Heavy';fill:#370188;stroke:none"
           id="tspan15">
</tspan></tspan></text>
    <text
       xml:space="preserve"
       transform="scale(0.08333333)"
       id="text54"
       style="font-style:normal;font-variant:normal;font-weight:900;font-stretch:normal;font-size:36px;font-family:Montserrat;-inkscape-font-specification:'Montserrat Heavy';text-align:start;letter-spacing:0px;word-spacing:0px;writing-mode:lr-tb;direction:ltr;white-space:pre;shape-inside:url(#rect54);fill:#370188;fill-opacity:1;stroke:none;stroke-width:12;stroke-dasharray:none;stroke-opacity:1" />
    <text
       xml:space="preserve"
       transform="scale(0.08333333)"
       id="text56"
       style="fill:#370188;text-orientation:auto;-inkscape-font-specification:'Montserrat Bold';font-family:Montserrat;font-size:64px;letter-spacing:0px;word-spacing:0px;stroke-width:12;font-weight:bold;text-align:start;stroke:none;writing-mode:lr-tb;direction:ltr;stroke-opacity:1;fill-opacity:1;stroke-dasharray:none;font-style:normal;font-stretch:normal;font-variant:normal;white-space:pre;shape-inside:url(#rect56)" />
    <text
       xml:space="preserve"
       transform="matrix(0.08333333,0,0,0.08333333,-0.78769126,-0.40525617)"
       id="text57"
       style="font-style:normal;font-variant:normal;font-weight:bold;font-stretch:normal;font-size:48px;font-family:Montserrat;-inkscape-font-specification:'Montserrat Bold';text-align:start;letter-spacing:0px;word-spacing:0px;writing-mode:lr-tb;direction:ltr;white-space:pre;shape-inside:url(#rect57);fill:#370188;fill-opacity:1;stroke:none;stroke-width:12;stroke-dasharray:none;stroke-opacity:1"><tspan
         x="112.28516"
         y="2487.2747"
         id="tspan17">ANML-20455 - As Giraffe, I want t...
</tspan><tspan
         x="112.28516"
         y="2547.2747"
         id="tspan18">ANML-20456 - As Giraffe, I want t...
</tspan><tspan
         x="112.28516"
         y="2607.2747"
         id="tspan19">ANML-20457 - As Giraffe, I want t...
</tspan><tspan
         x="112.28516"
         y="2667.2747"
         id="tspan20">ANML-20458 - As Giraffe, I want t...
</tspan><tspan
         x="112.28516"
         y="2727.2747"
         id="tspan21">ANML-20459 - As Giraffe, I want t...
</tspan><tspan
         x="112.28516"
         y="2787.2747"
         id="tspan22">ANML-20460 - As Giraffe, I want t...</tspan></text>
    <text
       xml:space="preserve"
       style="font-style:normal;font-variant:normal;font-weight:500;font-stretch:normal;font-size:4px;font-family:Montserrat;-inkscape-font-specification:'Montserrat Medium';text-align:start;letter-spacing:0px;word-spacing:0px;writing-mode:lr-tb;direction:ltr;text-anchor:start;fill:#370188;fill-opacity:1;stroke:none;stroke-width:1;stroke-dasharray:none;stroke-opacity:1"
       x="13.111228"
       y="228.68027"
       id="text58"><tspan
         sodipodi:role="line"
         id="tspan58"
         style="stroke-width:1" /></text>
  </g>
</svg>
