<?xml version="1.0" encoding="UTF-8" standalone="no"?>
<!-- Created with Inkscape (http://www.inkscape.org/) -->

<svg
   width="6480"
   height="3240"
   viewBox="0 0 540 270"
   version="1.1"
   id="svg1"
   inkscape:version="1.4 (e7c3feb1, 2024-10-09)"
   sodipodi:docname="props.svg"
   xmlns:inkscape="http://www.inkscape.org/namespaces/inkscape"
   xmlns:sodipodi="http://sodipodi.sourceforge.net/DTD/sodipodi-0.dtd"
   xmlns:xlink="http://www.w3.org/1999/xlink"
   xmlns="http://www.w3.org/2000/svg"
   xmlns:svg="http://www.w3.org/2000/svg">
  <sodipodi:namedview
     id="namedview1"
     pagecolor="#ffffff"
     bordercolor="#000000"
     borderopacity="0.25"
     inkscape:showpageshadow="2"
     inkscape:pageopacity="0.0"
     inkscape:pagecheckerboard="0"
     inkscape:deskcolor="#d1d1d1"
     inkscape:document-units="px"
     inkscape:zoom="0.48990074"
     inkscape:cx="4949.9823"
     inkscape:cy="1020.6149"
     inkscape:window-width="1728"
     inkscape:window-height="1057"
     inkscape:window-x="0"
     inkscape:window-y="32"
     inkscape:window-maximized="0"
     inkscape:current-layer="layer1"
     showguides="true"
     showgrid="false">
    <sodipodi:guide
       position="-112.46061,89.999674"
       orientation="0,-1"
       id="guide1"
       inkscape:locked="false" />
    <sodipodi:guide
       position="90,187.3597"
       orientation="1,0"
       id="guide2"
       inkscape:locked="false" />
    <sodipodi:guide
       position="0,209.35185"
       orientation="1,0"
       id="guide3"
       inkscape:locked="false" />
    <sodipodi:guide
       position="-10.710286,180"
       orientation="0,-1"
       id="guide4"
       inkscape:locked="false" />
    <sodipodi:guide
       position="180.00033,187.53841"
       orientation="1,0"
       id="guide5"
       inkscape:locked="false" />
    <sodipodi:guide
       position="269.96329,208.01051"
       orientation="1,0"
       id="guide6"
       inkscape:locked="false" />
    <sodipodi:guide
       position="360.00033,216.23047"
       orientation="1,0"
       id="guide7"
       inkscape:locked="false" />
    <sodipodi:guide
       position="449.99999,193.05214"
       orientation="1,0"
       id="guide8"
       inkscape:locked="false" />
    <sodipodi:guide
       position="-7.3948568,89.999674"
       orientation="0,-1"
       id="guide9"
       inkscape:locked="false" />
  </sodipodi:namedview>
  <defs
     id="defs1">
    <linearGradient
       id="swatch44"
       inkscape:swatch="solid">
      <stop
         style="stop-color:#ff80f1;stop-opacity:1;"
         offset="0"
         id="stop44" />
    </linearGradient>
    <linearGradient
       id="swatch43">
      <stop
         style="stop-color:#ff80f1;stop-opacity:1;"
         offset="0"
         id="stop43" />
    </linearGradient>
    <pattern
       inkscape:collect="always"
       xlink:href="#pattern12"
       preserveAspectRatio="xMidYMid"
       id="pattern15"
       patternTransform="translate(-4.2089842e-6,-2.1347655e-5)" />
    <pattern
       inkscape:collect="always"
       xlink:href="#pattern11"
       preserveAspectRatio="xMidYMid"
       id="pattern13"
       patternTransform="translate(-4.2089842e-6,-1.1347656e-5)" />
    <pattern
       patternUnits="userSpaceOnUse"
       width="145.16318"
       height="23.960763"
       patternTransform="translate(194.64706,528.93462)"
       preserveAspectRatio="xMidYMid"
       id="pattern11">
      <rect
         style="fill:#ffffff;stroke:#6002ee;stroke-width:12;stroke-dasharray:none"
         id="rect11-6"
         width="133.16318"
         height="11.960763"
         x="6"
         y="6"
         rx="17.999998" />
    </pattern>
    <pattern
       patternUnits="userSpaceOnUse"
       width="145.16317"
       height="23.960763"
       patternTransform="translate(194.64706,528.93461)"
       preserveAspectRatio="xMidYMid"
       id="pattern12">
      <rect
         style="fill:url(#pattern13);stroke:none"
         width="145.16318"
         height="23.960762"
         x="0"
         y="0"
         id="rect12" />
    </pattern>
    <pattern
       patternUnits="userSpaceOnUse"
       width="145.16317"
       height="23.960763"
       patternTransform="translate(194.64706,528.93461)"
       preserveAspectRatio="xMidYMid"
       id="pattern14"
       inkscape:label="pattern14">
      <rect
         style="fill:url(#pattern15);stroke:none"
         width="145.16318"
         height="23.960762"
         x="0"
         y="0"
         id="rect13" />
    </pattern>
  </defs>
  <g
     inkscape:label="Layer 1"
     inkscape:groupmode="layer"
     id="layer1">
    <path
       style="fill:#ffffff;fill-opacity:1;stroke:#370188;stroke-width:1;stroke-linejoin:miter;stroke-dasharray:none;stroke-opacity:1"
       d="M 155.83176,59.144663 H 108.47785 L 95.925034,74.822587 h 49.046196 z"
       id="path2-3"
       sodipodi:nodetypes="ccccc" />
    <path
       style="fill:#ffffff;fill-opacity:1;stroke:#370188;stroke-width:1;stroke-linejoin:miter;stroke-dasharray:none;stroke-opacity:1"
       d="m 139.78387,69.759719 5.51173,-8.069358 h -8.09646"
       id="path21"
       sodipodi:nodetypes="ccc" />
    <path
       style="fill:#ffffff;fill-opacity:1;stroke:#370188;stroke-width:1;stroke-linejoin:miter;stroke-dasharray:none;stroke-opacity:1"
       d="m 139.56729,69.580235 h -25.82458 l -4.69978,-16.254762 h 25.01511 z"
       id="path18"
       sodipodi:nodetypes="ccccc" />
    <ellipse
       style="fill:#370188;fill-opacity:1;stroke:#370188;stroke-width:0.74485;stroke-linejoin:miter;stroke-dasharray:none;stroke-opacity:1"
       id="path20"
       cx="-106.28683"
       cy="63.371471"
       rx="2.2072914"
       ry="1.7179495"
       transform="matrix(-1,0,0.26648382,0.96383939,0,0)" />
    <path
       style="fill:#370188;fill-opacity:1;stroke:#370188;stroke-width:0.812913;stroke-linejoin:miter;stroke-dasharray:none;stroke-opacity:1"
       d="m 139.19394,67.838087 2.48633,-3.778497 h -3.8036 z"
       id="path22"
       sodipodi:nodetypes="cccc" />
    <rect
       style="fill:#ffffff;fill-opacity:1;stroke:none;stroke-width:0.5;stroke-linecap:round;stroke-dasharray:none;stroke-opacity:1"
       id="rect14"
       width="8.4248276"
       height="11.862704"
       x="37.599022"
       y="37.612782" />
    <ellipse
       style="fill:#ffffff;fill-opacity:1;stroke:#370188;stroke-width:1.00532;stroke-opacity:1"
       id="path2-5-03-8"
       cx="41.760231"
       cy="38.213673"
       rx="4.2585411"
       ry="1.1075325" />
    <path
       style="fill:#ffffff;fill-opacity:1;stroke:#370188;stroke-width:1.00532;stroke-opacity:1"
       id="path2-5-03-3-2"
       sodipodi:type="arc"
       sodipodi:cx="41.760231"
       sodipodi:cy="48.856091"
       sodipodi:rx="4.2585411"
       sodipodi:ry="1.1075325"
       sodipodi:start="0"
       sodipodi:end="3.1415927"
       sodipodi:open="true"
       sodipodi:arc-type="arc"
       d="m 46.018772,48.856091 a 4.2585411,1.1075325 0 0 1 -2.12927,0.959151 4.2585411,1.1075325 0 0 1 -4.258542,0 4.2585411,1.1075325 0 0 1 -2.12927,-0.959151" />
    <ellipse
       style="fill:#370188;fill-opacity:1;stroke:none;stroke-width:1.95987"
       id="path20-5-6-6"
       cx="41.796959"
       cy="38.465336"
       rx="2.7531805"
       ry="0.58996719" />
    <path
       style="fill:#885901;stroke:#370188;stroke-width:1"
       d="M 37.499034,38.204008 V 48.880377"
       id="path2-5"
       sodipodi:nodetypes="cc" />
    <path
       style="fill:#885901;stroke:#370188;stroke-width:1"
       d="M 46.021447,38.203974 V 48.880342"
       id="path2-55-0"
       sodipodi:nodetypes="cc" />
    <text
       xml:space="preserve"
       style="font-weight:bold;font-size:1.66667px;font-family:'Josefin Slab';-inkscape-font-specification:'Josefin Slab Bold';text-align:start;letter-spacing:0px;word-spacing:0px;writing-mode:lr-tb;direction:ltr;text-anchor:start;fill:#370188;fill-opacity:1;stroke:none;stroke-width:2.14644"
       x="55.875923"
       y="-6.748436"
       id="text2-5"
       transform="rotate(53.658793)"><tspan
         sodipodi:role="line"
         style="font-style:normal;font-variant:normal;font-weight:900;font-stretch:normal;font-size:1.66667px;font-family:Montserrat;-inkscape-font-specification:'Montserrat Heavy';fill:#370188;fill-opacity:1;stroke:none;stroke-width:2.14644"
         x="55.875923"
         y="-6.748436"
         id="tspan5-3">talk &gt; type</tspan></text>
    <path
       style="fill:none;fill-opacity:1;stroke:#370188;stroke-width:1;stroke-opacity:1"
       d="m 46.01784,43.252745 c 0,-5.225562 3.245748,-4.15891 2.391692,-0.237159 -0.5451,2.50304 -2.39549,2.230668 -2.39549,4.782271"
       id="path6-6"
       sodipodi:nodetypes="csc" />
    <rect
       style="fill:#0e0023;fill-opacity:1;stroke:#9a58fd;stroke-width:1.33333;stroke-linecap:round;stroke-dasharray:none;stroke-opacity:1"
       id="rect37"
       width="81.666664"
       height="44.143806"
       x="183.83504"
       y="25.705574" />
    <rect
       style="fill:#ffffff;fill-opacity:1;stroke:#370188;stroke-width:1.33333;stroke-linecap:round;stroke-dasharray:none;stroke-opacity:1"
       id="rect37-0"
       width="81.666664"
       height="44.143806"
       x="274.3985"
       y="25.895304" />
    <path
       style="fill:#fe8b96;fill-opacity:1;stroke:#370188;stroke-width:1;stroke-linejoin:miter;stroke-dasharray:none;stroke-opacity:1"
       d="m 387.95673,47.766717 h 5.4125 v 3.183823 c 0,0 0.19033,0.998546 0.57309,1.591913 -1.6492,7.24e-4 -4.71516,0.126637 -5.62523,0.02822 -0.40207,-0.691072 -0.48771,-1.747486 -0.48771,-1.747486 z"
       id="path2"
       sodipodi:nodetypes="ccccccc" />
    <path
       style="fill:#fed68b;fill-opacity:1;stroke:#370188;stroke-width:1;stroke-linejoin:miter;stroke-dasharray:none;stroke-opacity:1"
       d="m 399.78701,48.093908 h 5.4125 v 3.183824 c 0,0 0.19032,0.998546 0.57309,1.591913 -1.6492,7.24e-4 -4.71516,0.126637 -5.62523,0.02822 -0.40207,-0.691073 -0.48771,-1.747487 -0.48771,-1.747487 z"
       id="path2-41"
       sodipodi:nodetypes="ccccccc" />
    <path
       style="fill:#ffffff;fill-opacity:1;stroke:#370188;stroke-width:1;stroke-opacity:1;stroke-dasharray:none"
       d="m 62.047534,40.490654 c 0.205241,6.4309 8.369301,6.48952 8.50612,-0.01"
       id="path18-9"
       sodipodi:nodetypes="cc" />
    <ellipse
       style="fill:#ffffff;fill-opacity:1;stroke:#370188;stroke-width:1;stroke-opacity:1;stroke-dasharray:none"
       id="path2-7"
       cx="66.299744"
       cy="40.515556"
       rx="4.2585411"
       ry="1.1075325" />
    <ellipse
       style="fill:#370188;fill-opacity:1;stroke:none;stroke-width:1.95987"
       id="path20-3"
       cx="66.318848"
       cy="40.76722"
       rx="2.7531805"
       ry="0.58996719" />
    <path
       style="fill:#563801;fill-opacity:1;stroke:#370188;stroke-width:1;stroke-dasharray:none;stroke-opacity:1"
       d="m 490.4023,48.353301 -15.45175,-0.266409 -7.19305,3.596527 0.0282,4.251568 16.5796,0.0045 6.00743,-4.022667 z"
       id="path8"
       sodipodi:nodetypes="ccccccc" />
    <path
       style="fill:none;fill-opacity:1;stroke:#370188;stroke-width:1;stroke-dasharray:none;stroke-opacity:1"
       d="m 490.27403,48.405262 -6.10264,3.749035 -16.2759,0.08541"
       id="path9"
       sodipodi:nodetypes="ccc" />
    <path
       style="fill:none;fill-opacity:1;stroke:#9a58fd;stroke-width:0.604902;stroke-dasharray:none;stroke-opacity:1"
       d="m 483.05551,50.301419 c 0.69835,0.01698 1.41509,-0.07598 2.00207,-0.262703 0.0391,-0.01249 0.0595,-0.03617 0.10019,-0.04777 0.0452,-0.01295 0.10793,-0.0088 0.15016,-0.02388 0.0298,-0.01069 0.0236,-0.03517 0.0503,-0.04777 0.10361,-0.04942 -0.004,0.07552 0.1,-0.02388 0.0683,-0.06528 -0.0724,-0.177748 -0.15015,-0.214938 -0.076,-0.03622 -0.15938,-0.0934 -0.25025,-0.119409 -0.33288,-0.0953 -1.38896,-0.06493 -1.75181,0 -0.75649,0.135355 -1.40093,0.34531 -2.05212,0.573166 -0.29498,0.103214 -0.61772,0.25484 -0.95098,0.334347 -0.0615,0.01468 -0.13869,0.0092 -0.20023,0.02388 -0.0211,0.005 -0.0265,0.02389 -0.0503,0.02389 -0.1335,0 -0.006,-0.230323 0,-0.23882 0.14344,-0.205332 0.2719,-0.422117 0.45048,-0.620929 0.13992,-0.155773 0.34172,-0.302225 0.50051,-0.453758 0.0297,-0.02822 0.17739,-0.191054 0.25027,-0.191054 0.0168,0 0,0.01592 0,0.02388 0,0.01606 0.0147,0.05755 0,0.07165 -0.0328,0.03132 -0.0979,0.02699 -0.15017,0.04777 -0.0726,0.02883 -0.12783,0.06669 -0.20021,0.09552 -0.15828,0.06293 -0.36817,0.09978 -0.55056,0.143292 -0.72233,0.172327 -0.41406,-0.334348 -0.95098,-0.334348 -0.035,0 -0.21924,-0.0074 -0.25025,0 -0.30273,0.07222 -0.38593,0.272507 -0.45047,0.405994 -0.14395,0.297669 -0.0718,0.03471 -0.20022,0.382112 -0.27272,0.737375 0.11036,-0.191929 -0.10008,0.310465 -0.0121,0.0292 -0.15311,0.43128 -0.25025,0.477638 -0.0614,0.02925 -0.1204,-0.05768 -0.2002,-0.143291 -0.20638,-0.221551 -0.40048,-0.445867 -0.60064,-0.668695 -0.0208,-0.02314 -0.023,-0.05007 -0.05,-0.07165 -0.0175,-0.0138 -0.18363,-0.09552 -0.2002,-0.09552 -0.0334,0 0,0.03184 0,0.04777 0,0.06557 0.0148,0.03352 -0.0503,0.09552 -0.18153,0.17323 -0.4249,0.429947 -0.95099,0.358228 -0.2504,-0.03413 -0.73094,-0.328485 -0.90091,-0.429875 -0.026,-0.01545 -0.19396,-0.143291 -0.20022,-0.143291 -0.0166,0 0,0.01592 0,0.02388 0,0.03963 0.008,0.05877 -0.05,0.09552 -0.0835,0.05311 -0.63477,0.196486 -0.75077,0.214938 -0.30161,0.04797 -0.66463,0.127996 -0.66463,0.340393"
       id="path10"
       sodipodi:nodetypes="csssccssssssscsssssssssssssssssssssssscsc" />
    <circle
       style="fill:none;fill-opacity:1;stroke:#370188;stroke-width:1;stroke-dasharray:none;stroke-opacity:1"
       id="path11"
       cx="-488.99789"
       cy="48.426884"
       r="0.50674933"
       transform="scale(-1,1)" />
    <circle
       style="fill:none;fill-opacity:1;stroke:#370188;stroke-width:1;stroke-dasharray:none;stroke-opacity:1"
       id="path11-6"
       cx="-486.55829"
       cy="49.921219"
       r="0.50674933"
       transform="scale(-1,1)" />
    <circle
       style="fill:none;fill-opacity:1;stroke:#370188;stroke-width:1;stroke-dasharray:none;stroke-opacity:1"
       id="path11-5"
       cx="-487.51959"
       cy="49.302872"
       r="0.50674933"
       transform="scale(-1,1)" />
    <circle
       style="fill:none;fill-opacity:1;stroke:#370188;stroke-width:1;stroke-dasharray:none;stroke-opacity:1"
       id="path11-6-2"
       cx="-485.38916"
       cy="50.64262"
       r="0.50674933"
       transform="scale(-1,1)" />
    <circle
       style="fill:none;fill-opacity:1;stroke:#370188;stroke-width:1;stroke-dasharray:none;stroke-opacity:1"
       id="path11-3"
       cx="-472.48923"
       cy="48.117714"
       r="0.50674933"
       transform="scale(-1,1)" />
    <circle
       style="fill:none;fill-opacity:1;stroke:#370188;stroke-width:1;stroke-dasharray:none;stroke-opacity:1"
       id="path11-6-25"
       cx="-471.28629"
       cy="48.787586"
       r="0.50674933"
       transform="scale(-1,1)" />
    <circle
       style="fill:none;fill-opacity:1;stroke:#370188;stroke-width:1;stroke-dasharray:none;stroke-opacity:1"
       id="path11-5-6"
       cx="-468.74365"
       cy="50.333447"
       r="0.50674933"
       transform="scale(-1,1)" />
    <circle
       style="fill:none;fill-opacity:1;stroke:#370188;stroke-width:1;stroke-dasharray:none;stroke-opacity:1"
       id="path11-6-2-1"
       cx="-470.0141"
       cy="49.560516"
       r="0.50674933"
       transform="scale(-1,1)" />
    <circle
       style="fill:none;fill-opacity:1;stroke:#370188;stroke-width:1;stroke-dasharray:none;stroke-opacity:1"
       id="path11-1"
       cx="-490.47421"
       cy="47.417751"
       r="0.50674933"
       transform="scale(-1,1)" />
    <circle
       style="fill:none;fill-opacity:1;stroke:#370188;stroke-width:1;stroke-dasharray:none;stroke-opacity:1"
       id="path11-6-7"
       cx="-488.80753"
       cy="47.417751"
       r="0.50674933"
       transform="scale(-1,1)" />
    <circle
       style="fill:none;fill-opacity:1;stroke:#370188;stroke-width:1;stroke-dasharray:none;stroke-opacity:1"
       id="path11-5-12"
       cx="-487.14087"
       cy="47.417751"
       r="0.50674933"
       transform="scale(-1,1)" />
    <circle
       style="fill:none;fill-opacity:1;stroke:#370188;stroke-width:1;stroke-dasharray:none;stroke-opacity:1"
       id="path11-6-2-4"
       cx="-485.47418"
       cy="47.417751"
       r="0.50674933"
       transform="scale(-1,1)" />
    <circle
       style="fill:none;fill-opacity:1;stroke:#370188;stroke-width:1;stroke-dasharray:none;stroke-opacity:1"
       id="path11-3-5"
       cx="-483.80753"
       cy="47.417751"
       r="0.50674933"
       transform="scale(-1,1)" />
    <circle
       style="fill:none;fill-opacity:1;stroke:#370188;stroke-width:1;stroke-dasharray:none;stroke-opacity:1"
       id="path11-6-25-1"
       cx="-482.14084"
       cy="47.417751"
       r="0.50674933"
       transform="scale(-1,1)" />
    <circle
       style="fill:none;fill-opacity:1;stroke:#370188;stroke-width:1;stroke-dasharray:none;stroke-opacity:1"
       id="path11-5-6-3"
       cx="-480.47418"
       cy="47.417751"
       r="0.50674933"
       transform="scale(-1,1)" />
    <circle
       style="fill:none;fill-opacity:1;stroke:#370188;stroke-width:1;stroke-dasharray:none;stroke-opacity:1"
       id="path11-6-2-1-9"
       cx="-478.8075"
       cy="47.417751"
       r="0.50674933"
       transform="scale(-1,1)" />
    <circle
       style="fill:none;fill-opacity:1;stroke:#370188;stroke-width:1;stroke-dasharray:none;stroke-opacity:1"
       id="path11-63-7"
       cx="-477.14087"
       cy="47.417751"
       r="0.50674933"
       transform="scale(-1,1)" />
    <circle
       style="fill:none;fill-opacity:1;stroke:#370188;stroke-width:1;stroke-dasharray:none;stroke-opacity:1"
       id="path11-6-0-9"
       cx="-475.47418"
       cy="47.417751"
       r="0.50674933"
       transform="scale(-1,1)" />
    <circle
       style="fill:none;fill-opacity:1;stroke:#370188;stroke-width:1;stroke-dasharray:none;stroke-opacity:1"
       id="path11-5-1-9"
       cx="-473.80753"
       cy="47.417751"
       r="0.50674933"
       transform="scale(-1,1)" />
    <circle
       style="fill:none;fill-opacity:1;stroke:#370188;stroke-width:1;stroke-dasharray:none;stroke-opacity:1"
       id="path11-1-3"
       cx="-484.40964"
       cy="51.405403"
       r="0.50674933"
       transform="scale(-1,1)" />
    <circle
       style="fill:none;fill-opacity:1;stroke:#370188;stroke-width:1;stroke-dasharray:none;stroke-opacity:1"
       id="path11-6-7-4"
       cx="-482.74295"
       cy="51.405403"
       r="0.50674933"
       transform="scale(-1,1)" />
    <circle
       style="fill:none;fill-opacity:1;stroke:#370188;stroke-width:1;stroke-dasharray:none;stroke-opacity:1"
       id="path11-5-12-0"
       cx="-481.07629"
       cy="51.405403"
       r="0.50674933"
       transform="scale(-1,1)" />
    <circle
       style="fill:none;fill-opacity:1;stroke:#370188;stroke-width:1;stroke-dasharray:none;stroke-opacity:1"
       id="path11-6-2-4-8"
       cx="-479.40961"
       cy="51.405403"
       r="0.50674933"
       transform="scale(-1,1)" />
    <circle
       style="fill:none;fill-opacity:1;stroke:#370188;stroke-width:1;stroke-dasharray:none;stroke-opacity:1"
       id="path11-3-5-0"
       cx="-477.74295"
       cy="51.405403"
       r="0.50674933"
       transform="scale(-1,1)" />
    <circle
       style="fill:none;fill-opacity:1;stroke:#370188;stroke-width:1;stroke-dasharray:none;stroke-opacity:1"
       id="path11-6-25-1-1"
       cx="-476.07626"
       cy="51.405403"
       r="0.50674933"
       transform="scale(-1,1)" />
    <circle
       style="fill:none;fill-opacity:1;stroke:#370188;stroke-width:1;stroke-dasharray:none;stroke-opacity:1"
       id="path11-5-6-3-5"
       cx="-474.40961"
       cy="51.405403"
       r="0.50674933"
       transform="scale(-1,1)" />
    <circle
       style="fill:none;fill-opacity:1;stroke:#370188;stroke-width:1;stroke-dasharray:none;stroke-opacity:1"
       id="path11-6-2-1-9-6"
       cx="-472.74292"
       cy="51.405403"
       r="0.50674933"
       transform="scale(-1,1)" />
    <circle
       style="fill:none;fill-opacity:1;stroke:#370188;stroke-width:1;stroke-dasharray:none;stroke-opacity:1"
       id="path11-63-7-5"
       cx="-471.07629"
       cy="51.405403"
       r="0.50674933"
       transform="scale(-1,1)" />
    <circle
       style="fill:none;fill-opacity:1;stroke:#370188;stroke-width:1;stroke-dasharray:none;stroke-opacity:1"
       id="path11-6-0-9-5"
       cx="-469.40961"
       cy="51.405403"
       r="0.50674933"
       transform="scale(-1,1)" />
    <circle
       style="fill:none;fill-opacity:1;stroke:#370188;stroke-width:1;stroke-dasharray:none;stroke-opacity:1"
       id="path11-5-1-9-8"
       cx="-467.74295"
       cy="51.405403"
       r="0.50674933"
       transform="scale(-1,1)" />
    <path
       style="fill:none;fill-opacity:1;stroke:#370188;stroke-width:1;stroke-dasharray:none;stroke-opacity:1"
       d="m 484.51682,55.854798 -0.0758,-4.113661"
       id="path12"
       sodipodi:nodetypes="cc" />
  </g>
</svg>
