<?xml version="1.0" encoding="UTF-8" standalone="no"?>
<!-- Created with Inkscape (http://www.inkscape.org/) -->

<svg
   width="1080"
   height="1350"
   viewBox="0 0 285.74999 357.1875"
   version="1.1"
   id="svg1"
   inkscape:version="1.4 (e7c3feb1, 2024-10-09)"
   sodipodi:docname="panel-00.svg"
   xmlns:inkscape="http://www.inkscape.org/namespaces/inkscape"
   xmlns:sodipodi="http://sodipodi.sourceforge.net/DTD/sodipodi-0.dtd"
   xmlns="http://www.w3.org/2000/svg"
   xmlns:svg="http://www.w3.org/2000/svg">
  <sodipodi:namedview
     id="namedview1"
     pagecolor="#ffffff"
     bordercolor="#000000"
     borderopacity="0.25"
     inkscape:showpageshadow="2"
     inkscape:pageopacity="0.0"
     inkscape:pagecheckerboard="0"
     inkscape:deskcolor="#d1d1d1"
     inkscape:document-units="px"
     inkscape:zoom="0.49687163"
     inkscape:cx="118.74294"
     inkscape:cy="392.45549"
     inkscape:window-width="1728"
     inkscape:window-height="1057"
     inkscape:window-x="0"
     inkscape:window-y="32"
     inkscape:window-maximized="0"
     inkscape:current-layer="layer1"
     showgrid="false" />
  <defs
     id="defs1">
    <rect
       x="101.27843"
       y="81.516787"
       width="795.40623"
       height="644.72368"
       id="rect2" />
    <rect
       x="133.39111"
       y="96.338021"
       width="842.34014"
       height="484.16031"
       id="rect1" />
    <rect
       x="337.60629"
       y="293.08679"
       width="868.13049"
       height="871.84045"
       id="rect26" />
    <rect
       x="358.01108"
       y="335.75131"
       width="877.4054"
       height="734.57196"
       id="rect25" />
    <rect
       x="418.44797"
       y="244.75258"
       width="748.0744"
       height="801.36731"
       id="rect16" />
  </defs>
  <g
     inkscape:label="Layer 1"
     inkscape:groupmode="layer"
     id="layer1">
    <path
       style="fill:#018816;fill-opacity:1;stroke:#370188;stroke-width:3.175;stroke-dasharray:none;stroke-opacity:1"
       d="m 117.20524,238.75763 -2.44821,35.65858 51.51866,1.38376 -2.02244,-39.59698 z"
       id="path25-4-7" />
    <path
       style="fill:#ffffff;fill-opacity:1;stroke:#370188;stroke-width:3.175;stroke-dasharray:none;stroke-opacity:1"
       d="m 100.54398,247.20544 c 0,15.83268 7.10918,26.92819 17.07233,33.28661 2.37048,1.51282 4.90258,2.75752 7.53891,3.73402 23.31663,8.63654 54.78808,-3.70364 54.76376,-37.02063 l -15.06804,15.50715 -15.15129,-6.57609 -19.95754,9.34237 -10.75538,-11.69092 -8.4902,5.14359 z"
       id="path1-8-8"
       sodipodi:nodetypes="cssccccccc" />
    <path
       style="fill:#370189;fill-opacity:1;stroke:#370188;stroke-width:0;stroke-dasharray:none;stroke-opacity:1"
       d="m 124.47199,282.54138 -3.82692,-5.27259 5.07117,2.35369 1.32626,-3.92795 0.37681,4.14213 4.16998,-3.19913 -2.57346,4.76485 5.63245,0.54649 -3.69281,2.89899 z"
       id="path3-2-6"
       sodipodi:nodetypes="cccccccccc" />
    <path
       style="fill:#370189;fill-opacity:1;stroke:#370188;stroke-width:0;stroke-dasharray:none;stroke-opacity:1"
       d="m 155.61671,283.07774 3.03511,-5.32826 -4.74552,2.65567 -0.40824,-3.99876 -1.23584,4.49196 -4.72465,-1.3668 3.40941,3.17528 -4.7818,1.08258 4.50249,2.28216 z"
       id="path3-1-5-6"
       sodipodi:nodetypes="cccccccccc" />
    <path
       style="fill:#ee4302;fill-opacity:1;stroke:#370188;stroke-width:3.175;stroke-dasharray:none;stroke-opacity:1"
       d="m 125.06632,283.87145 c -0.0908,0.82798 -0.11081,10.87927 -0.11081,10.87927 l -7.65791,4.01428 9.17048,-1.55093 0.74285,0.90942 0.70028,-0.93297 8.75249,1.41576 -6.92597,-3.71138 c 0,0 0.0702,-8.98281 0.0127,-9.10428 z"
       id="path7-8-0"
       sodipodi:nodetypes="cccccccccc" />
    <path
       style="fill:#ee4302;fill-opacity:1;stroke:#370188;stroke-width:3.175;stroke-dasharray:none;stroke-opacity:1"
       d="m 155.10486,283.13355 0.34005,12.60688 7.87114,2.69119 -9.9795,-1.45316 -0.74286,0.90941 -0.70031,-0.93297 -9.07621,1.20136 7.41826,-3.10319 c 0,0 0.16637,-9.20292 0.17971,-9.394 z"
       id="path7-4-0-6"
       sodipodi:nodetypes="cccccccccc" />
    <path
       style="fill:none;fill-opacity:1;stroke:#370188;stroke-width:3.175;stroke-dasharray:none;stroke-opacity:1"
       d="m 125.56447,259.55381 3.90573,-9.47851 22.30545,-0.053 3.05493,7.69033"
       id="path19-60-5"
       sodipodi:nodetypes="cccc" />
    <path
       style="fill:#fdc458;fill-opacity:1;stroke:#370188;stroke-width:3.175;stroke-dasharray:none;stroke-opacity:1"
       d="m 113.92048,228.81143 c 0,0 -38.472778,27.21074 6.9562,15.58833 z"
       id="path17-0-7"
       sodipodi:nodetypes="ccc" />
    <path
       style="fill:#fdc458;fill-opacity:1;stroke:#370188;stroke-width:3.175;stroke-dasharray:none;stroke-opacity:1"
       d="m 170.173,229.85032 c 0,0 34.30229,21.19084 -7.53478,15.42339 z"
       id="path16-7-9"
       sodipodi:nodetypes="ccc" />
    <path
       style="fill:#fdc458;fill-opacity:1;stroke:#370188;stroke-width:3.175;stroke-dasharray:none;stroke-opacity:1"
       d="m 156.55111,215.05 c 17.42595,-38.94191 -49.63084,-38.34513 -32.5915,0.64326 l 15.59274,7.69651 z"
       id="path23-5-3"
       sodipodi:nodetypes="cccc" />
    <path
       style="fill:#018816;fill-opacity:1;stroke:#370188;stroke-width:3.175;stroke-dasharray:none;stroke-opacity:1"
       d="m 122.91926,244.51266 -9.80031,4.04721 -6.62149,-19.13718 13.52251,-5.46456 -0.30575,-10.09069 19.87556,9.57891 20.4871,-10.49622 v 8.56175 l 14.32217,7.7724 -6.59069,18.69104 -9.53129,-3.85836"
       id="path12-0-5"
       sodipodi:nodetypes="ccccccccccc" />
    <path
       style="fill:#370188;fill-opacity:1;stroke:none;stroke-width:8.13508;stroke-dasharray:none;stroke-opacity:1"
       id="path9-8-0"
       sodipodi:type="arc"
       sodipodi:cx="134.29024"
       sodipodi:cy="200.08704"
       sodipodi:rx="1.7054044"
       sodipodi:ry="1.7054044"
       sodipodi:start="5.9341195"
       sodipodi:end="3.4906585"
       sodipodi:arc-type="chord"
       d="m 135.89279,199.50375 a 1.7054044,1.7054044 0 0 1 -0.58416,1.95123 1.7054044,1.7054044 0 0 1 -2.03679,0 1.7054044,1.7054044 0 0 1 -0.58416,-1.95123 z"
       sodipodi:open="true" />
    <path
       style="fill:none;fill-opacity:1;stroke:#370188;stroke-width:3.175;stroke-dasharray:none;stroke-opacity:1"
       d="m 119.71485,223.75662 19.87493,4.48239 20.99631,-6.52113"
       id="path22-1-6"
       sodipodi:nodetypes="ccc" />
    <path
       style="fill:none;fill-opacity:1;stroke:#370188;stroke-width:3.175;stroke-dasharray:none;stroke-opacity:1"
       d="m 130.40819,222.80967 -3.37312,20.3066"
       id="path10-79-7"
       sodipodi:nodetypes="cc" />
    <path
       style="fill:none;fill-opacity:1;stroke:#370188;stroke-width:3.175;stroke-dasharray:none;stroke-opacity:1"
       d="m 147.84808,222.30325 2.50114,20.97739"
       id="path11-71-1"
       sodipodi:nodetypes="cc" />
    <path
       style="fill:none;fill-opacity:1;stroke:#370188;stroke-width:3.175;stroke-dasharray:none;stroke-opacity:1"
       d="m 142.72208,205.21471 -5.98275,3.09451 7.22055,3.30086"
       id="path24-70-9" />
    <path
       style="fill:none;fill-opacity:1;stroke:#370188;stroke-width:3.175;stroke-dasharray:none;stroke-opacity:1"
       d="m 140.35915,188.14632 c 5.40633,-4.70871 -5.05749,-5.05751 0.52321,-8.89426"
       id="path26-0-0"
       sodipodi:nodetypes="cc" />
    <path
       style="fill:#370188;fill-opacity:1;stroke:#370188;stroke-width:0.79375;stroke-linecap:butt;stroke-dasharray:none;stroke-opacity:1"
       d="m 130.81097,199.41376 6.77799,-0.0439"
       id="path18-6"
       sodipodi:nodetypes="cc" />
    <path
       style="fill:#370188;fill-opacity:1;stroke:none;stroke-width:8.13508;stroke-dasharray:none;stroke-opacity:1"
       id="path9-8-4"
       sodipodi:type="arc"
       sodipodi:cx="146.80498"
       sodipodi:cy="200.1058"
       sodipodi:rx="1.7054044"
       sodipodi:ry="1.7054044"
       sodipodi:start="5.9341195"
       sodipodi:end="3.4906585"
       sodipodi:arc-type="chord"
       d="m 148.40753,199.52252 a 1.7054044,1.7054044 0 0 1 -0.58416,1.95123 1.7054044,1.7054044 0 0 1 -2.03679,0 1.7054044,1.7054044 0 0 1 -0.58416,-1.95123 z"
       sodipodi:open="true" />
    <path
       style="fill:#370188;fill-opacity:1;stroke:#370188;stroke-width:0.79375;stroke-linecap:butt;stroke-dasharray:none;stroke-opacity:1"
       d="m 143.32571,199.43253 6.77799,-0.0439"
       id="path18-6-1"
       sodipodi:nodetypes="cc" />
    <text
       xml:space="preserve"
       transform="scale(0.26458333)"
       id="text16"
       style="font-style:normal;font-variant:normal;font-weight:bold;font-stretch:normal;font-size:60px;font-family:'Josefin Slab';-inkscape-font-specification:'Josefin Slab Bold';text-align:start;letter-spacing:0px;word-spacing:0px;writing-mode:lr-tb;direction:ltr;white-space:pre;shape-inside:url(#rect16);display:inline;fill:#000000;fill-opacity:0;stroke:#370188;stroke-width:12;stroke-opacity:1" />
    <text
       xml:space="preserve"
       transform="scale(0.26458333)"
       id="text25"
       style="font-style:normal;font-variant:normal;font-weight:bold;font-stretch:normal;font-size:60px;font-family:'Josefin Slab';-inkscape-font-specification:'Josefin Slab Bold';text-align:start;letter-spacing:0px;word-spacing:0px;writing-mode:lr-tb;direction:ltr;white-space:pre;shape-inside:url(#rect25);display:inline;fill:#000000;fill-opacity:0;stroke:#370188;stroke-width:12;stroke-opacity:1" />
    <text
       xml:space="preserve"
       transform="scale(0.26458333)"
       id="text26"
       style="font-style:normal;font-variant:normal;font-weight:bold;font-stretch:normal;font-size:60px;font-family:'Josefin Slab';-inkscape-font-specification:'Josefin Slab Bold';text-align:start;letter-spacing:0px;word-spacing:0px;writing-mode:lr-tb;direction:ltr;white-space:pre;shape-inside:url(#rect26);display:inline;fill:#000000;fill-opacity:0;stroke:#370188;stroke-width:12;stroke-opacity:1" />
    <rect
       style="fill:none;fill-opacity:1;fill-rule:nonzero;stroke:#370188;stroke-width:3.175;stroke-dasharray:none;stroke-opacity:1"
       id="rect113-4-2"
       width="282.57498"
       height="354.01248"
       x="1.5875"
       y="1.5875" />
    <rect
       width="9.8019896"
       height="15.875"
       rx="0"
       ry="0"
       fill="#6002ee"
       stroke-width="0"
       id="rect1-3-4-39-4-2-0-5-6"
       x="247.60098"
       y="332.84583" />
    <text
       font-family="Montserrat"
       font-size="618.11px"
       font-weight="200"
       stroke-width="0"
       fill="#33333"
       id="text3-0-3-0-0-5-3-3-2"
       x="248.33717"
       y="345.42685"
       style="font-style:normal;font-variant:normal;font-weight:300;font-stretch:normal;font-size:13.0774px;font-family:Montserrat;-inkscape-font-specification:'Montserrat Light'"
       transform="scale(0.99938968,1.0006107)"><tspan
         y="345.42685"
         font-weight="200"
         stroke-width="0"
         id="tspan1-4-8-6-2-1-2-5-9"
         style="font-style:normal;font-variant:normal;font-weight:300;font-stretch:normal;font-size:13.0774px;font-family:Montserrat;-inkscape-font-specification:'Montserrat Light'"><tspan
           style="font-style:normal;font-variant:normal;font-weight:300;font-stretch:normal;font-size:13.0774px;font-family:Montserrat;-inkscape-font-specification:'Montserrat Light';fill:#ffffff;fill-opacity:1;stroke-width:0"
           id="tspan3-6-3-13-5-2-1-6-6">k</tspan></tspan></text>
    <text
       dx="0"
       dy="0"
       font-family="Montserrat"
       font-size="465.256px"
       font-weight="200"
       stroke-width="0"
       fill="#33333"
       id="text3-0-3-6-8-4-0-8-9"
       x="195.17656"
       y="345.42685"
       style="font-style:normal;font-variant:normal;font-weight:300;font-stretch:normal;font-size:13.0774px;font-family:Montserrat;-inkscape-font-specification:'Montserrat Light'"
       transform="scale(0.99938968,1.0006107)"><tspan
         y="345.42685"
         font-weight="200"
         stroke-width="0"
         id="tspan1-4-8-3-9-0-0-6-9"
         style="font-style:normal;font-variant:normal;font-weight:300;font-stretch:normal;font-size:13.0774px;font-family:Montserrat;-inkscape-font-specification:'Montserrat Light'">product</tspan></text>
    <text
       font-family="Montserrat"
       font-size="465.256px"
       font-weight="200"
       stroke-width="0"
       fill="#33333"
       id="text3-0-3-6-4-3-4-3-7-8"
       x="257.78415"
       y="345.42685"
       style="font-style:normal;font-variant:normal;font-weight:300;font-stretch:normal;font-size:13.0774px;font-family:Montserrat;-inkscape-font-specification:'Montserrat Light'"
       transform="scale(0.99938968,1.0006107)"><tspan
         y="345.42685"
         font-weight="200"
         stroke-width="0"
         id="tspan1-4-8-3-6-9-9-9-7-0"
         style="font-style:normal;font-variant:normal;font-weight:300;font-stretch:normal;font-size:13.0774px;font-family:Montserrat;-inkscape-font-specification:'Montserrat Light'">ind</tspan></text>
    <path
       style="fill:#ffffff;fill-opacity:1;stroke:#370188;stroke-width:3.175;stroke-linejoin:miter;stroke-dasharray:none;stroke-opacity:1"
       d="M 199.24369,257.64521 H 48.895032 L 9.0398417,307.42262 H 164.76151 Z"
       id="path2-3"
       sodipodi:nodetypes="ccccc" />
    <path
       style="fill:#ffffff;fill-opacity:1;stroke:#370188;stroke-width:3.175;stroke-linejoin:miter;stroke-dasharray:none;stroke-opacity:1"
       d="M 148.29164,291.34801 165.79139,265.7278 H 140.08512"
       id="path21"
       sodipodi:nodetypes="ccc" />
    <path
       style="fill:#ffffff;fill-opacity:1;stroke:#370188;stroke-width:3.175;stroke-linejoin:miter;stroke-dasharray:none;stroke-opacity:1"
       d="M 147.604,290.77815 H 65.610962 L 50.689161,239.16928 h 79.422969 z"
       id="path18"
       sodipodi:nodetypes="ccccc" />
    <ellipse
       style="fill:#370188;fill-opacity:1;stroke:#370188;stroke-width:2.3649;stroke-linejoin:miter;stroke-dasharray:none;stroke-opacity:1"
       id="path20"
       cx="-22.623281"
       cy="273.68631"
       rx="7.0081496"
       ry="5.4544897"
       transform="matrix(-1,0,0.26648382,0.96383939,0,0)" />
    <path
       style="fill:#370188;fill-opacity:1;stroke:#370188;stroke-width:2.581;stroke-linejoin:miter;stroke-dasharray:none;stroke-opacity:1"
       d="m 146.41861,285.24683 7.8941,-11.99673 h -12.07643 z"
       id="path22"
       sodipodi:nodetypes="cccc" />
    <text
       xml:space="preserve"
       transform="scale(0.26458333)"
       id="text1"
       style="font-style:normal;font-variant:normal;font-weight:normal;font-stretch:normal;font-size:72px;font-family:'Nanum Pen';-inkscape-font-specification:'Nanum Pen';text-align:center;letter-spacing:0px;word-spacing:0px;writing-mode:lr-tb;direction:ltr;white-space:pre;shape-inside:url(#rect1);display:inline;fill:#370188;stroke:#370188;stroke-width:12" />
    <text
       xml:space="preserve"
       transform="matrix(0.26458333,0,0,0.26458333,27.781227,-16.955976)"
       id="text2"
       style="font-style:normal;font-variant:normal;font-weight:normal;font-stretch:normal;font-size:72px;font-family:'Nanum Pen';-inkscape-font-specification:'Nanum Pen';text-align:center;letter-spacing:0px;word-spacing:0px;writing-mode:lr-tb;direction:ltr;white-space:pre;shape-inside:url(#rect2);display:inline;fill:#370188;stroke:none;stroke-width:12"><tspan
         x="416.50648"
         y="148.11758"
         id="tspan1">Hmm...
</tspan><tspan
         x="498.98242"
         y="238.11758"
         id="tspan3">
</tspan><tspan
         x="120.73022"
         y="328.11758"
         id="tspan4">Should I write this user story </tspan><tspan
         x="343.93038"
         y="418.11758"
         id="tspan5">like a haiku?
</tspan><tspan
         x="498.98242"
         y="508.11758"
         id="tspan6">
</tspan><tspan
         x="169.5102"
         y="598.11758"
         id="tspan7">Or maybe in emoji?          </tspan></text>
    <g
       id="color"
       transform="matrix(0.26458333,0,0,0.26458333,235.55462,124.70695)"
       style="stroke:none;stroke-opacity:1">
      <path
         fill="#ea5a47"
         d="m 64.05,7.95 v 5.121 c -27.56,0 -51.03,23.42 -51.03,50.98 H 7.953 c 0,-30.99 25.11,-56.1 56.1,-56.1 z"
         id="path1"
         style="fill:#ee4302;fill-opacity:1;stroke:none;stroke-opacity:1" />
      <path
         fill="#f4aa41"
         d="m 64.05,13.07 v 5.12 c -24.4,0 -45.86,21.46 -45.86,45.86 h -5.178 c 0,-27.56 23.48,-50.98 51.04,-50.98 z"
         id="path2"
         style="fill:#ee9b02;fill-opacity:1;stroke:none;stroke-opacity:1" />
      <path
         fill="#fcea2b"
         d="m 64.05,18.19 v 5.121 c -21.51,0 -40.74,19.25 -40.74,40.74 h -5.121 c 0,-24.4 21.46,-45.86 45.86,-45.86 z"
         id="path3"
         style="fill:#e8ee02;fill-opacity:1;stroke:none;stroke-opacity:1" />
      <path
         fill="#b1cc33"
         d="m 64.05,23.31 v 5.121 c -18.88,0 -35.61,16.83 -35.61,35.62 l -5.131,-8.8e-5 c 0,-21.48 19.23,-40.74 40.74,-40.74 z"
         id="path4"
         style="fill:#8fee02;fill-opacity:1;stroke:none;stroke-opacity:1"
         sodipodi:nodetypes="cccccc" />
      <path
         fill="#92d3f5"
         d="m 64.05,28.43 v 5.12 c -16.34,0 -30.5,14.22 -30.5,30.5 h -5.11 c 0,-18.78 16.73,-35.62 35.61,-35.62 z"
         id="path5"
         style="fill:#02adee;fill-opacity:1;stroke:none;stroke-opacity:1"
         sodipodi:nodetypes="ccccc" />
      <path
         fill="#b399c8"
         d="m 64.05,33.55 v 5.121 c -14.02,0 -25.38,11.36 -25.38,25.38 h -5.121 c 0,-16.28 14.16,-30.5 30.5,-30.5 z"
         id="path6"
         style="fill:#b902ee;fill-opacity:1;stroke:none;stroke-opacity:1" />
    </g>
    <g
       id="line"
       stroke-miterlimit="10"
       transform="matrix(0.26458333,0,0,0.26458333,235.55462,124.70695)"
       style="stroke:#370188;stroke-opacity:1">
      <path
         fill="none"
         stroke="#000000"
         stroke-linecap="round"
         stroke-linejoin="round"
         stroke-miterlimit="10"
         stroke-width="2"
         d="m 64.05,7.95 v 5.121 c -27.56,0 -51.04,23.42 -51.04,50.98 H 7.947 c 0,-30.99 25.11,-56.1 56.1,-56.1 z"
         id="path7"
         style="stroke:#370188;stroke-opacity:1" />
      <path
         fill="none"
         stroke="#000000"
         stroke-linecap="round"
         stroke-linejoin="round"
         stroke-miterlimit="10"
         stroke-width="2"
         d="m 64.05,13.07 v 5.12 c -24.4,0 -45.86,21.46 -45.86,45.86 h -5.174 c 0,-27.56 23.47,-50.98 51.03,-50.98 z"
         id="path8"
         style="stroke:#370188;stroke-opacity:1" />
      <path
         fill="none"
         stroke="#000000"
         stroke-linecap="round"
         stroke-linejoin="round"
         stroke-miterlimit="10"
         stroke-width="2"
         d="m 64.05,18.19 v 5.121 c -21.51,0 -40.74,19.25 -40.74,40.74 h -5.121 c 0,-24.4 21.46,-45.86 45.86,-45.86 z"
         id="path9"
         style="stroke:#370188;stroke-opacity:1" />
      <path
         fill="none"
         stroke="#000000"
         stroke-linecap="round"
         stroke-linejoin="round"
         stroke-miterlimit="10"
         stroke-width="2"
         d="m 64.05,23.31 v 5.121 c -18.88,0 -35.61,16.83 -35.61,35.62 h -5.131 c 0,-21.48 19.23,-40.74 40.74,-40.74 z"
         id="path10"
         style="stroke:#370188;stroke-opacity:1" />
      <path
         fill="none"
         stroke="#000000"
         stroke-linecap="round"
         stroke-linejoin="round"
         stroke-miterlimit="10"
         stroke-width="2"
         d="m 64.05,28.43 v 5.12 c -16.34,0 -30.5,14.22 -30.5,30.5 h -5.11 c 0,-18.78 16.73,-35.62 35.61,-35.62 z"
         id="path11"
         style="stroke:#370188;stroke-opacity:1" />
      <path
         fill="none"
         stroke="#000000"
         stroke-linecap="round"
         stroke-linejoin="round"
         stroke-miterlimit="10"
         stroke-width="2"
         d="m 64.05,33.55 v 5.121 c -14.02,0 -25.38,11.36 -25.38,25.38 h -5.121 c 0,-16.28 14.16,-30.5 30.5,-30.5 z"
         id="path12"
         style="stroke:#370188;stroke-opacity:1" />
    </g>
    <path
       fill="#f4aa41"
       stroke="none"
       d="m 208.78358,126.57394 0.0882,1.01422 -0.79375,0.29766 -0.76067,0.76068 -0.19844,0.56224 1.71979,-0.26459 c 0,0 1.2237,3.47266 3.20807,4.29948 0,0 -0.42994,1.68672 0.42995,2.34818 l 0.19844,3.00963 -0.76068,2.77813 -0.52916,0.84886 0.63153,0.008 c 0.16478,0.002 0.32112,-0.0728 0.42286,-0.20249 l 0.32673,-0.41643 c 0.0488,-0.0622 0.083,-0.13448 0.1002,-0.21164 l 0.58965,-2.64821 c 0.008,-0.0378 0.0127,-0.0763 0.0127,-0.11502 v -2.88528 l 0.39687,0.42995 0.92604,2.4474 0.46302,2.74505 -0.35277,0.83785 0.50864,-0.0275 c 0.18989,-0.0103 0.3597,-0.12165 0.44474,-0.29175 l 0.21055,-0.42114 c 0.053,-0.10599 0.0689,-0.22672 0.0451,-0.34282 l -0.52175,-2.54743 c -0.003,-0.0123 -0.005,-0.0244 -0.009,-0.0365 l -0.68948,-2.46237 0.82682,-0.23151 0.79375,-0.33073 c 0,0 0.95912,1.9513 1.7198,2.0836 l 0.26458,3.57187 -0.26458,1.02526 0.30048,-0.01 c 0.23381,-0.007 0.435,-0.16748 0.4948,-0.39365 l 0.12867,-0.4867 c 0.016,-0.0604 0.0211,-0.12311 0.0152,-0.18526 l -0.33756,-3.55476 c -0.004,-0.0441 -0.0139,-0.0875 -0.0289,-0.12922 l -0.27506,-0.76404 -0.42995,-2.24896 -0.29766,-0.95911 -0.95911,-0.82682 -1.85209,-0.1323 -1.55442,-1.02526 c 0,0 -2.16078,-0.20947 -3.68213,-3.58291 0,0 -0.11023,-1.56546 -0.97012,-1.33394 z"
       id="path1-9"
       style="fill:#fdb226;fill-opacity:1;stroke-width:0.264583"
       sodipodi:nodetypes="cccccccccccsccccscccccsccccccccccccccccccccccccc" />
    <g
       id="line-1"
       transform="matrix(0.26458333,0,0,0.26458333,203.52382,124.42364)"
       style="stroke:#370188;stroke-opacity:1">
      <path
         fill="none"
         stroke="#000000"
         stroke-linecap="round"
         stroke-linejoin="round"
         stroke-miterlimit="10"
         stroke-width="2"
         d="m 29.8763,66.2708 1.9375,-2.3125 2.75,-10.1875 -0.625,-11.5 c -3.5,-4 -1.4344,-8.6627 -1.4344,-8.6627 -9.875,-5.25 -12.0656,-16.3998 -12.0656,-16.3998 l -6.4404,0.9828 c -0.8827,0 -1.3296,-1.0629 -0.712,-1.6936 l 2.7773,-2.2892 1.1875,-1.6875 2.625,-0.625 -0.0625,-2.875"
         id="path2-7"
         style="stroke:#370188;stroke-opacity:1" />
      <path
         fill="none"
         stroke="#000000"
         stroke-linecap="round"
         stroke-linejoin="round"
         stroke-miterlimit="10"
         stroke-width="2"
         d="m 37.0638,40.2708 c 0,0 -0.125,3 2.375,3.9375 l 3.3125,9.4375 1.75,10.1875 -1.3125,2.4375"
         id="path3-5"
         style="stroke:#370188;stroke-opacity:1" />
      <path
         fill="none"
         stroke="#000000"
         stroke-linecap="round"
         stroke-linejoin="round"
         stroke-miterlimit="10"
         stroke-width="2"
         d="m 43.2557,43.3333 h 3.2456 c 0,0 3.0625,-0.5625 3.375,-3.9375"
         id="path4-5"
         style="stroke:#370188;stroke-opacity:1" />
      <path
         fill="none"
         stroke="#000000"
         stroke-linecap="round"
         stroke-linejoin="round"
         stroke-miterlimit="10"
         stroke-width="2"
         d="m 49.1262,41.5646 c 0,0 0.9376,4.7688 6.3751,8.2063 l 0.8125,13.7895 -0.5,2.7105"
         id="path5-4"
         style="stroke:#370188;stroke-opacity:1" />
      <path
         fill="none"
         stroke="#000000"
         stroke-linecap="round"
         stroke-linejoin="round"
         stroke-miterlimit="10"
         stroke-width="2"
         d="m 58.1888,47.4583 c -2.5713,-1.8248 -3.1337,-5.2183 -3.221,-7.2951 -0.0597,-1.419 -0.2781,-2.8221 -0.6805,-4.1841 l -0.0985,-0.3333 c -1.8959,-5.3999 -8.6641,-4.2096 -12,-5.5625 -2.549,-1.0338 -4.8135,-3.9259 -5.126,-3.9259 -8.0867,0 -14.1746,-12.301 -14.1746,-12.301"
         id="path6-1"
         style="stroke:#370188;stroke-opacity:1" />
    </g>
    <g
       id="color-2"
       transform="matrix(0.26458333,0,0,0.26458333,218.74075,124.9566)">
      <path
         fill="#f4aa41"
         stroke="none"
         d="m 52.2637,19.7373 c 0.4765,0.4775 0.916,0.9775 1.3418,1.4854 l 2.9004,-5.7286 C 45.1807,4.1689 26.8184,4.1689 15.4941,15.4941 l 2.9004,5.7286 c 0.4258,-0.5079 0.8653,-1.0079 1.3418,-1.4854 8.9834,-8.9834 23.544,-8.9834 32.5274,0 z"
         id="path1-6"
         sodipodi:nodetypes="ccccccc"
         style="fill:#fdb226;fill-opacity:1" />
      <path
         fill="#fcea2b"
         stroke="none"
         d="m 53.6055,21.2227 c -0.4258,-0.5079 -0.8653,-1.0079 -1.3418,-1.4854 -8.9834,-8.9834 -23.544,-8.9834 -32.5274,0 -0.4765,0.4775 -0.916,0.9775 -1.3418,1.4854 L 36,56 Z"
         id="path2-6"
         sodipodi:nodetypes="cccccc"
         style="fill:#fed68b;fill-opacity:1" />
      <circle
         cx="31"
         cy="24"
         r="5"
         fill="#ea5a47"
         stroke="none"
         id="circle2"
         style="fill:#ee4302;fill-opacity:1" />
      <circle
         cx="44"
         cy="24"
         r="3"
         fill="#ea5a47"
         stroke="none"
         id="circle3" />
      <circle
         cx="37"
         cy="36"
         r="3"
         fill="#ea5a47"
         stroke="none"
         id="circle4" />
    </g>
    <g
       id="line-7"
       transform="matrix(0.26458333,0,0,0.26458333,218.74075,124.9566)"
       style="stroke:#370188;stroke-opacity:1">
      <path
         fill="none"
         stroke="#000000"
         stroke-linecap="round"
         stroke-linejoin="round"
         stroke-miterlimit="10"
         stroke-width="2"
         d="m 52.2637,19.7373 c 0.4765,0.4775 0.916,0.9775 1.3418,1.4854 l 2.9004,-5.7286 C 45.1807,4.1689 26.8184,4.1689 15.4941,15.4941 l 2.9004,5.7286 c 0.4258,-0.5079 0.8653,-1.0079 1.3418,-1.4854 8.9834,-8.9834 23.544,-8.9834 32.5274,0 z"
         id="path4-8"
         style="stroke:#370188;stroke-opacity:1" />
      <path
         fill="none"
         stroke="#000000"
         stroke-linecap="round"
         stroke-linejoin="round"
         stroke-miterlimit="10"
         stroke-width="2"
         d="m 53.6055,21.2227 c -0.4258,-0.5079 -0.8653,-1.0079 -1.3418,-1.4854 -8.9834,-8.9834 -23.544,-8.9834 -32.5274,0 -0.4765,0.4775 -0.916,0.9775 -1.3418,1.4854 L 36,56 Z"
         id="path5-41"
         style="stroke:#370188;stroke-opacity:1" />
      <circle
         cx="31"
         cy="24"
         r="5"
         fill="none"
         stroke="#000000"
         stroke-linecap="round"
         stroke-linejoin="round"
         stroke-miterlimit="10"
         stroke-width="2"
         id="circle5"
         style="stroke:#370188;stroke-opacity:1" />
      <circle
         cx="44"
         cy="24"
         r="3"
         fill="none"
         stroke="#000000"
         stroke-linecap="round"
         stroke-linejoin="round"
         stroke-miterlimit="10"
         stroke-width="2"
         id="circle6"
         style="fill:#ee4302;fill-opacity:1;stroke:#370188;stroke-opacity:1" />
      <circle
         cx="37"
         cy="36"
         r="3"
         fill="none"
         stroke="#000000"
         stroke-linecap="round"
         stroke-linejoin="round"
         stroke-miterlimit="10"
         stroke-width="2"
         id="circle7"
         style="fill:#ee4302;fill-opacity:1;stroke:#370188;stroke-opacity:1" />
    </g>
    <path
       style="fill:none;fill-opacity:1;stroke:#370188;stroke-width:1.5875;stroke-linecap:round;stroke-dasharray:none;stroke-opacity:1"
       d="m 146.44883,172.91895 c 3.45262,-10.35788 5.75437,-15.01782 5.46665,-26.52657"
       id="path13"
       sodipodi:nodetypes="cc" />
    <path
       style="fill:none;fill-opacity:1;stroke:#370188;stroke-width:1.5875;stroke-linecap:round;stroke-dasharray:none;stroke-opacity:1"
       d="m 153.56174,122.87997 c 0.7336,-10.92698 3.31001,-13.30886 3.02229,-24.817616 m 3.13158,-46.23418 c 0.7336,-10.92698 -1.64444,-15.002623 -1.93216,-26.511374"
       id="path13-1"
       sodipodi:nodetypes="cccc" />
  </g>
</svg>
