<?xml version="1.0" encoding="UTF-8" standalone="no"?>
<!-- Created with Inkscape (http://www.inkscape.org/) -->

<svg
   width="1080"
   height="1350"
   viewBox="0 0 285.74999 357.1875"
   version="1.1"
   id="svg1"
   inkscape:version="1.4 (e7c3feb1, 2024-10-09)"
   sodipodi:docname="panel-02.svg"
   xmlns:inkscape="http://www.inkscape.org/namespaces/inkscape"
   xmlns:sodipodi="http://sodipodi.sourceforge.net/DTD/sodipodi-0.dtd"
   xmlns="http://www.w3.org/2000/svg"
   xmlns:svg="http://www.w3.org/2000/svg">
  <sodipodi:namedview
     id="namedview1"
     pagecolor="#ffffff"
     bordercolor="#000000"
     borderopacity="0.25"
     inkscape:showpageshadow="2"
     inkscape:pageopacity="0.0"
     inkscape:pagecheckerboard="0"
     inkscape:deskcolor="#d1d1d1"
     inkscape:document-units="px"
     inkscape:zoom="0.41663705"
     inkscape:cx="688.84896"
     inkscape:cy="1022.4727"
     inkscape:window-width="1728"
     inkscape:window-height="1057"
     inkscape:window-x="0"
     inkscape:window-y="32"
     inkscape:window-maximized="0"
     inkscape:current-layer="layer1" />
  <defs
     id="defs1">
    <rect
       x="337.60629"
       y="293.08679"
       width="868.13049"
       height="871.84045"
       id="rect26" />
    <rect
       x="358.01108"
       y="335.75131"
       width="877.4054"
       height="734.57196"
       id="rect25" />
    <rect
       x="418.44797"
       y="244.75258"
       width="748.0744"
       height="801.36731"
       id="rect16" />
    <rect
       x="101.27843"
       y="81.516785"
       width="950.89413"
       height="633.93478"
       id="rect2" />
  </defs>
  <g
     inkscape:label="Layer 1"
     inkscape:groupmode="layer"
     id="layer1">
    <text
       xml:space="preserve"
       transform="scale(0.26458333)"
       id="text16"
       style="font-style:normal;font-variant:normal;font-weight:bold;font-stretch:normal;font-size:60px;font-family:'Josefin Slab';-inkscape-font-specification:'Josefin Slab Bold';text-align:start;letter-spacing:0px;word-spacing:0px;writing-mode:lr-tb;direction:ltr;white-space:pre;shape-inside:url(#rect16);display:inline;fill:#000000;fill-opacity:0;stroke:#370188;stroke-width:12;stroke-opacity:1" />
    <text
       xml:space="preserve"
       transform="scale(0.26458333)"
       id="text25"
       style="font-style:normal;font-variant:normal;font-weight:bold;font-stretch:normal;font-size:60px;font-family:'Josefin Slab';-inkscape-font-specification:'Josefin Slab Bold';text-align:start;letter-spacing:0px;word-spacing:0px;writing-mode:lr-tb;direction:ltr;white-space:pre;shape-inside:url(#rect25);display:inline;fill:#000000;fill-opacity:0;stroke:#370188;stroke-width:12;stroke-opacity:1" />
    <text
       xml:space="preserve"
       transform="scale(0.26458333)"
       id="text26"
       style="font-style:normal;font-variant:normal;font-weight:bold;font-stretch:normal;font-size:60px;font-family:'Josefin Slab';-inkscape-font-specification:'Josefin Slab Bold';text-align:start;letter-spacing:0px;word-spacing:0px;writing-mode:lr-tb;direction:ltr;white-space:pre;shape-inside:url(#rect26);display:inline;fill:#000000;fill-opacity:0;stroke:#370188;stroke-width:12;stroke-opacity:1" />
    <rect
       style="fill:none;fill-opacity:1;fill-rule:nonzero;stroke:#370188;stroke-width:3.175;stroke-dasharray:none;stroke-opacity:1"
       id="rect113-4-2"
       width="282.57498"
       height="354.01248"
       x="1.5875"
       y="1.5875" />
    <rect
       width="9.8019896"
       height="15.875"
       rx="0"
       ry="0"
       fill="#6002ee"
       stroke-width="0"
       id="rect1-3-4-39-4-2-0-5-6"
       x="247.60098"
       y="332.84583" />
    <text
       font-family="Montserrat"
       font-size="618.11px"
       font-weight="200"
       stroke-width="0"
       fill="#33333"
       id="text3-0-3-0-0-5-3-3-2"
       x="248.33717"
       y="345.42685"
       style="font-style:normal;font-variant:normal;font-weight:300;font-stretch:normal;font-size:13.0774px;font-family:Montserrat;-inkscape-font-specification:'Montserrat Light'"
       transform="scale(0.99938968,1.0006107)"><tspan
         y="345.42685"
         font-weight="200"
         stroke-width="0"
         id="tspan1-4-8-6-2-1-2-5-9"
         style="font-style:normal;font-variant:normal;font-weight:300;font-stretch:normal;font-size:13.0774px;font-family:Montserrat;-inkscape-font-specification:'Montserrat Light'"><tspan
           style="font-style:normal;font-variant:normal;font-weight:300;font-stretch:normal;font-size:13.0774px;font-family:Montserrat;-inkscape-font-specification:'Montserrat Light';fill:#ffffff;fill-opacity:1;stroke-width:0"
           id="tspan3-6-3-13-5-2-1-6-6">k</tspan></tspan></text>
    <text
       dx="0"
       dy="0"
       font-family="Montserrat"
       font-size="465.256px"
       font-weight="200"
       stroke-width="0"
       fill="#33333"
       id="text3-0-3-6-8-4-0-8-9"
       x="195.17656"
       y="345.42685"
       style="font-style:normal;font-variant:normal;font-weight:300;font-stretch:normal;font-size:13.0774px;font-family:Montserrat;-inkscape-font-specification:'Montserrat Light'"
       transform="scale(0.99938968,1.0006107)"><tspan
         y="345.42685"
         font-weight="200"
         stroke-width="0"
         id="tspan1-4-8-3-9-0-0-6-9"
         style="font-style:normal;font-variant:normal;font-weight:300;font-stretch:normal;font-size:13.0774px;font-family:Montserrat;-inkscape-font-specification:'Montserrat Light'">product</tspan></text>
    <text
       font-family="Montserrat"
       font-size="465.256px"
       font-weight="200"
       stroke-width="0"
       fill="#33333"
       id="text3-0-3-6-4-3-4-3-7-8"
       x="257.78415"
       y="345.42685"
       style="font-style:normal;font-variant:normal;font-weight:300;font-stretch:normal;font-size:13.0774px;font-family:Montserrat;-inkscape-font-specification:'Montserrat Light'"
       transform="scale(0.99938968,1.0006107)"><tspan
         y="345.42685"
         font-weight="200"
         stroke-width="0"
         id="tspan1-4-8-3-6-9-9-9-7-0"
         style="font-style:normal;font-variant:normal;font-weight:300;font-stretch:normal;font-size:13.0774px;font-family:Montserrat;-inkscape-font-specification:'Montserrat Light'">ind</tspan></text>
    <path
       style="fill:#018816;fill-opacity:1;stroke:#370188;stroke-width:3.175;stroke-dasharray:none;stroke-opacity:1"
       d="m 38.434952,221.64027 -2.44821,35.65858 51.518659,1.38376 -2.022443,-39.59697 z"
       id="path25-4" />
    <path
       style="fill:#ffffff;fill-opacity:1;stroke:#370188;stroke-width:3.175;stroke-dasharray:none;stroke-opacity:1"
       d="m 21.773695,230.08809 c 0,15.83268 7.109175,26.92819 17.072325,33.2866 2.370486,1.51283 4.90258,2.75752 7.53891,3.73403 23.316628,8.63653 54.78808,-3.70364 54.76376,-37.02063 l -15.068038,15.50714 -15.15129,-6.57609 -19.957542,9.34238 -10.755375,-11.69093 -8.490204,5.1436 z"
       id="path1-8"
       sodipodi:nodetypes="cssccccccc" />
    <path
       style="fill:#370189;fill-opacity:1;stroke:#370188;stroke-width:0;stroke-dasharray:none;stroke-opacity:1"
       d="m 45.701702,265.42403 -3.826923,-5.2726 5.071173,2.35369 1.326261,-3.92795 0.376809,4.14214 4.169982,-3.19913 -2.573465,4.76485 5.63245,0.54648 -3.692811,2.899 z"
       id="path3-2"
       sodipodi:nodetypes="cccccccccc" />
    <path
       style="fill:#370189;fill-opacity:1;stroke:#370188;stroke-width:0;stroke-dasharray:none;stroke-opacity:1"
       d="m 76.846419,265.96038 3.035109,-5.32825 -4.745514,2.65566 -0.408241,-3.99875 -1.235837,4.49196 -4.724654,-1.36681 3.40941,3.17529 -4.781804,1.08258 4.5025,2.28216 z"
       id="path3-1-5"
       sodipodi:nodetypes="cccccccccc" />
    <path
       style="fill:#ee4302;fill-opacity:1;stroke:#370188;stroke-width:3.175;stroke-dasharray:none;stroke-opacity:1"
       d="m 46.29603,266.7541 c -0.0908,0.82798 -0.110808,10.87926 -0.110808,10.87926 l -7.657909,4.01428 9.170479,-1.55092 0.742855,0.90941 0.700278,-0.93297 8.75249,1.41576 -6.925976,-3.71138 c 0,0 0.07017,-8.9828 0.0127,-9.10428 z"
       id="path7-8"
       sodipodi:nodetypes="cccccccccc" />
    <path
       style="fill:#ee4302;fill-opacity:1;stroke:#370188;stroke-width:3.175;stroke-dasharray:none;stroke-opacity:1"
       d="m 76.334577,266.0162 0.340042,12.60687 7.871143,2.6912 -9.979501,-1.45317 -0.742855,0.90942 -0.70031,-0.93298 -9.076213,1.20136 7.41826,-3.10318 c 0,0 0.16637,-9.20293 0.179705,-9.394 z"
       id="path7-4-0"
       sodipodi:nodetypes="cccccccccc" />
    <path
       style="fill:none;fill-opacity:1;stroke:#370188;stroke-width:3.175;stroke-dasharray:none;stroke-opacity:1"
       d="m 46.794187,242.43646 3.905726,-9.47852 22.305454,-0.053 3.054922,7.69032"
       id="path19-60"
       sodipodi:nodetypes="cccc" />
    <path
       style="fill:#fdc458;fill-opacity:1;stroke:#370188;stroke-width:3.175;stroke-dasharray:none;stroke-opacity:1"
       d="m 35.150193,211.69408 c 0,0 -38.4727762,27.21073 6.956202,15.58833 z"
       id="path17-0"
       sodipodi:nodetypes="ccc" />
    <path
       style="fill:#fdc458;fill-opacity:1;stroke:#370188;stroke-width:3.175;stroke-dasharray:none;stroke-opacity:1"
       d="m 91.402714,212.73297 c 0,0 34.302296,21.19084 -7.534783,15.42339 z"
       id="path16-7"
       sodipodi:nodetypes="ccc" />
    <path
       style="fill:#fdc458;fill-opacity:1;stroke:#370188;stroke-width:3.175;stroke-dasharray:none;stroke-opacity:1"
       d="M 77.780821,197.93264 C 95.206776,158.99073 28.149985,159.5875 45.18932,198.5759 l 15.592742,7.69652 z"
       id="path23-5"
       sodipodi:nodetypes="cccc" />
    <path
       style="fill:#018816;fill-opacity:1;stroke:#370188;stroke-width:3.175;stroke-dasharray:none;stroke-opacity:1"
       d="m 44.148968,227.39531 -9.800304,4.0472 -6.621494,-19.13718 13.522515,-5.46456 -0.305753,-10.09069 19.875563,9.57891 20.4871,-10.49623 v 8.56177 l 14.322171,7.7724 -6.590697,18.69103 -9.531286,-3.85835"
       id="path12-0"
       sodipodi:nodetypes="ccccccccccc" />
    <circle
       style="fill:#370188;fill-opacity:1;stroke:none;stroke-width:8.13508;stroke-dasharray:none;stroke-opacity:1"
       id="path9-8"
       cx="55.519951"
       cy="182.96968"
       r="1.7054044" />
    <circle
       style="fill:#370188;fill-opacity:1;stroke:none;stroke-width:8.13508;stroke-dasharray:none;stroke-opacity:1"
       id="path9-4"
       cx="68.016571"
       cy="183.05479"
       r="1.7054044" />
    <path
       style="fill:none;fill-opacity:1;stroke:#370188;stroke-width:3.175;stroke-dasharray:none;stroke-opacity:1"
       d="m 40.944567,206.63925 19.874928,4.48241 20.996306,-6.52114"
       id="path22-1"
       sodipodi:nodetypes="ccc" />
    <path
       style="fill:none;fill-opacity:1;stroke:#370188;stroke-width:3.175;stroke-dasharray:none;stroke-opacity:1"
       d="m 51.637904,205.69231 -3.37312,20.3066"
       id="path10-79"
       sodipodi:nodetypes="cc" />
    <path
       style="fill:none;fill-opacity:1;stroke:#370188;stroke-width:3.175;stroke-dasharray:none;stroke-opacity:1"
       d="m 69.077797,205.1859 2.501138,20.97738"
       id="path11-71"
       sodipodi:nodetypes="cc" />
    <path
       style="fill:none;fill-opacity:1;stroke:#370188;stroke-width:3.175;stroke-dasharray:none;stroke-opacity:1"
       d="m 60.474563,188.09735 5.982748,3.09451 -7.220553,3.30086"
       id="path24-70" />
    <path
       style="fill:none;fill-opacity:1;stroke:#370188;stroke-width:3.175;stroke-dasharray:none;stroke-opacity:1"
       d="m 61.588861,171.02896 c 5.406327,-4.70871 -5.057489,-5.05752 0.523209,-8.89425"
       id="path26-0"
       sodipodi:nodetypes="cc" />
    <path
       style="fill:#ffffff;fill-opacity:1;stroke:#370188;stroke-width:3.21643;stroke-dasharray:none;stroke-opacity:1"
       d="m 192.92151,181.72239 c -1.24359,8.17194 -13.49671,27.73727 -15.45089,31.82324 -1.95415,4.08597 3.22145,8.96309 6.77444,5.76539 3.55301,-3.19776 15.76828,-21.08606 17.36715,-27.30386"
       id="path5-1-2-1-7"
       sodipodi:nodetypes="cssc" />
    <path
       style="fill:#ffffff;fill-opacity:1;stroke:#370188;stroke-width:3.21643;stroke-dasharray:none;stroke-opacity:1"
       d="m 235.28756,223.95944 c 0.81687,6.53498 4.51006,21.22091 12.1399,30.13967 6.13108,7.16677 14.56271,8.4803 18.80835,10.80215 9.77519,5.346 6.769,14.03994 -1.93154,11.82474 -12.68041,-3.22846 -31.83633,-6.96699 -30.95235,-15.8067"
       id="path2-4-2-5-8-3"
       sodipodi:nodetypes="csssc" />
    <path
       style="fill:#fd5869;fill-opacity:1;stroke:#370188;stroke-width:3.21643;stroke-dasharray:none;stroke-opacity:1"
       d="m 191.47434,187.84518 -14.44257,20.39693 11.14864,9.75506"
       id="path13-6-7-6-8"
       sodipodi:nodetypes="ccc" />
    <path
       style="fill:#ffffff;fill-opacity:1;stroke:#370188;stroke-width:3.21643;stroke-dasharray:none;stroke-opacity:1"
       d="m 187.76978,136.13609 c -2.98008,-3.66221 0.72159,-6.68728 3.80159,-2.51292"
       id="path15-0-5-6-6-1"
       sodipodi:nodetypes="cc" />
    <path
       style="fill:#ffffff;fill-opacity:1;stroke:#370188;stroke-width:3.21656;stroke-dasharray:none;stroke-opacity:1"
       d="m 208.59467,160.4805 c -9.26554,17.31194 -44.37713,6.82723 -30.47879,-11.94766 13.89834,-18.77498 19.2626,-20.48179 30.23495,-19.99418 10.97239,0.48771 19.64004,10.31736 20.72561,18.2873 1.42976,10.49709 3.3273,59.21102 5.76564,73.59704 1.99771,11.78674 -0.79394,34.08944 -2.08242,46.63332 -0.28416,2.76612 -0.49511,5.05771 -0.56556,6.65731 -0.44358,10.07059 -13.41428,10.82716 -14.14215,0.73152 -0.53937,-7.48017 -10.08545,-6.21151 -10.38755,0 -0.45123,9.27808 -13.78369,9.12606 -14.58449,-0.2613 -0.92952,-10.89467 -6.17163,-40.69925 -5.15074,-52.22005 0.97228,-10.97236 6.76719,-52.94938 6.76719,-52.94938 v 0"
       id="path1-2-4-7-1-7"
       sodipodi:nodetypes="csssssssssscc" />
    <circle
       style="fill:#370188;fill-opacity:1;stroke:#370188;stroke-width:0.804104;stroke-opacity:1"
       id="path3-29-2-0"
       cx="191.34297"
       cy="142.43954"
       r="1.5030103" />
    <circle
       style="fill:#370188;fill-opacity:1;stroke:#370188;stroke-width:0.804104;stroke-opacity:1"
       id="path3-3-5-9-1"
       cx="201.98987"
       cy="144.77351"
       r="1.5030103" />
    <path
       style="fill:#370188;fill-opacity:1;stroke:#370188;stroke-width:3.21643;stroke-dasharray:none;stroke-opacity:1"
       d="m 186.40193,153.99413 c 1.06385,-0.69009 5.0199,0.46523 5.52069,1.5527 0.46853,1.01737 -3.81838,3.16652 -4.54308,2.76035 -0.53051,-0.29718 -2.04152,-3.62296 -0.97761,-4.31305 z"
       id="path4-2-3-9-6"
       sodipodi:nodetypes="zssz" />
    <path
       style="fill:#fd5869;fill-opacity:1;stroke:#370188;stroke-width:3.21643;stroke-dasharray:none;stroke-opacity:1"
       d="m 234.61922,248.34478 c -0.34051,5.32857 -0.99514,27.69688 -0.99514,27.69688 l -19.1556,-0.58045 -1.99018,-5.97062 -1.74142,6.05349 -20.39947,0.58052 c 0,0 -0.21209,-19.99025 -0.66339,-29.02366 -0.45123,-9.03342 -3.11144,-13.35294 -1.94037,-25.16197 1.17107,-11.80906 5.49523,-45.01379 5.49523,-45.01379 l 5.28793,1.13319 4.91023,10.19817 4.15487,-10.38705 23.22922,-1.51085 c 0,0 1.73711,30.37408 4.16312,44.7587 2.42599,14.3845 0.33385,17.47355 0.12986,20.37636 -0.20415,2.9028 -0.14414,1.5225 -0.48473,6.85108 z"
       id="path14-0-7-8-2"
       sodipodi:nodetypes="zccccczzccccczzz" />
    <path
       style="fill:#ffffff;fill-opacity:1;stroke:#370188;stroke-width:3.21643;stroke-dasharray:none;stroke-opacity:1"
       d="m 231.89088,187.66824 c 0.69111,10.08987 -1.55305,30.37777 -1.96275,34.40325 -0.55286,5.43208 -7.64343,6.63439 -8.74919,0.13812 -1.10572,-6.49628 -1.55673,-27.26405 -1.55673,-27.26405"
       id="path6-86-3-4-3"
       sodipodi:nodetypes="cssc" />
    <path
       style="fill:#ffffff;fill-opacity:1;stroke:#370188;stroke-width:3.21643;stroke-dasharray:none;stroke-opacity:1"
       d="m 208.28793,177.01396 -4.17071,11.2469"
       id="path10-5-4-0-6-1"
       sodipodi:nodetypes="cc" />
    <path
       style="fill:#fd5869;fill-opacity:1;stroke:#370188;stroke-width:3.21643;stroke-dasharray:none;stroke-opacity:1"
       d="m 212.03488,186.98854 -3.07458,-8.95407 22.08108,-1.61389 2.6409,9.02313 z"
       id="path7-1-7-2-3-4"
       sodipodi:nodetypes="ccccc" />
    <path
       style="fill:#ffffff;fill-opacity:1;stroke:#370188;stroke-width:3.21643;stroke-dasharray:none;stroke-opacity:1"
       d="m 203.80652,188.54127 -5.09153,-11.52731"
       id="path9-9-9-5-8-8"
       sodipodi:nodetypes="cc" />
    <path
       style="fill:#fd5869;fill-opacity:1;stroke:#370188;stroke-width:3.21643;stroke-dasharray:none;stroke-opacity:1"
       d="m 193.1148,177.00742 5.11908,0.79594 -2.0138,9.07551 -6.3901,-1.8254 z"
       id="path8-9-5-7-9-9"
       sodipodi:nodetypes="ccccc" />
    <path
       style="fill:#fd5869;fill-opacity:1;stroke:#370188;stroke-width:3.21643;stroke-dasharray:none;stroke-opacity:1"
       d="m 216.59304,193.03405 0.75266,24.69109 15.03528,-3.05022 -0.69476,-27.08948"
       id="path12-2-2-7-8-2"
       sodipodi:nodetypes="cccc" />
    <path
       style="fill:#fd5869;fill-opacity:1;stroke:#370188;stroke-width:3.21643;stroke-dasharray:none;stroke-opacity:1"
       d="m 203.90323,188.07255 c 0,0 -1.32988,28.23527 -1.43218,31.20199 -0.10255,2.96675 1.85966,33.1203 1.85966,33.1203 l 5.23132,-0.40301"
       id="path11-7-9-4-2-3"
       sodipodi:nodetypes="csc" />
    <circle
       style="fill:#370188;fill-opacity:1;stroke:#370188;stroke-width:0.804104;stroke-opacity:1"
       id="path3-3-6-16-4-6-1"
       r="0.76141715"
       cy="196.6916"
       cx="207.57364"
       inkscape:transform-center-x="2.5670641"
       inkscape:transform-center-y="-5.6852825e-06" />
    <circle
       style="fill:#370188;fill-opacity:1;stroke:#370188;stroke-width:0.804104;stroke-opacity:1"
       id="path3-3-6-9-41-1-0-5"
       r="0.76141715"
       cy="206.82013"
       cx="207.08646"
       inkscape:transform-center-x="2.5670306"
       inkscape:transform-center-y="-3.6976775e-06" />
    <circle
       style="fill:#370188;fill-opacity:1;stroke:#370188;stroke-width:0.804104;stroke-opacity:1"
       id="path3-3-6-2-6-2-9-0"
       r="0.76141715"
       cy="216.24704"
       cx="206.60548"
       inkscape:transform-center-x="2.567051"
       inkscape:transform-center-y="7.9723223e-06" />
    <circle
       style="fill:#370188;fill-opacity:1;stroke:#370188;stroke-width:0.804104;stroke-opacity:1"
       id="path3-3-6-1-3-7-6-7"
       r="0.76141715"
       cy="226.03864"
       cx="206.77058"
       inkscape:transform-center-x="2.5670693"
       inkscape:transform-center-y="1.4437816e-05" />
    <circle
       style="fill:#370188;fill-opacity:1;stroke:#370188;stroke-width:0.804104;stroke-opacity:1"
       id="path3-3-6-6-9-8-5-4"
       r="0.76141715"
       cy="236.17615"
       cx="207.34341"
       inkscape:transform-center-x="2.567042"
       inkscape:transform-center-y="-8.241693e-06" />
    <circle
       style="fill:#370188;fill-opacity:1;stroke:#370188;stroke-width:0.804104;stroke-opacity:1"
       id="path3-3-6-60-59-6-9-2"
       r="0.76141715"
       cy="245.97049"
       cx="207.91432"
       inkscape:transform-center-x="2.5670372"
       inkscape:transform-center-y="-1.4574684e-05" />
    <path
       style="fill:#ffffff;fill-opacity:1;stroke:#370188;stroke-width:3.21643;stroke-dasharray:none;stroke-opacity:1"
       d="m 215.39511,140.50035 c 3.37258,-3.08899 6.1441,1.80683 3.08896,3.72208"
       id="path15-1-0-5-7"
       sodipodi:nodetypes="cc" />
    <text
       xml:space="preserve"
       transform="matrix(0.26458333,0,0,0.26458333,-11.168181,-14.549326)"
       id="text2"
       style="font-style:normal;font-variant:normal;font-weight:normal;font-stretch:normal;font-size:72px;font-family:'Nanum Pen';-inkscape-font-specification:'Nanum Pen';text-align:center;letter-spacing:0px;word-spacing:0px;writing-mode:lr-tb;direction:ltr;white-space:pre;shape-inside:url(#rect2);display:inline;fill:#370188;stroke:none;stroke-width:12"><tspan
         x="457.34966"
         y="148.11758"
         id="tspan1">Frontend.
</tspan><tspan
         x="473.29762"
         y="238.11758"
         id="tspan7">Backend.
</tspan><tspan
         x="384.91769"
         y="328.11758"
         id="tspan8">Infrastructure.
</tspan><tspan
         x="317.05754"
         y="418.11758"
         id="tspan9">All working together
</tspan><tspan
         x="319.86572"
         y="508.11758"
         id="tspan10">to deliver real value.</tspan></text>
    <path
       style="fill:none;fill-opacity:1;stroke:#370188;stroke-width:1.5875;stroke-linecap:round;stroke-dasharray:none;stroke-opacity:1"
       d="m 166.32609,144.36591 c -6.29585,-1.5484 -22.3825,-2.79238 -23.26077,-20.7972"
       id="path13"
       sodipodi:nodetypes="cc" />
    <path
       style="fill:#ffffff;fill-opacity:1;stroke:#370188;stroke-width:3.175;stroke-linejoin:miter;stroke-dasharray:none;stroke-opacity:1"
       d="M 228.91258,254.4767 H 78.563924 l -39.85519,49.77741 H 194.4304 Z"
       id="path2-3"
       sodipodi:nodetypes="ccccc" />
    <rect
       style="fill:#fed68b;fill-opacity:1;stroke:none;stroke-width:3.175;stroke-dasharray:none;stroke-opacity:1"
       id="rect34"
       width="8.6988649"
       height="54.160664"
       x="112.57156"
       y="233.36531" />
    <rect
       style="fill:#fed68b;fill-opacity:1;stroke:none;stroke-width:3.175;stroke-dasharray:none;stroke-opacity:1"
       id="rect34-1"
       width="18.477381"
       height="54.30447"
       x="129.67401"
       y="233.08643" />
    <rect
       style="fill:#fed68b;fill-opacity:1;stroke:none;stroke-width:3.175;stroke-dasharray:none;stroke-opacity:1"
       id="rect34-1-3"
       width="13.452621"
       height="52.6894"
       x="156.73621"
       y="235.06496" />
    <path
       id="rect15"
       style="fill:#fed68b;fill-opacity:1;stroke:#370188;stroke-width:3.175;stroke-dasharray:none;stroke-opacity:1"
       d="m 104.17634,234.54032 h -5.04103 c -1.75895,0 -3.175,1.41605 -3.175,3.175 V 284.282 c 0,1.75895 1.41605,3.175 3.175,3.175 h 5.04103 m 8.39057,0 h 8.69301 m 0,-45.64167 v -7.27501 h -8.69301 m 35.6129,0 h -18.52909 v 7.27501 m 0,45.64167 h 18.48725 m 22.63551,-53.03555 -0.256,0.11874 h -13.41779 m -0.57104,52.91681 h 13.8653 m 8.92042,0 h 6.07508 c 1.75895,0 3.175,-1.41605 3.175,-3.175 v -46.56668 c 0,-1.75895 -1.41605,-3.175 -3.175,-3.175 h -6.48126 v 1.32398"
       sodipodi:nodetypes="csssscccccccccccccccccsssscc" />
    <g
       id="path15"
       transform="matrix(3.1749999,0,0,3.1749999,26.639441,-111.00549)">
      <path
         style="fill:#fed68b"
         d="m 24.333333,116.5 h 24"
         id="path19" />
      <path
         id="path23"
         style="fill:#563801"
         d="m 22.333961,115.5 v 2 h 2.087077 v -2 z m 4.729811,0 v 2 h 2.737956 v -2 z m 5.380727,0 v 2 H 38.2736 c 4.66e-4,-0.66666 0.0011,-1.33334 0.0016,-2 z m 8.473466,0 c -5.65e-4,0.66667 -0.0012,1.33333 -0.0016,2 h 4.24707 c -0.0029,-0.66668 -0.0023,-1.33331 -0.0036,-2 z m 7.05108,0 c 0.0013,0.66669 8.55e-4,1.33332 0.0037,2 h 2.527832 v -2 z"
         sodipodi:nodetypes="ccccccccccccccccccccccccc" />
    </g>
    <g
       id="path15-5"
       transform="matrix(3.1749999,0,0,3.1749999,26.639441,-111.00549)">
      <path
         style="fill:#fed68b"
         d="m 24.333333,121.5 h 24"
         id="path24" />
      <path
         id="path25"
         style="fill:#563801"
         d="m 22.333961,120.5 v 2 h 2.087077 v -2 z m 4.729811,0 v 2 h 2.737956 v -2 z m 5.380727,0 v 2 h 5.825195 c 2.95e-4,-0.66667 0.0011,-1.33334 0.0015,-2 z m 8.469397,0 c -3.48e-4,0.66667 -0.0012,1.33333 -0.0015,2 h 4.303874 c -0.01081,-0.66665 -0.02083,-1.33329 -0.02783,-2 z m 7.083957,0 c 0.007,0.66671 0.0173,1.33335 0.02816,2 h 2.474609 v -2 z"
         sodipodi:nodetypes="ccccccccccccccccccccccccc" />
    </g>
    <path
       id="path16"
       style="fill:#563801;fill-opacity:1;stroke:#563801;stroke-width:3.175;stroke-dasharray:none;stroke-opacity:1"
       d="m 100.51196,231.54776 c -5.03138,0 -6.9882,1.97951 -6.9882,7.96642 0,5.98691 1.7177,6.36823 6.84868,6.42855 1.98897,0.0222 3.13038,-0.33487 3.8039,-0.90951 v -13.48546 z m 12.05495,0 v 6.49986 c 0.44046,-0.0435 0.91898,-0.0708 1.46245,-0.0708 6.4985,0 6.57759,2.32156 7.23056,4.00959 v -0.17114 -10.26757 z m 17.08381,0 v 10.26757 1.78492 c 7.4179,-0.7079 2.07695,-5.06483 11.45253,-5.06483 5.37818,0 6.12795,1.76534 7.07037,3.48714 0.004,-2.96863 0.002,-5.93725 0.007,-8.90591 9.5e-4,-0.44409 0.003,-1.08029 0.004,-1.56889 z m 26.92295,0 c -6.6e-4,0.52654 -9.6e-4,1.05321 -0.002,1.57975 -0.006,4.00456 -0.005,8.00916 -0.009,12.01372 0.39966,0.0432 0.80182,0.0857 1.27279,0.10287 9.76058,0.35224 7.81707,-2.68487 12.1636,-3.25459 -0.002,-2.04166 -0.005,-4.08369 -0.0105,-6.12518 v -4.31654 z m 21.80523,0 v 4.31654 c 0.006,2.22335 0.009,4.44731 0.0114,6.67089 2.58161,1.123 2.95194,3.33975 6.79855,3.54759 5.17114,0.2794 6.12365,-4.05044 6.12365,-7.4047 0,-3.35426 -0.95269,-7.13032 -5.70455,-7.13032 z"
       sodipodi:nodetypes="sscccsccscccccccscccccccccccccccsssc" />
  </g>
</svg>
