<?xml version="1.0" encoding="UTF-8" standalone="no"?>
<!-- Created with Inkscape (http://www.inkscape.org/) -->

<svg
   width="1080"
   height="1350"
   viewBox="0 0 285.74999 357.1875"
   version="1.1"
   id="svg1"
   inkscape:version="1.4 (e7c3feb1, 2024-10-09)"
   sodipodi:docname="panel-01.svg"
   inkscape:export-filename="/Users/eggdice/Projects/productkind/kim-and-tim/assets/dist/week-012/day-2/panel-00.png"
   inkscape:export-xdpi="96"
   inkscape:export-ydpi="96"
   xmlns:inkscape="http://www.inkscape.org/namespaces/inkscape"
   xmlns:sodipodi="http://sodipodi.sourceforge.net/DTD/sodipodi-0.dtd"
   xmlns="http://www.w3.org/2000/svg"
   xmlns:svg="http://www.w3.org/2000/svg">
  <sodipodi:namedview
     id="namedview1"
     pagecolor="#ffffff"
     bordercolor="#000000"
     borderopacity="0.25"
     inkscape:showpageshadow="2"
     inkscape:pageopacity="0.0"
     inkscape:pagecheckerboard="0"
     inkscape:deskcolor="#d1d1d1"
     inkscape:document-units="px"
     inkscape:zoom="0.38970132"
     inkscape:cx="164.22834"
     inkscape:cy="384.91017"
     inkscape:window-width="1728"
     inkscape:window-height="1057"
     inkscape:window-x="2560"
     inkscape:window-y="355"
     inkscape:window-maximized="0"
     inkscape:current-layer="layer1"
     inkscape:export-bgcolor="#ffffffff" />
  <defs
     id="defs1">
    <rect
       x="337.60629"
       y="293.08679"
       width="868.13049"
       height="871.84045"
       id="rect26" />
    <rect
       x="358.01108"
       y="335.75131"
       width="877.4054"
       height="734.57196"
       id="rect25" />
    <rect
       x="418.44797"
       y="244.75258"
       width="748.0744"
       height="801.36731"
       id="rect16" />
    <clipPath
       clipPathUnits="userSpaceOnUse"
       id="clipPath3">
      <rect
         style="fill:#370188;stroke:#370188;stroke-width:3.175"
         id="rect4"
         width="387.91391"
         height="225.63065"
         x="-131.6772"
         y="-44.129654"
         ry="1.5951835" />
    </clipPath>
    <clipPath
       clipPathUnits="userSpaceOnUse"
       id="clipPath7">
      <rect
         style="fill:#fdc458;fill-opacity:1;stroke:#370188;stroke-width:1"
         id="rect8"
         width="44.744373"
         height="55.042683"
         x="274.50317"
         y="-8.5227375"
         ry="1.4910408" />
    </clipPath>
  </defs>
  <g
     inkscape:label="Layer 1"
     inkscape:groupmode="layer"
     id="layer1">
    <text
       xml:space="preserve"
       transform="scale(0.26458333)"
       id="text16"
       style="font-style:normal;font-variant:normal;font-weight:bold;font-stretch:normal;font-size:60px;font-family:'Josefin Slab';-inkscape-font-specification:'Josefin Slab Bold';text-align:start;letter-spacing:0px;word-spacing:0px;writing-mode:lr-tb;direction:ltr;white-space:pre;shape-inside:url(#rect16);display:inline;fill:#000000;fill-opacity:0;stroke:#370188;stroke-width:12;stroke-opacity:1" />
    <text
       xml:space="preserve"
       transform="scale(0.26458333)"
       id="text25"
       style="font-style:normal;font-variant:normal;font-weight:bold;font-stretch:normal;font-size:60px;font-family:'Josefin Slab';-inkscape-font-specification:'Josefin Slab Bold';text-align:start;letter-spacing:0px;word-spacing:0px;writing-mode:lr-tb;direction:ltr;white-space:pre;shape-inside:url(#rect25);display:inline;fill:#000000;fill-opacity:0;stroke:#370188;stroke-width:12;stroke-opacity:1" />
    <text
       xml:space="preserve"
       transform="scale(0.26458333)"
       id="text26"
       style="font-style:normal;font-variant:normal;font-weight:bold;font-stretch:normal;font-size:60px;font-family:'Josefin Slab';-inkscape-font-specification:'Josefin Slab Bold';text-align:start;letter-spacing:0px;word-spacing:0px;writing-mode:lr-tb;direction:ltr;white-space:pre;shape-inside:url(#rect26);display:inline;fill:#000000;fill-opacity:0;stroke:#370188;stroke-width:12;stroke-opacity:1" />
    <rect
       style="fill:none;fill-opacity:1;fill-rule:nonzero;stroke:#370188;stroke-width:3.175;stroke-dasharray:none;stroke-opacity:1"
       id="rect113-4-2"
       width="282.57498"
       height="354.01248"
       x="1.5875"
       y="1.5875" />
    <rect
       width="9.8019896"
       height="15.875"
       rx="0"
       ry="0"
       fill="#6002ee"
       stroke-width="0"
       id="rect1-3-4-39-4-2-0-5-6"
       x="247.60098"
       y="332.84583" />
    <text
       font-family="Montserrat"
       font-size="618.11px"
       font-weight="200"
       stroke-width="0"
       fill="#33333"
       id="text3-0-3-0-0-5-3-3-2"
       x="248.33717"
       y="345.42685"
       style="font-style:normal;font-variant:normal;font-weight:300;font-stretch:normal;font-size:13.0774px;font-family:Montserrat;-inkscape-font-specification:'Montserrat Light'"
       transform="scale(0.99938968,1.0006107)"><tspan
         y="345.42685"
         font-weight="200"
         stroke-width="0"
         id="tspan1-4-8-6-2-1-2-5-9"
         style="font-style:normal;font-variant:normal;font-weight:300;font-stretch:normal;font-size:13.0774px;font-family:Montserrat;-inkscape-font-specification:'Montserrat Light'"><tspan
           style="font-style:normal;font-variant:normal;font-weight:300;font-stretch:normal;font-size:13.0774px;font-family:Montserrat;-inkscape-font-specification:'Montserrat Light';fill:#ffffff;fill-opacity:1;stroke-width:0"
           id="tspan3-6-3-13-5-2-1-6-6">k</tspan></tspan></text>
    <text
       dx="0"
       dy="0"
       font-family="Montserrat"
       font-size="465.256px"
       font-weight="200"
       stroke-width="0"
       fill="#33333"
       id="text3-0-3-6-8-4-0-8-9"
       x="195.17656"
       y="345.42685"
       style="font-style:normal;font-variant:normal;font-weight:300;font-stretch:normal;font-size:13.0774px;font-family:Montserrat;-inkscape-font-specification:'Montserrat Light'"
       transform="scale(0.99938968,1.0006107)"><tspan
         y="345.42685"
         font-weight="200"
         stroke-width="0"
         id="tspan1-4-8-3-9-0-0-6-9"
         style="font-style:normal;font-variant:normal;font-weight:300;font-stretch:normal;font-size:13.0774px;font-family:Montserrat;-inkscape-font-specification:'Montserrat Light'">product</tspan></text>
    <text
       font-family="Montserrat"
       font-size="465.256px"
       font-weight="200"
       stroke-width="0"
       fill="#33333"
       id="text3-0-3-6-4-3-4-3-7-8"
       x="257.78415"
       y="345.42685"
       style="font-style:normal;font-variant:normal;font-weight:300;font-stretch:normal;font-size:13.0774px;font-family:Montserrat;-inkscape-font-specification:'Montserrat Light'"
       transform="scale(0.99938968,1.0006107)"><tspan
         y="345.42685"
         font-weight="200"
         stroke-width="0"
         id="tspan1-4-8-3-6-9-9-9-7-0"
         style="font-style:normal;font-variant:normal;font-weight:300;font-stretch:normal;font-size:13.0774px;font-family:Montserrat;-inkscape-font-specification:'Montserrat Light'">ind</tspan></text>
    <text
       xml:space="preserve"
       style="font-style:normal;font-variant:normal;font-weight:normal;font-stretch:normal;font-size:19.05px;font-family:'Nanum Pen';-inkscape-font-specification:'Nanum Pen';text-align:start;letter-spacing:0px;word-spacing:0px;writing-mode:lr-tb;direction:ltr;text-anchor:start;white-space:pre;inline-size:165.98;display:inline;fill:#370188;fill-opacity:1;stroke:none;stroke-width:1.5875;stroke-linecap:round;stroke-dasharray:none;stroke-opacity:1"
       x="-48.485943"
       y="156.49693"
       id="text17-6-5-0-9-6"
       transform="translate(63.842478,-123.90563)"><tspan
         x="-48.485943"
         y="156.49693"
         id="tspan6">But what if I mess up in </tspan><tspan
         x="-48.485943"
         y="180.30944"
         id="tspan7">front of everyone?</tspan></text>
    <text
       xml:space="preserve"
       style="font-style:normal;font-variant:normal;font-weight:normal;font-stretch:normal;font-size:19.05px;font-family:'Nanum Pen';-inkscape-font-specification:'Nanum Pen';text-align:end;letter-spacing:0px;word-spacing:0px;writing-mode:lr-tb;direction:ltr;text-anchor:end;white-space:pre;inline-size:173.551;display:inline;fill:#370188;fill-opacity:1;stroke:none;stroke-width:1.5875;stroke-linecap:round;stroke-dasharray:none;stroke-opacity:1"
       x="135.97026"
       y="156.49693"
       id="text17-6-5-0-9-6-8"
       transform="translate(134.73406,-45.864237)"><tspan
         x="135.97026"
         y="156.49693"
         id="tspan8">Every time you do it, the<tspan
   y="156.49693"
   id="tspan9"> </tspan></tspan><tspan
         x="135.97026"
         y="180.30944"
         id="tspan10">fear shrinks a little.</tspan></text>
    <path
       style="fill:#018816;fill-opacity:1;stroke:#370188;stroke-width:3.175;stroke-dasharray:none;stroke-opacity:1"
       d="m 59.665088,253.40924 -2.448195,35.65858 51.518367,1.38376 -2.02244,-39.59698 z"
       id="path25-4" />
    <path
       style="fill:#ffffff;fill-opacity:1;stroke:#370188;stroke-width:3.175;stroke-dasharray:none;stroke-opacity:1"
       d="m 43.003924,261.85705 c 0,15.83268 7.109138,26.92819 17.072231,33.28661 2.370468,1.51282 4.902553,2.75752 7.538868,3.73402 23.316488,8.63654 54.787767,-3.70364 54.763447,-37.02063 l -15.06795,15.50715 -15.151205,-6.5761 -19.957429,9.34238 -10.755317,-11.69092 -8.490152,5.14359 z"
       id="path1-8"
       sodipodi:nodetypes="cssccccccc" />
    <path
       style="fill:#370189;fill-opacity:1;stroke:#370188;stroke-width:0;stroke-dasharray:none;stroke-opacity:1"
       d="m 66.931796,297.19299 -3.826906,-5.27259 5.07115,2.35369 1.326251,-3.92795 0.37681,4.14213 4.169956,-3.19913 -2.573445,4.76485 5.632417,0.54648 -3.692799,2.899 z"
       id="path3-2"
       sodipodi:nodetypes="cccccccccc" />
    <path
       style="fill:#370189;fill-opacity:1;stroke:#370188;stroke-width:0;stroke-dasharray:none;stroke-opacity:1"
       d="m 98.076329,297.72934 3.035091,-5.32825 -4.745479,2.65567 -0.40824,-3.99876 -1.235831,4.49196 -4.724623,-1.3668 3.409389,3.17528 -4.781783,1.08258 4.502476,2.28216 z"
       id="path3-1-5"
       sodipodi:nodetypes="cccccccccc" />
    <path
       style="fill:#ee4302;fill-opacity:1;stroke:#370188;stroke-width:3.175;stroke-dasharray:none;stroke-opacity:1"
       d="m 67.526123,298.52306 c -0.0908,0.82798 -0.11081,10.87927 -0.11081,10.87927 l -7.657865,4.01428 9.170429,-1.55093 0.742844,0.90942 0.700277,-0.93298 8.752439,1.41577 -6.925941,-3.71139 c 0,0 0.0702,-8.9828 0.0127,-9.10428 z"
       id="path7-8"
       sodipodi:nodetypes="cccccccccc" />
    <path
       style="fill:#ee4302;fill-opacity:1;stroke:#370188;stroke-width:3.175;stroke-dasharray:none;stroke-opacity:1"
       d="m 97.564492,297.78516 0.34005,12.60688 7.871098,2.69119 -9.979446,-1.45316 -0.742857,0.90941 -0.700304,-0.93297 -9.076159,1.20135 7.418218,-3.10318 c 0,0 0.166367,-9.20293 0.179697,-9.394 z"
       id="path7-4-0"
       sodipodi:nodetypes="cccccccccc" />
    <path
       style="fill:none;fill-opacity:1;stroke:#370188;stroke-width:3.175;stroke-dasharray:none;stroke-opacity:1"
       d="m 68.02427,274.20542 3.905709,-9.47852 22.305324,-0.053 3.054902,7.69033"
       id="path19-60"
       sodipodi:nodetypes="cccc" />
    <path
       style="fill:#fdc458;fill-opacity:1;stroke:#370188;stroke-width:3.175;stroke-dasharray:none;stroke-opacity:1"
       d="m 56.380346,243.46304 c 0,0 -38.472552,27.21073 6.956161,15.58833 z"
       id="path17-0"
       sodipodi:nodetypes="ccc" />
    <path
       style="fill:#fdc458;fill-opacity:1;stroke:#370188;stroke-width:3.175;stroke-dasharray:none;stroke-opacity:1"
       d="m 112.63255,244.50193 c 0,0 34.30223,21.19084 -7.53474,15.42339 z"
       id="path16-7"
       sodipodi:nodetypes="ccc" />
    <path
       style="fill:#fdc458;fill-opacity:1;stroke:#370188;stroke-width:3.175;stroke-dasharray:none;stroke-opacity:1"
       d="m 99.010736,229.70161 c 17.425854,-38.94192 -49.630561,-38.34514 -32.591317,0.64325 l 15.592653,7.69652 z"
       id="path23-5"
       sodipodi:nodetypes="cccc" />
    <path
       style="fill:#018816;fill-opacity:1;stroke:#370188;stroke-width:3.175;stroke-dasharray:none;stroke-opacity:1"
       d="m 65.379065,259.16427 -9.800243,4.04721 -6.621454,-19.13719 13.522435,-5.46456 -0.30575,-10.09068 19.875449,9.57891 20.486988,-10.49624 v 8.56177 l 14.32208,7.7724 -6.59066,18.69104 -9.53123,-3.85836"
       id="path12-0"
       sodipodi:nodetypes="ccccccccccc" />
    <circle
       style="fill:#370188;fill-opacity:1;stroke:none;stroke-width:8.13508;stroke-dasharray:none;stroke-opacity:1"
       id="path9-8"
       cx="76.751579"
       cy="214.73865"
       r="1.7054044" />
    <circle
       style="fill:#370188;fill-opacity:1;stroke:none;stroke-width:8.13508;stroke-dasharray:none;stroke-opacity:1"
       id="path9-4"
       cx="89.248322"
       cy="214.82376"
       r="1.7054044" />
    <path
       style="fill:none;fill-opacity:1;stroke:#370188;stroke-width:3.175;stroke-dasharray:none;stroke-opacity:1"
       d="m 62.174683,238.40822 19.874819,4.4824 20.996188,-6.52113"
       id="path22-1"
       sodipodi:nodetypes="ccc" />
    <path
       style="fill:none;fill-opacity:1;stroke:#370188;stroke-width:3.175;stroke-dasharray:none;stroke-opacity:1"
       d="m 72.867963,237.46127 -3.373102,20.3066"
       id="path10-79"
       sodipodi:nodetypes="cc" />
    <path
       style="fill:none;fill-opacity:1;stroke:#370188;stroke-width:3.175;stroke-dasharray:none;stroke-opacity:1"
       d="m 90.307754,236.95486 2.501125,20.97738"
       id="path11-71"
       sodipodi:nodetypes="cc" />
    <path
       style="fill:none;fill-opacity:1;stroke:#370188;stroke-width:3.175;stroke-dasharray:none;stroke-opacity:1"
       d="m 81.704572,219.86631 5.982717,3.09452 -7.220518,3.30085"
       id="path24-70" />
    <path
       style="fill:none;fill-opacity:1;stroke:#370188;stroke-width:3.175;stroke-dasharray:none;stroke-opacity:1"
       d="m 82.818866,202.79793 c 5.40629,-4.70872 -5.05746,-5.05752 0.523207,-8.89426"
       id="path26-0"
       sodipodi:nodetypes="cc" />
    <path
       style="fill:none;fill-opacity:1;stroke:#370188;stroke-width:1.5875;stroke-linecap:round;stroke-dasharray:none;stroke-opacity:1"
       d="m 192.45026,158.35865 c 2.12174,-9.68777 8.25566,-8.52234 8.52392,-17.87767"
       id="path13-1-9-2-1-7-8-0-7"
       sodipodi:nodetypes="cc" />
    <path
       style="fill:none;fill-opacity:1;stroke:#370188;stroke-width:1.5875;stroke-linecap:round;stroke-dasharray:none;stroke-opacity:1"
       d="M 83.843123,188.328 C 84.141933,160.95536 23.615301,105.9283 23.309931,66.065032"
       id="path13-1-9-2-1-7-8-0-7-8"
       sodipodi:nodetypes="cc" />
    <path
       style="fill:#ffffff;fill-opacity:1;stroke:#370188;stroke-width:3.21643;stroke-dasharray:none;stroke-opacity:1"
       d="m 174.11269,216.75651 c -1.24359,8.17194 -13.49671,27.73728 -15.45089,31.82325 -1.95415,4.08597 3.22145,8.96308 6.77444,5.76538 3.55301,-3.19776 15.76828,-21.08606 17.36715,-27.30385"
       id="path5-1-2-1-7"
       sodipodi:nodetypes="cssc" />
    <path
       style="fill:#ffffff;fill-opacity:1;stroke:#370188;stroke-width:3.21643;stroke-dasharray:none;stroke-opacity:1"
       d="m 216.47874,258.99357 c 0.81687,6.53497 4.51006,21.2209 12.1399,30.13967 6.13108,7.16677 14.56271,8.48029 18.80835,10.80214 9.77519,5.346 6.769,14.03994 -1.93154,11.82475 -12.68041,-3.22847 -31.83633,-6.967 -30.95235,-15.80671"
       id="path2-4-2-5-8-3"
       sodipodi:nodetypes="csssc" />
    <path
       style="fill:#9a58fe;fill-opacity:1;stroke:#370188;stroke-width:3.21643;stroke-dasharray:none;stroke-opacity:1"
       d="m 172.66552,222.87931 -14.44257,20.39693 11.14864,9.75506"
       id="path13-6-7-6-8"
       sodipodi:nodetypes="ccc" />
    <path
       style="fill:#ffffff;fill-opacity:1;stroke:#370188;stroke-width:3.21643;stroke-dasharray:none;stroke-opacity:1"
       d="m 168.96096,171.17021 c -2.98008,-3.6622 0.72159,-6.68728 3.80159,-2.51292"
       id="path15-0-5-6-6-1"
       sodipodi:nodetypes="cc" />
    <path
       style="fill:#ffffff;fill-opacity:1;stroke:#370188;stroke-width:3.21656;stroke-dasharray:none;stroke-opacity:1"
       d="m 189.78585,195.51462 c -9.26554,17.31194 -44.37713,6.82723 -30.47879,-11.94765 13.89834,-18.77498 19.2626,-20.4818 30.23495,-19.99418 10.97239,0.48771 19.64004,10.31735 20.72561,18.2873 1.42976,10.49709 3.3273,59.21101 5.76564,73.59703 1.99771,11.78675 -0.79394,34.08944 -2.08242,46.63332 -0.28416,2.76613 -0.49511,5.05771 -0.56556,6.65731 -0.44358,10.07059 -13.41428,10.82716 -14.14215,0.73152 -0.53937,-7.48017 -10.08545,-6.21151 -10.38755,0 -0.45123,9.27808 -13.78369,9.12606 -14.58449,-0.2613 -0.92952,-10.89466 -6.17163,-40.69925 -5.15074,-52.22005 0.97228,-10.97236 6.76719,-52.94938 6.76719,-52.94938 v 0"
       id="path1-2-4-7-1-7"
       sodipodi:nodetypes="csssssssssscc" />
    <circle
       style="fill:#370188;fill-opacity:1;stroke:#370188;stroke-width:0.804104;stroke-opacity:1"
       id="path3-29-2-0"
       cx="172.53415"
       cy="177.47368"
       r="1.5030103" />
    <circle
       style="fill:#370188;fill-opacity:1;stroke:#370188;stroke-width:0.804104;stroke-opacity:1"
       id="path3-3-5-9-1"
       cx="183.18106"
       cy="179.80765"
       r="1.5030103" />
    <path
       style="fill:#370188;fill-opacity:1;stroke:#370188;stroke-width:3.21643;stroke-dasharray:none;stroke-opacity:1"
       d="m 167.59311,189.02825 c 1.06385,-0.69008 5.0199,0.46523 5.52069,1.5527 0.46853,1.01737 -3.81838,3.16653 -4.54308,2.76035 -0.53051,-0.29718 -2.04152,-3.62296 -0.97761,-4.31305 z"
       id="path4-2-3-9-6"
       sodipodi:nodetypes="zssz" />
    <path
       style="fill:#9a58fe;fill-opacity:1;stroke:#370188;stroke-width:3.21643;stroke-dasharray:none;stroke-opacity:1"
       d="m 215.8104,283.3789 c -0.34051,5.32857 -0.99514,27.69689 -0.99514,27.69689 l -19.1556,-0.58046 -1.99018,-5.97061 -1.74142,6.05348 -20.39947,0.58052 c 0,0 -0.21209,-19.99024 -0.66339,-29.02366 -0.45123,-9.03341 -3.11144,-13.35294 -1.94037,-25.16197 1.17107,-11.80906 5.49523,-45.01378 5.49523,-45.01378 l 5.28793,1.13319 4.91023,10.19816 4.15487,-10.38704 23.22922,-1.51086 c 0,0 1.73711,30.37408 4.16312,44.7587 2.42599,14.3845 0.33385,17.47355 0.12986,20.37636 -0.20415,2.90281 -0.14414,1.52251 -0.48473,6.85108 z"
       id="path14-0-7-8-2"
       sodipodi:nodetypes="zccccczzccccczzz" />
    <path
       style="fill:#ffffff;fill-opacity:1;stroke:#370188;stroke-width:3.21643;stroke-dasharray:none;stroke-opacity:1"
       d="m 213.08206,222.70236 c 0.69111,10.08987 -1.55305,30.37777 -1.96275,34.40326 -0.55286,5.43207 -7.64343,6.63438 -8.74919,0.13811 -1.10572,-6.49627 -1.55673,-27.26404 -1.55673,-27.26404"
       id="path6-86-3-4-3"
       sodipodi:nodetypes="cssc" />
    <path
       style="fill:#ffffff;fill-opacity:1;stroke:#370188;stroke-width:3.21643;stroke-dasharray:none;stroke-opacity:1"
       d="m 189.47911,212.04808 -4.17071,11.2469"
       id="path10-5-4-0-6-1"
       sodipodi:nodetypes="cc" />
    <path
       style="fill:#9a58fe;fill-opacity:1;stroke:#370188;stroke-width:3.21643;stroke-dasharray:none;stroke-opacity:1"
       d="m 193.22606,222.02266 -3.07458,-8.95407 22.08108,-1.61388 2.6409,9.02312 z"
       id="path7-1-7-2-3-4"
       sodipodi:nodetypes="ccccc" />
    <path
       style="fill:#ffffff;fill-opacity:1;stroke:#370188;stroke-width:3.21643;stroke-dasharray:none;stroke-opacity:1"
       d="m 184.9977,223.57539 -5.09153,-11.52731"
       id="path9-9-9-5-8-8"
       sodipodi:nodetypes="cc" />
    <path
       style="fill:#9a58fe;fill-opacity:1;stroke:#370188;stroke-width:3.21643;stroke-dasharray:none;stroke-opacity:1"
       d="m 174.30598,212.04154 5.11908,0.79594 -2.0138,9.07552 -6.3901,-1.82541 z"
       id="path8-9-5-7-9-9"
       sodipodi:nodetypes="ccccc" />
    <path
       style="fill:#9a58fe;fill-opacity:1;stroke:#370188;stroke-width:3.21643;stroke-dasharray:none;stroke-opacity:1"
       d="m 197.78422,228.06818 0.75266,24.69108 15.03528,-3.05022 -0.69476,-27.08948"
       id="path12-2-2-7-8-2"
       sodipodi:nodetypes="cccc" />
    <path
       style="fill:#9a58fe;fill-opacity:1;stroke:#370188;stroke-width:3.21643;stroke-dasharray:none;stroke-opacity:1"
       d="m 185.09441,223.10667 c 0,0 -1.32988,28.23527 -1.43218,31.20199 -0.10255,2.96675 1.85966,33.1203 1.85966,33.1203 l 5.23132,-0.403"
       id="path11-7-9-4-2-3"
       sodipodi:nodetypes="csc" />
    <circle
       style="fill:#370188;fill-opacity:1;stroke:#370188;stroke-width:0.804104;stroke-opacity:1"
       id="path3-3-6-16-4-6-1"
       r="0.76141715"
       cy="231.72574"
       cx="188.76482"
       inkscape:transform-center-x="2.5670641"
       inkscape:transform-center-y="-5.6852825e-06" />
    <circle
       style="fill:#370188;fill-opacity:1;stroke:#370188;stroke-width:0.804104;stroke-opacity:1"
       id="path3-3-6-9-41-1-0-5"
       r="0.76141715"
       cy="241.85428"
       cx="188.27765"
       inkscape:transform-center-x="2.5670306"
       inkscape:transform-center-y="-3.6976775e-06" />
    <circle
       style="fill:#370188;fill-opacity:1;stroke:#370188;stroke-width:0.804104;stroke-opacity:1"
       id="path3-3-6-2-6-2-9-0"
       r="0.76141715"
       cy="251.28116"
       cx="187.79666"
       inkscape:transform-center-x="2.567051"
       inkscape:transform-center-y="7.9723223e-06" />
    <circle
       style="fill:#370188;fill-opacity:1;stroke:#370188;stroke-width:0.804104;stroke-opacity:1"
       id="path3-3-6-1-3-7-6-7"
       r="0.76141715"
       cy="261.07275"
       cx="187.96178"
       inkscape:transform-center-x="2.5670693"
       inkscape:transform-center-y="1.4437816e-05" />
    <circle
       style="fill:#370188;fill-opacity:1;stroke:#370188;stroke-width:0.804104;stroke-opacity:1"
       id="path3-3-6-6-9-8-5-4"
       r="0.76141715"
       cy="271.21027"
       cx="188.53461"
       inkscape:transform-center-x="2.567042"
       inkscape:transform-center-y="-8.241693e-06" />
    <circle
       style="fill:#370188;fill-opacity:1;stroke:#370188;stroke-width:0.804104;stroke-opacity:1"
       id="path3-3-6-60-59-6-9-2"
       r="0.76141715"
       cy="281.00464"
       cx="189.1055"
       inkscape:transform-center-x="2.5670372"
       inkscape:transform-center-y="-1.4574684e-05" />
    <path
       style="fill:#ffffff;fill-opacity:1;stroke:#370188;stroke-width:3.21643;stroke-dasharray:none;stroke-opacity:1"
       d="m 196.58629,175.53447 c 3.37258,-3.08899 6.1441,1.80683 3.08896,3.72208"
       id="path15-1-0-5-7"
       sodipodi:nodetypes="cc" />
    <path
       style="fill:none;stroke:#370188;stroke-width:1.5875;stroke-linecap:round;stroke-opacity:1;-inkscape-stroke:none"
       d="m 63.365311,215.92658 4.84021,5.91581 6.991419,3.63016"
       id="path1" />
    <circle
       style="fill:none;stroke:#370188;stroke-width:1.5875;stroke-linecap:round;stroke-opacity:1;-inkscape-stroke:none"
       id="path2"
       cx="75.323341"
       cy="225.39127"
       r="1.2016053" />
  </g>
</svg>
