<?xml version="1.0" encoding="UTF-8" standalone="no"?>
<!-- Created with Inkscape (http://www.inkscape.org/) -->

<svg
   width="1080"
   height="1350"
   viewBox="0 0 285.74999 357.1875"
   version="1.1"
   id="svg1"
   inkscape:version="1.4 (e7c3feb1, 2024-10-09)"
   sodipodi:docname="panel-02.svg"
   xmlns:inkscape="http://www.inkscape.org/namespaces/inkscape"
   xmlns:sodipodi="http://sodipodi.sourceforge.net/DTD/sodipodi-0.dtd"
   xmlns="http://www.w3.org/2000/svg"
   xmlns:svg="http://www.w3.org/2000/svg">
  <sodipodi:namedview
     id="namedview1"
     pagecolor="#ffffff"
     bordercolor="#000000"
     borderopacity="0.25"
     inkscape:showpageshadow="2"
     inkscape:pageopacity="0.0"
     inkscape:pagecheckerboard="0"
     inkscape:deskcolor="#d1d1d1"
     inkscape:document-units="px"
     inkscape:zoom="0.23131604"
     inkscape:cx="-479.86297"
     inkscape:cy="1197.4959"
     inkscape:window-width="1728"
     inkscape:window-height="1057"
     inkscape:window-x="0"
     inkscape:window-y="32"
     inkscape:window-maximized="0"
     inkscape:current-layer="layer1" />
  <defs
     id="defs1">
    <rect
       x="337.60629"
       y="293.08679"
       width="868.13049"
       height="871.84045"
       id="rect26" />
    <rect
       x="358.01108"
       y="335.75131"
       width="877.4054"
       height="734.57196"
       id="rect25" />
    <rect
       x="418.44797"
       y="244.75258"
       width="748.0744"
       height="801.36731"
       id="rect16" />
    <clipPath
       clipPathUnits="userSpaceOnUse"
       id="clipPath3">
      <rect
         style="fill:#370188;stroke:#370188;stroke-width:3.175"
         id="rect4"
         width="387.91391"
         height="225.63065"
         x="-131.6772"
         y="-44.129654"
         ry="1.5951835" />
    </clipPath>
  </defs>
  <g
     inkscape:label="Layer 1"
     inkscape:groupmode="layer"
     id="layer1">
    <text
       xml:space="preserve"
       transform="scale(0.26458333)"
       id="text16"
       style="font-style:normal;font-variant:normal;font-weight:bold;font-stretch:normal;font-size:60px;font-family:'Josefin Slab';-inkscape-font-specification:'Josefin Slab Bold';text-align:start;letter-spacing:0px;word-spacing:0px;writing-mode:lr-tb;direction:ltr;white-space:pre;shape-inside:url(#rect16);display:inline;fill:#000000;fill-opacity:0;stroke:#370188;stroke-width:12;stroke-opacity:1" />
    <text
       xml:space="preserve"
       transform="scale(0.26458333)"
       id="text25"
       style="font-style:normal;font-variant:normal;font-weight:bold;font-stretch:normal;font-size:60px;font-family:'Josefin Slab';-inkscape-font-specification:'Josefin Slab Bold';text-align:start;letter-spacing:0px;word-spacing:0px;writing-mode:lr-tb;direction:ltr;white-space:pre;shape-inside:url(#rect25);display:inline;fill:#000000;fill-opacity:0;stroke:#370188;stroke-width:12;stroke-opacity:1" />
    <text
       xml:space="preserve"
       transform="scale(0.26458333)"
       id="text26"
       style="font-style:normal;font-variant:normal;font-weight:bold;font-stretch:normal;font-size:60px;font-family:'Josefin Slab';-inkscape-font-specification:'Josefin Slab Bold';text-align:start;letter-spacing:0px;word-spacing:0px;writing-mode:lr-tb;direction:ltr;white-space:pre;shape-inside:url(#rect26);display:inline;fill:#000000;fill-opacity:0;stroke:#370188;stroke-width:12;stroke-opacity:1" />
    <rect
       style="fill:none;fill-opacity:1;fill-rule:nonzero;stroke:#370188;stroke-width:3.175;stroke-dasharray:none;stroke-opacity:1"
       id="rect113-4-2"
       width="282.57498"
       height="354.01248"
       x="1.5875"
       y="1.5875" />
    <rect
       width="9.8019896"
       height="15.875"
       rx="0"
       ry="0"
       fill="#6002ee"
       stroke-width="0"
       id="rect1-3-4-39-4-2-0-5-6"
       x="247.60098"
       y="332.84583" />
    <text
       font-family="Montserrat"
       font-size="618.11px"
       font-weight="200"
       stroke-width="0"
       fill="#33333"
       id="text3-0-3-0-0-5-3-3-2"
       x="248.33717"
       y="345.42685"
       style="font-style:normal;font-variant:normal;font-weight:300;font-stretch:normal;font-size:13.0774px;font-family:Montserrat;-inkscape-font-specification:'Montserrat Light'"
       transform="scale(0.99938968,1.0006107)"><tspan
         y="345.42685"
         font-weight="200"
         stroke-width="0"
         id="tspan1-4-8-6-2-1-2-5-9"
         style="font-style:normal;font-variant:normal;font-weight:300;font-stretch:normal;font-size:13.0774px;font-family:Montserrat;-inkscape-font-specification:'Montserrat Light'"><tspan
           style="font-style:normal;font-variant:normal;font-weight:300;font-stretch:normal;font-size:13.0774px;font-family:Montserrat;-inkscape-font-specification:'Montserrat Light';fill:#ffffff;fill-opacity:1;stroke-width:0"
           id="tspan3-6-3-13-5-2-1-6-6">k</tspan></tspan></text>
    <text
       dx="0"
       dy="0"
       font-family="Montserrat"
       font-size="465.256px"
       font-weight="200"
       stroke-width="0"
       fill="#33333"
       id="text3-0-3-6-8-4-0-8-9"
       x="195.17656"
       y="345.42685"
       style="font-style:normal;font-variant:normal;font-weight:300;font-stretch:normal;font-size:13.0774px;font-family:Montserrat;-inkscape-font-specification:'Montserrat Light'"
       transform="scale(0.99938968,1.0006107)"><tspan
         y="345.42685"
         font-weight="200"
         stroke-width="0"
         id="tspan1-4-8-3-9-0-0-6-9"
         style="font-style:normal;font-variant:normal;font-weight:300;font-stretch:normal;font-size:13.0774px;font-family:Montserrat;-inkscape-font-specification:'Montserrat Light'">product</tspan></text>
    <text
       font-family="Montserrat"
       font-size="465.256px"
       font-weight="200"
       stroke-width="0"
       fill="#33333"
       id="text3-0-3-6-4-3-4-3-7-8"
       x="257.78415"
       y="345.42685"
       style="font-style:normal;font-variant:normal;font-weight:300;font-stretch:normal;font-size:13.0774px;font-family:Montserrat;-inkscape-font-specification:'Montserrat Light'"
       transform="scale(0.99938968,1.0006107)"><tspan
         y="345.42685"
         font-weight="200"
         stroke-width="0"
         id="tspan1-4-8-3-6-9-9-9-7-0"
         style="font-style:normal;font-variant:normal;font-weight:300;font-stretch:normal;font-size:13.0774px;font-family:Montserrat;-inkscape-font-specification:'Montserrat Light'">ind</tspan></text>
    <text
       xml:space="preserve"
       style="font-style:normal;font-variant:normal;font-weight:normal;font-stretch:normal;font-size:19.05px;font-family:'Nanum Pen';-inkscape-font-specification:'Nanum Pen';text-align:start;letter-spacing:0px;word-spacing:0px;writing-mode:lr-tb;direction:ltr;text-anchor:start;white-space:pre;inline-size:137.165;display:inline;fill:#370188;fill-opacity:1;stroke:none;stroke-width:1.5875;stroke-linecap:round;stroke-dasharray:none;stroke-opacity:1"
       x="-16.089252"
       y="156.49693"
       id="text17-6"
       transform="translate(33.720434,-106.81975)"><tspan
         x="-16.089252"
         y="156.49693"
         id="tspan1">Khm... Croc, that's </tspan><tspan
         x="-16.089252"
         y="180.30944"
         id="tspan2">my yoghurt...</tspan></text>
    <text
       xml:space="preserve"
       style="font-style:normal;font-variant:normal;font-weight:normal;font-stretch:normal;font-size:19.05px;font-family:'Nanum Pen';-inkscape-font-specification:'Nanum Pen';text-align:end;letter-spacing:0px;word-spacing:0px;writing-mode:lr-tb;direction:ltr;text-anchor:end;white-space:pre;inline-size:137.165;display:inline;fill:#370188;fill-opacity:1;stroke:none;stroke-width:1.5875;stroke-linecap:round;stroke-dasharray:none;stroke-opacity:1"
       x="112.66206"
       y="156.49693"
       id="text17-6-7"
       transform="translate(164.42126,-74.951223)"><tspan
         x="112.66206"
         y="156.49693"
         id="tspan3">I am terribly sorry,<tspan
   y="156.49693"
   id="tspan4"> </tspan></tspan><tspan
         x="112.66206"
         y="180.30944"
         id="tspan7">I thought it was<tspan
   y="180.30944"
   id="tspan8"> </tspan></tspan><tspan
         x="112.66206"
         y="204.12194"
         id="tspan9">office supply...</tspan></text>
    <path
       style="fill:none;fill-opacity:1;stroke:#370188;stroke-width:1.5875;stroke-linecap:round;stroke-dasharray:none;stroke-opacity:1"
       d="M 78.490018,187.16182 C 78.046858,167.167 47.804137,100.04826 48.188227,85.378542"
       id="path13-1-9-2-1-7-5"
       sodipodi:nodetypes="cc" />
    <path
       style="fill:none;fill-opacity:1;stroke:#370188;stroke-width:1.5875;stroke-linecap:round;stroke-dasharray:none;stroke-opacity:1"
       d="m 225.00516,155.05082 c 3.37292,-4.55434 2.28068,-16.54583 2.13361,-21.54836"
       id="path13-1-9-2-1-7-5-3"
       sodipodi:nodetypes="cc" />
    <text
       xml:space="preserve"
       style="font-style:normal;font-variant:normal;font-weight:normal;font-stretch:normal;font-size:12.7px;font-family:'Nanum Pen';-inkscape-font-specification:'Nanum Pen';text-align:start;letter-spacing:0px;word-spacing:0px;writing-mode:lr-tb;direction:ltr;text-anchor:start;white-space:pre;inline-size:277.608;display:inline;fill:#370188;fill-opacity:1;stroke:none;stroke-width:1.5875;stroke-linecap:round;stroke-dasharray:none;stroke-opacity:1"
       x="-54.504486"
       y="156.49693"
       id="text17"
       transform="translate(65.866173,-135.43187)"><tspan
         x="-54.504486"
         y="156.49693"
         id="tspan11"><tspan
           style="font-weight:bold;font-family:Montserrat;-inkscape-font-specification:'Montserrat Bold'"
           id="tspan10">Wednesday</tspan></tspan></text>
    <path
       style="fill:#018816;fill-opacity:1;stroke:#370188;stroke-width:3.175;stroke-dasharray:none;stroke-opacity:1"
       d="m 52.905527,257.30625 -2.44821,35.65858 51.518663,1.38376 -2.022447,-39.59698 z"
       id="path25-4-7" />
    <path
       style="fill:#ffffff;fill-opacity:1;stroke:#370188;stroke-width:3.175;stroke-dasharray:none;stroke-opacity:1"
       d="m 36.244267,265.75406 c 0,15.83268 7.10918,26.92819 17.07233,33.28661 2.37048,1.51282 4.90258,2.75752 7.53891,3.73402 23.316625,8.63654 54.788083,-3.70364 54.763763,-37.02063 l -15.06804,15.50715 -15.151294,-6.57609 -19.957541,9.34237 -10.755378,-11.69092 -8.4902,5.14359 z"
       id="path1-8-8"
       sodipodi:nodetypes="cssccccccc" />
    <path
       style="fill:#370189;fill-opacity:1;stroke:#370188;stroke-width:0;stroke-dasharray:none;stroke-opacity:1"
       d="m 60.172277,301.09 -3.82692,-5.27259 5.07117,2.35369 1.32626,-3.92795 0.37681,4.14213 4.169981,-3.19913 -2.573464,4.76485 5.63245,0.54649 -3.692811,2.89899 z"
       id="path3-2-6"
       sodipodi:nodetypes="cccccccccc" />
    <path
       style="fill:#370189;fill-opacity:1;stroke:#370188;stroke-width:0;stroke-dasharray:none;stroke-opacity:1"
       d="m 91.316993,301.62636 3.035109,-5.32826 -4.745513,2.65567 -0.408242,-3.99876 -1.235837,4.49196 -4.724653,-1.3668 3.40941,3.17528 -4.781804,1.08258 4.502499,2.28216 z"
       id="path3-1-5-6"
       sodipodi:nodetypes="cccccccccc" />
    <path
       style="fill:#ee4302;fill-opacity:1;stroke:#370188;stroke-width:3.175;stroke-dasharray:none;stroke-opacity:1"
       d="m 60.766607,302.42007 c -0.0908,0.82798 -0.11081,10.87927 -0.11081,10.87927 l -7.65791,4.01428 9.17048,-1.55093 0.74285,0.90942 0.70028,-0.93297 8.752493,1.41576 -6.925977,-3.71138 c 0,0 0.07017,-8.98281 0.0127,-9.10428 z"
       id="path7-8-0"
       sodipodi:nodetypes="cccccccccc" />
    <path
       style="fill:#ee4302;fill-opacity:1;stroke:#370188;stroke-width:3.175;stroke-dasharray:none;stroke-opacity:1"
       d="m 90.805151,301.68217 0.340043,12.60688 7.871142,2.69119 -9.979501,-1.45316 -0.742855,0.90941 -0.700309,-0.93297 -9.076214,1.20136 7.418261,-3.10319 c 0,0 0.16637,-9.20292 0.179705,-9.394 z"
       id="path7-4-0-6"
       sodipodi:nodetypes="cccccccccc" />
    <path
       style="fill:none;fill-opacity:1;stroke:#370188;stroke-width:3.175;stroke-dasharray:none;stroke-opacity:1"
       d="m 61.264757,278.10243 3.905731,-9.47851 22.305454,-0.053 3.054921,7.69033"
       id="path19-60-5"
       sodipodi:nodetypes="cccc" />
    <path
       style="fill:#fdc458;fill-opacity:1;stroke:#370188;stroke-width:3.175;stroke-dasharray:none;stroke-opacity:1"
       d="m 49.620767,247.36006 c 0,0 -38.47278,27.21073 6.9562,15.58832 z"
       id="path17-0-7"
       sodipodi:nodetypes="ccc" />
    <path
       style="fill:#fdc458;fill-opacity:1;stroke:#370188;stroke-width:3.175;stroke-dasharray:none;stroke-opacity:1"
       d="m 105.87329,248.39894 c 0,0 34.30228,21.19085 -7.534785,15.42339 z"
       id="path16-7-9"
       sodipodi:nodetypes="ccc" />
    <path
       style="fill:#fdc458;fill-opacity:1;stroke:#370188;stroke-width:3.175;stroke-dasharray:none;stroke-opacity:1"
       d="m 92.251396,233.59862 c 17.425954,-38.94191 -49.630839,-38.34513 -32.591499,0.64326 l 15.59274,7.69651 z"
       id="path23-5-3"
       sodipodi:nodetypes="cccc" />
    <path
       style="fill:#018816;fill-opacity:1;stroke:#370188;stroke-width:3.175;stroke-dasharray:none;stroke-opacity:1"
       d="m 58.619547,263.06128 -9.80031,4.04721 -6.62149,-19.13718 13.52251,-5.46456 -0.30575,-10.09069 19.875563,9.57892 20.487099,-10.49623 v 8.56175 l 14.322171,7.7724 -6.5907,18.69104 -9.531283,-3.85836"
       id="path12-0-5"
       sodipodi:nodetypes="ccccccccccc" />
    <path
       style="fill:#370188;fill-opacity:1;stroke:none;stroke-width:8.13508;stroke-dasharray:none;stroke-opacity:1"
       id="path9-8-0"
       sodipodi:type="arc"
       sodipodi:cx="69.990517"
       sodipodi:cy="218.63567"
       sodipodi:rx="1.7054044"
       sodipodi:ry="1.7054044"
       sodipodi:start="5.9341195"
       sodipodi:end="3.4906585"
       sodipodi:arc-type="chord"
       d="m 71.593073,218.05238 a 1.7054044,1.7054044 0 0 1 -0.584159,1.95123 1.7054044,1.7054044 0 0 1 -2.036794,0 1.7054044,1.7054044 0 0 1 -0.584159,-1.95123 z"
       sodipodi:open="true" />
    <path
       style="fill:none;fill-opacity:1;stroke:#370188;stroke-width:3.175;stroke-dasharray:none;stroke-opacity:1"
       d="m 55.415137,242.30524 19.874933,4.48239 20.996306,-6.52112"
       id="path22-1-6"
       sodipodi:nodetypes="ccc" />
    <path
       style="fill:none;fill-opacity:1;stroke:#370188;stroke-width:3.175;stroke-dasharray:none;stroke-opacity:1"
       d="m 66.108478,241.3583 -3.373121,20.30659"
       id="path10-79-7"
       sodipodi:nodetypes="cc" />
    <path
       style="fill:none;fill-opacity:1;stroke:#370188;stroke-width:3.175;stroke-dasharray:none;stroke-opacity:1"
       d="m 83.548372,240.85187 2.501138,20.97739"
       id="path11-71-1"
       sodipodi:nodetypes="cc" />
    <path
       style="fill:none;fill-opacity:1;stroke:#370188;stroke-width:3.175;stroke-dasharray:none;stroke-opacity:1"
       d="m 74.945201,223.76334 5.982748,3.09451 -7.220553,3.30086"
       id="path24-70-9" />
    <path
       style="fill:none;fill-opacity:1;stroke:#370188;stroke-width:3.175;stroke-dasharray:none;stroke-opacity:1"
       d="m 76.059436,206.69495 c 5.406326,-4.70872 -5.057489,-5.05752 0.523208,-8.89427"
       id="path26-0-0"
       sodipodi:nodetypes="cc" />
    <path
       style="fill:#370188;fill-opacity:1;stroke:#370188;stroke-width:0.79375;stroke-linecap:butt;stroke-dasharray:none;stroke-opacity:1"
       d="m 66.511259,217.96238 6.777989,-0.0439"
       id="path18-6"
       sodipodi:nodetypes="cc" />
    <path
       style="fill:#370188;fill-opacity:1;stroke:none;stroke-width:8.13508;stroke-dasharray:none;stroke-opacity:1"
       id="path9-8-4"
       sodipodi:type="arc"
       sodipodi:cx="82.505257"
       sodipodi:cy="218.65443"
       sodipodi:rx="1.7054044"
       sodipodi:ry="1.7054044"
       sodipodi:start="5.9341195"
       sodipodi:end="3.4906585"
       sodipodi:arc-type="chord"
       d="m 84.107813,218.07115 a 1.7054044,1.7054044 0 0 1 -0.584159,1.95123 1.7054044,1.7054044 0 0 1 -2.036794,0 1.7054044,1.7054044 0 0 1 -0.584159,-1.95123 z"
       sodipodi:open="true" />
    <path
       style="fill:#370188;fill-opacity:1;stroke:#370188;stroke-width:0.79375;stroke-linecap:butt;stroke-dasharray:none;stroke-opacity:1"
       d="m 79.025997,217.98115 6.77799,-0.0439"
       id="path18-6-1"
       sodipodi:nodetypes="cc" />
    <path
       style="fill:#71bb02;fill-opacity:1;fill-rule:nonzero;stroke:#370188;stroke-width:3.175;stroke-dasharray:none;stroke-opacity:1"
       d="m 173.85006,213.28225 c 0,0 -16.79744,1.09547 -18.98841,5.11226 -2.19097,4.01676 -3.28644,7.30323 0.36516,9.12901 3.65163,1.82582 21.90966,-4.01675 21.90966,-4.01675"
       id="path82" />
    <path
       style="fill:#74bc01;fill-opacity:1;fill-rule:nonzero;stroke:#370188;stroke-width:3.175;stroke-dasharray:none;stroke-opacity:1"
       d="m 185.05546,292.63258 c 0,0 -4.10369,18.93541 -0.0718,21.09854 4.19938,2.25304 6.71887,2.38373 10.09863,0.0937 2.54984,-1.7278 0.65922,-22.26503 0.65922,-22.26503"
       id="path82-2"
       sodipodi:nodetypes="cssc" />
    <path
       style="fill:#74bc01;fill-opacity:1;fill-rule:nonzero;stroke:#370188;stroke-width:3.175;stroke-dasharray:none;stroke-opacity:1"
       d="m 219.19804,292.54285 c 0,0 -4.10372,18.93539 -0.0718,21.09855 4.19938,2.25304 6.71887,2.38369 10.09862,0.0937 2.54984,-1.7278 0.65923,-22.26507 0.65923,-22.26507"
       id="path82-2-7"
       sodipodi:nodetypes="cssc" />
    <path
       style="fill:#71bb02;fill-opacity:1;fill-rule:nonzero;stroke:#370188;stroke-width:3.175;stroke-dasharray:none;stroke-opacity:1"
       d="m 228.73088,212.84029 c 0,0 16.79743,1.0955 18.98841,5.11229 2.19097,4.01676 3.28644,7.3032 -0.36516,9.12902 -3.65163,1.82581 -21.90966,-4.01676 -21.90966,-4.01676"
       id="path82-5" />
    <path
       style="fill:#74bc01;fill-opacity:1;fill-rule:nonzero;stroke:none;stroke-width:3.175;stroke-dasharray:none;stroke-opacity:1"
       d="m 159.03836,192.58983 47.67618,1.33886 -1.46065,-23.37032 -21.17935,4.01679 z"
       id="path81"
       sodipodi:nodetypes="ccccc" />
    <path
       style="fill:#71bb02;fill-opacity:1;fill-rule:nonzero;stroke:#370188;stroke-width:3.175;stroke-dasharray:none;stroke-opacity:1"
       d="m 152.2472,192.0315 c 3.46983,13.94136 27.45257,-0.0781 31.43183,4.80524 3.89611,4.78113 0.31179,12.21381 1.70361,12.02401 l 32.21993,-4.39366 c 2.92913,-10.83761 11.88695,-23.15645 3.22218,-38.9569 -4.97945,-9.08018 -7.32275,-13.18092 -17.28168,-14.64545 -9.9589,-1.46456 -58.87466,14.93837 -60.0463,27.53344 -1.17164,12.5951 3.51492,16.40291 3.51492,16.40291 l 2.92906,-5.27235 3.80784,5.27235 3.22199,-6.44398 3.51492,5.56526 4.97945,-6.7369 3.80784,5.56526 3.51488,-7.02983 4.68655,5.8582 2.56112,-6.15846 5.3474,4.401 3.51491,-6.73691 4.84311,4.84397 2.83195,-7.18877 4.35683,7.18877"
       id="path80"
       sodipodi:nodetypes="cssscccccccccccccccccc" />
    <circle
       style="fill:#370188;fill-opacity:1;stroke:none;stroke-width:6.11708;stroke-dasharray:none;stroke-opacity:1"
       id="path9-8-2"
       cx="150.35268"
       cy="178.30145"
       r="1.2823594" />
    <circle
       style="fill:#370188;fill-opacity:1;stroke:none;stroke-width:6.11708;stroke-dasharray:none;stroke-opacity:1"
       id="path9-8-2-2"
       cx="154.35515"
       cy="179.26448"
       r="1.2823594" />
    <path
       style="fill:#ffffff;fill-opacity:1;fill-rule:nonzero;stroke:#370188;stroke-width:3.175;stroke-dasharray:none;stroke-opacity:1"
       d="m 220.7128,198.31232 9.99496,71.52351 -50.86543,-0.19177 3.98767,-70.98697 15.05207,4.21069 4.05041,7.53824 3.71288,-7.31323 z"
       id="path56-7-2-0"
       sodipodi:nodetypes="cccccccc" />
    <path
       style="fill:#ffffff;fill-opacity:1;fill-rule:nonzero;stroke:#370188;stroke-width:3.175;stroke-dasharray:none;stroke-opacity:1"
       d="m 202.61333,212.54194 4e-5,59.83335"
       id="path60-3-6"
       sodipodi:nodetypes="cc" />
    <path
       style="fill:#ffffff;fill-opacity:1;fill-rule:nonzero;stroke:#370188;stroke-width:3.175;stroke-dasharray:none;stroke-opacity:1"
       d="m 187.28031,204.90302 -20.37445,5.8492 3.43427,17.48752 14.61852,-3.20973"
       id="path57-2-5-8"
       sodipodi:nodetypes="cccc" />
    <path
       style="fill:#ffffff;fill-opacity:1;fill-rule:nonzero;stroke:#370188;stroke-width:3.175;stroke-dasharray:none;stroke-opacity:1"
       d="m 219.07482,204.15289 19.52399,6.4162 -3.43427,17.48752 -13.61455,-3.06632"
       id="path57-4-4-9-0"
       sodipodi:nodetypes="cccc" />
    <path
       style="fill:#ffffff;fill-opacity:1;fill-rule:nonzero;stroke:#370188;stroke-width:3.175;stroke-dasharray:none;stroke-opacity:1"
       d="m 183.78949,198.68122 -3.91465,6.00247 17.09401,5.21954 1.21104,-6.91699 z"
       id="path58-4-5-1"
       sodipodi:nodetypes="ccccc" />
    <path
       style="fill:#ffffff;fill-opacity:1;fill-rule:nonzero;stroke:#370188;stroke-width:3.175;stroke-dasharray:none;stroke-opacity:1"
       d="m 207.49953,202.72636 13.21822,-4.43662 3.91465,6.43652 -14.98673,4.87937 z"
       id="path59-0-6-0"
       sodipodi:nodetypes="ccccc" />
    <circle
       style="fill:#370188;fill-opacity:1;stroke:none;stroke-width:12.6211;stroke-dasharray:none;stroke-opacity:1"
       id="path9-5-7-5-2-3"
       cx="185.30333"
       cy="161.60451"
       r="2.6458333" />
    <circle
       style="fill:#370188;fill-opacity:1;stroke:none;stroke-width:12.6211;stroke-dasharray:none;stroke-opacity:1"
       id="path9-5-7-6-7-6-0"
       cx="195.5793"
       cy="163.80975"
       r="2.6458333" />
    <path
       style="fill:#fd5869;fill-opacity:1;fill-rule:nonzero;stroke:#370188;stroke-width:3.175;stroke-dasharray:none;stroke-opacity:1"
       d="m 176.4967,308.37359 26.58285,0.41307 3.29813,-21.22509 3.43055,21.16585 27.34977,-0.10287 -8.45611,-50.09995 -48.51945,-0.29559 z"
       id="path55-9-6-4"
       sodipodi:nodetypes="cccccccc" />
    <path
       style="fill:none;fill-opacity:1;fill-rule:nonzero;stroke:#370188;stroke-width:3.175;stroke-dasharray:none;stroke-opacity:1"
       d="m 205.35244,288.70492 4.89836,0.11049 -1.97206,-17.41672"
       id="path71-3-2"
       sodipodi:nodetypes="ccc" />
    <path
       style="fill:#fd5869;fill-opacity:1;fill-rule:nonzero;stroke:#370188;stroke-width:3.175;stroke-dasharray:none;stroke-opacity:1"
       d="m 191.21419,219.00519 22.97027,-11.97038 0.64703,11.64688 -24.2643,-11.32335 z"
       id="path79"
       sodipodi:nodetypes="ccccc" />
    <path
       style="fill:#ffffff;fill-opacity:1;stroke:#370188;stroke-width:1.5875;stroke-dasharray:none;stroke-opacity:1"
       d="m 241.66493,229.62337 c 0,0 7.66267,-15.30829 9.18962,-16.67345 3.10572,-2.7766 4.25231,-1.96221 6.43471,-5.25859 2.65989,-4.01762 1.30242,-8.81644 -0.66993,-9.85609 -1.97247,-1.03937 -6.06825,1.33521 -7.83393,5.37851 -1.48577,3.40205 -0.15811,4.5894 -0.58115,8.45366 -0.24003,2.19183 -8.35692,17.06636 -8.35692,17.06636 z"
       id="path75"
       sodipodi:nodetypes="csszsscc" />
    <path
       style="fill:#ffffff;fill-opacity:1;stroke:#370188;stroke-width:1.5875;stroke-dasharray:none;stroke-opacity:1"
       d="m 138.50307,208.1876 5.79961,21.64442 h 12.62714 l 5.87057,-21.69906 z"
       id="path72"
       sodipodi:nodetypes="ccccc" />
    <path
       style="fill:none;fill-opacity:1;stroke:#02bb1d;stroke-width:1.5875;stroke-dasharray:none;stroke-opacity:1"
       d="m 147.83674,217.03496 c 0,-2.82683 2.25863,-5.97319 4.407,-5.86013 -1.91046,2.05718 0.67284,7.53418 0.67284,7.53418"
       id="path74"
       sodipodi:nodetypes="ccc" />
    <path
       style="fill:#bb0214;fill-opacity:1;stroke:#370188;stroke-width:1.5875;stroke-dasharray:none;stroke-opacity:1"
       d="m 155.37359,218.9638 c 0.87827,0.63989 1.23968,2.3844 0.40449,3.92884 -0.72859,1.34735 -2.04793,2.15062 -3.0025,2.13751 -1.02955,-0.0127 -2.28565,-0.89945 -2.78238,-2.55521 -0.49676,-1.65576 -0.14097,-3.14233 0.6444,-3.53536 0.77035,-0.38554 2.09004,0.44142 2.34417,0.45786 0.254,0.0159 1.62814,-0.99006 2.39182,-0.43364 z"
       id="path73-9"
       sodipodi:nodetypes="ssssszs" />
    <path
       style="fill:#bb0214;fill-opacity:1;stroke:#370188;stroke-width:1.5875;stroke-dasharray:none;stroke-opacity:1"
       d="m 150.21114,217.11573 c 0.87826,0.63989 1.23967,2.38439 0.40449,3.92884 -0.7286,1.34734 -2.04794,2.15062 -3.0025,2.13751 -1.02956,-0.0127 -2.28565,-0.89945 -2.78238,-2.55521 -0.49676,-1.65576 -0.14097,-3.14233 0.6444,-3.53536 0.77035,-0.38555 2.09004,0.44142 2.34416,0.45786 0.254,0.0159 1.62814,-0.99006 2.39183,-0.43364 z"
       id="path73"
       sodipodi:nodetypes="ssssszs" />
  </g>
</svg>
