<?xml version="1.0" encoding="UTF-8" standalone="no"?>
<!-- Created with Inkscape (http://www.inkscape.org/) -->

<svg
   width="1080"
   height="1350"
   viewBox="0 0 285.74999 357.1875"
   version="1.1"
   id="svg1"
   inkscape:version="1.4 (e7c3feb1, 2024-10-09)"
   sodipodi:docname="panel-01.svg"
   xmlns:inkscape="http://www.inkscape.org/namespaces/inkscape"
   xmlns:sodipodi="http://sodipodi.sourceforge.net/DTD/sodipodi-0.dtd"
   xmlns="http://www.w3.org/2000/svg"
   xmlns:svg="http://www.w3.org/2000/svg">
  <sodipodi:namedview
     id="namedview1"
     pagecolor="#ffffff"
     bordercolor="#000000"
     borderopacity="0.25"
     inkscape:showpageshadow="2"
     inkscape:pageopacity="0.0"
     inkscape:pagecheckerboard="0"
     inkscape:deskcolor="#d1d1d1"
     inkscape:document-units="px"
     inkscape:zoom="0.5128151"
     inkscape:cx="219.37731"
     inkscape:cy="783.90827"
     inkscape:window-width="1728"
     inkscape:window-height="1057"
     inkscape:window-x="0"
     inkscape:window-y="32"
     inkscape:window-maximized="0"
     inkscape:current-layer="layer1" />
  <defs
     id="defs1">
    <rect
       x="337.60629"
       y="293.08679"
       width="868.13049"
       height="871.84045"
       id="rect26" />
    <rect
       x="358.01108"
       y="335.75131"
       width="877.4054"
       height="734.57196"
       id="rect25" />
    <rect
       x="418.44797"
       y="244.75258"
       width="748.0744"
       height="801.36731"
       id="rect16" />
    <clipPath
       clipPathUnits="userSpaceOnUse"
       id="clipPath3">
      <rect
         style="fill:#370188;stroke:#370188;stroke-width:3.175"
         id="rect4"
         width="387.91391"
         height="225.63065"
         x="-131.6772"
         y="-44.129654"
         ry="1.5951835" />
    </clipPath>
  </defs>
  <g
     inkscape:label="Layer 1"
     inkscape:groupmode="layer"
     id="layer1">
    <text
       xml:space="preserve"
       transform="scale(0.26458333)"
       id="text16"
       style="font-style:normal;font-variant:normal;font-weight:bold;font-stretch:normal;font-size:60px;font-family:'Josefin Slab';-inkscape-font-specification:'Josefin Slab Bold';text-align:start;letter-spacing:0px;word-spacing:0px;writing-mode:lr-tb;direction:ltr;white-space:pre;shape-inside:url(#rect16);display:inline;fill:#000000;fill-opacity:0;stroke:#370188;stroke-width:12;stroke-opacity:1" />
    <text
       xml:space="preserve"
       transform="scale(0.26458333)"
       id="text25"
       style="font-style:normal;font-variant:normal;font-weight:bold;font-stretch:normal;font-size:60px;font-family:'Josefin Slab';-inkscape-font-specification:'Josefin Slab Bold';text-align:start;letter-spacing:0px;word-spacing:0px;writing-mode:lr-tb;direction:ltr;white-space:pre;shape-inside:url(#rect25);display:inline;fill:#000000;fill-opacity:0;stroke:#370188;stroke-width:12;stroke-opacity:1" />
    <text
       xml:space="preserve"
       transform="scale(0.26458333)"
       id="text26"
       style="font-style:normal;font-variant:normal;font-weight:bold;font-stretch:normal;font-size:60px;font-family:'Josefin Slab';-inkscape-font-specification:'Josefin Slab Bold';text-align:start;letter-spacing:0px;word-spacing:0px;writing-mode:lr-tb;direction:ltr;white-space:pre;shape-inside:url(#rect26);display:inline;fill:#000000;fill-opacity:0;stroke:#370188;stroke-width:12;stroke-opacity:1" />
    <rect
       style="fill:none;fill-opacity:1;fill-rule:nonzero;stroke:#370188;stroke-width:3.175;stroke-dasharray:none;stroke-opacity:1"
       id="rect113-4-2"
       width="282.57498"
       height="354.01248"
       x="1.5875"
       y="1.5875" />
    <rect
       width="9.8019896"
       height="15.875"
       rx="0"
       ry="0"
       fill="#6002ee"
       stroke-width="0"
       id="rect1-3-4-39-4-2-0-5-6"
       x="247.60098"
       y="332.84583" />
    <text
       font-family="Montserrat"
       font-size="618.11px"
       font-weight="200"
       stroke-width="0"
       fill="#33333"
       id="text3-0-3-0-0-5-3-3-2"
       x="248.33717"
       y="345.42685"
       style="font-style:normal;font-variant:normal;font-weight:300;font-stretch:normal;font-size:13.0774px;font-family:Montserrat;-inkscape-font-specification:'Montserrat Light'"
       transform="scale(0.99938968,1.0006107)"><tspan
         y="345.42685"
         font-weight="200"
         stroke-width="0"
         id="tspan1-4-8-6-2-1-2-5-9"
         style="font-style:normal;font-variant:normal;font-weight:300;font-stretch:normal;font-size:13.0774px;font-family:Montserrat;-inkscape-font-specification:'Montserrat Light'"><tspan
           style="font-style:normal;font-variant:normal;font-weight:300;font-stretch:normal;font-size:13.0774px;font-family:Montserrat;-inkscape-font-specification:'Montserrat Light';fill:#ffffff;fill-opacity:1;stroke-width:0"
           id="tspan3-6-3-13-5-2-1-6-6">k</tspan></tspan></text>
    <text
       dx="0"
       dy="0"
       font-family="Montserrat"
       font-size="465.256px"
       font-weight="200"
       stroke-width="0"
       fill="#33333"
       id="text3-0-3-6-8-4-0-8-9"
       x="195.17656"
       y="345.42685"
       style="font-style:normal;font-variant:normal;font-weight:300;font-stretch:normal;font-size:13.0774px;font-family:Montserrat;-inkscape-font-specification:'Montserrat Light'"
       transform="scale(0.99938968,1.0006107)"><tspan
         y="345.42685"
         font-weight="200"
         stroke-width="0"
         id="tspan1-4-8-3-9-0-0-6-9"
         style="font-style:normal;font-variant:normal;font-weight:300;font-stretch:normal;font-size:13.0774px;font-family:Montserrat;-inkscape-font-specification:'Montserrat Light'">product</tspan></text>
    <text
       font-family="Montserrat"
       font-size="465.256px"
       font-weight="200"
       stroke-width="0"
       fill="#33333"
       id="text3-0-3-6-4-3-4-3-7-8"
       x="257.78415"
       y="345.42685"
       style="font-style:normal;font-variant:normal;font-weight:300;font-stretch:normal;font-size:13.0774px;font-family:Montserrat;-inkscape-font-specification:'Montserrat Light'"
       transform="scale(0.99938968,1.0006107)"><tspan
         y="345.42685"
         font-weight="200"
         stroke-width="0"
         id="tspan1-4-8-3-6-9-9-9-7-0"
         style="font-style:normal;font-variant:normal;font-weight:300;font-stretch:normal;font-size:13.0774px;font-family:Montserrat;-inkscape-font-specification:'Montserrat Light'">ind</tspan></text>
    <text
       xml:space="preserve"
       style="font-style:normal;font-variant:normal;font-weight:normal;font-stretch:normal;font-size:19.05px;font-family:'Nanum Pen';-inkscape-font-specification:'Nanum Pen';text-align:start;letter-spacing:0px;word-spacing:0px;writing-mode:lr-tb;direction:ltr;text-anchor:start;white-space:pre;inline-size:138.55;display:inline;fill:#370188;fill-opacity:1;stroke:none;stroke-width:1.5875;stroke-linecap:round;stroke-dasharray:none;stroke-opacity:1"
       x="-9.1062212"
       y="156.49693"
       id="text17-6"
       transform="translate(22.110425,-103.58781)"><tspan
         x="-9.1062212"
         y="156.49693"
         id="tspan3">I cannot deal with </tspan><tspan
         x="-9.1062212"
         y="180.30944"
         id="tspan4">this behaviour!!!</tspan></text>
    <text
       xml:space="preserve"
       style="font-style:normal;font-variant:normal;font-weight:normal;font-stretch:normal;font-size:19.05px;font-family:'Nanum Pen';-inkscape-font-specification:'Nanum Pen';text-align:end;letter-spacing:0px;word-spacing:0px;writing-mode:lr-tb;direction:ltr;text-anchor:end;white-space:pre;inline-size:118.944;display:inline;fill:#370188;fill-opacity:1;stroke:none;stroke-width:1.5875;stroke-linecap:round;stroke-dasharray:none;stroke-opacity:1"
       x="126.68137"
       y="156.49693"
       id="text17-6-2"
       transform="translate(144.91771,-83.913597)"><tspan
         x="126.68137"
         y="156.49693"
         id="tspan5">Just give him<tspan
   y="156.49693"
   id="tspan6"> </tspan></tspan><tspan
         x="126.68137"
         y="180.30944"
         id="tspan7">feedback.</tspan></text>
    <path
       style="fill:none;fill-opacity:1;stroke:#370188;stroke-width:1.5875;stroke-linecap:round;stroke-dasharray:none;stroke-opacity:1"
       d="M 72.4049,189.51409 C 71.96174,169.51927 55.442444,101.92973 55.826534,87.260013"
       id="path13-1-9-2-1-7-5"
       sodipodi:nodetypes="cc" />
    <path
       style="fill:none;fill-opacity:1;stroke:#370188;stroke-width:1.5875;stroke-linecap:round;stroke-dasharray:none;stroke-opacity:1"
       d="m 220.01027,122.17629 c -0.9591,-9.67596 8.83469,-11.2248 9.21878,-20.21914"
       id="path13-1-9-2-1-7-5-3"
       sodipodi:nodetypes="cc" />
    <text
       xml:space="preserve"
       style="font-style:normal;font-variant:normal;font-weight:normal;font-stretch:normal;font-size:12.7px;font-family:'Nanum Pen';-inkscape-font-specification:'Nanum Pen';text-align:start;letter-spacing:0px;word-spacing:0px;writing-mode:lr-tb;direction:ltr;text-anchor:start;white-space:pre;inline-size:277.608;display:inline;fill:#370188;fill-opacity:1;stroke:none;stroke-width:1.5875;stroke-linecap:round;stroke-dasharray:none;stroke-opacity:1"
       x="-54.504486"
       y="156.49693"
       id="text17"
       transform="translate(65.866173,-135.43187)"><tspan
         x="-54.504486"
         y="156.49693"
         id="tspan9"><tspan
           style="font-weight:bold;font-family:Montserrat;-inkscape-font-specification:'Montserrat Bold'"
           id="tspan8">Tuesday</tspan></tspan></text>
    <path
       style="fill:#9a58fd;fill-opacity:1;stroke:#370188;stroke-width:3.17491;stroke-dasharray:none;stroke-opacity:1"
       d="m 238.03402,296.90008 13.67389,0.81947 -7.41638,-9.3926 11.93946,-4.22593 -7.11368,-5.71049 10.33091,-5.88734 -5.87014,-6.29758 10.99011,-3.61365 -7.26145,-7.229 12.0643,-3.92986 -6.13899,-6.00653 8.47982,-6.64251 -8.21118,-5.86013 8.89149,-5.95719 -7.65007,-5.56565 9.06257,-5.61628 -5.74904,-5.41957 7.06361,-5.73932 -9.31205,-5.85689 7.45541,-6.30114 -6.42779,-5.61594 4.28298,-10.49855 -8.32863,-1.85925 1.35795,-9.95803 -10.42861,-0.49229 0.97282,-11.81062 -8.96778,0.14129 -1.41605,-13.08446 -10.77227,4.97567 -2.09664,-10.34716 -9.35955,6.63533 -5.11804,-9.3211 -7.5069,8.73573 -9.65172,-8.73573 -4.46986,10.55078 -12.73584,-6.64575 -0.63599,10.87628 -14.72971,-2.75622 0.58426,10.08377 -10.71242,1.86299 4.5855,9.79129 -11.41597,3.73412 7.29237,9.35586 -9.02201,5.73421 5.07733,6.12731 -8.17118,7.69791 5.32638,6.7358 -6.71935,8.82862 6.01447,5.09127 -4.25536,10.54885 7.49303,2.34813 -7.27084,8.05155 8.19239,5.07098 -7.56495,10.38895 8.80329,4.34978 -8.01386,10.53675 7.49891,3.41896 -4.45351,10.07317 12.41787,0.74533 -1.30867,12.13688 8.8986,-4.58283 2.48488,10.65889 10.71105,-5.32016 3.03096,7.08409 7.72233,-10.27252 5.5878,13.46356 7.4843,-8.08498 7.85791,7.81536 9.03989,-5.9998 9.43362,4.71138 z"
       id="path1"
       sodipodi:nodetypes="ccccccccccccccccccccccccccccccccccccccccccccccccccccccccccccccccccccccc" />
    <path
       style="fill:#ffffff;fill-opacity:1;stroke:#370188;stroke-width:3.17491;stroke-dasharray:none;stroke-opacity:1"
       d="m 237.2114,262.17111 c 0,0 0.81274,-1.93827 2.57328,-8.08161 1.76054,-6.14341 6.52516,-31.99543 6.52516,-31.99543 0.66488,-5.84124 -0.33991,-20.1508 -0.82807,-27.67444 -0.42539,-6.55536 -6.87806,-18.30423 -11.82062,-25.04475 -4.29952,-5.86362 -13.1311,-9.31494 -20.14125,-11.15193 -9.99093,-2.61808 -25.7253,-3.18091 -34.90499,4.77227 -6.06755,5.25682 -13.62218,14.07135 -15.6324,19.82953 -1.98574,5.68798 -5.74196,28.16803 -6.3112,35.79317 0,0 2.83337,26.1654 3.24139,31.14167 0.40802,4.97627 0.92278,7.83758 0.92278,7.83758"
       id="path24-7"
       sodipodi:nodetypes="czssssscczc" />
    <circle
       style="fill:#370189;fill-opacity:1;stroke:#370188;stroke-width:0;stroke-dasharray:none;stroke-opacity:1"
       id="path2-9"
       cx="-192.44102"
       cy="180.88693"
       r="2.1807547"
       transform="scale(-1,1)" />
    <circle
       style="fill:#370189;fill-opacity:1;stroke:#370188;stroke-width:0;stroke-dasharray:none;stroke-opacity:1"
       id="path2-9-9"
       cx="-209.68929"
       cy="182.38335"
       r="2.1807547"
       transform="scale(-1,1)" />
    <path
       style="fill:#ffffff;fill-opacity:1;stroke:#370188;stroke-width:3.17491;stroke-dasharray:none;stroke-opacity:1"
       d="m 189.77595,186.6659 c -8.33993,6.6921 -11.57532,15.27876 -10.74004,17.59051 0.81033,2.24263 18.12808,4.30292 29.81068,3.02921 3.73907,-0.40767 7.17264,-3.47549 8.5585,-6.09426"
       id="path7"
       sodipodi:nodetypes="cssc" />
    <path
       style="fill:#370188;fill-opacity:1;stroke:#370188;stroke-width:4.57165;stroke-dasharray:none;stroke-opacity:1"
       d="m 185.34642,197.04796 c 1.33956,0.45056 3.83473,4.38251 3.62772,6.62403 -0.20669,2.24155 -4.42643,-0.27686 -4.42643,-0.27686 l -2.88458,-0.81912 1.06766,-3.33667 c 0,0 1.27619,-2.64185 2.61563,-2.19126 z"
       id="path8"
       sodipodi:nodetypes="zzcccz"
       inkscape:transform-center-x="8.2193997"
       inkscape:transform-center-y="1.5199982" />
    <path
       style="fill:#ffffff;fill-opacity:1;stroke:#370188;stroke-width:3.175;stroke-dasharray:none;stroke-opacity:1"
       d="m 167.13627,284.80378 c 0,0 -4.1756,16.64865 -3.17462,24.40375 1.34175,10.39526 12.50924,12.62414 17.29708,3.43503 3.49009,-6.69839 10.15429,-23.36302 10.15429,-23.36302"
       id="path11-9"
       sodipodi:nodetypes="cssc" />
    <path
       style="fill:#ffffff;fill-opacity:1;stroke:#370188;stroke-width:3.175;stroke-dasharray:none;stroke-opacity:1"
       d="m 199.25126,290.32148 c 0,0 2.67088,13.1921 5.65144,21.17805 3.26358,8.74423 13.90479,9.37609 18.18973,0.89954 5.61575,-11.10914 5.3228,-25.93369 5.3228,-25.93369"
       id="path12-8"
       sodipodi:nodetypes="cssc" />
    <path
       style="fill:#ffffff;fill-opacity:1;stroke:#370188;stroke-width:3.17491;stroke-dasharray:none;stroke-opacity:1"
       d="m 260.49822,232.18212 c 15.49247,19.39332 -1.4312,18.01568 -10.08742,12.45626"
       id="path10-71"
       sodipodi:nodetypes="cc" />
    <path
       style="fill:#ffffff;fill-opacity:1;stroke:#370188;stroke-width:3.17491;stroke-dasharray:none;stroke-opacity:1"
       d="m 139.7231,229.80313 c -13.67486,14.14177 -0.71485,16.8247 8.65863,12.18952"
       id="path9-6"
       sodipodi:nodetypes="cc" />
    <path
       style="fill:#ffffff;fill-opacity:1;stroke:#370189;stroke-width:3.17491;stroke-dasharray:none;stroke-opacity:1"
       d="m 235.41975,237.67672 12.57253,9.76087 15.46606,-18.77295 c -6.20443,-9.62727 -12.00516,-15.59075 -17.68339,-25.50363 0,0 -21.63696,16.33677 -38.16807,15.44319 -7.15839,-0.3869 -17.37741,-0.9939 -22.17556,-1.91887 -12.59174,-2.42735 -25.08946,-16.65903 -25.08946,-16.65903 l -7.88305,9.33678 -13.98714,16.12919 12.30459,18.06347 12.85465,-10.10206"
       id="path13-4"
       sodipodi:nodetypes="ccccssccccc" />
    <path
       style="fill:#ffdb00;fill-opacity:1;stroke:#370188;stroke-width:3.17491;stroke-dasharray:none;stroke-opacity:1"
       d="m 256.84024,219.3268 -110.26629,-1.87941 m 114.88175,10.36673 -122.14056,-1.76556 m 117.84514,9.81936 -112.73406,-2.0649 m 106.34272,9.22059 -90.64796,-0.79499 m 79.18646,9.24131 -78.85601,-1.14611"
       id="path30-0"
       sodipodi:nodetypes="cccccccccc" />
    <path
       style="fill:#ee9b02;fill-opacity:1;stroke:#370188;stroke-width:3.17491;stroke-dasharray:none;stroke-opacity:1"
       d="m 219.03786,226.43626 -40.15857,-2.64655 -7.20036,27.6919 -12.38996,6.77466 -2.08159,54.26926 32.06321,-0.3643 4.58702,-21.1021 3.44278,21.39798 36.59352,-0.0254 4.86724,-49.73482 -14.33372,-7.76929 z"
       id="path16"
       sodipodi:nodetypes="cccccccccccc" />
    <path
       style="fill:none;stroke:#370188;stroke-width:3.17491;stroke-dasharray:none;stroke-opacity:1"
       d="m 212.49409,246.47445 -30.16138,-1.5106 c 0,0 -2.97939,6.18652 -1.80166,11.82313 1.17767,5.63657 3.49771,7.96099 7.58222,10.14361 4.08457,2.18262 12.04735,2.26622 16.58064,0.33138 4.53327,-1.93485 6.38159,-5.08165 7.80447,-8.91321 1.42288,-3.83159 0.65157,-7.7443 0.65157,-7.7443 z"
       id="path17"
       sodipodi:nodetypes="cczzzzcc" />
    <path
       style="fill:none;stroke:#370189;stroke-width:3.17491;stroke-dasharray:none;stroke-opacity:1"
       d="m 195.21086,292.31002 -5.67798,0.15938 2.22999,-13.71327"
       id="path19-6"
       sodipodi:nodetypes="ccc" />
    <path
       style="fill:#ffffff;fill-opacity:1;stroke:#370188;stroke-width:3.17491;stroke-dasharray:none;stroke-opacity:1"
       d="m 184.88014,165.97014 c -9.14886,-12.82738 -19.88325,-0.2105 -9.56837,8.55748"
       id="path25-21"
       sodipodi:nodetypes="cc" />
    <path
       style="fill:#ffffff;fill-opacity:1;stroke:#370188;stroke-width:3.17491;stroke-dasharray:none;stroke-opacity:1"
       d="m 230.38249,178.34222 c 11.53211,-6.3834 -0.9051,-22.90429 -9.41423,-8.09965"
       id="path25-0"
       sodipodi:nodetypes="cc" />
    <path
       style="fill:none;fill-opacity:1;stroke:#370188;stroke-width:3.17491;stroke-dasharray:none;stroke-opacity:1"
       d="m 230.41319,271.2417 c -4.52441,-0.34804 -9.39692,-2.08819 -9.745,-10.093"
       id="path26-9" />
    <path
       style="fill:none;fill-opacity:1;stroke:#370188;stroke-width:3.17491;stroke-dasharray:none;stroke-opacity:1"
       d="m 174.37946,259.40851 c -3.13233,5.56857 -3.82842,6.26466 -8.7009,8.00481"
       id="path27-1" />
    <path
       style="fill:#ee9b02;fill-opacity:1;stroke:#370188;stroke-width:3.17491;stroke-dasharray:none;stroke-opacity:1"
       d="m 252.18324,215.52858 -38.91635,27.08047 -8.55675,-12.71343 39.67114,-25.74808"
       id="path28-4"
       sodipodi:nodetypes="cccc" />
    <ellipse
       style="fill:#370188;fill-opacity:1;stroke:#370188;stroke-width:0;stroke-dasharray:none;stroke-opacity:1"
       id="path2-5-0-6"
       cx="-215.2733"
       cy="232.04945"
       rx="4.465312"
       ry="4.4731731"
       transform="scale(-1,1)" />
    <path
       style="fill:#ee9b02;fill-opacity:1;stroke:#370188;stroke-width:3.17491;stroke-dasharray:none;stroke-opacity:1"
       d="m 160.94486,200.77166 33.46691,29.47908 -10.39358,11.02989 -33.6436,-27.2897"
       id="path29-0"
       sodipodi:nodetypes="cccc" />
    <ellipse
       style="fill:#370188;fill-opacity:1;stroke:#370188;stroke-width:0;stroke-dasharray:none;stroke-opacity:1"
       id="path2-5-0"
       cx="-183.10109"
       cy="230.96672"
       rx="4.465312"
       ry="4.4731731"
       transform="scale(-1,1)" />
    <path
       style="fill:#018816;fill-opacity:1;stroke:#370188;stroke-width:3.175;stroke-dasharray:none;stroke-opacity:1"
       d="m 49.451152,258.49474 -2.44821,35.65858 51.51866,1.38376 -2.02245,-39.59698 z"
       id="path25-4-00-5" />
    <path
       style="fill:#ffffff;fill-opacity:1;stroke:#370188;stroke-width:3.175;stroke-dasharray:none;stroke-opacity:1"
       d="m 32.789892,266.94256 c 0,15.83267 7.10917,26.92819 17.07232,33.2866 2.37049,1.51282 4.90259,2.75752 7.53891,3.73402 23.31663,8.63654 54.788088,-3.70363 54.763768,-37.02062 l -15.068038,15.50714 -15.15129,-6.57609 -19.95754,9.34237 -10.75538,-11.69092 -8.4902,5.1436 z"
       id="path1-8-9-8"
       sodipodi:nodetypes="cssccccccc" />
    <path
       style="fill:#370189;fill-opacity:1;stroke:#370188;stroke-width:0;stroke-dasharray:none;stroke-opacity:1"
       d="m 56.717902,302.2785 -3.82693,-5.2726 5.07118,2.35369 1.32626,-3.92795 0.37681,4.14214 4.16998,-3.19913 -2.57347,4.76485 5.63245,0.54648 -3.69281,2.89899 z"
       id="path3-2-3-7"
       sodipodi:nodetypes="cccccccccc" />
    <path
       style="fill:#370189;fill-opacity:1;stroke:#370188;stroke-width:0;stroke-dasharray:none;stroke-opacity:1"
       d="m 87.862612,302.81485 3.03511,-5.32825 -4.74551,2.65566 -0.40824,-3.99875 -1.23584,4.49196 -4.72465,-1.36681 3.40941,3.17529 -4.78181,1.08257 4.5025,2.28216 z"
       id="path3-1-5-3-4"
       sodipodi:nodetypes="cccccccccc" />
    <path
       style="fill:#ee4302;fill-opacity:1;stroke:#370188;stroke-width:3.175;stroke-dasharray:none;stroke-opacity:1"
       d="m 57.312222,303.60857 c -0.0908,0.82797 -0.1108,10.87926 -0.1108,10.87926 l -7.65791,4.01428 9.17048,-1.55092 0.74285,0.90941 0.70028,-0.93297 8.75249,1.41576 -6.92598,-3.71138 c 0,0 0.0702,-8.98281 0.0127,-9.10428 z"
       id="path7-8-65-9"
       sodipodi:nodetypes="cccccccccc" />
    <path
       style="fill:#ee4302;fill-opacity:1;stroke:#370188;stroke-width:3.175;stroke-dasharray:none;stroke-opacity:1"
       d="m 87.350772,302.87067 0.34004,12.60687 7.87115,2.6912 -9.9795,-1.45317 -0.74286,0.90941 -0.70031,-0.93297 -9.07621,1.20136 7.41826,-3.10318 c 0,0 0.16637,-9.20293 0.1797,-9.394 z"
       id="path7-4-0-05-3"
       sodipodi:nodetypes="cccccccccc" />
    <path
       style="fill:none;fill-opacity:1;stroke:#370188;stroke-width:3.175;stroke-dasharray:none;stroke-opacity:1"
       d="m 57.810382,279.29093 3.90573,-9.47852 22.30545,-0.053 3.05492,7.69033"
       id="path19-60-2-4"
       sodipodi:nodetypes="cccc" />
    <path
       style="fill:#fdc458;fill-opacity:1;stroke:#370188;stroke-width:3.175;stroke-dasharray:none;stroke-opacity:1"
       d="m 49.616442,244.84637 c 0,0 -45.7075501,-11.46286 -7.29523,15.43256 z"
       id="path17-0-413-6"
       sodipodi:nodetypes="ccc" />
    <path
       style="fill:#fdc458;fill-opacity:1;stroke:#370188;stroke-width:3.175;stroke-dasharray:none;stroke-opacity:1"
       d="m 98.928062,241.76363 c 0,0 39.207688,-9.40505 5.633468,16.21476 z"
       id="path16-7-33-4"
       sodipodi:nodetypes="ccc" />
    <path
       style="fill:#fdc458;fill-opacity:1;stroke:#370188;stroke-width:3.175;stroke-dasharray:none;stroke-opacity:1"
       d="m 88.797022,234.78711 c 17.425948,-38.94191 -49.63084,-38.34514 -32.59151,0.64326 l 15.59275,7.69651 z"
       id="path23-5-83-1"
       sodipodi:nodetypes="cccc" />
    <path
       style="fill:#018816;fill-opacity:1;stroke:#370188;stroke-width:3.175;stroke-dasharray:none;stroke-opacity:1"
       d="m 55.165162,264.24978 -18.45176,-5.22221 4.60479,-18.51924 10.94769,3.18691 -0.30575,-10.09069 19.87556,9.57891 20.4871,-10.49623 v 8.56177 l 13.189238,-2.93894 3.91464,19.10302 -18.903688,6.441"
       id="path12-0-11-1"
       sodipodi:nodetypes="ccccccccccc" />
    <path
       style="fill:none;fill-opacity:1;stroke:#370188;stroke-width:3.175;stroke-dasharray:none;stroke-opacity:1"
       d="m 51.960762,243.49372 19.87493,4.4824 20.99631,-6.52113"
       id="path22-1-7-5"
       sodipodi:nodetypes="ccc" />
    <path
       style="fill:none;fill-opacity:1;stroke:#370188;stroke-width:3.175;stroke-dasharray:none;stroke-opacity:1"
       d="m 62.654102,242.54678 -3.37312,20.3066"
       id="path10-79-9-8"
       sodipodi:nodetypes="cc" />
    <path
       style="fill:none;fill-opacity:1;stroke:#370188;stroke-width:3.175;stroke-dasharray:none;stroke-opacity:1"
       d="m 80.093992,242.04037 2.50114,20.97738"
       id="path11-71-29-3"
       sodipodi:nodetypes="cc" />
    <path
       style="fill:none;fill-opacity:1;stroke:#370188;stroke-width:3.175;stroke-dasharray:none;stroke-opacity:1"
       d="m 72.605062,207.88343 c 5.40632,-4.70871 -5.05749,-5.05752 0.5232,-8.89425"
       id="path26-0-1-7"
       sodipodi:nodetypes="cc" />
    <path
       style="fill:none;fill-opacity:1;stroke:#370188;stroke-width:3.175;stroke-dasharray:none;stroke-opacity:1"
       d="m 72.069562,223.52577 5.79034,-1.10652 -3.19328,4.53075 3.1454,5.21215 -6.98026,-2.24085"
       id="path24-70-9-3-3-2-2"
       sodipodi:nodetypes="ccccc" />
    <path
       style="fill:#370188;fill-opacity:1;stroke:none;stroke-width:8.13508;stroke-dasharray:none;stroke-opacity:1"
       id="path9-8-4-7-2-1-3"
       sodipodi:type="arc"
       sodipodi:cx="18.884808"
       sodipodi:cy="230.86475"
       sodipodi:rx="1.7054044"
       sodipodi:ry="1.7054044"
       sodipodi:start="5.9341195"
       sodipodi:end="3.4906585"
       sodipodi:arc-type="chord"
       d="m 20.487364,230.28146 a 1.7054044,1.7054044 0 0 1 -0.58416,1.95123 1.7054044,1.7054044 0 0 1 -2.036793,0 1.7054044,1.7054044 0 0 1 -0.584159,-1.95123 z"
       sodipodi:open="true"
       transform="rotate(-15.408822)" />
    <path
       style="fill:#370188;fill-opacity:1;stroke:#370188;stroke-width:0.79375;stroke-linecap:butt;stroke-dasharray:none;stroke-opacity:1"
       d="m 76.014722,217.82378 6.52269,-1.84318"
       id="path18-6-1-8-9-5-51"
       sodipodi:nodetypes="cc" />
    <path
       style="fill:#370188;fill-opacity:1;stroke:none;stroke-width:8.13508;stroke-dasharray:none;stroke-opacity:1"
       id="path9-8-4-7-2-1-9-3"
       sodipodi:type="arc"
       sodipodi:cx="-121.992"
       sodipodi:cy="192.30167"
       sodipodi:rx="1.7054043"
       sodipodi:ry="1.7054043"
       sodipodi:start="5.9341195"
       sodipodi:end="3.4906585"
       sodipodi:arc-type="chord"
       d="m -120.38944,191.71838 a 1.7054043,1.7054043 0 0 1 -0.58416,1.95123 1.7054043,1.7054043 0 0 1 -2.03679,0 1.7054043,1.7054043 0 0 1 -0.58416,-1.95123 z"
       sodipodi:open="true"
       transform="matrix(-0.9640545,-0.26570456,-0.26570456,0.9640545,0,0)" />
    <path
       style="fill:#370188;fill-opacity:1;stroke:#370188;stroke-width:0.79375;stroke-linecap:butt;stroke-dasharray:none;stroke-opacity:1"
       d="m 70.044552,218.07845 -6.52269,-1.84318"
       id="path18-6-1-8-9-5-2-8"
       sodipodi:nodetypes="cc" />
    <g
       id="color-2"
       transform="matrix(-0.57117923,-0.07215343,0.07215343,-0.57117923,157.24469,247.02843)">
      <path
         fill="#f4aa41"
         stroke="none"
         d="m 52.2637,19.7373 c 0.4765,0.4775 0.916,0.9775 1.3418,1.4854 l 2.9004,-5.7286 C 45.1807,4.1689 26.8184,4.1689 15.4941,15.4941 l 2.9004,5.7286 c 0.4258,-0.5079 0.8653,-1.0079 1.3418,-1.4854 8.9834,-8.9834 23.544,-8.9834 32.5274,0 z"
         id="path1-6"
         sodipodi:nodetypes="ccccccc"
         style="fill:#fdb226;fill-opacity:1" />
      <path
         fill="#fcea2b"
         stroke="none"
         d="m 53.6055,21.2227 c -0.4258,-0.5079 -0.8653,-1.0079 -1.3418,-1.4854 -8.9834,-8.9834 -23.544,-8.9834 -32.5274,0 -0.4765,0.4775 -0.916,0.9775 -1.3418,1.4854 L 36,56 Z"
         id="path2-6"
         sodipodi:nodetypes="cccccc"
         style="fill:#fed68b;fill-opacity:1" />
      <circle
         cx="31"
         cy="24"
         r="5"
         fill="#ea5a47"
         stroke="none"
         id="circle2"
         style="fill:#ee4302;fill-opacity:1" />
      <circle
         cx="44"
         cy="24"
         r="3"
         fill="#ea5a47"
         stroke="none"
         id="circle3" />
      <circle
         cx="37"
         cy="36"
         r="3"
         fill="#ea5a47"
         stroke="none"
         id="circle4" />
    </g>
    <g
       id="line-7"
       transform="matrix(-0.57117923,-0.07215343,0.07215343,-0.57117923,157.24469,247.02843)"
       style="stroke:#370188;stroke-opacity:1">
      <path
         fill="none"
         stroke="#000000"
         stroke-linecap="round"
         stroke-linejoin="round"
         stroke-miterlimit="10"
         stroke-width="2"
         d="m 52.2637,19.7373 c 0.4765,0.4775 0.916,0.9775 1.3418,1.4854 l 2.9004,-5.7286 C 45.1807,4.1689 26.8184,4.1689 15.4941,15.4941 l 2.9004,5.7286 c 0.4258,-0.5079 0.8653,-1.0079 1.3418,-1.4854 8.9834,-8.9834 23.544,-8.9834 32.5274,0 z"
         id="path4-8"
         style="stroke:#370188;stroke-opacity:1" />
      <path
         fill="none"
         stroke="#000000"
         stroke-linecap="round"
         stroke-linejoin="round"
         stroke-miterlimit="10"
         stroke-width="2"
         d="m 53.6055,21.2227 c -0.4258,-0.5079 -0.8653,-1.0079 -1.3418,-1.4854 -8.9834,-8.9834 -23.544,-8.9834 -32.5274,0 -0.4765,0.4775 -0.916,0.9775 -1.3418,1.4854 L 36,56 Z"
         id="path5-41"
         style="stroke:#370188;stroke-opacity:1" />
      <circle
         cx="31"
         cy="24"
         r="5"
         fill="none"
         stroke="#000000"
         stroke-linecap="round"
         stroke-linejoin="round"
         stroke-miterlimit="10"
         stroke-width="2"
         id="circle5"
         style="stroke:#370188;stroke-opacity:1" />
      <circle
         cx="44"
         cy="24"
         r="3"
         fill="none"
         stroke="#000000"
         stroke-linecap="round"
         stroke-linejoin="round"
         stroke-miterlimit="10"
         stroke-width="2"
         id="circle6"
         style="fill:#ee4302;fill-opacity:1;stroke:#370188;stroke-opacity:1" />
      <circle
         cx="37"
         cy="36"
         r="3"
         fill="none"
         stroke="#000000"
         stroke-linecap="round"
         stroke-linejoin="round"
         stroke-miterlimit="10"
         stroke-width="2"
         id="circle7"
         style="fill:#ee4302;fill-opacity:1;stroke:#370188;stroke-opacity:1" />
    </g>
  </g>
</svg>
