<?xml version="1.0" encoding="UTF-8" standalone="no"?>
<!-- Created with Inkscape (http://www.inkscape.org/) -->

<svg
   width="1080"
   height="1350"
   viewBox="0 0 285.74999 357.1875"
   version="1.1"
   id="svg1"
   inkscape:version="1.4 (e7c3feb1, 2024-10-09)"
   sodipodi:docname="panel-001.svg"
   xmlns:inkscape="http://www.inkscape.org/namespaces/inkscape"
   xmlns:sodipodi="http://sodipodi.sourceforge.net/DTD/sodipodi-0.dtd"
   xmlns="http://www.w3.org/2000/svg"
   xmlns:svg="http://www.w3.org/2000/svg">
  <sodipodi:namedview
     id="namedview1"
     pagecolor="#ffffff"
     bordercolor="#000000"
     borderopacity="0.25"
     inkscape:showpageshadow="2"
     inkscape:pageopacity="0.0"
     inkscape:pagecheckerboard="0"
     inkscape:deskcolor="#d1d1d1"
     inkscape:document-units="px"
     inkscape:zoom="0.44043616"
     inkscape:cx="855.96968"
     inkscape:cy="942.24779"
     inkscape:window-width="1728"
     inkscape:window-height="1057"
     inkscape:window-x="2560"
     inkscape:window-y="355"
     inkscape:window-maximized="0"
     inkscape:current-layer="layer1" />
  <defs
     id="defs1">
    <rect
       x="413.22674"
       y="54.491438"
       width="887.75635"
       height="1226.0574"
       id="rect2" />
    <rect
       x="-275.03494"
       y="-395.3627"
       width="1796.3219"
       height="1946.7316"
       id="rect1" />
    <rect
       x="418.44797"
       y="244.75258"
       width="748.0744"
       height="801.36731"
       id="rect16" />
  </defs>
  <g
     inkscape:label="Layer 1"
     inkscape:groupmode="layer"
     id="layer1">
    <text
       xml:space="preserve"
       transform="scale(0.26458333)"
       id="text16"
       style="font-style:normal;font-variant:normal;font-weight:bold;font-stretch:normal;font-size:60px;font-family:'Josefin Slab';-inkscape-font-specification:'Josefin Slab Bold';text-align:start;letter-spacing:0px;word-spacing:0px;writing-mode:lr-tb;direction:ltr;white-space:pre;shape-inside:url(#rect16);fill:#000000;fill-opacity:0;stroke:#370188;stroke-width:12;stroke-opacity:1" />
    <text
       xml:space="preserve"
       style="font-size:6px;font-family:'Playwrite HU';-inkscape-font-specification:'Playwrite HU';text-align:start;letter-spacing:0px;word-spacing:0px;writing-mode:lr-tb;direction:ltr;text-anchor:start;white-space:pre;inline-size:74.418;display:inline;fill:#370188;fill-opacity:1;stroke:none;stroke-width:1;stroke-dasharray:none;stroke-opacity:1"
       x="272.11707"
       y="188.47469"
       id="text28-3-2"
       transform="matrix(3.1749999,0,0,3.1749999,-853.42853,-568.22076)"><tspan
         x="272.11707"
         y="188.47469"
         id="tspan3"><tspan
           style="font-weight:bold;font-size:8px;font-family:'Josefin Slab';-inkscape-font-specification:'Josefin Slab Bold'"
           id="tspan1">Tim
</tspan></tspan><tspan
         x="272.11707"
         y="196.7396"
         id="tspan5"><tspan
           style="font-weight:bold;font-family:'Josefin Slab';-inkscape-font-specification:'Josefin Slab Bold'"
           id="tspan4">Educator
</tspan></tspan><tspan
         x="272.11707"
         y="204.25453"
         id="tspan10"><tspan
           style="font-weight:bold;font-family:'Josefin Slab';-inkscape-font-specification:'Josefin Slab Bold'"
           id="tspan8">
</tspan></tspan><tspan
         x="272.11707"
         y="211.76945"
         id="tspan12"><tspan
           style="font-weight:bold;font-family:'Josefin Slab';-inkscape-font-specification:'Josefin Slab Bold'"
           id="tspan11">Pros:
</tspan></tspan><tspan
         x="272.11707"
         y="219.28437"
         id="tspan14"><tspan
           style="font-weight:bold;font-family:'Josefin Slab';-inkscape-font-specification:'Josefin Slab Bold'"
           id="tspan13">  - enjoys
</tspan></tspan><tspan
         x="272.11707"
         y="226.7993"
         id="tspan16"><tspan
           style="font-weight:bold;font-family:'Josefin Slab';-inkscape-font-specification:'Josefin Slab Bold'"
           id="tspan15">    talking
</tspan></tspan><tspan
         x="272.11707"
         y="234.31422"
         id="tspan18"><tspan
           style="font-weight:bold;font-family:'Josefin Slab';-inkscape-font-specification:'Josefin Slab Bold'"
           id="tspan17">  - generous
</tspan></tspan><tspan
         x="272.11707"
         y="241.82914"
         id="tspan20"><tspan
           style="font-weight:bold;font-family:'Josefin Slab';-inkscape-font-specification:'Josefin Slab Bold'"
           id="tspan19">  - good cook
</tspan></tspan><tspan
         x="272.11707"
         y="249.34406"
         id="tspan22"><tspan
           style="font-weight:bold;font-family:'Josefin Slab';-inkscape-font-specification:'Josefin Slab Bold'"
           id="tspan21">
</tspan></tspan><tspan
         x="272.11707"
         y="256.85899"
         id="tspan24"><tspan
           style="font-weight:bold;font-family:'Josefin Slab';-inkscape-font-specification:'Josefin Slab Bold'"
           id="tspan23">Cons:
</tspan></tspan><tspan
         x="272.11707"
         y="264.3739"
         id="tspan26"><tspan
           style="font-weight:bold;font-family:'Josefin Slab';-inkscape-font-specification:'Josefin Slab Bold'"
           id="tspan25">  - enjoys
</tspan></tspan><tspan
         x="272.11707"
         y="271.88882"
         id="tspan28"><tspan
           style="font-weight:bold;font-family:'Josefin Slab';-inkscape-font-specification:'Josefin Slab Bold'"
           id="tspan27">    talking
</tspan></tspan><tspan
         x="272.11707"
         y="279.40374"
         id="tspan30"><tspan
           style="font-weight:bold;font-family:'Josefin Slab';-inkscape-font-specification:'Josefin Slab Bold'"
           id="tspan29">  - eats a lot</tspan></tspan></text>
    <text
       xml:space="preserve"
       style="font-size:6px;font-family:'Playwrite HU';-inkscape-font-specification:'Playwrite HU';text-align:start;letter-spacing:0px;word-spacing:0px;writing-mode:lr-tb;direction:ltr;text-anchor:start;white-space:pre;inline-size:74.418;display:inline;fill:#370188;fill-opacity:1;stroke:none;stroke-width:1;stroke-dasharray:none;stroke-opacity:1"
       x="272.11707"
       y="188.47469"
       transform="matrix(3.1749999,0,0,3.1749999,-853.42853,-568.22076)"
       id="text10"><tspan
         x="272.11707"
         y="188.47469"
         id="tspan32"><tspan
           style="font-weight:bold;font-family:'Josefin Slab';-inkscape-font-specification:'Josefin Slab Bold'"
           id="tspan31"> </tspan></tspan></text>
    <path
       style="fill:#9a58fd;fill-opacity:1;stroke:#370188;stroke-width:3.17491;stroke-dasharray:none;stroke-opacity:1"
       d="m 171.61981,291.27377 -13.6739,0.81947 7.41638,-9.3926 -11.93946,-4.22593 7.11369,-5.71049 -10.33091,-5.88734 5.87013,-6.29758 -10.99011,-3.61365 7.26145,-7.229 -12.0643,-3.92986 6.13899,-6.00653 -8.47982,-6.64251 8.21118,-5.86013 -8.89149,-5.95719 7.65007,-5.56565 -9.06256,-5.61628 5.74903,-5.41957 -7.06361,-5.73932 9.31205,-5.85689 -7.45541,-6.30114 6.42779,-5.61594 -4.28298,-10.49854 8.32863,-1.85925 -1.35795,-9.95803 10.42861,-0.49229 -0.97282,-11.81061 8.96778,0.14128 1.41605,-13.08446 10.77227,4.97567 2.09664,-10.34717 9.35955,6.63534 5.11804,-9.3211 7.50691,8.73572 9.65171,-8.73572 4.46986,10.55077 12.73585,-6.64575 0.63598,10.87629 14.72971,-2.75622 -0.58426,10.08377 10.71242,1.86299 -4.5855,9.79129 11.41597,3.73413 -7.29237,9.35584 9.02201,5.73422 -5.07733,6.1273 8.17118,7.69791 -5.32638,6.7358 6.71935,8.82862 -6.01447,5.09127 4.25536,10.54885 -7.49303,2.34813 7.27084,8.05155 -8.19238,5.07098 7.56494,10.38895 -8.80329,4.34978 8.01386,10.53675 -7.49891,3.41896 4.45351,10.07317 -12.41787,0.74533 1.30867,12.13688 -8.8986,-4.58283 -2.48488,10.65889 -10.71105,-5.32016 -3.03095,7.08409 -7.72233,-10.27252 -5.58781,13.46356 -7.4843,-8.08498 -7.85791,7.81536 -9.03989,-5.9998 -9.43362,4.71138 z"
       id="path1"
       sodipodi:nodetypes="ccccccccccccccccccccccccccccccccccccccccccccccccccccccccccccccccccccccc" />
    <path
       style="fill:#ffffff;fill-opacity:1;stroke:#370188;stroke-width:3.17491;stroke-dasharray:none;stroke-opacity:1"
       d="m 172.44242,256.5448 c 0,0 -0.81274,-1.93827 -2.57328,-8.08161 -1.76054,-6.14341 -6.52516,-31.99543 -6.52516,-31.99543 -0.66488,-5.84124 0.33991,-20.1508 0.82807,-27.67444 0.42539,-6.55536 6.87807,-18.30422 11.82062,-25.04474 4.29952,-5.86362 13.1311,-9.31494 20.14125,-11.15193 9.99093,-2.61807 25.72531,-3.1809 34.90499,4.77227 6.06755,5.25682 13.62218,14.07135 15.6324,19.82952 1.98574,5.68798 5.74196,28.16803 6.3112,35.79317 0,0 -2.83337,26.1654 -3.24139,31.14167 -0.40802,4.97627 -0.92278,7.83758 -0.92278,7.83758"
       id="path24-7"
       sodipodi:nodetypes="czssssscczc" />
    <circle
       style="fill:#370189;fill-opacity:1;stroke:#370188;stroke-width:0;stroke-dasharray:none;stroke-opacity:1"
       id="path2-9"
       cx="217.213"
       cy="175.26062"
       r="2.1807547" />
    <circle
       style="fill:#370189;fill-opacity:1;stroke:#370188;stroke-width:0;stroke-dasharray:none;stroke-opacity:1"
       id="path2-9-9"
       cx="199.96477"
       cy="176.75703"
       r="2.1807547" />
    <path
       style="fill:#ffffff;fill-opacity:1;stroke:#370188;stroke-width:3.17491;stroke-dasharray:none;stroke-opacity:1"
       d="m 219.87787,181.03959 c 8.33993,6.6921 11.57532,15.27876 10.74004,17.59051 -0.81033,2.24263 -18.12808,4.30292 -29.81068,3.02921 -3.73907,-0.40767 -7.17264,-3.47549 -8.5585,-6.09426"
       id="path7"
       sodipodi:nodetypes="cssc" />
    <path
       style="fill:#370188;fill-opacity:1;stroke:#370188;stroke-width:4.57165;stroke-dasharray:none;stroke-opacity:1"
       d="m 224.3074,191.42165 c -1.33956,0.45056 -3.83473,4.38251 -3.62772,6.62403 0.20669,2.24155 4.42643,-0.27686 4.42643,-0.27686 l 2.88458,-0.81912 -1.06766,-3.33667 c 0,0 -1.27619,-2.64185 -2.61563,-2.19126 z"
       id="path8"
       sodipodi:nodetypes="zzcccz"
       inkscape:transform-center-x="-8.2194033"
       inkscape:transform-center-y="1.5199982" />
    <path
       style="fill:#ffffff;fill-opacity:1;stroke:#370188;stroke-width:3.175;stroke-dasharray:none;stroke-opacity:1"
       d="m 242.51755,279.17747 c 0,0 4.1756,16.64865 3.17462,24.40375 -1.34175,10.39526 -12.50924,12.62414 -17.29708,3.43503 -3.49009,-6.69839 -10.15428,-23.36302 -10.15428,-23.36302"
       id="path11-9"
       sodipodi:nodetypes="cssc" />
    <path
       style="fill:#ffffff;fill-opacity:1;stroke:#370188;stroke-width:3.175;stroke-dasharray:none;stroke-opacity:1"
       d="m 210.40256,284.69517 c 0,0 -2.67088,13.1921 -5.65144,21.17805 -3.26358,8.74423 -13.90479,9.37609 -18.18973,0.89954 -5.61575,-11.10914 -5.3228,-25.93369 -5.3228,-25.93369"
       id="path12"
       sodipodi:nodetypes="cssc" />
    <path
       style="fill:#ffffff;fill-opacity:1;stroke:#370188;stroke-width:3.17491;stroke-dasharray:none;stroke-opacity:1"
       d="m 149.1556,226.55581 c -15.49247,19.39332 1.4312,18.01568 10.08742,12.45626"
       id="path10-71"
       sodipodi:nodetypes="cc" />
    <path
       style="fill:#ffffff;fill-opacity:1;stroke:#370188;stroke-width:3.17491;stroke-dasharray:none;stroke-opacity:1"
       d="m 269.93072,224.17682 c 13.67486,14.14177 0.71486,16.8247 -8.65863,12.18952"
       id="path9-6"
       sodipodi:nodetypes="cc" />
    <path
       style="fill:#ffffff;fill-opacity:1;stroke:#370189;stroke-width:3.17491;stroke-dasharray:none;stroke-opacity:1"
       d="m 174.23407,232.05041 -12.57252,9.76087 -15.46606,-18.77295 c 6.20442,-9.62727 12.00515,-15.59075 17.68338,-25.50363 0,0 21.63696,16.33677 38.16807,15.44319 7.15839,-0.3869 17.37741,-0.9939 22.17557,-1.91887 12.59173,-2.42735 25.08945,-16.65903 25.08945,-16.65903 l 7.88305,9.33678 13.98714,16.12919 -12.30458,18.06347 -12.85466,-10.10206"
       id="path13-4"
       sodipodi:nodetypes="ccccssccccc" />
    <path
       style="fill:#ffdb00;fill-opacity:1;stroke:#370188;stroke-width:3.17491;stroke-dasharray:none;stroke-opacity:1"
       d="m 152.81358,213.70049 110.26629,-1.87941 m -114.88175,10.36673 122.14056,-1.76556 m -117.84514,9.81936 112.73406,-2.0649 m -106.34272,9.22059 90.64796,-0.79499 m -79.18646,9.24131 78.85601,-1.14611"
       id="path30-0"
       sodipodi:nodetypes="cccccccccc" />
    <path
       style="fill:#ee9b02;fill-opacity:1;stroke:#370188;stroke-width:3.17491;stroke-dasharray:none;stroke-opacity:1"
       d="m 190.61596,220.80995 40.15857,-2.64655 7.20036,27.6919 12.38996,6.77466 2.08159,54.26926 -32.06321,-0.3643 -4.58702,-21.1021 -3.44277,21.39798 -36.59353,-0.0254 -4.86724,-49.73482 14.33372,-7.76929 z"
       id="path16"
       sodipodi:nodetypes="cccccccccccc" />
    <path
       style="fill:none;stroke:#370188;stroke-width:3.17491;stroke-dasharray:none;stroke-opacity:1"
       d="m 197.15973,240.84814 30.16138,-1.5106 c 0,0 2.97939,6.18652 1.80166,11.82313 -1.17767,5.63657 -3.49771,7.96099 -7.58222,10.14361 -4.08457,2.18262 -12.04735,2.26622 -16.58064,0.33138 -4.53327,-1.93485 -6.38159,-5.08165 -7.80447,-8.91321 -1.42288,-3.83159 -0.65157,-7.7443 -0.65157,-7.7443 z"
       id="path17"
       sodipodi:nodetypes="cczzzzcc" />
    <path
       style="fill:none;stroke:#370189;stroke-width:3.17491;stroke-dasharray:none;stroke-opacity:1"
       d="m 214.44297,286.68371 5.67798,0.15939 -2.23,-13.71327"
       id="path19-6"
       sodipodi:nodetypes="ccc" />
    <path
       style="fill:#ffffff;fill-opacity:1;stroke:#370188;stroke-width:3.17491;stroke-dasharray:none;stroke-opacity:1"
       d="m 224.77369,160.34385 c 9.14885,-12.82739 19.88324,-0.21051 9.56837,8.55747"
       id="path25-21"
       sodipodi:nodetypes="cc" />
    <path
       style="fill:#ffffff;fill-opacity:1;stroke:#370188;stroke-width:3.17491;stroke-dasharray:none;stroke-opacity:1"
       d="m 179.27133,172.71591 c -11.5321,-6.38339 0.9051,-22.90428 9.41423,-8.09964"
       id="path25-0"
       sodipodi:nodetypes="cc" />
    <path
       style="fill:none;fill-opacity:1;stroke:#370188;stroke-width:3.17491;stroke-dasharray:none;stroke-opacity:1"
       d="m 179.24063,265.61539 c 4.52441,-0.34804 9.39692,-2.08819 9.745,-10.093"
       id="path26-9" />
    <path
       style="fill:none;fill-opacity:1;stroke:#370188;stroke-width:3.17491;stroke-dasharray:none;stroke-opacity:1"
       d="m 235.27436,253.7822 c 3.13233,5.56857 3.82842,6.26466 8.7009,8.00481"
       id="path27-1" />
    <path
       style="fill:#ee9b02;fill-opacity:1;stroke:#370188;stroke-width:3.17491;stroke-dasharray:none;stroke-opacity:1"
       d="m 157.47058,209.90227 38.91635,27.08047 8.55675,-12.71343 -39.67114,-25.74808"
       id="path28-4"
       sodipodi:nodetypes="cccc" />
    <ellipse
       style="fill:#370188;fill-opacity:1;stroke:#370188;stroke-width:0;stroke-dasharray:none;stroke-opacity:1"
       id="path2-5-0-6"
       cx="194.38072"
       cy="226.42317"
       rx="4.465312"
       ry="4.4731731" />
    <path
       style="fill:#ee9b02;fill-opacity:1;stroke:#370188;stroke-width:3.17491;stroke-dasharray:none;stroke-opacity:1"
       d="m 248.70896,195.14535 -33.46691,29.47908 10.39358,11.02989 33.64361,-27.2897"
       id="path29-0"
       sodipodi:nodetypes="cccc" />
    <ellipse
       style="fill:#370188;fill-opacity:1;stroke:#370188;stroke-width:0;stroke-dasharray:none;stroke-opacity:1"
       id="path2-5-0"
       cx="226.5529"
       cy="225.34044"
       rx="4.465312"
       ry="4.4731731" />
    <text
       xml:space="preserve"
       transform="scale(0.26458333)"
       id="text1"
       style="font-weight:bold;font-size:60px;font-family:'Josefin Slab';-inkscape-font-specification:'Josefin Slab Bold';text-align:start;letter-spacing:0px;word-spacing:0px;writing-mode:lr-tb;direction:ltr;white-space:pre;shape-inside:url(#rect1);fill:#018816;stroke:#370188;stroke-width:12" />
    <rect
       style="fill:none;fill-opacity:1;fill-rule:nonzero;stroke:#370188;stroke-width:3.175;stroke-dasharray:none;stroke-opacity:1"
       id="rect113-4-2"
       width="282.57498"
       height="354.01248"
       x="1.5875"
       y="1.5875" />
    <rect
       width="9.8019896"
       height="15.875"
       rx="0"
       ry="0"
       fill="#6002ee"
       stroke-width="0"
       id="rect1-3-4-39-4-2-0-5-6"
       x="247.60101"
       y="332.84583" />
    <text
       font-family="Montserrat"
       font-size="618.11px"
       font-weight="200"
       stroke-width="0"
       fill="#33333"
       id="text3-0-3-0-0-5-3-3-2"
       x="248.33717"
       y="345.42685"
       style="font-style:normal;font-variant:normal;font-weight:300;font-stretch:normal;font-size:13.0774px;font-family:Montserrat;-inkscape-font-specification:'Montserrat Light'"
       transform="scale(0.99938968,1.0006107)"><tspan
         y="345.42685"
         font-weight="200"
         stroke-width="0"
         id="tspan1-4-8-6-2-1-2-5-9"
         style="font-style:normal;font-variant:normal;font-weight:300;font-stretch:normal;font-size:13.0774px;font-family:Montserrat;-inkscape-font-specification:'Montserrat Light'"><tspan
           style="font-style:normal;font-variant:normal;font-weight:300;font-stretch:normal;font-size:13.0774px;font-family:Montserrat;-inkscape-font-specification:'Montserrat Light';fill:#ffffff;fill-opacity:1;stroke-width:0"
           id="tspan3-6-3-13-5-2-1-6-6">k</tspan></tspan></text>
    <text
       dx="0"
       dy="0"
       font-family="Montserrat"
       font-size="465.256px"
       font-weight="200"
       stroke-width="0"
       fill="#33333"
       id="text3-0-3-6-8-4-0-8-9"
       x="195.17659"
       y="345.42685"
       style="font-style:normal;font-variant:normal;font-weight:300;font-stretch:normal;font-size:13.0774px;font-family:Montserrat;-inkscape-font-specification:'Montserrat Light'"
       transform="scale(0.99938968,1.0006107)"><tspan
         y="345.42685"
         font-weight="200"
         stroke-width="0"
         id="tspan1-4-8-3-9-0-0-6-9"
         style="font-style:normal;font-variant:normal;font-weight:300;font-stretch:normal;font-size:13.0774px;font-family:Montserrat;-inkscape-font-specification:'Montserrat Light'">product</tspan></text>
    <text
       font-family="Montserrat"
       font-size="465.256px"
       font-weight="200"
       stroke-width="0"
       fill="#33333"
       id="text3-0-3-6-4-3-4-3-7-8"
       x="257.78418"
       y="345.42685"
       style="font-style:normal;font-variant:normal;font-weight:300;font-stretch:normal;font-size:13.0774px;font-family:Montserrat;-inkscape-font-specification:'Montserrat Light'"
       transform="scale(0.99938968,1.0006107)"><tspan
         y="345.42685"
         font-weight="200"
         stroke-width="0"
         id="tspan1-4-8-3-6-9-9-9-7-0"
         style="font-style:normal;font-variant:normal;font-weight:300;font-stretch:normal;font-size:13.0774px;font-family:Montserrat;-inkscape-font-specification:'Montserrat Light'">ind</tspan></text>
    <text
       xml:space="preserve"
       transform="scale(0.26458333)"
       id="text2"
       style="fill:#885901;text-orientation:auto;-inkscape-font-specification:'Josefin Slab Bold';font-family:'Josefin Slab';font-size:72px;letter-spacing:0px;word-spacing:0px;stroke-width:12;stroke:#370188;font-weight:bold;text-align:start;writing-mode:lr-tb;direction:ltr;white-space:pre;shape-inside:url(#rect2)" />
  </g>
</svg>
