<?xml version="1.0" encoding="UTF-8" standalone="no"?>
<!-- Created with Inkscape (http://www.inkscape.org/) -->

<svg
   width="1080"
   height="1350"
   viewBox="0 0 285.74999 357.1875"
   version="1.1"
   id="svg1"
   inkscape:version="1.4 (e7c3feb1, 2024-10-09)"
   sodipodi:docname="panel-01.svg"
   xmlns:inkscape="http://www.inkscape.org/namespaces/inkscape"
   xmlns:sodipodi="http://sodipodi.sourceforge.net/DTD/sodipodi-0.dtd"
   xmlns="http://www.w3.org/2000/svg"
   xmlns:svg="http://www.w3.org/2000/svg">
  <sodipodi:namedview
     id="namedview1"
     pagecolor="#ffffff"
     bordercolor="#000000"
     borderopacity="0.25"
     inkscape:showpageshadow="2"
     inkscape:pageopacity="0.0"
     inkscape:pagecheckerboard="0"
     inkscape:deskcolor="#d1d1d1"
     inkscape:document-units="px"
     inkscape:zoom="0.43696833"
     inkscape:cx="373.02475"
     inkscape:cy="1215.1911"
     inkscape:window-width="1728"
     inkscape:window-height="1057"
     inkscape:window-x="0"
     inkscape:window-y="32"
     inkscape:window-maximized="0"
     inkscape:current-layer="layer1"
     showguides="true" />
  <defs
     id="defs1">
    <rect
       x="337.60629"
       y="293.08679"
       width="868.13049"
       height="871.84045"
       id="rect26" />
    <rect
       x="358.01108"
       y="335.75131"
       width="877.4054"
       height="734.57196"
       id="rect25" />
    <rect
       x="418.44797"
       y="244.75258"
       width="748.0744"
       height="801.36731"
       id="rect16" />
  </defs>
  <g
     inkscape:label="Layer 1"
     inkscape:groupmode="layer"
     id="layer1">
    <text
       xml:space="preserve"
       transform="scale(0.26458333)"
       id="text16"
       style="font-style:normal;font-variant:normal;font-weight:bold;font-stretch:normal;font-size:60px;font-family:'Josefin Slab';-inkscape-font-specification:'Josefin Slab Bold';text-align:start;letter-spacing:0px;word-spacing:0px;writing-mode:lr-tb;direction:ltr;white-space:pre;shape-inside:url(#rect16);display:inline;fill:#000000;fill-opacity:0;stroke:#370188;stroke-width:12;stroke-opacity:1" />
    <text
       xml:space="preserve"
       transform="scale(0.26458333)"
       id="text25"
       style="font-style:normal;font-variant:normal;font-weight:bold;font-stretch:normal;font-size:60px;font-family:'Josefin Slab';-inkscape-font-specification:'Josefin Slab Bold';text-align:start;letter-spacing:0px;word-spacing:0px;writing-mode:lr-tb;direction:ltr;white-space:pre;shape-inside:url(#rect25);display:inline;fill:#000000;fill-opacity:0;stroke:#370188;stroke-width:12;stroke-opacity:1" />
    <text
       xml:space="preserve"
       transform="scale(0.26458333)"
       id="text26"
       style="font-style:normal;font-variant:normal;font-weight:bold;font-stretch:normal;font-size:60px;font-family:'Josefin Slab';-inkscape-font-specification:'Josefin Slab Bold';text-align:start;letter-spacing:0px;word-spacing:0px;writing-mode:lr-tb;direction:ltr;white-space:pre;shape-inside:url(#rect26);display:inline;fill:#000000;fill-opacity:0;stroke:#370188;stroke-width:12;stroke-opacity:1" />
    <rect
       style="fill:none;fill-opacity:1;fill-rule:nonzero;stroke:#370188;stroke-width:3.175;stroke-dasharray:none;stroke-opacity:1"
       id="rect113-4-2"
       width="282.57498"
       height="354.01248"
       x="1.5875"
       y="1.5875" />
    <rect
       width="9.8019896"
       height="15.875"
       rx="0"
       ry="0"
       fill="#6002ee"
       stroke-width="0"
       id="rect1-3-4-39-4-2-0-5-6"
       x="247.60098"
       y="332.84583" />
    <text
       font-family="Montserrat"
       font-size="618.11px"
       font-weight="200"
       stroke-width="0"
       fill="#33333"
       id="text3-0-3-0-0-5-3-3-2"
       x="248.33717"
       y="345.42685"
       style="font-style:normal;font-variant:normal;font-weight:300;font-stretch:normal;font-size:13.0774px;font-family:Montserrat;-inkscape-font-specification:'Montserrat Light'"
       transform="scale(0.99938968,1.0006107)"><tspan
         y="345.42685"
         font-weight="200"
         stroke-width="0"
         id="tspan1-4-8-6-2-1-2-5-9"
         style="font-style:normal;font-variant:normal;font-weight:300;font-stretch:normal;font-size:13.0774px;font-family:Montserrat;-inkscape-font-specification:'Montserrat Light'"><tspan
           style="font-style:normal;font-variant:normal;font-weight:300;font-stretch:normal;font-size:13.0774px;font-family:Montserrat;-inkscape-font-specification:'Montserrat Light';fill:#ffffff;fill-opacity:1;stroke-width:0"
           id="tspan3-6-3-13-5-2-1-6-6">k</tspan></tspan></text>
    <text
       dx="0"
       dy="0"
       font-family="Montserrat"
       font-size="465.256px"
       font-weight="200"
       stroke-width="0"
       fill="#33333"
       id="text3-0-3-6-8-4-0-8-9"
       x="195.17656"
       y="345.42685"
       style="font-style:normal;font-variant:normal;font-weight:300;font-stretch:normal;font-size:13.0774px;font-family:Montserrat;-inkscape-font-specification:'Montserrat Light'"
       transform="scale(0.99938968,1.0006107)"><tspan
         y="345.42685"
         font-weight="200"
         stroke-width="0"
         id="tspan1-4-8-3-9-0-0-6-9"
         style="font-style:normal;font-variant:normal;font-weight:300;font-stretch:normal;font-size:13.0774px;font-family:Montserrat;-inkscape-font-specification:'Montserrat Light'">product</tspan></text>
    <text
       font-family="Montserrat"
       font-size="465.256px"
       font-weight="200"
       stroke-width="0"
       fill="#33333"
       id="text3-0-3-6-4-3-4-3-7-8"
       x="257.78415"
       y="345.42685"
       style="font-style:normal;font-variant:normal;font-weight:300;font-stretch:normal;font-size:13.0774px;font-family:Montserrat;-inkscape-font-specification:'Montserrat Light'"
       transform="scale(0.99938968,1.0006107)"><tspan
         y="345.42685"
         font-weight="200"
         stroke-width="0"
         id="tspan1-4-8-3-6-9-9-9-7-0"
         style="font-style:normal;font-variant:normal;font-weight:300;font-stretch:normal;font-size:13.0774px;font-family:Montserrat;-inkscape-font-specification:'Montserrat Light'">ind</tspan></text>
    <path
       style="fill:#018816;fill-opacity:1;stroke:#370188;stroke-width:3.175;stroke-dasharray:none;stroke-opacity:1"
       d="m 40.946998,224.05757 -2.44821,35.65858 51.518659,1.38376 -2.022443,-39.59698 z"
       id="path25-4" />
    <path
       style="fill:#ffffff;fill-opacity:1;stroke:#370188;stroke-width:3.175;stroke-dasharray:none;stroke-opacity:1"
       d="m 24.285741,232.50538 c 0,15.83268 7.109175,26.92819 17.072325,33.28661 2.370486,1.51282 4.90258,2.75752 7.53891,3.73402 23.316628,8.63654 54.788084,-3.70364 54.763764,-37.02063 l -15.068042,15.50715 -15.15129,-6.5761 -19.957542,9.34238 -10.755375,-11.69092 -8.490204,5.14359 z"
       id="path1-8"
       sodipodi:nodetypes="cssccccccc" />
    <path
       style="fill:#370189;fill-opacity:1;stroke:#370188;stroke-width:0;stroke-dasharray:none;stroke-opacity:1"
       d="m 48.213748,267.84132 -3.826923,-5.27259 5.071173,2.35369 1.326261,-3.92795 0.376809,4.14213 4.169982,-3.19913 -2.573465,4.76485 5.63245,0.54648 -3.692811,2.899 z"
       id="path3-2"
       sodipodi:nodetypes="cccccccccc" />
    <path
       style="fill:#370189;fill-opacity:1;stroke:#370188;stroke-width:0;stroke-dasharray:none;stroke-opacity:1"
       d="m 79.358465,268.37767 3.035109,-5.32825 -4.745514,2.65567 -0.408241,-3.99876 -1.235837,4.49196 -4.724654,-1.3668 3.40941,3.17528 -4.781804,1.08258 4.5025,2.28216 z"
       id="path3-1-5"
       sodipodi:nodetypes="cccccccccc" />
    <path
       style="fill:#ee4302;fill-opacity:1;stroke:#370188;stroke-width:3.175;stroke-dasharray:none;stroke-opacity:1"
       d="m 48.808076,269.17139 c -0.09081,0.82798 -0.110808,10.87927 -0.110808,10.87927 l -7.657909,4.01428 9.170479,-1.55093 0.742855,0.90942 0.700278,-0.93298 8.75249,1.41577 -6.925976,-3.71139 c 0,0 0.07017,-8.9828 0.0127,-9.10428 z"
       id="path7-8"
       sodipodi:nodetypes="cccccccccc" />
    <path
       style="fill:#ee4302;fill-opacity:1;stroke:#370188;stroke-width:3.175;stroke-dasharray:none;stroke-opacity:1"
       d="m 78.846623,268.43349 0.340042,12.60688 7.871143,2.69119 -9.979501,-1.45316 -0.742855,0.90941 -0.70031,-0.93297 -9.076213,1.20135 7.41826,-3.10318 c 0,0 0.16637,-9.20293 0.179705,-9.394 z"
       id="path7-4-0"
       sodipodi:nodetypes="cccccccccc" />
    <path
       style="fill:none;fill-opacity:1;stroke:#370188;stroke-width:3.175;stroke-dasharray:none;stroke-opacity:1"
       d="m 49.306233,244.85375 3.905726,-9.47852 22.305454,-0.053 3.054922,7.69033"
       id="path19-60"
       sodipodi:nodetypes="cccc" />
    <path
       style="fill:#fdc458;fill-opacity:1;stroke:#370188;stroke-width:3.175;stroke-dasharray:none;stroke-opacity:1"
       d="m 37.662239,214.11137 c 0,0 -38.47277636,27.21073 6.956202,15.58833 z"
       id="path17-0"
       sodipodi:nodetypes="ccc" />
    <path
       style="fill:#fdc458;fill-opacity:1;stroke:#370188;stroke-width:3.175;stroke-dasharray:none;stroke-opacity:1"
       d="m 93.91476,215.15026 c 0,0 34.30229,21.19084 -7.534783,15.42339 z"
       id="path16-7"
       sodipodi:nodetypes="ccc" />
    <path
       style="fill:#fdc458;fill-opacity:1;stroke:#370188;stroke-width:3.175;stroke-dasharray:none;stroke-opacity:1"
       d="M 80.292867,200.34994 C 97.718822,161.40802 30.662031,162.0048 47.701366,200.99319 l 15.592742,7.69652 z"
       id="path23-5"
       sodipodi:nodetypes="cccc" />
    <path
       style="fill:#018816;fill-opacity:1;stroke:#370188;stroke-width:3.175;stroke-dasharray:none;stroke-opacity:1"
       d="m 46.661014,229.8126 -9.800304,4.04721 -6.621494,-19.13719 13.522515,-5.46456 -0.305753,-10.09068 19.875563,9.57891 20.4871,-10.49624 v 8.56177 l 14.322171,7.7724 -6.590697,18.69104 -9.531286,-3.85836"
       id="path12-0"
       sodipodi:nodetypes="ccccccccccc" />
    <path
       style="fill:none;fill-opacity:1;stroke:#370188;stroke-width:3.175;stroke-dasharray:none;stroke-opacity:1"
       d="m 43.456613,209.05655 19.874928,4.4824 20.996306,-6.52113"
       id="path22-1"
       sodipodi:nodetypes="ccc" />
    <path
       style="fill:none;fill-opacity:1;stroke:#370188;stroke-width:3.175;stroke-dasharray:none;stroke-opacity:1"
       d="m 54.14995,208.1096 -3.37312,20.3066"
       id="path10-79"
       sodipodi:nodetypes="cc" />
    <path
       style="fill:none;fill-opacity:1;stroke:#370188;stroke-width:3.175;stroke-dasharray:none;stroke-opacity:1"
       d="m 71.589843,207.60319 2.501138,20.97738"
       id="path11-71"
       sodipodi:nodetypes="cc" />
    <path
       style="fill:none;fill-opacity:1;stroke:#370188;stroke-width:3.175;stroke-dasharray:none;stroke-opacity:1"
       d="m 62.986609,190.51464 5.982748,3.09452 -7.220553,3.30085"
       id="path24-70" />
    <path
       style="fill:none;fill-opacity:1;stroke:#370188;stroke-width:3.175;stroke-dasharray:none;stroke-opacity:1"
       d="m 64.100907,173.44626 c 5.406327,-4.70872 -5.057489,-5.05752 0.523209,-8.89426"
       id="path26-0"
       sodipodi:nodetypes="cc" />
    <path
       style="fill:#c4c4c4;fill-opacity:1;fill-rule:nonzero;stroke:#370188;stroke-width:3.175;stroke-dasharray:none;stroke-opacity:1"
       d="m 190.98621,184.68031 c 0,0 -16.96867,8.32737 -16.2625,12.848 0.63341,4.05491 1.35886,4.78105 3.88182,7.06074 3.02921,2.7371 19.07174,-11.50808 19.07174,-11.50808"
       id="path82-7-2"
       sodipodi:nodetypes="cssc" />
    <path
       style="fill:#c4c4c4;fill-opacity:1;fill-rule:nonzero;stroke:#370188;stroke-width:3.175;stroke-dasharray:none;stroke-opacity:1"
       d="m 197.72384,261.58977 c 0,0 -4.10369,18.93541 -0.0718,21.09854 4.19939,2.25304 6.71887,2.38372 10.09863,0.0937 2.54984,-1.7278 0.65923,-22.26504 0.65923,-22.26504"
       id="path82-2-9-6"
       sodipodi:nodetypes="cssc" />
    <path
       style="fill:#c4c4c4;fill-opacity:1;fill-rule:nonzero;stroke:#370188;stroke-width:3.175;stroke-dasharray:none;stroke-opacity:1"
       d="m 231.86642,261.50004 c 0,0 -4.10372,18.93538 -0.0718,21.09854 4.19938,2.25305 6.71887,2.3837 10.09862,0.0937 2.54985,-1.7278 0.65923,-22.26506 0.65923,-22.26506"
       id="path82-2-7-33-8"
       sodipodi:nodetypes="cssc" />
    <path
       style="fill:#c4c4c4;fill-opacity:1;fill-rule:nonzero;stroke:#370188;stroke-width:3.175;stroke-dasharray:none;stroke-opacity:1"
       d="m 240.11785,186.82167 c 0,0 13.72798,12.22955 11.28943,16.10106 -2.16018,3.42958 -3.90453,4.88744 -7.30407,5.59737 -3.99644,0.83467 -13.06459,-15.96175 -13.06459,-15.96175"
       id="path82-5-3-5"
       sodipodi:nodetypes="cssc" />
    <path
       style="fill:#5892fd;fill-opacity:1;fill-rule:nonzero;stroke:#370188;stroke-width:3.175;stroke-dasharray:none;stroke-opacity:1"
       d="m 234.33838,179.66524 9.03777,59.12777 -50.86544,-0.19177 2.93646,-58.43149 c 12.79459,3.6617 26.1914,2.53346 38.89121,-0.50451 z"
       id="path56-7-2-0-5-5"
       sodipodi:nodetypes="ccccc" />
    <path
       style="fill:#5892fd;fill-opacity:1;fill-rule:nonzero;stroke:#370188;stroke-width:3.175;stroke-dasharray:none;stroke-opacity:1"
       d="m 189.16509,277.33078 26.58284,0.41307 3.29813,-21.2251 3.43055,21.16585 27.34977,-0.10287 -8.4561,-50.09994 -48.51946,-0.29559 z"
       id="path55-9-6-4-0-9"
       sodipodi:nodetypes="cccccccc" />
    <path
       style="fill:none;fill-opacity:1;fill-rule:nonzero;stroke:#370188;stroke-width:3.175;stroke-dasharray:none;stroke-opacity:1"
       d="m 218.02082,257.6621 4.89836,0.11049 -1.97206,-17.41672"
       id="path71-3-2-5-7"
       sodipodi:nodetypes="ccc" />
    <path
       style="fill:#c4c4c4;fill-opacity:1;stroke:#370188;stroke-width:3.175;stroke-linecap:butt;stroke-opacity:1"
       d="m 213.12881,133.64492 c -2.14208,-5.14089 -1.28524,-11.99547 -4.28409,-13.49492 -2.99888,-1.49943 -5.99777,-0.21431 -6.4262,2.99888 -0.42837,3.21307 5.56939,7.92556 6.4262,12.20968"
       id="path5-9-7"
       sodipodi:nodetypes="cssc" />
    <path
       style="fill:#c4c4c4;fill-opacity:1;stroke:#370188;stroke-width:3.175;stroke-linecap:butt;stroke-opacity:1"
       d="m 209.27106,167.27087 c 0,0 -24.51303,3.04787 -30.966,0.54448 -4.84924,-1.88122 -2.47529,-17.83731 -0.74168,-21.88267 1.19612,-2.79092 4.66135,-3.54028 17.82858,-7.19588 5.91877,-1.64322 12.1473,-7.79704 17.87661,-7.79704 33.80839,0 20.56416,29.51731 17.67453,48.01079 l -27.09037,7.17471 -2.86563,-18.25384"
       id="path3-6"
       sodipodi:nodetypes="cssssccc" />
    <path
       style="fill:#5892fd;fill-opacity:1;fill-rule:nonzero;stroke:#370188;stroke-width:3.175;stroke-dasharray:none;stroke-opacity:1"
       d="m 201.61305,193.0493 -11.57435,9.1692 -9.46015,-15.14413 19.37014,-13.21417 c 10.64847,5.96122 21.48443,7.7978 32.75584,0.0546 l 3.9877,4.82995 11.8248,14.32234 -11.71961,8.44629 -6.20312,-8.8409"
       id="path57-2-5-8-0-0"
       sodipodi:nodetypes="ccccccccc" />
    <path
       style="fill:#c4c4c4;fill-opacity:1;stroke:#370188;stroke-width:3.175;stroke-linecap:butt;stroke-linejoin:round;stroke-opacity:1"
       d="m 185.4691,147.16582 3.48406,-20.20611 6.84247,17.38982"
       id="path4-0"
       sodipodi:nodetypes="ccc" />
    <circle
       style="fill:#370189;fill-opacity:1;stroke:none;stroke-width:12.6211;stroke-dasharray:none;stroke-opacity:1"
       id="path9-5-7-5-2-3-0-9"
       cx="204.15683"
       cy="141.27606"
       r="2.6458333" />
    <circle
       style="fill:#370189;fill-opacity:1;stroke:none;stroke-width:12.6211;stroke-dasharray:none;stroke-opacity:1"
       id="path9-5-7-6-7-6-0-47-2"
       cx="214.4328"
       cy="143.48131"
       r="2.6458333" />
    <circle
       style="fill:#370189;fill-opacity:1;stroke:none;stroke-width:6.11708;stroke-dasharray:none;stroke-opacity:1"
       id="path9-8-2-7-6"
       cx="180.38397"
       cy="150.2805"
       r="1.2823594" />
    <circle
       style="fill:#370189;fill-opacity:1;stroke:none;stroke-width:6.11708;stroke-dasharray:none;stroke-opacity:1"
       id="path9-8-2-2-5-5"
       cx="184.38643"
       cy="151.24353"
       r="1.2823594" />
    <path
       style="fill:#c4c4c4;fill-opacity:1;stroke:#370188;stroke-width:3.175;stroke-linecap:butt;stroke-opacity:1"
       d="m 223.58523,138.62605 c 2.14208,-5.14089 1.28524,-11.99546 4.28409,-13.49492 2.99888,-1.49943 5.99776,-0.21431 6.4262,2.99888 0.42837,3.21307 -5.56939,7.92556 -6.4262,12.20969"
       id="path5-1"
       sodipodi:nodetypes="cssc" />
    <path
       style="fill:#ffffff;fill-opacity:1;stroke:#370188;stroke-width:3.175;stroke-linecap:round;stroke-dasharray:none;stroke-opacity:1"
       d="m 195.05917,175.61588 4.68184,23.64521 -5.42089,11.08999 -8.12952,61.15618 65.77522,0.92383 -12.36324,-60.29074 -7.7153,-10.96915 7.91902,-21.80333 -4.09952,-4.30628 -7.57524,14.04191 -22.91047,-1.29333 -6.09714,-14.2267 z"
       id="path1"
       sodipodi:nodetypes="ccccccccccccc" />
    <path
       style="fill:#ffffff;fill-opacity:1;stroke:#370188;stroke-width:3.175;stroke-linecap:round;stroke-dasharray:none;stroke-opacity:1"
       d="m 224.27326,197.72213 c 0,0 1.21822,6.13699 -1.72078,9.8393 -3.36541,4.23948 -9.84696,4.08724 -13.14217,-0.30639 -3.2952,-4.3936 -1.21788,-10.44248 -1.21788,-10.44248 z"
       id="path2"
       sodipodi:nodetypes="csscc" />
    <path
       style="fill:#563801;fill-opacity:1;stroke:#370188;stroke-width:3.175;stroke-dasharray:none;stroke-opacity:1"
       d="m 242.29693,204.25412 -49.0593,-0.84585 -22.83793,11.41898 0.0895,13.49872 52.64023,0.0143 19.07359,-12.77197 z"
       id="path8"
       sodipodi:nodetypes="ccccccc" />
    <path
       style="fill:none;fill-opacity:1;stroke:#370188;stroke-width:3.175;stroke-dasharray:none;stroke-opacity:1"
       d="m 241.88968,204.4191 -19.37589,11.90318 -51.67598,0.27118"
       id="path9"
       sodipodi:nodetypes="ccc" />
    <path
       style="fill:none;fill-opacity:1;stroke:#9a58fd;stroke-width:1.92056;stroke-dasharray:none;stroke-opacity:1"
       d="m 218.97088,210.4394 c 2.21726,0.0539 4.49291,-0.24124 6.35657,-0.83409 0.12414,-0.0396 0.18891,-0.11484 0.3181,-0.15167 0.14351,-0.0411 0.34268,-0.0279 0.47676,-0.0758 0.0946,-0.034 0.0749,-0.11167 0.1597,-0.15167 0.32896,-0.15691 -0.0127,0.23977 0.3175,-0.0758 0.21685,-0.20727 -0.22987,-0.56435 -0.47672,-0.68243 -0.2413,-0.115 -0.50604,-0.29655 -0.79455,-0.37912 -1.05689,-0.30258 -4.40995,-0.20616 -5.56199,0 -2.40186,0.42975 -4.44796,1.09635 -6.51549,1.8198 -0.93656,0.3277 -1.96126,0.80911 -3.01936,1.06155 -0.19526,0.0466 -0.44034,0.0292 -0.63573,0.0758 -0.067,0.0159 -0.0841,0.0759 -0.1597,0.0759 -0.42386,0 -0.019,-0.73128 0,-0.75825 0.45542,-0.65193 0.86328,-1.34023 1.43027,-1.97145 0.44425,-0.49458 1.08497,-0.95957 1.58912,-1.44069 0.0943,-0.0896 0.56322,-0.60659 0.79461,-0.60659 0.0533,0 0,0.0505 0,0.0758 0,0.051 0.0467,0.18272 0,0.22749 -0.10414,0.0994 -0.31083,0.0857 -0.47679,0.15167 -0.2305,0.0915 -0.40586,0.21174 -0.63567,0.30327 -0.50253,0.1998 -1.16894,0.3168 -1.74802,0.45495 -2.2934,0.54714 -1.31464,-1.06155 -3.01937,-1.06155 -0.11112,0 -0.69608,-0.0235 -0.79454,0 -0.96117,0.2293 -1.22533,0.86521 -1.43024,1.28903 -0.45704,0.9451 -0.22797,0.1102 -0.6357,1.2132 -0.86589,2.34117 0.35039,-0.60937 -0.31775,0.98573 -0.0384,0.0927 -0.48613,1.36931 -0.79455,1.5165 -0.19494,0.0929 -0.38227,-0.18313 -0.63563,-0.45495 -0.65526,-0.70342 -1.27153,-1.41562 -1.90703,-2.1231 -0.066,-0.0735 -0.073,-0.15898 -0.15875,-0.22749 -0.0556,-0.0438 -0.58303,-0.30328 -0.63564,-0.30328 -0.10604,0 0,0.10109 0,0.15167 0,0.20819 0.047,0.10643 -0.1597,0.30328 -0.57636,0.55 -1.34906,1.36508 -3.01939,1.13737 -0.79502,-0.10836 -2.32074,-1.04294 -2.86039,-1.36485 -0.0825,-0.0491 -0.61583,-0.45495 -0.6357,-0.45495 -0.0527,0 0,0.0505 0,0.0758 0,0.12582 0.0254,0.18659 -0.15875,0.30327 -0.26511,0.16863 -2.0154,0.62385 -2.3837,0.68243 -0.95761,0.15231 -2.1102,0.40639 -2.1102,1.08075"
       id="path10"
       sodipodi:nodetypes="csssccssssssscsssssssssssssssssssssssscsc" />
    <circle
       style="fill:none;fill-opacity:1;stroke:#370188;stroke-width:3.175;stroke-dasharray:none;stroke-opacity:1"
       id="path11"
       cx="-237.83795"
       cy="204.48775"
       r="1.608929"
       transform="scale(-1,1)" />
    <circle
       style="fill:none;fill-opacity:1;stroke:#370188;stroke-width:3.175;stroke-dasharray:none;stroke-opacity:1"
       id="path11-6"
       cx="-230.09219"
       cy="209.23227"
       r="1.608929"
       transform="scale(-1,1)" />
    <circle
       style="fill:none;fill-opacity:1;stroke:#370188;stroke-width:3.175;stroke-dasharray:none;stroke-opacity:1"
       id="path11-5"
       cx="-233.14433"
       cy="207.26901"
       r="1.608929"
       transform="scale(-1,1)" />
    <circle
       style="fill:none;fill-opacity:1;stroke:#370188;stroke-width:3.175;stroke-dasharray:none;stroke-opacity:1"
       id="path11-6-2"
       cx="-226.38022"
       cy="211.52272"
       r="1.608929"
       transform="scale(-1,1)" />
    <circle
       style="fill:none;fill-opacity:1;stroke:#370188;stroke-width:3.175;stroke-dasharray:none;stroke-opacity:1"
       id="path11-3"
       cx="-185.42293"
       cy="203.50613"
       r="1.608929"
       transform="scale(-1,1)" />
    <circle
       style="fill:none;fill-opacity:1;stroke:#370188;stroke-width:3.175;stroke-dasharray:none;stroke-opacity:1"
       id="path11-6-25"
       cx="-181.60359"
       cy="205.63298"
       r="1.608929"
       transform="scale(-1,1)" />
    <circle
       style="fill:none;fill-opacity:1;stroke:#370188;stroke-width:3.175;stroke-dasharray:none;stroke-opacity:1"
       id="path11-5-6"
       cx="-173.53073"
       cy="210.54109"
       r="1.608929"
       transform="scale(-1,1)" />
    <circle
       style="fill:none;fill-opacity:1;stroke:#370188;stroke-width:3.175;stroke-dasharray:none;stroke-opacity:1"
       id="path11-6-2-1"
       cx="-177.56439"
       cy="208.08704"
       r="1.608929"
       transform="scale(-1,1)" />
    <circle
       style="fill:none;fill-opacity:1;stroke:#370188;stroke-width:3.175;stroke-dasharray:none;stroke-opacity:1"
       id="path11-1"
       cx="-242.52525"
       cy="201.28375"
       r="1.608929"
       transform="scale(-1,1)" />
    <circle
       style="fill:none;fill-opacity:1;stroke:#370188;stroke-width:3.175;stroke-dasharray:none;stroke-opacity:1"
       id="path11-6-7"
       cx="-237.23352"
       cy="201.28375"
       r="1.608929"
       transform="scale(-1,1)" />
    <circle
       style="fill:none;fill-opacity:1;stroke:#370188;stroke-width:3.175;stroke-dasharray:none;stroke-opacity:1"
       id="path11-5-12"
       cx="-231.94189"
       cy="201.28375"
       r="1.608929"
       transform="scale(-1,1)" />
    <circle
       style="fill:none;fill-opacity:1;stroke:#370188;stroke-width:3.175;stroke-dasharray:none;stroke-opacity:1"
       id="path11-6-2-4"
       cx="-226.65016"
       cy="201.28375"
       r="1.608929"
       transform="scale(-1,1)" />
    <circle
       style="fill:none;fill-opacity:1;stroke:#370188;stroke-width:3.175;stroke-dasharray:none;stroke-opacity:1"
       id="path11-3-5"
       cx="-221.35852"
       cy="201.28375"
       r="1.608929"
       transform="scale(-1,1)" />
    <circle
       style="fill:none;fill-opacity:1;stroke:#370188;stroke-width:3.175;stroke-dasharray:none;stroke-opacity:1"
       id="path11-6-25-1"
       cx="-216.06679"
       cy="201.28375"
       r="1.608929"
       transform="scale(-1,1)" />
    <circle
       style="fill:none;fill-opacity:1;stroke:#370188;stroke-width:3.175;stroke-dasharray:none;stroke-opacity:1"
       id="path11-5-6-3"
       cx="-210.77516"
       cy="201.28375"
       r="1.608929"
       transform="scale(-1,1)" />
    <circle
       style="fill:none;fill-opacity:1;stroke:#370188;stroke-width:3.175;stroke-dasharray:none;stroke-opacity:1"
       id="path11-6-2-1-9"
       cx="-205.48343"
       cy="201.28375"
       r="1.608929"
       transform="scale(-1,1)" />
    <circle
       style="fill:none;fill-opacity:1;stroke:#370188;stroke-width:3.175;stroke-dasharray:none;stroke-opacity:1"
       id="path11-63-7"
       cx="-200.19189"
       cy="201.28375"
       r="1.608929"
       transform="scale(-1,1)" />
    <circle
       style="fill:none;fill-opacity:1;stroke:#370188;stroke-width:3.175;stroke-dasharray:none;stroke-opacity:1"
       id="path11-6-0-9"
       cx="-194.90016"
       cy="201.28375"
       r="1.608929"
       transform="scale(-1,1)" />
    <circle
       style="fill:none;fill-opacity:1;stroke:#370188;stroke-width:3.175;stroke-dasharray:none;stroke-opacity:1"
       id="path11-5-1-9"
       cx="-189.60852"
       cy="201.28375"
       r="1.608929"
       transform="scale(-1,1)" />
    <circle
       style="fill:none;fill-opacity:1;stroke:#370188;stroke-width:3.175;stroke-dasharray:none;stroke-opacity:1"
       id="path11-1-3"
       cx="-223.27023"
       cy="213.94455"
       r="1.608929"
       transform="scale(-1,1)" />
    <circle
       style="fill:none;fill-opacity:1;stroke:#370188;stroke-width:3.175;stroke-dasharray:none;stroke-opacity:1"
       id="path11-6-7-4"
       cx="-217.9785"
       cy="213.94455"
       r="1.608929"
       transform="scale(-1,1)" />
    <circle
       style="fill:none;fill-opacity:1;stroke:#370188;stroke-width:3.175;stroke-dasharray:none;stroke-opacity:1"
       id="path11-5-12-0"
       cx="-212.68686"
       cy="213.94455"
       r="1.608929"
       transform="scale(-1,1)" />
    <circle
       style="fill:none;fill-opacity:1;stroke:#370188;stroke-width:3.175;stroke-dasharray:none;stroke-opacity:1"
       id="path11-6-2-4-8"
       cx="-207.39513"
       cy="213.94455"
       r="1.608929"
       transform="scale(-1,1)" />
    <circle
       style="fill:none;fill-opacity:1;stroke:#370188;stroke-width:3.175;stroke-dasharray:none;stroke-opacity:1"
       id="path11-3-5-0"
       cx="-202.1035"
       cy="213.94455"
       r="1.608929"
       transform="scale(-1,1)" />
    <circle
       style="fill:none;fill-opacity:1;stroke:#370188;stroke-width:3.175;stroke-dasharray:none;stroke-opacity:1"
       id="path11-6-25-1-1"
       cx="-196.81177"
       cy="213.94455"
       r="1.608929"
       transform="scale(-1,1)" />
    <circle
       style="fill:none;fill-opacity:1;stroke:#370188;stroke-width:3.175;stroke-dasharray:none;stroke-opacity:1"
       id="path11-5-6-3-5"
       cx="-191.52013"
       cy="213.94455"
       r="1.608929"
       transform="scale(-1,1)" />
    <circle
       style="fill:none;fill-opacity:1;stroke:#370188;stroke-width:3.175;stroke-dasharray:none;stroke-opacity:1"
       id="path11-6-2-1-9-6"
       cx="-186.22841"
       cy="213.94455"
       r="1.608929"
       transform="scale(-1,1)" />
    <circle
       style="fill:none;fill-opacity:1;stroke:#370188;stroke-width:3.175;stroke-dasharray:none;stroke-opacity:1"
       id="path11-63-7-5"
       cx="-180.93686"
       cy="213.94455"
       r="1.608929"
       transform="scale(-1,1)" />
    <circle
       style="fill:none;fill-opacity:1;stroke:#370188;stroke-width:3.175;stroke-dasharray:none;stroke-opacity:1"
       id="path11-6-0-9-5"
       cx="-175.64514"
       cy="213.94455"
       r="1.608929"
       transform="scale(-1,1)" />
    <circle
       style="fill:none;fill-opacity:1;stroke:#370188;stroke-width:3.175;stroke-dasharray:none;stroke-opacity:1"
       id="path11-5-1-9-8"
       cx="-170.3535"
       cy="213.94455"
       r="1.608929"
       transform="scale(-1,1)" />
    <path
       style="fill:none;fill-opacity:1;stroke:#370188;stroke-width:3.175;stroke-dasharray:none;stroke-opacity:1"
       d="M 223.61054,228.07137 223.36987,215.0105"
       id="path12"
       sodipodi:nodetypes="cc" />
    <ellipse
       style="fill:#ffffff;fill-opacity:1;stroke:#370188;stroke-width:1.5875;stroke-dasharray:none;stroke-opacity:1"
       id="path9-9"
       cx="58.916153"
       cy="184.16852"
       rx="3.0748799"
       ry="4.3256369" />
    <ellipse
       style="fill:#ffffff;fill-opacity:1;stroke:#370188;stroke-width:1.5875;stroke-dasharray:none;stroke-opacity:1"
       id="path9-2-0"
       cx="70.504982"
       cy="183.97101"
       rx="3.0745678"
       ry="4.3334799" />
  </g>
</svg>
