<?xml version="1.0" encoding="UTF-8" standalone="no"?>
<!-- Created with Inkscape (http://www.inkscape.org/) -->

<svg
   width="1080"
   height="1350"
   viewBox="0 0 285.74999 357.1875"
   version="1.1"
   id="svg1"
   inkscape:version="1.4 (e7c3feb1, 2024-10-09)"
   sodipodi:docname="panel-00.svg"
   xmlns:inkscape="http://www.inkscape.org/namespaces/inkscape"
   xmlns:sodipodi="http://sodipodi.sourceforge.net/DTD/sodipodi-0.dtd"
   xmlns="http://www.w3.org/2000/svg"
   xmlns:svg="http://www.w3.org/2000/svg">
  <sodipodi:namedview
     id="namedview1"
     pagecolor="#ffffff"
     bordercolor="#000000"
     borderopacity="0.25"
     inkscape:showpageshadow="2"
     inkscape:pageopacity="0.0"
     inkscape:pagecheckerboard="0"
     inkscape:deskcolor="#d1d1d1"
     inkscape:document-units="px"
     inkscape:zoom="0.33948215"
     inkscape:cx="303.40329"
     inkscape:cy="833.62262"
     inkscape:window-width="1728"
     inkscape:window-height="1057"
     inkscape:window-x="0"
     inkscape:window-y="32"
     inkscape:window-maximized="0"
     inkscape:current-layer="layer1" />
  <defs
     id="defs1">
    <rect
       x="337.60629"
       y="293.08679"
       width="868.13049"
       height="871.84045"
       id="rect26" />
    <rect
       x="358.01108"
       y="335.75131"
       width="877.4054"
       height="734.57196"
       id="rect25" />
    <rect
       x="418.44797"
       y="244.75258"
       width="748.0744"
       height="801.36731"
       id="rect16" />
  </defs>
  <g
     inkscape:label="Layer 1"
     inkscape:groupmode="layer"
     id="layer1">
    <text
       xml:space="preserve"
       transform="scale(0.26458333)"
       id="text16"
       style="font-style:normal;font-variant:normal;font-weight:bold;font-stretch:normal;font-size:60px;font-family:'Josefin Slab';-inkscape-font-specification:'Josefin Slab Bold';text-align:start;letter-spacing:0px;word-spacing:0px;writing-mode:lr-tb;direction:ltr;white-space:pre;shape-inside:url(#rect16);display:inline;fill:#000000;fill-opacity:0;stroke:#370188;stroke-width:12;stroke-opacity:1" />
    <text
       xml:space="preserve"
       transform="scale(0.26458333)"
       id="text25"
       style="font-style:normal;font-variant:normal;font-weight:bold;font-stretch:normal;font-size:60px;font-family:'Josefin Slab';-inkscape-font-specification:'Josefin Slab Bold';text-align:start;letter-spacing:0px;word-spacing:0px;writing-mode:lr-tb;direction:ltr;white-space:pre;shape-inside:url(#rect25);display:inline;fill:#000000;fill-opacity:0;stroke:#370188;stroke-width:12;stroke-opacity:1" />
    <text
       xml:space="preserve"
       transform="scale(0.26458333)"
       id="text26"
       style="font-style:normal;font-variant:normal;font-weight:bold;font-stretch:normal;font-size:60px;font-family:'Josefin Slab';-inkscape-font-specification:'Josefin Slab Bold';text-align:start;letter-spacing:0px;word-spacing:0px;writing-mode:lr-tb;direction:ltr;white-space:pre;shape-inside:url(#rect26);display:inline;fill:#000000;fill-opacity:0;stroke:#370188;stroke-width:12;stroke-opacity:1" />
    <rect
       width="9.8019896"
       height="15.875"
       rx="0"
       ry="0"
       fill="#6002ee"
       stroke-width="0"
       id="rect1-3-4-39-4-2-0-5-6"
       x="247.60098"
       y="332.84583" />
    <text
       font-family="Montserrat"
       font-size="618.11px"
       font-weight="200"
       stroke-width="0"
       fill="#33333"
       id="text3-0-3-0-0-5-3-3-2"
       x="248.33717"
       y="345.42685"
       style="font-style:normal;font-variant:normal;font-weight:300;font-stretch:normal;font-size:13.0774px;font-family:Montserrat;-inkscape-font-specification:'Montserrat Light'"
       transform="scale(0.99938968,1.0006107)"><tspan
         y="345.42685"
         font-weight="200"
         stroke-width="0"
         id="tspan1-4-8-6-2-1-2-5-9"
         style="font-style:normal;font-variant:normal;font-weight:300;font-stretch:normal;font-size:13.0774px;font-family:Montserrat;-inkscape-font-specification:'Montserrat Light'"><tspan
           style="font-style:normal;font-variant:normal;font-weight:300;font-stretch:normal;font-size:13.0774px;font-family:Montserrat;-inkscape-font-specification:'Montserrat Light';fill:#ffffff;fill-opacity:1;stroke-width:0"
           id="tspan3-6-3-13-5-2-1-6-6">k</tspan></tspan></text>
    <text
       dx="0"
       dy="0"
       font-family="Montserrat"
       font-size="465.256px"
       font-weight="200"
       stroke-width="0"
       fill="#33333"
       id="text3-0-3-6-8-4-0-8-9"
       x="195.17656"
       y="345.42685"
       style="font-style:normal;font-variant:normal;font-weight:300;font-stretch:normal;font-size:13.0774px;font-family:Montserrat;-inkscape-font-specification:'Montserrat Light'"
       transform="scale(0.99938968,1.0006107)"><tspan
         y="345.42685"
         font-weight="200"
         stroke-width="0"
         id="tspan1-4-8-3-9-0-0-6-9"
         style="font-style:normal;font-variant:normal;font-weight:300;font-stretch:normal;font-size:13.0774px;font-family:Montserrat;-inkscape-font-specification:'Montserrat Light'">product</tspan></text>
    <text
       font-family="Montserrat"
       font-size="465.256px"
       font-weight="200"
       stroke-width="0"
       fill="#33333"
       id="text3-0-3-6-4-3-4-3-7-8"
       x="257.78415"
       y="345.42685"
       style="font-style:normal;font-variant:normal;font-weight:300;font-stretch:normal;font-size:13.0774px;font-family:Montserrat;-inkscape-font-specification:'Montserrat Light'"
       transform="scale(0.99938968,1.0006107)"><tspan
         y="345.42685"
         font-weight="200"
         stroke-width="0"
         id="tspan1-4-8-3-6-9-9-9-7-0"
         style="font-style:normal;font-variant:normal;font-weight:300;font-stretch:normal;font-size:13.0774px;font-family:Montserrat;-inkscape-font-specification:'Montserrat Light'">ind</tspan></text>
    <path
       style="fill:none;stroke:#370188;stroke-width:3.175;stroke-linejoin:round"
       d="m 69.173817,174.43832 63.910593,-27.8199 78.94838,59.39925 -71.42949,37.59447 z"
       id="path1"
       sodipodi:nodetypes="ccccc" />
    <path
       style="fill:none;stroke:#370188;stroke-width:3.175;stroke-linejoin:round"
       d="m 122.55796,163.15998 c 13.45399,1.69454 -13.22645,-2.40519 6.01511,0 0.0631,0.008 0,2.17561 0,4.51134 0,1.07045 7.39341,5.29394 4.47662,7.30145 -0.98121,0.67532 -5.96822,3.05685 -5.79732,2.71505 0.60152,-1.20303 5.23053,3.21675 5.83204,2.01373 0.11209,-0.22417 -0.17722,-0.57467 0,-0.75189 2.31878,-2.31878 8.79843,0.44271 9.03572,0.67999 0.37284,0.37284 -4.30068,5.33512 -3.77249,5.33512 3.45196,0 7.99564,0.82068 11.27834,0 0.69224,-0.17306 4.36891,-1.6462 5.26322,-0.75189 1.00252,1.00252 -1.00252,5.0126 0,6.01512 0.75189,0.75189 3.75945,-0.75189 4.51134,0 0.8772,0.8772 -0.87721,4.38602 0,5.26322 1.23803,1.23804 4.93829,-1.40176 6.01511,0.75189 0.90454,1.80908 -1.45787,7.16591 0.75189,8.27079 1.4269,0.71345 5.68245,-1.08455 6.76701,0 1.55568,1.55568 -2.3773,-0.0608 0.75188,1.50377 2.1454,1.0727 3.75945,-1.01026 3.75945,2.25567"
       id="path2"
       sodipodi:nodetypes="ccssssssssssssssssc" />
    <path
       style="fill:none;stroke:#370188;stroke-width:3.175;stroke-linejoin:round"
       d="m 96.993722,177.44588 c 2.255668,0 4.511338,0 6.767008,0 1.25315,0 2.50629,0 3.75944,0 0.50126,0 1.14934,-0.35444 1.50378,0 1.36173,1.36173 -1.57638,7.21986 2.25567,9.77456 2.01331,1.34221 4.56397,0.95302 6.767,1.50378 0.34387,0.086 0.40803,0.66592 0.75189,0.75189 0.72944,0.18236 1.51838,-0.14746 2.25567,0 2.1959,0.43918 4.89674,1.32054 6.76701,2.25567 2.15365,1.07682 -0.48615,4.77708 0.75188,6.01511 0.679,0.679 2.86359,1.05585 3.75945,1.50378 1.00705,0.50352 1.04184,1.79373 1.50378,2.25567 0.17722,0.17722 0.57467,-0.17722 0.75189,0 0.27661,0.27661 0.21915,8.70908 0.75189,9.77456 0.11208,0.22417 0.57466,-0.17722 0.75189,0 0.17722,0.17722 -0.17723,0.57467 0,0.75189 0.75189,0.75189 3.75944,-0.75189 4.51133,0 0.4275,0.4275 0.45285,3.91324 0.75189,4.51134 0.31703,0.63404 1.18676,0.86973 1.50378,1.50377 0.11209,0.22417 -0.17722,0.57467 0,0.75189 0.35445,0.35445 1.05544,-0.22417 1.50378,0 2.1227,1.06135 6.767,1.92664 6.767,5.26323"
       id="path3" />
    <path
       style="fill:#fdc458;stroke:#370188;stroke-width:3.175;stroke-linejoin:round;fill-opacity:1"
       d="m 13.736229,190.43408 c 81.793001,7.49249 85.105741,-16.40723 31.409568,-86.9615"
       id="path4"
       sodipodi:nodetypes="cc" />
    <path
       style="fill:#c4c4c4;stroke:#370188;stroke-width:3.175;stroke-linejoin:round;fill-opacity:1"
       d="m 230.39402,128.62106 c -17.96315,11.76896 -41.99522,19.0104 -44.8445,32.86109 -4.82359,23.44802 6.9537,51.65265 30.28303,64.0906 13.25448,7.06658 31.42546,-3.19119 53.27267,-10.1637"
       id="path5"
       sodipodi:nodetypes="cssc" />
    <path
       style="fill:#018816;fill-opacity:1;stroke:#370188;stroke-width:3.175;stroke-linejoin:miter"
       d="M 1.2487481,194.18033 18.106848,201.04844 62.558865,104.58252 1.7235533,71.488472"
       id="path6"
       sodipodi:nodetypes="cccc" />
    <path
       style="fill:#5892fd;fill-opacity:1;stroke:#370188;stroke-width:3.175;stroke-linejoin:miter"
       d="m 283.59013,87.46633 -72.64566,35.28504 51.88977,108.62257 21.44778,-8.99422"
       id="path7"
       sodipodi:nodetypes="cccc" />
    <rect
       style="fill:none;fill-opacity:1;fill-rule:nonzero;stroke:#370188;stroke-width:3.175;stroke-dasharray:none;stroke-opacity:1"
       id="rect113-4-2"
       width="282.57498"
       height="354.01248"
       x="1.5875"
       y="1.5875" />
  </g>
</svg>
