<?xml version="1.0" encoding="UTF-8" standalone="no"?>
<!-- Created with Inkscape (http://www.inkscape.org/) -->

<svg
   width="6480"
   height="3240"
   viewBox="0 0 540 270"
   version="1.1"
   id="svg1"
   inkscape:version="1.4 (e7c3feb1, 2024-10-09)"
   sodipodi:docname="cat-versions.svg"
   xmlns:inkscape="http://www.inkscape.org/namespaces/inkscape"
   xmlns:sodipodi="http://sodipodi.sourceforge.net/DTD/sodipodi-0.dtd"
   xmlns:xlink="http://www.w3.org/1999/xlink"
   xmlns="http://www.w3.org/2000/svg"
   xmlns:svg="http://www.w3.org/2000/svg">
  <sodipodi:namedview
     id="namedview1"
     pagecolor="#ffffff"
     bordercolor="#000000"
     borderopacity="0.25"
     inkscape:showpageshadow="2"
     inkscape:pageopacity="0.0"
     inkscape:pagecheckerboard="0"
     inkscape:deskcolor="#d1d1d1"
     inkscape:document-units="px"
     inkscape:zoom="0.37061381"
     inkscape:cx="1108.9711"
     inkscape:cy="2347.4571"
     inkscape:window-width="1728"
     inkscape:window-height="1057"
     inkscape:window-x="0"
     inkscape:window-y="32"
     inkscape:window-maximized="0"
     inkscape:current-layer="layer1"
     showguides="true"
     showgrid="false">
    <sodipodi:guide
       position="-112.46061,89.999674"
       orientation="0,-1"
       id="guide1"
       inkscape:locked="false" />
    <sodipodi:guide
       position="90,187.3597"
       orientation="1,0"
       id="guide2"
       inkscape:locked="false" />
    <sodipodi:guide
       position="0,209.35185"
       orientation="1,0"
       id="guide3"
       inkscape:locked="false" />
    <sodipodi:guide
       position="-10.710286,180"
       orientation="0,-1"
       id="guide4"
       inkscape:locked="false" />
    <sodipodi:guide
       position="180.00033,187.53841"
       orientation="1,0"
       id="guide5"
       inkscape:locked="false" />
    <sodipodi:guide
       position="269.96329,208.01051"
       orientation="1,0"
       id="guide6"
       inkscape:locked="false" />
    <sodipodi:guide
       position="360.00033,216.23047"
       orientation="1,0"
       id="guide7"
       inkscape:locked="false" />
    <sodipodi:guide
       position="449.99999,193.05214"
       orientation="1,0"
       id="guide8"
       inkscape:locked="false" />
    <sodipodi:guide
       position="-7.3948568,89.999674"
       orientation="0,-1"
       id="guide9"
       inkscape:locked="false" />
  </sodipodi:namedview>
  <defs
     id="defs1">
    <linearGradient
       id="swatch44"
       inkscape:swatch="solid">
      <stop
         style="stop-color:#ff80f1;stop-opacity:1;"
         offset="0"
         id="stop44" />
    </linearGradient>
    <linearGradient
       id="swatch43">
      <stop
         style="stop-color:#ff80f1;stop-opacity:1;"
         offset="0"
         id="stop43" />
    </linearGradient>
    <pattern
       inkscape:collect="always"
       xlink:href="#pattern12"
       preserveAspectRatio="xMidYMid"
       id="pattern15"
       patternTransform="translate(-4.2089842e-6,-2.1347655e-5)" />
    <pattern
       inkscape:collect="always"
       xlink:href="#pattern11"
       preserveAspectRatio="xMidYMid"
       id="pattern13"
       patternTransform="translate(-4.2089842e-6,-1.1347656e-5)" />
    <pattern
       patternUnits="userSpaceOnUse"
       width="145.16318"
       height="23.960763"
       patternTransform="translate(194.64706,528.93462)"
       preserveAspectRatio="xMidYMid"
       id="pattern11">
      <rect
         style="fill:#ffffff;stroke:#6002ee;stroke-width:12;stroke-dasharray:none"
         id="rect11-6"
         width="133.16318"
         height="11.960763"
         x="6"
         y="6"
         rx="17.999998" />
    </pattern>
    <pattern
       patternUnits="userSpaceOnUse"
       width="145.16317"
       height="23.960763"
       patternTransform="translate(194.64706,528.93461)"
       preserveAspectRatio="xMidYMid"
       id="pattern12">
      <rect
         style="fill:url(#pattern13);stroke:none"
         width="145.16318"
         height="23.960762"
         x="0"
         y="0"
         id="rect12" />
    </pattern>
    <pattern
       patternUnits="userSpaceOnUse"
       width="145.16317"
       height="23.960763"
       patternTransform="translate(194.64706,528.93461)"
       preserveAspectRatio="xMidYMid"
       id="pattern14"
       inkscape:label="pattern14">
      <rect
         style="fill:url(#pattern15);stroke:none"
         width="145.16318"
         height="23.960762"
         x="0"
         y="0"
         id="rect13" />
    </pattern>
  </defs>
  <g
     inkscape:label="Layer 1"
     inkscape:groupmode="layer"
     id="layer1">
    <path
       style="fill:#b98bfe;fill-opacity:1;fill-rule:nonzero;stroke:#370188;stroke-width:1;stroke-dasharray:none;stroke-opacity:1"
       d="m 50.008876,73.464754 c 4.53063,-0.0809 6.12045,-2.469921 6.87684,-4.773337 1.01541,-3.092189 2.51522,-3.765484 3.96429,-0.970848 1.13266,2.184408 2.50803,0.647232 1.61809,-0.647233 -0.88995,-1.294464 -2.01439,-3.343899 -4.69244,-2.588928 -2.75551,0.776804 -1.53718,7.604979 -8.00949,7.443171"
       id="path68"
       sodipodi:nodetypes="cssssc" />
    <path
       style="fill:#b98bfe;fill-opacity:1;fill-rule:nonzero;stroke:#370188;stroke-width:1;stroke-dasharray:none;stroke-opacity:1"
       d="m 52.809916,58.21298 c 5.10121,1.676786 4.37052,4.718762 -0.921,3.495147"
       id="path61-9"
       sodipodi:nodetypes="cc" />
    <path
       style="fill:#b98bfe;fill-opacity:1;fill-rule:nonzero;stroke:#370188;stroke-width:1;stroke-dasharray:none;stroke-opacity:1"
       d="m 30.718446,58.344843 c -5.10121,1.676786 -4.37052,4.718762 0.921,3.495147"
       id="path61"
       sodipodi:nodetypes="cc" />
    <path
       style="fill:#b98bfe;fill-opacity:1;fill-rule:nonzero;stroke:#370188;stroke-width:1;stroke-dasharray:none;stroke-opacity:1"
       d="m 36.182776,53.572128 c -8.04179,-8.000159 -2.09653,-16.65638 5.93432,-16.354505 7.91054,0.297353 12.71512,9.189531 5.3572,16.332445 1.21394,7.864143 3.1749,22.212276 3.34838,32.968174 -0.51383,2.942774 -5.09001,2.827781 -5.42934,-0.452445 -0.33934,-3.280227 -4.41349,-3.760962 -4.59193,-0.0527 -0.15856,3.295119 -5.45225,3.280484 -5.58809,-0.06041 -0.79908,-5.496423 0.33478,-24.406126 0.96946,-32.380549 z"
       id="path49"
       sodipodi:nodetypes="csccssccc" />
    <path
       style="fill:#370188;fill-opacity:1;fill-rule:nonzero;stroke:#370188;stroke-width:1;stroke-dasharray:none;stroke-opacity:1"
       d="m 41.706896,48.060476 c 0.16768,0.0035 1.12528,-1.264042 1.04412,-1.4058 -0.0812,-0.141758 -1.92653,-0.199111 -2.03647,-0.04758 -0.10994,0.151531 0.82467,1.449922 0.99235,1.45338 z"
       id="path51"
       sodipodi:nodetypes="zzzz" />
    <path
       style="fill:#6002ee;fill-opacity:1;fill-rule:nonzero;stroke:#370188;stroke-width:1;stroke-dasharray:none;stroke-opacity:1"
       d="m 43.878326,47.12265 2.91164,0.553452"
       id="path52" />
    <path
       style="fill:#6002ee;fill-opacity:1;fill-rule:nonzero;stroke:#370188;stroke-width:1;stroke-dasharray:none;stroke-opacity:1"
       d="m 43.421126,48.422057 2.31006,1.155029"
       id="path53" />
    <path
       style="fill:#6002ee;fill-opacity:1;fill-rule:nonzero;stroke:#370188;stroke-width:1;stroke-dasharray:none;stroke-opacity:1"
       d="m 39.457276,47.08323 -2.91164,0.553452"
       id="path52-5" />
    <path
       style="fill:#6002ee;fill-opacity:1;fill-rule:nonzero;stroke:#370188;stroke-width:1;stroke-dasharray:none;stroke-opacity:1"
       d="m 39.914476,48.382637 -2.31006,1.155029"
       id="path53-5" />
    <path
       style="fill:#ee02ca;fill-opacity:1;fill-rule:nonzero;stroke:#370188;stroke-width:1;stroke-dasharray:none;stroke-opacity:1"
       d="m 33.557766,86.152482 8.37256,0.130098 1.03878,-4.897851 1.08049,4.879193 8.6141,-0.0324 -1.7976,-18.125305 -16.73835,0.09246 z"
       id="path55"
       sodipodi:nodetypes="cccccccc" />
    <path
       style="fill:#ee02ca;fill-opacity:1;fill-rule:nonzero;stroke:#370188;stroke-width:1;stroke-dasharray:none;stroke-opacity:1"
       d="m 47.484106,53.274727 5.3143,22.527094 -19.96806,-0.108566 3.03713,-22.309962 4.74081,1.326196 1.27572,2.374253 1.16941,-2.30338 z"
       id="path56"
       sodipodi:nodetypes="cccccccc" />
    <path
       style="fill:#ee02ca;fill-opacity:1;fill-rule:nonzero;stroke:#370188;stroke-width:1;stroke-dasharray:none;stroke-opacity:1"
       d="m 36.061266,55.26125 -5.52424,1.931554 1.08166,5.507888 4.28805,-0.965778"
       id="path57"
       sodipodi:nodetypes="cccc" />
    <path
       style="fill:#ee02ca;fill-opacity:1;fill-rule:nonzero;stroke:#370188;stroke-width:1;stroke-dasharray:none;stroke-opacity:1"
       d="m 47.593256,55.20357 5.52424,1.931554 -1.08166,5.507888 -4.28805,-0.965778"
       id="path57-4"
       sodipodi:nodetypes="cccc" />
    <path
       style="fill:#ee02ca;fill-opacity:1;fill-rule:nonzero;stroke:#370188;stroke-width:1;stroke-dasharray:none;stroke-opacity:1"
       d="m 35.854716,53.390919 -1.23297,1.890544 5.38395,1.643949 0.38143,-2.178585 z"
       id="path58"
       sodipodi:nodetypes="ccccc" />
    <path
       style="fill:#ee02ca;fill-opacity:1;fill-rule:nonzero;stroke:#370188;stroke-width:1;stroke-dasharray:none;stroke-opacity:1"
       d="m 43.322446,54.664981 4.16322,-1.397358 1.23296,2.027248 -4.72023,1.536804 z"
       id="path59"
       sodipodi:nodetypes="ccccc" />
    <path
       style="fill:#ffffff;fill-opacity:1;fill-rule:nonzero;stroke:#370188;stroke-width:1;stroke-dasharray:none;stroke-opacity:1"
       d="m 41.892956,56.617091 1e-5,18.845153"
       id="path60"
       sodipodi:nodetypes="cc" />
    <circle
       style="fill:#370188;fill-opacity:1;stroke:#370188;stroke-width:0.251322;stroke-opacity:1"
       id="path3-3-6-6-7"
       r="0.23797999"
       cy="70.714127"
       cx="43.541821"
       inkscape:transform-center-x="2.5473966"
       inkscape:transform-center-y="-7.9173349e-05" />
    <circle
       style="fill:#370188;fill-opacity:1;stroke:#370188;stroke-width:0.251322;stroke-opacity:1"
       id="path3-3-6-60-5"
       r="0.23797999"
       cy="73.635948"
       cx="43.469265"
       inkscape:transform-center-x="2.5474322"
       inkscape:transform-center-y="1.983531e-06" />
    <circle
       style="fill:#370188;fill-opacity:1;stroke:#370188;stroke-width:0.251322;stroke-opacity:1"
       id="path3-3-6-6-7-0"
       r="0.23797999"
       cy="65.042084"
       cx="43.449902"
       inkscape:transform-center-x="2.5473966"
       inkscape:transform-center-y="-7.9173349e-05" />
    <circle
       style="fill:#370188;fill-opacity:1;stroke:#370188;stroke-width:0.251322;stroke-opacity:1"
       id="path3-3-6-60-5-3"
       r="0.23797999"
       cy="67.880257"
       cx="43.516766"
       inkscape:transform-center-x="2.5474322"
       inkscape:transform-center-y="1.983531e-06" />
    <circle
       style="fill:#370188;fill-opacity:1;stroke:#370188;stroke-width:0.251322;stroke-opacity:1"
       id="path3-3-6-6-7-0-0"
       r="0.23797999"
       cy="59.177387"
       cx="43.421078"
       inkscape:transform-center-x="2.5473966"
       inkscape:transform-center-y="-7.9173349e-05" />
    <circle
       style="fill:#370188;fill-opacity:1;stroke:#370188;stroke-width:0.251322;stroke-opacity:1"
       id="path3-3-6-60-5-3-6"
       r="0.23797999"
       cy="62.182858"
       cx="43.432171"
       inkscape:transform-center-x="2.5474322"
       inkscape:transform-center-y="1.983531e-06" />
    <path
       style="fill:#ffffff;fill-opacity:1;fill-rule:nonzero;stroke:#370188;stroke-width:1;stroke-dasharray:none;stroke-opacity:1"
       d="m 36.331936,41.79295 c 0,0 3.0977,-0.379907 3.88674,0.467577 0.78904,0.847484 0.4968,3.302267 -1.11049,3.24382 -1.6073,-0.05845 -2.92237,-1.139721 -2.77625,-3.711397 z"
       id="path62" />
    <path
       style="fill:#ffffff;fill-opacity:1;fill-rule:nonzero;stroke:#370188;stroke-width:1;stroke-dasharray:none;stroke-opacity:1"
       d="m 47.042446,41.832104 c 0,0 -3.0977,-0.379907 -3.88674,0.467577 -0.78904,0.847484 -0.4968,3.302267 1.11049,3.24382 1.6073,-0.05845 2.92237,-1.139721 2.77625,-3.711397 z"
       id="path62-2" />
    <circle
       style="fill:#370188;fill-opacity:1;stroke:none;stroke-width:3.97515;stroke-dasharray:none;stroke-opacity:1"
       id="path9-5-7"
       cx="38.703121"
       cy="43.670334"
       r="0.83333331" />
    <circle
       style="fill:#370188;fill-opacity:1;stroke:none;stroke-width:3.97515;stroke-dasharray:none;stroke-opacity:1"
       id="path9-5-7-6"
       cx="44.707302"
       cy="43.700768"
       r="0.83333331" />
    <path
       style="fill:#ffffff;fill-opacity:1;fill-rule:nonzero;stroke:#370188;stroke-width:1;stroke-dasharray:none;stroke-opacity:1"
       d="m 36.269446,42.489186 -2.54966,-0.569925"
       id="path63" />
    <path
       style="fill:#ffffff;fill-opacity:1;fill-rule:nonzero;stroke:#370188;stroke-width:1;stroke-dasharray:none;stroke-opacity:1"
       d="m 47.098026,42.609171 2.69964,-0.53993"
       id="path64" />
    <path
       style="fill:#ffffff;fill-opacity:1;fill-rule:nonzero;stroke:#370188;stroke-width:1;stroke-dasharray:none;stroke-opacity:1"
       d="m 40.528886,43.239088 c 0.26996,-0.479937 1.82976,-0.569925 2.3097,-0.08999"
       id="path65" />
    <path
       style="fill:#b98bfe;fill-opacity:1;fill-rule:nonzero;stroke:#370188;stroke-width:1;stroke-dasharray:none;stroke-opacity:1"
       d="m 47.382706,39.992182 c 0,0 0.41363,-4.13038 -0.29487,-4.42243 -0.7085,-0.29205 -3.36946,3.200997 -3.36946,3.200997"
       id="path66-0"
       sodipodi:nodetypes="czc" />
    <path
       style="fill:#b98bfe;fill-opacity:1;fill-rule:nonzero;stroke:#370188;stroke-width:1;stroke-dasharray:none;stroke-opacity:1"
       d="m 35.639676,40.031983 c 0,0 -0.41363,-4.13038 0.29487,-4.42243 0.7085,-0.29205 3.36946,3.200997 3.36946,3.200997"
       id="path66-0-3"
       sodipodi:nodetypes="czc" />
    <path
       style="fill:none;fill-opacity:1;fill-rule:nonzero;stroke:#370188;stroke-width:1;stroke-dasharray:none;stroke-opacity:1"
       d="m 43.054566,81.762421 1.26106,0.07741 -0.874,-4.567243"
       id="path78"
       sodipodi:nodetypes="ccc" />
    <path
       style="fill:#b98bfe;fill-opacity:1;fill-rule:nonzero;stroke:#370188;stroke-width:1;stroke-dasharray:none;stroke-opacity:1"
       d="m 58.037086,133.73581 c 5.101209,1.67678 4.370519,4.71876 -0.921002,3.49514"
       id="path61-9-9"
       sodipodi:nodetypes="cc" />
    <path
       style="fill:#b98bfe;fill-opacity:1;fill-rule:nonzero;stroke:#370188;stroke-width:1;stroke-dasharray:none;stroke-opacity:1"
       d="m 35.945615,133.86767 c -5.101211,1.67679 -4.370521,4.71876 0.921001,3.49515"
       id="path61-8"
       sodipodi:nodetypes="cc" />
    <path
       style="fill:#b98bfe;fill-opacity:1;fill-rule:nonzero;stroke:#370188;stroke-width:1;stroke-dasharray:none;stroke-opacity:1"
       d="m 41.409946,129.09496 c -8.041793,-8.00016 -2.09653,-16.65638 5.934318,-16.35451 7.910541,0.29735 12.715121,9.18953 5.3572,16.33245 1.21394,7.86414 3.174901,22.21227 3.348381,32.96817 -0.51383,2.94277 -5.09001,2.82778 -5.429339,-0.45245 -0.339341,-3.28022 -4.41349,-3.76096 -4.59193,-0.0527 -0.158561,3.29512 -5.452249,3.28049 -5.588092,-0.0604 -0.79908,-5.49642 0.334781,-24.40612 0.969462,-32.38054 z"
       id="path49-3"
       sodipodi:nodetypes="csccssccc" />
    <path
       style="fill:#ee02ca;fill-opacity:1;fill-rule:nonzero;stroke:#370188;stroke-width:1;stroke-dasharray:none;stroke-opacity:1"
       d="m 38.784935,161.67531 8.37256,0.1301 1.038781,-4.89786 1.080489,4.8792 8.6141,-0.0324 -1.7976,-18.12531 -16.738349,0.0925 z"
       id="path55-0"
       sodipodi:nodetypes="cccccccc" />
    <path
       style="fill:#ee02ca;fill-opacity:1;fill-rule:nonzero;stroke:#370188;stroke-width:1;stroke-dasharray:none;stroke-opacity:1"
       d="m 52.711275,128.79755 5.314299,22.5271 -19.96806,-0.10857 3.037131,-22.30996 4.740809,1.3262 2.445131,0.0709 z"
       id="path56-9"
       sodipodi:nodetypes="ccccccc" />
    <path
       style="fill:#ee02ca;fill-opacity:1;fill-rule:nonzero;stroke:#370188;stroke-width:1;stroke-dasharray:none;stroke-opacity:1"
       d="m 41.288434,130.78408 -5.52424,1.93155 1.08166,5.50789 4.288051,-0.96578"
       id="path57-7"
       sodipodi:nodetypes="cccc" />
    <path
       style="fill:#ee02ca;fill-opacity:1;fill-rule:nonzero;stroke:#370188;stroke-width:1;stroke-dasharray:none;stroke-opacity:1"
       d="m 52.820424,130.7264 5.52424,1.93155 -1.08166,5.50789 -4.28805,-0.96578"
       id="path57-4-1"
       sodipodi:nodetypes="cccc" />
    <path
       style="fill:#ee02ca;fill-opacity:1;fill-rule:nonzero;stroke:#370188;stroke-width:1;stroke-dasharray:none;stroke-opacity:1"
       d="m 41.081886,128.91375 -1.23297,1.89054 c 5.270356,1.92576 9.009615,1.78358 13.877115,-0.0306 l -0.966063,-1.99011 c -4.229175,1.38535 -8.096898,1.39984 -11.678082,0.13015 z"
       id="path58-8"
       sodipodi:nodetypes="ccccc" />
    <path
       style="fill:#b98bfe;fill-opacity:1;fill-rule:nonzero;stroke:#370188;stroke-width:1;stroke-dasharray:none;stroke-opacity:1"
       d="m 52.609876,115.51501 c 0,0 0.413629,-4.13038 -0.294872,-4.42243 -0.708498,-0.29205 -3.369458,3.201 -3.369458,3.201"
       id="path66-0-5"
       sodipodi:nodetypes="czc" />
    <path
       style="fill:#b98bfe;fill-opacity:1;fill-rule:nonzero;stroke:#370188;stroke-width:1;stroke-dasharray:none;stroke-opacity:1"
       d="m 40.866846,115.55481 c 0,0 -0.413631,-4.13038 0.29487,-4.42243 0.7085,-0.29205 3.369458,3.201 3.369458,3.201"
       id="path66-0-3-0"
       sodipodi:nodetypes="czc" />
    <path
       style="fill:#b98bfe;fill-opacity:1;fill-rule:nonzero;stroke:#370188;stroke-width:1;stroke-dasharray:none;stroke-opacity:1"
       d="m 48.692286,152.69118 c 6.472308,0.16181 5.253981,-6.66636 8.00949,-7.44317 2.67805,-0.75497 3.802491,1.29447 4.69244,2.58893 0.889941,1.29447 -0.485429,2.83164 -1.618091,0.64724 -1.449071,-2.79464 -2.948879,-2.12135 -3.96429,0.97084 -0.75639,2.30342 -2.346211,4.69244 -6.876841,4.77334 -0.961562,-0.1452 -1.195382,-1.22414 -0.242708,-1.53718 z"
       id="path68-4"
       sodipodi:nodetypes="csssscc" />
  </g>
</svg>
