<?xml version="1.0" encoding="UTF-8" standalone="no"?>
<!-- Created with Inkscape (http://www.inkscape.org/) -->

<svg
   width="6480"
   height="3240"
   viewBox="0 0 540 270"
   version="1.1"
   id="svg1"
   inkscape:version="1.4 (e7c3feb1, 2024-10-09)"
   sodipodi:docname="chick-versions.svg"
   xmlns:inkscape="http://www.inkscape.org/namespaces/inkscape"
   xmlns:sodipodi="http://sodipodi.sourceforge.net/DTD/sodipodi-0.dtd"
   xmlns:xlink="http://www.w3.org/1999/xlink"
   xmlns="http://www.w3.org/2000/svg"
   xmlns:svg="http://www.w3.org/2000/svg">
  <sodipodi:namedview
     id="namedview1"
     pagecolor="#ffffff"
     bordercolor="#000000"
     borderopacity="0.25"
     inkscape:showpageshadow="2"
     inkscape:pageopacity="0.0"
     inkscape:pagecheckerboard="0"
     inkscape:deskcolor="#d1d1d1"
     inkscape:document-units="px"
     inkscape:zoom="0.63816171"
     inkscape:cx="579.79034"
     inkscape:cy="1441.6409"
     inkscape:window-width="1728"
     inkscape:window-height="1057"
     inkscape:window-x="0"
     inkscape:window-y="32"
     inkscape:window-maximized="0"
     inkscape:current-layer="layer1"
     showguides="true"
     showgrid="false">
    <sodipodi:guide
       position="-112.46061,89.999674"
       orientation="0,-1"
       id="guide1"
       inkscape:locked="false" />
    <sodipodi:guide
       position="90,187.3597"
       orientation="1,0"
       id="guide2"
       inkscape:locked="false" />
    <sodipodi:guide
       position="0,209.35185"
       orientation="1,0"
       id="guide3"
       inkscape:locked="false" />
    <sodipodi:guide
       position="-10.710286,180"
       orientation="0,-1"
       id="guide4"
       inkscape:locked="false" />
    <sodipodi:guide
       position="180.00033,187.53841"
       orientation="1,0"
       id="guide5"
       inkscape:locked="false" />
    <sodipodi:guide
       position="269.96329,208.01051"
       orientation="1,0"
       id="guide6"
       inkscape:locked="false" />
    <sodipodi:guide
       position="360.00033,216.23047"
       orientation="1,0"
       id="guide7"
       inkscape:locked="false" />
    <sodipodi:guide
       position="449.99999,193.05214"
       orientation="1,0"
       id="guide8"
       inkscape:locked="false" />
    <sodipodi:guide
       position="-7.3948568,89.999674"
       orientation="0,-1"
       id="guide9"
       inkscape:locked="false" />
  </sodipodi:namedview>
  <defs
     id="defs1">
    <linearGradient
       id="swatch44"
       inkscape:swatch="solid">
      <stop
         style="stop-color:#ff80f1;stop-opacity:1;"
         offset="0"
         id="stop44" />
    </linearGradient>
    <linearGradient
       id="swatch43">
      <stop
         style="stop-color:#ff80f1;stop-opacity:1;"
         offset="0"
         id="stop43" />
    </linearGradient>
    <pattern
       inkscape:collect="always"
       xlink:href="#pattern12"
       preserveAspectRatio="xMidYMid"
       id="pattern15"
       patternTransform="translate(-4.2089842e-6,-2.1347655e-5)" />
    <pattern
       inkscape:collect="always"
       xlink:href="#pattern11"
       preserveAspectRatio="xMidYMid"
       id="pattern13"
       patternTransform="translate(-4.2089842e-6,-1.1347656e-5)" />
    <pattern
       patternUnits="userSpaceOnUse"
       width="145.16318"
       height="23.960763"
       patternTransform="translate(194.64706,528.93462)"
       preserveAspectRatio="xMidYMid"
       id="pattern11">
      <rect
         style="fill:#ffffff;stroke:#6002ee;stroke-width:12;stroke-dasharray:none"
         id="rect11-6"
         width="133.16318"
         height="11.960763"
         x="6"
         y="6"
         rx="17.999998" />
    </pattern>
    <pattern
       patternUnits="userSpaceOnUse"
       width="145.16317"
       height="23.960763"
       patternTransform="translate(194.64706,528.93461)"
       preserveAspectRatio="xMidYMid"
       id="pattern12">
      <rect
         style="fill:url(#pattern13);stroke:none"
         width="145.16318"
         height="23.960762"
         x="0"
         y="0"
         id="rect12" />
    </pattern>
    <pattern
       patternUnits="userSpaceOnUse"
       width="145.16317"
       height="23.960763"
       patternTransform="translate(194.64706,528.93461)"
       preserveAspectRatio="xMidYMid"
       id="pattern14"
       inkscape:label="pattern14">
      <rect
         style="fill:url(#pattern15);stroke:none"
         width="145.16318"
         height="23.960762"
         x="0"
         y="0"
         id="rect13" />
    </pattern>
  </defs>
  <g
     inkscape:label="Layer 1"
     inkscape:groupmode="layer"
     id="layer1">
    <path
       style="fill:#018816;fill-opacity:1;stroke:#370188;stroke-width:1;stroke-dasharray:none;stroke-opacity:1"
       d="m 40.908448,57.40393 -0.77109,11.23105 16.22635,0.43583 -0.63699,-12.47149 z"
       id="path25-4" />
    <path
       style="fill:#ffffff;fill-opacity:1;stroke:#370188;stroke-width:1;stroke-dasharray:none;stroke-opacity:1"
       d="m 35.660808,60.06466 c 0,4.98667 2.23911,8.48132 5.37711,10.48397 0.74661,0.47648 1.54412,0.86851 2.37446,1.17607 7.34382,2.72017 17.25609,-1.1665 17.24843,-11.66004 l -4.74584,4.88414 -4.77206,-2.07121 -6.28584,2.94248 -3.38752,-3.68218 -2.67408,1.62003 z"
       id="path1-8"
       sodipodi:nodetypes="cssccccccc" />
    <path
       style="fill:#370189;fill-opacity:1;stroke:#370188;stroke-width:0;stroke-dasharray:none;stroke-opacity:1"
       d="m 43.197188,71.19409 -1.20533,-1.66066 1.59722,0.74132 0.41772,-1.23715 0.11868,1.30461 1.31338,-1.0076 -0.81054,1.50074 1.774,0.17212 -1.16309,0.91307 z"
       id="path3-2"
       sodipodi:nodetypes="cccccccccc" />
    <path
       style="fill:#370189;fill-opacity:1;stroke:#370188;stroke-width:0;stroke-dasharray:none;stroke-opacity:1"
       d="m 53.006548,71.36302 0.95594,-1.67819 -1.49465,0.83643 -0.12858,-1.25945 -0.38924,1.41479 -1.48808,-0.43049 1.07383,1.00009 -1.50608,0.34097 1.41811,0.71879 z"
       id="path3-1-5"
       sodipodi:nodetypes="cccccccccc" />
    <path
       style="fill:#ee4302;fill-opacity:1;stroke:#370188;stroke-width:1;stroke-dasharray:none;stroke-opacity:1"
       d="m 43.384378,71.61301 c -0.0286,0.26078 -0.0349,3.42654 -0.0349,3.42654 l -2.41194,1.26434 2.88834,-0.48848 0.23397,0.28643 0.22056,-0.29385 2.75669,0.44591 -2.18141,-1.16894 c 0,0 0.0221,-2.82923 0.004,-2.86749 z"
       id="path7-8"
       sodipodi:nodetypes="cccccccccc" />
    <path
       style="fill:#ee4302;fill-opacity:1;stroke:#370188;stroke-width:1;stroke-dasharray:none;stroke-opacity:1"
       d="m 52.845338,71.3806 0.1071,3.97067 2.4791,0.84762 -3.14315,-0.45769 -0.23397,0.28643 -0.22057,-0.29385 -2.85865,0.37838 2.33646,-0.97738 c 0,0 0.0524,-2.89856 0.0566,-2.95874 z"
       id="path7-4-0"
       sodipodi:nodetypes="cccccccccc" />
    <path
       style="fill:none;fill-opacity:1;stroke:#370188;stroke-width:1;stroke-dasharray:none;stroke-opacity:1"
       d="m 43.541278,63.95391 1.23015,-2.98536 7.02534,-0.0167 0.96218,2.42215"
       id="path19-60"
       sodipodi:nodetypes="cccc" />
    <path
       style="fill:#fdc458;fill-opacity:1;stroke:#370188;stroke-width:1;stroke-dasharray:none;stroke-opacity:1"
       d="m 39.873878,54.27127 c 0,0 -12.11741,8.57031 2.19093,4.90971 z"
       id="path17-0"
       sodipodi:nodetypes="ccc" />
    <path
       style="fill:#fdc458;fill-opacity:1;stroke:#370188;stroke-width:1;stroke-dasharray:none;stroke-opacity:1"
       d="m 57.591208,54.59848 c 0,0 10.80387,6.67428 -2.37316,4.85776 z"
       id="path16-7"
       sodipodi:nodetypes="ccc" />
    <path
       style="fill:#fdc458;fill-opacity:1;stroke:#370188;stroke-width:1;stroke-dasharray:none;stroke-opacity:1"
       d="m 53.300848,49.93696 c 5.48849,-12.26517 -15.63176,-12.07721 -10.26504,0.2026 l 4.9111,2.4241 z"
       id="path23-5"
       sodipodi:nodetypes="cccc" />
    <path
       style="fill:#018816;fill-opacity:1;stroke:#370188;stroke-width:1;stroke-dasharray:none;stroke-opacity:1"
       d="m 42.708138,59.21654 -3.08671,1.27471 -2.08551,-6.02746 4.25906,-1.72112 -0.0963,-3.17817 6.26002,3.01698 6.45263,-3.3059 v 2.69662 l 4.51092,2.448 -2.07581,5.88694 -3.00198,-1.21523"
       id="path12-0"
       sodipodi:nodetypes="ccccccccccc" />
    <circle
       style="fill:#370188;fill-opacity:1;stroke:none;stroke-width:2.56223;stroke-dasharray:none;stroke-opacity:1"
       id="path9-8"
       cx="46.289551"
       cy="45.224213"
       r="0.53713524" />
    <circle
       style="fill:#370188;fill-opacity:1;stroke:none;stroke-width:2.56223;stroke-dasharray:none;stroke-opacity:1"
       id="path9-4"
       cx="50.225494"
       cy="45.251022"
       r="0.53713524" />
    <path
       style="fill:none;fill-opacity:1;stroke:#370188;stroke-width:1;stroke-dasharray:none;stroke-opacity:1"
       d="m 41.698878,52.6792 6.25982,1.41178 6.61301,-2.0539"
       id="path22-1"
       sodipodi:nodetypes="ccc" />
    <path
       style="fill:none;fill-opacity:1;stroke:#370188;stroke-width:1;stroke-dasharray:none;stroke-opacity:1"
       d="m 45.066858,52.38095 -1.0624,6.39578"
       id="path10-79"
       sodipodi:nodetypes="cc" />
    <path
       style="fill:none;fill-opacity:1;stroke:#370188;stroke-width:1;stroke-dasharray:none;stroke-opacity:1"
       d="m 50.559738,52.22145 0.78776,6.60705"
       id="path11-71"
       sodipodi:nodetypes="cc" />
    <path
       style="fill:none;fill-opacity:1;stroke:#370188;stroke-width:1;stroke-dasharray:none;stroke-opacity:1"
       d="m 47.850058,46.83923 1.88433,0.97465 -2.27419,1.03964"
       id="path24-70" />
    <path
       style="fill:none;fill-opacity:1;stroke:#370188;stroke-width:1;stroke-dasharray:none;stroke-opacity:1"
       d="m 48.201018,41.46336 c 1.70278,-1.48306 -1.59291,-1.59292 0.16479,-2.80134"
       id="path26-0"
       sodipodi:nodetypes="cc" />
    <path
       style="fill:#018816;fill-opacity:1;stroke:#370188;stroke-width:1;stroke-dasharray:none;stroke-opacity:1"
       d="m 130.90845,60.737264 -0.77109,11.23105 16.22635,0.43583 -0.63699,-12.47149 z"
       id="path25-4-0" />
    <path
       style="fill:#ffffff;fill-opacity:1;stroke:#370188;stroke-width:1;stroke-dasharray:none;stroke-opacity:1"
       d="m 125.66081,63.397994 c 0,4.98667 2.23911,8.48132 5.37711,10.48397 0.74661,0.47648 1.54412,0.86851 2.37446,1.17607 7.34382,2.72017 17.25609,-1.1665 17.24843,-11.66004 l -4.74584,4.88414 -4.77206,-2.07121 -6.28584,2.94248 -3.38752,-3.68218 -2.67408,1.62003 z"
       id="path1-8-5"
       sodipodi:nodetypes="cssccccccc" />
    <path
       style="fill:#370189;fill-opacity:1;stroke:#370188;stroke-width:0;stroke-dasharray:none;stroke-opacity:1"
       d="m 133.19719,74.527424 -1.20533,-1.66066 1.59722,0.74132 0.41772,-1.23715 0.11868,1.30461 1.31338,-1.0076 -0.81054,1.50074 1.774,0.17212 -1.16309,0.91307 z"
       id="path3-2-0"
       sodipodi:nodetypes="cccccccccc" />
    <path
       style="fill:#370189;fill-opacity:1;stroke:#370188;stroke-width:0;stroke-dasharray:none;stroke-opacity:1"
       d="m 143.00655,74.696354 0.95594,-1.67819 -1.49465,0.83643 -0.12858,-1.25945 -0.38924,1.41479 -1.48808,-0.43049 1.07383,1.00009 -1.50608,0.34097 1.41811,0.71879 z"
       id="path3-1-5-5"
       sodipodi:nodetypes="cccccccccc" />
    <path
       style="fill:#ee4302;fill-opacity:1;stroke:#370188;stroke-width:1;stroke-dasharray:none;stroke-opacity:1"
       d="m 133.38438,74.946344 c -0.0286,0.26078 -0.0349,3.42654 -0.0349,3.42654 l -2.41194,1.26434 2.88834,-0.48848 0.23397,0.28643 0.22056,-0.29385 2.75669,0.44591 -2.18141,-1.16894 c 0,0 0.0221,-2.82923 0.004,-2.86749 z"
       id="path7-8-7"
       sodipodi:nodetypes="cccccccccc" />
    <path
       style="fill:#ee4302;fill-opacity:1;stroke:#370188;stroke-width:1;stroke-dasharray:none;stroke-opacity:1"
       d="m 142.84534,74.713934 0.1071,3.97067 2.4791,0.84762 -3.14315,-0.45769 -0.23397,0.28643 -0.22057,-0.29385 -2.85865,0.37838 2.33646,-0.97738 c 0,0 0.0524,-2.89856 0.0566,-2.95874 z"
       id="path7-4-0-4"
       sodipodi:nodetypes="cccccccccc" />
    <path
       style="fill:none;fill-opacity:1;stroke:#370188;stroke-width:1;stroke-dasharray:none;stroke-opacity:1"
       d="m 133.54128,67.287244 1.23015,-2.98536 7.02534,-0.0167 0.96218,2.42215"
       id="path19-60-8"
       sodipodi:nodetypes="cccc" />
    <path
       style="fill:#fdc458;fill-opacity:1;stroke:#370188;stroke-width:1;stroke-dasharray:none;stroke-opacity:1"
       d="m 129.87388,57.604604 c 0,0 -12.11741,8.57031 2.19093,4.90971 z"
       id="path17-0-0"
       sodipodi:nodetypes="ccc" />
    <path
       style="fill:#fdc458;fill-opacity:1;stroke:#370188;stroke-width:1;stroke-dasharray:none;stroke-opacity:1"
       d="m 147.59121,57.931814 c 0,0 10.80387,6.67428 -2.37316,4.85776 z"
       id="path16-7-6"
       sodipodi:nodetypes="ccc" />
    <path
       style="fill:#fdc458;fill-opacity:1;stroke:#370188;stroke-width:1;stroke-dasharray:none;stroke-opacity:1"
       d="m 143.30085,53.270294 c 5.48849,-12.26517 -15.63176,-12.07721 -10.26504,0.2026 l 4.9111,2.4241 z"
       id="path23-5-0"
       sodipodi:nodetypes="cccc" />
    <path
       style="fill:#018816;fill-opacity:1;stroke:#370188;stroke-width:1;stroke-dasharray:none;stroke-opacity:1"
       d="m 132.70814,62.549874 -3.08671,1.27471 -2.08551,-6.02746 4.25906,-1.72112 -0.0963,-3.17817 6.26002,3.01698 6.45263,-3.3059 v 2.69662 l 4.51092,2.448 -2.07581,5.88694 -3.00198,-1.21523"
       id="path12-0-59"
       sodipodi:nodetypes="ccccccccccc" />
    <path
       style="fill:none;fill-opacity:1;stroke:#370188;stroke-width:1;stroke-dasharray:none;stroke-opacity:1"
       d="m 131.69888,56.012534 6.25982,1.41178 6.61301,-2.0539"
       id="path22-1-3"
       sodipodi:nodetypes="ccc" />
    <path
       style="fill:none;fill-opacity:1;stroke:#370188;stroke-width:1;stroke-dasharray:none;stroke-opacity:1"
       d="m 135.06686,55.714284 -1.0624,6.39578"
       id="path10-79-76"
       sodipodi:nodetypes="cc" />
    <path
       style="fill:none;fill-opacity:1;stroke:#370188;stroke-width:1;stroke-dasharray:none;stroke-opacity:1"
       d="m 140.55974,55.554784 0.78776,6.60705"
       id="path11-71-2"
       sodipodi:nodetypes="cc" />
    <path
       style="fill:none;fill-opacity:1;stroke:#370188;stroke-width:1;stroke-dasharray:none;stroke-opacity:1"
       d="m 137.85006,50.172564 1.88433,0.97465 -2.27419,1.03964"
       id="path24-70-98" />
    <path
       style="fill:none;fill-opacity:1;stroke:#370188;stroke-width:1;stroke-dasharray:none;stroke-opacity:1"
       d="m 138.20102,44.796694 c 1.70278,-1.48306 -1.59291,-1.59292 0.16479,-2.80134"
       id="path26-0-5"
       sodipodi:nodetypes="cc" />
    <path
       style="fill:#018816;fill-opacity:1;stroke:#370188;stroke-width:1;stroke-dasharray:none;stroke-opacity:1"
       d="m 216.99178,58.235116 -0.77109,11.231049 16.22635,0.43583 -0.63699,-12.47149 z"
       id="path25-4-7" />
    <path
       style="fill:#ffffff;fill-opacity:1;stroke:#370188;stroke-width:1;stroke-dasharray:none;stroke-opacity:1"
       d="m 211.74414,60.895844 c 0,4.986671 2.23911,8.48132 5.37711,10.483972 0.74661,0.476478 1.54412,0.86851 2.37446,1.176069 7.34382,2.72017 17.25609,-1.166501 17.24843,-11.660041 l -4.74584,4.884142 -4.77206,-2.07121 -6.28584,2.942479 -3.38752,-3.68218 -2.67408,1.620029 z"
       id="path1-8-8"
       sodipodi:nodetypes="cssccccccc" />
    <path
       style="fill:#370189;fill-opacity:1;stroke:#370188;stroke-width:0;stroke-dasharray:none;stroke-opacity:1"
       d="m 219.28052,72.025274 -1.20533,-1.660658 1.59722,0.741319 0.41772,-1.237149 0.11868,1.304607 1.31338,-1.0076 -0.81054,1.500741 1.774,0.172122 -1.16309,0.913068 z"
       id="path3-2-6"
       sodipodi:nodetypes="cccccccccc" />
    <path
       style="fill:#370189;fill-opacity:1;stroke:#370188;stroke-width:0;stroke-dasharray:none;stroke-opacity:1"
       d="m 229.08988,72.194206 0.95594,-1.678192 -1.49465,0.836431 -0.12858,-1.259452 -0.38924,1.414791 -1.48808,-0.430488 1.07383,1.000088 -1.50608,0.34097 1.41811,0.718791 z"
       id="path3-1-5-6"
       sodipodi:nodetypes="cccccccccc" />
    <path
       style="fill:#ee4302;fill-opacity:1;stroke:#370188;stroke-width:1;stroke-dasharray:none;stroke-opacity:1"
       d="m 219.46771,72.444193 c -0.0286,0.260782 -0.0349,3.426542 -0.0349,3.426542 l -2.41194,1.26434 2.88834,-0.488482 0.23397,0.286432 0.22056,-0.293849 2.75669,0.445909 -2.18141,-1.168939 c 0,0 0.0221,-2.829231 0.004,-2.86749 z"
       id="path7-8-0"
       sodipodi:nodetypes="cccccccccc" />
    <path
       style="fill:#ee4302;fill-opacity:1;stroke:#370188;stroke-width:1;stroke-dasharray:none;stroke-opacity:1"
       d="m 228.92867,72.211784 0.1071,3.970671 2.4791,0.847619 -3.14315,-0.457688 -0.23397,0.286428 -0.22057,-0.293849 -2.85865,0.378381 2.33646,-0.977382 c 0,0 0.0524,-2.898558 0.0566,-2.958741 z"
       id="path7-4-0-6"
       sodipodi:nodetypes="cccccccccc" />
    <path
       style="fill:none;fill-opacity:1;stroke:#370188;stroke-width:1;stroke-dasharray:none;stroke-opacity:1"
       d="m 219.62461,64.785094 1.23015,-2.985357 7.02534,-0.01669 0.96218,2.422151"
       id="path19-60-5"
       sodipodi:nodetypes="cccc" />
    <path
       style="fill:#fdc458;fill-opacity:1;stroke:#370188;stroke-width:1;stroke-dasharray:none;stroke-opacity:1"
       d="m 215.95721,55.102455 c 0,0 -12.11741,8.570312 2.19093,4.90971 z"
       id="path17-0-7"
       sodipodi:nodetypes="ccc" />
    <path
       style="fill:#fdc458;fill-opacity:1;stroke:#370188;stroke-width:1;stroke-dasharray:none;stroke-opacity:1"
       d="m 233.67454,55.429664 c 0,0 10.80387,6.674281 -2.37316,4.857761 z"
       id="path16-7-9"
       sodipodi:nodetypes="ccc" />
    <path
       style="fill:#fdc458;fill-opacity:1;stroke:#370188;stroke-width:1;stroke-dasharray:none;stroke-opacity:1"
       d="m 229.38418,50.768146 c 5.48849,-12.265171 -15.63176,-12.077209 -10.26504,0.202599 l 4.9111,2.4241 z"
       id="path23-5-3"
       sodipodi:nodetypes="cccc" />
    <path
       style="fill:#018816;fill-opacity:1;stroke:#370188;stroke-width:1;stroke-dasharray:none;stroke-opacity:1"
       d="m 218.79147,60.047724 -3.08671,1.274712 -2.08551,-6.027461 4.25906,-1.721119 -0.0963,-3.17817 6.26002,3.01698 6.45263,-3.305899 v 2.696617 l 4.51092,2.448 -2.07581,5.886942 -3.00198,-1.215232"
       id="path12-0-5"
       sodipodi:nodetypes="ccccccccccc" />
    <path
       style="fill:#370188;fill-opacity:1;stroke:none;stroke-width:2.56223;stroke-dasharray:none;stroke-opacity:1"
       id="path9-8-0"
       sodipodi:type="arc"
       sodipodi:cx="222.37288"
       sodipodi:cy="46.055401"
       sodipodi:rx="0.53713524"
       sodipodi:ry="0.53713524"
       sodipodi:start="5.9341195"
       sodipodi:end="3.4906585"
       sodipodi:arc-type="chord"
       d="m 222.87762,45.87169 a 0.53713524,0.53713524 0 0 1 -0.18399,0.614559 0.53713524,0.53713524 0 0 1 -0.64151,0 0.53713524,0.53713524 0 0 1 -0.18398,-0.614559 z"
       sodipodi:open="true" />
    <path
       style="fill:none;fill-opacity:1;stroke:#370188;stroke-width:1;stroke-dasharray:none;stroke-opacity:1"
       d="m 217.78221,53.510386 6.25982,1.411779 6.61301,-2.053899"
       id="path22-1-6"
       sodipodi:nodetypes="ccc" />
    <path
       style="fill:none;fill-opacity:1;stroke:#370188;stroke-width:1;stroke-dasharray:none;stroke-opacity:1"
       d="m 221.15019,53.212137 -1.0624,6.395779"
       id="path10-79-7"
       sodipodi:nodetypes="cc" />
    <path
       style="fill:none;fill-opacity:1;stroke:#370188;stroke-width:1;stroke-dasharray:none;stroke-opacity:1"
       d="m 226.64307,53.052634 0.78776,6.607052"
       id="path11-71-1"
       sodipodi:nodetypes="cc" />
    <path
       style="fill:none;fill-opacity:1;stroke:#370188;stroke-width:1;stroke-dasharray:none;stroke-opacity:1"
       d="m 225.02858,47.670417 -1.88433,0.974649 2.27419,1.039641"
       id="path24-70-9" />
    <path
       style="fill:none;fill-opacity:1;stroke:#370188;stroke-width:1;stroke-dasharray:none;stroke-opacity:1"
       d="m 224.28435,42.294546 c 1.70278,-1.483061 -1.59291,-1.592919 0.16479,-2.801342"
       id="path26-0-0"
       sodipodi:nodetypes="cc" />
    <path
       style="fill:#370188;fill-opacity:1;stroke:#370188;stroke-width:0.25;stroke-linecap:butt;stroke-dasharray:none;stroke-opacity:1"
       d="m 221.27705,45.843346 2.1348,-0.01383"
       id="path18-6"
       sodipodi:nodetypes="cc" />
    <path
       style="fill:#370188;fill-opacity:1;stroke:none;stroke-width:2.56223;stroke-dasharray:none;stroke-opacity:1"
       id="path9-8-4"
       sodipodi:type="arc"
       sodipodi:cx="226.31453"
       sodipodi:cy="46.06131"
       sodipodi:rx="0.53713524"
       sodipodi:ry="0.53713524"
       sodipodi:start="5.9341195"
       sodipodi:end="3.4906585"
       sodipodi:arc-type="chord"
       d="m 226.81927,45.877599 a 0.53713524,0.53713524 0 0 1 -0.18399,0.614559 0.53713524,0.53713524 0 0 1 -0.64151,0 0.53713524,0.53713524 0 0 1 -0.18398,-0.614559 z"
       sodipodi:open="true" />
    <path
       style="fill:#370188;fill-opacity:1;stroke:#370188;stroke-width:0.25;stroke-linecap:butt;stroke-dasharray:none;stroke-opacity:1"
       d="m 225.2187,45.849255 2.1348,-0.01383"
       id="path18-6-1"
       sodipodi:nodetypes="cc" />
    <path
       style="fill:none;stroke:#370188;stroke-width:1"
       d="m 135.37122,48.573648 c 0.12602,-0.968159 1.49259,-1.001392 1.78563,-0.07356"
       id="path1"
       sodipodi:nodetypes="cc" />
    <path
       style="fill:none;stroke:#370188;stroke-width:1"
       d="m 139.37067,48.539801 c 0.12602,-0.968159 1.49259,-1.001392 1.78563,-0.07356"
       id="path1-0"
       sodipodi:nodetypes="cc" />
    <path
       style="fill:#018816;fill-opacity:1;stroke:#370188;stroke-width:1;stroke-dasharray:none;stroke-opacity:1"
       d="m 37.249725,135.10502 -0.77109,11.23105 16.22635,0.43583 -0.63699,-12.47149 z"
       id="path25-4-4" />
    <path
       style="fill:#ffffff;fill-opacity:1;stroke:#370188;stroke-width:1;stroke-dasharray:none;stroke-opacity:1"
       d="m 32.002085,137.76575 c 0,4.98667 2.23911,8.48132 5.37711,10.48397 0.74661,0.47648 1.54412,0.86851 2.37446,1.17607 7.34382,2.72017 17.25609,-1.1665 17.248429,-11.66004 l -4.745839,4.88414 -4.77206,-2.07121 -6.28584,2.94248 -3.38752,-3.68218 -2.67408,1.62003 z"
       id="path1-8-4"
       sodipodi:nodetypes="cssccccccc" />
    <path
       style="fill:#370189;fill-opacity:1;stroke:#370188;stroke-width:0;stroke-dasharray:none;stroke-opacity:1"
       d="m 39.538465,148.89518 -1.20533,-1.66066 1.59722,0.74132 0.41772,-1.23715 0.11868,1.30461 1.31338,-1.0076 -0.81054,1.50074 1.774,0.17212 -1.16309,0.91307 z"
       id="path3-2-7"
       sodipodi:nodetypes="cccccccccc" />
    <path
       style="fill:#370189;fill-opacity:1;stroke:#370188;stroke-width:0;stroke-dasharray:none;stroke-opacity:1"
       d="m 49.347825,149.06411 0.95594,-1.67819 -1.49465,0.83643 -0.12858,-1.25945 -0.38924,1.41479 -1.48808,-0.43049 1.07383,1.00009 -1.50608,0.34097 1.41811,0.71879 z"
       id="path3-1-5-8"
       sodipodi:nodetypes="cccccccccc" />
    <path
       style="fill:#ee4302;fill-opacity:1;stroke:#370188;stroke-width:1;stroke-dasharray:none;stroke-opacity:1"
       d="m 39.725655,149.3141 c -0.0286,0.26078 -0.0349,3.42654 -0.0349,3.42654 l -2.41194,1.26434 2.88834,-0.48848 0.23397,0.28643 0.22056,-0.29385 2.75669,0.44591 -2.18141,-1.16894 c 0,0 0.0221,-2.82923 0.004,-2.86749 z"
       id="path7-8-8"
       sodipodi:nodetypes="cccccccccc" />
    <path
       style="fill:#ee4302;fill-opacity:1;stroke:#370188;stroke-width:1;stroke-dasharray:none;stroke-opacity:1"
       d="m 49.186615,149.08169 0.1071,3.97067 2.4791,0.84762 -3.14315,-0.45769 -0.23397,0.28643 -0.22057,-0.29385 -2.85865,0.37838 2.33646,-0.97738 c 0,0 0.0524,-2.89856 0.0566,-2.95874 z"
       id="path7-4-0-5"
       sodipodi:nodetypes="cccccccccc" />
    <path
       style="fill:#fdc458;fill-opacity:1;stroke:#370188;stroke-width:1;stroke-dasharray:none;stroke-opacity:1"
       d="m 36.215155,131.97236 c 0,0 -12.117409,8.57031 2.19093,4.90971 z"
       id="path17-0-8"
       sodipodi:nodetypes="ccc" />
    <path
       style="fill:#fdc458;fill-opacity:1;stroke:#370188;stroke-width:1;stroke-dasharray:none;stroke-opacity:1"
       d="m 53.932485,132.29957 c 0,0 10.803872,6.67428 -2.37316,4.85776 z"
       id="path16-7-8"
       sodipodi:nodetypes="ccc" />
    <path
       style="fill:#fdc458;fill-opacity:1;stroke:#370188;stroke-width:1;stroke-dasharray:none;stroke-opacity:1"
       d="m 49.642125,127.63805 c 5.48849,-12.26517 -15.63176,-12.07721 -10.26504,0.2026 l 4.9111,2.4241 z"
       id="path23-5-4"
       sodipodi:nodetypes="cccc" />
    <path
       style="fill:#018816;fill-opacity:1;stroke:#370188;stroke-width:1;stroke-dasharray:none;stroke-opacity:1"
       d="m 39.049415,136.91763 -3.08671,1.27471 -2.08551,-6.02746 4.25906,-1.72112 -0.0963,-3.17817 c 4.641746,0.80051 8.143542,0.29626 12.71265,-0.28892 v 2.69662 l 4.51092,2.448 -2.07581,5.88694 -3.00198,-1.21523"
       id="path12-0-3"
       sodipodi:nodetypes="cccccccccc" />
    <path
       style="fill:none;fill-opacity:1;stroke:#370188;stroke-width:1;stroke-dasharray:none;stroke-opacity:1"
       d="m 38.040155,130.38029 c 5.254507,7.39877 8.399961,7.12986 12.87283,-0.64212"
       id="path22-1-1"
       sodipodi:nodetypes="cc" />
    <path
       style="fill:none;fill-opacity:1;stroke:#370188;stroke-width:1;stroke-dasharray:none;stroke-opacity:1"
       d="m 44.542295,119.16445 c 1.70278,-1.48306 -1.59291,-1.59292 0.16479,-2.80134"
       id="path26-0-2"
       sodipodi:nodetypes="cc" />
  </g>
</svg>
