<?xml version="1.0" encoding="UTF-8" standalone="no"?>
<!-- Created with Inkscape (http://www.inkscape.org/) -->

<svg
   width="6480"
   height="3240"
   viewBox="0 0 540 270"
   version="1.1"
   id="svg1"
   inkscape:version="1.4 (e7c3feb1, 2024-10-09)"
   sodipodi:docname="kim-versions.svg"
   xmlns:inkscape="http://www.inkscape.org/namespaces/inkscape"
   xmlns:sodipodi="http://sodipodi.sourceforge.net/DTD/sodipodi-0.dtd"
   xmlns:xlink="http://www.w3.org/1999/xlink"
   xmlns="http://www.w3.org/2000/svg"
   xmlns:svg="http://www.w3.org/2000/svg">
  <sodipodi:namedview
     id="namedview1"
     pagecolor="#ffffff"
     bordercolor="#000000"
     borderopacity="0.25"
     inkscape:showpageshadow="2"
     inkscape:pageopacity="0.0"
     inkscape:pagecheckerboard="0"
     inkscape:deskcolor="#d1d1d1"
     inkscape:document-units="px"
     inkscape:zoom="0.43638029"
     inkscape:cx="504.14742"
     inkscape:cy="1038.0854"
     inkscape:window-width="1728"
     inkscape:window-height="1057"
     inkscape:window-x="0"
     inkscape:window-y="32"
     inkscape:window-maximized="0"
     inkscape:current-layer="layer1"
     showguides="true"
     showgrid="false">
    <sodipodi:guide
       position="-112.46061,89.999674"
       orientation="0,-1"
       id="guide1"
       inkscape:locked="false" />
    <sodipodi:guide
       position="90,187.3597"
       orientation="1,0"
       id="guide2"
       inkscape:locked="false" />
    <sodipodi:guide
       position="0,209.35185"
       orientation="1,0"
       id="guide3"
       inkscape:locked="false" />
    <sodipodi:guide
       position="-10.710286,180"
       orientation="0,-1"
       id="guide4"
       inkscape:locked="false" />
    <sodipodi:guide
       position="180.00033,187.53841"
       orientation="1,0"
       id="guide5"
       inkscape:locked="false" />
    <sodipodi:guide
       position="269.96329,208.01051"
       orientation="1,0"
       id="guide6"
       inkscape:locked="false" />
    <sodipodi:guide
       position="360.00033,216.23047"
       orientation="1,0"
       id="guide7"
       inkscape:locked="false" />
    <sodipodi:guide
       position="449.99999,193.05214"
       orientation="1,0"
       id="guide8"
       inkscape:locked="false" />
    <sodipodi:guide
       position="-7.3948568,89.999674"
       orientation="0,-1"
       id="guide9"
       inkscape:locked="false" />
  </sodipodi:namedview>
  <defs
     id="defs1">
    <linearGradient
       id="swatch44"
       inkscape:swatch="solid">
      <stop
         style="stop-color:#ff80f1;stop-opacity:1;"
         offset="0"
         id="stop44" />
    </linearGradient>
    <linearGradient
       id="swatch43">
      <stop
         style="stop-color:#ff80f1;stop-opacity:1;"
         offset="0"
         id="stop43" />
    </linearGradient>
    <pattern
       inkscape:collect="always"
       xlink:href="#pattern12"
       preserveAspectRatio="xMidYMid"
       id="pattern15"
       patternTransform="translate(-4.2089842e-6,-2.1347655e-5)" />
    <pattern
       inkscape:collect="always"
       xlink:href="#pattern11"
       preserveAspectRatio="xMidYMid"
       id="pattern13"
       patternTransform="translate(-4.2089842e-6,-1.1347656e-5)" />
    <pattern
       patternUnits="userSpaceOnUse"
       width="145.16318"
       height="23.960763"
       patternTransform="translate(194.64706,528.93462)"
       preserveAspectRatio="xMidYMid"
       id="pattern11">
      <rect
         style="fill:#ffffff;stroke:#6002ee;stroke-width:12;stroke-dasharray:none"
         id="rect11-6"
         width="133.16318"
         height="11.960763"
         x="6"
         y="6"
         rx="17.999998" />
    </pattern>
    <pattern
       patternUnits="userSpaceOnUse"
       width="145.16317"
       height="23.960763"
       patternTransform="translate(194.64706,528.93461)"
       preserveAspectRatio="xMidYMid"
       id="pattern12">
      <rect
         style="fill:url(#pattern13);stroke:none"
         width="145.16318"
         height="23.960762"
         x="0"
         y="0"
         id="rect12" />
    </pattern>
    <pattern
       patternUnits="userSpaceOnUse"
       width="145.16317"
       height="23.960763"
       patternTransform="translate(194.64706,528.93461)"
       preserveAspectRatio="xMidYMid"
       id="pattern14"
       inkscape:label="pattern14">
      <rect
         style="fill:url(#pattern15);stroke:none"
         width="145.16318"
         height="23.960762"
         x="0"
         y="0"
         id="rect13" />
    </pattern>
  </defs>
  <g
     inkscape:label="Layer 1"
     inkscape:groupmode="layer"
     id="layer1">
    <path
       style="fill:#ffffff;fill-opacity:1;stroke:#370188;stroke-width:1.01305;stroke-dasharray:none;stroke-opacity:1"
       d="m 38.941875,56.019497 c -0.39168,2.57384 -4.25093,8.73615 -4.86642,10.02307 -0.61548,1.28692 1.01463,2.82302 2.13368,1.81587 1.11906,-1.00717 4.96639,-6.64128 5.46997,-8.59964"
       id="path5-1-2-1-7"
       sodipodi:nodetypes="cssc" />
    <path
       style="fill:#ffffff;fill-opacity:1;stroke:#370188;stroke-width:1.01305;stroke-dasharray:none;stroke-opacity:1"
       d="m 52.285515,69.322507 c 0.25728,2.05826 1.42049,6.68375 3.82359,9.49281 1.93105,2.25725 4.58668,2.67096 5.92389,3.40225 3.0788,1.68378 2.13197,4.42203 -0.60836,3.72433 -3.99383,-1.01684 -10.02719,-2.19433 -9.74877,-4.97849"
       id="path2-4-2-5-8-3"
       sodipodi:nodetypes="csssc" />
    <path
       style="fill:#9a58fe;fill-opacity:1;stroke:#370188;stroke-width:1.01305;stroke-dasharray:none;stroke-opacity:1"
       d="m 38.486075,57.947937 -4.54884,6.42423 3.51138,3.07246"
       id="path13-6-7-6-8"
       sodipodi:nodetypes="ccc" />
    <path
       style="fill:#ffffff;fill-opacity:1;stroke:#370188;stroke-width:1.01305;stroke-dasharray:none;stroke-opacity:1"
       d="m 37.319285,41.661607 c -0.93861,-1.15345 0.22727,-2.10623 1.19735,-0.79147"
       id="path15-0-5-6-6-1"
       sodipodi:nodetypes="cc" />
    <path
       style="fill:#ffffff;fill-opacity:1;stroke:#370188;stroke-width:1.01309;stroke-dasharray:none;stroke-opacity:1"
       d="m 43.878305,49.329137 c -2.91828,5.45258 -13.97705,2.15031 -9.59962,-3.76304 4.37743,-5.91338 6.06696,-6.45096 9.52282,-6.29738 3.45587,0.15361 6.18584,3.24956 6.52775,5.75978 0.45032,3.30617 1.04797,18.64914 1.81595,23.18017 0.6292,3.71236 -0.25006,10.73683 -0.65588,14.68766 -0.0895,0.87122 -0.15594,1.59298 -0.17813,2.09679 -0.13971,3.17184 -4.22497,3.41013 -4.45422,0.2304 -0.16988,-2.35596 -3.17652,-1.95638 -3.27167,0 -0.14212,2.92223 -4.34132,2.87435 -4.59354,-0.0823 -0.29276,-3.43139 -1.94382,-12.81866 -1.62228,-16.44726 0.30623,-3.45586 2.1314,-16.67697 2.1314,-16.67697 v 0"
       id="path1-2-4-7-1-7"
       sodipodi:nodetypes="csssssssssscc" />
    <circle
       style="fill:#370188;fill-opacity:1;stroke:#370188;stroke-width:0.253261;stroke-opacity:1"
       id="path3-29-2-0"
       cx="38.444698"
       cy="43.64695"
       r="0.47338909" />
    <circle
       style="fill:#370188;fill-opacity:1;stroke:#370188;stroke-width:0.253261;stroke-opacity:1"
       id="path3-3-5-9-1"
       cx="41.798054"
       cy="44.382057"
       r="0.47338909" />
    <path
       style="fill:#370188;fill-opacity:1;stroke:#370188;stroke-width:1.01305;stroke-dasharray:none;stroke-opacity:1"
       d="m 36.888465,47.286187 c 0.33507,-0.21735 1.58107,0.14653 1.7388,0.48904 0.14757,0.32043 -1.20264,0.99733 -1.43089,0.8694 -0.16709,-0.0936 -0.643,-1.14109 -0.30791,-1.35844 z"
       id="path4-2-3-9-6"
       sodipodi:nodetypes="zssz" />
    <path
       style="fill:#9a58fe;fill-opacity:1;stroke:#370188;stroke-width:1.01305;stroke-dasharray:none;stroke-opacity:1"
       d="m 52.075015,77.002927 c -0.10725,1.67829 -0.31343,8.72343 -0.31343,8.72343 l -6.03326,-0.18282 -0.62683,-1.88051 -0.54848,1.90661 -6.42503,0.18284 c 0,0 -0.0668,-6.29614 -0.20894,-9.14131 -0.14212,-2.84517 -0.97998,-4.20565 -0.61114,-7.92503 0.36884,-3.71939 1.73078,-14.17757 1.73078,-14.17757 l 1.66549,0.35691 1.54653,3.21202 1.30862,-3.27151 7.31629,-0.47586 c 0,0 0.54712,9.56664 1.31122,14.09723 0.76409,4.53055 0.10515,5.50348 0.0409,6.41775 -0.0643,0.91427 -0.0454,0.47953 -0.15267,2.15782 z"
       id="path14-0-7-8-2"
       sodipodi:nodetypes="zccccczzccccczzz" />
    <path
       style="fill:#ffffff;fill-opacity:1;stroke:#370188;stroke-width:1.01305;stroke-dasharray:none;stroke-opacity:1"
       d="m 51.215695,57.892207 c 0.21767,3.17791 -0.48915,9.5678 -0.61819,10.83567 -0.17413,1.71089 -2.40738,2.08957 -2.75565,0.0435 -0.34826,-2.04607 -0.49031,-8.5871 -0.49031,-8.5871"
       id="path6-86-3-4-3"
       sodipodi:nodetypes="cssc" />
    <path
       style="fill:#ffffff;fill-opacity:1;stroke:#370188;stroke-width:1.01305;stroke-dasharray:none;stroke-opacity:1"
       d="m 43.781695,54.536527 -1.31361,3.54233"
       id="path10-5-4-0-6-1"
       sodipodi:nodetypes="cc" />
    <path
       style="fill:#9a58fe;fill-opacity:1;stroke:#370188;stroke-width:1.01305;stroke-dasharray:none;stroke-opacity:1"
       d="m 44.961835,57.678127 -0.96837,-2.82018 6.95467,-0.50831 0.83178,2.84193 z"
       id="path7-1-7-2-3-4"
       sodipodi:nodetypes="ccccc" />
    <path
       style="fill:#ffffff;fill-opacity:1;stroke:#370188;stroke-width:1.01305;stroke-dasharray:none;stroke-opacity:1"
       d="m 42.370225,58.167177 -1.60363,-3.63065"
       id="path9-9-9-5-8-8"
       sodipodi:nodetypes="cc" />
    <path
       style="fill:#9a58fe;fill-opacity:1;stroke:#370188;stroke-width:1.01305;stroke-dasharray:none;stroke-opacity:1"
       d="m 39.002755,54.534467 1.61231,0.25069 -0.63427,2.85843 -2.01263,-0.57493 z"
       id="path8-9-5-7-9-9"
       sodipodi:nodetypes="ccccc" />
    <path
       style="fill:#9a58fe;fill-opacity:1;stroke:#370188;stroke-width:1.01305;stroke-dasharray:none;stroke-opacity:1"
       d="m 46.397475,59.582227 0.23706,7.77672 4.73552,-0.9607 -0.21882,-8.53212"
       id="path12-2-2-7-8-2"
       sodipodi:nodetypes="cccc" />
    <path
       style="fill:#9a58fe;fill-opacity:1;stroke:#370188;stroke-width:1.01305;stroke-dasharray:none;stroke-opacity:1"
       d="m 42.400685,58.019547 c 0,0 -0.41886,8.893 -0.45108,9.8274 -0.0323,0.93441 0.58572,10.43159 0.58572,10.43159 l 1.64766,-0.12693"
       id="path11-7-9-4-2-3"
       sodipodi:nodetypes="csc" />
    <circle
       style="fill:#370188;fill-opacity:1;stroke:#370188;stroke-width:0.253261;stroke-opacity:1"
       id="path3-3-6-16-4-6-1"
       r="0.23981644"
       cy="60.734215"
       cx="43.556721"
       inkscape:transform-center-x="2.5670641"
       inkscape:transform-center-y="-5.6852825e-06" />
    <circle
       style="fill:#370188;fill-opacity:1;stroke:#370188;stroke-width:0.253261;stroke-opacity:1"
       id="path3-3-6-9-41-1-0-5"
       r="0.23981644"
       cy="63.924305"
       cx="43.403278"
       inkscape:transform-center-x="2.5670306"
       inkscape:transform-center-y="-3.6976775e-06" />
    <circle
       style="fill:#370188;fill-opacity:1;stroke:#370188;stroke-width:0.253261;stroke-opacity:1"
       id="path3-3-6-2-6-2-9-0"
       r="0.23981644"
       cy="66.893402"
       cx="43.251789"
       inkscape:transform-center-x="2.567051"
       inkscape:transform-center-y="7.9723223e-06" />
    <circle
       style="fill:#370188;fill-opacity:1;stroke:#370188;stroke-width:0.253261;stroke-opacity:1"
       id="path3-3-6-1-3-7-6-7"
       r="0.23981644"
       cy="69.977371"
       cx="43.303791"
       inkscape:transform-center-x="2.5670693"
       inkscape:transform-center-y="1.4437816e-05" />
    <circle
       style="fill:#370188;fill-opacity:1;stroke:#370188;stroke-width:0.253261;stroke-opacity:1"
       id="path3-3-6-6-9-8-5-4"
       r="0.23981644"
       cy="73.170288"
       cx="43.484211"
       inkscape:transform-center-x="2.567042"
       inkscape:transform-center-y="-8.241693e-06" />
    <circle
       style="fill:#370188;fill-opacity:1;stroke:#370188;stroke-width:0.253261;stroke-opacity:1"
       id="path3-3-6-60-59-6-9-2"
       r="0.23981644"
       cy="76.255127"
       cx="43.664021"
       inkscape:transform-center-x="2.5670372"
       inkscape:transform-center-y="-1.4574684e-05" />
    <path
       style="fill:#ffffff;fill-opacity:1;stroke:#370188;stroke-width:1.01305;stroke-dasharray:none;stroke-opacity:1"
       d="m 46.020175,43.036177 c 1.06223,-0.97291 1.93515,0.56908 0.9729,1.17231"
       id="path15-1-0-5-7"
       sodipodi:nodetypes="cc" />
    <path
       style="fill:#ffffff;fill-opacity:1;stroke:#370188;stroke-width:1.01305;stroke-dasharray:none;stroke-opacity:1"
       d="m 119.34274,54.383757 c -0.39168,2.57384 -4.25093,8.73615 -4.86642,10.02307 -0.61548,1.28692 1.01463,2.82302 2.13368,1.81587 1.11906,-1.00717 4.96639,-6.64128 5.46997,-8.59964"
       id="path5-1-2-1-7-5"
       sodipodi:nodetypes="cssc" />
    <path
       style="fill:#ffffff;fill-opacity:1;stroke:#370188;stroke-width:1.01305;stroke-dasharray:none;stroke-opacity:1"
       d="m 132.68638,67.686767 c 0.25728,2.05826 1.42049,6.68375 3.82359,9.49281 1.93105,2.25725 4.58668,2.67096 5.92389,3.40225 3.0788,1.68378 2.13197,4.42203 -0.60836,3.72433 -3.99383,-1.01684 -10.02719,-2.19433 -9.74877,-4.97849"
       id="path2-4-2-5-8-3-7"
       sodipodi:nodetypes="csssc" />
    <path
       style="fill:#9a58fe;fill-opacity:1;stroke:#370188;stroke-width:1.01305;stroke-dasharray:none;stroke-opacity:1"
       d="m 118.88694,56.312197 -4.54884,6.42423 3.51138,3.07246"
       id="path13-6-7-6-8-9"
       sodipodi:nodetypes="ccc" />
    <path
       style="fill:#ffffff;fill-opacity:1;stroke:#370188;stroke-width:1.01305;stroke-dasharray:none;stroke-opacity:1"
       d="m 117.72015,40.025867 c -0.93861,-1.15345 0.22727,-2.10623 1.19735,-0.79147"
       id="path15-0-5-6-6-1-8"
       sodipodi:nodetypes="cc" />
    <path
       style="fill:#ffffff;fill-opacity:1;stroke:#370188;stroke-width:1.01309;stroke-dasharray:none;stroke-opacity:1"
       d="m 124.27917,47.693397 c -2.91828,5.45258 -13.97705,2.15031 -9.59962,-3.76304 4.37743,-5.91338 6.06696,-6.45096 9.52282,-6.29738 3.45587,0.15361 6.18584,3.24956 6.52775,5.75978 0.45032,3.30617 1.04797,18.64914 1.81595,23.18017 0.6292,3.71236 -0.25006,10.73683 -0.65588,14.68766 -0.0895,0.87122 -0.15594,1.59298 -0.17813,2.09679 -0.13971,3.17184 -4.22497,3.41013 -4.45422,0.2304 -0.16988,-2.35596 -3.17652,-1.95638 -3.27167,0 -0.14212,2.92223 -4.34132,2.87435 -4.59354,-0.0823 -0.29276,-3.43139 -1.94382,-12.81866 -1.62228,-16.44726 0.30623,-3.45586 2.1314,-16.67697 2.1314,-16.67697 v 0"
       id="path1-2-4-7-1-7-4"
       sodipodi:nodetypes="csssssssssscc" />
    <path
       style="fill:#370188;fill-opacity:1;stroke:#370188;stroke-width:1.01305;stroke-dasharray:none;stroke-opacity:1"
       d="m 117.28933,45.650447 c 0.33507,-0.21735 1.58107,0.14653 1.7388,0.48904 0.14757,0.32043 -1.20264,0.99733 -1.43089,0.8694 -0.16709,-0.0936 -0.643,-1.14109 -0.30791,-1.35844 z"
       id="path4-2-3-9-6-8"
       sodipodi:nodetypes="zssz" />
    <path
       style="fill:#9a58fe;fill-opacity:1;stroke:#370188;stroke-width:1.01305;stroke-dasharray:none;stroke-opacity:1"
       d="m 132.47588,75.367187 c -0.10725,1.67829 -0.31343,8.72343 -0.31343,8.72343 l -6.03326,-0.18282 -0.62683,-1.88051 -0.54848,1.90661 -6.42503,0.18284 c 0,0 -0.0668,-6.29614 -0.20894,-9.14131 -0.14212,-2.84517 -0.97998,-4.20565 -0.61114,-7.92503 0.36884,-3.71939 1.73078,-14.17757 1.73078,-14.17757 l 1.66549,0.35691 1.54653,3.21202 1.30862,-3.27151 7.31629,-0.47586 c 0,0 0.54712,9.56664 1.31122,14.09723 0.76409,4.53055 0.10515,5.50348 0.0409,6.41775 -0.0643,0.91427 -0.0454,0.47953 -0.15267,2.15782 z"
       id="path14-0-7-8-2-9"
       sodipodi:nodetypes="zccccczzccccczzz" />
    <path
       style="fill:#ffffff;fill-opacity:1;stroke:#370188;stroke-width:1.01305;stroke-dasharray:none;stroke-opacity:1"
       d="m 131.61656,56.256467 c 0.21767,3.17791 -0.48915,9.5678 -0.61819,10.83567 -0.17413,1.71089 -2.40738,2.08957 -2.75565,0.0435 -0.34826,-2.04607 -0.49031,-8.5871 -0.49031,-8.5871"
       id="path6-86-3-4-3-4"
       sodipodi:nodetypes="cssc" />
    <path
       style="fill:#ffffff;fill-opacity:1;stroke:#370188;stroke-width:1.01305;stroke-dasharray:none;stroke-opacity:1"
       d="m 124.18256,52.900787 -1.31361,3.54233"
       id="path10-5-4-0-6-1-7"
       sodipodi:nodetypes="cc" />
    <path
       style="fill:#9a58fe;fill-opacity:1;stroke:#370188;stroke-width:1.01305;stroke-dasharray:none;stroke-opacity:1"
       d="m 125.3627,56.042387 -0.96837,-2.82018 6.95467,-0.50831 0.83178,2.84193 z"
       id="path7-1-7-2-3-4-0"
       sodipodi:nodetypes="ccccc" />
    <path
       style="fill:#ffffff;fill-opacity:1;stroke:#370188;stroke-width:1.01305;stroke-dasharray:none;stroke-opacity:1"
       d="m 122.77109,56.531437 -1.60363,-3.63065"
       id="path9-9-9-5-8-8-4"
       sodipodi:nodetypes="cc" />
    <path
       style="fill:#9a58fe;fill-opacity:1;stroke:#370188;stroke-width:1.01305;stroke-dasharray:none;stroke-opacity:1"
       d="m 119.40362,52.898727 1.61231,0.25069 -0.63427,2.85843 -2.01263,-0.57493 z"
       id="path8-9-5-7-9-9-0"
       sodipodi:nodetypes="ccccc" />
    <path
       style="fill:#9a58fe;fill-opacity:1;stroke:#370188;stroke-width:1.01305;stroke-dasharray:none;stroke-opacity:1"
       d="m 126.79834,57.946487 0.23706,7.77672 4.73552,-0.9607 -0.21882,-8.53212"
       id="path12-2-2-7-8-2-6"
       sodipodi:nodetypes="cccc" />
    <path
       style="fill:#9a58fe;fill-opacity:1;stroke:#370188;stroke-width:1.01305;stroke-dasharray:none;stroke-opacity:1"
       d="m 122.80155,56.383807 c 0,0 -0.41886,8.893 -0.45108,9.8274 -0.0323,0.93441 0.58572,10.43159 0.58572,10.43159 l 1.64766,-0.12693"
       id="path11-7-9-4-2-3-5"
       sodipodi:nodetypes="csc" />
    <circle
       style="fill:#370188;fill-opacity:1;stroke:#370188;stroke-width:0.253261;stroke-opacity:1"
       id="path3-3-6-16-4-6-1-3"
       r="0.23981644"
       cy="59.098476"
       cx="123.95758"
       inkscape:transform-center-x="2.5670641"
       inkscape:transform-center-y="-5.6852825e-06" />
    <circle
       style="fill:#370188;fill-opacity:1;stroke:#370188;stroke-width:0.253261;stroke-opacity:1"
       id="path3-3-6-9-41-1-0-5-8"
       r="0.23981644"
       cy="62.288563"
       cx="123.80415"
       inkscape:transform-center-x="2.5670306"
       inkscape:transform-center-y="-3.6976775e-06" />
    <circle
       style="fill:#370188;fill-opacity:1;stroke:#370188;stroke-width:0.253261;stroke-opacity:1"
       id="path3-3-6-2-6-2-9-0-5"
       r="0.23981644"
       cy="65.25766"
       cx="123.65266"
       inkscape:transform-center-x="2.567051"
       inkscape:transform-center-y="7.9723223e-06" />
    <circle
       style="fill:#370188;fill-opacity:1;stroke:#370188;stroke-width:0.253261;stroke-opacity:1"
       id="path3-3-6-1-3-7-6-7-1"
       r="0.23981644"
       cy="68.341629"
       cx="123.70465"
       inkscape:transform-center-x="2.5670693"
       inkscape:transform-center-y="1.4437816e-05" />
    <circle
       style="fill:#370188;fill-opacity:1;stroke:#370188;stroke-width:0.253261;stroke-opacity:1"
       id="path3-3-6-6-9-8-5-4-2"
       r="0.23981644"
       cy="71.534546"
       cx="123.88507"
       inkscape:transform-center-x="2.567042"
       inkscape:transform-center-y="-8.241693e-06" />
    <circle
       style="fill:#370188;fill-opacity:1;stroke:#370188;stroke-width:0.253261;stroke-opacity:1"
       id="path3-3-6-60-59-6-9-2-4"
       r="0.23981644"
       cy="74.619385"
       cx="124.06488"
       inkscape:transform-center-x="2.5670372"
       inkscape:transform-center-y="-1.4574684e-05" />
    <path
       style="fill:#ffffff;fill-opacity:1;stroke:#370188;stroke-width:1.01305;stroke-dasharray:none;stroke-opacity:1"
       d="m 126.42104,41.400437 c 1.06223,-0.97291 1.93515,0.56908 0.9729,1.17231"
       id="path15-1-0-5-7-6"
       sodipodi:nodetypes="cc" />
    <path
       style="fill:#ffffff;fill-opacity:1;stroke:#370188;stroke-width:1.0053;stroke-dasharray:none;stroke-opacity:1"
       d="m 53.1253,241.37655 c 0.25531,2.0425 1.409609,6.63258 3.794299,9.42012 1.916261,2.23997 4.551562,2.65051 5.878532,3.37621 3.055229,1.67087 2.115638,4.38815 -0.603701,3.69579 -3.963241,-1.00905 -9.9504,-2.17752 -9.674119,-4.94036"
       id="path2-4"
       sodipodi:nodetypes="csssc" />
    <path
       style="fill:#ffffff;fill-opacity:1;stroke:#370188;stroke-width:1.0053;stroke-dasharray:none;stroke-opacity:1"
       d="m 38.273671,213.92748 c -0.931411,-1.14462 0.225537,-2.0901 1.188189,-0.78542"
       id="path15-0"
       sodipodi:nodetypes="cc" />
    <path
       style="fill:#ffffff;fill-opacity:1;stroke:#370188;stroke-width:1.00532;stroke-dasharray:none;stroke-opacity:1"
       d="m 44.782471,221.53629 c -2.89593,5.41084 -13.870011,2.13385 -9.526111,-3.73423 4.3439,-5.86809 6.020499,-6.40155 9.4499,-6.24914 3.429399,0.15242 6.13847,3.22467 6.477761,5.71568 0.446879,3.28084 1.03994,18.50631 1.802038,23.00263 0.62439,3.68395 -0.248139,10.65462 -0.650838,14.57519 -0.0888,0.86456 -0.154762,1.5808 -0.176781,2.08076 -0.13864,3.14753 -4.192611,3.384 -4.420129,0.22863 -0.168561,-2.33793 -3.15218,-1.94141 -3.246602,0 -0.14103,2.89984 -4.308069,2.85233 -4.558368,-0.0816 -0.290501,-3.40514 -1.928933,-12.72052 -1.609862,-16.32132 0.30389,-3.4294 2.11508,-16.54927 2.11508,-16.54927 v 0"
       id="path1-2"
       sodipodi:nodetypes="csssssssssscc" />
    <path
       style="fill:none;fill-opacity:1;stroke:#370188;stroke-width:1.00493;stroke-dasharray:none;stroke-opacity:1"
       d="m 38.713391,216.0683 c 0.487578,-1.41508 2.635968,-0.54537 1.99971,0.45448"
       id="path32"
       sodipodi:nodetypes="cc" />
    <path
       style="fill:none;fill-opacity:1;stroke:#370188;stroke-width:1.00493;stroke-dasharray:none;stroke-opacity:1"
       d="m 42.347511,217.31598 c 0.487578,-1.41508 2.635978,-0.54537 1.999697,0.45448"
       id="path32-9"
       sodipodi:nodetypes="cc" />
    <path
       style="fill:none;fill-opacity:1;stroke:#370188;stroke-width:1.00493;stroke-dasharray:none;stroke-opacity:1"
       d="m 118.35606,42.347277 c 0.48758,-1.41508 2.63597,-0.54537 1.99971,0.45448"
       id="path32-7"
       sodipodi:nodetypes="cc" />
    <path
       style="fill:none;fill-opacity:1;stroke:#370188;stroke-width:1.00493;stroke-dasharray:none;stroke-opacity:1"
       d="m 121.99018,43.594957 c 0.48758,-1.41508 2.63598,-0.54537 1.9997,0.45448"
       id="path32-9-7"
       sodipodi:nodetypes="cc" />
    <path
       style="fill:#370188;fill-opacity:1;stroke:#370188;stroke-width:1.0053;stroke-dasharray:none;stroke-opacity:1"
       d="m 37.84615,219.50898 c 0.33251,-0.21568 1.568961,0.14542 1.72549,0.4853 0.146441,0.31798 -1.19343,0.9897 -1.419931,0.86275 -0.165808,-0.0929 -0.638079,-1.13236 -0.305559,-1.34805 z"
       id="path4"
       sodipodi:nodetypes="zssz" />
    <path
       style="fill:#fd58e5;fill-opacity:1;stroke:#370188;stroke-width:1.0053;stroke-dasharray:none;stroke-opacity:1"
       d="m 52.916408,248.99817 -0.31103,8.65662 -5.987058,-0.18143 -0.622031,-1.86609 -0.544281,1.89201 -6.37583,0.18143 c 0,0 -0.0663,-6.24793 -0.207338,-9.07131 -0.14103,-2.82337 -0.972479,-4.17345 -0.60646,-7.86435 0.366019,-3.6909 1.717521,-14.06899 1.717521,-14.06899 l 1.65275,0.35416 1.53469,3.18744 1.298589,-3.24646 7.26028,-0.47222 c 0,0 0.54292,9.49339 1.301159,13.98927 0.758239,4.49588 -0.110961,8.50992 -0.110961,8.50992 z"
       id="path14"
       sodipodi:nodetypes="cccccczzccccczc" />
    <path
       style="fill:#ffffff;fill-opacity:1;stroke:#370188;stroke-width:1.0053;stroke-dasharray:none;stroke-opacity:1"
       d="m 44.6866,226.70381 -1.303549,3.5152"
       id="path10-5"
       sodipodi:nodetypes="cc" />
    <path
       style="fill:#fd58e5;fill-opacity:1;stroke:#370188;stroke-width:1.0053;stroke-dasharray:none;stroke-opacity:1"
       d="m 45.85769,229.82134 -0.960929,-2.79858 6.901398,-0.50441 0.825412,2.82017 z"
       id="path7-1"
       sodipodi:nodetypes="ccccc" />
    <path
       style="fill:#ffffff;fill-opacity:1;stroke:#370188;stroke-width:1.0053;stroke-dasharray:none;stroke-opacity:1"
       d="M 43.285939,230.30665 41.6946,226.7038"
       id="path9-9"
       sodipodi:nodetypes="cc" />
    <path
       style="fill:#fd58e5;fill-opacity:1;stroke:#370188;stroke-width:1.0053;stroke-dasharray:none;stroke-opacity:1"
       d="m 39.94426,226.70177 1.599959,0.24876 -0.629411,2.83654 -1.997209,-0.57053 z"
       id="path8-9"
       sodipodi:nodetypes="ccccc" />
    <path
       style="fill:#fd58e5;fill-opacity:1;stroke:#370188;stroke-width:1.0053;stroke-dasharray:none;stroke-opacity:1"
       d="m 43.316169,230.16015 c 0,0 -0.41566,8.8249 -0.447638,9.75216 -0.032,0.92726 0.581238,10.35169 0.581238,10.35169 l 1.635052,-0.12595"
       id="path11-7"
       sodipodi:nodetypes="csc" />
    <circle
       style="fill:#370188;fill-opacity:1;stroke:#370188;stroke-width:0.251322;stroke-opacity:1"
       id="path3-3-6"
       r="0.23798001"
       cy="232.85405"
       cx="44.463379"
       inkscape:transform-center-x="2.5473964"
       inkscape:transform-center-y="-3.3359917e-05" />
    <circle
       style="fill:#370188;fill-opacity:1;stroke:#370188;stroke-width:0.251322;stroke-opacity:1"
       id="path3-3-6-9"
       r="0.23798001"
       cy="236.0197"
       cx="44.311127"
       inkscape:transform-center-x="2.5473672"
       inkscape:transform-center-y="-8.8337132e-06" />
    <circle
       style="fill:#370188;fill-opacity:1;stroke:#370188;stroke-width:0.251322;stroke-opacity:1"
       id="path3-3-6-2"
       r="0.23798001"
       cy="238.96605"
       cx="44.160797"
       inkscape:transform-center-x="2.5473177"
       inkscape:transform-center-y="2.1149829e-06" />
    <circle
       style="fill:#370188;fill-opacity:1;stroke:#370188;stroke-width:0.251322;stroke-opacity:1"
       id="path3-3-6-1"
       r="0.23798001"
       cy="242.02641"
       cx="44.212372"
       inkscape:transform-center-x="2.547382"
       inkscape:transform-center-y="3.4559455e-05" />
    <circle
       style="fill:#370188;fill-opacity:1;stroke:#370188;stroke-width:0.251322;stroke-opacity:1"
       id="path3-3-6-6"
       r="0.23798001"
       cy="245.19487"
       cx="44.391418"
       inkscape:transform-center-x="2.5473966"
       inkscape:transform-center-y="-7.9173349e-05" />
    <circle
       style="fill:#370188;fill-opacity:1;stroke:#370188;stroke-width:0.251322;stroke-opacity:1"
       id="path3-3-6-60"
       r="0.23798001"
       cy="248.25612"
       cx="44.569824"
       inkscape:transform-center-x="2.5474322"
       inkscape:transform-center-y="1.983531e-06" />
    <path
       style="fill:#ffffff;fill-opacity:1;stroke:#370188;stroke-width:1.0053;stroke-dasharray:none;stroke-opacity:1"
       d="m 46.907939,215.29153 c 1.054082,-0.96547 1.920321,0.56471 0.965452,1.16333"
       id="path15"
       sodipodi:nodetypes="cc" />
    <path
       style="fill:#ffffff;fill-opacity:1;stroke:#370188;stroke-width:1.00532;stroke-opacity:1"
       d="m 39.843249,226.34195 c 0.205241,6.4309 8.369301,6.48952 8.50612,-0.01"
       id="path18"
       sodipodi:nodetypes="cc" />
    <ellipse
       style="fill:#ffffff;fill-opacity:1;stroke:#370188;stroke-width:1.00532;stroke-opacity:1"
       id="path2"
       cx="44.095459"
       cy="226.36685"
       rx="4.2585411"
       ry="1.1075325" />
    <ellipse
       style="fill:#370188;fill-opacity:1;stroke:none;stroke-width:1.95987"
       id="path20"
       cx="44.114563"
       cy="226.61852"
       rx="2.7531805"
       ry="0.58996719" />
    <path
       style="fill:#ffffff;fill-opacity:1;stroke:#370188;stroke-width:1.0053;stroke-dasharray:none;stroke-opacity:1"
       d="m 39.760251,232.44764 c 0.859288,-1.06756 0.837808,-1.15799 1.84971,-1.95796 1.110488,-0.87793 2.639118,0.82873 1.596438,1.89873 -1.04269,1.06999 -1.032369,1.05618 -1.21069,1.14359"
       id="path5"
       sodipodi:nodetypes="cssc" />
    <path
       style="fill:#fd58e5;fill-opacity:1;stroke:#370188;stroke-width:1.0053;stroke-dasharray:none;stroke-opacity:1"
       d="m 40.020509,231.15399 3.0864,2.29269 -4.367058,3.40435 c -0.86555,-1.85303 -0.789071,-3.61634 0.621508,-5.25259 z"
       id="path13"
       sodipodi:nodetypes="ccccc" />
    <path
       style="fill:#ffffff;fill-opacity:1;stroke:#370188;stroke-width:1.0053;stroke-dasharray:none;stroke-opacity:1"
       d="m 48.728408,234.23087 c -2.436378,-2.01389 -1.460239,-1.12111 -2.2848,-2.07999 -1.112699,-1.29394 0.378391,-3.33691 1.912413,-1.96264 2.654989,2.3785 2.007238,1.87694 1.998639,1.86573"
       id="path6"
       sodipodi:nodetypes="cssc" />
    <path
       style="fill:#fd58e5;fill-opacity:1;stroke:#370188;stroke-width:1.0053;stroke-dasharray:none;stroke-opacity:1"
       d="m 52.095019,232.74017 -2.889848,-2.63359 -2.310312,3.02852 5.75343,4.56 c 0.277571,-1.65164 1.297719,-3.30328 -0.55327,-4.95493 z"
       id="path12-2"
       sodipodi:nodetypes="ccccc" />
  </g>
</svg>
