<?xml version="1.0" encoding="UTF-8" standalone="no"?>
<!-- Created with Inkscape (http://www.inkscape.org/) -->

<svg
   width="6480"
   height="3240"
   viewBox="0 0 540 270"
   version="1.1"
   id="svg1"
   inkscape:version="1.4 (e7c3feb1, 2024-10-09)"
   sodipodi:docname="kim-versions.svg"
   xmlns:inkscape="http://www.inkscape.org/namespaces/inkscape"
   xmlns:sodipodi="http://sodipodi.sourceforge.net/DTD/sodipodi-0.dtd"
   xmlns:xlink="http://www.w3.org/1999/xlink"
   xmlns="http://www.w3.org/2000/svg"
   xmlns:svg="http://www.w3.org/2000/svg">
  <sodipodi:namedview
     id="namedview1"
     pagecolor="#ffffff"
     bordercolor="#000000"
     borderopacity="0.25"
     inkscape:showpageshadow="2"
     inkscape:pageopacity="0.0"
     inkscape:pagecheckerboard="0"
     inkscape:deskcolor="#d1d1d1"
     inkscape:document-units="px"
     inkscape:zoom="0.62405901"
     inkscape:cx="440.66346"
     inkscape:cy="530.39856"
     inkscape:window-width="1728"
     inkscape:window-height="1057"
     inkscape:window-x="0"
     inkscape:window-y="32"
     inkscape:window-maximized="0"
     inkscape:current-layer="layer1"
     showguides="true"
     showgrid="false">
    <sodipodi:guide
       position="-112.46061,89.999674"
       orientation="0,-1"
       id="guide1"
       inkscape:locked="false" />
    <sodipodi:guide
       position="90,187.3597"
       orientation="1,0"
       id="guide2"
       inkscape:locked="false" />
    <sodipodi:guide
       position="0,209.35185"
       orientation="1,0"
       id="guide3"
       inkscape:locked="false" />
    <sodipodi:guide
       position="-10.710286,180"
       orientation="0,-1"
       id="guide4"
       inkscape:locked="false" />
    <sodipodi:guide
       position="180.00033,187.53841"
       orientation="1,0"
       id="guide5"
       inkscape:locked="false" />
    <sodipodi:guide
       position="269.96329,208.01051"
       orientation="1,0"
       id="guide6"
       inkscape:locked="false" />
    <sodipodi:guide
       position="360.00033,216.23047"
       orientation="1,0"
       id="guide7"
       inkscape:locked="false" />
    <sodipodi:guide
       position="449.99999,193.05214"
       orientation="1,0"
       id="guide8"
       inkscape:locked="false" />
    <sodipodi:guide
       position="-7.3948568,89.999674"
       orientation="0,-1"
       id="guide9"
       inkscape:locked="false" />
  </sodipodi:namedview>
  <defs
     id="defs1">
    <linearGradient
       id="swatch44"
       inkscape:swatch="solid">
      <stop
         style="stop-color:#ff80f1;stop-opacity:1;"
         offset="0"
         id="stop44" />
    </linearGradient>
    <linearGradient
       id="swatch43">
      <stop
         style="stop-color:#ff80f1;stop-opacity:1;"
         offset="0"
         id="stop43" />
    </linearGradient>
    <pattern
       inkscape:collect="always"
       xlink:href="#pattern12"
       preserveAspectRatio="xMidYMid"
       id="pattern15"
       patternTransform="translate(-4.2089842e-6,-2.1347655e-5)" />
    <pattern
       inkscape:collect="always"
       xlink:href="#pattern11"
       preserveAspectRatio="xMidYMid"
       id="pattern13"
       patternTransform="translate(-4.2089842e-6,-1.1347656e-5)" />
    <pattern
       patternUnits="userSpaceOnUse"
       width="145.16318"
       height="23.960763"
       patternTransform="translate(194.64706,528.93462)"
       preserveAspectRatio="xMidYMid"
       id="pattern11">
      <rect
         style="fill:#ffffff;stroke:#6002ee;stroke-width:12;stroke-dasharray:none"
         id="rect11-6"
         width="133.16318"
         height="11.960763"
         x="6"
         y="6"
         rx="17.999998" />
    </pattern>
    <pattern
       patternUnits="userSpaceOnUse"
       width="145.16317"
       height="23.960763"
       patternTransform="translate(194.64706,528.93461)"
       preserveAspectRatio="xMidYMid"
       id="pattern12">
      <rect
         style="fill:url(#pattern13);stroke:none"
         width="145.16318"
         height="23.960762"
         x="0"
         y="0"
         id="rect12" />
    </pattern>
    <pattern
       patternUnits="userSpaceOnUse"
       width="145.16317"
       height="23.960763"
       patternTransform="translate(194.64706,528.93461)"
       preserveAspectRatio="xMidYMid"
       id="pattern14"
       inkscape:label="pattern14">
      <rect
         style="fill:url(#pattern15);stroke:none"
         width="145.16318"
         height="23.960762"
         x="0"
         y="0"
         id="rect13" />
    </pattern>
  </defs>
  <g
     inkscape:label="Layer 1"
     inkscape:groupmode="layer"
     id="layer1">
    <path
       style="fill:#ffffff;fill-opacity:1;stroke:#370188;stroke-width:1.01305;stroke-dasharray:none;stroke-opacity:1"
       d="m 38.941875,56.019497 c -0.39168,2.57384 -4.25093,8.73615 -4.86642,10.02307 -0.61548,1.28692 1.01463,2.82302 2.13368,1.81587 1.11906,-1.00717 4.96639,-6.64128 5.46997,-8.59964"
       id="path5-1-2-1-7"
       sodipodi:nodetypes="cssc" />
    <path
       style="fill:#ffffff;fill-opacity:1;stroke:#370188;stroke-width:1.01305;stroke-dasharray:none;stroke-opacity:1"
       d="m 52.285515,69.322507 c 0.25728,2.05826 1.42049,6.68375 3.82359,9.49281 1.93105,2.25725 4.58668,2.67096 5.92389,3.40225 3.0788,1.68378 2.13197,4.42203 -0.60836,3.72433 -3.99383,-1.01684 -10.02719,-2.19433 -9.74877,-4.97849"
       id="path2-4-2-5-8-3"
       sodipodi:nodetypes="csssc" />
    <path
       style="fill:#9a58fe;fill-opacity:1;stroke:#370188;stroke-width:1.01305;stroke-dasharray:none;stroke-opacity:1"
       d="m 38.486075,57.947937 -4.54884,6.42423 3.51138,3.07246"
       id="path13-6-7-6-8"
       sodipodi:nodetypes="ccc" />
    <path
       style="fill:#ffffff;fill-opacity:1;stroke:#370188;stroke-width:1.01305;stroke-dasharray:none;stroke-opacity:1"
       d="m 37.319285,41.661607 c -0.93861,-1.15345 0.22727,-2.10623 1.19735,-0.79147"
       id="path15-0-5-6-6-1"
       sodipodi:nodetypes="cc" />
    <path
       style="fill:#ffffff;fill-opacity:1;stroke:#370188;stroke-width:1.01309;stroke-dasharray:none;stroke-opacity:1"
       d="m 43.878305,49.329137 c -2.91828,5.45258 -13.97705,2.15031 -9.59962,-3.76304 4.37743,-5.91338 6.06696,-6.45096 9.52282,-6.29738 3.45587,0.15361 6.18584,3.24956 6.52775,5.75978 0.45032,3.30617 1.04797,18.64914 1.81595,23.18017 0.6292,3.71236 -0.25006,10.73683 -0.65588,14.68766 -0.0895,0.87122 -0.15594,1.59298 -0.17813,2.09679 -0.13971,3.17184 -4.22497,3.41013 -4.45422,0.2304 -0.16988,-2.35596 -3.17652,-1.95638 -3.27167,0 -0.14212,2.92223 -4.34132,2.87435 -4.59354,-0.0823 -0.29276,-3.43139 -1.94382,-12.81866 -1.62228,-16.44726 0.30623,-3.45586 2.1314,-16.67697 2.1314,-16.67697 v 0"
       id="path1-2-4-7-1-7"
       sodipodi:nodetypes="csssssssssscc" />
    <circle
       style="fill:#370188;fill-opacity:1;stroke:#370188;stroke-width:0.253261;stroke-opacity:1"
       id="path3-29-2-0"
       cx="38.444698"
       cy="43.64695"
       r="0.47338909" />
    <circle
       style="fill:#370188;fill-opacity:1;stroke:#370188;stroke-width:0.253261;stroke-opacity:1"
       id="path3-3-5-9-1"
       cx="41.798054"
       cy="44.382057"
       r="0.47338909" />
    <path
       style="fill:#370188;fill-opacity:1;stroke:#370188;stroke-width:1.01305;stroke-dasharray:none;stroke-opacity:1"
       d="m 36.888465,47.286187 c 0.33507,-0.21735 1.58107,0.14653 1.7388,0.48904 0.14757,0.32043 -1.20264,0.99733 -1.43089,0.8694 -0.16709,-0.0936 -0.643,-1.14109 -0.30791,-1.35844 z"
       id="path4-2-3-9-6"
       sodipodi:nodetypes="zssz" />
    <path
       style="fill:#9a58fe;fill-opacity:1;stroke:#370188;stroke-width:1.01305;stroke-dasharray:none;stroke-opacity:1"
       d="m 52.075015,77.002927 c -0.10725,1.67829 -0.31343,8.72343 -0.31343,8.72343 l -6.03326,-0.18282 -0.62683,-1.88051 -0.54848,1.90661 -6.42503,0.18284 c 0,0 -0.0668,-6.29614 -0.20894,-9.14131 -0.14212,-2.84517 -0.97998,-4.20565 -0.61114,-7.92503 0.36884,-3.71939 1.73078,-14.17757 1.73078,-14.17757 l 1.66549,0.35691 1.54653,3.21202 1.30862,-3.27151 7.31629,-0.47586 c 0,0 0.54712,9.56664 1.31122,14.09723 0.76409,4.53055 0.10515,5.50348 0.0409,6.41775 -0.0643,0.91427 -0.0454,0.47953 -0.15267,2.15782 z"
       id="path14-0-7-8-2"
       sodipodi:nodetypes="zccccczzccccczzz" />
    <path
       style="fill:#ffffff;fill-opacity:1;stroke:#370188;stroke-width:1.01305;stroke-dasharray:none;stroke-opacity:1"
       d="m 51.215695,57.892207 c 0.21767,3.17791 -0.48915,9.5678 -0.61819,10.83567 -0.17413,1.71089 -2.40738,2.08957 -2.75565,0.0435 -0.34826,-2.04607 -0.49031,-8.5871 -0.49031,-8.5871"
       id="path6-86-3-4-3"
       sodipodi:nodetypes="cssc" />
    <path
       style="fill:#ffffff;fill-opacity:1;stroke:#370188;stroke-width:1.01305;stroke-dasharray:none;stroke-opacity:1"
       d="m 43.781695,54.536527 -1.31361,3.54233"
       id="path10-5-4-0-6-1"
       sodipodi:nodetypes="cc" />
    <path
       style="fill:#9a58fe;fill-opacity:1;stroke:#370188;stroke-width:1.01305;stroke-dasharray:none;stroke-opacity:1"
       d="m 44.961835,57.678127 -0.96837,-2.82018 6.95467,-0.50831 0.83178,2.84193 z"
       id="path7-1-7-2-3-4"
       sodipodi:nodetypes="ccccc" />
    <path
       style="fill:#ffffff;fill-opacity:1;stroke:#370188;stroke-width:1.01305;stroke-dasharray:none;stroke-opacity:1"
       d="m 42.370225,58.167177 -1.60363,-3.63065"
       id="path9-9-9-5-8-8"
       sodipodi:nodetypes="cc" />
    <path
       style="fill:#9a58fe;fill-opacity:1;stroke:#370188;stroke-width:1.01305;stroke-dasharray:none;stroke-opacity:1"
       d="m 39.002755,54.534467 1.61231,0.25069 -0.63427,2.85843 -2.01263,-0.57493 z"
       id="path8-9-5-7-9-9"
       sodipodi:nodetypes="ccccc" />
    <path
       style="fill:#9a58fe;fill-opacity:1;stroke:#370188;stroke-width:1.01305;stroke-dasharray:none;stroke-opacity:1"
       d="m 46.397475,59.582227 0.23706,7.77672 4.73552,-0.9607 -0.21882,-8.53212"
       id="path12-2-2-7-8-2"
       sodipodi:nodetypes="cccc" />
    <path
       style="fill:#9a58fe;fill-opacity:1;stroke:#370188;stroke-width:1.01305;stroke-dasharray:none;stroke-opacity:1"
       d="m 42.400685,58.019547 c 0,0 -0.41886,8.893 -0.45108,9.8274 -0.0323,0.93441 0.58572,10.43159 0.58572,10.43159 l 1.64766,-0.12693"
       id="path11-7-9-4-2-3"
       sodipodi:nodetypes="csc" />
    <circle
       style="fill:#370188;fill-opacity:1;stroke:#370188;stroke-width:0.253261;stroke-opacity:1"
       id="path3-3-6-16-4-6-1"
       r="0.23981644"
       cy="60.734215"
       cx="43.556721"
       inkscape:transform-center-x="2.5670641"
       inkscape:transform-center-y="-5.6852825e-06" />
    <circle
       style="fill:#370188;fill-opacity:1;stroke:#370188;stroke-width:0.253261;stroke-opacity:1"
       id="path3-3-6-9-41-1-0-5"
       r="0.23981644"
       cy="63.924305"
       cx="43.403278"
       inkscape:transform-center-x="2.5670306"
       inkscape:transform-center-y="-3.6976775e-06" />
    <circle
       style="fill:#370188;fill-opacity:1;stroke:#370188;stroke-width:0.253261;stroke-opacity:1"
       id="path3-3-6-2-6-2-9-0"
       r="0.23981644"
       cy="66.893402"
       cx="43.251789"
       inkscape:transform-center-x="2.567051"
       inkscape:transform-center-y="7.9723223e-06" />
    <circle
       style="fill:#370188;fill-opacity:1;stroke:#370188;stroke-width:0.253261;stroke-opacity:1"
       id="path3-3-6-1-3-7-6-7"
       r="0.23981644"
       cy="69.977371"
       cx="43.303791"
       inkscape:transform-center-x="2.5670693"
       inkscape:transform-center-y="1.4437816e-05" />
    <circle
       style="fill:#370188;fill-opacity:1;stroke:#370188;stroke-width:0.253261;stroke-opacity:1"
       id="path3-3-6-6-9-8-5-4"
       r="0.23981644"
       cy="73.170288"
       cx="43.484211"
       inkscape:transform-center-x="2.567042"
       inkscape:transform-center-y="-8.241693e-06" />
    <circle
       style="fill:#370188;fill-opacity:1;stroke:#370188;stroke-width:0.253261;stroke-opacity:1"
       id="path3-3-6-60-59-6-9-2"
       r="0.23981644"
       cy="76.255127"
       cx="43.664021"
       inkscape:transform-center-x="2.5670372"
       inkscape:transform-center-y="-1.4574684e-05" />
    <path
       style="fill:#ffffff;fill-opacity:1;stroke:#370188;stroke-width:1.01305;stroke-dasharray:none;stroke-opacity:1"
       d="m 46.020175,43.036177 c 1.06223,-0.97291 1.93515,0.56908 0.9729,1.17231"
       id="path15-1-0-5-7"
       sodipodi:nodetypes="cc" />
  </g>
</svg>
