<?xml version="1.0" encoding="UTF-8" standalone="no"?>
<!-- Created with Inkscape (http://www.inkscape.org/) -->

<svg
   width="6480"
   height="3240"
   viewBox="0 0 540 270"
   version="1.1"
   id="svg1"
   inkscape:version="1.4 (e7c3feb1, 2024-10-09)"
   sodipodi:docname="rabbit-versions.svg"
   xmlns:inkscape="http://www.inkscape.org/namespaces/inkscape"
   xmlns:sodipodi="http://sodipodi.sourceforge.net/DTD/sodipodi-0.dtd"
   xmlns:xlink="http://www.w3.org/1999/xlink"
   xmlns="http://www.w3.org/2000/svg"
   xmlns:svg="http://www.w3.org/2000/svg">
  <sodipodi:namedview
     id="namedview1"
     pagecolor="#ffffff"
     bordercolor="#000000"
     borderopacity="0.25"
     inkscape:showpageshadow="2"
     inkscape:pageopacity="0.0"
     inkscape:pagecheckerboard="0"
     inkscape:deskcolor="#d1d1d1"
     inkscape:document-units="px"
     inkscape:zoom="0.41075794"
     inkscape:cx="5200.143"
     inkscape:cy="75.47024"
     inkscape:window-width="1728"
     inkscape:window-height="1057"
     inkscape:window-x="0"
     inkscape:window-y="32"
     inkscape:window-maximized="0"
     inkscape:current-layer="layer1"
     showguides="true"
     showgrid="false">
    <sodipodi:guide
       position="-112.46061,89.999674"
       orientation="0,-1"
       id="guide1"
       inkscape:locked="false" />
    <sodipodi:guide
       position="90,187.3597"
       orientation="1,0"
       id="guide2"
       inkscape:locked="false" />
    <sodipodi:guide
       position="0,209.35185"
       orientation="1,0"
       id="guide3"
       inkscape:locked="false" />
    <sodipodi:guide
       position="-10.710286,180"
       orientation="0,-1"
       id="guide4"
       inkscape:locked="false" />
    <sodipodi:guide
       position="180.00033,187.53841"
       orientation="1,0"
       id="guide5"
       inkscape:locked="false" />
    <sodipodi:guide
       position="269.96329,208.01051"
       orientation="1,0"
       id="guide6"
       inkscape:locked="false" />
    <sodipodi:guide
       position="360.00033,216.23047"
       orientation="1,0"
       id="guide7"
       inkscape:locked="false" />
    <sodipodi:guide
       position="449.99999,193.05214"
       orientation="1,0"
       id="guide8"
       inkscape:locked="false" />
    <sodipodi:guide
       position="-7.3948568,89.999674"
       orientation="0,-1"
       id="guide9"
       inkscape:locked="false" />
  </sodipodi:namedview>
  <defs
     id="defs1">
    <linearGradient
       id="swatch44"
       inkscape:swatch="solid">
      <stop
         style="stop-color:#ff80f1;stop-opacity:1;"
         offset="0"
         id="stop44" />
    </linearGradient>
    <linearGradient
       id="swatch43">
      <stop
         style="stop-color:#ff80f1;stop-opacity:1;"
         offset="0"
         id="stop43" />
    </linearGradient>
    <pattern
       inkscape:collect="always"
       xlink:href="#pattern12"
       preserveAspectRatio="xMidYMid"
       id="pattern15"
       patternTransform="translate(-4.2089842e-6,-2.1347655e-5)" />
    <pattern
       inkscape:collect="always"
       xlink:href="#pattern11"
       preserveAspectRatio="xMidYMid"
       id="pattern13"
       patternTransform="translate(-4.2089842e-6,-1.1347656e-5)" />
    <pattern
       patternUnits="userSpaceOnUse"
       width="145.16318"
       height="23.960763"
       patternTransform="translate(194.64706,528.93462)"
       preserveAspectRatio="xMidYMid"
       id="pattern11">
      <rect
         style="fill:#ffffff;stroke:#6002ee;stroke-width:12;stroke-dasharray:none"
         id="rect11-6"
         width="133.16318"
         height="11.960763"
         x="6"
         y="6"
         rx="17.999998" />
    </pattern>
    <pattern
       patternUnits="userSpaceOnUse"
       width="145.16317"
       height="23.960763"
       patternTransform="translate(194.64706,528.93461)"
       preserveAspectRatio="xMidYMid"
       id="pattern12">
      <rect
         style="fill:url(#pattern13);stroke:none"
         width="145.16318"
         height="23.960762"
         x="0"
         y="0"
         id="rect12" />
    </pattern>
    <pattern
       patternUnits="userSpaceOnUse"
       width="145.16317"
       height="23.960763"
       patternTransform="translate(194.64706,528.93461)"
       preserveAspectRatio="xMidYMid"
       id="pattern14"
       inkscape:label="pattern14">
      <rect
         style="fill:url(#pattern15);stroke:none"
         width="145.16318"
         height="23.960762"
         x="0"
         y="0"
         id="rect13" />
    </pattern>
  </defs>
  <g
     inkscape:label="Layer 1"
     inkscape:groupmode="layer"
     id="layer1">
    <path
       style="fill:#ffffff;fill-opacity:1;fill-rule:nonzero;stroke:#370188;stroke-width:1;stroke-dasharray:none;stroke-opacity:1"
       d="m 59.372169,54.989495 c 5.10121,1.67679 4.37052,4.71876 -0.921,3.49515"
       id="path61-9-5-3"
       sodipodi:nodetypes="cc" />
    <path
       style="fill:#ffffff;fill-opacity:1;fill-rule:nonzero;stroke:#370188;stroke-width:1;stroke-dasharray:none;stroke-opacity:1"
       d="m 37.2807,55.121355 c -5.10121,1.67679 -4.37052,4.71877 0.921,3.49515"
       id="path61-93-6"
       sodipodi:nodetypes="cc" />
    <path
       style="fill:#ffffff;fill-opacity:1;fill-rule:nonzero;stroke:#370188;stroke-width:1;stroke-dasharray:none;stroke-opacity:1"
       d="m 42.745029,50.348645 c -8.041789,-8.00016 -2.09653,-16.65638 5.93432,-16.35451 7.91054,0.29736 12.71512,9.18954 5.3572,16.33245 1.21394,7.86414 3.1749,22.21228 3.34838,32.96817 -0.51383,2.94278 -5.09001,2.82778 -5.42934,-0.45244 -0.33934,-3.28023 -4.41349,-3.76096 -4.59193,-0.0527 -0.15856,3.29512 -5.45225,3.28048 -5.58809,-0.0604 -0.79908,-5.49642 0.33478,-24.40613 0.96946,-32.38055 z"
       id="path49-6-3"
       sodipodi:nodetypes="csccssccc" />
    <path
       style="fill:#ffffff;fill-opacity:1;fill-rule:nonzero;stroke:#370188;stroke-width:1;stroke-dasharray:none;stroke-opacity:1"
       d="m 54.046359,50.051245 3.14802,22.52709 -16.02062,-0.0604 1.25597,-22.3581 4.74081,1.3262 1.27572,2.37425 1.16941,-2.30338 z"
       id="path56-7-2"
       sodipodi:nodetypes="cccccccc" />
    <path
       style="fill:#ffffff;fill-opacity:1;fill-rule:nonzero;stroke:#370188;stroke-width:1;stroke-dasharray:none;stroke-opacity:1"
       d="m 43.516439,52.127055 -6.417159,1.84227 1.08166,5.50788 4.527699,-0.96577"
       id="path57-2-5"
       sodipodi:nodetypes="cccc" />
    <path
       style="fill:#ffffff;fill-opacity:1;fill-rule:nonzero;stroke:#370188;stroke-width:1;stroke-dasharray:none;stroke-opacity:1"
       d="m 53.530459,51.890795 6.14929,2.02085 -1.08166,5.50788 -4.28805,-0.96577"
       id="path57-4-4-9"
       sodipodi:nodetypes="cccc" />
    <path
       style="fill:#ffffff;fill-opacity:1;fill-rule:nonzero;stroke:#370188;stroke-width:1;stroke-dasharray:none;stroke-opacity:1"
       d="m 42.416969,50.167435 -1.23297,1.89054 5.38395,1.64395 0.38143,-2.17858 z"
       id="path58-4-5"
       sodipodi:nodetypes="ccccc" />
    <path
       style="fill:#ffffff;fill-opacity:1;fill-rule:nonzero;stroke:#370188;stroke-width:1;stroke-dasharray:none;stroke-opacity:1"
       d="m 49.884699,51.441495 4.16322,-1.39736 1.23296,2.02725 -4.72023,1.53681 z"
       id="path59-0-6"
       sodipodi:nodetypes="ccccc" />
    <circle
       style="fill:#370188;fill-opacity:1;stroke:none;stroke-width:3.97515;stroke-dasharray:none;stroke-opacity:1"
       id="path9-5-7-5-2"
       cx="45.265385"
       cy="40.44685"
       r="0.83333331" />
    <circle
       style="fill:#370188;fill-opacity:1;stroke:none;stroke-width:3.97515;stroke-dasharray:none;stroke-opacity:1"
       id="path9-5-7-6-7-6"
       cx="51.269535"
       cy="40.477291"
       r="0.83333331" />
    <path
       style="fill:#ffffff;fill-opacity:1;fill-rule:nonzero;stroke:#370188;stroke-width:1;stroke-dasharray:none;stroke-opacity:1"
       d="m 43.586139,36.510645 c -6.804519,-18.68176 4.1429,-20.89995 3.02662,-0.38063"
       id="path67-8"
       sodipodi:nodetypes="cc" />
    <path
       style="fill:#5892fd;fill-opacity:1;fill-rule:nonzero;stroke:#370188;stroke-width:1;stroke-dasharray:none;stroke-opacity:1"
       d="m 40.12002,82.928995 8.372559,0.1301 1.03878,-4.89785 1.08049,4.87919 8.6141,-0.0324 -2.63096,-14.08942 -15.31411,0.004 z"
       id="path55-9-6"
       sodipodi:nodetypes="cccccccc" />
    <path
       style="fill:none;fill-opacity:1;fill-rule:nonzero;stroke:#370188;stroke-width:1;stroke-dasharray:none;stroke-opacity:1"
       d="m 49.208449,78.521355 1.54279,0.0348 -0.62112,-5.48558"
       id="path71-3"
       sodipodi:nodetypes="ccc" />
    <path
       style="fill:#fd8658;fill-opacity:1;fill-rule:nonzero;stroke:#370188;stroke-width:1;stroke-dasharray:none;stroke-opacity:1"
       d="m 48.437109,54.646475 -1.1362,8.593 1.35427,2.5338 1.39797,-2.49012 z"
       id="path75"
       sodipodi:nodetypes="ccccc" />
    <path
       style="fill:#fd8658;fill-opacity:1;fill-rule:nonzero;stroke:#370188;stroke-width:1;stroke-dasharray:none;stroke-opacity:1"
       d="m 48.438499,55.026465 1.0999,-2.78903 h -2.00339 z"
       id="path76"
       sodipodi:nodetypes="cccc" />
    <path
       style="fill:#b081f7;fill-opacity:1;fill-rule:nonzero;stroke:#370188;stroke-width:1;stroke-dasharray:none;stroke-opacity:1"
       d="m 47.503409,46.721105 2.47168,-2.44887"
       id="path77"
       sodipodi:nodetypes="cc" />
    <path
       style="fill:#b081f7;fill-opacity:1;fill-rule:nonzero;stroke:#370188;stroke-width:1;stroke-dasharray:none;stroke-opacity:1"
       d="m 49.975089,46.721105 -2.47168,-2.44887"
       id="path77-2"
       sodipodi:nodetypes="cc" />
    <rect
       style="fill:#ffffff;fill-opacity:1;fill-rule:nonzero;stroke:#370188;stroke-width:1;stroke-dasharray:none;stroke-opacity:1"
       id="rect78"
       width="3.2832749"
       height="3.4843071"
       x="43.699345"
       y="55.92382"
       rx="0.33333334"
       ry="0.33333334" />
    <path
       style="fill:#ffffff;fill-opacity:1;fill-rule:nonzero;stroke:#370188;stroke-width:1;stroke-dasharray:none;stroke-opacity:1"
       d="m 52.938839,36.596195 c 6.80452,-18.68176 -4.1429,-20.89995 -3.02662,-0.38063"
       id="path67-8-6"
       sodipodi:nodetypes="cc" />
    <path
       style="fill:#ffffff;fill-opacity:1;fill-rule:nonzero;stroke:#370188;stroke-width:1;stroke-dasharray:none;stroke-opacity:1"
       d="m 416.25161,48.467122 c 5.10121,1.67679 4.37052,4.71876 -0.921,3.49515"
       id="path61-9-5-3-0"
       sodipodi:nodetypes="cc" />
    <path
       style="fill:#ffffff;fill-opacity:1;fill-rule:nonzero;stroke:#370188;stroke-width:1;stroke-dasharray:none;stroke-opacity:1"
       d="m 394.16014,48.598982 c -5.10121,1.67679 -4.37052,4.71877 0.921,3.49515"
       id="path61-93-6-3"
       sodipodi:nodetypes="cc" />
    <path
       style="fill:#ffffff;fill-opacity:1;fill-rule:nonzero;stroke:#370188;stroke-width:1;stroke-dasharray:none;stroke-opacity:1"
       d="m 399.62447,43.826272 c -8.04179,-8.00016 -2.09653,-16.65638 5.93432,-16.35451 7.91054,0.29736 12.71512,9.18954 5.3572,16.33245 1.21394,7.86414 3.1749,22.21228 3.34838,32.96817 -0.51383,2.942778 -5.09001,2.827778 -5.42934,-0.45244 -0.33934,-3.28023 -4.41349,-3.76096 -4.59193,-0.0527 -0.15856,3.295118 -5.45225,3.280478 -5.58809,-0.0604 -0.79908,-5.49642 0.33478,-24.40613 0.96946,-32.38055 z"
       id="path49-6-3-0"
       sodipodi:nodetypes="csccssccc" />
    <path
       style="fill:#ffffff;fill-opacity:1;fill-rule:nonzero;stroke:#370188;stroke-width:1;stroke-dasharray:none;stroke-opacity:1"
       d="m 410.9258,43.528872 3.14802,22.52709 -16.02062,-0.0604 1.25597,-22.3581 4.74081,1.3262 1.27572,2.37425 1.16941,-2.30338 z"
       id="path56-7-2-1"
       sodipodi:nodetypes="cccccccc" />
    <path
       style="fill:#ffffff;fill-opacity:1;fill-rule:nonzero;stroke:#370188;stroke-width:1;stroke-dasharray:none;stroke-opacity:1"
       d="m 400.39588,45.604682 -6.41716,1.84227 1.08166,5.50788 4.5277,-0.96577"
       id="path57-2-5-9"
       sodipodi:nodetypes="cccc" />
    <path
       style="fill:#ffffff;fill-opacity:1;fill-rule:nonzero;stroke:#370188;stroke-width:1;stroke-dasharray:none;stroke-opacity:1"
       d="m 410.4099,45.368422 6.14929,2.02085 -1.08166,5.50788 -4.28805,-0.96577"
       id="path57-4-4-9-8"
       sodipodi:nodetypes="cccc" />
    <path
       style="fill:#ffffff;fill-opacity:1;fill-rule:nonzero;stroke:#370188;stroke-width:1;stroke-dasharray:none;stroke-opacity:1"
       d="m 399.29641,43.645062 -1.23297,1.89054 5.38395,1.64395 0.38143,-2.17858 z"
       id="path58-4-5-6"
       sodipodi:nodetypes="ccccc" />
    <path
       style="fill:#ffffff;fill-opacity:1;fill-rule:nonzero;stroke:#370188;stroke-width:1;stroke-dasharray:none;stroke-opacity:1"
       d="m 406.76414,44.919122 4.16322,-1.39736 1.23296,2.02725 -4.72023,1.53681 z"
       id="path59-0-6-9"
       sodipodi:nodetypes="ccccc" />
    <path
       style="fill:#ffffff;fill-opacity:1;fill-rule:nonzero;stroke:#370188;stroke-width:1;stroke-dasharray:none;stroke-opacity:1"
       d="m 400.46558,29.988272 c -6.80452,-18.68176 4.1429,-20.8999497 3.02662,-0.38063"
       id="path67-8-64"
       sodipodi:nodetypes="cc" />
    <path
       style="fill:#5892fd;fill-opacity:1;fill-rule:nonzero;stroke:#370188;stroke-width:1;stroke-dasharray:none;stroke-opacity:1"
       d="m 396.99946,76.406622 8.37256,0.1301 1.03878,-4.89785 1.08049,4.87919 8.6141,-0.0324 -2.63096,-14.08942 -15.31411,0.004 z"
       id="path55-9-6-4"
       sodipodi:nodetypes="cccccccc" />
    <path
       style="fill:none;fill-opacity:1;fill-rule:nonzero;stroke:#370188;stroke-width:1;stroke-dasharray:none;stroke-opacity:1"
       d="m 406.08789,71.998982 1.54279,0.0348 -0.62112,-5.48558"
       id="path71-3-8"
       sodipodi:nodetypes="ccc" />
    <path
       style="fill:#fd8658;fill-opacity:1;fill-rule:nonzero;stroke:#370188;stroke-width:1;stroke-dasharray:none;stroke-opacity:1"
       d="m 405.31655,48.124102 -1.1362,8.593 1.35427,2.5338 1.39797,-2.49012 z"
       id="path75-6"
       sodipodi:nodetypes="ccccc" />
    <path
       style="fill:#fd8658;fill-opacity:1;fill-rule:nonzero;stroke:#370188;stroke-width:1;stroke-dasharray:none;stroke-opacity:1"
       d="m 405.31794,48.504092 1.0999,-2.78903 h -2.00339 z"
       id="path76-1"
       sodipodi:nodetypes="cccc" />
    <path
       style="fill:#b081f7;fill-opacity:1;fill-rule:nonzero;stroke:#370188;stroke-width:1;stroke-dasharray:none;stroke-opacity:1"
       d="m 404.38285,40.198732 2.47168,-2.44887"
       id="path77-4"
       sodipodi:nodetypes="cc" />
    <path
       style="fill:#b081f7;fill-opacity:1;fill-rule:nonzero;stroke:#370188;stroke-width:1;stroke-dasharray:none;stroke-opacity:1"
       d="m 406.85453,40.198732 -2.47168,-2.44887"
       id="path77-2-0"
       sodipodi:nodetypes="cc" />
    <rect
       style="fill:#ffffff;fill-opacity:1;fill-rule:nonzero;stroke:#370188;stroke-width:1;stroke-dasharray:none;stroke-opacity:1"
       id="rect78-8"
       width="3.2832749"
       height="3.4843071"
       x="400.5788"
       y="49.401447"
       rx="0.33333334"
       ry="0.33333334" />
    <path
       style="fill:#ffffff;fill-opacity:1;fill-rule:nonzero;stroke:#370188;stroke-width:1;stroke-dasharray:none;stroke-opacity:1"
       d="m 409.81828,30.073822 c 6.80452,-18.68176 -4.1429,-20.8999497 -3.02662,-0.38063"
       id="path67-8-6-1"
       sodipodi:nodetypes="cc" />
    <path
       sodipodi:type="spiral"
       style="fill:none;fill-rule:evenodd;stroke:#370188;stroke-width:0.477792;stroke-dasharray:none;stroke-opacity:1"
       id="path2"
       sodipodi:cx="387.07599"
       sodipodi:cy="38.620319"
       sodipodi:expansion="1"
       sodipodi:revolution="3"
       sodipodi:radius="3.120249"
       sodipodi:argument="-10.70645"
       sodipodi:t0="0.07"
       d="m 386.85773,38.612066 c -0.13133,-0.187616 0.0555,-0.414843 0.23634,-0.469843 0.34116,-0.10378 0.66009,0.182576 0.71985,0.506001 0.0896,0.485126 -0.31049,0.910705 -0.77566,0.969862 -0.62747,0.0798 -1.16329,-0.438564 -1.21987,-1.045322 -0.0718,-0.769364 0.56666,-1.416823 1.31498,-1.469881 0.91108,-0.0646 1.67089,0.694761 1.71989,1.584643 0.058,1.052728 -0.82286,1.925286 -1.8543,1.9699 -1.19434,0.05166 -2.1799,-0.95097 -2.21991,-2.123964 -0.0456,-1.335914 1.07907,-2.434667 2.39362,-2.469919 1.47748,-0.03962 2.68954,1.207183 2.71993,2.663285 0.0338,1.619044 -1.33529,2.944501 -2.93295,2.969938 -0.26003,0.0041 -0.52045,-0.02487 -0.77328,-0.08571"
       transform="matrix(0.52324061,0,0,0.52324061,199.46099,13.803606)" />
    <path
       sodipodi:type="spiral"
       style="fill:none;fill-rule:evenodd;stroke:#370188;stroke-width:0.477792;stroke-dasharray:none;stroke-opacity:1"
       id="path2-7"
       sodipodi:cx="387.07599"
       sodipodi:cy="38.620319"
       sodipodi:expansion="1"
       sodipodi:revolution="3"
       sodipodi:radius="3.120249"
       sodipodi:argument="-10.70645"
       sodipodi:t0="0.07"
       d="m 386.85773,38.612066 c -0.13133,-0.187616 0.0555,-0.414843 0.23634,-0.469843 0.34116,-0.10378 0.66009,0.182576 0.71985,0.506001 0.0896,0.485126 -0.31049,0.910705 -0.77566,0.969862 -0.62747,0.0798 -1.16329,-0.438564 -1.21987,-1.045322 -0.0718,-0.769364 0.56666,-1.416823 1.31498,-1.469881 0.91108,-0.0646 1.67089,0.694761 1.71989,1.584643 0.058,1.052728 -0.82286,1.925286 -1.8543,1.9699 -1.19434,0.05166 -2.1799,-0.95097 -2.21991,-2.123964 -0.0456,-1.335914 1.07907,-2.434667 2.39362,-2.469919 1.47748,-0.03962 2.68954,1.207183 2.71993,2.663285 0.0338,1.619044 -1.33529,2.944501 -2.93295,2.969938 -0.26003,0.0041 -0.52045,-0.02487 -0.77328,-0.08571"
       transform="matrix(0.52324061,0,0,0.52324061,205.53882,13.736286)" />
  </g>
</svg>
