<?xml version="1.0" encoding="UTF-8" standalone="no"?>
<!-- Created with Inkscape (http://www.inkscape.org/) -->

<svg
   width="6480"
   height="3240"
   viewBox="0 0 540 270"
   version="1.1"
   id="svg1"
   inkscape:version="1.4 (e7c3feb1, 2024-10-09)"
   sodipodi:docname="snail-versions.svg"
   xmlns:inkscape="http://www.inkscape.org/namespaces/inkscape"
   xmlns:sodipodi="http://sodipodi.sourceforge.net/DTD/sodipodi-0.dtd"
   xmlns:xlink="http://www.w3.org/1999/xlink"
   xmlns="http://www.w3.org/2000/svg"
   xmlns:svg="http://www.w3.org/2000/svg">
  <sodipodi:namedview
     id="namedview1"
     pagecolor="#ffffff"
     bordercolor="#000000"
     borderopacity="0.25"
     inkscape:showpageshadow="2"
     inkscape:pageopacity="0.0"
     inkscape:pagecheckerboard="0"
     inkscape:deskcolor="#d1d1d1"
     inkscape:document-units="px"
     inkscape:zoom="0.78536557"
     inkscape:cx="1648.9136"
     inkscape:cy="825.09347"
     inkscape:window-width="1728"
     inkscape:window-height="1057"
     inkscape:window-x="2560"
     inkscape:window-y="355"
     inkscape:window-maximized="0"
     inkscape:current-layer="layer1"
     showguides="true"
     showgrid="false">
    <sodipodi:guide
       position="-112.46061,89.999674"
       orientation="0,-1"
       id="guide1"
       inkscape:locked="false" />
    <sodipodi:guide
       position="90,187.3597"
       orientation="1,0"
       id="guide2"
       inkscape:locked="false" />
    <sodipodi:guide
       position="0,209.35185"
       orientation="1,0"
       id="guide3"
       inkscape:locked="false" />
    <sodipodi:guide
       position="-10.710286,180"
       orientation="0,-1"
       id="guide4"
       inkscape:locked="false" />
    <sodipodi:guide
       position="180.00033,187.53841"
       orientation="1,0"
       id="guide5"
       inkscape:locked="false" />
    <sodipodi:guide
       position="269.96329,208.01051"
       orientation="1,0"
       id="guide6"
       inkscape:locked="false" />
    <sodipodi:guide
       position="360.00033,216.23047"
       orientation="1,0"
       id="guide7"
       inkscape:locked="false" />
    <sodipodi:guide
       position="449.99999,193.05214"
       orientation="1,0"
       id="guide8"
       inkscape:locked="false" />
    <sodipodi:guide
       position="-7.3948568,89.999674"
       orientation="0,-1"
       id="guide9"
       inkscape:locked="false" />
  </sodipodi:namedview>
  <defs
     id="defs1">
    <linearGradient
       id="swatch44"
       inkscape:swatch="solid">
      <stop
         style="stop-color:#ff80f1;stop-opacity:1;"
         offset="0"
         id="stop44" />
    </linearGradient>
    <linearGradient
       id="swatch43">
      <stop
         style="stop-color:#ff80f1;stop-opacity:1;"
         offset="0"
         id="stop43" />
    </linearGradient>
    <pattern
       inkscape:collect="always"
       xlink:href="#pattern12"
       preserveAspectRatio="xMidYMid"
       id="pattern15"
       patternTransform="translate(-4.2089842e-6,-2.1347655e-5)" />
    <pattern
       inkscape:collect="always"
       xlink:href="#pattern11"
       preserveAspectRatio="xMidYMid"
       id="pattern13"
       patternTransform="translate(-4.2089842e-6,-1.1347656e-5)" />
    <pattern
       patternUnits="userSpaceOnUse"
       width="145.16318"
       height="23.960763"
       patternTransform="translate(194.64706,528.93462)"
       preserveAspectRatio="xMidYMid"
       id="pattern11">
      <rect
         style="fill:#ffffff;stroke:#6002ee;stroke-width:12;stroke-dasharray:none"
         id="rect11-6"
         width="133.16318"
         height="11.960763"
         x="6"
         y="6"
         rx="17.999998" />
    </pattern>
    <pattern
       patternUnits="userSpaceOnUse"
       width="145.16317"
       height="23.960763"
       patternTransform="translate(194.64706,528.93461)"
       preserveAspectRatio="xMidYMid"
       id="pattern12">
      <rect
         style="fill:url(#pattern13);stroke:none"
         width="145.16318"
         height="23.960762"
         x="0"
         y="0"
         id="rect12" />
    </pattern>
    <pattern
       patternUnits="userSpaceOnUse"
       width="145.16317"
       height="23.960763"
       patternTransform="translate(194.64706,528.93461)"
       preserveAspectRatio="xMidYMid"
       id="pattern14"
       inkscape:label="pattern14">
      <rect
         style="fill:url(#pattern15);stroke:none"
         width="145.16318"
         height="23.960762"
         x="0"
         y="0"
         id="rect13" />
    </pattern>
    <clipPath
       clipPathUnits="userSpaceOnUse"
       id="clipPath34">
      <rect
         style="fill:none;fill-opacity:1;fill-rule:nonzero;stroke:#370188;stroke-width:3.175;stroke-dasharray:none;stroke-opacity:1"
         id="rect35"
         width="282.57498"
         height="354.01248"
         x="1.5875"
         y="15.875003" />
    </clipPath>
    <clipPath
       clipPathUnits="userSpaceOnUse"
       id="clipPath35">
      <rect
         style="fill:none;fill-opacity:1;fill-rule:nonzero;stroke:#370188;stroke-width:3.175;stroke-dasharray:none;stroke-opacity:1"
         id="rect36"
         width="282.57498"
         height="354.01248"
         x="1.5875"
         y="15.875003" />
    </clipPath>
    <clipPath
       clipPathUnits="userSpaceOnUse"
       id="clipPath33">
      <rect
         style="fill:none;fill-opacity:1;fill-rule:nonzero;stroke:#370188;stroke-width:3.175;stroke-dasharray:none;stroke-opacity:1"
         id="rect34"
         width="282.57498"
         height="354.01248"
         x="1.5875"
         y="15.875003"
         transform="scale(-1,1)" />
    </clipPath>
    <clipPath
       clipPathUnits="userSpaceOnUse"
       id="clipPath32">
      <rect
         style="fill:none;fill-opacity:1;fill-rule:nonzero;stroke:#370188;stroke-width:3.175;stroke-dasharray:none;stroke-opacity:1"
         id="rect33"
         width="282.57498"
         height="354.01248"
         x="1.5875"
         y="15.875003" />
    </clipPath>
  </defs>
  <g
     inkscape:label="Layer 1"
     inkscape:groupmode="layer"
     id="layer1">
    <path
       style="fill:#bb7a02;fill-opacity:1;stroke:#370188;stroke-width:1;stroke-dasharray:none;stroke-opacity:1"
       d="m 32.866216,80.428217 10.07164,1.854506 13.26439,-1.909846 -4.24343,-11.454819 -15.18611,-0.931933 z"
       id="path31"
       sodipodi:nodetypes="cccccc" />
    <path
       style="fill:#fdc458;fill-opacity:1;stroke:#370188;stroke-width:1;stroke-dasharray:none;stroke-opacity:1"
       d="m 27.903006,67.648699 c -1.751097,0.302522 -2.593294,1.360662 -3.137882,1.940006 -0.828771,0.881665 -1.57216,0.757981 -1.46695,-0.229668 0.188201,-1.766725 3.209736,-3.631771 4.473222,-3.750084"
       id="path30"
       sodipodi:nodetypes="cssc" />
    <path
       style="fill:#fdc458;fill-opacity:1;stroke:#370188;stroke-width:1;stroke-dasharray:none;stroke-opacity:1"
       d="m 32.995026,56.621894 c -3.82065,0.0838 -5.00544,3.521944 -5.08658,5.678286 -0.11334,3.012028 -0.438201,12.916805 0.60521,16.643238 1.0434,3.726433 1.63962,4.918891 7.60191,5.067949 5.9623,0.149057 20.86803,-0.149058 20.86803,-0.149058 0,0 -15.87498,-1.807224 -17.66367,-4.937428 -1.78869,-3.130204 -2.10274,-13.245437 -2.0119,-16.526826 0.0653,-2.357491 -0.73563,-5.627104 -4.313,-5.776161 z"
       id="path26"
       sodipodi:nodetypes="cssscssc" />
    <path
       sodipodi:type="spiral"
       style="fill:#bb7a02;fill-opacity:1;fill-rule:evenodd;stroke:#370188;stroke-width:0.695287;stroke-dasharray:none;stroke-opacity:1"
       id="path27"
       sodipodi:cx="105.75211"
       sodipodi:cy="39.133308"
       sodipodi:expansion="1.9"
       sodipodi:revolution="1.8526812"
       sodipodi:radius="10.963904"
       sodipodi:argument="-18.497511"
       sodipodi:t0="0.12886804"
       d="m 105.69006,39.348002 c -0.32401,0.23185 -0.69518,-0.169724 -0.77545,-0.456763 -0.23505,-0.84048 0.61833,-1.513252 1.36817,-1.59391 1.54382,-0.166068 2.64192,1.346958 2.66371,2.75927 0.0376,2.433734 -2.34374,4.074062 -4.61129,3.978909 -3.50843,-0.147224 -5.803332,-3.600767 -5.534662,-6.911455 0.386726,-4.765445 5.112132,-7.824404 9.650082,-7.326992 2.50124,0.274164 4.82855,1.527219 6.51074,3.386706"
       transform="matrix(-1.4382541,0,0,1.4382541,202.99324,19.315847)" />
    <circle
       style="fill:#fdc458;fill-opacity:1;stroke:#370188;stroke-width:1;stroke-dasharray:none;stroke-opacity:1"
       id="path28"
       cx="26.832586"
       cy="50.778793"
       r="0.77635616" />
    <path
       style="fill:#ffffff;fill-opacity:1;stroke:#370188;stroke-width:1;stroke-dasharray:none;stroke-opacity:1"
       d="M 29.782736,57.517565 27.298404,51.679367"
       id="path29" />
    <circle
       style="fill:#fdc458;fill-opacity:1;stroke:#370188;stroke-width:1;stroke-dasharray:none;stroke-opacity:1"
       id="path28-0"
       cx="-38.535442"
       cy="50.677929"
       r="0.77635616"
       transform="scale(-1,1)" />
    <path
       style="fill:#ffffff;fill-opacity:1;stroke:#370188;stroke-width:1;stroke-dasharray:none;stroke-opacity:1"
       d="m 35.585296,57.4167 2.48433,-5.838198"
       id="path29-6" />
    <circle
       style="fill:#370188;fill-opacity:1;stroke:none;stroke-width:3.97515;stroke-dasharray:none;stroke-opacity:1"
       id="path9"
       cx="30.867224"
       cy="60.996281"
       r="0.83333331" />
    <circle
       style="fill:#370188;fill-opacity:1;stroke:none;stroke-width:3.97515;stroke-dasharray:none;stroke-opacity:1"
       id="path9-5"
       cx="34.041805"
       cy="61.174099"
       r="0.83333331" />
    <path
       style="fill:#fdc458;fill-opacity:1;stroke:#370188;stroke-width:1;stroke-dasharray:none;stroke-opacity:1"
       d="m 36.626476,67.471943 c 1.75109,0.302522 2.49446,1.953646 3.03905,2.53299 0.82877,0.881665 1.67099,0.527376 1.56578,-0.460273 -0.1882,-1.766725 -3.20974,-3.99415 -4.47322,-4.112463"
       id="path30-2"
       sodipodi:nodetypes="cssc" />
    <path
       style="mix-blend-mode:normal;fill:#02ee25;fill-opacity:1;fill-rule:nonzero;stroke:#370188;stroke-width:1;stroke-dasharray:none;stroke-opacity:1"
       d="m 27.070608,65.731635 0.511927,2.119187 -0.21218,1.637019 c 0,1.500673 -0.0199,9.956147 -2.667219,13.291934 4.98838,0.17497 25.14443,-0.04888 27.8223,-0.05739 -11.67011,-1.571153 -14.97834,-12.802599 -15.55469,-13.933461 -0.083,-0.162765 -0.0732,-0.840823 -0.0732,-0.840823 l 0.84366,-1.967865 -0.91598,-0.979057 -1.56457,1.954961 -6.1442,-0.05115 -1.0867,-1.986774 z"
       id="path33"
       sodipodi:nodetypes="cccccsccccccc" />
    <path
       style="fill:#bb7a02;fill-opacity:1;stroke:#370188;stroke-width:1;stroke-dasharray:none;stroke-opacity:1"
       d="m 125.96713,81.721648 10.07164,1.854506 13.26439,-1.909846 -4.24343,-11.454819 -15.18611,-0.931933 z"
       id="path31-3"
       sodipodi:nodetypes="cccccc" />
    <path
       style="fill:#fdc458;fill-opacity:1;stroke:#370188;stroke-width:1;stroke-dasharray:none;stroke-opacity:1"
       d="m 121.00392,68.94213 c -1.7511,0.302522 -2.59329,1.360662 -3.13788,1.940006 -0.82877,0.881665 -1.57216,0.757981 -1.46695,-0.229668 0.1882,-1.766725 3.20973,-3.631771 4.47322,-3.750084"
       id="path30-6"
       sodipodi:nodetypes="cssc" />
    <path
       style="fill:#fdc458;fill-opacity:1;stroke:#370188;stroke-width:1;stroke-dasharray:none;stroke-opacity:1"
       d="m 126.09594,57.915325 c -3.82065,0.0838 -5.00544,3.521944 -5.08658,5.678286 -0.11334,3.012028 -0.4382,12.916805 0.60521,16.643238 1.0434,3.726433 1.63962,4.918891 7.60191,5.067949 5.9623,0.149057 20.86803,-0.149058 20.86803,-0.149058 0,0 -15.87498,-1.807224 -17.66367,-4.937428 -1.78869,-3.130204 -2.10274,-13.245437 -2.0119,-16.526826 0.0653,-2.357491 -0.73563,-5.627104 -4.313,-5.776161 z"
       id="path26-4"
       sodipodi:nodetypes="cssscssc" />
    <path
       sodipodi:type="spiral"
       style="fill:#bb7a02;fill-opacity:1;fill-rule:evenodd;stroke:#370188;stroke-width:0.695287;stroke-dasharray:none;stroke-opacity:1"
       id="path27-2"
       sodipodi:cx="105.75211"
       sodipodi:cy="39.133308"
       sodipodi:expansion="1.9"
       sodipodi:revolution="1.8526812"
       sodipodi:radius="10.963904"
       sodipodi:argument="-18.497511"
       sodipodi:t0="0.12886804"
       d="m 105.69006,39.348002 c -0.32401,0.23185 -0.69518,-0.169724 -0.77545,-0.456763 -0.23505,-0.84048 0.61833,-1.513252 1.36817,-1.59391 1.54382,-0.166068 2.64192,1.346958 2.66371,2.75927 0.0376,2.433734 -2.34374,4.074062 -4.61129,3.978909 -3.50843,-0.147224 -5.803332,-3.600767 -5.534662,-6.911455 0.386726,-4.765445 5.112132,-7.824404 9.650082,-7.326992 2.50124,0.274164 4.82855,1.527219 6.51074,3.386706"
       transform="matrix(-1.4382541,0,0,1.4382541,296.09415,20.609278)" />
    <circle
       style="fill:#fdc458;fill-opacity:1;stroke:#370188;stroke-width:1;stroke-dasharray:none;stroke-opacity:1"
       id="path28-9"
       cx="119.9335"
       cy="52.072227"
       r="0.77635616" />
    <path
       style="fill:#ffffff;fill-opacity:1;stroke:#370188;stroke-width:1;stroke-dasharray:none;stroke-opacity:1"
       d="m 122.88365,58.810996 -2.48433,-5.838198"
       id="path29-2" />
    <circle
       style="fill:#fdc458;fill-opacity:1;stroke:#370188;stroke-width:1;stroke-dasharray:none;stroke-opacity:1"
       id="path28-0-2"
       cx="-131.63637"
       cy="51.971363"
       r="0.77635616"
       transform="scale(-1,1)" />
    <path
       style="fill:#ffffff;fill-opacity:1;stroke:#370188;stroke-width:1;stroke-dasharray:none;stroke-opacity:1"
       d="m 128.68621,58.710131 2.48433,-5.838198"
       id="path29-6-1" />
    <path
       style="fill:#fdc458;fill-opacity:1;stroke:#370188;stroke-width:1;stroke-dasharray:none;stroke-opacity:1"
       d="m 129.72739,68.765374 c 1.75109,0.302522 2.49446,1.953646 3.03905,2.53299 0.82877,0.881665 1.67099,0.527376 1.56578,-0.460273 -0.1882,-1.766725 -3.20974,-3.99415 -4.47322,-4.112463"
       id="path30-2-4"
       sodipodi:nodetypes="cssc" />
    <path
       style="mix-blend-mode:normal;fill:#02ee25;fill-opacity:1;fill-rule:nonzero;stroke:#370188;stroke-width:1;stroke-dasharray:none;stroke-opacity:1"
       d="m 120.17152,67.025066 0.51193,2.119187 -0.21218,1.637019 c 0,1.500673 -0.0199,9.956147 -2.66722,13.291934 4.98838,0.17497 25.14443,-0.04888 27.8223,-0.05739 -11.67011,-1.571153 -14.97834,-12.802599 -15.55469,-13.933461 -0.083,-0.162765 -0.0732,-0.840823 -0.0732,-0.840823 l 0.84366,-1.967865 -0.91598,-0.979057 -1.56457,1.954961 -6.1442,-0.05115 -1.0867,-1.986774 z"
       id="path33-0"
       sodipodi:nodetypes="cccccsccccccc" />
    <path
       style="fill:#fdc458;fill-opacity:1;stroke:#370188;stroke-width:1;stroke-dasharray:none;stroke-opacity:1"
       d="m 25.948921,154.05496 c -1.751096,0.30253 -2.593294,1.36066 -3.13788,1.94001 -0.828772,0.88167 -1.572161,0.75798 -1.466951,-0.22967 0.188201,-1.76672 3.209735,-3.63177 4.473222,-3.75008"
       id="path30-7"
       sodipodi:nodetypes="cssc" />
    <path
       style="fill:#fdc458;fill-opacity:1;stroke:#370188;stroke-width:3.175;stroke-dasharray:none;stroke-opacity:1"
       d="m 224.55052,197.44576 c -12.13057,0.26606 -15.89228,11.18217 -16.1499,18.02856 -0.35985,9.56318 -1.39128,41.01085 1.92155,52.84227 3.31279,11.83143 5.20579,15.61748 24.13606,16.09074 18.9303,0.47326 66.25599,-0.47326 66.25599,-0.47326 0,0 -50.40306,-5.73793 -56.08215,-15.67633 -5.67909,-9.9384 -6.6762,-42.05426 -6.38778,-52.47267 0.20733,-7.48504 -2.33563,-17.86606 -13.69377,-18.33931 z"
       id="path26-6"
       sodipodi:nodetypes="cssscssc"
       clip-path="url(#clipPath34)"
       transform="matrix(0.31496063,0,0,0.31496063,-39.68363,80.840519)" />
    <path
       style="fill:#bb7a02;fill-opacity:1;stroke:#370188;stroke-width:3.175;stroke-dasharray:none;stroke-opacity:1"
       d="m 224.14154,273.03083 31.97746,5.88806 23.05606,0.40001 19.05838,-6.46377 -13.47289,-36.36905 -62.75623,-3.08099 z"
       id="path31-2"
       sodipodi:nodetypes="ccccccc"
       clip-path="url(#clipPath35)"
       transform="matrix(0.31496063,0,0,0.31496063,-39.049784,81.140762)" />
    <circle
       style="fill:#fdc458;fill-opacity:1;stroke:#370188;stroke-width:1;stroke-dasharray:none;stroke-opacity:1"
       id="path28-8"
       cx="24.878502"
       cy="137.18506"
       r="0.77635616" />
    <path
       style="fill:#ffffff;fill-opacity:1;stroke:#370188;stroke-width:1;stroke-dasharray:none;stroke-opacity:1"
       d="m 27.82865,143.92383 -2.48433,-5.8382"
       id="path29-3" />
    <circle
       style="fill:#fdc458;fill-opacity:1;stroke:#370188;stroke-width:3.175;stroke-dasharray:none;stroke-opacity:1"
       id="path28-0-8"
       cx="-242.14134"
       cy="178.57367"
       r="2.4649308"
       transform="matrix(-0.31496063,0,0,0.31496063,-39.68363,80.840519)"
       clip-path="url(#clipPath33)" />
    <path
       style="fill:#ffffff;fill-opacity:1;stroke:#370188;stroke-width:1;stroke-dasharray:none;stroke-opacity:1"
       d="m 33.631211,143.82297 2.484331,-5.8382"
       id="path29-6-4" />
    <path
       style="mix-blend-mode:normal;fill:#02ee25;fill-opacity:1;fill-rule:nonzero;stroke:#370188;stroke-width:3.175;stroke-dasharray:none;stroke-opacity:1"
       d="m 205.74049,226.36918 1.62537,6.72842 -0.67367,5.19754 c 0,4.76463 -0.0632,31.61076 -8.46842,42.20189 15.8381,0.55553 79.83356,-0.1552 88.3358,-0.18222 -37.7825,1.13922 -58.0682,-12.11164 -59.33911,-26.02342 0.36421,-2.27978 4.38098,-11.00972 9.95297,-18.21531 0.35485,-0.45889 -0.23241,-2.66962 -0.23241,-2.66962 l 2.67862,-6.24797 -2.90824,-3.1085 -4.96751,6.207 -19.50783,-0.1624 -3.45028,-6.30801 z"
       id="path33-9"
       sodipodi:nodetypes="cccccccccccccc"
       clip-path="url(#clipPath32)"
       transform="matrix(0.31496063,0,0,0.31496063,-39.68363,80.840519)" />
    <path
       sodipodi:type="spiral"
       style="fill:#bb7a02;fill-opacity:1;fill-rule:evenodd;stroke:#370188;stroke-width:0.695287;stroke-dasharray:none;stroke-opacity:1"
       id="path27-6"
       sodipodi:cx="105.75211"
       sodipodi:cy="39.133308"
       sodipodi:expansion="1.9"
       sodipodi:revolution="1.9334221"
       sodipodi:radius="11.889563"
       sodipodi:argument="-18.497511"
       sodipodi:t0="0.12348633"
       d="m 105.69006,39.348002 c -0.32401,0.231852 -0.69518,-0.169723 -0.77546,-0.456763 -0.23505,-0.840481 0.61834,-1.513255 1.36818,-1.593915 1.54382,-0.16607 2.64192,1.346958 2.66372,2.759274 0.0376,2.433739 -2.34375,4.074075 -4.6113,3.978925 -3.50844,-0.14722 -5.803349,-3.60077 -5.534683,-6.911467 0.386721,-4.765458 5.112133,-7.824431 9.650103,-7.327023 4.56164,0.500002 8.17504,4.151459 9.16495,8.548855"
       transform="matrix(-1.438254,0,0,1.438254,201.03915,105.72211)" />
    <path
       style="fill:none;stroke:#370188;stroke-width:1"
       d="m 123.28515,62.561615 c 0.12602,-0.96816 1.49259,-1.0014 1.78563,-0.0736"
       id="path1"
       sodipodi:nodetypes="cc" />
    <path
       style="fill:none;stroke:#370188;stroke-width:1"
       d="m 126.45754,62.56162 c 0.12602,-0.96816 1.49259,-1.00139 1.78563,-0.0736"
       id="path1-0"
       sodipodi:nodetypes="cc" />
    <path
       style="fill:#bb7a02;fill-opacity:1;stroke:#370188;stroke-width:1;stroke-dasharray:none;stroke-opacity:1"
       d="M 216.4278,81.004394 226.49944,82.8589 239.76383,80.949054 235.5204,69.494235 220.33429,68.562302 Z"
       id="path31-3-5"
       sodipodi:nodetypes="cccccc" />
    <path
       style="fill:#fdc458;fill-opacity:1;stroke:#370188;stroke-width:1;stroke-dasharray:none;stroke-opacity:1"
       d="m 211.46459,68.224876 c -1.7511,0.302522 -2.59329,1.360662 -3.13788,1.940006 -0.82877,0.881665 -1.57216,0.757981 -1.46695,-0.229668 0.1882,-1.766725 3.20973,-3.631771 4.47322,-3.750084"
       id="path30-6-0"
       sodipodi:nodetypes="cssc" />
    <path
       style="fill:#fdc458;fill-opacity:1;stroke:#370188;stroke-width:1;stroke-dasharray:none;stroke-opacity:1"
       d="m 216.55661,57.198071 c -3.82065,0.0838 -5.00544,3.521944 -5.08658,5.678286 -0.11334,3.012028 -0.4382,12.916805 0.60521,16.643238 1.0434,3.726433 1.63962,4.918891 7.60191,5.067949 5.9623,0.149057 20.86803,-0.149058 20.86803,-0.149058 0,0 -15.87498,-1.807224 -17.66367,-4.937428 -1.78869,-3.130204 -2.10274,-13.245437 -2.0119,-16.526826 0.0653,-2.357491 -0.73563,-5.627104 -4.313,-5.776161 z"
       id="path26-4-2"
       sodipodi:nodetypes="cssscssc" />
    <path
       sodipodi:type="spiral"
       style="fill:#bb7a02;fill-opacity:1;fill-rule:evenodd;stroke:#370188;stroke-width:0.695287;stroke-dasharray:none;stroke-opacity:1"
       id="path27-2-5"
       sodipodi:cx="105.75211"
       sodipodi:cy="39.133308"
       sodipodi:expansion="1.9"
       sodipodi:revolution="1.8526812"
       sodipodi:radius="10.963904"
       sodipodi:argument="-18.497511"
       sodipodi:t0="0.12886804"
       d="m 105.69006,39.348002 c -0.32401,0.23185 -0.69518,-0.169724 -0.77545,-0.456763 -0.23505,-0.84048 0.61833,-1.513252 1.36817,-1.59391 1.54382,-0.166068 2.64192,1.346958 2.66371,2.75927 0.0376,2.433734 -2.34374,4.074062 -4.61129,3.978909 -3.50843,-0.147224 -5.803332,-3.600767 -5.534662,-6.911455 0.386726,-4.765445 5.112132,-7.824404 9.650082,-7.326992 2.50124,0.274164 4.82855,1.527219 6.51074,3.386706"
       transform="matrix(-1.4382541,0,0,1.4382541,386.55482,19.892024)" />
    <circle
       style="fill:#fdc458;fill-opacity:1;stroke:#370188;stroke-width:1;stroke-dasharray:none;stroke-opacity:1"
       id="path28-9-4"
       cx="210.39417"
       cy="51.354973"
       r="0.77635616" />
    <path
       style="fill:#ffffff;fill-opacity:1;stroke:#370188;stroke-width:1;stroke-dasharray:none;stroke-opacity:1"
       d="m 213.34432,58.093742 -2.48433,-5.838198"
       id="path29-2-2" />
    <circle
       style="fill:#fdc458;fill-opacity:1;stroke:#370188;stroke-width:1;stroke-dasharray:none;stroke-opacity:1"
       id="path28-0-2-1"
       cx="-222.09703"
       cy="51.254112"
       r="0.77635616"
       transform="scale(-1,1)" />
    <path
       style="fill:#ffffff;fill-opacity:1;stroke:#370188;stroke-width:1;stroke-dasharray:none;stroke-opacity:1"
       d="m 219.14688,57.992877 2.48433,-5.838198"
       id="path29-6-1-5" />
    <path
       style="fill:#fdc458;fill-opacity:1;stroke:#370188;stroke-width:1;stroke-dasharray:none;stroke-opacity:1"
       d="m 220.18806,68.04812 c 1.75109,0.302522 2.49446,1.953646 3.03905,2.53299 0.82877,0.881665 1.67099,0.527376 1.56578,-0.460273 -0.1882,-1.766725 -3.20974,-3.99415 -4.47322,-4.112463"
       id="path30-2-4-1"
       sodipodi:nodetypes="cssc" />
    <path
       style="mix-blend-mode:normal;fill:#02ee25;fill-opacity:1;fill-rule:nonzero;stroke:#370188;stroke-width:1;stroke-dasharray:none;stroke-opacity:1"
       d="m 210.63219,66.307812 0.51193,2.119187 -0.21218,1.637019 c 0,1.500673 -0.0199,9.956147 -2.66722,13.291934 4.98838,0.17497 25.14443,-0.04888 27.8223,-0.05739 -11.67011,-1.571153 -14.97834,-12.802599 -15.55469,-13.933461 -0.083,-0.162765 -0.0732,-0.840823 -0.0732,-0.840823 l 0.84366,-1.967865 -0.91598,-0.979057 -1.56457,1.954961 -6.1442,-0.05115 -1.0867,-1.986774 z"
       id="path33-0-6"
       sodipodi:nodetypes="cccccsccccccc" />
    <ellipse
       style="fill:#ffffff;fill-opacity:1;stroke:#370188;stroke-width:0.5;stroke-dasharray:none;stroke-opacity:1"
       id="path9-9"
       cx="214.67"
       cy="61.72823"
       rx="0.9684661"
       ry="1.3624053" />
    <ellipse
       style="fill:#ffffff;fill-opacity:1;stroke:#370188;stroke-width:0.5;stroke-dasharray:none;stroke-opacity:1"
       id="path9-9-0"
       cx="217.64848"
       cy="61.916393"
       rx="0.9684661"
       ry="1.3624053" />
  </g>
</svg>
