<?xml version="1.0" encoding="UTF-8" standalone="no"?>
<!-- Created with Inkscape (http://www.inkscape.org/) -->

<svg
   width="6480"
   height="3240"
   viewBox="0 0 540 270"
   version="1.1"
   id="svg1"
   inkscape:version="1.4 (e7c3feb1, 2024-10-09)"
   sodipodi:docname="tim-versions.svg"
   xmlns:inkscape="http://www.inkscape.org/namespaces/inkscape"
   xmlns:sodipodi="http://sodipodi.sourceforge.net/DTD/sodipodi-0.dtd"
   xmlns:xlink="http://www.w3.org/1999/xlink"
   xmlns="http://www.w3.org/2000/svg"
   xmlns:svg="http://www.w3.org/2000/svg">
  <sodipodi:namedview
     id="namedview1"
     pagecolor="#ffffff"
     bordercolor="#000000"
     borderopacity="0.25"
     inkscape:showpageshadow="2"
     inkscape:pageopacity="0.0"
     inkscape:pagecheckerboard="0"
     inkscape:deskcolor="#d1d1d1"
     inkscape:document-units="px"
     inkscape:zoom="0.38795923"
     inkscape:cx="1989.8998"
     inkscape:cy="1025.881"
     inkscape:window-width="1728"
     inkscape:window-height="1057"
     inkscape:window-x="2560"
     inkscape:window-y="355"
     inkscape:window-maximized="0"
     inkscape:current-layer="layer1"
     showguides="true"
     showgrid="false">
    <sodipodi:guide
       position="-112.46061,89.999674"
       orientation="0,-1"
       id="guide1"
       inkscape:locked="false" />
    <sodipodi:guide
       position="90,187.3597"
       orientation="1,0"
       id="guide2"
       inkscape:locked="false" />
    <sodipodi:guide
       position="0,209.35185"
       orientation="1,0"
       id="guide3"
       inkscape:locked="false" />
    <sodipodi:guide
       position="-10.710286,180"
       orientation="0,-1"
       id="guide4"
       inkscape:locked="false" />
    <sodipodi:guide
       position="180.00033,187.53841"
       orientation="1,0"
       id="guide5"
       inkscape:locked="false" />
    <sodipodi:guide
       position="269.96329,208.01051"
       orientation="1,0"
       id="guide6"
       inkscape:locked="false" />
    <sodipodi:guide
       position="360.00033,216.23047"
       orientation="1,0"
       id="guide7"
       inkscape:locked="false" />
    <sodipodi:guide
       position="449.99999,193.05214"
       orientation="1,0"
       id="guide8"
       inkscape:locked="false" />
    <sodipodi:guide
       position="-7.3948568,89.999674"
       orientation="0,-1"
       id="guide9"
       inkscape:locked="false" />
  </sodipodi:namedview>
  <defs
     id="defs1">
    <linearGradient
       id="swatch44"
       inkscape:swatch="solid">
      <stop
         style="stop-color:#ff80f1;stop-opacity:1;"
         offset="0"
         id="stop44" />
    </linearGradient>
    <linearGradient
       id="swatch43">
      <stop
         style="stop-color:#ff80f1;stop-opacity:1;"
         offset="0"
         id="stop43" />
    </linearGradient>
    <pattern
       inkscape:collect="always"
       xlink:href="#pattern12"
       preserveAspectRatio="xMidYMid"
       id="pattern15"
       patternTransform="translate(-4.2089842e-6,-2.1347655e-5)" />
    <pattern
       inkscape:collect="always"
       xlink:href="#pattern11"
       preserveAspectRatio="xMidYMid"
       id="pattern13"
       patternTransform="translate(-4.2089842e-6,-1.1347656e-5)" />
    <pattern
       patternUnits="userSpaceOnUse"
       width="145.16318"
       height="23.960763"
       patternTransform="translate(194.64706,528.93462)"
       preserveAspectRatio="xMidYMid"
       id="pattern11">
      <rect
         style="fill:#ffffff;stroke:#6002ee;stroke-width:12;stroke-dasharray:none"
         id="rect11-6"
         width="133.16318"
         height="11.960763"
         x="6"
         y="6"
         rx="17.999998" />
    </pattern>
    <pattern
       patternUnits="userSpaceOnUse"
       width="145.16317"
       height="23.960763"
       patternTransform="translate(194.64706,528.93461)"
       preserveAspectRatio="xMidYMid"
       id="pattern12">
      <rect
         style="fill:url(#pattern13);stroke:none"
         width="145.16318"
         height="23.960762"
         x="0"
         y="0"
         id="rect12" />
    </pattern>
    <pattern
       patternUnits="userSpaceOnUse"
       width="145.16317"
       height="23.960763"
       patternTransform="translate(194.64706,528.93461)"
       preserveAspectRatio="xMidYMid"
       id="pattern14"
       inkscape:label="pattern14">
      <rect
         style="fill:url(#pattern15);stroke:none"
         width="145.16318"
         height="23.960762"
         x="0"
         y="0"
         id="rect13" />
    </pattern>
  </defs>
  <g
     inkscape:label="Layer 1"
     inkscape:groupmode="layer"
     id="layer1">
    <path
       style="fill:#9a58fd;fill-opacity:1;stroke:#370188;stroke-width:0.999972;stroke-dasharray:none;stroke-opacity:1"
       d="m 35.333612,79.036924 -4.30674,0.258101 2.33587,-2.958299 -3.76046,-1.331002 2.24053,-1.798579 -3.25383,-1.854281 1.84886,-1.983489 -3.46145,-1.138158 2.28707,-2.27685 -3.79978,-1.237751 1.93354,-1.891821 -2.67081,-2.092129 2.5862,-1.84571 -2.80047,-1.876281 2.40947,-1.75296 -2.85435,-1.768907 1.81072,-1.706952 -2.22476,-1.807659 2.93293,-1.84469 -2.34816,-1.984611 2.0245,-1.7688 -1.34897,-3.30663 2.62319,-0.585591 -0.4277,-3.136387 3.2846,-0.155052 -0.3064,-3.71988 2.8245,0.0445 0.446,-4.121089 3.39284,1.56714 0.66036,-3.25895 2.94789,2.08987 1.61198,-2.93578 2.36438,2.75141 3.03991,-2.75141 1.40783,3.32308 4.01129,-2.09315 0.20031,3.425601 4.63928,-0.868101 -0.18402,3.17599 3.37399,0.586769 -1.44425,3.083871 3.59558,1.176101 -2.29681,2.946727 2.84158,1.806051 -1.59916,1.929861 2.5736,2.424539 -1.6776,2.121511 2.11633,2.780668 -1.89432,1.60355 1.34027,3.322472 -2.36001,0.739569 2.29003,2.535921 -2.58028,1.597159 2.38266,3.27211 -2.77269,1.37001 2.52405,3.318661 -2.36186,1.076838 1.40268,3.172652 -3.91114,0.234749 0.41218,3.82264 -2.80271,-1.443411 -0.78264,3.357131 -3.37356,-1.675641 -0.95463,2.231209 -2.43223,-3.235439 -1.75994,4.240491 -2.35726,-2.54645 -2.47493,2.46153 -2.84721,-1.8897 -2.97122,1.483899 z"
       id="path1"
       sodipodi:nodetypes="ccccccccccccccccccccccccccccccccccccccccccccccccccccccccccccccccccccccc" />
    <path
       style="fill:#ffffff;fill-opacity:1;stroke:#370188;stroke-width:0.999972;stroke-dasharray:none;stroke-opacity:1"
       d="m 35.592702,68.098666 c 0,0 -0.25598,-0.610479 -0.81048,-2.545389 -0.5545,-1.934932 -2.05517,-10.077301 -2.05517,-10.077301 -0.20941,-1.83976 0.10706,-6.346709 0.26081,-8.716359 0.13398,-2.06468 2.16632,-5.765112 3.72303,-7.88811 1.35418,-1.84681 4.13578,-2.93384 6.3437,-3.512419 3.14675,-0.824592 8.10246,-1.001861 10.9937,1.503077 1.91104,1.655691 4.29045,4.431921 4.92359,6.245521 0.62543,1.79149 1.80849,8.871821 1.98778,11.27344 0,0 -0.8924,8.241071 -1.02091,9.8084 -0.12851,1.567329 -0.29064,2.468529 -0.29064,2.468529"
       id="path24-7"
       sodipodi:nodetypes="czssssscczc" />
    <circle
       style="fill:#370189;fill-opacity:1;stroke:#370188;stroke-width:0;stroke-dasharray:none;stroke-opacity:1"
       id="path2-9"
       cx="49.6936"
       cy="42.497349"
       r="0.68685186" />
    <circle
       style="fill:#370189;fill-opacity:1;stroke:#370188;stroke-width:0;stroke-dasharray:none;stroke-opacity:1"
       id="path2-9-9"
       cx="44.261082"
       cy="42.968658"
       r="0.68685186" />
    <path
       style="fill:#ffffff;fill-opacity:1;stroke:#370188;stroke-width:0.999972;stroke-dasharray:none;stroke-opacity:1"
       d="m 50.533002,44.317497 c 2.62675,2.107748 3.64577,4.812208 3.38269,5.540319 -0.25522,0.70634 -5.70963,1.35525 -9.38919,0.954081 -1.17766,-0.1284 -2.2591,-1.094642 -2.69559,-1.919452"
       id="path7"
       sodipodi:nodetypes="cssc" />
    <path
       style="fill:#370188;fill-opacity:1;stroke:#370188;stroke-width:1.43989;stroke-dasharray:none;stroke-opacity:1"
       d="m 51.928132,47.587438 c -0.42191,0.141908 -1.20779,1.380318 -1.14259,2.086308 0.0651,0.706 1.39415,-0.0872 1.39415,-0.0872 l 0.90853,-0.25799 -0.33627,-1.05092 c 0,0 -0.40195,-0.832079 -0.82382,-0.690161 z"
       id="path8"
       sodipodi:nodetypes="zzcccz"
       inkscape:transform-center-x="-8.2194033"
       inkscape:transform-center-y="1.5199982" />
    <path
       style="fill:#ffffff;fill-opacity:1;stroke:#370188;stroke-width:1;stroke-dasharray:none;stroke-opacity:1"
       d="m 57.663612,75.227066 c 0,0 1.31515,5.243669 0.99988,7.68622 -0.4226,3.274098 -3.93992,3.976107 -5.4479,1.0819 -1.09924,-2.10973 -3.1982,-7.358432 -3.1982,-7.358432"
       id="path11-9"
       sodipodi:nodetypes="cssc" />
    <path
       style="fill:#ffffff;fill-opacity:1;stroke:#370188;stroke-width:1;stroke-dasharray:none;stroke-opacity:1"
       d="m 47.548652,76.964924 c 0,0 -0.84122,4.154992 -1.77998,6.670252 -1.0279,2.754088 -4.37946,2.953099 -5.72905,0.28332 -1.76874,-3.498942 -1.67647,-8.168092 -1.67647,-8.168092"
       id="path12"
       sodipodi:nodetypes="cssc" />
    <path
       style="fill:#ffffff;fill-opacity:1;stroke:#370188;stroke-width:0.999972;stroke-dasharray:none;stroke-opacity:1"
       d="m 28.258272,58.653315 c -4.87952,6.108132 0.45077,5.67423 3.17714,3.923231"
       id="path10-71"
       sodipodi:nodetypes="cc" />
    <path
       style="fill:#ffffff;fill-opacity:1;stroke:#370188;stroke-width:0.999972;stroke-dasharray:none;stroke-opacity:1"
       d="m 66.297682,57.904027 c 4.30704,4.4541 0.22515,5.299118 -2.72713,3.839218"
       id="path9-6"
       sodipodi:nodetypes="cc" />
    <path
       style="fill:#ffffff;fill-opacity:1;stroke:#370189;stroke-width:0.999972;stroke-dasharray:none;stroke-opacity:1"
       d="m 36.157002,60.383897 -3.95985,3.07429 -4.8712,-5.91274 c 1.95415,-3.032211 3.78115,-4.910472 5.56957,-8.032639 0,0 6.81479,5.145439 12.02144,4.863996 2.25461,-0.121858 5.4732,-0.313039 6.98443,-0.604368 3.9659,-0.76452 7.90219,-5.246939 7.90219,-5.246939 l 2.48285,2.940719 4.4054,5.080059 -3.87546,5.689282 -4.04871,-3.181751"
       id="path13-4"
       sodipodi:nodetypes="ccccssccccc" />
    <path
       style="fill:#ffdb00;fill-opacity:1;stroke:#370188;stroke-width:0.999972;stroke-dasharray:none;stroke-opacity:1"
       d="m 29.410392,54.604395 34.72954,-0.59194 m -36.18323,3.265112 38.46947,-0.556082 m -37.11658,3.092712 35.50679,-0.650363 m -33.49377,2.904123 28.55054,-0.25039 m -24.94062,2.910649 24.83654,-0.36098"
       id="path30-0"
       sodipodi:nodetypes="cccccccccc" />
    <path
       style="fill:#ee9b02;fill-opacity:1;stroke:#370188;stroke-width:0.999972;stroke-dasharray:none;stroke-opacity:1"
       d="m 41.316652,56.843595 12.64837,-0.833559 2.26783,8.721858 3.90235,2.133751 0.65562,17.092681 -10.09865,-0.11474 -1.44473,-6.646331 -1.08434,6.739521 -11.52552,-0.008 -1.53299,-15.66451 4.51456,-2.447021 z"
       id="path16"
       sodipodi:nodetypes="cccccccccccc" />
    <path
       style="fill:none;stroke:#370188;stroke-width:0.999972;stroke-dasharray:none;stroke-opacity:1"
       d="m 43.377682,63.154836 9.49965,-0.47578 c 0,0 0.93839,1.948511 0.56745,3.723821 -0.37092,1.775298 -1.10164,2.507398 -2.3881,3.194838 -1.28648,0.687439 -3.79444,0.71377 -5.22225,0.104371 -1.4278,-0.609401 -2.00995,-1.600519 -2.4581,-2.80731 -0.44815,-1.2068 -0.20522,-2.439149 -0.20522,-2.439149 z"
       id="path17"
       sodipodi:nodetypes="cczzzzcc" />
    <path
       style="fill:none;stroke:#370189;stroke-width:0.999972;stroke-dasharray:none;stroke-opacity:1"
       d="m 48.821222,77.591236 1.78834,0.0502 -0.70236,-4.31914"
       id="path19-6"
       sodipodi:nodetypes="ccc" />
    <path
       style="fill:#ffffff;fill-opacity:1;stroke:#370188;stroke-width:0.999972;stroke-dasharray:none;stroke-opacity:1"
       d="m 52.074992,37.799148 c 2.88153,-4.04012 6.26244,-0.0663 3.01366,2.695269"
       id="path25-21"
       sodipodi:nodetypes="cc" />
    <path
       style="fill:#ffffff;fill-opacity:1;stroke:#370188;stroke-width:0.999972;stroke-dasharray:none;stroke-opacity:1"
       d="m 37.743542,41.695866 c -3.63216,-2.01052 0.28507,-7.21395 2.96511,-2.551071"
       id="path25-0"
       sodipodi:nodetypes="cc" />
    <path
       style="fill:none;fill-opacity:1;stroke:#370188;stroke-width:0.999972;stroke-dasharray:none;stroke-opacity:1"
       d="m 37.733872,70.955545 c 1.42501,-0.109619 2.95966,-0.657698 3.06929,-3.178898"
       id="path26-9" />
    <path
       style="fill:none;fill-opacity:1;stroke:#370188;stroke-width:0.999972;stroke-dasharray:none;stroke-opacity:1"
       d="m 55.382292,67.228556 c 0.98656,1.75388 1.2058,1.973121 2.74044,2.5212"
       id="path27-1" />
    <path
       style="fill:#ee9b02;fill-opacity:1;stroke:#370188;stroke-width:0.999972;stroke-dasharray:none;stroke-opacity:1"
       d="m 30.877162,53.408105 12.25712,8.529282 2.69504,-4.00423 -12.49485,-8.109631"
       id="path28-4"
       sodipodi:nodetypes="cccc" />
    <ellipse
       style="fill:#370188;fill-opacity:1;stroke:#370188;stroke-width:0;stroke-dasharray:none;stroke-opacity:1"
       id="path2-5-0-6"
       cx="42.502331"
       cy="58.61153"
       rx="1.4063976"
       ry="1.4088734" />
    <path
       style="fill:#ee9b02;fill-opacity:1;stroke:#370188;stroke-width:0.999972;stroke-dasharray:none;stroke-opacity:1"
       d="m 59.613662,48.760256 -10.54076,9.28475 3.27357,3.473981 10.59641,-8.595181"
       id="path29-0"
       sodipodi:nodetypes="cccc" />
    <ellipse
       style="fill:#370188;fill-opacity:1;stroke:#370188;stroke-width:0;stroke-dasharray:none;stroke-opacity:1"
       id="path2-5-0"
       cx="52.635311"
       cy="58.270512"
       rx="1.4063976"
       ry="1.4088734" />
    <path
       style="fill:#9a58fd;fill-opacity:1;stroke:#370188;stroke-width:0.999972;stroke-dasharray:none;stroke-opacity:1"
       d="m 122.76236,78.908302 -4.30674,0.2581 2.33587,-2.958299 -3.76046,-1.331001 2.24053,-1.79858 -3.25383,-1.85428 1.84886,-1.98349 -3.46145,-1.138158 2.28707,-2.27685 -3.79978,-1.237751 1.93354,-1.891821 -2.67081,-2.092129 2.5862,-1.84571 -2.80047,-1.87628 2.40947,-1.752961 -2.85435,-1.768907 1.81072,-1.706951 -2.22476,-1.80766 2.93293,-1.84469 -2.34816,-1.984611 2.0245,-1.7688 -1.34897,-3.30663 2.62319,-0.58559 -0.4277,-3.136388 3.2846,-0.155052 -0.3064,-3.71988 2.8245,0.0445 0.446,-4.121089 3.39284,1.567139 0.66036,-3.258949 2.94789,2.08987 1.61198,-2.93578 2.36438,2.75141 3.03991,-2.75141 1.40783,3.32308 4.01129,-2.09315 0.20031,3.4256 4.63928,-0.868101 -0.18402,3.175991 3.37399,0.586768 -1.44425,3.083871 3.59558,1.176101 -2.29681,2.946728 2.84158,1.80605 -1.59916,1.929861 2.5736,2.424539 -1.6776,2.121512 2.11633,2.780667 -1.89432,1.60355 1.34027,3.322472 -2.36001,0.739569 2.29003,2.535921 -2.58028,1.597159 2.38266,3.272111 -2.77269,1.370009 2.52405,3.318661 -2.36186,1.076838 1.40268,3.172652 -3.91114,0.23475 0.41218,3.822639 -2.80271,-1.443411 -0.78264,3.357131 -3.37356,-1.675641 -0.95463,2.231209 -2.43223,-3.235439 -1.75994,4.240491 -2.35726,-2.54645 -2.47493,2.461531 -2.84721,-1.889701 -2.97122,1.483899 z"
       id="path1-4"
       sodipodi:nodetypes="ccccccccccccccccccccccccccccccccccccccccccccccccccccccccccccccccccccccc" />
    <path
       style="fill:#ffffff;fill-opacity:1;stroke:#370188;stroke-width:0.999972;stroke-dasharray:none;stroke-opacity:1"
       d="m 123.02145,67.970043 c 0,0 -0.25598,-0.610479 -0.81048,-2.545389 -0.5545,-1.934932 -2.05517,-10.077301 -2.05517,-10.077301 -0.20941,-1.83976 0.10706,-6.346708 0.26081,-8.716359 0.13398,-2.06468 2.16632,-5.765111 3.72303,-7.88811 1.35418,-1.846809 4.13578,-2.933839 6.3437,-3.512419 3.14675,-0.824592 8.10246,-1.001861 10.9937,1.503077 1.91104,1.655692 4.29045,4.431922 4.92359,6.245522 0.62543,1.791489 1.80849,8.87182 1.98778,11.273439 0,0 -0.8924,8.241071 -1.02091,9.8084 -0.12851,1.567329 -0.29064,2.468529 -0.29064,2.468529"
       id="path24-7-4"
       sodipodi:nodetypes="czssssscczc" />
    <path
       style="fill:#ffffff;fill-opacity:1;stroke:#370188;stroke-width:0.999972;stroke-dasharray:none;stroke-opacity:1"
       d="m 137.96175,44.188875 c 2.62675,2.107748 3.64577,4.812208 3.38269,5.540318 -0.25522,0.70634 -5.70963,1.35525 -9.38919,0.954082 -1.17766,-0.1284 -2.2591,-1.094643 -2.69559,-1.919452"
       id="path7-8"
       sodipodi:nodetypes="cssc" />
    <path
       style="fill:#370188;fill-opacity:1;stroke:#370188;stroke-width:1.43989;stroke-dasharray:none;stroke-opacity:1"
       d="m 139.35688,47.458815 c -0.42191,0.141909 -1.20779,1.380318 -1.14259,2.086309 0.0651,0.706 1.39415,-0.0872 1.39415,-0.0872 l 0.90853,-0.257991 -0.33627,-1.05092 c 0,0 -0.40195,-0.832078 -0.82382,-0.69016 z"
       id="path8-9"
       sodipodi:nodetypes="zzcccz"
       inkscape:transform-center-x="-8.2194033"
       inkscape:transform-center-y="1.5199982" />
    <path
       style="fill:#ffffff;fill-opacity:1;stroke:#370188;stroke-width:1;stroke-dasharray:none;stroke-opacity:1"
       d="m 145.09236,75.098443 c 0,0 1.31515,5.24367 0.99988,7.686221 -0.4226,3.274097 -3.93992,3.976107 -5.4479,1.081899 -1.09924,-2.109729 -3.1982,-7.358432 -3.1982,-7.358432"
       id="path11-9-6"
       sodipodi:nodetypes="cssc" />
    <path
       style="fill:#ffffff;fill-opacity:1;stroke:#370188;stroke-width:1;stroke-dasharray:none;stroke-opacity:1"
       d="m 134.9774,76.836302 c 0,0 -0.84122,4.154992 -1.77998,6.670251 -1.0279,2.754089 -4.37946,2.9531 -5.72905,0.28332 -1.76874,-3.498942 -1.67647,-8.168091 -1.67647,-8.168091"
       id="path12-9"
       sodipodi:nodetypes="cssc" />
    <path
       style="fill:#ffffff;fill-opacity:1;stroke:#370188;stroke-width:0.999972;stroke-dasharray:none;stroke-opacity:1"
       d="m 115.68702,58.524692 c -4.87952,6.108132 0.45077,5.67423 3.17714,3.923232"
       id="path10-71-1"
       sodipodi:nodetypes="cc" />
    <path
       style="fill:#ffffff;fill-opacity:1;stroke:#370188;stroke-width:0.999972;stroke-dasharray:none;stroke-opacity:1"
       d="m 153.72643,57.775404 c 4.30704,4.454101 0.22515,5.299118 -2.72713,3.839219"
       id="path9-6-6"
       sodipodi:nodetypes="cc" />
    <path
       style="fill:#ffffff;fill-opacity:1;stroke:#370189;stroke-width:0.999972;stroke-dasharray:none;stroke-opacity:1"
       d="m 123.58575,60.255275 -3.95985,3.074289 -4.8712,-5.91274 c 1.95415,-3.032211 3.78115,-4.910472 5.56957,-8.032639 0,0 6.81479,5.145439 12.02144,4.863997 2.25461,-0.121858 5.4732,-0.31304 6.98443,-0.604369 3.9659,-0.764519 7.90219,-5.246938 7.90219,-5.246938 l 2.48285,2.940718 4.4054,5.08006 -3.87546,5.689282 -4.04871,-3.181752"
       id="path13-4-6"
       sodipodi:nodetypes="ccccssccccc" />
    <path
       style="fill:#ffdb00;fill-opacity:1;stroke:#370188;stroke-width:0.999972;stroke-dasharray:none;stroke-opacity:1"
       d="m 116.83914,54.475772 34.72954,-0.59194 m -36.18323,3.265112 38.46947,-0.556082 m -37.11658,3.092712 35.50679,-0.650362 m -33.49377,2.904123 28.55054,-0.250391 m -24.94062,2.910649 24.83654,-0.36098"
       id="path30-0-9"
       sodipodi:nodetypes="cccccccccc" />
    <path
       style="fill:#ee9b02;fill-opacity:1;stroke:#370188;stroke-width:0.999972;stroke-dasharray:none;stroke-opacity:1"
       d="m 128.7454,56.714972 12.64837,-0.833559 2.26783,8.721859 3.90235,2.133751 0.65562,17.09268 -10.09865,-0.11474 -1.44473,-6.646331 -1.08434,6.739521 -11.52552,-0.008 -1.53299,-15.66451 4.51456,-2.44702 z"
       id="path16-9"
       sodipodi:nodetypes="cccccccccccc" />
    <path
       style="fill:none;stroke:#370188;stroke-width:0.999972;stroke-dasharray:none;stroke-opacity:1"
       d="m 130.80643,63.026213 9.49965,-0.475779 c 0,0 0.93839,1.94851 0.56745,3.72382 -0.37092,1.775298 -1.10164,2.507399 -2.3881,3.194838 -1.28648,0.687439 -3.79444,0.71377 -5.22225,0.104372 -1.4278,-0.609402 -2.00995,-1.60052 -2.4581,-2.807311 -0.44815,-1.2068 -0.20522,-2.439149 -0.20522,-2.439149 z"
       id="path17-4"
       sodipodi:nodetypes="cczzzzcc" />
    <path
       style="fill:none;stroke:#370189;stroke-width:0.999972;stroke-dasharray:none;stroke-opacity:1"
       d="m 136.24997,77.462613 1.78834,0.0502 -0.70236,-4.31914"
       id="path19-6-5"
       sodipodi:nodetypes="ccc" />
    <path
       style="fill:#ffffff;fill-opacity:1;stroke:#370188;stroke-width:0.999972;stroke-dasharray:none;stroke-opacity:1"
       d="m 139.50374,37.670525 c 2.88153,-4.04012 6.26244,-0.0663 3.01366,2.695269"
       id="path25-21-0"
       sodipodi:nodetypes="cc" />
    <path
       style="fill:#ffffff;fill-opacity:1;stroke:#370188;stroke-width:0.999972;stroke-dasharray:none;stroke-opacity:1"
       d="m 125.17229,41.567243 c -3.63216,-2.010519 0.28507,-7.213949 2.96511,-2.551071"
       id="path25-0-7"
       sodipodi:nodetypes="cc" />
    <path
       style="fill:none;fill-opacity:1;stroke:#370188;stroke-width:0.999972;stroke-dasharray:none;stroke-opacity:1"
       d="m 125.16262,70.826922 c 1.42501,-0.109619 2.95966,-0.657698 3.06929,-3.178898"
       id="path26-9-4" />
    <path
       style="fill:none;fill-opacity:1;stroke:#370188;stroke-width:0.999972;stroke-dasharray:none;stroke-opacity:1"
       d="m 142.81104,67.099933 c 0.98656,1.75388 1.2058,1.973121 2.74044,2.5212"
       id="path27-1-8" />
    <path
       style="fill:#ee9b02;fill-opacity:1;stroke:#370188;stroke-width:0.999972;stroke-dasharray:none;stroke-opacity:1"
       d="m 118.30591,53.279483 12.25712,8.529281 2.69504,-4.004229 -12.49485,-8.109632"
       id="path28-4-0"
       sodipodi:nodetypes="cccc" />
    <ellipse
       style="fill:#370188;fill-opacity:1;stroke:#370188;stroke-width:0;stroke-dasharray:none;stroke-opacity:1"
       id="path2-5-0-6-1"
       cx="129.93109"
       cy="58.482906"
       rx="1.4063975"
       ry="1.4088734" />
    <path
       style="fill:#ee9b02;fill-opacity:1;stroke:#370188;stroke-width:0.999972;stroke-dasharray:none;stroke-opacity:1"
       d="m 147.04241,48.631634 -10.54076,9.284749 3.27357,3.473981 10.59641,-8.595181"
       id="path29-0-3"
       sodipodi:nodetypes="cccc" />
    <ellipse
       style="fill:#370188;fill-opacity:1;stroke:#370188;stroke-width:0;stroke-dasharray:none;stroke-opacity:1"
       id="path2-5-0-8"
       cx="140.06407"
       cy="58.141888"
       rx="1.4063975"
       ry="1.4088734" />
    <path
       style="fill:none;stroke:#370188;stroke-width:1"
       d="m 130.77734,43.03158 c 0.12602,-0.96816 1.49259,-1.001392 1.78563,-0.07356"
       id="path1-4-9"
       sodipodi:nodetypes="cc" />
    <path
       style="fill:none;stroke:#370188;stroke-width:1"
       d="m 136.24522,42.608352 c 0.12602,-0.968158 1.49259,-1.001392 1.78563,-0.07356"
       id="path1-0-6"
       sodipodi:nodetypes="cc" />
    <path
       style="fill:#9a58fd;fill-opacity:1;stroke:#370188;stroke-width:0.999972;stroke-dasharray:none;stroke-opacity:1"
       d="m 213.92629,76.244964 -4.30674,0.258101 2.33587,-2.958299 -3.76046,-1.331002 2.24053,-1.798579 -3.25383,-1.854281 1.84886,-1.983489 -3.46145,-1.138158 2.28707,-2.27685 -3.79978,-1.237751 1.93354,-1.891821 -2.67081,-2.092129 2.5862,-1.84571 -2.80047,-1.876281 2.40947,-1.75296 -2.85435,-1.768907 1.81072,-1.706952 -2.22476,-1.807659 2.93293,-1.84469 -2.34816,-1.984611 2.0245,-1.7688 -1.34897,-3.30663 2.62319,-0.585591 -0.4277,-3.136387 3.2846,-0.155052 -0.3064,-3.71988 2.8245,0.0445 0.446,-4.121089 3.39284,1.56714 0.66036,-3.25895 2.94789,2.08987 1.61198,-2.93578 2.36438,2.75141 3.03991,-2.75141 1.40783,3.32308 4.01129,-2.09315 0.20031,3.425601 4.63928,-0.868101 -0.18402,3.17599 3.37399,0.586769 -1.44425,3.083871 3.59558,1.176101 -2.29681,2.946727 2.84158,1.806051 -1.59916,1.929861 2.5736,2.424539 -1.6776,2.121511 2.11633,2.780668 -1.89432,1.60355 1.34027,3.322472 -2.36001,0.739569 2.29003,2.535921 -2.58028,1.597159 2.38266,3.27211 -2.77269,1.37001 2.52405,3.318661 -2.36186,1.076838 1.40268,3.172652 -3.91114,0.234749 0.41218,3.82264 -2.80271,-1.443411 -0.78264,3.357131 -3.37356,-1.675641 -0.95463,2.231209 -2.43223,-3.235439 -1.75994,4.240491 -2.35726,-2.54645 -2.47493,2.46153 -2.84721,-1.8897 -2.97122,1.483899 z"
       id="path1-8"
       sodipodi:nodetypes="ccccccccccccccccccccccccccccccccccccccccccccccccccccccccccccccccccccccc" />
    <path
       style="fill:#ffffff;fill-opacity:1;stroke:#370188;stroke-width:0.999972;stroke-dasharray:none;stroke-opacity:1"
       d="m 214.18538,65.306706 c 0,0 -0.25598,-0.610479 -0.81048,-2.545389 -0.5545,-1.934932 -2.05517,-10.077301 -2.05517,-10.077301 -0.20941,-1.83976 0.10706,-6.346709 0.26081,-8.716359 0.13398,-2.06468 2.16632,-5.765112 3.72303,-7.88811 1.35418,-1.84681 4.13578,-2.93384 6.3437,-3.512419 3.14675,-0.824592 8.10246,-1.001861 10.9937,1.503077 1.91104,1.655691 4.29045,4.431921 4.92359,6.245521 0.62543,1.79149 1.80849,8.871821 1.98778,11.27344 0,0 -0.8924,8.241071 -1.02091,9.8084 -0.12851,1.567329 -0.29064,2.468529 -0.29064,2.468529"
       id="path24-7-3"
       sodipodi:nodetypes="czssssscczc" />
    <path
       style="fill:#370189;fill-opacity:1;stroke:#370188;stroke-width:0;stroke-dasharray:none;stroke-opacity:1"
       id="path2-9-9-5"
       sodipodi:type="arc"
       sodipodi:cx="216.98926"
       sodipodi:cy="64.713669"
       sodipodi:rx="0.68685186"
       sodipodi:ry="0.68685186"
       sodipodi:start="5.7595865"
       sodipodi:end="3.6756634"
       sodipodi:arc-type="chord"
       d="m 217.58409,64.370243 a 0.68685186,0.68685186 0 0 1 -0.15517,0.871123 0.68685186,0.68685186 0 0 1 -0.88482,-0.0046 0.68685186,0.68685186 0 0 1 -0.14604,-0.8727 z"
       sodipodi:open="true"
       transform="rotate(-6.3865273)" />
    <path
       style="fill:#ffffff;fill-opacity:1;stroke:#370188;stroke-width:0.999972;stroke-dasharray:none;stroke-opacity:1"
       d="m 229.12568,41.525537 c 2.62675,2.107748 3.64577,4.812208 3.38269,5.540319 -0.25522,0.70634 -5.70963,1.35525 -9.38919,0.954081 -1.17766,-0.1284 -2.2591,-1.094642 -2.69559,-1.919452"
       id="path7-4"
       sodipodi:nodetypes="cssc" />
    <path
       style="fill:#370188;fill-opacity:1;stroke:#370188;stroke-width:1.43989;stroke-dasharray:none;stroke-opacity:1"
       d="m 230.52081,44.795478 c -0.42191,0.141908 -1.20779,1.380318 -1.14259,2.086308 0.0651,0.706 1.39415,-0.0872 1.39415,-0.0872 l 0.90853,-0.25799 -0.33627,-1.05092 c 0,0 -0.40195,-0.832079 -0.82382,-0.690161 z"
       id="path8-4"
       sodipodi:nodetypes="zzcccz"
       inkscape:transform-center-x="-8.2194033"
       inkscape:transform-center-y="1.5199982" />
    <path
       style="fill:#ffffff;fill-opacity:1;stroke:#370188;stroke-width:1;stroke-dasharray:none;stroke-opacity:1"
       d="m 236.25629,72.435106 c 0,0 1.31515,5.243669 0.99988,7.68622 -0.4226,3.274098 -3.93992,3.976107 -5.4479,1.0819 -1.09924,-2.10973 -3.1982,-7.358432 -3.1982,-7.358432"
       id="path11-9-5"
       sodipodi:nodetypes="cssc" />
    <path
       style="fill:#ffffff;fill-opacity:1;stroke:#370188;stroke-width:1;stroke-dasharray:none;stroke-opacity:1"
       d="m 226.14133,74.172964 c 0,0 -0.84122,4.154992 -1.77998,6.670252 -1.0279,2.754088 -4.37946,2.953099 -5.72905,0.28332 -1.76874,-3.498942 -1.67647,-8.168092 -1.67647,-8.168092"
       id="path12-0"
       sodipodi:nodetypes="cssc" />
    <path
       style="fill:#ffffff;fill-opacity:1;stroke:#370188;stroke-width:0.999972;stroke-dasharray:none;stroke-opacity:1"
       d="m 206.85095,55.861355 c -4.87952,6.108132 0.45077,5.67423 3.17714,3.923231"
       id="path10-71-3"
       sodipodi:nodetypes="cc" />
    <path
       style="fill:#ffffff;fill-opacity:1;stroke:#370188;stroke-width:0.999972;stroke-dasharray:none;stroke-opacity:1"
       d="m 244.89036,55.112067 c 4.30704,4.4541 0.22515,5.299118 -2.72713,3.839218"
       id="path9-6-9"
       sodipodi:nodetypes="cc" />
    <path
       style="fill:#ffffff;fill-opacity:1;stroke:#370189;stroke-width:0.999972;stroke-dasharray:none;stroke-opacity:1"
       d="m 214.74968,57.591937 -3.95985,3.07429 -4.8712,-5.91274 c 1.95415,-3.032211 3.78115,-4.910472 5.56957,-8.032639 0,0 6.81479,5.145439 12.02144,4.863996 2.25461,-0.121858 5.4732,-0.313039 6.98443,-0.604368 3.9659,-0.76452 7.90219,-5.246939 7.90219,-5.246939 l 2.48285,2.940719 4.4054,5.080059 -3.87546,5.689282 -4.04871,-3.181751"
       id="path13-4-8"
       sodipodi:nodetypes="ccccssccccc" />
    <path
       style="fill:#ffdb00;fill-opacity:1;stroke:#370188;stroke-width:0.999972;stroke-dasharray:none;stroke-opacity:1"
       d="m 208.00307,51.812435 34.72954,-0.59194 m -36.18323,3.265112 38.46947,-0.556082 m -37.11658,3.092712 35.50679,-0.650363 m -33.49377,2.904123 28.55054,-0.25039 m -24.94062,2.910649 24.83654,-0.36098"
       id="path30-0-99"
       sodipodi:nodetypes="cccccccccc" />
    <path
       style="fill:#ee9b02;fill-opacity:1;stroke:#370188;stroke-width:0.999972;stroke-dasharray:none;stroke-opacity:1"
       d="m 219.90933,54.051635 12.64837,-0.833559 2.26783,8.721858 3.90235,2.133751 0.65562,17.092681 -10.09865,-0.11474 -1.44473,-6.646331 -1.08434,6.739521 -11.52552,-0.008 -1.53299,-15.66451 4.51456,-2.447021 z"
       id="path16-5"
       sodipodi:nodetypes="cccccccccccc" />
    <path
       style="fill:none;stroke:#370188;stroke-width:0.999972;stroke-dasharray:none;stroke-opacity:1"
       d="m 221.97036,60.362876 9.49965,-0.47578 c 0,0 0.93839,1.948511 0.56745,3.723821 -0.37092,1.775298 -1.10164,2.507398 -2.3881,3.194838 -1.28648,0.687439 -3.79444,0.71377 -5.22225,0.104371 -1.4278,-0.609401 -2.00995,-1.600519 -2.4581,-2.80731 -0.44815,-1.2068 -0.20522,-2.439149 -0.20522,-2.439149 z"
       id="path17-3"
       sodipodi:nodetypes="cczzzzcc" />
    <path
       style="fill:none;stroke:#370189;stroke-width:0.999972;stroke-dasharray:none;stroke-opacity:1"
       d="m 227.4139,74.799276 1.78834,0.0502 -0.70236,-4.31914"
       id="path19-6-8"
       sodipodi:nodetypes="ccc" />
    <path
       style="fill:#ffffff;fill-opacity:1;stroke:#370188;stroke-width:0.999972;stroke-dasharray:none;stroke-opacity:1"
       d="m 230.66767,35.007188 c 2.88153,-4.04012 6.26244,-0.0663 3.01366,2.695269"
       id="path25-21-4"
       sodipodi:nodetypes="cc" />
    <path
       style="fill:#ffffff;fill-opacity:1;stroke:#370188;stroke-width:0.999972;stroke-dasharray:none;stroke-opacity:1"
       d="m 216.33622,38.903906 c -3.63216,-2.01052 0.28507,-7.21395 2.96511,-2.551071"
       id="path25-0-77"
       sodipodi:nodetypes="cc" />
    <path
       style="fill:none;fill-opacity:1;stroke:#370188;stroke-width:0.999972;stroke-dasharray:none;stroke-opacity:1"
       d="m 216.32655,68.163585 c 1.42501,-0.109619 2.95966,-0.657698 3.06929,-3.178898"
       id="path26-9-1" />
    <path
       style="fill:none;fill-opacity:1;stroke:#370188;stroke-width:0.999972;stroke-dasharray:none;stroke-opacity:1"
       d="m 233.97497,64.436596 c 0.98656,1.75388 1.2058,1.973121 2.74044,2.5212"
       id="path27-1-2" />
    <path
       style="fill:#ee9b02;fill-opacity:1;stroke:#370188;stroke-width:0.999972;stroke-dasharray:none;stroke-opacity:1"
       d="m 209.46984,50.616145 12.25712,8.529282 2.69504,-4.00423 -12.49485,-8.109631"
       id="path28-4-8"
       sodipodi:nodetypes="cccc" />
    <ellipse
       style="fill:#370188;fill-opacity:1;stroke:#370188;stroke-width:0;stroke-dasharray:none;stroke-opacity:1"
       id="path2-5-0-6-7"
       cx="221.095"
       cy="55.819572"
       rx="1.4063976"
       ry="1.4088734" />
    <path
       style="fill:#ee9b02;fill-opacity:1;stroke:#370188;stroke-width:0.999972;stroke-dasharray:none;stroke-opacity:1"
       d="m 238.20634,45.968296 -10.54076,9.28475 3.27357,3.473981 10.59641,-8.595181"
       id="path29-0-4"
       sodipodi:nodetypes="cccc" />
    <ellipse
       style="fill:#370188;fill-opacity:1;stroke:#370188;stroke-width:0;stroke-dasharray:none;stroke-opacity:1"
       id="path2-5-0-2"
       cx="231.22798"
       cy="55.478554"
       rx="1.4063976"
       ry="1.4088734" />
    <path
       style="fill:#370188;fill-opacity:1;stroke:#370188;stroke-width:0.25;stroke-linecap:butt;stroke-dasharray:none;stroke-opacity:1"
       d="m 221.44924,40.044706 2.70207,-0.316358"
       id="path18-6"
       sodipodi:nodetypes="cc" />
    <path
       style="fill:#370189;fill-opacity:1;stroke:#370188;stroke-width:0;stroke-dasharray:none;stroke-opacity:1"
       id="path2-9-9-5-1"
       sodipodi:type="arc"
       sodipodi:cx="221.47208"
       sodipodi:cy="68.060081"
       sodipodi:rx="0.68685186"
       sodipodi:ry="0.68685186"
       sodipodi:start="5.7595865"
       sodipodi:end="3.6756634"
       sodipodi:arc-type="chord"
       d="m 222.06691,67.716656 a 0.68685186,0.68685186 0 0 1 -0.15517,0.871122 0.68685186,0.68685186 0 0 1 -0.88483,-0.0046 0.68685186,0.68685186 0 0 1 -0.14604,-0.8727 z"
       sodipodi:open="true"
       transform="rotate(-7.2106764)" />
    <path
       style="fill:#370188;fill-opacity:1;stroke:#370188;stroke-width:0.25;stroke-linecap:butt;stroke-dasharray:none;stroke-opacity:1"
       d="m 226.86974,39.61259 2.69724,-0.355192"
       id="path18-6-7"
       sodipodi:nodetypes="cc" />
    <path
       style="fill:#9a58fd;fill-opacity:1;stroke:#370188;stroke-width:0.999972;stroke-dasharray:none;stroke-opacity:1"
       d="m 109.20374,165.63507 -4.30674,0.2581 2.33587,-2.9583 -3.76046,-1.331 2.24053,-1.79858 -3.25383,-1.85428 1.84886,-1.98349 -3.46145,-1.13816 2.28707,-2.27685 -3.79978,-1.23775 1.93354,-1.89182 -2.67081,-2.09213 2.5862,-1.84571 -2.80047,-1.87628 2.40947,-1.75296 -2.85435,-1.76891 1.81072,-1.70695 -2.22476,-1.80766 2.93293,-1.84469 -2.34816,-1.98461 2.0245,-1.7688 -1.34897,-3.30663 2.62319,-0.58559 -0.4277,-3.13639 3.2846,-0.15505 -0.3064,-3.71988 2.8245,0.0445 0.446,-4.12109 3.39284,1.56714 0.66036,-3.25895 2.94789,2.08987 1.61198,-2.93578 2.36438,2.75141 3.03991,-2.75141 1.40783,3.32308 4.01129,-2.09315 0.20031,3.4256 4.63928,-0.8681 -0.18402,3.17599 3.37399,0.58677 -1.44425,3.08387 3.59558,1.1761 -2.29681,2.94673 2.84158,1.80605 -1.59916,1.92986 2.5736,2.42454 -1.6776,2.12151 2.11633,2.78067 -1.89432,1.60355 1.34027,3.32247 -2.36001,0.73957 2.29003,2.53592 -2.58028,1.59716 2.38266,3.27211 -2.77269,1.37001 2.52405,3.31866 -2.36186,1.07684 1.40268,3.17265 -3.91114,0.23475 0.41218,3.82264 -2.80271,-1.44341 -0.78264,3.35713 -3.37356,-1.67564 -0.95463,2.23121 -2.43223,-3.23544 -1.75994,4.24049 -2.35726,-2.54645 -2.47493,2.46153 -2.84721,-1.8897 -2.97122,1.4839 z"
       id="path1-8-0"
       sodipodi:nodetypes="ccccccccccccccccccccccccccccccccccccccccccccccccccccccccccccccccccccccc" />
    <path
       style="fill:#ffffff;fill-opacity:1;stroke:#370188;stroke-width:0.999972;stroke-dasharray:none;stroke-opacity:1"
       d="m 109.46283,154.69681 c 0,0 -0.25598,-0.61048 -0.81048,-2.54539 -0.5545,-1.93493 -2.05517,-10.0773 -2.05517,-10.0773 -0.20941,-1.83976 0.10706,-6.34671 0.26081,-8.71636 0.13398,-2.06468 2.16632,-5.76511 3.72303,-7.88811 1.35418,-1.84681 4.13578,-2.93384 6.3437,-3.51242 3.14675,-0.82459 8.10246,-1.00186 10.9937,1.50308 1.91104,1.65569 4.29045,4.43192 4.92359,6.24552 0.62543,1.79149 1.80849,8.87182 1.98778,11.27344 0,0 -0.8924,8.24107 -1.02091,9.8084 -0.12851,1.56733 -0.29064,2.46853 -0.29064,2.46853"
       id="path24-7-3-9"
       sodipodi:nodetypes="czssssscczc" />
    <path
       style="fill:#370189;fill-opacity:1;stroke:#370188;stroke-width:0;stroke-dasharray:none;stroke-opacity:1"
       id="path2-9-9-5-5"
       sodipodi:type="arc"
       sodipodi:cx="102.97327"
       sodipodi:cy="141.90019"
       sodipodi:rx="0.68685186"
       sodipodi:ry="0.68685186"
       sodipodi:start="5.9341195"
       sodipodi:end="3.5011305"
       sodipodi:arc-type="chord"
       d="m 103.6187,141.66528 a 0.68685186,0.68685186 0 0 1 -0.2372,0.78728 0.68685186,0.68685186 0 0 1 -0.82223,-0.004 0.68685186,0.68685186 0 0 1 -0.22894,-0.78973 z"
       sodipodi:open="true"
       transform="rotate(-6.3865273)" />
    <path
       style="fill:#ffffff;fill-opacity:1;stroke:#370188;stroke-width:0.999972;stroke-dasharray:none;stroke-opacity:1"
       d="m 124.40313,130.91564 c 2.62675,2.10775 3.64577,4.81221 3.38269,5.54032 -0.25522,0.70634 -5.70963,1.35525 -9.38919,0.95408 -1.17766,-0.1284 -2.2591,-1.09464 -2.69559,-1.91945"
       id="path7-4-4"
       sodipodi:nodetypes="cssc" />
    <path
       style="fill:#370189;fill-opacity:1;stroke:#370188;stroke-width:0;stroke-dasharray:none;stroke-opacity:1"
       id="path2-9-9-5-5-0"
       sodipodi:type="arc"
       sodipodi:cx="108.27985"
       sodipodi:cy="142.06915"
       sodipodi:rx="0.68685186"
       sodipodi:ry="0.68685186"
       sodipodi:start="5.9341195"
       sodipodi:end="3.5011305"
       sodipodi:arc-type="chord"
       d="m 108.92528,141.83424 a 0.68685186,0.68685186 0 0 1 -0.2372,0.78728 0.68685186,0.68685186 0 0 1 -0.82223,-0.004 0.68685186,0.68685186 0 0 1 -0.22894,-0.78973 z"
       sodipodi:open="true"
       transform="rotate(-6.3865273)" />
    <path
       style="fill:#ffffff;fill-opacity:1;stroke:#370188;stroke-width:0.25;stroke-linecap:butt;stroke-dasharray:none;stroke-opacity:1"
       d="m 122.42016,128.99672 c 0.97474,0.26478 1.10503,0.2861 1.92362,-0.22986"
       id="path18-6-1-7"
       sodipodi:nodetypes="cc" />
    <path
       style="fill:#370188;fill-opacity:1;stroke:#370188;stroke-width:1.43989;stroke-dasharray:none;stroke-opacity:1"
       d="m 125.79826,134.18558 c -0.42191,0.14191 -1.20779,1.38032 -1.14259,2.08631 0.0651,0.706 1.39415,-0.0872 1.39415,-0.0872 l 0.90853,-0.25799 -0.33627,-1.05092 c 0,0 -0.40195,-0.83208 -0.82382,-0.69016 z"
       id="path8-4-9"
       sodipodi:nodetypes="zzcccz"
       inkscape:transform-center-x="-8.2194033"
       inkscape:transform-center-y="1.5199982" />
    <path
       style="fill:#ffffff;fill-opacity:1;stroke:#370188;stroke-width:1;stroke-dasharray:none;stroke-opacity:1"
       d="m 131.53374,161.82521 c 0,0 1.31515,5.24367 0.99988,7.68622 -0.4226,3.2741 -3.93992,3.97611 -5.4479,1.0819 -1.09924,-2.10973 -3.1982,-7.35843 -3.1982,-7.35843"
       id="path11-9-5-1"
       sodipodi:nodetypes="cssc" />
    <path
       style="fill:#ffffff;fill-opacity:1;stroke:#370188;stroke-width:1;stroke-dasharray:none;stroke-opacity:1"
       d="m 121.41878,163.56307 c 0,0 -0.84122,4.15499 -1.77998,6.67025 -1.0279,2.75409 -4.37946,2.9531 -5.72905,0.28332 -1.76874,-3.49894 -1.67647,-8.16809 -1.67647,-8.16809"
       id="path12-0-9"
       sodipodi:nodetypes="cssc" />
    <path
       style="fill:#ffffff;fill-opacity:1;stroke:#370188;stroke-width:0.999972;stroke-dasharray:none;stroke-opacity:1"
       d="m 102.1284,145.25146 c -4.87952,6.10813 0.45077,5.67423 3.17714,3.92323"
       id="path10-71-3-3"
       sodipodi:nodetypes="cc" />
    <path
       style="fill:#ffffff;fill-opacity:1;stroke:#370188;stroke-width:0.999972;stroke-dasharray:none;stroke-opacity:1"
       d="m 140.16781,144.50217 c 4.30704,4.4541 0.22515,5.29912 -2.72713,3.83922"
       id="path9-6-9-8"
       sodipodi:nodetypes="cc" />
    <path
       style="fill:#ffffff;fill-opacity:1;stroke:#370189;stroke-width:0.999972;stroke-dasharray:none;stroke-opacity:1"
       d="m 110.02713,146.98204 -3.95985,3.07429 -4.8712,-5.91274 c 1.95415,-3.03221 3.78115,-4.91047 5.56957,-8.03264 0,0 6.81479,5.14544 12.02144,4.864 2.25461,-0.12186 5.4732,-0.31304 6.98443,-0.60437 3.9659,-0.76452 7.90219,-5.24694 7.90219,-5.24694 l 2.48285,2.94072 4.4054,5.08006 -3.87546,5.68928 -4.04871,-3.18175"
       id="path13-4-8-5"
       sodipodi:nodetypes="ccccssccccc" />
    <path
       style="fill:#ffdb00;fill-opacity:1;stroke:#370188;stroke-width:0.999972;stroke-dasharray:none;stroke-opacity:1"
       d="m 103.28052,141.20254 34.72954,-0.59194 m -36.18323,3.26511 38.46947,-0.55608 m -37.11658,3.09271 35.50679,-0.65036 m -33.49377,2.90412 28.55054,-0.25039 m -24.94062,2.91065 24.83654,-0.36098"
       id="path30-0-99-7"
       sodipodi:nodetypes="cccccccccc" />
    <path
       style="fill:#ee9b02;fill-opacity:1;stroke:#370188;stroke-width:0.999972;stroke-dasharray:none;stroke-opacity:1"
       d="m 115.18678,143.44174 12.64837,-0.83356 2.26783,8.72186 3.90235,2.13375 0.65562,17.09268 -10.09865,-0.11474 -1.44473,-6.64633 -1.08434,6.73952 -11.52552,-0.008 -1.53299,-15.66451 4.51456,-2.44702 z"
       id="path16-5-0"
       sodipodi:nodetypes="cccccccccccc" />
    <path
       style="fill:none;stroke:#370188;stroke-width:0.999972;stroke-dasharray:none;stroke-opacity:1"
       d="m 117.24781,149.75298 9.49965,-0.47578 c 0,0 0.93839,1.94851 0.56745,3.72382 -0.37092,1.7753 -1.10164,2.5074 -2.3881,3.19484 -1.28648,0.68744 -3.79444,0.71377 -5.22225,0.10437 -1.4278,-0.6094 -2.00995,-1.60052 -2.4581,-2.80731 -0.44815,-1.2068 -0.20522,-2.43915 -0.20522,-2.43915 z"
       id="path17-3-0"
       sodipodi:nodetypes="cczzzzcc" />
    <path
       style="fill:none;stroke:#370189;stroke-width:0.999972;stroke-dasharray:none;stroke-opacity:1"
       d="m 122.69135,164.18938 1.78834,0.0502 -0.70236,-4.31914"
       id="path19-6-8-9"
       sodipodi:nodetypes="ccc" />
    <path
       style="fill:#ffffff;fill-opacity:1;stroke:#370188;stroke-width:0.999972;stroke-dasharray:none;stroke-opacity:1"
       d="m 125.94512,124.3973 c 2.88153,-4.04012 6.26244,-0.0663 3.01366,2.69526"
       id="path25-21-4-3"
       sodipodi:nodetypes="cc" />
    <path
       style="fill:#ffffff;fill-opacity:1;stroke:#370188;stroke-width:0.999972;stroke-dasharray:none;stroke-opacity:1"
       d="m 111.61367,128.29401 c -3.63216,-2.01052 0.28507,-7.21395 2.96511,-2.55107"
       id="path25-0-77-3"
       sodipodi:nodetypes="cc" />
    <path
       style="fill:none;fill-opacity:1;stroke:#370188;stroke-width:0.999972;stroke-dasharray:none;stroke-opacity:1"
       d="m 111.604,157.55369 c 1.42501,-0.10962 2.95966,-0.6577 3.06929,-3.1789"
       id="path26-9-1-6" />
    <path
       style="fill:none;fill-opacity:1;stroke:#370188;stroke-width:0.999972;stroke-dasharray:none;stroke-opacity:1"
       d="m 129.25242,153.8267 c 0.98656,1.75388 1.2058,1.97312 2.74044,2.5212"
       id="path27-1-2-5" />
    <path
       style="fill:#ee9b02;fill-opacity:1;stroke:#370188;stroke-width:0.999972;stroke-dasharray:none;stroke-opacity:1"
       d="m 104.74729,140.00625 12.25712,8.52928 2.69504,-4.00423 -12.49485,-8.10963"
       id="path28-4-8-0"
       sodipodi:nodetypes="cccc" />
    <ellipse
       style="fill:#370188;fill-opacity:1;stroke:#370188;stroke-width:0;stroke-dasharray:none;stroke-opacity:1"
       id="path2-5-0-6-7-5"
       cx="116.37246"
       cy="145.20967"
       rx="1.4063976"
       ry="1.4088734" />
    <path
       style="fill:#ee9b02;fill-opacity:1;stroke:#370188;stroke-width:0.999972;stroke-dasharray:none;stroke-opacity:1"
       d="m 133.48379,135.3584 -10.54076,9.28475 3.27357,3.47398 10.59641,-8.59518"
       id="path29-0-4-2"
       sodipodi:nodetypes="cccc" />
    <ellipse
       style="fill:#370188;fill-opacity:1;stroke:#370188;stroke-width:0;stroke-dasharray:none;stroke-opacity:1"
       id="path2-5-0-2-4"
       cx="126.50544"
       cy="144.86865"
       rx="1.4063976"
       ry="1.4088734" />
    <path
       style="fill:#ffffff;fill-opacity:1;stroke:#370188;stroke-width:0.25;stroke-linecap:butt;stroke-dasharray:none;stroke-opacity:1"
       d="m 117.12771,129.41908 c 0.97474,0.26478 1.10503,0.2861 1.92362,-0.22986"
       id="path18-6-1"
       sodipodi:nodetypes="cc" />
  </g>
</svg>
