<?xml version="1.0" encoding="UTF-8" standalone="no"?>
<!-- Created with Inkscape (http://www.inkscape.org/) -->

<svg
   width="840"
   height="600"
   viewBox="0 0 222.25 158.75"
   version="1.1"
   id="svg1"
   inkscape:version="1.4 (e7c3feb1, 2024-10-09)"
   sodipodi:docname="how-to-run-a-team-well-being-workshop.svg"
   inkscape:export-filename="how-to-run-a-team-well-being-workshop.png"
   inkscape:export-xdpi="96"
   inkscape:export-ydpi="96"
   xmlns:inkscape="http://www.inkscape.org/namespaces/inkscape"
   xmlns:sodipodi="http://sodipodi.sourceforge.net/DTD/sodipodi-0.dtd"
   xmlns="http://www.w3.org/2000/svg"
   xmlns:svg="http://www.w3.org/2000/svg">
  <sodipodi:namedview
     id="namedview1"
     pagecolor="#ffffff"
     bordercolor="#000000"
     borderopacity="0.25"
     inkscape:showpageshadow="2"
     inkscape:pageopacity="0.0"
     inkscape:pagecheckerboard="0"
     inkscape:deskcolor="#d1d1d1"
     inkscape:document-units="px"
     inkscape:zoom="0.35544036"
     inkscape:cx="-376.99714"
     inkscape:cy="455.77267"
     inkscape:window-width="1728"
     inkscape:window-height="1057"
     inkscape:window-x="0"
     inkscape:window-y="32"
     inkscape:window-maximized="0"
     inkscape:current-layer="layer1"
     inkscape:export-bgcolor="#ffffffff" />
  <defs
     id="defs1">
    <clipPath
       clipPathUnits="userSpaceOnUse"
       id="clipPath34">
      <rect
         style="fill:none;fill-opacity:1;fill-rule:nonzero;stroke:#370188;stroke-width:3.175;stroke-dasharray:none;stroke-opacity:1"
         id="rect35"
         width="282.57498"
         height="354.01248"
         x="1.5875"
         y="15.875003" />
    </clipPath>
    <clipPath
       clipPathUnits="userSpaceOnUse"
       id="clipPath35">
      <rect
         style="fill:none;fill-opacity:1;fill-rule:nonzero;stroke:#370188;stroke-width:3.175;stroke-dasharray:none;stroke-opacity:1"
         id="rect36"
         width="282.57498"
         height="354.01248"
         x="1.5875"
         y="15.875003" />
    </clipPath>
    <clipPath
       clipPathUnits="userSpaceOnUse"
       id="clipPath33">
      <rect
         style="fill:none;fill-opacity:1;fill-rule:nonzero;stroke:#370188;stroke-width:3.175;stroke-dasharray:none;stroke-opacity:1"
         id="rect34"
         width="282.57498"
         height="354.01248"
         x="1.5875"
         y="15.875003"
         transform="scale(-1,1)" />
    </clipPath>
    <clipPath
       clipPathUnits="userSpaceOnUse"
       id="clipPath32">
      <rect
         style="fill:none;fill-opacity:1;fill-rule:nonzero;stroke:#370188;stroke-width:3.175;stroke-dasharray:none;stroke-opacity:1"
         id="rect33"
         width="282.57498"
         height="354.01248"
         x="1.5875"
         y="15.875003" />
    </clipPath>
    <clipPath
       clipPathUnits="userSpaceOnUse"
       id="clipPath1">
      <rect
         style="fill:none;fill-opacity:1;fill-rule:nonzero;stroke:#370188;stroke-width:0.695287;stroke-dasharray:none;stroke-opacity:1"
         id="rect2"
         width="61.880581"
         height="77.524551"
         x="-167.02388"
         y="-16.952217"
         transform="scale(-1,1)" />
    </clipPath>
    <clipPath
       clipPathUnits="userSpaceOnUse"
       id="clipPath34-9">
      <rect
         style="fill:none;fill-opacity:1;fill-rule:nonzero;stroke:#370188;stroke-width:3.175;stroke-dasharray:none;stroke-opacity:1"
         id="rect35-2"
         width="282.57498"
         height="354.01248"
         x="1.5875"
         y="15.875003" />
    </clipPath>
    <clipPath
       clipPathUnits="userSpaceOnUse"
       id="clipPath35-3">
      <rect
         style="fill:none;fill-opacity:1;fill-rule:nonzero;stroke:#370188;stroke-width:3.175;stroke-dasharray:none;stroke-opacity:1"
         id="rect36-5"
         width="282.57498"
         height="354.01248"
         x="1.5875"
         y="15.875003" />
    </clipPath>
    <clipPath
       clipPathUnits="userSpaceOnUse"
       id="clipPath33-9">
      <rect
         style="fill:none;fill-opacity:1;fill-rule:nonzero;stroke:#370188;stroke-width:3.175;stroke-dasharray:none;stroke-opacity:1"
         id="rect34-7"
         width="282.57498"
         height="354.01248"
         x="1.5875"
         y="15.875003"
         transform="scale(-1,1)" />
    </clipPath>
    <clipPath
       clipPathUnits="userSpaceOnUse"
       id="clipPath32-2">
      <rect
         style="fill:none;fill-opacity:1;fill-rule:nonzero;stroke:#370188;stroke-width:3.175;stroke-dasharray:none;stroke-opacity:1"
         id="rect33-4"
         width="282.57498"
         height="354.01248"
         x="1.5875"
         y="15.875003" />
    </clipPath>
  </defs>
  <g
     inkscape:label="Layer 1"
     inkscape:groupmode="layer"
     id="layer1">
    <rect
       style="fill:none;fill-opacity:1;stroke:#370188;stroke-width:2.13932;stroke-linecap:round;stroke-dasharray:none;stroke-opacity:1"
       id="rect37"
       width="131.03366"
       height="70.828468"
       x="42.202789"
       y="14.867337" />
    <path
       style="fill:#018816;fill-opacity:1;stroke:#370188;stroke-width:1.6045;stroke-dasharray:none;stroke-opacity:1"
       d="m 51.281742,121.76376 -1.237208,18.02015 26.035079,0.69929 -1.022046,-20.01043 z"
       id="path25-4" />
    <path
       style="fill:#ffffff;fill-opacity:1;stroke:#370188;stroke-width:1.6045;stroke-dasharray:none;stroke-opacity:1"
       d="m 42.861939,126.03288 c 0,8.00108 3.592635,13.60823 8.627536,16.82147 1.197933,0.7645 2.477533,1.39352 3.809804,1.887 11.78312,4.36449 27.687297,-1.87165 27.675001,-18.70847 l -7.614667,7.83657 -7.656736,-3.32324 -10.085604,4.72119 -5.435249,-5.90804 -4.29055,2.59933 z"
       id="path1-8"
       sodipodi:nodetypes="cssccccccc" />
    <path
       style="fill:#370189;fill-opacity:1;stroke:#370188;stroke-width:0;stroke-dasharray:none;stroke-opacity:1"
       d="m 54.954017,143.88998 -1.933948,-2.66451 2.562724,1.18944 0.670234,-1.98499 0.190422,2.09322 2.10731,-1.61668 -1.300509,2.40792 2.846369,0.27617 -1.866169,1.46502 z"
       id="path3-2"
       sodipodi:nodetypes="cccccccccc" />
    <path
       style="fill:#370189;fill-opacity:1;stroke:#370188;stroke-width:0;stroke-dasharray:none;stroke-opacity:1"
       d="m 70.693066,144.16103 1.533805,-2.69265 -2.398162,1.34205 -0.206298,-2.02077 -0.624539,2.27002 -2.387614,-0.69072 1.722959,1.60464 -2.416499,0.54708 2.275343,1.15329 z"
       id="path3-1-5"
       sodipodi:nodetypes="cccccccccc" />
    <path
       style="fill:#ee4302;fill-opacity:1;stroke:#370188;stroke-width:1.6045;stroke-dasharray:none;stroke-opacity:1"
       d="m 55.254352,144.56214 c -0.04589,0.41842 -0.05597,5.49786 -0.05597,5.49786 l -3.869942,2.02863 4.634323,-0.78377 0.375404,0.45958 0.353884,-0.47149 4.423093,0.71547 -3.50006,-1.87556 c 0,0 0.03543,-4.53948 0.0065,-4.60087 z"
       id="path7-8"
       sodipodi:nodetypes="cccccccccc" />
    <path
       style="fill:#ee4302;fill-opacity:1;stroke:#370188;stroke-width:1.6045;stroke-dasharray:none;stroke-opacity:1"
       d="m 70.434411,144.18924 0.171835,6.37092 3.977708,1.36 -5.043173,-0.73436 -0.375395,0.45957 -0.353903,-0.47148 -4.586684,0.6071 3.748834,-1.56819 c 0,0 0.0841,-4.65073 0.09085,-4.74728 z"
       id="path7-4-0"
       sodipodi:nodetypes="cccccccccc" />
    <path
       style="fill:#fdc458;fill-opacity:1;stroke:#370188;stroke-width:1.6045;stroke-dasharray:none;stroke-opacity:1"
       d="m 49.621779,116.73742 c 0,0 -19.442308,13.75101 3.515335,7.87761 z"
       id="path17-0"
       sodipodi:nodetypes="ccc" />
    <path
       style="fill:#fdc458;fill-opacity:1;stroke:#370188;stroke-width:1.6045;stroke-dasharray:none;stroke-opacity:1"
       d="m 78.049125,117.26243 c 0,0 17.334749,10.70884 -3.807722,7.79425 z"
       id="path16-7"
       sodipodi:nodetypes="ccc" />
    <path
       style="fill:#fdc458;fill-opacity:1;stroke:#370188;stroke-width:1.6045;stroke-dasharray:none;stroke-opacity:1"
       d="M 71.165273,109.78305 C 79.971518,90.103657 46.084212,90.40524 54.695075,110.10812 l 7.879836,3.88946 z"
       id="path23-5"
       sodipodi:nodetypes="cccc" />
    <path
       style="fill:#018816;fill-opacity:1;stroke:#370188;stroke-width:1.6045;stroke-dasharray:none;stroke-opacity:1"
       d="m 54.169337,124.67208 -4.952605,2.04526 -3.346193,-9.67102 6.833633,-2.76152 -0.154506,-5.09935 c 7.447653,1.28441 13.066255,0.47534 20.397362,-0.46358 v 4.32671 l 7.237746,3.9278 -3.330631,9.44556 -4.816649,-1.94983"
       id="path12-0"
       sodipodi:nodetypes="cccccccccc" />
    <path
       style="fill:none;fill-opacity:1;stroke:#370188;stroke-width:1.6045;stroke-dasharray:none;stroke-opacity:1"
       d="m 52.549981,114.18296 c 8.430822,11.87128 13.477686,11.43982 20.654378,-1.03028"
       id="path22-1"
       sodipodi:nodetypes="cc" />
    <path
       style="fill:none;fill-opacity:1;stroke:#370188;stroke-width:1.6045;stroke-dasharray:none;stroke-opacity:1"
       d="m 62.982623,96.18721 c 2.732099,-2.379563 -2.555813,-2.55583 0.264409,-4.494735"
       id="path26-0"
       sodipodi:nodetypes="cc" />
    <path
       style="fill:#b98bfe;fill-opacity:1;fill-rule:nonzero;stroke:#370188;stroke-width:1.6045;stroke-dasharray:none;stroke-opacity:1"
       d="m 121.98095,103.0531 c 8.18486,2.6904 7.01247,7.57123 -1.47774,5.60795"
       id="path61-9"
       sodipodi:nodetypes="cc" />
    <path
       style="fill:#b98bfe;fill-opacity:1;fill-rule:nonzero;stroke:#370188;stroke-width:1.6045;stroke-dasharray:none;stroke-opacity:1"
       d="m 86.53532,103.26468 c -8.184861,2.69039 -7.012472,7.57123 1.477738,5.60794"
       id="path61"
       sodipodi:nodetypes="cc" />
    <path
       style="fill:#b98bfe;fill-opacity:1;fill-rule:nonzero;stroke:#370188;stroke-width:1.6045;stroke-dasharray:none;stroke-opacity:1"
       d="m 95.302809,95.606889 c -12.903006,-12.83621 -3.363873,-26.725062 9.521571,-26.240702 12.69241,0.477098 20.40133,14.744546 8.5956,26.205307 1.94776,12.617966 5.0941,35.639456 5.37245,52.897236 -0.82443,4.72166 -8.16689,4.53716 -8.71134,-0.72595 -0.54447,-5.2631 -7.08141,-6.03444 -7.36772,-0.0846 -0.25441,5.287 -8.748106,5.26352 -8.966061,-0.0969 -1.282117,-8.81897 0.537155,-39.15948 1.5555,-51.954396 z"
       id="path49"
       sodipodi:nodetypes="csccssccc" />
    <path
       style="fill:#ee02ca;fill-opacity:1;fill-rule:nonzero;stroke:#370188;stroke-width:1.6045;stroke-dasharray:none;stroke-opacity:1"
       d="m 91.090992,147.88187 13.433718,0.20874 1.66672,-7.85857 1.73363,7.82863 13.82128,-0.052 -2.88424,-29.08194 -26.856578,0.14835 z"
       id="path55"
       sodipodi:nodetypes="cccccccc" />
    <path
       style="fill:#ee02ca;fill-opacity:1;fill-rule:nonzero;stroke:#370188;stroke-width:1.6045;stroke-dasharray:none;stroke-opacity:1"
       d="m 113.43571,95.129709 8.52677,36.144581 -32.038631,-0.17419 4.873058,-35.796195 7.606603,2.127872 3.92319,0.113714 z"
       id="path56"
       sodipodi:nodetypes="ccccccc" />
    <path
       style="fill:#ee02ca;fill-opacity:1;fill-rule:nonzero;stroke:#370188;stroke-width:1.6045;stroke-dasharray:none;stroke-opacity:1"
       d="m 95.107844,98.317074 -8.863616,3.099166 1.735523,8.83737 6.880152,-1.54959"
       id="path57"
       sodipodi:nodetypes="cccc" />
    <path
       style="fill:#ee02ca;fill-opacity:1;fill-rule:nonzero;stroke:#370188;stroke-width:1.6045;stroke-dasharray:none;stroke-opacity:1"
       d="m 113.61084,98.224528 8.86361,3.099172 -1.73551,8.83737 -6.88016,-1.54958"
       id="path57-4"
       sodipodi:nodetypes="cccc" />
    <path
       style="fill:#ee02ca;fill-opacity:1;fill-rule:nonzero;stroke:#370188;stroke-width:1.6045;stroke-dasharray:none;stroke-opacity:1"
       d="m 94.776432,95.316139 -1.978292,3.033368 c 8.45626,3.089863 14.45587,2.861733 22.26575,-0.04907 l -1.55004,-3.193125 c -6.78569,2.222798 -12.99143,2.24604 -18.737418,0.208832 z"
       id="path58"
       sodipodi:nodetypes="ccccc" />
    <path
       style="fill:#b98bfe;fill-opacity:1;fill-rule:nonzero;stroke:#370188;stroke-width:1.6045;stroke-dasharray:none;stroke-opacity:1"
       d="m 113.27302,73.817947 c 0,0 0.66367,-6.627171 -0.47312,-7.095759 -1.13678,-0.468593 -5.40627,5.135978 -5.40627,5.135978"
       id="path66-0"
       sodipodi:nodetypes="czc" />
    <path
       style="fill:#b98bfe;fill-opacity:1;fill-rule:nonzero;stroke:#370188;stroke-width:1.6045;stroke-dasharray:none;stroke-opacity:1"
       d="m 94.431402,73.881808 c 0,0 -0.663665,-6.627171 0.473123,-7.095764 1.136778,-0.468588 5.406275,5.135983 5.406275,5.135983"
       id="path66-0-3"
       sodipodi:nodetypes="czc" />
    <path
       style="fill:#b98bfe;fill-opacity:1;fill-rule:nonzero;stroke:#370188;stroke-width:1.6045;stroke-dasharray:none;stroke-opacity:1"
       d="m 106.98727,133.46689 c 10.38479,0.25962 8.42998,-10.69614 12.85118,-11.94252 4.29692,-1.21135 6.10107,2.07697 7.529,4.15392 1.42789,2.07697 -0.77887,4.54335 -2.59622,1.03849 -2.32503,-4.48398 -4.73146,-3.40369 -6.36069,1.55771 -1.21362,3.69582 -3.76448,7.52899 -11.03385,7.65879 -1.54281,-0.23296 -1.91797,-1.96412 -0.38942,-2.46639 z"
       id="path68"
       sodipodi:nodetypes="csssscc" />
    <path
       style="fill:#fe8b96;fill-opacity:1;stroke:#370188;stroke-width:1.6045;stroke-linejoin:miter;stroke-dasharray:none;stroke-opacity:1"
       d="m 49.628672,29.620271 h 8.684323 v 5.108423 c 0,0 0.305377,1.602161 0.919517,2.55422 -2.64613,0.001 -7.565448,0.203187 -9.025644,0.04528 -0.645124,-1.108825 -0.782533,-2.803835 -0.782533,-2.803835 z"
       id="path2"
       sodipodi:nodetypes="ccccccc" />
    <path
       style="fill:#fe8b96;fill-opacity:1;stroke:#370188;stroke-width:1.6045;stroke-linejoin:miter;stroke-dasharray:none;stroke-opacity:1"
       d="m 65.539889,59.971974 h 8.684333 v 5.10842 c 0,0 0.305377,1.602164 0.919517,2.554218 -2.646131,10e-4 -7.565448,0.203187 -9.025654,0.04528 C 65.47297,66.571068 65.335561,64.87606 65.335561,64.87606 Z"
       id="path2-0"
       sodipodi:nodetypes="ccccccc" />
    <path
       style="fill:#fe8b96;fill-opacity:1;stroke:#370188;stroke-width:1.6045;stroke-linejoin:miter;stroke-dasharray:none;stroke-opacity:1"
       d="m 134.66685,35.369707 h 8.68432 v 5.108444 c 0,0 0.30538,1.602164 0.91952,2.554223 -2.64613,0.001 -7.56545,0.203187 -9.02565,0.04528 -0.64512,-1.108818 -0.78253,-2.803836 -0.78253,-2.803836 z"
       id="path2-09"
       sodipodi:nodetypes="ccccccc" />
    <path
       style="fill:#fe8b96;fill-opacity:1;stroke:#370188;stroke-width:1.6045;stroke-linejoin:miter;stroke-dasharray:none;stroke-opacity:1"
       d="m 86.264647,31.358472 h 8.684324 v 5.108424 c 0,0 0.305376,1.602169 0.919516,2.554228 -2.64613,10e-4 -7.565447,0.203187 -9.025644,0.04528 -0.645115,-1.108828 -0.782533,-2.803843 -0.782533,-2.803843 z"
       id="path2-02"
       sodipodi:nodetypes="ccccccc" />
    <path
       style="fill:#fe8b96;fill-opacity:1;stroke:#370188;stroke-width:1.6045;stroke-linejoin:miter;stroke-dasharray:none;stroke-opacity:1"
       d="m 143.89271,71.06972 h 8.68432 v 5.108425 c 0,0 0.30538,1.60216 0.91952,2.554213 -2.64613,10e-4 -7.56545,0.203192 -9.02564,0.04528 -0.64513,-1.108819 -0.78254,-2.803832 -0.78254,-2.803832 z"
       id="path2-8"
       sodipodi:nodetypes="ccccccc" />
    <path
       style="fill:#fe8b96;fill-opacity:1;stroke:#370188;stroke-width:1.6045;stroke-linejoin:miter;stroke-dasharray:none;stroke-opacity:1"
       d="m 124.10397,59.169722 h 8.68432 v 5.108425 c 0,0 0.30538,1.60216 0.91952,2.554213 -2.64613,0.001 -7.56545,0.203192 -9.02565,0.04528 -0.64512,-1.108819 -0.78253,-2.803832 -0.78253,-2.803832 z"
       id="path2-8-9"
       sodipodi:nodetypes="ccccccc" />
    <path
       style="fill:#fe8b96;fill-opacity:1;stroke:#370188;stroke-width:1.6045;stroke-linejoin:miter;stroke-dasharray:none;stroke-opacity:1"
       d="m 116.2152,36.171953 h 8.68432 v 5.10845 c 0,0 0.30538,1.60216 0.91952,2.554213 -2.64613,0.001 -7.56545,0.203192 -9.02564,0.04528 -0.64513,-1.108819 -0.78254,-2.803832 -0.78254,-2.803832 z"
       id="path2-8-3"
       sodipodi:nodetypes="ccccccc" />
    <path
       style="fill:#fe8b96;fill-opacity:1;stroke:#370188;stroke-width:1.6045;stroke-linejoin:miter;stroke-dasharray:none;stroke-opacity:1"
       d="m 143.49159,19.458477 h 8.68433 v 5.108426 c 0,0 0.30538,1.602159 0.91952,2.554213 -2.64614,10e-4 -7.56545,0.203191 -9.02565,0.04528 -0.64511,-1.108819 -0.78253,-2.803832 -0.78253,-2.803832 z"
       id="path2-8-4"
       sodipodi:nodetypes="ccccccc" />
    <path
       style="fill:#fe8b96;fill-opacity:1;stroke:#370188;stroke-width:1.6045;stroke-linejoin:miter;stroke-dasharray:none;stroke-opacity:1"
       d="m 53.639945,49.810175 h 8.684323 v 5.108426 c 0,0 0.305377,1.602159 0.919517,2.554213 -2.64613,10e-4 -7.565448,0.203192 -9.025653,0.04528 -0.645115,-1.10882 -0.782524,-2.803832 -0.782524,-2.803832 z"
       id="path2-8-0"
       sodipodi:nodetypes="ccccccc" />
    <path
       style="fill:#fe8b96;fill-opacity:1;stroke:#370188;stroke-width:1.6045;stroke-linejoin:miter;stroke-dasharray:none;stroke-opacity:1"
       d="m 154.58933,29.620271 h 8.68432 v 5.108423 c 0,0 0.30538,1.602161 0.91952,2.55422 -2.64613,0.001 -7.56545,0.203187 -9.02565,0.04528 -0.64512,-1.108825 -0.78253,-2.803835 -0.78253,-2.803835 z"
       id="path2-1"
       sodipodi:nodetypes="ccccccc" />
    <path
       style="fill:#fe8b96;fill-opacity:1;stroke:#370188;stroke-width:1.6045;stroke-linejoin:miter;stroke-dasharray:none;stroke-opacity:1"
       d="m 106.85563,51.682087 h 8.68433 v 5.108426 c 0,0 0.30538,1.602159 0.91952,2.554212 -2.64613,0.001 -7.56545,0.203188 -9.02565,0.04528 -0.64512,-1.108818 -0.78253,-2.803831 -0.78253,-2.803831 z"
       id="path2-17"
       sodipodi:nodetypes="ccccccc" />
    <path
       style="fill:#fed68b;fill-opacity:1;stroke:#370188;stroke-width:1.6045;stroke-linejoin:miter;stroke-dasharray:none;stroke-opacity:1"
       d="m 69.952296,44.595566 h 8.684324 v 5.108425 c 0,0 0.305367,1.602164 0.919516,2.554218 -2.64613,10e-4 -7.565447,0.203187 -9.025644,0.04528 -0.645115,-1.108824 -0.782533,-2.803833 -0.782533,-2.803833 z"
       id="path2-41"
       sodipodi:nodetypes="ccccccc" />
    <path
       style="fill:#fed68b;fill-opacity:1;stroke:#370188;stroke-width:1.6045;stroke-linejoin:miter;stroke-dasharray:none;stroke-opacity:1"
       d="m 84.392732,44.59557 h 8.684333 v 5.108426 c 0,0 0.305359,1.602164 0.919517,2.554218 -2.64613,10e-4 -7.565448,0.203187 -9.025653,0.04528 -0.645115,-1.108824 -0.782524,-2.803831 -0.782524,-2.803831 z"
       id="path2-41-07"
       sodipodi:nodetypes="ccccccc" />
    <path
       style="fill:#fed68b;fill-opacity:1;stroke:#370188;stroke-width:1.6045;stroke-linejoin:miter;stroke-dasharray:none;stroke-opacity:1"
       d="m 78.242175,59.169722 h 8.684324 v 5.108425 c 0,0 0.305367,1.602164 0.919516,2.554218 -2.646121,0.001 -7.565438,0.203187 -9.025644,0.04528 -0.645115,-1.108824 -0.782524,-2.803832 -0.782524,-2.803832 z"
       id="path2-41-1"
       sodipodi:nodetypes="ccccccc" />
    <path
       style="fill:#fed68b;fill-opacity:1;stroke:#370188;stroke-width:1.6045;stroke-linejoin:miter;stroke-dasharray:none;stroke-opacity:1"
       d="m 86.264647,18.988469 h 8.684324 v 5.108425 c 0,0 0.305367,1.602164 0.919516,2.554218 -2.64613,10e-4 -7.565447,0.203187 -9.025644,0.04528 -0.645115,-1.108824 -0.782533,-2.803831 -0.782533,-2.803831 z"
       id="path2-41-87"
       sodipodi:nodetypes="ccccccc" />
    <path
       style="fill:#fed68b;fill-opacity:1;stroke:#370188;stroke-width:1.6045;stroke-linejoin:miter;stroke-dasharray:none;stroke-opacity:1"
       d="m 104.71634,23.469707 h 8.68433 v 5.108425 c 0,0 0.30537,1.602161 0.91951,2.554215 -2.64613,0.0012 -7.56544,0.203188 -9.02564,0.04528 -0.64511,-1.108822 -0.78253,-2.803833 -0.78253,-2.803833 z"
       id="path2-41-6"
       sodipodi:nodetypes="ccccccc" />
    <path
       style="fill:#fed68b;fill-opacity:1;stroke:#370188;stroke-width:1.6045;stroke-linejoin:miter;stroke-dasharray:none;stroke-opacity:1"
       d="m 133.3298,45.932647 h 8.68433 v 5.108425 c 0,0 0.30536,1.60216 0.91951,2.554213 -2.64613,0.001 -7.56545,0.203193 -9.02564,0.04528 -0.64512,-1.108824 -0.78254,-2.803831 -0.78254,-2.803831 z"
       id="path2-41-8"
       sodipodi:nodetypes="ccccccc" />
    <path
       style="fill:#fed68b;fill-opacity:1;stroke:#370188;stroke-width:1.6045;stroke-linejoin:miter;stroke-dasharray:none;stroke-opacity:1"
       d="m 153.25226,42.857365 h 8.68432 v 5.108426 c 0,0 0.30537,1.602165 0.91952,2.554218 -2.64614,10e-4 -7.56544,0.203187 -9.02565,0.04528 -0.64511,-1.108819 -0.78252,-2.803831 -0.78252,-2.803831 z"
       id="path2-41-4"
       sodipodi:nodetypes="ccccccc" />
    <path
       style="fill:#fed68b;fill-opacity:1;stroke:#370188;stroke-width:1.6045;stroke-linejoin:miter;stroke-dasharray:none;stroke-opacity:1"
       d="m 159.00171,61.309045 h 8.68431 v 5.108426 c 0,0 0.30538,1.602164 0.91953,2.554217 -2.64613,0.001 -7.56545,0.203187 -9.02565,0.04528 -0.64512,-1.108818 -0.78253,-2.803831 -0.78253,-2.803831 z"
       id="path2-41-0"
       sodipodi:nodetypes="ccccccc" />
    <path
       style="fill:#fed68b;fill-opacity:1;stroke:#370188;stroke-width:1.6045;stroke-linejoin:miter;stroke-dasharray:none;stroke-opacity:1"
       d="m 49.570357,68.861507 h 8.684324 v 5.108426 c 0,0 0.305367,1.602163 0.919516,2.554217 -2.64613,10e-4 -7.565447,0.203187 -9.025644,0.04528 -0.645124,-1.108824 -0.782533,-2.803832 -0.782533,-2.803832 z"
       id="path2-41-43"
       sodipodi:nodetypes="ccccccc" />
    <path
       style="fill:#fed68b;fill-opacity:1;stroke:#370188;stroke-width:1.6045;stroke-linejoin:miter;stroke-dasharray:none;stroke-opacity:1"
       d="m 130.25453,19.414709 h 8.68432 v 5.108427 c 0,0 0.30537,1.60216 0.91952,2.554215 -2.64613,0.0012 -7.56545,0.203187 -9.02564,0.04528 -0.64513,-1.108823 -0.78254,-2.803832 -0.78254,-2.803832 z"
       id="path2-41-64"
       sodipodi:nodetypes="ccccccc" />
    <path
       style="fill:#fed68b;fill-opacity:1;stroke:#370188;stroke-width:1.6045;stroke-linejoin:miter;stroke-dasharray:none;stroke-opacity:1"
       d="m 67.679275,25.207908 h 8.684315 v 5.108426 c 0,0 0.305367,1.602161 0.919516,2.554215 -2.64613,0.0012 -7.565438,0.203188 -9.025644,0.04528 -0.645115,-1.108822 -0.782524,-2.803832 -0.782524,-2.803832 z"
       id="path2-41-81"
       sodipodi:nodetypes="ccccccc" />
    <path
       style="fill:#fdc458;fill-opacity:1;stroke:#370188;stroke-width:1.6045;stroke-dasharray:none;stroke-opacity:1"
       d="m 143.8456,123.05144 c -2.80963,0.48541 -4.16092,2.18317 -5.03471,3.11273 -1.32976,1.41464 -2.52252,1.21618 -2.35371,-0.3685 0.30196,-2.83469 5.14999,-5.82715 7.17725,-6.01698"
       id="path30-7"
       sodipodi:nodetypes="cssc" />
    <path
       style="fill:#fdc458;fill-opacity:1;stroke:#370188;stroke-width:3.175;stroke-dasharray:none;stroke-opacity:1"
       d="m 224.55052,197.44576 c -12.13057,0.26606 -15.89228,11.18217 -16.1499,18.02856 -0.35985,9.56318 -1.39128,41.01085 1.92155,52.84227 3.31279,11.83143 5.20579,15.61748 24.13606,16.09074 18.9303,0.47326 66.25599,-0.47326 66.25599,-0.47326 0,0 -50.40306,-5.73793 -56.08215,-15.67633 -5.67909,-9.9384 -6.6762,-42.05426 -6.38778,-52.47267 0.20733,-7.48504 -2.33563,-17.86606 -13.69377,-18.33931 z"
       id="path26-6"
       sodipodi:nodetypes="cssscssc"
       clip-path="url(#clipPath34-9)"
       transform="matrix(0.50535241,0,0,0.50535241,38.538572,5.5793175)" />
    <path
       style="fill:#bb7a02;fill-opacity:1;stroke:#370188;stroke-width:3.175;stroke-dasharray:none;stroke-opacity:1"
       d="m 224.14154,273.03083 31.97746,5.88806 23.05606,0.40001 19.05838,-6.46377 -13.47289,-36.36905 -62.75623,-3.08099 z"
       id="path31-2"
       sodipodi:nodetypes="ccccccc"
       clip-path="url(#clipPath35-3)"
       transform="matrix(0.50535241,0,0,0.50535241,39.555576,6.0610546)" />
    <circle
       style="fill:#fdc458;fill-opacity:1;stroke:#370188;stroke-width:1.6045;stroke-dasharray:none;stroke-opacity:1"
       id="path28-8"
       cx="142.12813"
       cy="95.983788"
       r="1.2456588" />
    <path
       style="fill:#ffffff;fill-opacity:1;stroke:#370188;stroke-width:1.6045;stroke-dasharray:none;stroke-opacity:1"
       d="m 146.86161,106.7961 -3.98609,-9.36735"
       id="path29-3" />
    <circle
       style="fill:#fdc458;fill-opacity:1;stroke:#370188;stroke-width:3.175;stroke-dasharray:none;stroke-opacity:1"
       id="path28-0-8"
       cx="-242.14134"
       cy="178.57367"
       r="2.4649308"
       transform="matrix(-0.50535241,0,0,0.50535241,38.538572,5.5793175)"
       clip-path="url(#clipPath33-9)" />
    <path
       style="fill:#ffffff;fill-opacity:1;stroke:#370188;stroke-width:1.6045;stroke-dasharray:none;stroke-opacity:1"
       d="m 156.17178,106.63427 3.9861,-9.367354"
       id="path29-6-4" />
    <path
       style="mix-blend-mode:normal;fill:#02ee25;fill-opacity:1;fill-rule:nonzero;stroke:#370188;stroke-width:3.175;stroke-dasharray:none;stroke-opacity:1"
       d="m 205.74049,226.36918 1.62537,6.72842 -0.67367,5.19754 c 0,4.76463 -0.0632,31.61076 -8.46842,42.20189 15.8381,0.55553 79.83356,-0.1552 88.3358,-0.18222 -37.7825,1.13922 -58.0682,-12.11164 -59.33911,-26.02342 0.36421,-2.27978 4.38098,-11.00972 9.95297,-18.21531 0.35485,-0.45889 -0.23241,-2.66962 -0.23241,-2.66962 l 2.67862,-6.24797 -2.90824,-3.1085 -4.96751,6.207 -19.50783,-0.1624 -3.45028,-6.30801 z"
       id="path33-9"
       sodipodi:nodetypes="cccccccccccccc"
       clip-path="url(#clipPath32-2)"
       transform="matrix(0.50535241,0,0,0.50535241,38.538572,5.5793175)" />
    <path
       sodipodi:type="spiral"
       style="fill:#bb7a02;fill-opacity:1;fill-rule:evenodd;stroke:#370188;stroke-width:0.695287;stroke-dasharray:none;stroke-opacity:1"
       id="path27-6"
       sodipodi:cx="105.75211"
       sodipodi:cy="39.133308"
       sodipodi:expansion="1.9"
       sodipodi:revolution="1.9334221"
       sodipodi:radius="11.889563"
       sodipodi:argument="-18.497511"
       sodipodi:t0="0.12348633"
       d="m 105.69006,39.348002 c -0.32401,0.231852 -0.69518,-0.169723 -0.77546,-0.456763 -0.23505,-0.840481 0.61834,-1.513255 1.36818,-1.593915 1.54382,-0.16607 2.64192,1.346958 2.66372,2.759274 0.0376,2.433739 -2.34375,4.074075 -4.6113,3.978925 -3.50844,-0.14722 -5.803349,-3.60077 -5.534683,-6.911467 0.386721,-4.765458 5.112133,-7.824431 9.650103,-7.327023 4.56164,0.500002 8.17504,4.151459 9.16495,8.548855"
       transform="matrix(-2.3076697,0,0,2.3076697,424.7768,45.501678)" />
  </g>
</svg>
