<?xml version="1.0" encoding="UTF-8" standalone="no"?>
<!-- Created with Inkscape (http://www.inkscape.org/) -->

<svg
   width="840"
   height="600"
   viewBox="0 0 222.25 158.75"
   version="1.1"
   id="svg1"
   inkscape:version="1.4 (e7c3feb1, 2024-10-09)"
   sodipodi:docname="how-to-give-feedback.svg"
   inkscape:export-filename="how-to-give-feedback.png"
   inkscape:export-xdpi="96"
   inkscape:export-ydpi="96"
   xmlns:inkscape="http://www.inkscape.org/namespaces/inkscape"
   xmlns:sodipodi="http://sodipodi.sourceforge.net/DTD/sodipodi-0.dtd"
   xmlns="http://www.w3.org/2000/svg"
   xmlns:svg="http://www.w3.org/2000/svg">
  <sodipodi:namedview
     id="namedview1"
     pagecolor="#ffffff"
     bordercolor="#000000"
     borderopacity="0.25"
     inkscape:showpageshadow="2"
     inkscape:pageopacity="0.0"
     inkscape:pagecheckerboard="0"
     inkscape:deskcolor="#d1d1d1"
     inkscape:document-units="px"
     inkscape:zoom="0.97071554"
     inkscape:cx="422.88393"
     inkscape:cy="291.02243"
     inkscape:window-width="1728"
     inkscape:window-height="1052"
     inkscape:window-x="0"
     inkscape:window-y="65"
     inkscape:window-maximized="0"
     inkscape:current-layer="g1"
     inkscape:export-bgcolor="#ffffffff" />
  <defs
     id="defs1" />
  <g
     inkscape:label="Layer 1"
     inkscape:groupmode="layer"
     id="layer1">
    <g
       id="g1"
       transform="translate(-5.8142962,-0.99067857)">
      <path
         style="fill:#ffffff;fill-opacity:1;stroke:#370188;stroke-width:1.71526;stroke-dasharray:none;stroke-opacity:1"
         d="m 158.92803,90.201866 c -0.66317,4.35793 -7.19752,14.791734 -8.23964,16.970704 -1.04211,2.17897 1.71793,4.77984 3.61267,3.07457 1.89475,-1.70531 8.40891,-11.244784 9.26155,-14.560604"
         id="path5-1-2-1-7"
         sodipodi:nodetypes="cssc" />
      <path
         style="fill:#ffffff;fill-opacity:1;stroke:#370188;stroke-width:1.71526;stroke-dasharray:none;stroke-opacity:1"
         d="m 181.521,112.72605 c 0.43562,3.48497 2.40513,11.31668 6.47397,16.07288 3.26958,3.82189 7.766,4.52237 10.03011,5.76057 5.21291,2.85091 3.60977,7.48721 -1.03005,6.30589 -6.76221,-1.72167 -16.97768,-3.71535 -16.50627,-8.42939"
         id="path2-4-2-5-8-3"
         sodipodi:nodetypes="csssc" />
      <path
         style="fill:#fd268c;fill-opacity:1;stroke:#370188;stroke-width:1.71526;stroke-dasharray:none;stroke-opacity:1"
         d="m 158.15629,93.467036 -7.70193,10.877274 5.94534,5.20218"
         id="path13-6-7-6-8"
         sodipodi:nodetypes="ccc" />
      <path
         style="fill:#ffffff;fill-opacity:1;stroke:#370188;stroke-width:1.71526;stroke-dasharray:none;stroke-opacity:1"
         d="m 156.18072,65.891606 c -1.58922,-1.95298 0.38481,-3.56619 2.02732,-1.34009"
         id="path15-0-5-6-6-1"
         sodipodi:nodetypes="cc" />
      <path
         style="fill:#ffffff;fill-opacity:1;stroke:#370188;stroke-width:1.71533;stroke-dasharray:none;stroke-opacity:1"
         d="m 167.28622,78.873996 c -4.94113,9.23211 -23.66544,3.64082 -16.25373,-6.37145 7.41171,-10.01231 10.27236,-10.92253 16.12369,-10.66249 5.85136,0.26009 10.47364,5.50204 11.05255,9.75225 0.76247,5.59789 1.77439,31.576054 3.07471,39.247824 1.06533,6.28564 -0.4234,18.17921 -1.11052,24.86862 -0.15154,1.47511 -0.26403,2.69717 -0.3016,3.55021 -0.23656,5.37044 -7.15357,5.7739 -7.54172,0.3901 -0.28764,-3.98903 -5.37838,-3.31247 -5.53948,0 -0.24063,4.94781 -7.35057,4.86675 -7.77762,-0.13935 -0.49568,-5.8099 -3.2912,-21.70409 -2.74678,-27.8479 0.5185,-5.85134 3.60881,-28.236854 3.60881,-28.236854 v 0"
         id="path1-2-4-7-1-7"
         sodipodi:nodetypes="csssssssssscc" />
      <circle
         style="fill:#370188;fill-opacity:1;stroke:#370188;stroke-width:0.428813;stroke-opacity:1"
         id="path3-29-2-0"
         cx="158.08623"
         cy="69.25312"
         r="0.80152524" />
      <circle
         style="fill:#370188;fill-opacity:1;stroke:#370188;stroke-width:0.428813;stroke-opacity:1"
         id="path3-3-5-9-1"
         cx="163.76401"
         cy="70.49778"
         r="0.80152524" />
      <path
         style="fill:#370188;fill-opacity:1;stroke:#370188;stroke-width:1.71526;stroke-dasharray:none;stroke-opacity:1"
         d="m 155.45128,75.414946 c 0.56732,-0.36801 2.677,0.2481 2.94407,0.82802 0.24986,0.54254 -2.03627,1.68865 -2.42273,1.47204 -0.28291,-0.15848 -1.0887,-1.93205 -0.52134,-2.30006 z"
         id="path4-2-3-9-6"
         sodipodi:nodetypes="zssz" />
      <path
         style="fill:#fd268c;fill-opacity:1;stroke:#370188;stroke-width:1.71526;stroke-dasharray:none;stroke-opacity:1"
         d="m 181.16459,125.73025 c -0.18159,2.84162 -0.53069,14.7702 -0.53069,14.7702 l -10.2153,-0.30954 -1.06132,-3.18402 -0.92867,3.22821 -10.87863,0.30957 c 0,0 -0.1131,-10.66039 -0.35376,-15.47773 -0.24064,-4.81734 -1.65927,-7.12085 -1.03476,-13.41837 0.6245,-6.29754 2.93049,-24.004954 2.93049,-24.004954 l 2.81995,0.60431 2.61853,5.43847 2.2157,-5.5392 12.38768,-0.80571 c 0,0 0.92636,16.197894 2.22011,23.868924 1.29373,7.67096 0.17804,9.31829 0.0693,10.8663 -0.10887,1.54801 -0.0769,0.81192 -0.2585,3.65354 z"
         id="path14-0-7-8-2"
         sodipodi:nodetypes="zccccczzccccczzz" />
      <path
         style="fill:#ffffff;fill-opacity:1;stroke:#370188;stroke-width:1.71526;stroke-dasharray:none;stroke-opacity:1"
         d="m 179.70962,93.372676 c 0.36855,5.38072 -0.82821,16.199854 -1.04669,18.346564 -0.29483,2.89682 -4.07609,3.53798 -4.66577,0.0736 -0.58967,-3.46433 -0.83017,-14.539364 -0.83017,-14.539364"
         id="path6-86-3-4-3"
         sodipodi:nodetypes="cssc" />
      <path
         style="fill:#ffffff;fill-opacity:1;stroke:#370188;stroke-width:1.71526;stroke-dasharray:none;stroke-opacity:1"
         d="m 167.12264,87.690956 -2.22415,5.99774"
         id="path10-5-4-0-6-1"
         sodipodi:nodetypes="cc" />
      <path
         style="fill:#fd268c;fill-opacity:1;stroke:#370188;stroke-width:1.71526;stroke-dasharray:none;stroke-opacity:1"
         d="m 169.12081,93.010196 -1.63961,-4.77502 11.7754,-0.86065 1.40834,4.81185 z"
         id="path7-1-7-2-3-4"
         sodipodi:nodetypes="ccccc" />
      <path
         style="fill:#ffffff;fill-opacity:1;stroke:#370188;stroke-width:1.71526;stroke-dasharray:none;stroke-opacity:1"
         d="m 164.73279,93.838246 -2.71521,-6.14729"
         id="path9-9-9-5-8-8"
         sodipodi:nodetypes="cc" />
      <path
         style="fill:#fd268c;fill-opacity:1;stroke:#370188;stroke-width:1.71526;stroke-dasharray:none;stroke-opacity:1"
         d="m 159.03112,87.687466 2.7299,0.42446 -1.07393,4.83979 -3.40771,-0.97345 z"
         id="path8-9-5-7-9-9"
         sodipodi:nodetypes="ccccc" />
      <path
         style="fill:#fd268c;fill-opacity:1;stroke:#370188;stroke-width:1.71526;stroke-dasharray:none;stroke-opacity:1"
         d="m 171.55158,96.234156 0.40139,13.167264 8.01801,-1.62663 -0.3705,-14.446274"
         id="path12-2-2-7-8-2"
         sodipodi:nodetypes="cccc" />
      <path
         style="fill:#fd268c;fill-opacity:1;stroke:#370188;stroke-width:1.71526;stroke-dasharray:none;stroke-opacity:1"
         d="m 164.78436,93.588276 c 0,0 -0.70919,15.057314 -0.76374,16.639404 -0.0547,1.58211 0.99172,17.66239 0.99172,17.66239 l 2.78975,-0.21491"
         id="path11-7-9-4-2-3"
         sodipodi:nodetypes="csc" />
      <circle
         style="fill:#370188;fill-opacity:1;stroke:#370188;stroke-width:0.428813;stroke-opacity:1"
         id="path3-3-6-16-4-6-1"
         r="0.40604851"
         cy="98.184654"
         cx="166.74171"
         inkscape:transform-center-x="1.3689627"
         inkscape:transform-center-y="-7.6776928e-06" />
      <circle
         style="fill:#370188;fill-opacity:1;stroke:#370188;stroke-width:0.428813;stroke-opacity:1"
         id="path3-3-6-9-41-1-0-5"
         r="0.40604851"
         cy="103.58599"
         cx="166.48192"
         inkscape:transform-center-x="1.3689477"
         inkscape:transform-center-y="-8.7985657e-06" />
      <circle
         style="fill:#370188;fill-opacity:1;stroke:#370188;stroke-width:0.428813;stroke-opacity:1"
         id="path3-3-6-2-6-2-9-0"
         r="0.40604851"
         cy="108.61317"
         cx="166.22542"
         inkscape:transform-center-x="1.3689583" />
      <circle
         style="fill:#370188;fill-opacity:1;stroke:#370188;stroke-width:0.428813;stroke-opacity:1"
         id="path3-3-6-1-3-7-6-7"
         r="0.40604851"
         cy="113.83483"
         cx="166.31346"
         inkscape:transform-center-x="1.3689656"
         inkscape:transform-center-y="2.0702857e-06" />
      <circle
         style="fill:#370188;fill-opacity:1;stroke:#370188;stroke-width:0.428813;stroke-opacity:1"
         id="path3-3-6-6-9-8-5-4"
         r="0.40604851"
         cy="119.24097"
         cx="166.61894"
         inkscape:transform-center-x="1.3689528"
         inkscape:transform-center-y="1.4992985e-06" />
      <circle
         style="fill:#370188;fill-opacity:1;stroke:#370188;stroke-width:0.428813;stroke-opacity:1"
         id="path3-3-6-60-59-6-9-2"
         r="0.40604851"
         cy="124.4641"
         cx="166.92339"
         inkscape:transform-center-x="1.3689485"
         inkscape:transform-center-y="-2.5815033e-06" />
      <path
         style="fill:#ffffff;fill-opacity:1;stroke:#370188;stroke-width:1.71526;stroke-dasharray:none;stroke-opacity:1"
         d="m 170.91276,68.218976 c 1.79853,-1.64729 3.27652,0.96355 1.64727,1.98492"
         id="path15-1-0-5-7"
         sodipodi:nodetypes="cc" />
      <path
         style="fill:#9a58fd;fill-opacity:1;stroke:#370188;stroke-width:1.69312;stroke-dasharray:none;stroke-opacity:1"
         d="m 52.975893,132.07971 -7.292016,0.437 3.955012,-5.00888 -6.367075,-2.2536 3.793583,-3.04529 -5.509267,-3.1396 3.130423,-3.35838 -5.860805,-1.92709 3.872385,-3.85508 -6.433649,-2.09571 3.2738,-3.20317 -4.522115,-3.54231 4.378855,-3.125094 -4.741651,-3.17685 4.079627,-2.96805 -4.832879,-2.99505 3.06584,-2.89015 -3.766879,-3.06066 4.965927,-3.12337 -3.975819,-3.36027 3.42781,-2.99487 -2.284026,-5.59866 4.441489,-0.9915 -0.724167,-5.31042 5.561368,-0.26253 -0.518785,-6.29836 4.782342,0.0753 0.755151,-6.97767 5.74463,2.65342 1.118101,-5.51793 4.99126,3.53849 2.729343,-4.97076 4.003284,4.65859 5.147066,-4.65859 2.383686,5.62652 6.791771,-3.54405 0.339158,5.80011 7.85506,-1.46984 -0.311576,5.37747 5.712718,0.99349 -2.445352,5.2215 6.087905,1.99134 -3.888875,4.98929 4.811259,3.05794 -2.707638,3.26757 4.357528,4.10514 -2.840454,3.59206 3.583294,4.70813 -3.207394,2.71507 2.269294,5.62549 -3.995881,1.25221 3.877401,4.293734 -4.368842,2.70425 4.034232,5.54022 -4.694617,2.31966 4.273627,5.61903 -3.999012,1.82327 2.374967,5.37182 -6.622201,0.39747 0.697889,6.47235 -4.745448,-2.44393 -1.325137,5.68417 -5.71199,-2.83713 -1.616344,3.7778 -4.118164,-5.47813 -2.979867,7.17985 -3.991227,-4.31156 -4.19046,4.16777 -4.820792,-3.19957 -5.030765,2.51249 z"
         id="path1"
         sodipodi:nodetypes="ccccccccccccccccccccccccccccccccccccccccccccccccccccccccccccccccccccccc" />
      <path
         style="fill:#ffffff;fill-opacity:1;stroke:#370188;stroke-width:1.69312;stroke-dasharray:none;stroke-opacity:1"
         d="m 53.414574,113.55945 c 0,0 -0.433417,-1.03365 -1.372278,-4.30977 -0.938855,-3.27616 -3.479737,-17.062524 -3.479737,-17.062524 -0.354567,-3.11501 0.181273,-10.74602 0.441593,-14.75822 0.226852,-3.49585 3.667937,-9.76128 6.303699,-13.35587 2.292848,-3.12695 7.002552,-4.96747 10.740925,-5.9471 5.327963,-1.39617 13.718791,-1.69631 18.614134,2.54496 3.235703,2.80336 7.264434,7.50397 8.336443,10.57469 1.058956,3.03329 3.06207,15.02144 3.365638,19.08778 0,0 -1.51098,13.953484 -1.728568,16.607234 -0.217589,2.65374 -0.492101,4.17962 -0.492101,4.17962"
         id="path24-7"
         sodipodi:nodetypes="czssssscczc" />
      <circle
         style="fill:#370189;fill-opacity:1;stroke:#370188;stroke-width:0;stroke-dasharray:none;stroke-opacity:1"
         id="path2-9"
         cx="77.289703"
         cy="70.212212"
         r="1.1629527" />
      <circle
         style="fill:#370189;fill-opacity:1;stroke:#370188;stroke-width:0;stroke-dasharray:none;stroke-opacity:1"
         id="path2-9-9"
         cx="68.09156"
         cy="71.010231"
         r="1.1629527" />
      <path
         style="fill:#ffffff;fill-opacity:1;stroke:#370188;stroke-width:1.69312;stroke-dasharray:none;stroke-opacity:1"
         d="m 78.710948,73.294026 c 4.447518,3.56876 6.172886,8.14785 5.727448,9.38067 -0.432129,1.19594 -9.667338,2.29465 -15.897438,1.61541 -1.993971,-0.2174 -3.825025,-1.85341 -4.564071,-3.24995"
         id="path7"
         sodipodi:nodetypes="cssc" />
      <path
         style="fill:#370188;fill-opacity:1;stroke:#370188;stroke-width:2.43797;stroke-dasharray:none;stroke-opacity:1"
         d="m 81.073131,78.830576 c -0.714362,0.24027 -2.044985,2.3371 -1.934591,3.53245 0.110225,1.19538 2.360524,-0.14764 2.360524,-0.14764 l 1.53829,-0.43682 -0.56936,-1.77938 c 0,0 -0.680568,-1.40884 -1.394863,-1.16855 z"
         id="path8"
         sodipodi:nodetypes="zzcccz"
         inkscape:transform-center-x="-4.3832428"
         inkscape:transform-center-y="0.81058653" />
      <path
         style="fill:#ffffff;fill-opacity:1;stroke:#370188;stroke-width:1.69316;stroke-dasharray:none;stroke-opacity:1"
         d="m 90.784238,125.62899 c 0,0 2.226764,8.87839 1.692961,13.01403 -0.715531,5.54359 -6.67093,6.7322 -9.224187,1.83184 -1.861193,-3.57212 -5.415076,-12.45903 -5.415076,-12.45903"
         id="path11-9"
         sodipodi:nodetypes="cssc" />
      <path
         style="fill:#ffffff;fill-opacity:1;stroke:#370188;stroke-width:1.69316;stroke-dasharray:none;stroke-opacity:1"
         d="m 73.657955,128.57147 c 0,0 -1.424323,7.03508 -3.013797,11.29383 -1.740404,4.66312 -7.415143,5.00008 -9.70022,0.47971 -2.994767,-5.92428 -2.838537,-13.82992 -2.838537,-13.82992"
         id="path12"
         sodipodi:nodetypes="cssc" />
      <path
         style="fill:#ffffff;fill-opacity:1;stroke:#370188;stroke-width:1.69312;stroke-dasharray:none;stroke-opacity:1"
         d="m 40.996181,97.566906 c -8.261821,10.342074 0.76323,9.607404 5.379419,6.642684"
         id="path10-71"
         sodipodi:nodetypes="cc" />
      <path
         style="fill:#ffffff;fill-opacity:1;stroke:#370188;stroke-width:1.69312;stroke-dasharray:none;stroke-opacity:1"
         d="m 105.40313,96.298246 c 7.29253,7.541524 0.38122,8.972274 -4.61747,6.500424"
         id="path9-6"
         sodipodi:nodetypes="cc" />
      <path
         style="fill:#ffffff;fill-opacity:1;stroke:#370189;stroke-width:1.69312;stroke-dasharray:none;stroke-opacity:1"
         d="m 54.370025,100.49707 -6.704672,5.20528 -8.247739,-10.011244 c 3.308692,-5.13403 6.402105,-8.31423 9.430191,-13.60057 0,0 11.538556,8.71207 20.354265,8.23554 3.817427,-0.20632 9.267026,-0.53003 11.825787,-1.02329 6.714917,-1.29446 13.379701,-8.88393 13.379701,-8.88393 l 4.203872,4.97912 7.45906,8.60137 -6.561785,9.632894 -6.855129,-5.387234"
         id="path13-4"
         sodipodi:nodetypes="ccccssccccc" />
      <path
         style="fill:#ffdb00;fill-opacity:1;stroke:#370188;stroke-width:1.69312;stroke-dasharray:none;stroke-opacity:1"
         d="m 42.946908,90.711426 58.802802,-1.00225 m -61.264134,5.52837 65.135114,-0.94154 m -62.844453,5.23647 60.118813,-1.10117 m -56.710439,4.917154 48.34074,-0.42395 m -42.228553,4.92821 42.052329,-0.6112"
         id="path30-0"
         sodipodi:nodetypes="cccccccccc" />
      <path
         style="fill:#ee9b02;fill-opacity:1;stroke:#370188;stroke-width:1.69312;stroke-dasharray:none;stroke-opacity:1"
         d="m 63.106158,94.502756 21.415762,-1.41135 3.839807,14.767534 6.607318,3.61279 1.110072,28.94072 -17.098668,-0.19428 -2.446165,-11.25332 -1.835964,11.41111 -19.514595,-0.0136 -2.595601,-26.52257 7.64389,-4.14322 z"
         id="path16"
         sodipodi:nodetypes="cccccccccccc" />
      <path
         style="fill:none;stroke:#370188;stroke-width:1.69312;stroke-dasharray:none;stroke-opacity:1"
         d="m 66.595819,105.18873 16.084463,-0.80558 c 0,0 1.588848,3.29915 0.960786,6.30504 -0.628028,3.00588 -1.865257,4.24544 -4.043444,5.40939 -2.178221,1.16395 -6.424608,1.20853 -8.842124,0.17672 -2.417498,-1.03182 -3.403175,-2.70994 -4.161968,-4.75324 -0.758788,-2.04331 -0.347469,-4.12988 -0.347469,-4.12988 z"
         id="path17"
         sodipodi:nodetypes="cczzzzcc" />
      <path
         style="fill:none;stroke:#370189;stroke-width:1.69312;stroke-dasharray:none;stroke-opacity:1"
         d="m 75.812624,129.63192 3.027953,0.085 -1.189211,-7.31301"
         id="path19-6"
         sodipodi:nodetypes="ccc" />
      <path
         style="fill:#ffffff;fill-opacity:1;stroke:#370188;stroke-width:1.69312;stroke-dasharray:none;stroke-opacity:1"
         d="m 81.32179,62.257386 c 4.878901,-6.84058 10.603336,-0.11225 5.102619,4.56354"
         id="path25-21"
         sodipodi:nodetypes="cc" />
      <path
         style="fill:#ffffff;fill-opacity:1;stroke:#370188;stroke-width:1.69312;stroke-dasharray:none;stroke-opacity:1"
         d="m 57.0563,68.855176 c -6.149842,-3.40414 0.482667,-12.2144 5.020415,-4.31938"
         id="path25-0"
         sodipodi:nodetypes="cc" />
      <path
         style="fill:none;fill-opacity:1;stroke:#370188;stroke-width:1.69312;stroke-dasharray:none;stroke-opacity:1"
         d="m 57.039923,118.39661 c 2.412777,-0.1856 5.011189,-1.11359 5.196813,-5.3824"
         id="path26-9" />
      <path
         style="fill:none;fill-opacity:1;stroke:#370188;stroke-width:1.69312;stroke-dasharray:none;stroke-opacity:1"
         d="m 86.92159,112.08621 c 1.670408,2.9696 2.041616,3.34081 4.640014,4.2688"
         id="path27-1" />
      <path
         style="fill:#ee9b02;fill-opacity:1;stroke:#370188;stroke-width:1.69312;stroke-dasharray:none;stroke-opacity:1"
         d="M 45.430393,88.685916 66.183706,103.12739 70.746848,96.347566 49.591021,82.616636"
         id="path28-4"
         sodipodi:nodetypes="cccc" />
      <ellipse
         style="fill:#370188;fill-opacity:1;stroke:#370188;stroke-width:0;stroke-dasharray:none;stroke-opacity:1"
         id="path2-5-0-6"
         cx="65.113708"
         cy="97.496162"
         rx="2.3812613"
         ry="2.3854535" />
      <path
         style="fill:#ee9b02;fill-opacity:1;stroke:#370188;stroke-width:1.69312;stroke-dasharray:none;stroke-opacity:1"
         d="m 94.085992,80.816346 -17.847232,15.7206 5.54269,5.882024 17.941457,-14.553054"
         id="path29-0"
         sodipodi:nodetypes="cccc" />
      <ellipse
         style="fill:#370188;fill-opacity:1;stroke:#370188;stroke-width:0;stroke-dasharray:none;stroke-opacity:1"
         id="path2-5-0"
         cx="82.2705"
         cy="96.918755"
         rx="2.3812613"
         ry="2.3854535" />
      <text
         xml:space="preserve"
         style="font-style:normal;font-variant:normal;font-weight:normal;font-stretch:normal;font-size:19.05px;font-family:'Nanum Pen';-inkscape-font-specification:'Nanum Pen';text-align:center;letter-spacing:0px;word-spacing:0px;writing-mode:lr-tb;direction:ltr;text-anchor:middle;white-space:pre;inline-size:263.091;display:inline;fill:#370188;fill-opacity:1;stroke:none;stroke-width:1.5875;stroke-linecap:round;stroke-dasharray:none;stroke-opacity:1"
         x="23.771687"
         y="156.49693"
         id="svg1_text17"
         transform="matrix(0.53327992,0,0,0.53327992,100.85351,-60.195644)"><tspan
           x="23.771687"
           y="156.49693"
           id="tspan1">Do you mind if I give you feedback on...</tspan></text>
      <path
         style="fill:none;fill-opacity:1;stroke:#370188;stroke-width:0.846582;stroke-linecap:round;stroke-dasharray:none;stroke-opacity:1"
         d="m 154.11673,55.664126 c -0.64551,-12.37836 -40.85975,-14.16902 -40.70631,-25.83175"
         id="svg1_path13-1"
         sodipodi:nodetypes="cc" />
    </g>
  </g>
</svg>
