<?xml version="1.0" encoding="UTF-8" standalone="no"?>
<!-- Created with Inkscape (http://www.inkscape.org/) -->

<svg
   width="1572"
   height="1048"
   viewBox="0 0 1572 1048"
   version="1.1"
   id="svg1"
   inkscape:version="1.4 (e7c3feb1, 2024-10-09)"
   sodipodi:docname="thumbnail-would-you-rather-grow-your-follower-count-or-be-honest.svg"
   inkscape:export-filename="thumbnail-canvas-222.png"
   inkscape:export-xdpi="96"
   inkscape:export-ydpi="96"
   xmlns:inkscape="http://www.inkscape.org/namespaces/inkscape"
   xmlns:sodipodi="http://sodipodi.sourceforge.net/DTD/sodipodi-0.dtd"
   xmlns:xlink="http://www.w3.org/1999/xlink"
   xmlns="http://www.w3.org/2000/svg"
   xmlns:svg="http://www.w3.org/2000/svg">
  <sodipodi:namedview
     id="namedview1"
     pagecolor="#ffffff"
     bordercolor="#000000"
     borderopacity="0.25"
     inkscape:showpageshadow="2"
     inkscape:pageopacity="0.0"
     inkscape:pagecheckerboard="0"
     inkscape:deskcolor="#d1d1d1"
     inkscape:document-units="px"
     inkscape:zoom="0.52745861"
     inkscape:cx="837.03251"
     inkscape:cy="532.74323"
     inkscape:window-width="1728"
     inkscape:window-height="1057"
     inkscape:window-x="0"
     inkscape:window-y="32"
     inkscape:window-maximized="0"
     inkscape:current-layer="layer1"
     showguides="true"
     inkscape:export-bgcolor="#ffffffff"
     showgrid="false">
    <sodipodi:guide
       position="0,824"
       orientation="0,1"
       id="guide1"
       inkscape:locked="false"
       inkscape:label=""
       inkscape:color="rgb(0,134,229)" />
    <sodipodi:guide
       position="0,224"
       orientation="0,1"
       id="guide2"
       inkscape:locked="false"
       inkscape:label=""
       inkscape:color="rgb(0,134,229)" />
    <sodipodi:guide
       position="300,1048"
       orientation="-1,0"
       id="guide3"
       inkscape:locked="false"
       inkscape:label=""
       inkscape:color="rgb(0,134,229)" />
    <sodipodi:guide
       position="1272,1048"
       orientation="-1,0"
       id="guide4"
       inkscape:locked="false"
       inkscape:label=""
       inkscape:color="rgb(0,134,229)" />
    <sodipodi:guide
       position="0,1010"
       orientation="0,1"
       id="guide5"
       inkscape:locked="false"
       inkscape:label=""
       inkscape:color="rgb(0,134,229)" />
    <sodipodi:guide
       position="376.40858,38.136077"
       orientation="0,1"
       id="guide6"
       inkscape:locked="false"
       inkscape:label=""
       inkscape:color="rgb(0,134,229)" />
  </sodipodi:namedview>
  <defs
     id="defs1">
    <rect
       x="458.01223"
       y="-206.78189"
       width="730.50052"
       height="85.031807"
       id="rect5" />
    <rect
       x="342.05977"
       y="1105.4135"
       width="844.52044"
       height="117.885"
       id="rect4" />
    <rect
       x="320.80182"
       y="1111.2111"
       width="887.03635"
       height="139.14296"
       id="rect3" />
    <linearGradient
       id="linearGradient253"
       inkscape:collect="always"
       inkscape:label="ez">
      <stop
         style="stop-color:#00e8b6;stop-opacity:1;"
         offset="0"
         id="stop241" />
      <stop
         style="stop-color:#00e4db;stop-opacity:1;"
         offset="0.09633028"
         id="stop242" />
      <stop
         style="stop-color:#00dffa;stop-opacity:1;"
         offset="0.2"
         id="stop243" />
      <stop
         style="stop-color:#77d4ff;stop-opacity:1;"
         offset="0.27247897"
         id="stop244" />
      <stop
         style="stop-color:#9accff;stop-opacity:1;"
         offset="0.34938708"
         id="stop245" />
      <stop
         style="stop-color:#b1c5ff;stop-opacity:1;"
         offset="0.42299694"
         id="stop246" />
      <stop
         style="stop-color:#c5bdff;stop-opacity:1;"
         offset="0.4966068"
         id="stop247" />
      <stop
         style="stop-color:#deb2ff;stop-opacity:1;"
         offset="0.57254267"
         id="stop248" />
      <stop
         style="stop-color:#ff9ff7;stop-opacity:1;"
         offset="0.64847851"
         id="stop249" />
      <stop
         style="stop-color:#ffa8d1;stop-opacity:1;"
         offset="0.72441435"
         id="stop250" />
      <stop
         style="stop-color:#ffacb8;stop-opacity:1;"
         offset="0.80035025"
         id="stop251" />
      <stop
         style="stop-color:#ffafa2;stop-opacity:1;"
         offset="0.90137613"
         id="stop252" />
      <stop
         style="stop-color:#ffb288;stop-opacity:1;"
         offset="0.99770641"
         id="stop253" />
    </linearGradient>
    <clipPath
       clipPathUnits="userSpaceOnUse"
       id="clipPath46-7-8-41-5">
      <rect
         style="fill:none;stroke:#0b0b0d;stroke-width:2.69655;stroke-linecap:round;stroke-dasharray:none;stroke-opacity:1"
         id="rect47-0-8-1-1"
         width="32.358547"
         height="32.358547"
         x="205.18127"
         y="27.402294"
         inkscape:label="logo-rect"
         transform="matrix(0,1,1,0,0,0)" />
    </clipPath>
    <filter
       style="color-interpolation-filters:sRGB;"
       inkscape:label="Lightness-Contrast"
       id="filter9"
       x="0"
       y="0"
       width="1"
       height="1">
      <feColorMatrix
         values="0.21 0.72 0.072 0 0 0.21 0.72 0.072 0 0 0.21 0.72 0.072 0 0 0 0 0 1 0 "
         id="feColorMatrix9"
         result="fbSourceGraphic" />
      <feColorMatrix
         result="fbSourceGraphicAlpha"
         in="fbSourceGraphic"
         values="0 0 0 -1 0 0 0 0 -1 0 0 0 0 -1 0 0 0 0 1 0"
         id="feColorMatrix10" />
      <feColorMatrix
         id="feColorMatrix11"
         values="0.21 0.72 0.072 0 0 0.21 0.72 0.072 0 0 0.21 0.72 0.072 0 0 0 0 0 1 0 "
         in="fbSourceGraphic"
         result="fbSourceGraphic" />
      <feColorMatrix
         result="fbSourceGraphicAlpha"
         in="fbSourceGraphic"
         values="0 0 0 -1 0 0 0 0 -1 0 0 0 0 -1 0 0 0 0 1 0"
         id="feColorMatrix12" />
      <feColorMatrix
         id="feColorMatrix13"
         values="0.21 0.72 0.072 0 0 0.21 0.72 0.072 0 0 0.21 0.72 0.072 0 0 0 0 0 1 0 "
         in="fbSourceGraphic"
         result="fbSourceGraphic" />
      <feColorMatrix
         result="fbSourceGraphicAlpha"
         in="fbSourceGraphic"
         values="0 0 0 -1 0 0 0 0 -1 0 0 0 0 -1 0 0 0 0 1 0"
         id="feColorMatrix51" />
      <feColorMatrix
         id="feColorMatrix52"
         values="1.09464 0 0 0.122242 -0.0473186 0 1.09464 0 0.122242 -0.0473186 0 0 1.09464 0.122242 -0.0473186 0 0 0 1 0"
         in="fbSourceGraphic" />
    </filter>
    <clipPath
       clipPathUnits="userSpaceOnUse"
       id="clipPath13">
      <rect
         style="fill:none;stroke:#0b0b0d;stroke-width:2.21842;stroke-linecap:round;stroke-dasharray:none;stroke-opacity:1"
         id="rect13"
         width="21.581957"
         height="32.836674"
         x="204.94221"
         y="27.163223"
         inkscape:label="logo-rect"
         transform="matrix(0,1,1,0,0,0)" />
    </clipPath>
    <clipPath
       clipPathUnits="userSpaceOnUse"
       id="clipPath46-7-8-41-5-4">
      <rect
         style="fill:none;stroke:#0b0b0d;stroke-width:2.69655;stroke-linecap:round;stroke-dasharray:none;stroke-opacity:1"
         id="rect47-0-8-1-1-3"
         width="32.358547"
         height="32.358547"
         x="205.18127"
         y="27.402294"
         inkscape:label="logo-rect"
         transform="matrix(0,1,1,0,0,0)" />
    </clipPath>
    <linearGradient
       inkscape:collect="always"
       xlink:href="#linearGradient253"
       id="linearGradient78-7-7-6"
       x1="41.46246"
       y1="238.44952"
       x2="48.383949"
       y2="223.60632"
       gradientUnits="userSpaceOnUse" />
    <clipPath
       clipPathUnits="userSpaceOnUse"
       id="clipPath56">
      <use
         x="0"
         y="0"
         xlink:href="#g55"
         id="use56" />
    </clipPath>
    <filter
       style="color-interpolation-filters:sRGB;"
       inkscape:label="Lightness-Contrast"
       id="filter4"
       x="0"
       y="0"
       width="1"
       height="1">
      <feColorMatrix
         values="1.218 0 0 0.171423 -0.109 0 1.218 0 0.171423 -0.109 0 0 1.218 0.171423 -0.109 0 0 0 1 0"
         id="feColorMatrix4" />
    </filter>
    <linearGradient
       inkscape:collect="always"
       xlink:href="#linearGradient253"
       id="linearGradient20"
       x1="2921.4268"
       y1="574.56885"
       x2="1408.4056"
       y2="183.04095"
       gradientUnits="userSpaceOnUse"
       gradientTransform="matrix(0.54411764,0,0,0.63276909,-20.201727,144.83922)" />
  </defs>
  <g
     inkscape:label="main"
     inkscape:groupmode="layer"
     id="layer1">
    <g
       id="g56"
       clip-path="url(#clipPath56)"
       inkscape:label="Image-bg">
      <g
         inkscape:label="Clip"
         id="g55">
        <image
           width="916.13147"
           height="1221.5085"
           preserveAspectRatio="none"
           xlink:href="../../../../../Downloads/IMG_8506.jpeg"
           id="image1"
           x="327.5408"
           y="269.6535"
           style="opacity:1;filter:url(#filter4)"
           transform="matrix(1.7159109,0,0,1.7159109,-562.03084,-679.89939)"
           inkscape:label="main-image" />
        <rect
           style="display:inline;fill:none;stroke:none;stroke-width:28.943;stroke-dasharray:none"
           id="rect55"
           width="1572"
           height="1048"
           x="0"
           y="0"
           inkscape:label="rect-for-clip" />
      </g>
    </g>
    <rect
       style="display:inline;opacity:1;mix-blend-mode:saturation;fill:#000000;fill-opacity:1;stroke-width:32.75"
       id="rect17"
       width="1572"
       height="1048"
       x="0"
       y="0"
       inkscape:label="overlay-greyscale" />
    <path
       id="rect18"
       style="opacity:0.87;mix-blend-mode:multiply;fill:url(#linearGradient20);stroke-width:19.2168"
       inkscape:label="overlay-gradient"
       d="m 949.06123,183.74055 23.44454,13.04776 -7.17365,8.58801 -5.8864,11.12274 -0.40874,7.26228 27.13004,32.88335 16.52208,18.61198 7.0865,0.15432 15.1739,-8.22074 10.6641,-10.61747 13.5877,0.27657 6.3264,11.55333 10.0036,-0.64426 0.2223,21.23186 -10.7516,2.78131 0.1634,4.2756 5.3691,-0.8212 2.5377,5.05976 39.7946,-10.33692 0.1972,-10.35039 42.9565,-7.60165 -0.3133,4.65804 -38.679,7.27609 -1.1927,16.15756 4.4738,0.0227 5.8069,8.17095 9.2307,32.10708 30.9839,21.23727 -23.8167,23.69249 -58.0857,7.53466 -11.9312,27.4521 -0.3637,57.27859 -6.077,2.40589 -0.7804,9.98427 -1.2059,2.43354 -3.1723,0.23137 -0.3167,6.95993 -3.4252,0.35112 0.14,10.19014 -1.2821,4.66681 -27.1624,32.81834 7.5099,-0.66146 -0.4359,-4.07517 10.4316,-0.88353 7.1102,-1.63269 1.0359,0.94273 23.2953,-1.97304 0.4487,3.59264 2.8741,0.5718 2.4221,3.58108 37.0544,-2.53473 -0.9061,-4.63405 8.1574,-0.42571 2.1045,2.78305 85.43,-7.35121 7.1821,0.0193 -0.4233,-3.37041 -6.0598,0.56175 -4.8629,-40.69487 -0.4638,-15.35891 1.9748,-2.73159 -0.1046,-7.19939 1.7088,-1.18367 -0.6418,-41.15046 -2.735,-1.06185 -0.07,-5.36184 2.0911,-1.08268 0.6714,-14.758 1.3644,-7.70399 -3.1214,0.0241 0.6284,-3.71846 -0.4831,-13.05099 1.8373,-1.61817 0.581,-22.86222 5.5731,-13.02375 -0.2553,-13.27215 -2.2441,-6.36107 -3.0207,-25.24527 v -8.56176 l 2.219,-1.99766 0.6708,-27.41715 -3.1433,-32.50757 -0.9644,-13.34936 -4.5024,-0.42053 1.302,-30.29486 -1.1337,-42.01795 3.6537,-0.37917 0.088,-1.91563 45.7678,-8.92919 1.9285,20.7578 1.0209,48.37411 1.5971,48.36115 0.1648,4.91579 1.6812,0.0431 -0.9203,9.8341 -1.5003,0.92624 2.2952,11.19039 -4.1674,9.48767 5.4256,43.0024 -0.061,9.28727 -0.649,13.77183 1.644,35.94211 -5.3081,0.21947 -0.3265,27.54507 -1.4172,0.77144 0.4966,28.35629 2.6181,28.06488 1.1026,31.00234 59.0781,-1.51347 -1.523,-49.55715 -3.1268,-11.06649 1.1895,-3.02819 0.2336,-19.12268 -1.6261,-8.77275 -5.6628,-1.35191 -0.076,-18.10033 70.2119,-7.34988 20.3088,-2.22514 -1.582,-49.7271 -17.8278,2.87895 -16.5142,7.08498 -54.348,15.20216 -1.4833,-6.31622 30.9234,-10.34916 -20.7278,1.49197 -3.827,-47.39421 -0.5912,-12.83519 -3.4385,-17.28459 49.5665,-8.29418 0.285,-2.91653 47.7703,-6.4919 -1.4846,-3.63645 -97.6764,14.72088 0.3609,-14.55164 5.3858,-1.18989 -0.9726,-45.89649 -1.1403,-0.59172 -0.074,-3.58325 1.1111,-0.39444 -0.7148,-8.17918 0.7959,-2.89929 -0.6442,-5.46167 -1.5983,-0.0167 -1.7384,-53.14583 47.071,-9.4373 4.7319,-1.63346 6.8625,0.006 40.8359,-7.602371 1.2553,16.556801 -0.7686,30.16657 1.1387,0.46813 0.1435,15.43396 -1.4423,1.04653 0.2799,14.77375 1.9467,42.32624 0.239,3.03777 -0.8431,0.27235 0.4002,8.9434 45.5907,-7.32639 1.6166,-54.4742 1.9812,-0.86608 -0.9654,-11.66503 1.0356,-1.69027 -6e-4,-10.0701 -1.3401,-1.03833 0.4069,-9.50517 0.8125,-1.25984 -0.2685,-7.62738 -1.692,-1.14452 0.022,-7.0291 1.85,-0.63611 0.074,-12.51287 1.3114,-10.87447 52.954,-9.366313 -0.3238,-4.904467 7.6813,-2.558422 13.1718,-0.541645 2.768,38.037747 0.3088,9.32873 -0.4783,15.63678 -2.7011,2.61769 -1.5681,48.48601 -1.6096,12.01953 2.0962,0.44506 -1.1638,15.29298 -0.3384,3.87573 -8.5821,1.69606 -1.327,5.10609 -27.7015,8.93948 -26.6892,25.46358 -8.4129,16.16602 -15.355,5.01501 -18.4877,4.75622 -1.0772,2.10278 -0.702,6.80868 -4.1056,0.95766 0.4818,4.35347 -7.8505,1.58711 -0.1487,3.5113 -4.2454,1.32786 0.7575,3.60824 0.7767,55.89077 4.3433,-2.1039 0.1542,-4.07218 10.1678,-1.76489 0.5478,-15.50888 -1.733,-8.6037 5.4039,-4.21463 24.2933,-6.26253 -0.7497,-8.15262 12.3453,-12.96112 -0.01,-4.70529 1.1057,-0.2251 -0.4966,-4.36287 5.1872,-1.11584 -0.3115,-5.70583 16.3328,-2.0768 0.051,-3.40799 32.1489,-5.09827 0.2587,4.0216 1.8543,0.0967 0.2484,8.26582 -3.6151,0.25688 -0.5761,6.9943 -20.741,17.70292 -16.5229,6.71237 -4.6613,27.52673 0.5521,0.68129 -2.3622,16.21575 -3.5525,1.21143 -0.1477,3.33853 -3.5713,1.86009 -3.1506,3.01173 0.656,8.03694 -5.2611,2.26235 -1.016,14.07002 -3.3679,9.80202 -21.7018,37.39835 -1.424,18.01559 -18.1857,4.52527 0.5155,25.83116 9.0847,-0.50585 2.4647,-8.11952 13.1602,-9.69749 3.1257,-1.77646 2.0785,-10.77845 6.6528,-0.52915 0.1399,-17.17026 2.6982,-0.12431 16.4127,-29.89715 4.9859,4.0077 -5.5752,12.97643 4.3652,-0.38209 0.2787,10.69381 3.2752,-0.0956 0.3941,19.42836 1.2467,3.54482 -13.9731,29.64152 -0.6288,7.87007 29.7417,9.39375 1.5754,1.50616 8.3654,-0.50183 0.42,-3.75193 -2.5288,-3.66419 9.2236,-44.84604 -2.0244,-7.42906 -10.8536,1.83079 -0.049,-6.60379 0.705,-0.65547 -0.2641,-8.19932 7.7594,-0.6106 -0.01,-3.7696 -1.0299,-0.29533 0.202,-8.78284 1.4374,-30.46058 29.1211,-6.72465 30.9056,-4.76837 2.0078,-1.61629 14.9115,-4.47541 -3.7561,177.31006 -346.8316,27.64792 -283.57632,24.19298 -5.03016,-1.62658 -95.01941,8.79004 -0.43557,-25.03859 -10.94706,2.0715 -5.13332,-65.92899 0.53075,-3.73588 3.17655,-1.87332 -0.17808,-7.46813 -7.6514,-5.09785 -0.10724,-13.51183 -1.03105,-2.07797 -8.76403,3.88013 -3.32595,-15.47658 3.49319,-2.16518 -1.82009,-15.31301 -2.19825,-13.25648 3.5404,-0.95352 -5.08264,-26.97392 -1.41111,-6.94511 2.41756,-10.52357 1.21568,-11.15736 -1.22309,-6.74257 -0.10755,-17.01565 -3.26653,-43.12573 -2.53984,-0.80198 -2.45626,-47.57899 1.25129,-0.91469 -0.0546,-6.44482 -1.81522,-0.99568 -0.10158,-5.68258 1.28733,-5.78184 -1.46852,-37.81716 0.65153,-13.2188 3.12445,-0.25255 0.28356,2.17788 4.55486,-0.0457 0.0992,-0.63352 2.21468,-0.16365 -0.0767,-2.94321 1.57409,-0.92788 4.04158,9.4e-4 1.72705,1.98855 2.08445,-0.0804 0.13828,4.02266 1.72031,0.005 -0.0722,-1.49819 -1.22286,-0.78424 -0.0192,-4.50628 35.05882,-6.9541 0.57873,0.33602 1.06157,1.55302 0.0854,0.50993 0.97111,-0.076 -0.003,-1.22611 0.36106,-0.67062 37.45282,-6.60078 0.87429,0.37532 37.071,-7.43453 z"
       sodipodi:nodetypes="ccccccccccccccccccccccccccccccccccccccccccccccccccccccccccccccccccccccccccccccccccccccccccccccccccccccccccccccccccccccccccccccccccccccccccccccccccccccccccccccccccccccccccccccccccccccccccccccccccccccccccccccccccccccccccccccccccccccccccccccccccccccccccccccccccccccccccccccccccccccccccccccccccccccccccccccccccccccccccccccccccccccccccccccccccccc" />
    <g
       id="g46-5-8-1"
       transform="matrix(0.84259103,0,0,0.8425906,-12366.996,-6244.1938)"
       inkscape:label="kim">
      <g
         id="g3-7-4-9-4-3-8"
         transform="matrix(9.4368927,0,0,9.4368927,14915.855,6108.1394)"
         clip-path="url(#clipPath46-7-8-41-5-4)"
         inkscape:label="kim-clip">
        <g
           id="g47-3-2-6-4-6"
           transform="matrix(-1.053027,0,0,1.053027,88.461913,-13.110297)"
           inkscape:label="kim-group-for-klip">
          <path
             style="fill:#ffffff;fill-opacity:1;stroke:#0b0b0d;stroke-width:1.0053;stroke-dasharray:none;stroke-opacity:1"
             d="m 53.1253,241.37655 c 0.25531,2.0425 1.409609,6.63258 3.794299,9.42012 1.916261,2.23997 4.551562,2.65051 5.878532,3.37621 3.055229,1.67087 2.115638,4.38815 -0.603701,3.69579 -3.963241,-1.00905 -9.9504,-2.17752 -9.674119,-4.94036"
             id="path2-4-7-9-6-5-7-3"
             sodipodi:nodetypes="csssc"
             inkscape:label="tail" />
          <path
             style="fill:#ffffff;fill-opacity:1;stroke:#0b0b0d;stroke-width:1.0053;stroke-dasharray:none;stroke-opacity:1"
             d="m 38.273671,213.92748 c -0.931411,-1.14462 0.225537,-2.0901 1.188189,-0.78542"
             id="path15-0-0-0-51-0-6-0"
             sodipodi:nodetypes="cc"
             inkscape:label="ear-left" />
          <path
             style="fill:#ffffff;fill-opacity:1;stroke:#0b0b0d;stroke-width:1.00532;stroke-dasharray:none;stroke-opacity:1"
             d="m 44.782471,221.53629 c -2.89593,5.41084 -13.870011,2.13385 -9.526111,-3.73423 4.3439,-5.86809 6.020499,-6.40155 9.4499,-6.24914 3.429399,0.15242 6.13847,3.22467 6.477761,5.71568 0.446879,3.28084 1.03994,18.50631 1.802038,23.00263 0.62439,3.68395 -0.248139,10.65462 -0.650838,14.57519 -0.0888,0.86456 -0.154762,1.5808 -0.176781,2.08076 -0.13864,3.14753 -4.192611,3.384 -4.420129,0.22863 -0.168561,-2.33793 -3.15218,-1.94141 -3.246602,0 -0.14103,2.89984 -4.308069,2.85233 -4.558368,-0.0816 -0.290501,-3.40514 -1.928933,-12.72052 -1.609862,-16.32132 0.30389,-3.4294 2.11508,-16.54927 2.11508,-16.54927 v 0"
             id="path1-2-1-4-0-6-5-9"
             sodipodi:nodetypes="csssssssssscc"
             inkscape:label="body" />
          <path
             style="fill:none;fill-opacity:1;stroke:#0b0b0d;stroke-width:1.00493;stroke-dasharray:none;stroke-opacity:1"
             d="m 38.713391,216.0683 c 0.487578,-1.41508 2.635968,-0.54537 1.99971,0.45448"
             id="path32-1-6-0-6-6-6"
             sodipodi:nodetypes="cc"
             inkscape:label="eye-right" />
          <path
             style="fill:none;fill-opacity:1;stroke:#0b0b0d;stroke-width:1.00493;stroke-dasharray:none;stroke-opacity:1"
             d="m 42.347511,217.31598 c 0.487578,-1.41508 2.635978,-0.54537 1.999697,0.45448"
             id="path32-9-1-1-4-3-5-2"
             sodipodi:nodetypes="cc"
             inkscape:label="eye-left" />
          <path
             style="fill:#0b0b0d;fill-opacity:1;stroke:#0b0b0d;stroke-width:1.00533;stroke-dasharray:none;stroke-opacity:1"
             d="m 37.84615,219.50898 c 0.33251,-0.21568 1.568961,0.14542 1.72549,0.4853 0.146441,0.31798 -1.19343,0.9897 -1.419931,0.86275 -0.165808,-0.0929 -0.638079,-1.13236 -0.305559,-1.34805 z"
             id="path4-8-1-4-0-4-8"
             sodipodi:nodetypes="zssz"
             inkscape:label="nose" />
          <path
             style="fill:none;fill-opacity:1;stroke:#0b0b0d;stroke-width:1.0053;stroke-dasharray:none;stroke-opacity:1"
             d="m 52.916408,248.99817 -0.31103,8.65662 -5.987058,-0.18143 -0.622031,-1.86609 -0.544281,1.89201 -6.37583,0.18143 c 0,0 -0.0663,-6.24793 -0.207338,-9.07131 -0.14103,-2.82337 -0.972479,-4.17345 -0.60646,-7.86435 0.366019,-3.6909 1.717521,-14.06899 1.717521,-14.06899 l 1.65275,0.35416 1.53469,3.18744 1.298589,-3.24646 7.26028,-0.47222 c 0,0 0.115921,2.02698 0.315443,4.65126 0.04095,0.53858 0.08542,1.10232 0.133127,1.67885 0.222924,2.69382 0.516619,5.66707 0.852589,7.65916 0.75824,4.49588 -0.110961,8.50992 -0.110961,8.50992 z"
             id="path14-2-9-0-1-0"
             sodipodi:nodetypes="cccccczzcccccsssc"
             inkscape:label="jumpsuit-contour" />
          <path
             style="fill:#ffffff;fill-opacity:1;stroke:#370188;stroke-width:1.0053;stroke-dasharray:none;stroke-opacity:1"
             d="m 44.6866,226.70381 -1.303549,3.5152"
             id="path10-5-9-8-4-1-4"
             sodipodi:nodetypes="cc"
             inkscape:label="collar-v-right" />
          <path
             style="display:inline;opacity:1;fill:url(#linearGradient78-7-7-6);fill-opacity:1;stroke:none;stroke-width:0.325311;stroke-dasharray:none;stroke-opacity:1"
             d="m 51.715726,236.54813 0.23305,1.35694 -14.013079,0.24797 0.21731,-1.59251 -1.243956,-2.47129 1.236184,-3.38234 0.889932,-0.97739 0.08935,-0.68003 -1.415107,-0.64852 0.914695,-2.14383 12.434173,-0.88611 1.028177,3.00298 -1.086256,0.61296 0.185811,2.5535 1.758825,2.17717 -0.25725,2.57259 z"
             id="path77-86-1-0"
             transform="matrix(0.94964327,0,0,0.94964327,3.0099754,12.450105)"
             inkscape:label="grad-bg"
             sodipodi:nodetypes="ccccccccccccccccc" />
          <path
             style="fill:none;fill-opacity:1;stroke:#0b0b0d;stroke-width:1.0053;stroke-dasharray:none;stroke-opacity:1"
             d="m 45.85769,229.82134 -0.960929,-2.79858 6.901398,-0.50441 0.825412,2.82017 z"
             id="path7-1-2-9-5-9-4"
             sodipodi:nodetypes="ccccc"
             inkscape:label="collar-right" />
          <path
             style="fill:#ffffff;fill-opacity:1;stroke:#370188;stroke-width:1.0053;stroke-dasharray:none;stroke-opacity:1"
             d="M 43.285939,230.30665 41.6946,226.7038"
             id="path9-9-6-7-3-0-4"
             sodipodi:nodetypes="cc"
             inkscape:label="collar-v-left" />
          <path
             style="fill:none;fill-opacity:1;stroke:#0b0b0d;stroke-width:1.0053;stroke-dasharray:none;stroke-opacity:1"
             d="m 39.94426,226.70177 1.599959,0.24876 -0.629411,2.83654 -1.997209,-0.57053 z"
             id="path8-9-9-5-1-5-3"
             sodipodi:nodetypes="ccccc"
             inkscape:label="collar-left" />
          <path
             style="fill:none;fill-opacity:1;stroke:#0b0b0d;stroke-width:1.0053;stroke-dasharray:none;stroke-opacity:1"
             d="m 43.316169,230.16015 c 0,0 -0.41566,8.8249 -0.447638,9.75216 -0.032,0.92726 0.581238,10.35169 0.581238,10.35169 l 1.635052,-0.12595"
             id="path11-7-6-3-8-77-4"
             sodipodi:nodetypes="csc"
             inkscape:label="zip" />
          <circle
             style="fill:#0b0b0d;fill-opacity:1;stroke:#0b0b0d;stroke-width:0.251322;stroke-opacity:1"
             id="path3-3-6-4-5-5-3-3"
             r="0.23798001"
             cy="232.85405"
             cx="44.463379"
             inkscape:transform-center-x="2.5473964"
             inkscape:transform-center-y="-3.3359917e-05"
             inkscape:label="button-1" />
          <circle
             style="fill:#0b0b0d;fill-opacity:1;stroke:#0b0b0d;stroke-width:0.251322;stroke-opacity:1"
             id="path3-3-6-9-8-5-0-2-7"
             r="0.23798001"
             cy="236.0197"
             cx="44.311127"
             inkscape:transform-center-x="2.5473672"
             inkscape:transform-center-y="-8.8337132e-06"
             inkscape:label="button-2" />
          <circle
             style="fill:#370188;fill-opacity:1;stroke:#0b0b0d;stroke-width:0.251322;stroke-opacity:1"
             id="path3-3-6-2-7-0-1-9-2"
             r="0.23798001"
             cy="238.96605"
             cx="44.160797"
             inkscape:transform-center-x="2.5473177"
             inkscape:transform-center-y="2.1149829e-06"
             inkscape:label="button-3" />
          <circle
             style="fill:#370188;fill-opacity:1;stroke:#0b0b0d;stroke-width:0.251322;stroke-opacity:1"
             id="path3-3-6-1-3-6-9-8-3"
             r="0.23798001"
             cy="242.02641"
             cx="44.212372"
             inkscape:transform-center-x="2.547382"
             inkscape:transform-center-y="3.4559455e-05"
             inkscape:label="button-4" />
          <circle
             style="fill:#370188;fill-opacity:1;stroke:#0b0b0d;stroke-width:0.251322;stroke-opacity:1"
             id="path3-3-6-6-4-5-5-0-9"
             r="0.23798001"
             cy="245.19487"
             cx="44.391418"
             inkscape:transform-center-x="2.5473966"
             inkscape:transform-center-y="-7.9173349e-05"
             inkscape:label="button-5" />
          <circle
             style="fill:#370188;fill-opacity:1;stroke:#0b0b0d;stroke-width:0.251322;stroke-opacity:1"
             id="path3-3-6-60-7-5-5-76-3"
             r="0.23798001"
             cy="248.25612"
             cx="44.569824"
             inkscape:transform-center-x="2.5474322"
             inkscape:transform-center-y="1.983531e-06"
             inkscape:label="button-6" />
          <path
             style="fill:#ffffff;fill-opacity:1;stroke:#0b0b0d;stroke-width:1.0053;stroke-dasharray:none;stroke-opacity:1"
             d="m 46.907939,215.29153 c 1.054082,-0.96547 1.920321,0.56471 0.965452,1.16333"
             id="path15-9-8-9-2-5-4"
             sodipodi:nodetypes="cc"
             inkscape:label="ear-right" />
          <path
             style="fill:#ffffff;fill-opacity:1;stroke:#0b0b0d;stroke-width:1.00532;stroke-opacity:1"
             d="m 39.843249,226.34195 c 0.205241,6.4309 8.369301,6.48952 8.50612,-0.01"
             id="path18-8-0-2-1-9-4"
             sodipodi:nodetypes="cc"
             inkscape:label="coffee-mug" />
          <ellipse
             style="fill:#ffffff;fill-opacity:1;stroke:#0b0b0d;stroke-width:1.00532;stroke-opacity:1"
             id="path2-6-7-5-8-7"
             cx="44.095459"
             cy="226.36685"
             rx="4.2585411"
             ry="1.1075325"
             inkscape:label="coffee-mug-brim" />
          <ellipse
             style="fill:#0b0b0d;fill-opacity:1;stroke:none;stroke-width:1.95987"
             id="path20-0-4-9-5-0"
             cx="44.114563"
             cy="226.61852"
             rx="2.7531805"
             ry="0.58996719"
             inkscape:label="coffee-fill" />
          <path
             style="fill:#ffffff;fill-opacity:1;stroke:#0b0b0d;stroke-width:1.0053;stroke-dasharray:none;stroke-opacity:1"
             d="m 40.480589,231.54038 c 0.281202,-0.34052 0.51453,-0.56463 1.129372,-1.0507 1.110499,-0.87792 2.639128,0.82874 1.596438,1.89873 -0.231928,0.238 -0.411756,0.42238 -0.553151,0.56618"
             id="path5-6-4-5-92-2"
             sodipodi:nodetypes="cssc"
             inkscape:label="hand-left" />
          <path
             style="fill:none;fill-opacity:1;stroke:#0b0b0d;stroke-width:1.0053;stroke-dasharray:none;stroke-opacity:1"
             d="m 40.020509,231.15399 3.0864,2.29269 -4.367058,3.40435 c -0.86555,-1.85303 -0.789071,-3.61634 0.621508,-5.25259 z"
             id="path13-0-6-9-0-6"
             sodipodi:nodetypes="ccccc"
             inkscape:label="arm-left" />
          <path
             style="fill:#ffffff;fill-opacity:1;stroke:#0b0b0d;stroke-width:1.0053;stroke-dasharray:none;stroke-opacity:1"
             d="m 46.969463,232.78416 c -0.149831,-0.13846 -0.124071,-0.16605 -0.525855,-0.63328 -1.112692,-1.29395 0.311497,-3.25837 1.912413,-1.96264 0.103975,0.0841 0.235586,0.19634 0.382265,0.32467"
             id="path6-2-0-5-4-3"
             sodipodi:nodetypes="cssc"
             inkscape:label="hand-right" />
          <path
             style="fill:none;fill-opacity:1;stroke:#0b0b0d;stroke-width:1.0053;stroke-dasharray:none;stroke-opacity:1"
             d="m 52.095019,232.74017 -2.889848,-2.63359 -2.310312,3.02852 5.75343,4.56 c 0.277571,-1.65164 1.297719,-3.30328 -0.55327,-4.95493 z"
             id="path12-2-5-3-8-2-0"
             sodipodi:nodetypes="ccccc"
             inkscape:label="arm-right" />
        </g>
      </g>
    </g>
    <path
       id="rect2"
       style="fill:#0b0b0d"
       d="m 300,224 v 600 h 972 V 582.22371 l -32.75,2.1275 V 791.25 H 332.75 V 256.75 H 799.24023 L 798.04297,224 Z m 659.89844,0 3.9375,7.64062 12.41015,15.57032 4.77344,3.1875 5.08203,6.35156 H 1207.3112 L 1205.1405,224 Z"
       sodipodi:nodetypes="ccccccccccccccccccc" />
  </g>
</svg>
