<?xml version="1.0" encoding="UTF-8" standalone="no"?>
<!-- Created with Inkscape (http://www.inkscape.org/) -->

<svg
   width="1080"
   height="1350"
   viewBox="0 0 285.74999 357.1875"
   version="1.1"
   id="svg1"
   inkscape:version="1.4 (e7c3feb1, 2024-10-09)"
   sodipodi:docname="panel-01.svg"
   xml:space="preserve"
   xmlns:inkscape="http://www.inkscape.org/namespaces/inkscape"
   xmlns:sodipodi="http://sodipodi.sourceforge.net/DTD/sodipodi-0.dtd"
   xmlns="http://www.w3.org/2000/svg"
   xmlns:svg="http://www.w3.org/2000/svg"><sodipodi:namedview
     id="namedview1"
     pagecolor="#ffffff"
     bordercolor="#000000"
     borderopacity="0.25"
     inkscape:showpageshadow="2"
     inkscape:pageopacity="0.0"
     inkscape:pagecheckerboard="0"
     inkscape:deskcolor="#d1d1d1"
     inkscape:document-units="px"
     inkscape:zoom="0.41092839"
     inkscape:cx="0"
     inkscape:cy="764.1234"
     inkscape:window-width="1728"
     inkscape:window-height="1057"
     inkscape:window-x="0"
     inkscape:window-y="32"
     inkscape:window-maximized="0"
     inkscape:current-layer="layer1"
     showguides="true"
     showgrid="false" /><defs
     id="defs1"><rect
       x="337.60629"
       y="293.08679"
       width="868.13049"
       height="871.84045"
       id="rect26" /><rect
       x="358.01108"
       y="335.75131"
       width="877.4054"
       height="734.57196"
       id="rect25" /><rect
       x="418.44797"
       y="244.75258"
       width="748.0744"
       height="801.36731"
       id="rect16" /><clipPath
       clipPathUnits="userSpaceOnUse"
       id="clipPath32"><rect
         style="fill:none;fill-opacity:1;fill-rule:nonzero;stroke:#370188;stroke-width:3.175;stroke-dasharray:none;stroke-opacity:1"
         id="rect33"
         width="282.57498"
         height="354.01248"
         x="1.5875"
         y="15.875003" /></clipPath><clipPath
       clipPathUnits="userSpaceOnUse"
       id="clipPath33"><rect
         style="fill:none;fill-opacity:1;fill-rule:nonzero;stroke:#370188;stroke-width:3.175;stroke-dasharray:none;stroke-opacity:1"
         id="rect34"
         width="282.57498"
         height="354.01248"
         x="1.5875"
         y="15.875003"
         transform="scale(-1,1)" /></clipPath><clipPath
       clipPathUnits="userSpaceOnUse"
       id="clipPath34"><rect
         style="fill:none;fill-opacity:1;fill-rule:nonzero;stroke:#370188;stroke-width:3.175;stroke-dasharray:none;stroke-opacity:1"
         id="rect35"
         width="282.57498"
         height="354.01248"
         x="1.5875"
         y="15.875003" /></clipPath><clipPath
       clipPathUnits="userSpaceOnUse"
       id="clipPath35"><rect
         style="fill:none;fill-opacity:1;fill-rule:nonzero;stroke:#370188;stroke-width:3.175;stroke-dasharray:none;stroke-opacity:1"
         id="rect36"
         width="282.57498"
         height="354.01248"
         x="1.5875"
         y="15.875003" /></clipPath><clipPath
       clipPathUnits="userSpaceOnUse"
       id="clipPath1"><rect
         style="fill:none;fill-opacity:1;fill-rule:nonzero;stroke:#370188;stroke-width:0.695287;stroke-dasharray:none;stroke-opacity:1"
         id="rect2"
         width="61.880581"
         height="77.524551"
         x="-167.02388"
         y="-16.952217"
         transform="scale(-1,1)" /></clipPath><clipPath
       clipPathUnits="userSpaceOnUse"
       id="clipPath2"><rect
         style="fill:none;fill-opacity:1;fill-rule:nonzero;stroke:#370188;stroke-width:3.175;stroke-dasharray:none;stroke-opacity:1"
         id="rect3"
         width="282.57498"
         height="354.01248"
         x="139.64767"
         y="-132.82672"
         transform="rotate(21.214416)" /></clipPath><clipPath
       clipPathUnits="userSpaceOnUse"
       id="clipPath3"><rect
         style="fill:none;fill-opacity:1;fill-rule:nonzero;stroke:#370188;stroke-width:3.175;stroke-dasharray:none;stroke-opacity:1"
         id="rect4"
         width="282.57498"
         height="354.01248"
         x="1.5875"
         y="1.5875"
         transform="rotate(23.854687)" /></clipPath><clipPath
       clipPathUnits="userSpaceOnUse"
       id="clipPath5"><rect
         style="fill:none;fill-opacity:1;fill-rule:nonzero;stroke:#370188;stroke-width:3.175;stroke-dasharray:none;stroke-opacity:1"
         id="rect6"
         width="282.57498"
         height="354.01248"
         x="1.5875"
         y="1.5875"
         transform="rotate(23.854687)" /></clipPath><clipPath
       clipPathUnits="userSpaceOnUse"
       id="clipPath6"><rect
         style="fill:none;fill-opacity:1;fill-rule:nonzero;stroke:#370188;stroke-width:3.175;stroke-dasharray:none;stroke-opacity:1"
         id="rect7"
         width="282.57498"
         height="354.01248"
         x="114.21098"
         y="-148.05612"
         transform="rotate(21.830906)" /></clipPath><clipPath
       clipPathUnits="userSpaceOnUse"
       id="clipPath4"><rect
         style="fill:none;fill-opacity:1;fill-rule:nonzero;stroke:#370188;stroke-width:3.175;stroke-dasharray:none;stroke-opacity:1"
         id="rect8"
         width="282.57498"
         height="354.01248"
         x="1.5875157"
         y="-10.583325"
         transform="matrix(-0.96921458,-0.24621757,-0.24621757,0.96921458,0,0)" /></clipPath><clipPath
       clipPathUnits="userSpaceOnUse"
       id="clipPath8"><rect
         style="fill:none;fill-opacity:1;fill-rule:nonzero;stroke:#370188;stroke-width:3.175;stroke-dasharray:none;stroke-opacity:1"
         id="rect12"
         width="282.57498"
         height="354.01248"
         x="1.5875157"
         y="-10.583325"
         transform="matrix(-0.96921458,-0.24621757,-0.24621757,0.96921458,0,0)" /></clipPath><clipPath
       clipPathUnits="userSpaceOnUse"
       id="clipPath12"><rect
         style="fill:none;fill-opacity:1;fill-rule:nonzero;stroke:#370188;stroke-width:3.175;stroke-dasharray:none;stroke-opacity:1"
         id="rect13"
         width="282.57498"
         height="354.01248"
         x="1.5875157"
         y="-10.583325"
         transform="matrix(-0.96921458,-0.24621757,-0.24621757,0.96921458,0,0)" /></clipPath><clipPath
       clipPathUnits="userSpaceOnUse"
       id="clipPath13"><rect
         style="fill:none;fill-opacity:1;fill-rule:nonzero;stroke:#370188;stroke-width:3.175;stroke-dasharray:none;stroke-opacity:1"
         id="rect14"
         width="282.57498"
         height="354.01248"
         x="1.5875157"
         y="-10.583325"
         transform="matrix(-0.96921458,-0.24621757,-0.24621757,0.96921458,0,0)" /></clipPath><clipPath
       clipPathUnits="userSpaceOnUse"
       id="clipPath14"><rect
         style="fill:none;fill-opacity:1;fill-rule:nonzero;stroke:#370188;stroke-width:3.175;stroke-dasharray:none;stroke-opacity:1"
         id="rect15"
         width="282.57498"
         height="354.01248"
         x="1.5875157"
         y="-10.583325"
         transform="matrix(-0.96921458,-0.24621757,-0.24621757,0.96921458,0,0)" /></clipPath><clipPath
       clipPathUnits="userSpaceOnUse"
       id="clipPath15"><rect
         style="fill:none;fill-opacity:1;fill-rule:nonzero;stroke:#370188;stroke-width:3.175;stroke-dasharray:none;stroke-opacity:1"
         id="rect19"
         width="282.57498"
         height="354.01248"
         x="1.5875157"
         y="-10.583325"
         transform="matrix(-0.96921458,-0.24621757,-0.24621757,0.96921458,0,0)" /></clipPath><clipPath
       clipPathUnits="userSpaceOnUse"
       id="clipPath19"><rect
         style="fill:none;fill-opacity:1;fill-rule:nonzero;stroke:#370188;stroke-width:3.175;stroke-dasharray:none;stroke-opacity:1"
         id="rect20"
         width="282.57498"
         height="354.01248"
         x="1.5875157"
         y="-10.583325" /></clipPath><clipPath
       clipPathUnits="userSpaceOnUse"
       id="clipPath20"><rect
         style="fill:none;fill-opacity:1;fill-rule:nonzero;stroke:#370188;stroke-width:3.175;stroke-dasharray:none;stroke-opacity:1"
         id="rect21"
         width="282.57498"
         height="354.01248"
         x="1.5875157"
         y="-10.583325" /></clipPath><clipPath
       clipPathUnits="userSpaceOnUse"
       id="clipPath21"><rect
         style="fill:none;fill-opacity:1;fill-rule:nonzero;stroke:#370188;stroke-width:3.175;stroke-dasharray:none;stroke-opacity:1"
         id="rect22"
         width="282.57498"
         height="354.01248"
         x="1.5875157"
         y="-10.583325" /></clipPath><clipPath
       clipPathUnits="userSpaceOnUse"
       id="clipPath22"><rect
         style="fill:none;fill-opacity:1;fill-rule:nonzero;stroke:#370188;stroke-width:3.175;stroke-dasharray:none;stroke-opacity:1"
         id="rect23"
         width="282.57498"
         height="354.01248"
         x="1.5875157"
         y="-10.583325" /></clipPath><clipPath
       clipPathUnits="userSpaceOnUse"
       id="clipPath23"><rect
         style="fill:none;fill-opacity:1;fill-rule:nonzero;stroke:#370188;stroke-width:3.175;stroke-dasharray:none;stroke-opacity:1"
         id="rect24"
         width="282.57498"
         height="354.01248"
         x="1.5875157"
         y="-10.583325" /></clipPath><clipPath
       clipPathUnits="userSpaceOnUse"
       id="clipPath24"><rect
         style="fill:none;fill-opacity:1;fill-rule:nonzero;stroke:#370188;stroke-width:3.175;stroke-dasharray:none;stroke-opacity:1"
         id="rect27"
         width="282.57498"
         height="354.01248"
         x="1.5875157"
         y="-10.583325"
         transform="matrix(-0.96921458,-0.24621757,-0.24621757,0.96921458,0,0)" /></clipPath><clipPath
       clipPathUnits="userSpaceOnUse"
       id="clipPath27"><rect
         style="fill:none;fill-opacity:1;fill-rule:nonzero;stroke:#370188;stroke-width:3.175;stroke-dasharray:none;stroke-opacity:1"
         id="rect28"
         width="282.57498"
         height="354.01248"
         x="1.5875157"
         y="-10.583325"
         transform="matrix(-0.96921458,-0.24621757,-0.24621757,0.96921458,0,0)" /></clipPath><clipPath
       clipPathUnits="userSpaceOnUse"
       id="clipPath28"><rect
         style="fill:none;fill-opacity:1;fill-rule:nonzero;stroke:#370188;stroke-width:3.175;stroke-dasharray:none;stroke-opacity:1"
         id="rect29"
         width="282.57498"
         height="354.01248"
         x="1.5875157"
         y="-10.583325" /></clipPath><clipPath
       clipPathUnits="userSpaceOnUse"
       id="clipPath29"><rect
         style="fill:none;fill-opacity:1;fill-rule:nonzero;stroke:#370188;stroke-width:3.175;stroke-dasharray:none;stroke-opacity:1"
         id="rect30"
         width="282.57498"
         height="354.01248"
         x="1.5875157"
         y="-10.583325" /></clipPath><clipPath
       clipPathUnits="userSpaceOnUse"
       id="clipPath7"><rect
         style="fill:none;stroke:#370188;stroke-width:0.00264583;stroke-dasharray:none"
         id="rect8-5"
         width="83.813759"
         height="29.765625"
         x="-175.47217"
         y="109.41206" /></clipPath><clipPath
       clipPathUnits="userSpaceOnUse"
       id="clipPath9"><rect
         style="fill:none;fill-opacity:1;fill-rule:nonzero;stroke:#370188;stroke-width:3.175;stroke-dasharray:none;stroke-opacity:1"
         id="rect9"
         width="282.57498"
         height="354.01248"
         x="119.41521"
         y="-29.961994" /></clipPath></defs><g
     inkscape:label="Layer 1"
     inkscape:groupmode="layer"
     id="layer1"><text
       xml:space="preserve"
       transform="scale(0.26458333)"
       id="text16"
       style="font-style:normal;font-variant:normal;font-weight:bold;font-stretch:normal;font-size:60px;font-family:'Josefin Slab';-inkscape-font-specification:'Josefin Slab Bold';text-align:start;letter-spacing:0px;word-spacing:0px;writing-mode:lr-tb;direction:ltr;white-space:pre;shape-inside:url(#rect16);display:inline;fill:#000000;fill-opacity:0;stroke:#370188;stroke-width:12;stroke-opacity:1" /><text
       xml:space="preserve"
       transform="scale(0.26458333)"
       id="text25"
       style="font-style:normal;font-variant:normal;font-weight:bold;font-stretch:normal;font-size:60px;font-family:'Josefin Slab';-inkscape-font-specification:'Josefin Slab Bold';text-align:start;letter-spacing:0px;word-spacing:0px;writing-mode:lr-tb;direction:ltr;white-space:pre;shape-inside:url(#rect25);display:inline;fill:#000000;fill-opacity:0;stroke:#370188;stroke-width:12;stroke-opacity:1" /><text
       xml:space="preserve"
       transform="scale(0.26458333)"
       id="text26"
       style="font-style:normal;font-variant:normal;font-weight:bold;font-stretch:normal;font-size:60px;font-family:'Josefin Slab';-inkscape-font-specification:'Josefin Slab Bold';text-align:start;letter-spacing:0px;word-spacing:0px;writing-mode:lr-tb;direction:ltr;white-space:pre;shape-inside:url(#rect26);display:inline;fill:#000000;fill-opacity:0;stroke:#370188;stroke-width:12;stroke-opacity:1" /><rect
       width="9.8019896"
       height="15.875"
       rx="0"
       ry="0"
       fill="#6002ee"
       stroke-width="0"
       id="rect1-3-4-39-4-2-0-5-6"
       x="247.60098"
       y="332.84583" /><text
       font-family="Montserrat"
       font-size="618.11px"
       font-weight="200"
       stroke-width="0"
       fill="#33333"
       id="text3-0-3-0-0-5-3-3-2"
       x="248.33717"
       y="345.42685"
       style="font-style:normal;font-variant:normal;font-weight:300;font-stretch:normal;font-size:13.0774px;font-family:Montserrat;-inkscape-font-specification:'Montserrat Light'"
       transform="scale(0.99938968,1.0006107)"><tspan
         y="345.42685"
         font-weight="200"
         stroke-width="0"
         id="tspan1-4-8-6-2-1-2-5-9"
         style="font-style:normal;font-variant:normal;font-weight:300;font-stretch:normal;font-size:13.0774px;font-family:Montserrat;-inkscape-font-specification:'Montserrat Light'"><tspan
           style="font-style:normal;font-variant:normal;font-weight:300;font-stretch:normal;font-size:13.0774px;font-family:Montserrat;-inkscape-font-specification:'Montserrat Light';fill:#ffffff;fill-opacity:1;stroke-width:0"
           id="tspan3-6-3-13-5-2-1-6-6">k</tspan></tspan></text><text
       dx="0"
       dy="0"
       font-family="Montserrat"
       font-size="465.256px"
       font-weight="200"
       stroke-width="0"
       fill="#33333"
       id="text3-0-3-6-8-4-0-8-9"
       x="195.17656"
       y="345.42685"
       style="font-style:normal;font-variant:normal;font-weight:300;font-stretch:normal;font-size:13.0774px;font-family:Montserrat;-inkscape-font-specification:'Montserrat Light'"
       transform="scale(0.99938968,1.0006107)"><tspan
         y="345.42685"
         font-weight="200"
         stroke-width="0"
         id="tspan1-4-8-3-9-0-0-6-9"
         style="font-style:normal;font-variant:normal;font-weight:300;font-stretch:normal;font-size:13.0774px;font-family:Montserrat;-inkscape-font-specification:'Montserrat Light'">product</tspan></text><text
       font-family="Montserrat"
       font-size="465.256px"
       font-weight="200"
       stroke-width="0"
       fill="#33333"
       id="text3-0-3-6-4-3-4-3-7-8"
       x="257.78415"
       y="345.42685"
       style="font-style:normal;font-variant:normal;font-weight:300;font-stretch:normal;font-size:13.0774px;font-family:Montserrat;-inkscape-font-specification:'Montserrat Light'"
       transform="scale(0.99938968,1.0006107)"><tspan
         y="345.42685"
         font-weight="200"
         stroke-width="0"
         id="tspan1-4-8-3-6-9-9-9-7-0"
         style="font-style:normal;font-variant:normal;font-weight:300;font-stretch:normal;font-size:13.0774px;font-family:Montserrat;-inkscape-font-specification:'Montserrat Light'">ind</tspan></text><path
       style="fill:#018816;fill-opacity:1;stroke:#370188;stroke-width:3.175;stroke-dasharray:none;stroke-opacity:1"
       d="m 34.284793,257.6085 -2.44821,35.65858 51.518659,1.38376 -2.02244,-39.59698 z"
       id="path25-4" /><path
       style="fill:#ffffff;fill-opacity:1;stroke:#370188;stroke-width:3.175;stroke-dasharray:none;stroke-opacity:1"
       d="m 17.623537,266.05632 c 0,15.83267 7.109174,26.92819 17.072324,33.2866 2.370486,1.51282 4.90258,2.75752 7.53891,3.73402 23.316628,8.63654 54.788081,-3.70364 54.763761,-37.02062 l -15.06804,15.50714 -15.151289,-6.57609 -19.957542,9.34237 -10.755375,-11.69092 -8.490204,5.1436 z"
       id="path1-8"
       sodipodi:nodetypes="cssccccccc" /><path
       style="fill:#370189;fill-opacity:1;stroke:#370188;stroke-width:0;stroke-dasharray:none;stroke-opacity:1"
       d="m 41.551543,301.39225 -3.826923,-5.27259 5.071173,2.35369 1.326261,-3.92795 0.376809,4.14214 4.169982,-3.19913 -2.573465,4.76485 5.63245,0.54648 -3.692811,2.89899 z"
       id="path3-2"
       sodipodi:nodetypes="cccccccccc" /><path
       style="fill:#370189;fill-opacity:1;stroke:#370188;stroke-width:0;stroke-dasharray:none;stroke-opacity:1"
       d="m 72.696262,301.92861 3.03511,-5.32826 -4.74552,2.65567 -0.40824,-3.99875 -1.23584,4.49195 -4.724649,-1.3668 3.40941,3.17528 -4.781804,1.08258 4.5025,2.28216 z"
       id="path3-1-5"
       sodipodi:nodetypes="cccccccccc" /><path
       style="fill:#ee4302;fill-opacity:1;stroke:#370188;stroke-width:3.175;stroke-dasharray:none;stroke-opacity:1"
       d="m 42.145871,302.72233 c -0.09081,0.82797 -0.110808,10.87926 -0.110808,10.87926 l -7.657909,4.01428 9.170479,-1.55092 0.742855,0.90941 0.700278,-0.93297 8.75249,1.41576 -6.925976,-3.71138 c 0,0 0.07017,-8.98281 0.0127,-9.10428 z"
       id="path7-8"
       sodipodi:nodetypes="cccccccccc" /><path
       style="fill:#ee4302;fill-opacity:1;stroke:#370188;stroke-width:3.175;stroke-dasharray:none;stroke-opacity:1"
       d="m 72.184422,301.98442 0.34004,12.60688 7.87114,2.69119 -9.9795,-1.45316 -0.74286,0.90941 -0.700305,-0.93297 -9.076213,1.20136 7.41826,-3.10319 c 0,0 0.16637,-9.20292 0.179705,-9.39399 z"
       id="path7-4-0"
       sodipodi:nodetypes="cccccccccc" /><path
       style="fill:none;fill-opacity:1;stroke:#370188;stroke-width:3.175;stroke-dasharray:none;stroke-opacity:1"
       d="m 42.644028,278.40468 3.905726,-9.47851 22.305454,-0.053 3.054924,7.69033"
       id="path19-60"
       sodipodi:nodetypes="cccc" /><path
       style="fill:#fdc458;fill-opacity:1;stroke:#370188;stroke-width:3.175;stroke-dasharray:none;stroke-opacity:1"
       d="m 31.000034,247.6623 c 0,0 -38.4727759,27.21074 6.956202,15.58833 z"
       id="path17-0"
       sodipodi:nodetypes="ccc" /><path
       style="fill:#fdc458;fill-opacity:1;stroke:#370188;stroke-width:3.175;stroke-dasharray:none;stroke-opacity:1"
       d="m 87.252552,248.70119 c 0,0 34.302288,21.19084 -7.53478,15.42339 z"
       id="path16-7"
       sodipodi:nodetypes="ccc" /><path
       style="fill:#fdc458;fill-opacity:1;stroke:#370188;stroke-width:3.175;stroke-dasharray:none;stroke-opacity:1"
       d="m 73.630662,233.90087 c 17.42595,-38.94191 -49.630836,-38.34514 -32.591501,0.64325 l 15.592742,7.69652 z"
       id="path23-5"
       sodipodi:nodetypes="cccc" /><path
       style="fill:#018816;fill-opacity:1;stroke:#370188;stroke-width:3.175;stroke-dasharray:none;stroke-opacity:1"
       d="m 39.998809,263.36353 -9.800304,4.04721 -6.621494,-19.13719 13.522515,-5.46455 -0.305753,-10.09069 19.875563,9.57891 20.487096,-10.49623 v 8.56177 l 14.32217,7.7724 -6.59069,18.69103 -9.53129,-3.85836"
       id="path12-0"
       sodipodi:nodetypes="ccccccccccc" /><circle
       style="fill:#370188;fill-opacity:1;stroke:none;stroke-width:8.13508;stroke-dasharray:none;stroke-opacity:1"
       id="path9-8"
       cx="51.369793"
       cy="218.9379"
       r="1.7054044" /><circle
       style="fill:#370188;fill-opacity:1;stroke:none;stroke-width:8.13508;stroke-dasharray:none;stroke-opacity:1"
       id="path9-4"
       cx="63.866413"
       cy="219.02303"
       r="1.7054044" /><path
       style="fill:none;fill-opacity:1;stroke:#370188;stroke-width:3.175;stroke-dasharray:none;stroke-opacity:1"
       d="m 36.794408,242.60748 19.874928,4.4824 20.996306,-6.52113"
       id="path22-1"
       sodipodi:nodetypes="ccc" /><path
       style="fill:none;fill-opacity:1;stroke:#370188;stroke-width:3.175;stroke-dasharray:none;stroke-opacity:1"
       d="m 47.487745,241.66054 -3.37312,20.3066"
       id="path10-79"
       sodipodi:nodetypes="cc" /><path
       style="fill:none;fill-opacity:1;stroke:#370188;stroke-width:3.175;stroke-dasharray:none;stroke-opacity:1"
       d="m 64.927638,241.15412 2.501138,20.97739"
       id="path11-71"
       sodipodi:nodetypes="cc" /><path
       style="fill:none;fill-opacity:1;stroke:#370188;stroke-width:3.175;stroke-dasharray:none;stroke-opacity:1"
       d="m 55.795237,224.06558 5.982748,3.09451 -7.220553,3.30086"
       id="path24-70" /><path
       style="fill:none;fill-opacity:1;stroke:#370188;stroke-width:3.175;stroke-dasharray:none;stroke-opacity:1"
       d="m 57.438702,206.99719 c 5.406327,-4.70872 -5.057489,-5.05752 0.523209,-8.89425"
       id="path26-0"
       sodipodi:nodetypes="cc" /><text
       xml:space="preserve"
       style="font-weight:bold;font-size:12.7px;font-family:Helvetica;-inkscape-font-specification:'Helvetica Bold';text-align:center;letter-spacing:0px;word-spacing:0px;writing-mode:lr-tb;direction:ltr;text-anchor:middle;fill:#fe8bed;fill-opacity:1;stroke:#370188;stroke-width:3.175;stroke-dasharray:none"
       x="112.57917"
       y="100.13621"
       id="text4"><tspan
         sodipodi:role="line"
         id="tspan4"
         style="stroke-width:3.175" /></text><path
       style="fill:#ffffff;fill-opacity:1;stroke:#370188;stroke-width:3.21643;stroke-dasharray:none;stroke-opacity:1"
       d="m -26.488883,250.94133 c -2.400743,6.13267 -9.596173,19.45716 -19.187086,26.22275 -7.706916,5.43656 -16.202389,4.63363 -20.889006,5.83865 -10.790536,2.7746 -10.017493,11.94107 -1.039375,11.9363 13.084945,-0.007 32.571627,1.08615 33.891349,-7.69908"
       id="path2-4-2-5-8-3"
       sodipodi:nodetypes="csssc"
       clip-path="url(#clipPath29)" /><path
       style="fill:#ffffff;fill-opacity:1;stroke:#370188;stroke-width:3.21643;stroke-dasharray:none;stroke-opacity:1"
       d="m -14.261242,216.60369 c -3.154129,9.60909 -5.9743,29.82497 -6.568355,33.8274 -0.801632,5.40097 5.774621,8.31209 8.445833,2.28807 2.6711842,-6.02404 8.2216977,-26.04142 8.2216977,-26.04142"
       id="path6-86-3-4-3"
       sodipodi:nodetypes="cssc"
       clip-path="url(#clipPath22)" /><path
       style="fill:#fd8658;fill-opacity:1;stroke:#370188;stroke-width:3.21643;stroke-dasharray:none;stroke-opacity:1"
       d="m -0.75550281,225.57092 -6.80887269,23.74563 -13.8213905,-6.65826 7.343271,-26.08446"
       id="path12-2-2-7-8-2"
       sodipodi:nodetypes="cccc"
       clip-path="url(#clipPath20)" /><circle
       style="fill:#370188;fill-opacity:1;stroke:#370188;stroke-width:0.804104;stroke-opacity:1"
       id="path3-3-6-6-9-8-5-4"
       r="0.76141715"
       cy="261.95474"
       cx="-64.056885"
       inkscape:transform-center-x="-2.5670416"
       inkscape:transform-center-y="-8.241693e-06"
       transform="matrix(-0.96921458,-0.24621757,-0.24621757,0.96921458,0,0)"
       clip-path="url(#clipPath8)" /><circle
       style="fill:#370188;fill-opacity:1;stroke:#370188;stroke-width:0.804104;stroke-opacity:1"
       id="path3-3-6-60-59-6-9-2"
       r="0.76141715"
       cy="271.74911"
       cx="-63.485996"
       inkscape:transform-center-x="-2.5670368"
       inkscape:transform-center-y="-1.4574684e-05"
       transform="matrix(-0.96921458,-0.24621757,-0.24621757,0.96921458,0,0)"
       clip-path="url(#clipPath4)" /><text
       xml:space="preserve"
       style="font-style:normal;font-variant:normal;font-weight:normal;font-stretch:normal;font-size:16.9333px;font-family:'Nanum Pen';-inkscape-font-specification:'Nanum Pen';text-align:center;letter-spacing:0px;word-spacing:0px;writing-mode:lr-tb;direction:ltr;text-anchor:middle;white-space:pre;inline-size:216.28;display:inline;fill:#370188;fill-opacity:1;stroke:none;stroke-width:1.5875;stroke-linecap:round;stroke-dasharray:none;stroke-opacity:1"
       x="31.271128"
       y="156.49693"
       id="text5"
       transform="translate(139.83418,-35.624704)" /><text
       xml:space="preserve"
       style="font-style:normal;font-variant:normal;font-weight:normal;font-stretch:normal;font-size:19.05px;font-family:'Nanum Pen';-inkscape-font-specification:'Nanum Pen';text-align:center;letter-spacing:0px;word-spacing:0px;writing-mode:lr-tb;direction:ltr;text-anchor:middle;white-space:pre;inline-size:256.759;display:inline;fill:#370188;fill-opacity:1;stroke:none;stroke-width:1.5875;stroke-linecap:round;stroke-dasharray:none;stroke-opacity:1"
       x="-0.31834134"
       y="156.49693"
       id="text17-6"
       transform="translate(141.51646,-105.33611)"><tspan
         x="-0.31834134"
         y="156.49693"
         id="tspan1">What?!
</tspan><tspan
         x="-0.31834134"
         y="180.30944"
         id="tspan5">The coffee machine’s broken??
</tspan><tspan
         x="-0.31834134"
         y="204.12194"
         id="tspan6">NO COFFEE TODAY???</tspan></text><path
       style="fill:#b98bfe;fill-opacity:1;fill-rule:nonzero;stroke:#370188;stroke-width:3.175;stroke-dasharray:none;stroke-opacity:1"
       d="m 172.27917,268.54149 c 14.38475,-0.25686 19.43239,-7.842 21.83393,-15.15534 3.22396,-9.8177 7.98586,-11.95542 12.58662,-3.08245 3.59623,6.9355 7.96303,2.05497 5.13747,-2.05496 -2.82559,-4.10992 -6.39572,-10.61688 -14.89853,-8.21985 -8.74871,2.46636 -4.88052,24.14581 -25.43013,23.63207"
       id="path68-84"
       sodipodi:nodetypes="cssssc" /><path
       style="fill:#b98bfe;fill-opacity:1;fill-rule:nonzero;stroke:#370188;stroke-width:3.175;stroke-dasharray:none;stroke-opacity:1"
       d="m 181.17247,220.11711 c 16.19634,5.3238 13.8764,14.98207 -2.92421,11.09709"
       id="path61-9-8"
       sodipodi:nodetypes="cc" /><path
       style="fill:#b98bfe;fill-opacity:1;fill-rule:nonzero;stroke:#370188;stroke-width:3.175;stroke-dasharray:none;stroke-opacity:1"
       d="m 111.03205,220.53577 c -16.196335,5.3238 -13.876395,14.98207 2.92418,11.0971"
       id="path61-33"
       sodipodi:nodetypes="cc" /><path
       style="fill:#b98bfe;fill-opacity:1;fill-rule:nonzero;stroke:#370188;stroke-width:3.175;stroke-dasharray:none;stroke-opacity:1"
       d="m 128.3813,205.38241 c -25.53268,-25.40051 -6.65648,-52.88401 18.84146,-51.92556 25.11597,0.9441 40.37051,29.17676 17.00911,51.85551 3.85423,24.96866 10.08028,70.52398 10.63108,104.67395 -1.63138,9.34331 -16.16075,8.9782 -17.23812,-1.43651 -1.07744,-10.41472 -14.01283,-11.94105 -14.57938,-0.16733 -0.50343,10.46201 -17.31089,10.41553 -17.74222,-0.1918 -2.53704,-17.45115 1.06296,-77.48944 3.07807,-102.80823 z"
       id="path49-9"
       sodipodi:nodetypes="csccssccc" /><path
       style="fill:#370188;fill-opacity:1;fill-rule:nonzero;stroke:#370188;stroke-width:3.175;stroke-dasharray:none;stroke-opacity:1"
       d="m 145.92038,187.88291 c 0.53235,0.0111 3.57273,-4.01333 3.31508,-4.46341 -0.25781,-0.45009 -6.11673,-0.63218 -6.46579,-0.15106 -0.34906,0.48111 2.61833,4.6035 3.15071,4.61448 z"
       id="path51-9"
       sodipodi:nodetypes="zzzz" /><path
       style="fill:#6002ee;fill-opacity:1;fill-rule:nonzero;stroke:#370188;stroke-width:3.175;stroke-dasharray:none;stroke-opacity:1"
       d="m 152.81467,184.90531 9.24446,1.75721"
       id="path52-33" /><path
       style="fill:#6002ee;fill-opacity:1;fill-rule:nonzero;stroke:#370188;stroke-width:3.175;stroke-dasharray:none;stroke-opacity:1"
       d="m 151.36306,189.03093 7.33444,3.66722"
       id="path53-4" /><path
       style="fill:#6002ee;fill-opacity:1;fill-rule:nonzero;stroke:#370188;stroke-width:3.175;stroke-dasharray:none;stroke-opacity:1"
       d="m 138.77784,184.78015 -9.24446,1.75721"
       id="path52-5-41" /><path
       style="fill:#6002ee;fill-opacity:1;fill-rule:nonzero;stroke:#370188;stroke-width:3.175;stroke-dasharray:none;stroke-opacity:1"
       d="m 140.22945,188.90577 -7.33444,3.66722"
       id="path53-5-0" /><path
       style="fill:#ee02ca;fill-opacity:1;fill-rule:nonzero;stroke:#370188;stroke-width:3.175;stroke-dasharray:none;stroke-opacity:1"
       d="m 120.04686,308.82503 26.58291,0.41306 3.29813,-15.55068 3.43052,15.49144 27.3498,-0.10287 -5.70738,-57.54784 -53.14426,0.29356 z"
       id="path55-572"
       sodipodi:nodetypes="cccccccc" /><path
       style="fill:#ee02ca;fill-opacity:1;fill-rule:nonzero;stroke:#370188;stroke-width:3.175;stroke-dasharray:none;stroke-opacity:1"
       d="m 164.26299,204.43816 16.8729,71.52352 -63.39856,-0.3447 9.64286,-70.83413 15.05207,4.21068 4.05041,7.53825 3.71291,-7.31323 z"
       id="path56-48"
       sodipodi:nodetypes="cccccccc" /><path
       style="fill:#ee02ca;fill-opacity:1;fill-rule:nonzero;stroke:#370188;stroke-width:3.175;stroke-dasharray:none;stroke-opacity:1"
       d="m 127.99551,210.74537 -17.5395,6.13268 3.43427,17.48754 13.61456,-3.06634"
       id="path57-8"
       sodipodi:nodetypes="cccc" /><path
       style="fill:#ee02ca;fill-opacity:1;fill-rule:nonzero;stroke:#370188;stroke-width:3.175;stroke-dasharray:none;stroke-opacity:1"
       d="m 164.60954,210.56223 17.53946,6.13269 -3.43427,17.48754 -13.61453,-3.06634"
       id="path57-4-4"
       sodipodi:nodetypes="cccc" /><path
       style="fill:#ee02ca;fill-opacity:1;fill-rule:nonzero;stroke:#370188;stroke-width:3.175;stroke-dasharray:none;stroke-opacity:1"
       d="m 127.33971,204.80707 -3.91468,6.00247 17.09404,5.21954 1.21104,-6.91701 z"
       id="path58-1"
       sodipodi:nodetypes="ccccc" /><path
       style="fill:#ee02ca;fill-opacity:1;fill-rule:nonzero;stroke:#370188;stroke-width:3.175;stroke-dasharray:none;stroke-opacity:1"
       d="m 151.04975,208.85221 13.21819,-4.43661 3.91465,6.43651 -14.98673,4.87936 z"
       id="path59-7"
       sodipodi:nodetypes="ccccc" /><path
       style="fill:#ffffff;fill-opacity:1;fill-rule:nonzero;stroke:#370188;stroke-width:3.175;stroke-dasharray:none;stroke-opacity:1"
       d="m 146.51112,215.05016 v 59.83336"
       id="path60-4"
       sodipodi:nodetypes="cc" /><circle
       style="fill:#370188;fill-opacity:1;stroke:#370188;stroke-width:0.797947;stroke-opacity:1"
       id="path3-3-6-6-7-7"
       r="0.75558639"
       cy="259.80826"
       cx="151.74623"
       inkscape:transform-center-x="2.5473966"
       inkscape:transform-center-y="-7.9173349e-05" /><circle
       style="fill:#370188;fill-opacity:1;stroke:#370188;stroke-width:0.797947;stroke-opacity:1"
       id="path3-3-6-60-5-74"
       r="0.75558639"
       cy="269.08505"
       cx="151.51591"
       inkscape:transform-center-x="2.5474322"
       inkscape:transform-center-y="1.983531e-06" /><circle
       style="fill:#370188;fill-opacity:1;stroke:#370188;stroke-width:0.797947;stroke-opacity:1"
       id="path3-3-6-6-7-0-4"
       r="0.75558639"
       cy="241.79953"
       cx="151.45439"
       inkscape:transform-center-x="2.5473966"
       inkscape:transform-center-y="-7.9173349e-05" /><circle
       style="fill:#370188;fill-opacity:1;stroke:#370188;stroke-width:0.797947;stroke-opacity:1"
       id="path3-3-6-60-5-3-66"
       r="0.75558639"
       cy="250.81073"
       cx="151.66673"
       inkscape:transform-center-x="2.5474322"
       inkscape:transform-center-y="1.983531e-06" /><circle
       style="fill:#370188;fill-opacity:1;stroke:#370188;stroke-width:0.797947;stroke-opacity:1"
       id="path3-3-6-6-7-0-0-05"
       r="0.75558639"
       cy="223.17911"
       cx="151.36287"
       inkscape:transform-center-x="2.5473966"
       inkscape:transform-center-y="-7.9173349e-05" /><circle
       style="fill:#370188;fill-opacity:1;stroke:#370188;stroke-width:0.797947;stroke-opacity:1"
       id="path3-3-6-60-5-3-6-94"
       r="0.75558639"
       cy="232.7215"
       cx="151.39813"
       inkscape:transform-center-x="2.5474322"
       inkscape:transform-center-y="1.983531e-06" /><path
       style="fill:#ffffff;fill-opacity:1;fill-rule:nonzero;stroke:#370188;stroke-width:3.175;stroke-dasharray:none;stroke-opacity:1"
       d="m 128.85485,167.98352 c 0,0 9.83523,-1.20621 12.3404,1.48455 2.5052,2.69076 1.57734,10.4847 -3.52577,10.29913 -5.10318,-0.18558 -9.27853,-3.61861 -8.81463,-11.78368 z"
       id="path62-6" /><path
       style="fill:#ffffff;fill-opacity:1;fill-rule:nonzero;stroke:#370188;stroke-width:3.175;stroke-dasharray:none;stroke-opacity:1"
       d="m 162.86075,168.10783 c 0,0 -9.83523,-1.2062 -12.34043,1.48456 -2.50517,2.69076 -1.57734,10.48469 3.52584,10.29913 5.10317,-0.18558 9.27849,-3.61862 8.81459,-11.78369 z"
       id="path62-2-36" /><path
       style="fill:#ffffff;fill-opacity:1;fill-rule:nonzero;stroke:#370188;stroke-width:3.175;stroke-dasharray:none;stroke-opacity:1"
       d="m 128.65648,170.19407 -8.09517,-1.80952"
       id="path63-22" /><path
       style="fill:#ffffff;fill-opacity:1;fill-rule:nonzero;stroke:#370188;stroke-width:3.175;stroke-dasharray:none;stroke-opacity:1"
       d="m 163.03722,170.57502 8.57132,-1.71428"
       id="path64-2" /><path
       style="fill:#ffffff;fill-opacity:1;fill-rule:nonzero;stroke:#370188;stroke-width:3.175;stroke-dasharray:none;stroke-opacity:1"
       d="m 142.1802,172.575 c 0.85712,-1.5238 5.80949,-1.80951 7.3333,-0.28572"
       id="path65-3" /><path
       style="fill:#b98bfe;fill-opacity:1;fill-rule:nonzero;stroke:#370188;stroke-width:3.175;stroke-dasharray:none;stroke-opacity:1"
       d="m 163.94108,162.26608 c 0,0 1.31324,-13.11396 -0.93625,-14.04122 -2.24945,-0.92726 -10.698,10.16317 -10.698,10.16317"
       id="path66-0-4"
       sodipodi:nodetypes="czc" /><path
       style="fill:#b98bfe;fill-opacity:1;fill-rule:nonzero;stroke:#370188;stroke-width:3.175;stroke-dasharray:none;stroke-opacity:1"
       d="m 126.65696,162.39245 c 0,0 -1.31328,-13.11396 0.93621,-14.04122 2.24949,-0.92726 10.69803,10.16317 10.69803,10.16317"
       id="path66-0-3-8"
       sodipodi:nodetypes="czc" /><path
       style="fill:none;fill-opacity:1;fill-rule:nonzero;stroke:#370188;stroke-width:3.175;stroke-dasharray:none;stroke-opacity:1"
       d="m 150.1992,294.88658 4.0039,0.24577 -2.77495,-14.501"
       id="path78-98"
       sodipodi:nodetypes="ccc" /><path
       style="fill:none;stroke:#370188;stroke-width:2.11667;stroke-dasharray:none;stroke-opacity:1"
       d="m 134.09055,176.41445 4.71859,-4.7186"
       id="path6"
       sodipodi:nodetypes="cc" /><path
       style="fill:none;stroke:#370188;stroke-width:2.11667;stroke-dasharray:none;stroke-opacity:1"
       d="m 138.80686,176.40985 -4.77476,-4.77477"
       id="path7" /><path
       style="fill:none;stroke:#370188;stroke-width:2.11667;stroke-dasharray:none;stroke-opacity:1"
       d="m 152.89046,176.57521 4.71859,-4.7186"
       id="path6-7"
       sodipodi:nodetypes="cc" /><path
       style="fill:none;stroke:#370188;stroke-width:2.11667;stroke-dasharray:none;stroke-opacity:1"
       d="m 157.60676,176.57061 -4.77475,-4.77477"
       id="path7-3" /><path
       style="fill:none;fill-opacity:1;stroke:#370188;stroke-width:1.5875;stroke-linecap:round;stroke-dasharray:none;stroke-opacity:1"
       d="M 245.9674,208.02125 C 244.71249,172.3044 143.63248,118.46117 143.10611,104.93978"
       id="path13-1-9-2-1"
       sodipodi:nodetypes="cc" /><g
       id="g2"
       transform="translate(-117.82771,31.549495)"
       clip-path="url(#clipPath9)"><path
         style="fill:#bb7a02;fill-opacity:1;stroke:#370188;stroke-width:3.175;stroke-dasharray:none;stroke-opacity:1"
         d="m 364.58142,271.28249 31.97746,5.88805 42.11444,-6.06376 -13.47289,-36.36905 -48.2159,-2.95888 z"
         id="path31-3-5"
         sodipodi:nodetypes="cccccc" /><path
         style="fill:#fdc458;fill-opacity:1;stroke:#370188;stroke-width:3.175;stroke-dasharray:none;stroke-opacity:1"
         d="m 348.82323,230.70752 c -5.55974,0.96051 -8.23369,4.3201 -9.96277,6.15952 -2.63134,2.79928 -4.9916,2.40659 -4.65756,-0.7292 0.59753,-5.60935 10.19089,-11.53087 14.20247,-11.90651"
         id="path30-6-0"
         sodipodi:nodetypes="cssc" /><path
         style="fill:#fdc458;fill-opacity:1;stroke:#370188;stroke-width:3.175;stroke-dasharray:none;stroke-opacity:1"
         d="m 364.9904,195.69741 c -12.13057,0.26607 -15.89228,11.18218 -16.1499,18.02856 -0.35985,9.56319 -1.39128,41.01086 1.92155,52.84228 3.31279,11.83142 5.20579,15.61748 24.13606,16.09074 18.9303,0.47325 66.25599,-0.47326 66.25599,-0.47326 0,0 -50.40306,-5.73794 -56.08215,-15.67633 -5.67909,-9.9384 -6.6762,-42.05427 -6.38778,-52.47268 0.20733,-7.48503 -2.33563,-17.86605 -13.69377,-18.33931 z"
         id="path26-4-2"
         sodipodi:nodetypes="cssscssc" /><path
         sodipodi:type="spiral"
         style="fill:#bb7a02;fill-opacity:1;fill-rule:evenodd;stroke:#370188;stroke-width:0.695287;stroke-dasharray:none;stroke-opacity:1"
         id="path27-2-5"
         sodipodi:cx="105.75211"
         sodipodi:cy="39.133308"
         sodipodi:expansion="1.9"
         sodipodi:revolution="1.8526812"
         sodipodi:radius="10.963904"
         sodipodi:argument="-18.497511"
         sodipodi:t0="0.12886804"
         d="m 105.69006,39.348002 c -0.32401,0.23185 -0.69518,-0.169724 -0.77545,-0.456763 -0.23505,-0.84048 0.61833,-1.513252 1.36817,-1.59391 1.54382,-0.166068 2.64192,1.346958 2.66371,2.75927 0.0376,2.433734 -2.34374,4.074062 -4.61129,3.978909 -3.50843,-0.147224 -5.803332,-3.600767 -5.534662,-6.911455 0.386726,-4.765445 5.112132,-7.824404 9.650082,-7.326992 2.50124,0.274164 4.82855,1.527219 6.51074,3.386706"
         transform="matrix(-4.5664566,0,0,4.5664566,904.73469,77.250718)" /><circle
         style="fill:#fdc458;fill-opacity:1;stroke:#370188;stroke-width:3.175;stroke-dasharray:none;stroke-opacity:1"
         id="path28-9-4"
         cx="345.42462"
         cy="177.14558"
         r="2.4649308" /><path
         style="fill:#ffffff;fill-opacity:1;stroke:#370188;stroke-width:3.175;stroke-dasharray:none;stroke-opacity:1"
         d="m 354.79137,198.54117 -7.88774,-18.53628"
         id="path29-2-2" /><circle
         style="fill:#fdc458;fill-opacity:1;stroke:#370188;stroke-width:3.175;stroke-dasharray:none;stroke-opacity:1"
         id="path28-0-2-1"
         cx="-382.58124"
         cy="176.82535"
         r="2.4649308"
         transform="scale(-1,1)" /><path
         style="fill:#ffffff;fill-opacity:1;stroke:#370188;stroke-width:3.175;stroke-dasharray:none;stroke-opacity:1"
         d="m 373.2145,198.22092 7.88775,-18.53628"
         id="path29-6-1-5" /><path
         style="fill:#fdc458;fill-opacity:1;stroke:#370188;stroke-width:3.175;stroke-dasharray:none;stroke-opacity:1"
         d="m 376.52025,230.14632 c 5.55971,0.96051 7.91991,6.20282 9.64898,8.04224 2.63135,2.79929 5.3054,1.67442 4.97135,-1.46137 -0.59753,-5.60935 -10.19092,-12.68142 -14.20247,-13.05707"
         id="path30-2-4-1"
         sodipodi:nodetypes="cssc" /><path
         style="mix-blend-mode:normal;fill:#02ee25;fill-opacity:1;fill-rule:nonzero;stroke:#370188;stroke-width:3.175;stroke-dasharray:none;stroke-opacity:1"
         d="m 346.18036,224.62084 1.62538,6.72842 -0.67367,5.19753 c 0,4.76464 -0.0632,31.61077 -8.46842,42.20189 15.8381,0.55553 79.83356,-0.15519 88.33579,-0.18221 -37.05259,-4.98841 -47.55622,-40.64825 -49.38613,-44.23874 -0.26353,-0.51678 -0.23241,-2.66961 -0.23241,-2.66961 l 2.67862,-6.24797 -2.90824,-3.10851 -4.96751,6.207 -19.50783,-0.1624 -3.45028,-6.308 z"
         id="path33-0-6"
         sodipodi:nodetypes="cccccsccccccc" /><ellipse
         style="fill:#ffffff;fill-opacity:1;stroke:#370188;stroke-width:1.5875;stroke-dasharray:none;stroke-opacity:1"
         id="path9-9"
         cx="359.0004"
         cy="210.08067"
         rx="3.0748799"
         ry="4.3256369" /><ellipse
         style="fill:#ffffff;fill-opacity:1;stroke:#370188;stroke-width:1.5875;stroke-dasharray:none;stroke-opacity:1"
         id="path9-9-0"
         cx="368.45709"
         cy="210.67809"
         rx="3.0748799"
         ry="4.3256369" /></g><rect
       style="fill:none;fill-opacity:1;fill-rule:nonzero;stroke:#370188;stroke-width:3.175;stroke-dasharray:none;stroke-opacity:1"
       id="rect113-4-2"
       width="282.57498"
       height="354.01248"
       x="1.5875"
       y="1.5875" /></g></svg>
