<?xml version="1.0" encoding="UTF-8" standalone="no"?>
<!-- Created with Inkscape (http://www.inkscape.org/) -->

<svg
   width="1080"
   height="1350"
   viewBox="0 0 285.74999 357.1875"
   version="1.1"
   id="svg1"
   inkscape:version="1.4 (e7c3feb1, 2024-10-09)"
   sodipodi:docname="panel-00.svg"
   xmlns:inkscape="http://www.inkscape.org/namespaces/inkscape"
   xmlns:sodipodi="http://sodipodi.sourceforge.net/DTD/sodipodi-0.dtd"
   xmlns="http://www.w3.org/2000/svg"
   xmlns:svg="http://www.w3.org/2000/svg">
  <sodipodi:namedview
     id="namedview1"
     pagecolor="#ffffff"
     bordercolor="#000000"
     borderopacity="0.25"
     inkscape:showpageshadow="2"
     inkscape:pageopacity="0.0"
     inkscape:pagecheckerboard="0"
     inkscape:deskcolor="#d1d1d1"
     inkscape:document-units="px"
     inkscape:zoom="0.45044855"
     inkscape:cx="-15.540066"
     inkscape:cy="455.10192"
     inkscape:window-width="1728"
     inkscape:window-height="1057"
     inkscape:window-x="0"
     inkscape:window-y="32"
     inkscape:window-maximized="0"
     inkscape:current-layer="layer1" />
  <defs
     id="defs1">
    <rect
       x="337.60629"
       y="293.08679"
       width="868.13049"
       height="871.84045"
       id="rect26" />
    <rect
       x="358.01108"
       y="335.75131"
       width="877.4054"
       height="734.57196"
       id="rect25" />
    <rect
       x="418.44797"
       y="244.75258"
       width="748.0744"
       height="801.36731"
       id="rect16" />
    <clipPath
       clipPathUnits="userSpaceOnUse"
       id="clipPath3">
      <rect
         style="fill:#370188;stroke:#370188;stroke-width:3.175"
         id="rect4"
         width="387.91391"
         height="225.63065"
         x="-131.6772"
         y="-44.129654"
         ry="1.5951835" />
    </clipPath>
  </defs>
  <g
     inkscape:label="Layer 1"
     inkscape:groupmode="layer"
     id="layer1">
    <text
       xml:space="preserve"
       transform="scale(0.26458333)"
       id="text16"
       style="font-style:normal;font-variant:normal;font-weight:bold;font-stretch:normal;font-size:60px;font-family:'Josefin Slab';-inkscape-font-specification:'Josefin Slab Bold';text-align:start;letter-spacing:0px;word-spacing:0px;writing-mode:lr-tb;direction:ltr;white-space:pre;shape-inside:url(#rect16);display:inline;fill:#000000;fill-opacity:0;stroke:#370188;stroke-width:12;stroke-opacity:1" />
    <text
       xml:space="preserve"
       transform="scale(0.26458333)"
       id="text25"
       style="font-style:normal;font-variant:normal;font-weight:bold;font-stretch:normal;font-size:60px;font-family:'Josefin Slab';-inkscape-font-specification:'Josefin Slab Bold';text-align:start;letter-spacing:0px;word-spacing:0px;writing-mode:lr-tb;direction:ltr;white-space:pre;shape-inside:url(#rect25);display:inline;fill:#000000;fill-opacity:0;stroke:#370188;stroke-width:12;stroke-opacity:1" />
    <text
       xml:space="preserve"
       transform="scale(0.26458333)"
       id="text26"
       style="font-style:normal;font-variant:normal;font-weight:bold;font-stretch:normal;font-size:60px;font-family:'Josefin Slab';-inkscape-font-specification:'Josefin Slab Bold';text-align:start;letter-spacing:0px;word-spacing:0px;writing-mode:lr-tb;direction:ltr;white-space:pre;shape-inside:url(#rect26);display:inline;fill:#000000;fill-opacity:0;stroke:#370188;stroke-width:12;stroke-opacity:1" />
    <rect
       style="fill:none;fill-opacity:1;fill-rule:nonzero;stroke:#370188;stroke-width:3.175;stroke-dasharray:none;stroke-opacity:1"
       id="rect113-4-2"
       width="282.57498"
       height="354.01248"
       x="1.5875"
       y="1.5875" />
    <rect
       width="9.8019896"
       height="15.875"
       rx="0"
       ry="0"
       fill="#6002ee"
       stroke-width="0"
       id="rect1-3-4-39-4-2-0-5-6"
       x="247.60098"
       y="332.84583" />
    <text
       font-family="Montserrat"
       font-size="618.11px"
       font-weight="200"
       stroke-width="0"
       fill="#33333"
       id="text3-0-3-0-0-5-3-3-2"
       x="248.33717"
       y="345.42685"
       style="font-style:normal;font-variant:normal;font-weight:300;font-stretch:normal;font-size:13.0774px;font-family:Montserrat;-inkscape-font-specification:'Montserrat Light'"
       transform="scale(0.99938968,1.0006107)"><tspan
         y="345.42685"
         font-weight="200"
         stroke-width="0"
         id="tspan1-4-8-6-2-1-2-5-9"
         style="font-style:normal;font-variant:normal;font-weight:300;font-stretch:normal;font-size:13.0774px;font-family:Montserrat;-inkscape-font-specification:'Montserrat Light'"><tspan
           style="font-style:normal;font-variant:normal;font-weight:300;font-stretch:normal;font-size:13.0774px;font-family:Montserrat;-inkscape-font-specification:'Montserrat Light';fill:#ffffff;fill-opacity:1;stroke-width:0"
           id="tspan3-6-3-13-5-2-1-6-6">k</tspan></tspan></text>
    <text
       dx="0"
       dy="0"
       font-family="Montserrat"
       font-size="465.256px"
       font-weight="200"
       stroke-width="0"
       fill="#33333"
       id="text3-0-3-6-8-4-0-8-9"
       x="195.17656"
       y="345.42685"
       style="font-style:normal;font-variant:normal;font-weight:300;font-stretch:normal;font-size:13.0774px;font-family:Montserrat;-inkscape-font-specification:'Montserrat Light'"
       transform="scale(0.99938968,1.0006107)"><tspan
         y="345.42685"
         font-weight="200"
         stroke-width="0"
         id="tspan1-4-8-3-9-0-0-6-9"
         style="font-style:normal;font-variant:normal;font-weight:300;font-stretch:normal;font-size:13.0774px;font-family:Montserrat;-inkscape-font-specification:'Montserrat Light'">product</tspan></text>
    <text
       font-family="Montserrat"
       font-size="465.256px"
       font-weight="200"
       stroke-width="0"
       fill="#33333"
       id="text3-0-3-6-4-3-4-3-7-8"
       x="257.78415"
       y="345.42685"
       style="font-style:normal;font-variant:normal;font-weight:300;font-stretch:normal;font-size:13.0774px;font-family:Montserrat;-inkscape-font-specification:'Montserrat Light'"
       transform="scale(0.99938968,1.0006107)"><tspan
         y="345.42685"
         font-weight="200"
         stroke-width="0"
         id="tspan1-4-8-3-6-9-9-9-7-0"
         style="font-style:normal;font-variant:normal;font-weight:300;font-stretch:normal;font-size:13.0774px;font-family:Montserrat;-inkscape-font-specification:'Montserrat Light'">ind</tspan></text>
    <path
       style="fill:#9a58fd;fill-opacity:1;stroke:#370188;stroke-width:3.17491;stroke-dasharray:none;stroke-opacity:1"
       d="m 53.548879,294.46227 -13.673904,0.81947 7.41639,-9.3926 -11.93946,-4.22593 7.11368,-5.71049 -10.33091,-5.88734 5.87013,-6.29758 -10.9901,-3.61366 7.26145,-7.229 -12.0643,-3.92985 6.13899,-6.00653 -8.47983,-6.64251 8.21119,-5.86013 -8.89149,-5.95719 7.65006,-5.56565 -9.06256,-5.61629 5.74904,-5.41956 -7.06361,-5.73932 9.31205,-5.85689 -7.45541,-6.30114 6.42779,-5.61594 -4.28298,-10.49855 8.32863,-1.85925 -1.35795,-9.95804 10.4286,-0.49228 -0.97282,-11.81062 8.96779,0.14129 1.41605,-13.08446 10.772268,4.97567 2.096643,-10.34717 9.35955,6.63534 5.118037,-9.3211 7.506906,8.73572 9.651714,-8.73572 4.46986,10.55078 12.735847,-6.64576 0.63598,10.87628 14.72972,-2.75621 -0.58427,10.08376 10.71242,1.863 -4.58549,9.79129 11.41596,3.73411 -7.29237,9.35587 9.02202,5.73421 -5.07733,6.12731 8.17118,7.69791 -5.32638,6.73579 6.71934,8.82863 -6.01446,5.09127 4.25535,10.54884 -7.49303,2.34814 7.27085,8.05154 -8.19239,5.07099 7.56494,10.38895 -8.80329,4.34978 8.01386,10.53674 -7.4989,3.41897 4.45351,10.07316 -12.41787,0.74533 1.30867,12.13689 -8.89861,-4.58283 -2.48488,10.65889 -10.71105,-5.32016 -3.03095,7.08409 -7.722331,-10.27252 -5.587809,13.46355 -7.484301,-8.08497 -7.857902,7.81535 -9.039892,-5.99979 -9.433623,4.71138 z"
       id="path1-8-0"
       sodipodi:nodetypes="ccccccccccccccccccccccccccccccccccccccccccccccccccccccccccccccccccccccc" />
    <path
       style="fill:#ffffff;fill-opacity:1;stroke:#370188;stroke-width:3.17491;stroke-dasharray:none;stroke-opacity:1"
       d="m 54.371489,259.7333 c 0,0 -0.812736,-1.93828 -2.573274,-8.08162 -1.76054,-6.1434 -6.52516,-31.99542 -6.52516,-31.99542 -0.66488,-5.84124 0.33991,-20.15081 0.82807,-27.67445 0.42538,-6.55535 6.878063,-18.30422 11.820617,-25.04474 4.299522,-5.86363 13.131102,-9.31495 20.141247,-11.15194 9.990931,-2.61807 25.725311,-3.1809 34.905001,4.77228 6.06755,5.25682 13.62217,14.07135 15.63239,19.82953 1.98574,5.68798 5.74196,28.16802 6.31121,35.79317 0,0 -2.83337,26.16539 -3.24139,31.14167 -0.40802,4.97627 -0.92279,7.83758 -0.92279,7.83758"
       id="path24-7-3-9"
       sodipodi:nodetypes="czssssscczc" />
    <path
       style="fill:#370189;fill-opacity:1;stroke:#370188;stroke-width:0;stroke-dasharray:none;stroke-opacity:1"
       id="path2-9-9-5-5"
       sodipodi:type="arc"
       sodipodi:cx="61.329597"
       sodipodi:cy="187.92909"
       sodipodi:rx="2.1807547"
       sodipodi:ry="2.1807547"
       sodipodi:start="5.9341195"
       sodipodi:end="3.5011305"
       sodipodi:arc-type="chord"
       d="m 63.378837,187.18323 a 2.1807547,2.1807547 0 0 1 -0.753097,2.49963 2.1807547,2.1807547 0 0 1 -2.610579,-0.0137 2.1807547,2.1807547 0 0 1 -0.72688,-2.50738 z"
       sodipodi:open="true"
       transform="rotate(-6.3865272)" />
    <path
       style="fill:#ffffff;fill-opacity:1;stroke:#370188;stroke-width:3.17491;stroke-dasharray:none;stroke-opacity:1"
       d="m 101.80694,184.22808 c 8.33993,6.69211 11.57532,15.27877 10.74004,17.59052 -0.81032,2.24263 -18.128074,4.30292 -29.810677,3.0292 -3.73907,-0.40767 -7.172642,-3.47548 -8.558498,-6.09425"
       id="path7-4-4"
       sodipodi:nodetypes="cssc" />
    <path
       style="fill:#370189;fill-opacity:1;stroke:#370188;stroke-width:0;stroke-dasharray:none;stroke-opacity:1"
       id="path2-9-9-5-5-0"
       sodipodi:type="arc"
       sodipodi:cx="78.177986"
       sodipodi:cy="188.46555"
       sodipodi:rx="2.1807547"
       sodipodi:ry="2.1807547"
       sodipodi:start="5.9341195"
       sodipodi:end="3.5011305"
       sodipodi:arc-type="chord"
       d="m 80.227225,187.71968 a 2.1807547,2.1807547 0 0 1 -0.753096,2.49963 2.1807547,2.1807547 0 0 1 -2.610579,-0.0137 2.1807547,2.1807547 0 0 1 -0.72688,-2.50738 z"
       sodipodi:open="true"
       transform="rotate(-6.3865272)" />
    <path
       style="fill:#ffffff;fill-opacity:1;stroke:#370188;stroke-width:0.79375;stroke-linecap:butt;stroke-dasharray:none;stroke-opacity:1"
       d="m 95.511011,178.13551 c 3.094799,0.84068 3.50847,0.90837 6.107489,-0.7298"
       id="path18-6-1-7"
       sodipodi:nodetypes="cc" />
    <path
       style="fill:#370188;fill-opacity:1;stroke:#370188;stroke-width:4.57165;stroke-dasharray:none;stroke-opacity:1"
       d="m 106.23648,194.61014 c -1.33957,0.45057 -3.83473,4.38252 -3.62772,6.62404 0.20669,2.24155 4.42642,-0.27686 4.42642,-0.27686 l 2.88458,-0.81912 -1.06765,-3.33667 c 0,0 -1.27619,-2.64186 -2.61563,-2.19126 z"
       id="path8-4-9"
       sodipodi:nodetypes="zzcccz"
       inkscape:transform-center-x="-8.2194033"
       inkscape:transform-center-y="1.5199982" />
    <path
       style="fill:#ffffff;fill-opacity:1;stroke:#370188;stroke-width:3.175;stroke-dasharray:none;stroke-opacity:1"
       d="m 124.44663,282.36597 c 0,0 4.1756,16.64865 3.17462,24.40374 -1.34176,10.39527 -12.50925,12.62415 -17.29709,3.43504 -3.49008,-6.6984 -10.15428,-23.36302 -10.15428,-23.36302"
       id="path11-9-5-1"
       sodipodi:nodetypes="cssc" />
    <path
       style="fill:#ffffff;fill-opacity:1;stroke:#370188;stroke-width:3.175;stroke-dasharray:none;stroke-opacity:1"
       d="m 92.331629,287.88367 c 0,0 -2.670873,13.19209 -5.651436,21.17804 -3.263582,8.74424 -13.904785,9.3761 -18.189733,0.89954 -5.615749,-11.10913 -5.322792,-25.93368 -5.322792,-25.93368"
       id="path12-0-9"
       sodipodi:nodetypes="cssc" />
    <path
       style="fill:#ffffff;fill-opacity:1;stroke:#370188;stroke-width:3.17491;stroke-dasharray:none;stroke-opacity:1"
       d="m 31.084675,229.74431 c -15.49248,19.39331 1.43119,18.01568 10.08742,12.45626"
       id="path10-71-3-3"
       sodipodi:nodetypes="cc" />
    <path
       style="fill:#ffffff;fill-opacity:1;stroke:#370188;stroke-width:3.17491;stroke-dasharray:none;stroke-opacity:1"
       d="m 151.8598,227.36532 c 13.67485,14.14176 0.71485,16.8247 -8.65864,12.18952"
       id="path9-6-9-8"
       sodipodi:nodetypes="cc" />
    <path
       style="fill:#ffffff;fill-opacity:1;stroke:#370189;stroke-width:3.17491;stroke-dasharray:none;stroke-opacity:1"
       d="m 56.163142,235.2389 -12.572527,9.76087 -15.46606,-18.77295 c 6.20443,-9.62726 12.00515,-15.59074 17.68339,-25.50363 0,0 21.636956,16.33677 38.168069,15.4432 7.158386,-0.3869 17.377406,-0.9939 22.175566,-1.91887 12.59173,-2.42735 25.08945,-16.65904 25.08945,-16.65904 l 7.88305,9.33679 13.98714,16.12919 -12.30458,18.06346 -12.85465,-10.10205"
       id="path13-4-8-5"
       sodipodi:nodetypes="ccccssccccc" />
    <path
       style="fill:#ffdb00;fill-opacity:1;stroke:#370188;stroke-width:3.17491;stroke-dasharray:none;stroke-opacity:1"
       d="M 34.742655,216.88899 145.00894,215.00958 M 30.127195,225.3763 152.26775,223.61075 M 34.422615,233.4301 147.15667,231.36521 m -106.342715,9.22058 90.647965,-0.79499 m -79.18647,9.24132 78.85601,-1.14611"
       id="path30-0-99-7"
       sodipodi:nodetypes="cccccccccc" />
    <path
       style="fill:#ee9b02;fill-opacity:1;stroke:#370188;stroke-width:3.17491;stroke-dasharray:none;stroke-opacity:1"
       d="m 72.54503,223.99845 40.15857,-2.64655 7.20036,27.6919 12.38996,6.77466 2.0816,54.26926 -32.06321,-0.3643 -4.587023,-21.1021 -3.442779,21.39797 -36.593525,-0.0254 -4.867243,-49.73481 14.333728,-7.76929 z"
       id="path16-5-0"
       sodipodi:nodetypes="cccccccccccc" />
    <path
       style="fill:none;stroke:#370188;stroke-width:3.17491;stroke-dasharray:none;stroke-opacity:1"
       d="m 79.0888,244.03664 30.16139,-1.5106 c 0,0 2.97939,6.18651 1.80165,11.82312 -1.17767,5.63658 -3.4977,7.961 -7.58222,10.14362 -4.08457,2.18262 -12.047342,2.26622 -16.580639,0.33137 -4.533265,-1.93484 -6.381591,-5.08165 -7.804467,-8.9132 -1.422876,-3.83159 -0.651574,-7.74431 -0.651574,-7.74431 z"
       id="path17-3-0"
       sodipodi:nodetypes="cczzzzcc" />
    <path
       style="fill:none;stroke:#370189;stroke-width:3.17491;stroke-dasharray:none;stroke-opacity:1"
       d="m 96.372039,289.87221 5.677981,0.15938 -2.229995,-13.71327"
       id="path19-6-8-9"
       sodipodi:nodetypes="ccc" />
    <path
       style="fill:#ffffff;fill-opacity:1;stroke:#370188;stroke-width:3.17491;stroke-dasharray:none;stroke-opacity:1"
       d="m 106.70276,163.53236 c 9.14886,-12.82739 19.88325,-0.21051 9.56837,8.55745"
       id="path25-21-4-3"
       sodipodi:nodetypes="cc" />
    <path
       style="fill:#ffffff;fill-opacity:1;stroke:#370188;stroke-width:3.17491;stroke-dasharray:none;stroke-opacity:1"
       d="m 61.200406,175.90441 c -11.532111,-6.3834 0.905097,-22.90429 9.414224,-8.09965"
       id="path25-0-77-3"
       sodipodi:nodetypes="cc" />
    <path
       style="fill:none;fill-opacity:1;stroke:#370188;stroke-width:3.17491;stroke-dasharray:none;stroke-opacity:1"
       d="m 61.169704,268.80389 c 4.524406,-0.34804 9.39692,-2.0882 9.744995,-10.09301"
       id="path26-9-1-6" />
    <path
       style="fill:none;fill-opacity:1;stroke:#370188;stroke-width:3.17491;stroke-dasharray:none;stroke-opacity:1"
       d="m 117.20344,256.9707 c 3.13232,5.56857 3.82841,6.26465 8.70089,8.00481"
       id="path27-1-2-5" />
    <path
       style="fill:#ee9b02;fill-opacity:1;stroke:#370188;stroke-width:3.17491;stroke-dasharray:none;stroke-opacity:1"
       d="m 39.399655,213.09077 38.91635,27.08046 8.556752,-12.71343 -39.671152,-25.74807"
       id="path28-4-8-0"
       sodipodi:nodetypes="cccc" />
    <ellipse
       style="fill:#370188;fill-opacity:1;stroke:#370188;stroke-width:0;stroke-dasharray:none;stroke-opacity:1"
       id="path2-5-0-6-7-5"
       cx="76.309563"
       cy="229.61165"
       rx="4.465312"
       ry="4.4731731" />
    <path
       style="fill:#ee9b02;fill-opacity:1;stroke:#370188;stroke-width:3.17491;stroke-dasharray:none;stroke-opacity:1"
       d="m 130.63804,198.33385 -33.466917,29.47908 10.393587,11.02988 33.6436,-27.28969"
       id="path29-0-4-2"
       sodipodi:nodetypes="cccc" />
    <ellipse
       style="fill:#370188;fill-opacity:1;stroke:#370188;stroke-width:0;stroke-dasharray:none;stroke-opacity:1"
       id="path2-5-0-2-4"
       cx="108.48177"
       cy="228.52892"
       rx="4.465312"
       ry="4.4731731" />
    <path
       style="fill:#ffffff;fill-opacity:1;stroke:#370188;stroke-width:0.79375;stroke-linecap:butt;stroke-dasharray:none;stroke-opacity:1"
       d="m 78.707483,179.47651 c 3.094799,0.84067 3.50847,0.90836 6.107493,-0.72981"
       id="path18-6-1"
       sodipodi:nodetypes="cc" />
    <path
       style="fill:#ffffff;fill-opacity:1;stroke:#370188;stroke-width:3.19183;stroke-dasharray:none;stroke-opacity:1"
       d="m 231.19167,257.88541 c 0.81061,6.48494 4.4755,21.05844 12.0469,29.90888 6.08412,7.11191 14.4512,8.41537 18.66433,10.71947 9.70036,5.30501 6.71715,13.93237 -1.91675,11.73413 -12.58329,-3.20373 -31.59252,-6.91362 -30.71532,-15.68564"
       id="path2-4"
       sodipodi:nodetypes="csssc" />
    <path
       style="fill:#ffffff;fill-opacity:1;stroke:#370188;stroke-width:3.19183;stroke-dasharray:none;stroke-opacity:1"
       d="m 184.03775,170.73462 c -2.95723,-3.63417 0.71608,-6.63607 3.7725,-2.49371"
       id="path15-0"
       sodipodi:nodetypes="cc" />
    <path
       style="fill:#ffffff;fill-opacity:1;stroke:#370188;stroke-width:3.19189;stroke-dasharray:none;stroke-opacity:1"
       d="m 204.70318,194.89259 c -9.19457,17.17942 -44.03728,6.77497 -30.2454,-11.85618 13.79189,-18.63119 19.11509,-20.32492 30.00344,-19.84102 10.88834,0.48393 19.48964,10.23833 20.56689,18.14728 1.41884,10.41667 3.3018,58.75754 5.72147,73.03335 1.98243,11.69654 -0.78785,33.82842 -2.06641,46.27623 -0.28194,2.74498 -0.49137,5.01904 -0.56128,6.60641 -0.44019,9.99341 -13.31154,10.7442 -14.03391,0.7259 -0.53518,-7.42293 -10.00817,-6.16398 -10.30796,0 -0.44777,9.20699 -13.67812,9.05615 -14.47282,-0.25908 -0.92234,-10.81132 -6.12436,-40.38765 -5.11131,-51.82019 0.96485,-10.88834 6.71537,-52.54393 6.71537,-52.54393 v 0"
       id="path1-2"
       sodipodi:nodetypes="csssssssssscc" />
    <path
       style="fill:none;fill-opacity:1;stroke:#370188;stroke-width:3.19065;stroke-dasharray:none;stroke-opacity:1"
       d="m 185.43386,177.53172 c 1.54806,-4.49288 8.36919,-1.73155 6.34908,1.44297"
       id="path32"
       sodipodi:nodetypes="cc" />
    <path
       style="fill:none;fill-opacity:1;stroke:#370188;stroke-width:3.19065;stroke-dasharray:none;stroke-opacity:1"
       d="m 196.97219,181.4931 c 1.54806,-4.49287 8.36923,-1.73154 6.34903,1.44298"
       id="path32-9"
       sodipodi:nodetypes="cc" />
    <path
       style="fill:#370188;fill-opacity:1;stroke:#370188;stroke-width:3.19183;stroke-dasharray:none;stroke-opacity:1"
       d="m 182.68037,188.45588 c 1.05572,-0.68478 4.98145,0.46171 5.47843,1.54083 0.46495,1.00958 -3.78914,3.14229 -4.50828,2.73923 -0.52644,-0.29496 -2.0259,-3.59524 -0.97015,-4.28006 z"
       id="path4"
       sodipodi:nodetypes="zssz" />
    <path
       style="fill:#26fd97;fill-opacity:1;stroke:#370188;stroke-width:3.19183;stroke-dasharray:none;stroke-opacity:1"
       d="m 230.52843,282.08405 -0.98752,27.48477 -19.0089,-0.57604 -1.97495,-5.92483 -1.7281,6.00713 -20.24325,0.57604 c 0,0 -0.21051,-19.83718 -0.6583,-28.80141 -0.44777,-8.9642 -3.08762,-13.2507 -1.92551,-24.96931 1.16211,-11.71861 5.45313,-44.66904 5.45313,-44.66904 l 5.24748,1.12446 4.87264,10.12012 4.12302,-10.30751 23.05139,-1.4993 c 0,0 1.72377,30.14151 4.13118,44.41593 2.4074,14.27442 -0.35231,27.01899 -0.35231,27.01899 z"
       id="path14"
       sodipodi:nodetypes="cccccczzccccczc" />
    <path
       style="fill:#ffffff;fill-opacity:1;stroke:#370188;stroke-width:3.19183;stroke-dasharray:none;stroke-opacity:1"
       d="m 204.39879,211.29946 -4.13876,11.16076"
       id="path10-5"
       sodipodi:nodetypes="cc" />
    <path
       style="fill:#26fd97;fill-opacity:1;stroke:#370188;stroke-width:3.19183;stroke-dasharray:none;stroke-opacity:1"
       d="m 208.11701,221.19762 -3.05095,-8.88549 21.91193,-1.6015 2.62069,8.95404 z"
       id="path7-1"
       sodipodi:nodetypes="ccccc" />
    <path
       style="fill:#ffffff;fill-opacity:1;stroke:#370188;stroke-width:3.19183;stroke-dasharray:none;stroke-opacity:1"
       d="m 199.9517,222.73848 -5.05251,-11.43905"
       id="path9-9"
       sodipodi:nodetypes="cc" />
    <path
       style="fill:#26fd97;fill-opacity:1;stroke:#370188;stroke-width:3.19183;stroke-dasharray:none;stroke-opacity:1"
       d="m 189.34187,211.29299 5.07987,0.78981 -1.99838,9.00601 -6.34114,-1.81143 z"
       id="path8-9"
       sodipodi:nodetypes="ccccc" />
    <path
       style="fill:#26fd97;fill-opacity:1;stroke:#370188;stroke-width:3.19183;stroke-dasharray:none;stroke-opacity:1"
       d="m 200.04768,222.27334 c 0,0 -1.31972,28.01906 -1.42125,30.96311 -0.1016,2.94405 1.84543,32.86661 1.84543,32.86661 l 5.19129,-0.39989"
       id="path11-7"
       sodipodi:nodetypes="csc" />
    <circle
       style="fill:#370188;fill-opacity:1;stroke:#370188;stroke-width:0.797947;stroke-opacity:1"
       id="path3-3-6"
       r="0.7555865"
       cy="230.82649"
       cx="203.69008"
       inkscape:transform-center-x="2.5473964"
       inkscape:transform-center-y="-3.3359917e-05" />
    <circle
       style="fill:#370188;fill-opacity:1;stroke:#370188;stroke-width:0.797947;stroke-opacity:1"
       id="path3-3-6-9"
       r="0.7555865"
       cy="240.87743"
       cx="203.20668"
       inkscape:transform-center-x="2.5473672"
       inkscape:transform-center-y="-8.8337132e-06" />
    <circle
       style="fill:#370188;fill-opacity:1;stroke:#370188;stroke-width:0.797947;stroke-opacity:1"
       id="path3-3-6-2"
       r="0.7555865"
       cy="250.23207"
       cx="202.72939"
       inkscape:transform-center-x="2.5473177"
       inkscape:transform-center-y="2.1149829e-06" />
    <circle
       style="fill:#370188;fill-opacity:1;stroke:#370188;stroke-width:0.797947;stroke-opacity:1"
       id="path3-3-6-1"
       r="0.7555865"
       cy="259.94873"
       cx="202.89313"
       inkscape:transform-center-x="2.547382"
       inkscape:transform-center-y="3.4559455e-05" />
    <circle
       style="fill:#370188;fill-opacity:1;stroke:#370188;stroke-width:0.797947;stroke-opacity:1"
       id="path3-3-6-6"
       r="0.7555865"
       cy="270.00858"
       cx="203.46159"
       inkscape:transform-center-x="2.5473966"
       inkscape:transform-center-y="-7.9173349e-05" />
    <circle
       style="fill:#370188;fill-opacity:1;stroke:#370188;stroke-width:0.797947;stroke-opacity:1"
       id="path3-3-6-60"
       r="0.7555865"
       cy="279.72803"
       cx="204.02805"
       inkscape:transform-center-x="2.5474322"
       inkscape:transform-center-y="1.983531e-06" />
    <path
       style="fill:#ffffff;fill-opacity:1;stroke:#370188;stroke-width:3.19183;stroke-dasharray:none;stroke-opacity:1"
       d="m 211.45155,175.06548 c 3.34671,-3.06537 6.09701,1.79295 3.06531,3.69357"
       id="path15"
       sodipodi:nodetypes="cc" />
    <path
       style="fill:#ffffff;fill-opacity:1;stroke:#370188;stroke-width:3.19189;stroke-opacity:1"
       d="m 189.02116,210.15056 c 0.65164,20.41811 26.57253,20.60422 27.00693,-0.0317"
       id="path18"
       sodipodi:nodetypes="cc" />
    <ellipse
       style="fill:#ffffff;fill-opacity:1;stroke:#370188;stroke-width:3.19189;stroke-opacity:1"
       id="path2"
       cx="202.52193"
       cy="210.22963"
       rx="13.520867"
       ry="3.5164156" />
    <ellipse
       style="fill:#370188;fill-opacity:1;stroke:none;stroke-width:6.22259"
       id="path20"
       cx="202.58258"
       cy="211.02867"
       rx="8.7413483"
       ry="1.8731458" />
    <path
       style="fill:#ffffff;fill-opacity:1;stroke:#370188;stroke-width:3.19183;stroke-dasharray:none;stroke-opacity:1"
       d="m 188.75764,229.53612 c 2.72824,-3.3895 2.66004,-3.67661 5.87283,-6.21652 3.5258,-2.78743 8.3792,2.63122 5.06869,6.02847 -3.31054,3.39722 -3.27777,3.35337 -3.84394,3.6309"
       id="path5"
       sodipodi:nodetypes="cssc" />
    <path
       style="fill:#26fd97;fill-opacity:1;stroke:#370188;stroke-width:3.19183;stroke-dasharray:none;stroke-opacity:1"
       d="m 189.58396,225.42879 9.79932,7.27929 -13.86541,10.80881 c -2.74812,-5.88337 -2.5053,-11.48188 1.97328,-16.67698 z"
       id="path13"
       sodipodi:nodetypes="ccccc" />
    <path
       style="fill:#ffffff;fill-opacity:1;stroke:#370188;stroke-width:3.19183;stroke-dasharray:none;stroke-opacity:1"
       d="m 217.23153,235.19788 c -7.7355,-6.3941 -4.63625,-3.55953 -7.25424,-6.60397 -3.53281,-4.10826 1.2014,-10.59469 6.07192,-6.23138 8.42959,7.55174 6.37298,5.95928 6.34567,5.92369"
       id="path6"
       sodipodi:nodetypes="cssc" />
    <path
       style="fill:#26fd97;fill-opacity:1;stroke:#370188;stroke-width:3.19183;stroke-dasharray:none;stroke-opacity:1"
       d="m 227.92052,230.46491 -9.17526,-8.36165 -7.33524,9.61555 18.26714,14.478 c 0.88128,-5.24396 4.12025,-10.48791 -1.75664,-15.7319 z"
       id="path12-2"
       sodipodi:nodetypes="ccccc" />
    <text
       xml:space="preserve"
       style="font-style:normal;font-variant:normal;font-weight:normal;font-stretch:normal;font-size:19.05px;font-family:'Nanum Pen';-inkscape-font-specification:'Nanum Pen';text-align:start;letter-spacing:0px;word-spacing:0px;writing-mode:lr-tb;direction:ltr;text-anchor:start;white-space:pre;inline-size:148.152;display:inline;fill:#370188;fill-opacity:1;stroke:none;stroke-width:1.5875;stroke-linecap:round;stroke-dasharray:none;stroke-opacity:1"
       x="-12.420934"
       y="156.49693"
       id="text17-6-5-0"
       transform="translate(25.681851,-120.64676)"><tspan
         x="-12.420934"
         y="156.49693"
         id="tspan2">I am just too tired </tspan><tspan
         x="-12.420934"
         y="180.30944"
         id="tspan3">to give him feedback...</tspan></text>
    <path
       style="fill:none;fill-opacity:1;stroke:#370188;stroke-width:1.5875;stroke-linecap:round;stroke-dasharray:none;stroke-opacity:1"
       d="M 91.846305,121.60711 C 91.403145,112.28882 67.076438,72.561912 66.748798,65.721652"
       id="path13-1-9-2-1-7-8"
       sodipodi:nodetypes="cc" />
    <text
       xml:space="preserve"
       style="font-style:normal;font-variant:normal;font-weight:normal;font-stretch:normal;font-size:19.05px;font-family:'Nanum Pen';-inkscape-font-specification:'Nanum Pen';text-align:end;letter-spacing:0px;word-spacing:0px;writing-mode:lr-tb;direction:ltr;text-anchor:end;white-space:pre;inline-size:156.963;display:inline;fill:#370188;fill-opacity:1;stroke:none;stroke-width:1.5875;stroke-linecap:round;stroke-dasharray:none;stroke-opacity:1"
       x="123.73898"
       y="156.49693"
       id="text17-6-5-0-9"
       transform="translate(151.81619,-71.196362)"><tspan
         x="123.73898"
         y="156.49693"
         id="tspan4">It doesn’t have to be<tspan
   y="156.49693"
   id="tspan5"> </tspan></tspan><tspan
         x="123.73898"
         y="180.30944"
         id="tspan6">today. I am here if you<tspan
   y="180.30944"
   id="tspan7"> </tspan></tspan><tspan
         x="123.73898"
         y="204.12194"
         id="tspan8">just want to rant.</tspan></text>
    <path
       style="fill:none;fill-opacity:1;stroke:#370188;stroke-width:1.5875;stroke-linecap:round;stroke-dasharray:none;stroke-opacity:1"
       d="m 205.44639,157.47787 c -0.29709,-5.37427 9.364,-14.82686 9.03636,-19.47599"
       id="path13-1-9-2-1-7-8-0"
       sodipodi:nodetypes="cc" />
  </g>
</svg>
