<?xml version="1.0" encoding="UTF-8" standalone="no"?>
<!-- Created with Inkscape (http://www.inkscape.org/) -->

<svg
   width="1080"
   height="1350"
   viewBox="0 0 285.74999 357.1875"
   version="1.1"
   id="svg1"
   inkscape:version="1.4 (e7c3feb1, 2024-10-09)"
   sodipodi:docname="panel-02.svg"
   xml:space="preserve"
   xmlns:inkscape="http://www.inkscape.org/namespaces/inkscape"
   xmlns:sodipodi="http://sodipodi.sourceforge.net/DTD/sodipodi-0.dtd"
   xmlns="http://www.w3.org/2000/svg"
   xmlns:svg="http://www.w3.org/2000/svg"><sodipodi:namedview
     id="namedview1"
     pagecolor="#ffffff"
     bordercolor="#000000"
     borderopacity="0.25"
     inkscape:showpageshadow="2"
     inkscape:pageopacity="0.0"
     inkscape:pagecheckerboard="0"
     inkscape:deskcolor="#d1d1d1"
     inkscape:document-units="px"
     inkscape:zoom="0.36639936"
     inkscape:cx="603.167"
     inkscape:cy="796.94463"
     inkscape:window-width="1728"
     inkscape:window-height="1057"
     inkscape:window-x="0"
     inkscape:window-y="32"
     inkscape:window-maximized="0"
     inkscape:current-layer="layer1"
     showguides="true"
     showgrid="false" /><defs
     id="defs1"><rect
       x="337.60629"
       y="293.08679"
       width="868.13049"
       height="871.84045"
       id="rect26" /><rect
       x="358.01108"
       y="335.75131"
       width="877.4054"
       height="734.57196"
       id="rect25" /><rect
       x="418.44797"
       y="244.75258"
       width="748.0744"
       height="801.36731"
       id="rect16" /><clipPath
       clipPathUnits="userSpaceOnUse"
       id="clipPath32"><rect
         style="fill:none;fill-opacity:1;fill-rule:nonzero;stroke:#370188;stroke-width:3.175;stroke-dasharray:none;stroke-opacity:1"
         id="rect33"
         width="282.57498"
         height="354.01248"
         x="1.5875"
         y="15.875003" /></clipPath><clipPath
       clipPathUnits="userSpaceOnUse"
       id="clipPath33"><rect
         style="fill:none;fill-opacity:1;fill-rule:nonzero;stroke:#370188;stroke-width:3.175;stroke-dasharray:none;stroke-opacity:1"
         id="rect34"
         width="282.57498"
         height="354.01248"
         x="1.5875"
         y="15.875003"
         transform="scale(-1,1)" /></clipPath><clipPath
       clipPathUnits="userSpaceOnUse"
       id="clipPath34"><rect
         style="fill:none;fill-opacity:1;fill-rule:nonzero;stroke:#370188;stroke-width:3.175;stroke-dasharray:none;stroke-opacity:1"
         id="rect35"
         width="282.57498"
         height="354.01248"
         x="1.5875"
         y="15.875003" /></clipPath><clipPath
       clipPathUnits="userSpaceOnUse"
       id="clipPath35"><rect
         style="fill:none;fill-opacity:1;fill-rule:nonzero;stroke:#370188;stroke-width:3.175;stroke-dasharray:none;stroke-opacity:1"
         id="rect36"
         width="282.57498"
         height="354.01248"
         x="1.5875"
         y="15.875003" /></clipPath><clipPath
       clipPathUnits="userSpaceOnUse"
       id="clipPath1"><rect
         style="fill:none;fill-opacity:1;fill-rule:nonzero;stroke:#370188;stroke-width:0.695287;stroke-dasharray:none;stroke-opacity:1"
         id="rect2"
         width="61.880581"
         height="77.524551"
         x="-167.02388"
         y="-16.952217"
         transform="scale(-1,1)" /></clipPath><clipPath
       clipPathUnits="userSpaceOnUse"
       id="clipPath2"><rect
         style="fill:none;fill-opacity:1;fill-rule:nonzero;stroke:#370188;stroke-width:3.175;stroke-dasharray:none;stroke-opacity:1"
         id="rect3"
         width="282.57498"
         height="354.01248"
         x="139.64767"
         y="-132.82672"
         transform="rotate(21.214416)" /></clipPath><clipPath
       clipPathUnits="userSpaceOnUse"
       id="clipPath3"><rect
         style="fill:none;fill-opacity:1;fill-rule:nonzero;stroke:#370188;stroke-width:3.175;stroke-dasharray:none;stroke-opacity:1"
         id="rect4"
         width="282.57498"
         height="354.01248"
         x="1.5875"
         y="1.5875"
         transform="rotate(23.854687)" /></clipPath><clipPath
       clipPathUnits="userSpaceOnUse"
       id="clipPath5"><rect
         style="fill:none;fill-opacity:1;fill-rule:nonzero;stroke:#370188;stroke-width:3.175;stroke-dasharray:none;stroke-opacity:1"
         id="rect6"
         width="282.57498"
         height="354.01248"
         x="1.5875"
         y="1.5875"
         transform="rotate(23.854687)" /></clipPath><clipPath
       clipPathUnits="userSpaceOnUse"
       id="clipPath6"><rect
         style="fill:none;fill-opacity:1;fill-rule:nonzero;stroke:#370188;stroke-width:3.175;stroke-dasharray:none;stroke-opacity:1"
         id="rect7"
         width="282.57498"
         height="354.01248"
         x="114.21098"
         y="-148.05612"
         transform="rotate(21.830906)" /></clipPath></defs><g
     inkscape:label="Layer 1"
     inkscape:groupmode="layer"
     id="layer1"><text
       xml:space="preserve"
       transform="scale(0.26458333)"
       id="text16"
       style="font-style:normal;font-variant:normal;font-weight:bold;font-stretch:normal;font-size:60px;font-family:'Josefin Slab';-inkscape-font-specification:'Josefin Slab Bold';text-align:start;letter-spacing:0px;word-spacing:0px;writing-mode:lr-tb;direction:ltr;white-space:pre;shape-inside:url(#rect16);display:inline;fill:#000000;fill-opacity:0;stroke:#370188;stroke-width:12;stroke-opacity:1" /><text
       xml:space="preserve"
       transform="scale(0.26458333)"
       id="text25"
       style="font-style:normal;font-variant:normal;font-weight:bold;font-stretch:normal;font-size:60px;font-family:'Josefin Slab';-inkscape-font-specification:'Josefin Slab Bold';text-align:start;letter-spacing:0px;word-spacing:0px;writing-mode:lr-tb;direction:ltr;white-space:pre;shape-inside:url(#rect25);display:inline;fill:#000000;fill-opacity:0;stroke:#370188;stroke-width:12;stroke-opacity:1" /><text
       xml:space="preserve"
       transform="scale(0.26458333)"
       id="text26"
       style="font-style:normal;font-variant:normal;font-weight:bold;font-stretch:normal;font-size:60px;font-family:'Josefin Slab';-inkscape-font-specification:'Josefin Slab Bold';text-align:start;letter-spacing:0px;word-spacing:0px;writing-mode:lr-tb;direction:ltr;white-space:pre;shape-inside:url(#rect26);display:inline;fill:#000000;fill-opacity:0;stroke:#370188;stroke-width:12;stroke-opacity:1" /><rect
       width="9.8019896"
       height="15.875"
       rx="0"
       ry="0"
       fill="#6002ee"
       stroke-width="0"
       id="rect1-3-4-39-4-2-0-5-6"
       x="247.60098"
       y="332.84583" /><text
       font-family="Montserrat"
       font-size="618.11px"
       font-weight="200"
       stroke-width="0"
       fill="#33333"
       id="text3-0-3-0-0-5-3-3-2"
       x="248.33717"
       y="345.42685"
       style="font-style:normal;font-variant:normal;font-weight:300;font-stretch:normal;font-size:13.0774px;font-family:Montserrat;-inkscape-font-specification:'Montserrat Light'"
       transform="scale(0.99938968,1.0006107)"><tspan
         y="345.42685"
         font-weight="200"
         stroke-width="0"
         id="tspan1-4-8-6-2-1-2-5-9"
         style="font-style:normal;font-variant:normal;font-weight:300;font-stretch:normal;font-size:13.0774px;font-family:Montserrat;-inkscape-font-specification:'Montserrat Light'"><tspan
           style="font-style:normal;font-variant:normal;font-weight:300;font-stretch:normal;font-size:13.0774px;font-family:Montserrat;-inkscape-font-specification:'Montserrat Light';fill:#ffffff;fill-opacity:1;stroke-width:0"
           id="tspan3-6-3-13-5-2-1-6-6">k</tspan></tspan></text><text
       dx="0"
       dy="0"
       font-family="Montserrat"
       font-size="465.256px"
       font-weight="200"
       stroke-width="0"
       fill="#33333"
       id="text3-0-3-6-8-4-0-8-9"
       x="195.17656"
       y="345.42685"
       style="font-style:normal;font-variant:normal;font-weight:300;font-stretch:normal;font-size:13.0774px;font-family:Montserrat;-inkscape-font-specification:'Montserrat Light'"
       transform="scale(0.99938968,1.0006107)"><tspan
         y="345.42685"
         font-weight="200"
         stroke-width="0"
         id="tspan1-4-8-3-9-0-0-6-9"
         style="font-style:normal;font-variant:normal;font-weight:300;font-stretch:normal;font-size:13.0774px;font-family:Montserrat;-inkscape-font-specification:'Montserrat Light'">product</tspan></text><text
       font-family="Montserrat"
       font-size="465.256px"
       font-weight="200"
       stroke-width="0"
       fill="#33333"
       id="text3-0-3-6-4-3-4-3-7-8"
       x="257.78415"
       y="345.42685"
       style="font-style:normal;font-variant:normal;font-weight:300;font-stretch:normal;font-size:13.0774px;font-family:Montserrat;-inkscape-font-specification:'Montserrat Light'"
       transform="scale(0.99938968,1.0006107)"><tspan
         y="345.42685"
         font-weight="200"
         stroke-width="0"
         id="tspan1-4-8-3-6-9-9-9-7-0"
         style="font-style:normal;font-variant:normal;font-weight:300;font-stretch:normal;font-size:13.0774px;font-family:Montserrat;-inkscape-font-specification:'Montserrat Light'">ind</tspan></text><path
       style="fill:none;fill-opacity:1;stroke:#370188;stroke-width:1.5875;stroke-linecap:round;stroke-dasharray:none;stroke-opacity:1"
       d="m 63.514639,190.62745 c 6.844448,-10.46033 4.780372,-33.08225 11.431028,-43.71858"
       id="path13-1-9"
       sodipodi:nodetypes="cc" /><g
       id="g5"
       transform="rotate(-21.830906,331.66884,366.82037)"
       clip-path="url(#clipPath6)"><path
         style="fill:#ffffff;fill-opacity:1;stroke:#370188;stroke-width:3.21643;stroke-dasharray:none;stroke-opacity:1"
         d="m 311.98381,205.79085 c -1.24359,8.17194 -13.49671,27.73727 -15.45089,31.82324 -1.95415,4.08597 3.22145,8.96309 6.77444,5.76539 3.55301,-3.19777 15.76828,-21.08606 17.36715,-27.30386"
         id="path5-1-2-1-7"
         sodipodi:nodetypes="cssc" /><path
         style="fill:#ffffff;fill-opacity:1;stroke:#370188;stroke-width:3.21643;stroke-dasharray:none;stroke-opacity:1"
         d="m 354.34986,248.0279 c 0.81687,6.53498 4.51006,21.22091 12.1399,30.13967 6.13108,7.16677 14.56271,8.4803 18.80835,10.80215 9.77519,5.346 6.769,14.03994 -1.93154,11.82474 -12.68041,-3.22846 -31.83633,-6.967 -30.95235,-15.8067"
         id="path2-4-2-5-8-3"
         sodipodi:nodetypes="csssc" /><path
         style="fill:#fe8bed;fill-opacity:1;stroke:#370188;stroke-width:3.21643;stroke-dasharray:none;stroke-opacity:1"
         d="m 310.53664,211.91364 -14.44257,20.39693 11.14864,9.75506"
         id="path13-6-7-6-8"
         sodipodi:nodetypes="ccc" /><path
         style="fill:#ffffff;fill-opacity:1;stroke:#370188;stroke-width:3.21643;stroke-dasharray:none;stroke-opacity:1"
         d="m 306.83208,160.20455 c -2.98008,-3.66221 0.72159,-6.68728 3.80159,-2.51292"
         id="path15-0-5-6-6-1"
         sodipodi:nodetypes="cc" /><path
         style="fill:#ffffff;fill-opacity:1;stroke:#370188;stroke-width:3.21656;stroke-dasharray:none;stroke-opacity:1"
         d="m 327.65697,184.54895 c -9.26554,17.31194 -44.37713,6.82724 -30.47879,-11.94765 13.89834,-18.77498 19.2626,-20.4818 30.23495,-19.99418 10.97239,0.48771 19.64004,10.31735 20.72561,18.2873 1.42976,10.49709 3.3273,59.21102 5.76564,73.59704 1.99771,11.78674 -0.79394,34.08943 -2.08242,46.63332 -0.28416,2.76612 -0.49511,5.05771 -0.56556,6.65731 -0.44358,10.07059 -13.41428,10.82716 -14.14215,0.73152 -0.53937,-7.48018 -10.08545,-6.21151 -10.38755,0 -0.45123,9.27808 -13.78369,9.12606 -14.58449,-0.26131 -0.92952,-10.89466 -6.17163,-40.69924 -5.15074,-52.22005 0.97228,-10.97235 6.76719,-52.94937 6.76719,-52.94937 v 0"
         id="path1-2-4-7-1-7"
         sodipodi:nodetypes="csssssssssscc" /><circle
         style="fill:#370188;fill-opacity:1;stroke:#370188;stroke-width:0.804104;stroke-opacity:1"
         id="path3-29-2-0"
         cx="310.40527"
         cy="166.50803"
         r="1.5030103" /><circle
         style="fill:#370188;fill-opacity:1;stroke:#370188;stroke-width:0.804104;stroke-opacity:1"
         id="path3-3-5-9-1"
         cx="321.05219"
         cy="168.842"
         r="1.5030103" /><path
         style="fill:#370188;fill-opacity:1;stroke:#370188;stroke-width:3.21643;stroke-dasharray:none;stroke-opacity:1"
         d="m 305.46423,178.06259 c 1.06385,-0.69009 5.0199,0.46523 5.52069,1.5527 0.46853,1.01736 -3.81838,3.16652 -4.54308,2.76034 -0.53051,-0.29718 -2.04152,-3.62296 -0.97761,-4.31304 z"
         id="path4-2-3-9-6"
         sodipodi:nodetypes="zssz" /><path
         style="fill:#fe8bed;fill-opacity:1;stroke:#370188;stroke-width:3.21643;stroke-dasharray:none;stroke-opacity:1"
         d="m 353.68152,272.41323 c -0.34051,5.32857 -0.99514,27.69689 -0.99514,27.69689 l -19.1556,-0.58045 -1.99018,-5.97062 -1.74142,6.05349 -20.39947,0.58051 c 0,0 -0.21209,-19.99024 -0.66339,-29.02365 -0.45123,-9.03342 -3.11144,-13.35294 -1.94037,-25.16197 1.17107,-11.80907 5.49523,-45.01379 5.49523,-45.01379 l 5.28793,1.13319 4.91023,10.19817 4.15487,-10.38705 23.22922,-1.51085 c 0,0 1.73711,30.37408 4.16312,44.7587 2.42599,14.3845 0.33385,17.47355 0.12986,20.37636 -0.20415,2.9028 -0.14414,1.5225 -0.48473,6.85107 z"
         id="path14-0-7-8-2"
         sodipodi:nodetypes="zccccczzccccczzz" /><path
         style="fill:#ffffff;fill-opacity:1;stroke:#370188;stroke-width:3.21643;stroke-dasharray:none;stroke-opacity:1"
         d="m 350.95318,211.7367 c 0.69111,10.08986 -1.55305,30.37776 -1.96275,34.40325 -0.55286,5.43208 -7.64343,6.63439 -8.74919,0.13811 -1.10572,-6.49627 -1.55673,-27.26404 -1.55673,-27.26404"
         id="path6-86-3-4-3"
         sodipodi:nodetypes="cssc" /><path
         style="fill:#ffffff;fill-opacity:1;stroke:#370188;stroke-width:3.21643;stroke-dasharray:none;stroke-opacity:1"
         d="m 327.35023,201.08242 -4.17071,11.24689"
         id="path10-5-4-0-6-1"
         sodipodi:nodetypes="cc" /><path
         style="fill:#fe8bed;fill-opacity:1;stroke:#370188;stroke-width:3.21643;stroke-dasharray:none;stroke-opacity:1"
         d="m 331.09718,211.057 -3.07458,-8.95408 22.08108,-1.61388 2.6409,9.02313 z"
         id="path7-1-7-2-3-4"
         sodipodi:nodetypes="ccccc" /><path
         style="fill:#ffffff;fill-opacity:1;stroke:#370188;stroke-width:3.21643;stroke-dasharray:none;stroke-opacity:1"
         d="m 322.86882,212.60973 -5.09153,-11.52731"
         id="path9-9-9-5-8-8"
         sodipodi:nodetypes="cc" /><path
         style="fill:#fe8bed;fill-opacity:1;stroke:#370188;stroke-width:3.21643;stroke-dasharray:none;stroke-opacity:1"
         d="m 312.1771,201.07588 5.11908,0.79594 -2.0138,9.07551 -6.3901,-1.8254 z"
         id="path8-9-5-7-9-9"
         sodipodi:nodetypes="ccccc" /><path
         style="fill:#fe8bed;fill-opacity:1;stroke:#370188;stroke-width:3.21643;stroke-dasharray:none;stroke-opacity:1"
         d="m 335.65534,217.10251 0.75266,24.69109 15.03528,-3.05022 -0.69476,-27.08948"
         id="path12-2-2-7-8-2"
         sodipodi:nodetypes="cccc" /><path
         style="fill:#fe8bed;fill-opacity:1;stroke:#370188;stroke-width:3.21643;stroke-dasharray:none;stroke-opacity:1"
         d="m 322.96553,212.141 c 0,0 -1.32988,28.23528 -1.43218,31.202 -0.10255,2.96675 1.85966,33.1203 1.85966,33.1203 l 5.23132,-0.40301"
         id="path11-7-9-4-2-3"
         sodipodi:nodetypes="csc" /><circle
         style="fill:#370188;fill-opacity:1;stroke:#370188;stroke-width:0.804104;stroke-opacity:1"
         id="path3-3-6-16-4-6-1"
         r="0.76141715"
         cy="220.7601"
         cx="326.63596"
         inkscape:transform-center-x="2.5670641"
         inkscape:transform-center-y="-5.6852825e-06" /><circle
         style="fill:#370188;fill-opacity:1;stroke:#370188;stroke-width:0.804104;stroke-opacity:1"
         id="path3-3-6-9-41-1-0-5"
         r="0.76141715"
         cy="230.88863"
         cx="326.14877"
         inkscape:transform-center-x="2.5670306"
         inkscape:transform-center-y="-3.6976775e-06" /><circle
         style="fill:#370188;fill-opacity:1;stroke:#370188;stroke-width:0.804104;stroke-opacity:1"
         id="path3-3-6-2-6-2-9-0"
         r="0.76141715"
         cy="240.31551"
         cx="325.66779"
         inkscape:transform-center-x="2.567051"
         inkscape:transform-center-y="7.9723223e-06" /><circle
         style="fill:#370188;fill-opacity:1;stroke:#370188;stroke-width:0.804104;stroke-opacity:1"
         id="path3-3-6-1-3-7-6-7"
         r="0.76141715"
         cy="250.10709"
         cx="325.83289"
         inkscape:transform-center-x="2.5670693"
         inkscape:transform-center-y="1.4437816e-05" /><circle
         style="fill:#370188;fill-opacity:1;stroke:#370188;stroke-width:0.804104;stroke-opacity:1"
         id="path3-3-6-6-9-8-5-4"
         r="0.76141715"
         cy="260.2446"
         cx="326.40573"
         inkscape:transform-center-x="2.567042"
         inkscape:transform-center-y="-8.241693e-06" /><circle
         style="fill:#370188;fill-opacity:1;stroke:#370188;stroke-width:0.804104;stroke-opacity:1"
         id="path3-3-6-60-59-6-9-2"
         r="0.76141715"
         cy="270.03897"
         cx="326.97662"
         inkscape:transform-center-x="2.5670372"
         inkscape:transform-center-y="-1.4574684e-05" /><path
         style="fill:#ffffff;fill-opacity:1;stroke:#370188;stroke-width:3.21643;stroke-dasharray:none;stroke-opacity:1"
         d="m 334.45741,164.56881 c 3.37258,-3.08899 6.1441,1.80682 3.08896,3.72208"
         id="path15-1-0-5-7"
         sodipodi:nodetypes="cc" /></g><text
       xml:space="preserve"
       style="font-style:normal;font-variant:normal;font-weight:normal;font-stretch:normal;font-size:19.05px;font-family:'Nanum Pen';-inkscape-font-specification:'Nanum Pen';text-align:start;letter-spacing:0px;word-spacing:0px;writing-mode:lr-tb;direction:ltr;text-anchor:start;white-space:pre;inline-size:157.946;display:inline;fill:#370188;fill-opacity:1;stroke:none;stroke-width:1.5875;stroke-linecap:round;stroke-dasharray:none;stroke-opacity:1"
       x="-56.819321"
       y="156.49693"
       id="text17"
       transform="translate(73.583313,-41.745642)"><tspan
         x="-56.819321"
         y="156.49693"
         id="tspan1">Oh... I just said </tspan><tspan
         x="-56.819321"
         y="180.30944"
         id="tspan2">‘Improve activation.’</tspan></text><rect
       style="fill:#9a58fd;fill-opacity:1;stroke:#370188;stroke-width:3.175;stroke-dasharray:none;stroke-opacity:1"
       id="rect18"
       width="105.83333"
       height="21.166666"
       x="119.04605"
       y="296.14682"
       rx="10.583333" /><rect
       style="fill:#d7bdfe;fill-opacity:1;stroke:#370188;stroke-width:3.17498;stroke-dasharray:none;stroke-opacity:1"
       id="rect10-8"
       width="9.5250206"
       height="17.991848"
       x="137.03766"
       y="204.07179"
       rx="4.7625103" /><rect
       style="fill:#d7bdfe;fill-opacity:1;stroke:#370188;stroke-width:3.17496;stroke-dasharray:none;stroke-opacity:1"
       id="rect10-8-8"
       width="9.525032"
       height="17.991699"
       x="194.18767"
       y="204.07185"
       rx="4.762516" /><rect
       style="fill:#9a58fd;fill-opacity:1;stroke:#370188;stroke-width:3.17506;stroke-dasharray:none;stroke-opacity:1"
       id="rect9"
       width="53.974957"
       height="39.158276"
       x="143.38774"
       y="189.25523"
       rx="9.7154922" /><rect
       style="fill:#ffffff;fill-opacity:1;stroke:#370188;stroke-width:3.175;stroke-dasharray:none;stroke-opacity:1"
       id="rect10"
       width="9.5249996"
       height="21.166666"
       x="152.91272"
       y="196.13248"
       rx="4.7624998" /><rect
       style="fill:#ffffff;fill-opacity:1;stroke:#370188;stroke-width:3.175;stroke-dasharray:none;stroke-opacity:1"
       id="rect10-9"
       width="9.5249996"
       height="21.166666"
       x="178.31271"
       y="195.83191"
       rx="4.7624998" /><circle
       style="fill:#d7bdfe;fill-opacity:1;stroke:#370188;stroke-width:3.175;stroke-dasharray:none;stroke-opacity:1"
       id="path10"
       cx="170.37521"
       cy="165.69185"
       r="4.2333331" /><circle
       style="fill:#d7bdfe;fill-opacity:1;stroke:#370188;stroke-width:3.175;stroke-dasharray:none;stroke-opacity:1"
       id="path10-3"
       cx="130.15854"
       cy="306.73016"
       r="5.2916665" /><circle
       style="fill:#d7bdfe;fill-opacity:1;stroke:#370188;stroke-width:3.175;stroke-dasharray:none;stroke-opacity:1"
       id="path10-9"
       cx="213.23772"
       cy="306.73016"
       r="5.2916665" /><path
       style="fill:#ffffff;stroke:#370188;stroke-width:3.175;stroke-dasharray:none;stroke-opacity:1"
       d="m 170.3752,170.57555 v 17.98102"
       id="path11" /><rect
       style="fill:#ffffff;stroke:#370188;stroke-width:3.17495;stroke-dasharray:none;stroke-opacity:1"
       id="rect11"
       width="28.575048"
       height="3.1750476"
       x="156.08766"
       y="231.5885"
       rx="3.8625619" /><rect
       style="fill:#ffffff;stroke:#370188;stroke-width:3.17495;stroke-dasharray:none;stroke-opacity:1"
       id="rect11-0"
       width="28.575048"
       height="3.1750476"
       x="156.08766"
       y="237.93851"
       rx="3.8625619" /><rect
       style="fill:#ffffff;stroke:#370188;stroke-width:3.17495;stroke-dasharray:none;stroke-opacity:1"
       id="rect11-0-5"
       width="28.575048"
       height="3.1750476"
       x="156.08766"
       y="289.79678"
       rx="3.8625619" /><circle
       style="fill:#d7bdfe;fill-opacity:1;stroke:#370188;stroke-width:3.175;stroke-dasharray:none;stroke-opacity:1"
       id="path10-4"
       cx="146.77438"
       cy="306.73016"
       r="5.2916665" /><circle
       style="fill:#d7bdfe;fill-opacity:1;stroke:#370188;stroke-width:3.175;stroke-dasharray:none;stroke-opacity:1"
       id="path10-7"
       cx="163.3902"
       cy="306.73016"
       r="5.2916665" /><circle
       style="fill:#d7bdfe;fill-opacity:1;stroke:#370188;stroke-width:3.175;stroke-dasharray:none;stroke-opacity:1"
       id="path10-1"
       cx="180.00607"
       cy="306.73016"
       r="5.2916665" /><circle
       style="fill:#d7bdfe;fill-opacity:1;stroke:#370188;stroke-width:3.175;stroke-dasharray:none;stroke-opacity:1"
       id="path10-74"
       cx="196.62187"
       cy="306.73016"
       r="5.2916665" /><path
       style="fill:#d7bdfe;fill-opacity:1;stroke:#370188;stroke-width:3.175;stroke-dasharray:none;stroke-opacity:1"
       d="m 205.14777,260.61649 c 14.51235,0.70138 18.8462,9.5563 20.22453,11.55562 5.469,7.93302 14.78388,1.9285 8.64235,-6.32227 -3.65341,-4.90814 -12.91346,-16.87029 -28.71473,-16.14712"
       id="path19"
       sodipodi:nodetypes="cssc" /><path
       style="fill:none;fill-opacity:1;stroke:#370188;stroke-width:3.175;stroke-dasharray:none;stroke-opacity:1"
       id="path21"
       sodipodi:type="arc"
       sodipodi:cx="238.02962"
       sodipodi:cy="281.1171"
       sodipodi:rx="5.2916665"
       sodipodi:ry="5.2916665"
       sodipodi:start="2.191883"
       sodipodi:end="6.0837601"
       sodipodi:arc-type="arc"
       d="m 234.95029,285.42053 a 5.2916665,5.2916665 0 0 1 -1.89589,-6.10591 5.2916665,5.2916665 0 0 1 5.36686,-3.47468 5.2916665,5.2916665 0 0 1 4.79515,4.22885"
       sodipodi:open="true" /><path
       style="fill:none;fill-opacity:1;stroke:#370188;stroke-width:3.175;stroke-dasharray:none;stroke-opacity:1"
       d="m 211.46764,260.99571 2.96129,-9.98579"
       id="path22" /><path
       style="fill:none;fill-opacity:1;stroke:#370188;stroke-width:3.175;stroke-dasharray:none;stroke-opacity:1"
       d="m 217.86304,262.91208 5.13198,-7.81513"
       id="path23"
       sodipodi:nodetypes="cc" /><path
       style="fill:none;fill-opacity:1;stroke:#370188;stroke-width:3.175;stroke-dasharray:none;stroke-opacity:1"
       d="m 222.62418,267.53813 6.9556,-6.19808"
       id="path24" /><path
       style="fill:none;fill-opacity:1;stroke:#370188;stroke-width:3.175;stroke-dasharray:none;stroke-opacity:1"
       d="m 226.61849,273.32301 8.60844,-5.64714"
       id="path25" /><path
       style="fill:#d7bdfe;fill-opacity:1;stroke:#370188;stroke-width:3.175;stroke-dasharray:none;stroke-opacity:1"
       d="m 136.99043,260.94828 c -14.51235,0.70138 -18.98475,9.81901 -20.36308,11.81834 -5.46904,7.93301 -14.78388,1.9285 -8.64239,-6.32228 3.65341,-4.90814 12.91346,-16.87029 28.71474,-16.14711"
       id="path19-3"
       sodipodi:nodetypes="cssc" /><path
       style="fill:none;fill-opacity:1;stroke:#370188;stroke-width:3.175;stroke-dasharray:none;stroke-opacity:1"
       id="path21-9"
       sodipodi:type="arc"
       sodipodi:cx="-103.97008"
       sodipodi:cy="281.71161"
       sodipodi:rx="5.2916665"
       sodipodi:ry="5.2916665"
       sodipodi:start="2.191883"
       sodipodi:end="6.0837601"
       sodipodi:arc-type="arc"
       d="m -107.0494,286.01504 a 5.2916665,5.2916665 0 0 1 -1.8959,-6.10591 5.2916665,5.2916665 0 0 1 5.36686,-3.47467 5.2916665,5.2916665 0 0 1 4.795151,4.22884"
       sodipodi:open="true"
       transform="scale(-1,1)" /><path
       style="fill:none;fill-opacity:1;stroke:#370188;stroke-width:3.175;stroke-dasharray:none;stroke-opacity:1"
       d="m 130.532,261.59022 -2.96132,-9.9858"
       id="path22-6" /><path
       style="fill:none;fill-opacity:1;stroke:#370188;stroke-width:3.175;stroke-dasharray:none;stroke-opacity:1"
       d="m 124.13657,263.50659 -5.13197,-7.81514"
       id="path23-4"
       sodipodi:nodetypes="cc" /><path
       style="fill:none;fill-opacity:1;stroke:#370188;stroke-width:3.175;stroke-dasharray:none;stroke-opacity:1"
       d="m 119.37544,268.13263 -6.9556,-6.19808"
       id="path24-9" /><path
       style="fill:none;fill-opacity:1;stroke:#370188;stroke-width:3.175;stroke-dasharray:none;stroke-opacity:1"
       d="m 115.38113,273.91751 -8.60844,-5.64714"
       id="path25-2" /><rect
       style="fill:#9a58fd;fill-opacity:1;stroke:#370188;stroke-width:3.175;stroke-dasharray:none;stroke-opacity:1"
       id="rect16-7"
       width="68.791664"
       height="42.333332"
       x="135.97932"
       y="244.28851"
       rx="4.7624989" /><rect
       style="fill:#370188;fill-opacity:1;stroke:none;stroke-width:0;stroke-dasharray:none"
       id="rect17"
       width="52.916664"
       height="29.765625"
       x="143.91687"
       y="250.63849" /><path
       style="fill:#018816;fill-opacity:1;stroke:#370188;stroke-width:3.175;stroke-dasharray:none;stroke-opacity:1"
       d="m 28.391571,254.98263 -2.44821,35.65858 51.518659,1.38376 -2.022443,-39.59698 z"
       id="path25-4" /><path
       style="fill:#ffffff;fill-opacity:1;stroke:#370188;stroke-width:3.175;stroke-dasharray:none;stroke-opacity:1"
       d="m 11.730315,263.43045 c 0,15.83267 7.109174,26.92819 17.072324,33.2866 2.370486,1.51282 4.90258,2.75752 7.53891,3.73402 23.316628,8.63654 54.788084,-3.70364 54.763763,-37.02062 l -15.068041,15.50714 -15.15129,-6.57609 -19.957542,9.34237 -10.755375,-11.69092 -8.490204,5.1436 z"
       id="path1-8"
       sodipodi:nodetypes="cssccccccc" /><path
       style="fill:#370189;fill-opacity:1;stroke:#370188;stroke-width:0;stroke-dasharray:none;stroke-opacity:1"
       d="m 35.658321,298.76638 -3.826923,-5.27259 5.071173,2.35369 1.326261,-3.92795 0.376809,4.14214 4.169982,-3.19913 -2.573465,4.76485 5.63245,0.54648 -3.692811,2.89899 z"
       id="path3-2"
       sodipodi:nodetypes="cccccccccc" /><path
       style="fill:#370189;fill-opacity:1;stroke:#370188;stroke-width:0;stroke-dasharray:none;stroke-opacity:1"
       d="m 66.803038,299.30274 3.035109,-5.32826 -4.745514,2.65567 -0.408241,-3.99875 -1.235837,4.49195 -4.724654,-1.3668 3.40941,3.17528 -4.781804,1.08258 4.5025,2.28216 z"
       id="path3-1-5"
       sodipodi:nodetypes="cccccccccc" /><path
       style="fill:#ee4302;fill-opacity:1;stroke:#370188;stroke-width:3.175;stroke-dasharray:none;stroke-opacity:1"
       d="m 36.252649,300.09646 c -0.09081,0.82797 -0.110808,10.87926 -0.110808,10.87926 l -7.657909,4.01428 9.170479,-1.55092 0.742855,0.90941 0.700278,-0.93297 8.75249,1.41576 -6.925976,-3.71138 c 0,0 0.07017,-8.98281 0.0127,-9.10428 z"
       id="path7-8"
       sodipodi:nodetypes="cccccccccc" /><path
       style="fill:#ee4302;fill-opacity:1;stroke:#370188;stroke-width:3.175;stroke-dasharray:none;stroke-opacity:1"
       d="m 66.291196,299.35855 0.340042,12.60688 7.871143,2.69119 -9.979501,-1.45316 -0.742855,0.90941 -0.70031,-0.93297 -9.076213,1.20136 7.41826,-3.10319 c 0,0 0.16637,-9.20292 0.179705,-9.39399 z"
       id="path7-4-0"
       sodipodi:nodetypes="cccccccccc" /><path
       style="fill:none;fill-opacity:1;stroke:#370188;stroke-width:3.175;stroke-dasharray:none;stroke-opacity:1"
       d="m 36.750806,275.77881 3.905726,-9.47851 22.305454,-0.053 3.054922,7.69033"
       id="path19-60"
       sodipodi:nodetypes="cccc" /><path
       style="fill:#fdc458;fill-opacity:1;stroke:#370188;stroke-width:3.175;stroke-dasharray:none;stroke-opacity:1"
       d="m 25.106812,245.03643 c 0,0 -38.472776,27.21074 6.956202,15.58833 z"
       id="path17-0"
       sodipodi:nodetypes="ccc" /><path
       style="fill:#fdc458;fill-opacity:1;stroke:#370188;stroke-width:3.175;stroke-dasharray:none;stroke-opacity:1"
       d="m 81.359333,246.07532 c 0,0 34.302287,21.19084 -7.534783,15.42339 z"
       id="path16-7"
       sodipodi:nodetypes="ccc" /><path
       style="fill:#fdc458;fill-opacity:1;stroke:#370188;stroke-width:3.175;stroke-dasharray:none;stroke-opacity:1"
       d="m 67.73744,231.275 c 17.425955,-38.94191 -49.630836,-38.34514 -32.591501,0.64325 l 15.592742,7.69652 z"
       id="path23-5"
       sodipodi:nodetypes="cccc" /><path
       style="fill:#018816;fill-opacity:1;stroke:#370188;stroke-width:3.175;stroke-dasharray:none;stroke-opacity:1"
       d="m 34.105587,260.73766 -9.800304,4.04721 -6.621494,-19.13719 13.522515,-5.46455 -0.305753,-10.09069 19.875563,9.57891 20.4871,-10.49623 v 8.56177 l 14.322171,7.7724 -6.590697,18.69103 -9.531286,-3.85836"
       id="path12-0"
       sodipodi:nodetypes="ccccccccccc" /><circle
       style="fill:#370188;fill-opacity:1;stroke:none;stroke-width:8.13508;stroke-dasharray:none;stroke-opacity:1"
       id="path9-8"
       cx="45.47657"
       cy="216.31203"
       r="1.7054044" /><circle
       style="fill:#370188;fill-opacity:1;stroke:none;stroke-width:8.13508;stroke-dasharray:none;stroke-opacity:1"
       id="path9-4"
       cx="57.97319"
       cy="216.39716"
       r="1.7054044" /><path
       style="fill:none;fill-opacity:1;stroke:#370188;stroke-width:3.175;stroke-dasharray:none;stroke-opacity:1"
       d="m 30.901186,239.98161 19.874928,4.4824 20.996306,-6.52113"
       id="path22-1"
       sodipodi:nodetypes="ccc" /><path
       style="fill:none;fill-opacity:1;stroke:#370188;stroke-width:3.175;stroke-dasharray:none;stroke-opacity:1"
       d="m 41.594523,239.03467 -3.37312,20.3066"
       id="path10-79"
       sodipodi:nodetypes="cc" /><path
       style="fill:none;fill-opacity:1;stroke:#370188;stroke-width:3.175;stroke-dasharray:none;stroke-opacity:1"
       d="m 59.034416,238.52825 2.501138,20.97739"
       id="path11-71"
       sodipodi:nodetypes="cc" /><path
       style="fill:none;fill-opacity:1;stroke:#370188;stroke-width:3.175;stroke-dasharray:none;stroke-opacity:1"
       d="m 50.431182,221.43971 5.982748,3.09451 -7.220553,3.30086"
       id="path24-70" /><path
       style="fill:none;fill-opacity:1;stroke:#370188;stroke-width:3.175;stroke-dasharray:none;stroke-opacity:1"
       d="m 51.54548,204.37132 c 5.406327,-4.70872 -5.057489,-5.05752 0.523209,-8.89425"
       id="path26-0"
       sodipodi:nodetypes="cc" /><text
       xml:space="preserve"
       style="font-weight:bold;font-size:12.7px;font-family:Helvetica;-inkscape-font-specification:'Helvetica Bold';text-align:center;letter-spacing:0px;word-spacing:0px;writing-mode:lr-tb;direction:ltr;text-anchor:middle;fill:#fe8bed;fill-opacity:1;stroke:#370188;stroke-width:3.175;stroke-dasharray:none"
       x="112.57917"
       y="100.13621"
       id="text4"><tspan
         sodipodi:role="line"
         id="tspan4"
         style="stroke-width:3.175"></tspan></text><text
       xml:space="preserve"
       style="font-style:normal;font-variant:normal;font-weight:normal;font-stretch:normal;font-size:19.05px;font-family:'Nanum Pen';-inkscape-font-specification:'Nanum Pen';text-align:end;letter-spacing:0px;word-spacing:0px;writing-mode:lr-tb;direction:ltr;text-anchor:end;white-space:pre;inline-size:207.048;display:inline;fill:#370188;fill-opacity:1;stroke:none;stroke-width:1.5875;stroke-linecap:round;stroke-dasharray:none;stroke-opacity:1"
       x="147.57767"
       y="156.49693"
       id="text5"
       transform="translate(124.31717,-127.84337)"><tspan
         x="147.57767"
         y="156.49693"
         id="tspan3">Did you tell it about the<tspan
   y="156.49693"
   id="tspan5"> </tspan></tspan><tspan
         x="147.57767"
         y="180.30944"
         id="tspan6">product, what your goal is,<tspan
   y="180.30944"
   id="tspan7"> </tspan></tspan><tspan
         x="147.57767"
         y="204.12194"
         id="tspan8">and what you’ve tried?</tspan></text><path
       style="fill:none;fill-opacity:1;stroke:#370188;stroke-width:1.5875;stroke-linecap:round;stroke-dasharray:none;stroke-opacity:1"
       d="M 233.19169,162.29405 C 229.20439,151.1116 192.92173,98.274659 193.07332,87.638329"
       id="path13-1-9-4"
       sodipodi:nodetypes="cc" /><rect
       style="fill:none;fill-opacity:1;fill-rule:nonzero;stroke:#370188;stroke-width:3.175;stroke-dasharray:none;stroke-opacity:1"
       id="rect113-4-2"
       width="282.57498"
       height="354.01248"
       x="1.5875"
       y="1.5875" /></g></svg>
