<?xml version="1.0" encoding="UTF-8" standalone="no"?>
<!-- Created with Inkscape (http://www.inkscape.org/) -->

<svg
   width="1080"
   height="1350"
   viewBox="0 0 285.74999 357.1875"
   version="1.1"
   id="svg1"
   inkscape:version="1.4 (e7c3feb1, 2024-10-09)"
   sodipodi:docname="panel-02.svg"
   xmlns:inkscape="http://www.inkscape.org/namespaces/inkscape"
   xmlns:sodipodi="http://sodipodi.sourceforge.net/DTD/sodipodi-0.dtd"
   xmlns="http://www.w3.org/2000/svg"
   xmlns:svg="http://www.w3.org/2000/svg">
  <sodipodi:namedview
     id="namedview1"
     pagecolor="#ffffff"
     bordercolor="#000000"
     borderopacity="0.25"
     inkscape:showpageshadow="2"
     inkscape:pageopacity="0.0"
     inkscape:pagecheckerboard="0"
     inkscape:deskcolor="#d1d1d1"
     inkscape:document-units="px"
     inkscape:zoom="1.5299094"
     inkscape:cx="1060.8472"
     inkscape:cy="930.77409"
     inkscape:window-width="1728"
     inkscape:window-height="1057"
     inkscape:window-x="0"
     inkscape:window-y="32"
     inkscape:window-maximized="0"
     inkscape:current-layer="layer1"
     showguides="true" />
  <defs
     id="defs1">
    <rect
       x="337.60629"
       y="293.08679"
       width="868.13049"
       height="871.84045"
       id="rect26" />
    <rect
       x="358.01108"
       y="335.75131"
       width="877.4054"
       height="734.57196"
       id="rect25" />
    <rect
       x="418.44797"
       y="244.75258"
       width="748.0744"
       height="801.36731"
       id="rect16" />
    <clipPath
       clipPathUnits="userSpaceOnUse"
       id="clipPath32">
      <rect
         style="fill:none;fill-opacity:1;fill-rule:nonzero;stroke:#370188;stroke-width:3.175;stroke-dasharray:none;stroke-opacity:1"
         id="rect33"
         width="282.57498"
         height="354.01248"
         x="1.5875"
         y="15.875003" />
    </clipPath>
    <clipPath
       clipPathUnits="userSpaceOnUse"
       id="clipPath33">
      <rect
         style="fill:none;fill-opacity:1;fill-rule:nonzero;stroke:#370188;stroke-width:3.175;stroke-dasharray:none;stroke-opacity:1"
         id="rect34"
         width="282.57498"
         height="354.01248"
         x="1.5875"
         y="15.875003"
         transform="scale(-1,1)" />
    </clipPath>
    <clipPath
       clipPathUnits="userSpaceOnUse"
       id="clipPath34">
      <rect
         style="fill:none;fill-opacity:1;fill-rule:nonzero;stroke:#370188;stroke-width:3.175;stroke-dasharray:none;stroke-opacity:1"
         id="rect35"
         width="282.57498"
         height="354.01248"
         x="1.5875"
         y="15.875003" />
    </clipPath>
    <clipPath
       clipPathUnits="userSpaceOnUse"
       id="clipPath35">
      <rect
         style="fill:none;fill-opacity:1;fill-rule:nonzero;stroke:#370188;stroke-width:3.175;stroke-dasharray:none;stroke-opacity:1"
         id="rect36"
         width="282.57498"
         height="354.01248"
         x="1.5875"
         y="15.875003" />
    </clipPath>
    <clipPath
       clipPathUnits="userSpaceOnUse"
       id="clipPath46">
      <rect
         style="fill:none;fill-opacity:1;fill-rule:nonzero;stroke:#370188;stroke-width:0.695287;stroke-dasharray:none;stroke-opacity:1"
         id="rect46"
         width="61.880581"
         height="77.524551"
         x="-167.02388"
         y="-16.952217"
         transform="scale(-1,1)" />
    </clipPath>
  </defs>
  <g
     inkscape:label="Layer 1"
     inkscape:groupmode="layer"
     id="layer1">
    <rect
       style="fill:#0e0023;stroke:#9a58fd;stroke-width:4.23333;stroke-linecap:round;stroke-dasharray:none;stroke-opacity:1;fill-opacity:1"
       id="rect37"
       width="265.96967"
       height="140.15659"
       x="11.064994"
       y="13.933696" />
    <text
       xml:space="preserve"
       transform="scale(0.26458333)"
       id="text16"
       style="font-style:normal;font-variant:normal;font-weight:bold;font-stretch:normal;font-size:60px;font-family:'Josefin Slab';-inkscape-font-specification:'Josefin Slab Bold';text-align:start;letter-spacing:0px;word-spacing:0px;writing-mode:lr-tb;direction:ltr;white-space:pre;shape-inside:url(#rect16);display:inline;fill:#000000;fill-opacity:0;stroke:#370188;stroke-width:12;stroke-opacity:1" />
    <text
       xml:space="preserve"
       transform="scale(0.26458333)"
       id="text25"
       style="font-style:normal;font-variant:normal;font-weight:bold;font-stretch:normal;font-size:60px;font-family:'Josefin Slab';-inkscape-font-specification:'Josefin Slab Bold';text-align:start;letter-spacing:0px;word-spacing:0px;writing-mode:lr-tb;direction:ltr;white-space:pre;shape-inside:url(#rect25);display:inline;fill:#000000;fill-opacity:0;stroke:#370188;stroke-width:12;stroke-opacity:1" />
    <text
       xml:space="preserve"
       transform="scale(0.26458333)"
       id="text26"
       style="font-style:normal;font-variant:normal;font-weight:bold;font-stretch:normal;font-size:60px;font-family:'Josefin Slab';-inkscape-font-specification:'Josefin Slab Bold';text-align:start;letter-spacing:0px;word-spacing:0px;writing-mode:lr-tb;direction:ltr;white-space:pre;shape-inside:url(#rect26);display:inline;fill:#000000;fill-opacity:0;stroke:#370188;stroke-width:12;stroke-opacity:1" />
    <rect
       width="9.8019896"
       height="15.875"
       rx="0"
       ry="0"
       fill="#6002ee"
       stroke-width="0"
       id="rect1-3-4-39-4-2-0-5-6"
       x="247.60098"
       y="332.84583" />
    <text
       font-family="Montserrat"
       font-size="618.11px"
       font-weight="200"
       stroke-width="0"
       fill="#33333"
       id="text3-0-3-0-0-5-3-3-2"
       x="248.33717"
       y="345.42685"
       style="font-style:normal;font-variant:normal;font-weight:300;font-stretch:normal;font-size:13.0774px;font-family:Montserrat;-inkscape-font-specification:'Montserrat Light'"
       transform="scale(0.99938968,1.0006107)"><tspan
         y="345.42685"
         font-weight="200"
         stroke-width="0"
         id="tspan1-4-8-6-2-1-2-5-9"
         style="font-style:normal;font-variant:normal;font-weight:300;font-stretch:normal;font-size:13.0774px;font-family:Montserrat;-inkscape-font-specification:'Montserrat Light'"><tspan
           style="font-style:normal;font-variant:normal;font-weight:300;font-stretch:normal;font-size:13.0774px;font-family:Montserrat;-inkscape-font-specification:'Montserrat Light';fill:#ffffff;fill-opacity:1;stroke-width:0"
           id="tspan3-6-3-13-5-2-1-6-6">k</tspan></tspan></text>
    <text
       dx="0"
       dy="0"
       font-family="Montserrat"
       font-size="465.256px"
       font-weight="200"
       stroke-width="0"
       fill="#33333"
       id="text3-0-3-6-8-4-0-8-9"
       x="195.17656"
       y="345.42685"
       style="font-style:normal;font-variant:normal;font-weight:300;font-stretch:normal;font-size:13.0774px;font-family:Montserrat;-inkscape-font-specification:'Montserrat Light'"
       transform="scale(0.99938968,1.0006107)"><tspan
         y="345.42685"
         font-weight="200"
         stroke-width="0"
         id="tspan1-4-8-3-9-0-0-6-9"
         style="font-style:normal;font-variant:normal;font-weight:300;font-stretch:normal;font-size:13.0774px;font-family:Montserrat;-inkscape-font-specification:'Montserrat Light'">product</tspan></text>
    <text
       font-family="Montserrat"
       font-size="465.256px"
       font-weight="200"
       stroke-width="0"
       fill="#33333"
       id="text3-0-3-6-4-3-4-3-7-8"
       x="257.78415"
       y="345.42685"
       style="font-style:normal;font-variant:normal;font-weight:300;font-stretch:normal;font-size:13.0774px;font-family:Montserrat;-inkscape-font-specification:'Montserrat Light'"
       transform="scale(0.99938968,1.0006107)"><tspan
         y="345.42685"
         font-weight="200"
         stroke-width="0"
         id="tspan1-4-8-3-6-9-9-9-7-0"
         style="font-style:normal;font-variant:normal;font-weight:300;font-stretch:normal;font-size:13.0774px;font-family:Montserrat;-inkscape-font-specification:'Montserrat Light'">ind</tspan></text>
    <path
       style="fill:#018816;fill-opacity:1;stroke:#370188;stroke-width:3.175;stroke-dasharray:none;stroke-opacity:1"
       d="m 31.723905,225.46193 -2.44821,35.65858 51.518659,1.38376 -2.022443,-39.59698 z"
       id="path25-4" />
    <path
       style="fill:#ffffff;fill-opacity:1;stroke:#370188;stroke-width:3.175;stroke-dasharray:none;stroke-opacity:1"
       d="m 15.062649,233.90974 c 0,15.83268 7.109174,26.92819 17.072324,33.28661 2.370486,1.51282 4.90258,2.75752 7.53891,3.73402 23.316628,8.63654 54.788084,-3.70364 54.763763,-37.02063 l -15.068041,15.50715 -15.15129,-6.5761 -19.957542,9.34238 -10.755375,-11.69092 -8.490204,5.14359 z"
       id="path1-8"
       sodipodi:nodetypes="cssccccccc" />
    <path
       style="fill:#370189;fill-opacity:1;stroke:#370188;stroke-width:0;stroke-dasharray:none;stroke-opacity:1"
       d="m 38.990655,269.24568 -3.826923,-5.27259 5.071173,2.35369 1.326261,-3.92795 0.376809,4.14213 4.169982,-3.19913 -2.573465,4.76485 5.63245,0.54648 -3.692811,2.899 z"
       id="path3-2"
       sodipodi:nodetypes="cccccccccc" />
    <path
       style="fill:#370189;fill-opacity:1;stroke:#370188;stroke-width:0;stroke-dasharray:none;stroke-opacity:1"
       d="m 70.135372,269.78203 3.035109,-5.32825 -4.745514,2.65567 -0.408241,-3.99876 -1.235837,4.49196 -4.724654,-1.3668 3.40941,3.17528 -4.781804,1.08258 4.5025,2.28216 z"
       id="path3-1-5"
       sodipodi:nodetypes="cccccccccc" />
    <path
       style="fill:#ee4302;fill-opacity:1;stroke:#370188;stroke-width:3.175;stroke-dasharray:none;stroke-opacity:1"
       d="m 39.584983,270.57575 c -0.0908,0.82798 -0.110808,10.87927 -0.110808,10.87927 l -7.657909,4.01428 9.170479,-1.55093 0.742855,0.90942 0.700278,-0.93298 8.75249,1.41577 -6.925976,-3.71139 c 0,0 0.07017,-8.9828 0.0127,-9.10428 z"
       id="path7-8"
       sodipodi:nodetypes="cccccccccc" />
    <path
       style="fill:#ee4302;fill-opacity:1;stroke:#370188;stroke-width:3.175;stroke-dasharray:none;stroke-opacity:1"
       d="m 69.62353,269.83785 0.340042,12.60688 7.871143,2.69119 -9.979501,-1.45316 -0.742855,0.90941 -0.70031,-0.93297 -9.076213,1.20135 7.41826,-3.10318 c 0,0 0.16637,-9.20293 0.179705,-9.394 z"
       id="path7-4-0"
       sodipodi:nodetypes="cccccccccc" />
    <path
       style="fill:#fdc458;fill-opacity:1;stroke:#370188;stroke-width:3.175;stroke-dasharray:none;stroke-opacity:1"
       d="m 28.439146,215.51573 c 0,0 -38.472776,27.21073 6.956202,15.58833 z"
       id="path17-0"
       sodipodi:nodetypes="ccc" />
    <path
       style="fill:#fdc458;fill-opacity:1;stroke:#370188;stroke-width:3.175;stroke-dasharray:none;stroke-opacity:1"
       d="m 84.691667,216.55462 c 0,0 34.302293,21.19084 -7.534783,15.42339 z"
       id="path16-7"
       sodipodi:nodetypes="ccc" />
    <path
       style="fill:#fdc458;fill-opacity:1;stroke:#370188;stroke-width:3.175;stroke-dasharray:none;stroke-opacity:1"
       d="m 71.069774,201.7543 c 17.425955,-38.94192 -49.630836,-38.34514 -32.591501,0.64325 l 15.592742,7.69652 z"
       id="path23-5"
       sodipodi:nodetypes="cccc" />
    <path
       style="fill:#018816;fill-opacity:1;stroke:#370188;stroke-width:3.175;stroke-dasharray:none;stroke-opacity:1"
       d="m 37.437921,231.21696 -9.800304,4.04721 -6.621494,-19.13719 13.522515,-5.46456 -0.305753,-10.09068 c 14.737543,2.54163 25.855745,0.94063 40.362663,-0.91733 v 8.56177 l 14.322171,7.7724 -6.590697,18.69104 -9.531286,-3.85836"
       id="path12-0"
       sodipodi:nodetypes="cccccccccc" />
    <path
       style="fill:none;fill-opacity:1;stroke:#370188;stroke-width:3.175;stroke-dasharray:none;stroke-opacity:1"
       d="m 34.23352,210.46091 c 16.683061,23.49109 26.669876,22.63731 40.871234,-2.03873"
       id="path22-1"
       sodipodi:nodetypes="cc" />
    <path
       style="fill:none;fill-opacity:1;stroke:#370188;stroke-width:3.175;stroke-dasharray:none;stroke-opacity:1"
       d="m 54.877814,174.85062 c 5.406327,-4.70872 -5.057489,-5.05752 0.523209,-8.89426"
       id="path26-0"
       sodipodi:nodetypes="cc" />
    <path
       style="fill:#b98bfe;fill-opacity:1;fill-rule:nonzero;stroke:#370188;stroke-width:3.175;stroke-dasharray:none;stroke-opacity:1"
       d="m 171.62471,188.43697 c 16.19634,5.3238 13.8764,14.98207 -2.92418,11.09709"
       id="path61-9"
       sodipodi:nodetypes="cc" />
    <path
       style="fill:#b98bfe;fill-opacity:1;fill-rule:nonzero;stroke:#370188;stroke-width:3.175;stroke-dasharray:none;stroke-opacity:1"
       d="m 101.48429,188.85564 c -16.196346,5.32379 -13.876405,14.98207 2.92418,11.09709"
       id="path61"
       sodipodi:nodetypes="cc" />
    <path
       style="fill:#b98bfe;fill-opacity:1;fill-rule:nonzero;stroke:#370188;stroke-width:3.175;stroke-dasharray:none;stroke-opacity:1"
       d="m 118.83354,173.70227 c -25.53269,-25.40051 -6.65648,-52.88401 18.84146,-51.92555 25.11597,0.94409 40.37051,29.17676 17.00911,51.85551 3.85426,24.96865 10.08031,70.52397 10.63111,104.67395 -1.63141,9.3433 -16.16078,8.9782 -17.23815,-1.43652 -1.07741,-10.41472 -14.01283,-11.94105 -14.57938,-0.16732 -0.50343,10.462 -17.31089,10.41554 -17.74219,-0.1918 -2.53708,-17.45114 1.06293,-77.48945 3.07804,-102.80824 z"
       id="path49"
       sodipodi:nodetypes="csccssccc" />
    <path
       style="fill:#ee02ca;fill-opacity:1;fill-rule:nonzero;stroke:#370188;stroke-width:3.175;stroke-dasharray:none;stroke-opacity:1"
       d="m 110.49913,277.14489 26.58288,0.41306 3.29813,-15.55068 3.43055,15.49144 27.34977,-0.10287 -5.70738,-57.54784 -53.14426,0.29356 z"
       id="path55"
       sodipodi:nodetypes="cccccccc" />
    <path
       style="fill:#ee02ca;fill-opacity:1;fill-rule:nonzero;stroke:#370188;stroke-width:3.175;stroke-dasharray:none;stroke-opacity:1"
       d="m 154.71526,172.75802 16.8729,71.52352 -63.39859,-0.3447 9.64289,-70.83412 15.05207,4.21067 7.76329,0.22502 z"
       id="path56"
       sodipodi:nodetypes="ccccccc" />
    <path
       style="fill:#ee02ca;fill-opacity:1;fill-rule:nonzero;stroke:#370188;stroke-width:3.175;stroke-dasharray:none;stroke-opacity:1"
       d="m 118.44774,179.06523 -17.53946,6.13268 3.43427,17.48755 13.61456,-3.06635"
       id="path57"
       sodipodi:nodetypes="cccc" />
    <path
       style="fill:#ee02ca;fill-opacity:1;fill-rule:nonzero;stroke:#370188;stroke-width:3.175;stroke-dasharray:none;stroke-opacity:1"
       d="m 155.06181,178.8821 17.53946,6.13268 -3.43427,17.48754 -13.61456,-3.06634"
       id="path57-4"
       sodipodi:nodetypes="cccc" />
    <path
       style="fill:#ee02ca;fill-opacity:1;fill-rule:nonzero;stroke:#370188;stroke-width:3.175;stroke-dasharray:none;stroke-opacity:1"
       d="m 117.79195,173.12693 -3.91468,6.00248 c 16.73338,6.11428 28.60553,5.66285 44.05984,-0.0971 l -3.06725,-6.31861 c -13.42763,4.39851 -25.70765,4.4445 -37.07791,0.41324 z"
       id="path58"
       sodipodi:nodetypes="ccccc" />
    <path
       style="fill:#b98bfe;fill-opacity:1;fill-rule:nonzero;stroke:#370188;stroke-width:3.175;stroke-dasharray:none;stroke-opacity:1"
       d="m 154.39332,130.58594 c 0,0 1.31327,-13.11396 -0.93622,-14.04121 -2.24948,-0.92726 -10.69803,10.16316 -10.69803,10.16316"
       id="path66-0"
       sodipodi:nodetypes="czc" />
    <path
       style="fill:#b98bfe;fill-opacity:1;fill-rule:nonzero;stroke:#370188;stroke-width:3.175;stroke-dasharray:none;stroke-opacity:1"
       d="m 117.1092,130.71231 c 0,0 -1.31328,-13.11396 0.93621,-14.04122 2.24949,-0.92725 10.69803,10.16317 10.69803,10.16317"
       id="path66-0-3"
       sodipodi:nodetypes="czc" />
    <path
       style="fill:#fdc458;fill-opacity:1;stroke:#370188;stroke-width:3.175;stroke-dasharray:none;stroke-opacity:1"
       d="m 208.38335,232.45586 c -5.55973,0.96051 -8.23371,4.3201 -9.96277,6.15952 -2.63135,2.79929 -4.99161,2.40659 -4.65757,-0.72919 0.59754,-5.60936 10.19091,-11.53088 14.20248,-11.90652"
       id="path30"
       sodipodi:nodetypes="cssc" />
    <path
       style="fill:#fdc458;fill-opacity:1;stroke:#370188;stroke-width:3.175;stroke-dasharray:none;stroke-opacity:1"
       d="m 224.55052,197.44576 c -12.13057,0.26606 -15.89228,11.18217 -16.1499,18.02856 -0.35985,9.56318 -1.39128,41.01085 1.92155,52.84227 3.31279,11.83143 5.20579,15.61748 24.13606,16.09074 18.9303,0.47326 66.25599,-0.47326 66.25599,-0.47326 0,0 -50.40306,-5.73793 -56.08215,-15.67633 -5.67909,-9.9384 -6.6762,-42.05426 -6.38778,-52.47267 0.20733,-7.48504 -2.33563,-17.86606 -13.69377,-18.33931 z"
       id="path26"
       sodipodi:nodetypes="cssscssc"
       clip-path="url(#clipPath34)" />
    <path
       style="fill:#bb7a02;fill-opacity:1;stroke:#370188;stroke-width:3.175;stroke-dasharray:none;stroke-opacity:1"
       d="m 224.14154,273.03083 31.97746,5.88806 23.05606,0.40001 2.88029,0.48329 -0.19734,-42.64995 -59.85369,-3.74715 z"
       id="path31"
       sodipodi:nodetypes="ccccccc"
       clip-path="url(#clipPath35)"
       transform="translate(2.0124602,0.9532706)" />
    <circle
       style="fill:#fdc458;fill-opacity:1;stroke:#370188;stroke-width:3.175;stroke-dasharray:none;stroke-opacity:1"
       id="path28"
       cx="204.98477"
       cy="178.89391"
       r="2.4649308" />
    <path
       style="fill:#ffffff;fill-opacity:1;stroke:#370188;stroke-width:3.175;stroke-dasharray:none;stroke-opacity:1"
       d="m 214.35149,200.28951 -7.88775,-18.53627"
       id="path29" />
    <circle
       style="fill:#fdc458;fill-opacity:1;stroke:#370188;stroke-width:3.175;stroke-dasharray:none;stroke-opacity:1"
       id="path28-0"
       cx="-242.14134"
       cy="178.57367"
       r="2.4649308"
       transform="scale(-1,1)"
       clip-path="url(#clipPath33)" />
    <path
       style="fill:#ffffff;fill-opacity:1;stroke:#370188;stroke-width:3.175;stroke-dasharray:none;stroke-opacity:1"
       d="m 232.77462,199.96927 7.88775,-18.53628"
       id="path29-6" />
    <path
       style="mix-blend-mode:normal;fill:#02ee25;fill-opacity:1;fill-rule:nonzero;stroke:#370188;stroke-width:3.175;stroke-dasharray:none;stroke-opacity:1"
       d="m 205.74049,226.36918 1.62537,6.72842 -0.67367,5.19754 c 0,4.76463 -0.0632,31.61076 -8.46842,42.20189 15.8381,0.55553 79.83356,-0.1552 88.3358,-0.18222 -37.7825,1.13922 -58.0682,-12.11164 -59.33911,-26.02342 0.36421,-2.27978 4.38098,-11.00972 9.95297,-18.21531 0.35485,-0.45889 -0.23241,-2.66962 -0.23241,-2.66962 l 2.67862,-6.24797 -2.90824,-3.1085 -4.96751,6.207 -19.50783,-0.1624 -3.45028,-6.30801 z"
       id="path33"
       sodipodi:nodetypes="cccccccccccccc"
       clip-path="url(#clipPath32)" />
    <text
       xml:space="preserve"
       style="font-style:normal;font-variant:normal;font-weight:normal;font-stretch:normal;font-size:19.05px;font-family:'Nanum Pen';-inkscape-font-specification:'Nanum Pen';text-align:center;letter-spacing:0px;word-spacing:0px;writing-mode:lr-tb;direction:ltr;text-anchor:middle;white-space:pre;inline-size:146.294;display:inline;fill:#370188;fill-opacity:1;stroke:none;stroke-width:1.5875;stroke-linecap:round;stroke-dasharray:none;stroke-opacity:1"
       x="23.771687"
       y="156.49693"
       id="text17"
       transform="translate(121.30835,170.98105)"><tspan
         x="23.771687"
         y="156.49693"
         id="tspan1">Ah ha!</tspan></text>
    <path
       style="fill:none;fill-opacity:1;stroke:#370188;stroke-width:1.5875;stroke-linecap:round;stroke-dasharray:none;stroke-opacity:1"
       d="M 127.89865,305.30151 C 118.89063,293.6455 57.182198,304.53294 56.894478,293.02419"
       id="path13-1"
       sodipodi:nodetypes="cc" />
    <path
       style="fill:none;fill-opacity:1;stroke:#370188;stroke-width:1.5875;stroke-linecap:round;stroke-dasharray:none;stroke-opacity:1"
       d="m 143.2339,306.41245 c -1.99047,-9.74214 -0.54096,-4.27735 -0.82869,-15.7861"
       id="path13-1-4"
       sodipodi:nodetypes="cc" />
    <path
       style="fill:none;fill-opacity:1;stroke:#370188;stroke-width:1.5875;stroke-linecap:round;stroke-dasharray:none;stroke-opacity:1"
       d="m 158.12455,305.33932 c 0.71455,-9.10418 77.08405,-2.04448 77.37177,-13.55324"
       id="path13-1-1"
       sodipodi:nodetypes="cc" />
    <rect
       style="fill:none;stroke:#ee021a;stroke-width:4.23333;stroke-linecap:round;stroke-dasharray:none;stroke-opacity:1"
       id="rect1"
       width="23.723557"
       height="23.723557"
       x="27.134657"
       y="31.219421" />
    <circle
       style="fill:none;stroke:#8fee02;stroke-width:4.23333;stroke-linecap:round;stroke-dasharray:none;stroke-opacity:1"
       id="path2"
       cx="40.616913"
       cy="86.579803"
       r="13.019512" />
    <path
       sodipodi:type="star"
       style="fill:none;stroke:#02adee;stroke-width:4.23333;stroke-linecap:round;stroke-dasharray:none;stroke-opacity:1"
       id="path3"
       inkscape:flatsided="true"
       sodipodi:sides="3"
       sodipodi:cx="230.63136"
       sodipodi:cy="88.346695"
       sodipodi:r1="15.809408"
       sodipodi:r2="7.9047041"
       sodipodi:arg1="0.52359878"
       sodipodi:arg2="1.5707963"
       inkscape:rounded="0"
       inkscape:randomized="0"
       d="m 244.32271,96.251399 -27.3827,0 13.69135,-23.714112 z"
       inkscape:transform-center-y="-3.9523522"
       transform="translate(-185.9403,40.575614)" />
    <path
       sodipodi:type="spiral"
       style="fill:#bb7a02;fill-opacity:1;fill-rule:evenodd;stroke:#370188;stroke-width:0.695287;stroke-dasharray:none;stroke-opacity:1"
       id="path27"
       sodipodi:cx="105.75211"
       sodipodi:cy="39.133308"
       sodipodi:expansion="1.9"
       sodipodi:revolution="1.9334221"
       sodipodi:radius="11.889563"
       sodipodi:argument="-18.497511"
       sodipodi:t0="0.12348633"
       d="m 105.69006,39.348002 c -0.32401,0.231852 -0.69518,-0.169723 -0.77546,-0.456763 -0.23505,-0.840481 0.61834,-1.513255 1.36818,-1.593915 1.54382,-0.16607 2.64192,1.346958 2.66372,2.759274 0.0376,2.433739 -2.34375,4.074075 -4.6113,3.978925 -3.50844,-0.14722 -5.803349,-3.60077 -5.534683,-6.911467 0.386721,-4.765458 5.112133,-7.824431 9.650103,-7.327023 4.56164,0.500002 8.17504,4.151459 9.16495,8.548855"
       transform="matrix(-4.5664566,0,0,4.5664566,764.29483,78.999065)"
       clip-path="url(#clipPath46)" />
    <path
       style="fill:#b98bfe;fill-opacity:1;fill-rule:nonzero;stroke:#370188;stroke-width:3.175;stroke-dasharray:none;stroke-opacity:1"
       d="m 141.95497,248.62029 c 20.54958,0.51374 16.68139,-21.16571 25.43013,-23.63206 8.50281,-2.39704 12.07291,4.10992 14.8985,8.21984 2.82556,4.10993 -1.54124,8.99046 -5.13744,2.05497 -4.6008,-8.87297 -9.36269,-6.73526 -12.58662,3.08244 -2.40154,7.31334 -7.44922,14.89849 -21.83397,15.15534 -3.05296,-0.461 -3.79534,-3.88663 -0.7706,-4.88053 z"
       id="path68"
       sodipodi:nodetypes="csssscc" />
    <path
       style="fill:#0e0023;fill-opacity:1;stroke:#ffffff;stroke-width:1.5875;stroke-linecap:round;stroke-dasharray:none;stroke-opacity:1"
       d="m 63.702001,90.054294 c 6.639948,8.507433 23.447316,25.937296 37.972199,13.487396"
       id="path38"
       sodipodi:nodetypes="cc" />
    <path
       style="fill:none;fill-opacity:1;stroke:#ffffff;stroke-width:1.5875;stroke-linecap:round;stroke-dasharray:none;stroke-opacity:1"
       d="m 92.317592,102.23393 9.540638,1.26463 -0.32213,7.43033"
       id="path39"
       sodipodi:nodetypes="cc" />
    <path
       style="fill:#0e0023;fill-opacity:1;stroke:#ffffff;stroke-width:3.175;stroke-linecap:round;stroke-dasharray:none;stroke-opacity:1"
       d="m 97.870489,91.167031 11.731061,1e-6 c 10.38509,9.699978 16.80693,5.931885 22.79175,0.670346 l 11.06071,-0.335174 -7.70898,-9.38484 0.33518,-19.44003 h -8.37933 l -6.70345,-11.73105 -5.69795,11.395878 -8.71449,10e-7 -0.33517,18.43451 z"
       id="path40"
       sodipodi:nodetypes="cccccccccccc" />
    <path
       style="fill:#0e0023;fill-opacity:1;stroke:#ffffff;stroke-width:3.175;stroke-linecap:round;stroke-dasharray:none;stroke-opacity:1"
       d="m 189.3727,69.380794 7.70898,7.708973 7.3738,-7.708974 h 10.05519 V 58.990431 l 6.70346,-6.368285 -7.37381,-8.379322 V 34.187636 l -9.72001,-0.335172 -6.03311,-9.384842 -8.37933,8.714497 -10.39036,-0.335175 v 11.060708 l -7.3738,7.038629 7.03863,6.703458 -0.33517,11.395881 z"
       id="path41"
       sodipodi:nodetypes="ccccccccccccccccc" />
    <path
       style="fill:#0e0023;fill-opacity:1;stroke:#ffffff;stroke-width:1.5875;stroke-linecap:round;stroke-dasharray:none;stroke-opacity:1"
       d="m 143.8967,81.164549 23.35458,-7.76168"
       id="path42"
       sodipodi:nodetypes="cc" />
    <path
       style="fill:none;fill-opacity:1;stroke:#ffffff;stroke-width:1.5875;stroke-linecap:round;stroke-dasharray:none;stroke-opacity:1"
       d="m 162.22369,82.117363 6.30755,-8.659608 -9.60517,-3.481441"
       id="path43"
       sodipodi:nodetypes="cc" />
    <path
       style="fill:none;fill-opacity:1;stroke:#ffffff;stroke-width:3.17499994;stroke-linecap:round;stroke-dasharray:none;stroke-opacity:1"
       d="m 234.99124,135.56033 -7.07641,3.75935 2.43252,-7.29755 -10.17234,-1.32683 5.97071,-6.85527 -7.29754,-2.8748 8.84551,-3.98048 -5.08617,-6.63413 9.50893,-0.88456 1.10569,-8.1821 7.07641,7.73983 6.19186,-7.29755 1.32683,11.27803 10.61462,-0.44228 -6.63414,5.30732 8.1821,4.42275 -9.28779,3.75935 7.07641,6.41299 -9.73006,-1.7691 1.7691,9.28779 -7.29755,-6.63413 -2.87479,8.62437 z"
       id="path44"
       sodipodi:nodetypes="ccccccccccccccccccccccc" />
    <path
       style="fill:none;fill-opacity:1;stroke:#ffffff;stroke-width:1.5875;stroke-linecap:round;stroke-dasharray:none;stroke-opacity:1"
       d="m 214.04648,98.608998 10.03804,4.133312 1.18094,-11.514222"
       id="path45"
       sodipodi:nodetypes="ccc" />
    <path
       style="fill:none;fill-opacity:1;stroke:#ffffff;stroke-width:1.5875;stroke-linecap:round;stroke-dasharray:none;stroke-opacity:1"
       d="m 210.50364,77.351971 12.69518,24.209389"
       id="path46"
       sodipodi:nodetypes="cc" />
    <rect
       style="fill:none;fill-opacity:1;fill-rule:nonzero;stroke:#370188;stroke-width:3.175;stroke-dasharray:none;stroke-opacity:1"
       id="rect113-4-2"
       width="282.57498"
       height="354.01248"
       x="1.5875"
       y="1.5875" />
  </g>
</svg>
