<?xml version="1.0" encoding="UTF-8" standalone="no"?>
<!-- Created with Inkscape (http://www.inkscape.org/) -->

<svg
   width="1080"
   height="1350"
   viewBox="0 0 285.74999 357.1875"
   version="1.1"
   id="svg1"
   inkscape:version="1.4 (e7c3feb1, 2024-10-09)"
   sodipodi:docname="panel-03.svg"
   inkscape:export-filename="/Users/eggdice/Projects/productkind/kim-and-tim/assets/dist/week-012/day-2/panel-00.png"
   inkscape:export-xdpi="96"
   inkscape:export-ydpi="96"
   xmlns:inkscape="http://www.inkscape.org/namespaces/inkscape"
   xmlns:sodipodi="http://sodipodi.sourceforge.net/DTD/sodipodi-0.dtd"
   xmlns="http://www.w3.org/2000/svg"
   xmlns:svg="http://www.w3.org/2000/svg">
  <sodipodi:namedview
     id="namedview1"
     pagecolor="#ffffff"
     bordercolor="#000000"
     borderopacity="0.25"
     inkscape:showpageshadow="2"
     inkscape:pageopacity="0.0"
     inkscape:pagecheckerboard="0"
     inkscape:deskcolor="#d1d1d1"
     inkscape:document-units="px"
     inkscape:zoom="0.61032046"
     inkscape:cx="324.41973"
     inkscape:cy="450.58296"
     inkscape:window-width="1728"
     inkscape:window-height="1057"
     inkscape:window-x="0"
     inkscape:window-y="32"
     inkscape:window-maximized="0"
     inkscape:current-layer="layer1"
     inkscape:export-bgcolor="#ffffffff" />
  <defs
     id="defs1">
    <rect
       x="337.60629"
       y="293.08679"
       width="868.13049"
       height="871.84045"
       id="rect26" />
    <rect
       x="358.01108"
       y="335.75131"
       width="877.4054"
       height="734.57196"
       id="rect25" />
    <rect
       x="418.44797"
       y="244.75258"
       width="748.0744"
       height="801.36731"
       id="rect16" />
    <clipPath
       clipPathUnits="userSpaceOnUse"
       id="clipPath3">
      <rect
         style="fill:#370188;stroke:#370188;stroke-width:3.175"
         id="rect4"
         width="387.91391"
         height="225.63065"
         x="-131.6772"
         y="-44.129654"
         ry="1.5951835" />
    </clipPath>
  </defs>
  <g
     inkscape:label="Layer 1"
     inkscape:groupmode="layer"
     id="layer1">
    <text
       xml:space="preserve"
       transform="scale(0.26458333)"
       id="text16"
       style="font-style:normal;font-variant:normal;font-weight:bold;font-stretch:normal;font-size:60px;font-family:'Josefin Slab';-inkscape-font-specification:'Josefin Slab Bold';text-align:start;letter-spacing:0px;word-spacing:0px;writing-mode:lr-tb;direction:ltr;white-space:pre;shape-inside:url(#rect16);display:inline;fill:#000000;fill-opacity:0;stroke:#370188;stroke-width:12;stroke-opacity:1" />
    <text
       xml:space="preserve"
       transform="scale(0.26458333)"
       id="text25"
       style="font-style:normal;font-variant:normal;font-weight:bold;font-stretch:normal;font-size:60px;font-family:'Josefin Slab';-inkscape-font-specification:'Josefin Slab Bold';text-align:start;letter-spacing:0px;word-spacing:0px;writing-mode:lr-tb;direction:ltr;white-space:pre;shape-inside:url(#rect25);display:inline;fill:#000000;fill-opacity:0;stroke:#370188;stroke-width:12;stroke-opacity:1" />
    <text
       xml:space="preserve"
       transform="scale(0.26458333)"
       id="text26"
       style="font-style:normal;font-variant:normal;font-weight:bold;font-stretch:normal;font-size:60px;font-family:'Josefin Slab';-inkscape-font-specification:'Josefin Slab Bold';text-align:start;letter-spacing:0px;word-spacing:0px;writing-mode:lr-tb;direction:ltr;white-space:pre;shape-inside:url(#rect26);display:inline;fill:#000000;fill-opacity:0;stroke:#370188;stroke-width:12;stroke-opacity:1" />
    <rect
       style="fill:none;fill-opacity:1;fill-rule:nonzero;stroke:#370188;stroke-width:3.175;stroke-dasharray:none;stroke-opacity:1"
       id="rect113-4-2"
       width="282.57498"
       height="354.01248"
       x="1.5875"
       y="1.5875" />
    <rect
       width="9.8019896"
       height="15.875"
       rx="0"
       ry="0"
       fill="#6002ee"
       stroke-width="0"
       id="rect1-3-4-39-4-2-0-5-6"
       x="247.60098"
       y="332.84583" />
    <text
       font-family="Montserrat"
       font-size="618.11px"
       font-weight="200"
       stroke-width="0"
       fill="#33333"
       id="text3-0-3-0-0-5-3-3-2"
       x="248.33717"
       y="345.42685"
       style="font-style:normal;font-variant:normal;font-weight:300;font-stretch:normal;font-size:13.0774px;font-family:Montserrat;-inkscape-font-specification:'Montserrat Light'"
       transform="scale(0.99938968,1.0006107)"><tspan
         y="345.42685"
         font-weight="200"
         stroke-width="0"
         id="tspan1-4-8-6-2-1-2-5-9"
         style="font-style:normal;font-variant:normal;font-weight:300;font-stretch:normal;font-size:13.0774px;font-family:Montserrat;-inkscape-font-specification:'Montserrat Light'"><tspan
           style="font-style:normal;font-variant:normal;font-weight:300;font-stretch:normal;font-size:13.0774px;font-family:Montserrat;-inkscape-font-specification:'Montserrat Light';fill:#ffffff;fill-opacity:1;stroke-width:0"
           id="tspan3-6-3-13-5-2-1-6-6">k</tspan></tspan></text>
    <text
       dx="0"
       dy="0"
       font-family="Montserrat"
       font-size="465.256px"
       font-weight="200"
       stroke-width="0"
       fill="#33333"
       id="text3-0-3-6-8-4-0-8-9"
       x="195.17656"
       y="345.42685"
       style="font-style:normal;font-variant:normal;font-weight:300;font-stretch:normal;font-size:13.0774px;font-family:Montserrat;-inkscape-font-specification:'Montserrat Light'"
       transform="scale(0.99938968,1.0006107)"><tspan
         y="345.42685"
         font-weight="200"
         stroke-width="0"
         id="tspan1-4-8-3-9-0-0-6-9"
         style="font-style:normal;font-variant:normal;font-weight:300;font-stretch:normal;font-size:13.0774px;font-family:Montserrat;-inkscape-font-specification:'Montserrat Light'">product</tspan></text>
    <text
       font-family="Montserrat"
       font-size="465.256px"
       font-weight="200"
       stroke-width="0"
       fill="#33333"
       id="text3-0-3-6-4-3-4-3-7-8"
       x="257.78415"
       y="345.42685"
       style="font-style:normal;font-variant:normal;font-weight:300;font-stretch:normal;font-size:13.0774px;font-family:Montserrat;-inkscape-font-specification:'Montserrat Light'"
       transform="scale(0.99938968,1.0006107)"><tspan
         y="345.42685"
         font-weight="200"
         stroke-width="0"
         id="tspan1-4-8-3-6-9-9-9-7-0"
         style="font-style:normal;font-variant:normal;font-weight:300;font-stretch:normal;font-size:13.0774px;font-family:Montserrat;-inkscape-font-specification:'Montserrat Light'">ind</tspan></text>
    <text
       xml:space="preserve"
       style="font-style:normal;font-variant:normal;font-weight:normal;font-stretch:normal;font-size:19.05px;font-family:'Nanum Pen';-inkscape-font-specification:'Nanum Pen';text-align:center;letter-spacing:0px;word-spacing:0px;writing-mode:lr-tb;direction:ltr;text-anchor:middle;white-space:pre;inline-size:186.686;display:inline;fill:#370188;fill-opacity:1;stroke:none;stroke-width:1.5875;stroke-linecap:round;stroke-dasharray:none;stroke-opacity:1"
       x="85.875427"
       y="156.49693"
       id="text17-6-5-0-9-6"
       transform="translate(51.116722,-121.05387)"><tspan
         x="85.875427"
         y="156.49693"
         id="tspan1">I have a 1462-day streak and<tspan
   y="156.49693"
   id="tspan2"> </tspan></tspan><tspan
         x="85.875427"
         y="180.30944"
         id="tspan3">I don't want to lose it!</tspan></text>
    <path
       style="fill:#018816;fill-opacity:1;stroke:#370188;stroke-width:3.175;stroke-dasharray:none;stroke-opacity:1"
       d="m 37.789954,254.01688 -2.448195,35.65858 51.518366,1.38376 -2.022438,-39.59698 z"
       id="path25-4" />
    <path
       style="fill:#ffffff;fill-opacity:1;stroke:#370188;stroke-width:3.175;stroke-dasharray:none;stroke-opacity:1"
       d="m 21.12879,262.46469 c 0,15.83268 7.109138,26.92819 17.072231,33.28661 2.370468,1.51282 4.902553,2.75752 7.538868,3.73402 23.316488,8.63654 54.787771,-3.70364 54.763451,-37.02063 l -15.067956,15.50715 -15.151203,-6.5761 -19.957429,9.34238 -10.755317,-11.69092 -8.490152,5.14359 z"
       id="path1-8"
       sodipodi:nodetypes="cssccccccc" />
    <path
       style="fill:#370189;fill-opacity:1;stroke:#370188;stroke-width:0;stroke-dasharray:none;stroke-opacity:1"
       d="m 45.056662,297.80063 -3.826906,-5.27259 5.07115,2.35369 1.326251,-3.92795 0.37681,4.14213 4.169956,-3.19913 -2.573445,4.76485 5.632417,0.54648 -3.692799,2.899 z"
       id="path3-2"
       sodipodi:nodetypes="cccccccccc" />
    <path
       style="fill:#370189;fill-opacity:1;stroke:#370188;stroke-width:0;stroke-dasharray:none;stroke-opacity:1"
       d="m 76.201195,298.33698 3.035095,-5.32825 -4.745483,2.65567 -0.40824,-3.99876 -1.235831,4.49196 -4.724623,-1.3668 3.409389,3.17528 -4.781783,1.08258 4.502476,2.28216 z"
       id="path3-1-5"
       sodipodi:nodetypes="cccccccccc" />
    <path
       style="fill:#ee4302;fill-opacity:1;stroke:#370188;stroke-width:3.175;stroke-dasharray:none;stroke-opacity:1"
       d="m 45.650989,299.1307 c -0.0908,0.82798 -0.11081,10.87927 -0.11081,10.87927 l -7.657865,4.01428 9.170429,-1.55093 0.742844,0.90942 0.700277,-0.93298 8.752439,1.41577 -6.925941,-3.71139 c 0,0 0.0702,-8.9828 0.0127,-9.10428 z"
       id="path7-8"
       sodipodi:nodetypes="cccccccccc" />
    <path
       style="fill:#ee4302;fill-opacity:1;stroke:#370188;stroke-width:3.175;stroke-dasharray:none;stroke-opacity:1"
       d="m 75.689358,298.3928 0.34005,12.60688 7.871095,2.69119 -9.979443,-1.45316 -0.742857,0.90941 -0.700304,-0.93297 -9.076159,1.20135 7.418218,-3.10318 c 0,0 0.166367,-9.20293 0.179697,-9.394 z"
       id="path7-4-0"
       sodipodi:nodetypes="cccccccccc" />
    <path
       style="fill:none;fill-opacity:1;stroke:#370188;stroke-width:3.175;stroke-dasharray:none;stroke-opacity:1"
       d="m 46.149136,274.81306 3.905709,-9.47852 22.305324,-0.053 3.054902,7.69033"
       id="path19-60"
       sodipodi:nodetypes="cccc" />
    <path
       style="fill:#fdc458;fill-opacity:1;stroke:#370188;stroke-width:3.175;stroke-dasharray:none;stroke-opacity:1"
       d="m 34.505212,244.07068 c 0,0 -38.4725527,27.21073 6.956161,15.58833 z"
       id="path17-0"
       sodipodi:nodetypes="ccc" />
    <path
       style="fill:#fdc458;fill-opacity:1;stroke:#370188;stroke-width:3.175;stroke-dasharray:none;stroke-opacity:1"
       d="m 90.757414,245.10957 c 0,0 34.302236,21.19084 -7.534738,15.42339 z"
       id="path16-7"
       sodipodi:nodetypes="ccc" />
    <path
       style="fill:#fdc458;fill-opacity:1;stroke:#370188;stroke-width:3.175;stroke-dasharray:none;stroke-opacity:1"
       d="M 77.135602,230.30925 C 94.561453,191.36733 27.505041,191.96411 44.544285,230.9525 l 15.592653,7.69652 z"
       id="path23-5"
       sodipodi:nodetypes="cccc" />
    <path
       style="fill:#018816;fill-opacity:1;stroke:#370188;stroke-width:3.175;stroke-dasharray:none;stroke-opacity:1"
       d="m 43.503931,259.77191 -9.800243,4.04721 -6.621454,-19.13719 13.522435,-5.46456 -0.30575,-10.09068 19.875449,9.57891 20.486983,-10.49624 v 8.56177 l 14.322089,7.7724 -6.590664,18.69104 -9.531226,-3.85836"
       id="path12-0"
       sodipodi:nodetypes="ccccccccccc" />
    <circle
       style="fill:#370188;fill-opacity:1;stroke:none;stroke-width:8.13508;stroke-dasharray:none;stroke-opacity:1"
       id="path9-8"
       cx="54.876442"
       cy="215.34628"
       r="1.7054044" />
    <circle
       style="fill:#370188;fill-opacity:1;stroke:none;stroke-width:8.13508;stroke-dasharray:none;stroke-opacity:1"
       id="path9-4"
       cx="67.373184"
       cy="215.4314"
       r="1.7054044" />
    <path
       style="fill:none;fill-opacity:1;stroke:#370188;stroke-width:3.175;stroke-dasharray:none;stroke-opacity:1"
       d="m 40.299549,239.01586 19.874819,4.4824 20.99619,-6.52113"
       id="path22-1"
       sodipodi:nodetypes="ccc" />
    <path
       style="fill:none;fill-opacity:1;stroke:#370188;stroke-width:3.175;stroke-dasharray:none;stroke-opacity:1"
       d="m 50.992829,238.06891 -3.373102,20.3066"
       id="path10-79"
       sodipodi:nodetypes="cc" />
    <path
       style="fill:none;fill-opacity:1;stroke:#370188;stroke-width:3.175;stroke-dasharray:none;stroke-opacity:1"
       d="m 68.43262,237.5625 2.501125,20.97738"
       id="path11-71"
       sodipodi:nodetypes="cc" />
    <path
       style="fill:none;fill-opacity:1;stroke:#370188;stroke-width:3.175;stroke-dasharray:none;stroke-opacity:1"
       d="m 59.829438,220.47395 5.982717,3.09452 -7.220518,3.30085"
       id="path24-70" />
    <path
       style="fill:none;fill-opacity:1;stroke:#370188;stroke-width:3.175;stroke-dasharray:none;stroke-opacity:1"
       d="m 60.943732,203.40557 c 5.40629,-4.70872 -5.05746,-5.05752 0.523207,-8.89426"
       id="path26-0"
       sodipodi:nodetypes="cc" />
    <path
       style="fill:#9a58fd;fill-opacity:1;stroke:#370188;stroke-width:3.17491;stroke-dasharray:none;stroke-opacity:1"
       d="m 239.93139,295.01769 13.6739,0.81947 -7.41639,-9.3926 11.93946,-4.22593 -7.11368,-5.71049 10.33091,-5.88734 -5.87013,-6.29758 10.9901,-3.61365 -7.26145,-7.229 12.0643,-3.92986 -6.13899,-6.00653 8.47983,-6.64251 -8.21119,-5.86013 8.89149,-5.95719 -7.65006,-5.56565 9.06256,-5.61628 -5.74904,-5.41957 7.06361,-5.73932 -9.31205,-5.85689 7.45541,-6.30114 -6.42779,-5.61594 4.28298,-10.49855 -8.32863,-1.85925 1.35795,-9.95803 -10.4286,-0.49229 0.97282,-11.81062 -8.96779,0.14129 -1.41605,-13.08445 -10.77227,4.97566 -2.09664,-10.34716 -9.35955,6.63534 -5.11804,-9.32111 -7.5069,8.73573 -9.65172,-8.73573 -4.46986,10.55078 -12.73584,-6.64575 -0.63599,10.87628 -14.72971,-2.75622 0.58426,10.08377 -10.71241,1.86299 4.58549,9.79129 -11.41597,3.73412 7.29237,9.35586 -9.02201,5.73421 5.07733,6.12731 -8.17118,7.69791 5.32638,6.7358 -6.71935,8.82862 6.01447,5.09127 -4.25536,10.54885 7.49303,2.34813 -7.27084,8.05155 8.19239,5.07098 -7.56495,10.38895 8.80329,4.34978 -8.01386,10.53675 7.49891,3.41896 -4.45351,10.07317 12.41787,0.74533 -1.30867,12.13688 8.8986,-4.58283 2.48488,10.65889 10.71106,-5.32016 3.03095,7.08409 7.72233,-10.27252 5.58781,13.46356 7.4843,-8.08498 7.8579,7.81536 9.03989,-5.9998 9.43362,4.71138 z"
       id="path1"
       sodipodi:nodetypes="ccccccccccccccccccccccccccccccccccccccccccccccccccccccccccccccccccccccc" />
    <path
       style="fill:#ffffff;fill-opacity:1;stroke:#370188;stroke-width:3.17491;stroke-dasharray:none;stroke-opacity:1"
       d="m 239.10878,260.28872 c 0,0 0.81273,-1.93827 2.57327,-8.08161 1.76054,-6.14341 6.52517,-31.99543 6.52517,-31.99543 0.66487,-5.84124 -0.33992,-20.1508 -0.82808,-27.67444 -0.42538,-6.55536 -6.87806,-18.30423 -11.82062,-25.04475 -4.29952,-5.86362 -13.1311,-9.31494 -20.14124,-11.15193 -9.99093,-2.61808 -25.72531,-3.1809 -34.905,4.77227 -6.06755,5.25682 -13.62218,14.07135 -15.6324,19.82953 -1.98574,5.68798 -5.74195,28.16803 -6.3112,35.79317 0,0 2.83337,26.1654 3.24139,31.14167 0.40802,4.97627 0.92278,7.83758 0.92278,7.83758"
       id="path24-7"
       sodipodi:nodetypes="czssssscczc" />
    <circle
       style="fill:#370189;fill-opacity:1;stroke:#370188;stroke-width:0;stroke-dasharray:none;stroke-opacity:1"
       id="path2-9"
       cx="-194.33849"
       cy="179.00455"
       r="2.1807547"
       transform="scale(-1,1)" />
    <circle
       style="fill:#370189;fill-opacity:1;stroke:#370188;stroke-width:0;stroke-dasharray:none;stroke-opacity:1"
       id="path2-9-9"
       cx="-211.58673"
       cy="180.50095"
       r="2.1807547"
       transform="scale(-1,1)" />
    <path
       style="fill:#ffffff;fill-opacity:1;stroke:#370188;stroke-width:3.17491;stroke-dasharray:none;stroke-opacity:1"
       d="m 191.67333,184.78351 c -8.33994,6.6921 -11.57532,15.27876 -10.74004,17.59051 0.81032,2.24263 18.12807,4.30292 29.81067,3.02921 3.73907,-0.40767 7.17264,-3.47549 8.5585,-6.09426"
       id="path7"
       sodipodi:nodetypes="cssc" />
    <path
       style="fill:#370188;fill-opacity:1;stroke:#370188;stroke-width:4.57165;stroke-dasharray:none;stroke-opacity:1"
       d="m 187.24379,195.16557 c 1.33956,0.45056 3.83473,4.38251 3.62772,6.62403 -0.20669,2.24155 -4.42642,-0.27686 -4.42642,-0.27686 l -2.88459,-0.81912 1.06766,-3.33667 c 0,0 1.27619,-2.64185 2.61563,-2.19126 z"
       id="path8"
       sodipodi:nodetypes="zzcccz"
       inkscape:transform-center-x="8.219405"
       inkscape:transform-center-y="1.5199982" />
    <path
       style="fill:#ffffff;fill-opacity:1;stroke:#370188;stroke-width:3.175;stroke-dasharray:none;stroke-opacity:1"
       d="m 169.03364,282.92139 c 0,0 -4.1756,16.64865 -3.17462,24.40375 1.34176,10.39526 12.50925,12.62414 17.29708,3.43503 3.49009,-6.69839 10.15429,-23.36302 10.15429,-23.36302"
       id="path11-9"
       sodipodi:nodetypes="cssc" />
    <path
       style="fill:#ffffff;fill-opacity:1;stroke:#370188;stroke-width:3.175;stroke-dasharray:none;stroke-opacity:1"
       d="m 201.14864,288.43909 c 0,0 2.67087,13.1921 5.65143,21.17805 3.26359,8.74423 13.90479,9.37609 18.18974,0.89954 5.61575,-11.10914 5.32279,-25.93369 5.32279,-25.93369"
       id="path12"
       sodipodi:nodetypes="cssc" />
    <path
       style="fill:#ffffff;fill-opacity:1;stroke:#370188;stroke-width:3.17491;stroke-dasharray:none;stroke-opacity:1"
       d="m 262.39559,230.29973 c 15.49248,19.39332 -1.43119,18.01568 -10.08742,12.45626"
       id="path10-71"
       sodipodi:nodetypes="cc" />
    <path
       style="fill:#ffffff;fill-opacity:1;stroke:#370188;stroke-width:3.17491;stroke-dasharray:none;stroke-opacity:1"
       d="m 141.62047,227.92074 c -13.67485,14.14177 -0.71485,16.8247 8.65864,12.18952"
       id="path9-6"
       sodipodi:nodetypes="cc" />
    <path
       style="fill:#ffffff;fill-opacity:1;stroke:#370189;stroke-width:3.17491;stroke-dasharray:none;stroke-opacity:1"
       d="m 237.31712,235.79433 12.57253,9.76087 15.46606,-18.77295 c -6.20443,-9.62727 -12.00515,-15.59075 -17.68339,-25.50363 0,0 -21.63695,16.33677 -38.16807,15.44319 -7.15838,-0.3869 -17.37741,-0.9939 -22.17556,-1.91887 -12.59173,-2.42735 -25.08945,-16.65903 -25.08945,-16.65903 l -7.88305,9.33678 -13.98715,16.12919 12.30459,18.06347 12.85465,-10.10206"
       id="path13-4"
       sodipodi:nodetypes="ccccssccccc" />
    <path
       style="fill:#ffdb00;fill-opacity:1;stroke:#370188;stroke-width:3.17491;stroke-dasharray:none;stroke-opacity:1"
       d="M 258.73761,217.44441 148.47132,215.565 m 114.88176,10.36673 -122.14057,-1.76556 m 117.84514,9.81936 -112.73405,-2.0649 m 106.34271,9.22059 -90.64796,-0.79499 m 79.18647,9.24131 -78.85602,-1.14611"
       id="path30-0"
       sodipodi:nodetypes="cccccccccc" />
    <path
       style="fill:#ee9b02;fill-opacity:1;stroke:#370188;stroke-width:3.17491;stroke-dasharray:none;stroke-opacity:1"
       d="m 220.93524,224.55387 -40.15858,-2.64655 -7.20036,27.6919 -12.38996,6.77466 -2.08159,54.26926 32.06321,-0.3643 4.58702,-21.1021 3.44278,21.39798 36.59352,-0.0254 4.86725,-49.73482 -14.33373,-7.76929 z"
       id="path16"
       sodipodi:nodetypes="cccccccccccc" />
    <path
       style="fill:none;stroke:#370188;stroke-width:3.17491;stroke-dasharray:none;stroke-opacity:1"
       d="m 214.39147,244.59206 -30.16139,-1.5106 c 0,0 -2.97939,6.18652 -1.80166,11.82313 1.17768,5.63657 3.49771,7.96099 7.58222,10.14361 4.08458,2.18262 12.04735,2.26622 16.58064,0.33138 4.53327,-1.93485 6.3816,-5.08165 7.80447,-8.91321 1.42288,-3.83159 0.65158,-7.7443 0.65158,-7.7443 z"
       id="path17"
       sodipodi:nodetypes="cczzzzcc" />
    <path
       style="fill:none;stroke:#370189;stroke-width:3.17491;stroke-dasharray:none;stroke-opacity:1"
       d="m 197.10823,290.42763 -5.67798,0.15938 2.22999,-13.71326"
       id="path19-6"
       sodipodi:nodetypes="ccc" />
    <path
       style="fill:#ffffff;fill-opacity:1;stroke:#370188;stroke-width:3.17491;stroke-dasharray:none;stroke-opacity:1"
       d="m 186.77751,164.08775 c -9.14886,-12.82738 -19.88325,-0.2105 -9.56837,8.55748"
       id="path25-21"
       sodipodi:nodetypes="cc" />
    <path
       style="fill:#ffffff;fill-opacity:1;stroke:#370188;stroke-width:3.17491;stroke-dasharray:none;stroke-opacity:1"
       d="m 232.27986,176.45983 c 11.53211,-6.3834 -0.9051,-22.90429 -9.41422,-8.09965"
       id="path25-0"
       sodipodi:nodetypes="cc" />
    <path
       style="fill:none;fill-opacity:1;stroke:#370188;stroke-width:3.17491;stroke-dasharray:none;stroke-opacity:1"
       d="m 232.31056,269.35931 c -4.5244,-0.34804 -9.39692,-2.08819 -9.74499,-10.093"
       id="path26-9" />
    <path
       style="fill:none;fill-opacity:1;stroke:#370188;stroke-width:3.17491;stroke-dasharray:none;stroke-opacity:1"
       d="m 176.27683,257.52612 c -3.13233,5.56857 -3.82841,6.26466 -8.7009,8.00481"
       id="path27-1" />
    <path
       style="fill:#ee9b02;fill-opacity:1;stroke:#370188;stroke-width:3.17491;stroke-dasharray:none;stroke-opacity:1"
       d="m 254.08062,213.64619 -38.91636,27.08047 -8.55675,-12.71343 39.67115,-25.74808"
       id="path28-4"
       sodipodi:nodetypes="cccc" />
    <ellipse
       style="fill:#370188;fill-opacity:1;stroke:#370188;stroke-width:0;stroke-dasharray:none;stroke-opacity:1"
       id="path2-5-0-6"
       cx="-217.17076"
       cy="230.16707"
       rx="4.465312"
       ry="4.4731731"
       transform="scale(-1,1)" />
    <path
       style="fill:#ee9b02;fill-opacity:1;stroke:#370188;stroke-width:3.17491;stroke-dasharray:none;stroke-opacity:1"
       d="m 162.84223,198.88927 33.46691,29.47908 -10.39358,11.02989 -33.6436,-27.2897"
       id="path29-0"
       sodipodi:nodetypes="cccc" />
    <ellipse
       style="fill:#370188;fill-opacity:1;stroke:#370188;stroke-width:0;stroke-dasharray:none;stroke-opacity:1"
       id="path2-5-0"
       cx="-184.99855"
       cy="229.08434"
       rx="4.465312"
       ry="4.4731731"
       transform="scale(-1,1)" />
    <path
       style="fill:none;fill-opacity:1;stroke:#370188;stroke-width:1.5875;stroke-linecap:round;stroke-dasharray:none;stroke-opacity:1"
       d="M 199.12075,121.39361 C 199.41956,102.93335 136.13304,84.255154 132.53986,65.924118"
       id="path13-1-9-2-1-7-8-0-7"
       sodipodi:nodetypes="cc" />
    <rect
       style="fill:#ffffff;fill-opacity:1;stroke:#370188;stroke-width:3.175;stroke-opacity:1"
       id="rect1"
       width="19.363586"
       height="32.150875"
       x="-19.28227"
       y="245.98636"
       ry="4.7495594"
       rx="5.1149106"
       transform="rotate(-31.713683)" />
  </g>
</svg>
