<?xml version="1.0" encoding="UTF-8" standalone="no"?>
<!-- Created with Inkscape (http://www.inkscape.org/) -->

<svg
   width="1080"
   height="1350"
   viewBox="0 0 285.74999 357.1875"
   version="1.1"
   id="svg1"
   inkscape:version="1.4 (e7c3feb1, 2024-10-09)"
   sodipodi:docname="panel-00.svg"
   inkscape:export-filename="/Users/eggdice/Projects/productkind/kim-and-tim/assets/dist/week-012/day-2/panel-00.png"
   inkscape:export-xdpi="96"
   inkscape:export-ydpi="96"
   xmlns:inkscape="http://www.inkscape.org/namespaces/inkscape"
   xmlns:sodipodi="http://sodipodi.sourceforge.net/DTD/sodipodi-0.dtd"
   xmlns="http://www.w3.org/2000/svg"
   xmlns:svg="http://www.w3.org/2000/svg">
  <sodipodi:namedview
     id="namedview1"
     pagecolor="#ffffff"
     bordercolor="#000000"
     borderopacity="0.25"
     inkscape:showpageshadow="2"
     inkscape:pageopacity="0.0"
     inkscape:pagecheckerboard="0"
     inkscape:deskcolor="#d1d1d1"
     inkscape:document-units="px"
     inkscape:zoom="0.44400584"
     inkscape:cx="443.68786"
     inkscape:cy="693.68457"
     inkscape:window-width="1728"
     inkscape:window-height="1057"
     inkscape:window-x="0"
     inkscape:window-y="32"
     inkscape:window-maximized="0"
     inkscape:current-layer="layer1"
     inkscape:export-bgcolor="#ffffffff" />
  <defs
     id="defs1">
    <rect
       x="337.60629"
       y="293.08679"
       width="868.13049"
       height="871.84045"
       id="rect26" />
    <rect
       x="358.01108"
       y="335.75131"
       width="877.4054"
       height="734.57196"
       id="rect25" />
    <rect
       x="418.44797"
       y="244.75258"
       width="748.0744"
       height="801.36731"
       id="rect16" />
    <clipPath
       clipPathUnits="userSpaceOnUse"
       id="clipPath3">
      <rect
         style="fill:#370188;stroke:#370188;stroke-width:3.175"
         id="rect4"
         width="387.91391"
         height="225.63065"
         x="-131.6772"
         y="-44.129654"
         ry="1.5951835" />
    </clipPath>
  </defs>
  <g
     inkscape:label="Layer 1"
     inkscape:groupmode="layer"
     id="layer1">
    <text
       xml:space="preserve"
       transform="scale(0.26458333)"
       id="text16"
       style="font-style:normal;font-variant:normal;font-weight:bold;font-stretch:normal;font-size:60px;font-family:'Josefin Slab';-inkscape-font-specification:'Josefin Slab Bold';text-align:start;letter-spacing:0px;word-spacing:0px;writing-mode:lr-tb;direction:ltr;white-space:pre;shape-inside:url(#rect16);display:inline;fill:#000000;fill-opacity:0;stroke:#370188;stroke-width:12;stroke-opacity:1" />
    <text
       xml:space="preserve"
       transform="scale(0.26458333)"
       id="text25"
       style="font-style:normal;font-variant:normal;font-weight:bold;font-stretch:normal;font-size:60px;font-family:'Josefin Slab';-inkscape-font-specification:'Josefin Slab Bold';text-align:start;letter-spacing:0px;word-spacing:0px;writing-mode:lr-tb;direction:ltr;white-space:pre;shape-inside:url(#rect25);display:inline;fill:#000000;fill-opacity:0;stroke:#370188;stroke-width:12;stroke-opacity:1" />
    <text
       xml:space="preserve"
       transform="scale(0.26458333)"
       id="text26"
       style="font-style:normal;font-variant:normal;font-weight:bold;font-stretch:normal;font-size:60px;font-family:'Josefin Slab';-inkscape-font-specification:'Josefin Slab Bold';text-align:start;letter-spacing:0px;word-spacing:0px;writing-mode:lr-tb;direction:ltr;white-space:pre;shape-inside:url(#rect26);display:inline;fill:#000000;fill-opacity:0;stroke:#370188;stroke-width:12;stroke-opacity:1" />
    <rect
       style="fill:none;fill-opacity:1;fill-rule:nonzero;stroke:#370188;stroke-width:3.175;stroke-dasharray:none;stroke-opacity:1"
       id="rect113-4-2"
       width="282.57498"
       height="354.01248"
       x="1.5875"
       y="1.5875" />
    <rect
       width="9.8019896"
       height="15.875"
       rx="0"
       ry="0"
       fill="#6002ee"
       stroke-width="0"
       id="rect1-3-4-39-4-2-0-5-6"
       x="247.60098"
       y="332.84583" />
    <text
       font-family="Montserrat"
       font-size="618.11px"
       font-weight="200"
       stroke-width="0"
       fill="#33333"
       id="text3-0-3-0-0-5-3-3-2"
       x="248.33717"
       y="345.42685"
       style="font-style:normal;font-variant:normal;font-weight:300;font-stretch:normal;font-size:13.0774px;font-family:Montserrat;-inkscape-font-specification:'Montserrat Light'"
       transform="scale(0.99938968,1.0006107)"><tspan
         y="345.42685"
         font-weight="200"
         stroke-width="0"
         id="tspan1-4-8-6-2-1-2-5-9"
         style="font-style:normal;font-variant:normal;font-weight:300;font-stretch:normal;font-size:13.0774px;font-family:Montserrat;-inkscape-font-specification:'Montserrat Light'"><tspan
           style="font-style:normal;font-variant:normal;font-weight:300;font-stretch:normal;font-size:13.0774px;font-family:Montserrat;-inkscape-font-specification:'Montserrat Light';fill:#ffffff;fill-opacity:1;stroke-width:0"
           id="tspan3-6-3-13-5-2-1-6-6">k</tspan></tspan></text>
    <text
       dx="0"
       dy="0"
       font-family="Montserrat"
       font-size="465.256px"
       font-weight="200"
       stroke-width="0"
       fill="#33333"
       id="text3-0-3-6-8-4-0-8-9"
       x="195.17656"
       y="345.42685"
       style="font-style:normal;font-variant:normal;font-weight:300;font-stretch:normal;font-size:13.0774px;font-family:Montserrat;-inkscape-font-specification:'Montserrat Light'"
       transform="scale(0.99938968,1.0006107)"><tspan
         y="345.42685"
         font-weight="200"
         stroke-width="0"
         id="tspan1-4-8-3-9-0-0-6-9"
         style="font-style:normal;font-variant:normal;font-weight:300;font-stretch:normal;font-size:13.0774px;font-family:Montserrat;-inkscape-font-specification:'Montserrat Light'">product</tspan></text>
    <text
       font-family="Montserrat"
       font-size="465.256px"
       font-weight="200"
       stroke-width="0"
       fill="#33333"
       id="text3-0-3-6-4-3-4-3-7-8"
       x="257.78415"
       y="345.42685"
       style="font-style:normal;font-variant:normal;font-weight:300;font-stretch:normal;font-size:13.0774px;font-family:Montserrat;-inkscape-font-specification:'Montserrat Light'"
       transform="scale(0.99938968,1.0006107)"><tspan
         y="345.42685"
         font-weight="200"
         stroke-width="0"
         id="tspan1-4-8-3-6-9-9-9-7-0"
         style="font-style:normal;font-variant:normal;font-weight:300;font-stretch:normal;font-size:13.0774px;font-family:Montserrat;-inkscape-font-specification:'Montserrat Light'">ind</tspan></text>
    <path
       style="fill:#ffffff;fill-opacity:1;stroke:#370188;stroke-width:3.19183;stroke-dasharray:none;stroke-opacity:1"
       d="m 54.739481,257.29803 c -0.81061,6.48494 -4.4755,21.05844 -12.0469,29.90888 -6.08412,7.11191 -14.4512,8.41537 -18.66433,10.71947 -9.70036,5.30501 -6.71715,13.93237 1.91675,11.73413 12.58329,-3.20373 31.59252,-6.91362 30.71532,-15.68564"
       id="path2-4"
       sodipodi:nodetypes="csssc" />
    <path
       style="fill:#ffffff;fill-opacity:1;stroke:#370188;stroke-width:3.19183;stroke-dasharray:none;stroke-opacity:1"
       d="m 101.8934,170.14724 c 2.95723,-3.63417 -0.71608,-6.63607 -3.772499,-2.49371"
       id="path15-0"
       sodipodi:nodetypes="cc" />
    <path
       style="fill:#ffffff;fill-opacity:1;stroke:#370188;stroke-width:3.19189;stroke-dasharray:none;stroke-opacity:1"
       d="m 81.227971,194.30521 c 9.19457,17.17942 44.037279,6.77497 30.245399,-11.85618 -13.791889,-18.63119 -19.115089,-20.32492 -30.003439,-19.84102 -10.88834,0.48393 -19.48964,10.23833 -20.56689,18.14728 -1.41884,10.41667 -3.3018,58.75754 -5.72147,73.03335 -1.98243,11.69654 0.78785,33.82842 2.06641,46.27623 0.28194,2.74498 0.49137,5.01904 0.56128,6.60641 0.44019,9.99341 13.31154,10.7442 14.03391,0.7259 0.53518,-7.42293 10.00817,-6.16398 10.30796,0 0.44777,9.20699 13.67812,9.05615 14.47282,-0.25908 0.92234,-10.81132 6.124359,-40.38765 5.111309,-51.82019 -0.96485,-10.88834 -6.715369,-52.54393 -6.715369,-52.54393 v 0"
       id="path1-2"
       sodipodi:nodetypes="csssssssssscc" />
    <path
       style="fill:none;fill-opacity:1;stroke:#370188;stroke-width:3.19065;stroke-dasharray:none;stroke-opacity:1"
       d="m 100.49729,176.94434 c -1.548059,-4.49288 -8.369189,-1.73155 -6.349079,1.44297"
       id="path32"
       sodipodi:nodetypes="cc" />
    <path
       style="fill:none;fill-opacity:1;stroke:#370188;stroke-width:3.19065;stroke-dasharray:none;stroke-opacity:1"
       d="m 88.958961,180.90572 c -1.54806,-4.49287 -8.36923,-1.73154 -6.34903,1.44298"
       id="path32-9"
       sodipodi:nodetypes="cc" />
    <path
       style="fill:#370188;fill-opacity:1;stroke:#370188;stroke-width:3.19183;stroke-dasharray:none;stroke-opacity:1"
       d="m 103.25078,187.8685 c -1.05572,-0.68478 -4.981449,0.46171 -5.478429,1.54083 -0.46495,1.00958 3.789139,3.14229 4.508279,2.73923 0.52644,-0.29496 2.0259,-3.59524 0.97015,-4.28006 z"
       id="path4"
       sodipodi:nodetypes="zssz" />
    <path
       style="fill:#02adee;fill-opacity:1;stroke:#370188;stroke-width:3.19183;stroke-dasharray:none;stroke-opacity:1"
       d="m 55.402721,281.49667 0.98752,27.48477 19.0089,-0.57604 1.97495,-5.92483 1.7281,6.00713 20.24325,0.57604 c 0,0 0.21051,-19.83718 0.658299,-28.80141 0.44777,-8.9642 3.08762,-13.2507 1.92551,-24.96931 -1.16211,-11.71861 -5.453129,-44.66904 -5.453129,-44.66904 l -5.24748,1.12446 -4.87264,10.12012 -4.12302,-10.30751 -23.05139,-1.4993 c 0,0 -1.72377,30.14151 -4.13118,44.41593 -2.4074,14.27442 0.35231,27.01899 0.35231,27.01899 z"
       id="path14"
       sodipodi:nodetypes="cccccczzccccczc" />
    <path
       style="fill:#ffffff;fill-opacity:1;stroke:#370188;stroke-width:3.19183;stroke-dasharray:none;stroke-opacity:1"
       d="m 81.532361,210.71208 4.13876,11.16076"
       id="path10-5"
       sodipodi:nodetypes="cc" />
    <path
       style="fill:#02adee;fill-opacity:1;stroke:#370188;stroke-width:3.19183;stroke-dasharray:none;stroke-opacity:1"
       d="m 77.814141,220.61024 3.05095,-8.88549 -21.91193,-1.6015 -2.62069,8.95404 z"
       id="path7-1"
       sodipodi:nodetypes="ccccc" />
    <path
       style="fill:#ffffff;fill-opacity:1;stroke:#370188;stroke-width:3.19183;stroke-dasharray:none;stroke-opacity:1"
       d="m 85.979451,222.1511 5.05251,-11.43905"
       id="path9-9"
       sodipodi:nodetypes="cc" />
    <path
       style="fill:#02adee;fill-opacity:1;stroke:#370188;stroke-width:3.19183;stroke-dasharray:none;stroke-opacity:1"
       d="m 96.589281,210.70561 -5.07987,0.78981 1.99838,9.00601 6.34114,-1.81143 z"
       id="path8-9"
       sodipodi:nodetypes="ccccc" />
    <path
       style="fill:#02adee;fill-opacity:1;stroke:#370188;stroke-width:3.19183;stroke-dasharray:none;stroke-opacity:1"
       d="m 85.883471,221.68596 c 0,0 1.31972,28.01906 1.42125,30.96311 0.1016,2.94405 -1.84543,32.86661 -1.84543,32.86661 l -5.19129,-0.39989"
       id="path11-7"
       sodipodi:nodetypes="csc" />
    <circle
       style="fill:#370188;fill-opacity:1;stroke:#370188;stroke-width:0.797947;stroke-opacity:1"
       id="path3-3-6"
       r="0.7555865"
       cy="230.23912"
       cx="-82.241066"
       inkscape:transform-center-x="-2.5473905"
       inkscape:transform-center-y="-3.3359917e-05"
       transform="scale(-1,1)" />
    <circle
       style="fill:#370188;fill-opacity:1;stroke:#370188;stroke-width:0.797947;stroke-opacity:1"
       id="path3-3-6-9"
       r="0.7555865"
       cy="240.29005"
       cx="-82.724464"
       inkscape:transform-center-x="-2.5473613"
       inkscape:transform-center-y="-8.8337132e-06"
       transform="scale(-1,1)" />
    <circle
       style="fill:#370188;fill-opacity:1;stroke:#370188;stroke-width:0.797947;stroke-opacity:1"
       id="path3-3-6-2"
       r="0.7555865"
       cy="249.6447"
       cx="-83.201759"
       inkscape:transform-center-x="-2.5473118"
       inkscape:transform-center-y="2.1149829e-06"
       transform="scale(-1,1)" />
    <circle
       style="fill:#370188;fill-opacity:1;stroke:#370188;stroke-width:0.797947;stroke-opacity:1"
       id="path3-3-6-1"
       r="0.7555865"
       cy="259.36136"
       cx="-83.038017"
       inkscape:transform-center-x="-2.5473761"
       inkscape:transform-center-y="3.4559455e-05"
       transform="scale(-1,1)" />
    <circle
       style="fill:#370188;fill-opacity:1;stroke:#370188;stroke-width:0.797947;stroke-opacity:1"
       id="path3-3-6-6"
       r="0.7555865"
       cy="269.4212"
       cx="-82.469551"
       inkscape:transform-center-x="-2.5473907"
       inkscape:transform-center-y="-7.9173349e-05"
       transform="scale(-1,1)" />
    <circle
       style="fill:#370188;fill-opacity:1;stroke:#370188;stroke-width:0.797947;stroke-opacity:1"
       id="path3-3-6-60"
       r="0.7555865"
       cy="279.14066"
       cx="-81.903099"
       inkscape:transform-center-x="-2.5474263"
       inkscape:transform-center-y="1.983531e-06"
       transform="scale(-1,1)" />
    <path
       style="fill:#ffffff;fill-opacity:1;stroke:#370188;stroke-width:3.19183;stroke-dasharray:none;stroke-opacity:1"
       d="m 74.479601,174.4781 c -3.34671,-3.06537 -6.09701,1.79295 -3.06531,3.69357"
       id="path15"
       sodipodi:nodetypes="cc" />
    <path
       style="fill:#ffffff;fill-opacity:1;stroke:#370188;stroke-width:3.19189;stroke-opacity:1"
       d="m 96.909991,209.56318 c -0.65164,20.41811 -26.57253,20.60422 -27.00693,-0.0317"
       id="path18"
       sodipodi:nodetypes="cc" />
    <ellipse
       style="fill:#ffffff;fill-opacity:1;stroke:#370188;stroke-width:3.19189;stroke-opacity:1"
       id="path2"
       cx="-83.409218"
       cy="209.64226"
       rx="13.520867"
       ry="3.5164156"
       transform="scale(-1,1)" />
    <ellipse
       style="fill:#370188;fill-opacity:1;stroke:none;stroke-width:6.22259"
       id="path20"
       cx="-83.348564"
       cy="210.4413"
       rx="8.7413483"
       ry="1.8731458"
       transform="scale(-1,1)" />
    <path
       style="fill:#ffffff;fill-opacity:1;stroke:#370188;stroke-width:3.19183;stroke-dasharray:none;stroke-opacity:1"
       d="m 97.173511,228.94874 c -2.72824,-3.3895 -2.66004,-3.67661 -5.87283,-6.21652 -3.5258,-2.78743 -8.3792,2.63122 -5.06869,6.02847 3.31054,3.39722 3.27777,3.35337 3.84394,3.6309"
       id="path5"
       sodipodi:nodetypes="cssc" />
    <path
       style="fill:#02adee;fill-opacity:1;stroke:#370188;stroke-width:3.19183;stroke-dasharray:none;stroke-opacity:1"
       d="m 96.347191,224.84141 -9.79932,7.27929 13.865409,10.80881 c 2.74812,-5.88337 2.5053,-11.48188 -1.973279,-16.67698 z"
       id="path13"
       sodipodi:nodetypes="ccccc" />
    <path
       style="fill:#ffffff;fill-opacity:1;stroke:#370188;stroke-width:3.19183;stroke-dasharray:none;stroke-opacity:1"
       d="m 68.699621,234.6105 c 7.7355,-6.3941 4.63625,-3.55953 7.25424,-6.60397 3.53281,-4.10826 -1.2014,-10.59469 -6.07192,-6.23138 -8.42959,7.55174 -6.37298,5.95928 -6.34567,5.92369"
       id="path6"
       sodipodi:nodetypes="cssc" />
    <path
       style="fill:#02adee;fill-opacity:1;stroke:#370188;stroke-width:3.19183;stroke-dasharray:none;stroke-opacity:1"
       d="m 58.010631,229.87753 9.17526,-8.36165 7.33524,9.61555 -18.26714,14.478 c -0.88128,-5.24396 -4.12025,-10.48791 1.75664,-15.7319 z"
       id="path12-2"
       sodipodi:nodetypes="ccccc" />
    <text
       xml:space="preserve"
       style="font-style:normal;font-variant:normal;font-weight:normal;font-stretch:normal;font-size:19.05px;font-family:'Nanum Pen';-inkscape-font-specification:'Nanum Pen';text-align:end;letter-spacing:0px;word-spacing:0px;writing-mode:lr-tb;direction:ltr;text-anchor:end;white-space:pre;inline-size:131.339;display:inline;fill:#370188;fill-opacity:1;stroke:none;stroke-width:1.5875;stroke-linecap:round;stroke-dasharray:none;stroke-opacity:1"
       x="123.73898"
       y="156.49693"
       id="text17-6-5-0-9"
       transform="translate(150.62439,-129.59462)"><tspan
         x="123.73898"
         y="156.49693"
         id="tspan1">Can you give me a<tspan
   y="156.49693"
   id="tspan2"> </tspan></tspan><tspan
         x="123.73898"
         y="180.30944"
         id="tspan3">good example of<tspan
   y="180.30944"
   id="tspan4"> </tspan></tspan><tspan
         x="123.73898"
         y="204.12194"
         id="tspan5">Goodhart's Law?</tspan></text>
    <text
       xml:space="preserve"
       style="font-style:normal;font-variant:normal;font-weight:normal;font-stretch:normal;font-size:19.05px;font-family:'Nanum Pen';-inkscape-font-specification:'Nanum Pen';text-align:start;letter-spacing:0px;word-spacing:0px;writing-mode:lr-tb;direction:ltr;text-anchor:start;white-space:pre;inline-size:131.339;display:inline;fill:#370188;fill-opacity:1;stroke:none;stroke-width:1.5875;stroke-linecap:round;stroke-dasharray:none;stroke-opacity:1"
       x="-4.9692669"
       y="156.49693"
       id="text17-6-5-0-9-6"
       transform="translate(23.204659,-55.695503)"><tspan
         x="-4.9692669"
         y="156.49693"
         id="tspan6">Ask Tim what he is </tspan><tspan
         x="-4.9692669"
         y="180.30944"
         id="tspan7">doing right now!</tspan></text>
    <path
       style="fill:none;fill-opacity:1;stroke:#370188;stroke-width:1.5875;stroke-linecap:round;stroke-dasharray:none;stroke-opacity:1"
       d="m 204.25459,183.10159 c -0.89299,-18.48408 12.3435,-74.41691 10.82406,-100.518462"
       id="path13-1-9-2-1-7-8-0"
       sodipodi:nodetypes="cc" />
    <path
       style="fill:#018816;fill-opacity:1;stroke:#370188;stroke-width:3.175;stroke-dasharray:none;stroke-opacity:1"
       d="m 180.6655,254.01688 -2.44821,35.65858 51.51866,1.38376 -2.02245,-39.59698 z"
       id="path25-4" />
    <path
       style="fill:#ffffff;fill-opacity:1;stroke:#370188;stroke-width:3.175;stroke-dasharray:none;stroke-opacity:1"
       d="m 164.00424,262.46469 c 0,15.83268 7.10918,26.92819 17.07233,33.28661 2.37048,1.51282 4.90258,2.75752 7.53891,3.73402 23.31662,8.63654 54.78808,-3.70364 54.76376,-37.02063 l -15.06804,15.50715 -15.15129,-6.5761 -19.95754,9.34238 -10.75538,-11.69092 -8.4902,5.14359 z"
       id="path1-8"
       sodipodi:nodetypes="cssccccccc" />
    <path
       style="fill:#370189;fill-opacity:1;stroke:#370188;stroke-width:0;stroke-dasharray:none;stroke-opacity:1"
       d="m 187.93225,297.80063 -3.82693,-5.27259 5.07118,2.35369 1.32626,-3.92795 0.37681,4.14213 4.16998,-3.19913 -2.57346,4.76485 5.63245,0.54648 -3.69282,2.899 z"
       id="path3-2"
       sodipodi:nodetypes="cccccccccc" />
    <path
       style="fill:#370189;fill-opacity:1;stroke:#370188;stroke-width:0;stroke-dasharray:none;stroke-opacity:1"
       d="m 219.07696,298.33698 3.03511,-5.32825 -4.74551,2.65567 -0.40824,-3.99876 -1.23584,4.49196 -4.72465,-1.3668 3.40941,3.17528 -4.78181,1.08258 4.5025,2.28216 z"
       id="path3-1-5"
       sodipodi:nodetypes="cccccccccc" />
    <path
       style="fill:#ee4302;fill-opacity:1;stroke:#370188;stroke-width:3.175;stroke-dasharray:none;stroke-opacity:1"
       d="m 188.52658,299.1307 c -0.0908,0.82798 -0.11081,10.87927 -0.11081,10.87927 l -7.65791,4.01428 9.17048,-1.55093 0.74285,0.90942 0.70028,-0.93298 8.75249,1.41577 -6.92598,-3.71139 c 0,0 0.0702,-8.9828 0.0127,-9.10428 z"
       id="path7-8"
       sodipodi:nodetypes="cccccccccc" />
    <path
       style="fill:#ee4302;fill-opacity:1;stroke:#370188;stroke-width:3.175;stroke-dasharray:none;stroke-opacity:1"
       d="m 218.56512,298.3928 0.34005,12.60688 7.87114,2.69119 -9.9795,-1.45316 -0.74286,0.90941 -0.70031,-0.93297 -9.07621,1.20135 7.41826,-3.10318 c 0,0 0.16637,-9.20293 0.1797,-9.394 z"
       id="path7-4-0"
       sodipodi:nodetypes="cccccccccc" />
    <path
       style="fill:none;fill-opacity:1;stroke:#370188;stroke-width:3.175;stroke-dasharray:none;stroke-opacity:1"
       d="m 189.02473,274.81306 3.90573,-9.47852 22.30545,-0.053 3.05492,7.69033"
       id="path19-60"
       sodipodi:nodetypes="cccc" />
    <path
       style="fill:#fdc458;fill-opacity:1;stroke:#370188;stroke-width:3.175;stroke-dasharray:none;stroke-opacity:1"
       d="m 177.38074,244.07068 c 0,0 -38.47278,27.21073 6.9562,15.58833 z"
       id="path17-0"
       sodipodi:nodetypes="ccc" />
    <path
       style="fill:#fdc458;fill-opacity:1;stroke:#370188;stroke-width:3.175;stroke-dasharray:none;stroke-opacity:1"
       d="m 233.63326,245.10957 c 0,0 34.30229,21.19084 -7.53478,15.42339 z"
       id="path16-7"
       sodipodi:nodetypes="ccc" />
    <path
       style="fill:#fdc458;fill-opacity:1;stroke:#370188;stroke-width:3.175;stroke-dasharray:none;stroke-opacity:1"
       d="m 220.01137,230.30925 c 17.42595,-38.94192 -49.63084,-38.34514 -32.5915,0.64325 l 15.59274,7.69652 z"
       id="path23-5"
       sodipodi:nodetypes="cccc" />
    <path
       style="fill:#018816;fill-opacity:1;stroke:#370188;stroke-width:3.175;stroke-dasharray:none;stroke-opacity:1"
       d="m 186.37951,259.77191 -9.8003,4.04721 -6.62149,-19.13719 13.52251,-5.46456 -0.30575,-10.09068 19.87556,9.57891 20.4871,-10.49624 v 8.56177 l 14.32217,7.7724 -6.5907,18.69104 -9.53128,-3.85836"
       id="path12-0"
       sodipodi:nodetypes="ccccccccccc" />
    <circle
       style="fill:#370188;fill-opacity:1;stroke:none;stroke-width:8.13508;stroke-dasharray:none;stroke-opacity:1"
       id="path9-8"
       cx="197.7505"
       cy="215.34628"
       r="1.7054044" />
    <circle
       style="fill:#370188;fill-opacity:1;stroke:none;stroke-width:8.13508;stroke-dasharray:none;stroke-opacity:1"
       id="path9-4"
       cx="210.24712"
       cy="215.4314"
       r="1.7054044" />
    <path
       style="fill:none;fill-opacity:1;stroke:#370188;stroke-width:3.175;stroke-dasharray:none;stroke-opacity:1"
       d="m 183.17511,239.01586 19.87493,4.4824 20.99631,-6.52113"
       id="path22-1"
       sodipodi:nodetypes="ccc" />
    <path
       style="fill:none;fill-opacity:1;stroke:#370188;stroke-width:3.175;stroke-dasharray:none;stroke-opacity:1"
       d="m 193.86845,238.06891 -3.37312,20.3066"
       id="path10-79"
       sodipodi:nodetypes="cc" />
    <path
       style="fill:none;fill-opacity:1;stroke:#370188;stroke-width:3.175;stroke-dasharray:none;stroke-opacity:1"
       d="m 211.30834,237.5625 2.50114,20.97738"
       id="path11-71"
       sodipodi:nodetypes="cc" />
    <path
       style="fill:none;fill-opacity:1;stroke:#370188;stroke-width:3.175;stroke-dasharray:none;stroke-opacity:1"
       d="m 206.18234,220.47395 -5.98275,3.09452 7.22056,3.30085"
       id="path24-70" />
    <path
       style="fill:none;fill-opacity:1;stroke:#370188;stroke-width:3.175;stroke-dasharray:none;stroke-opacity:1"
       d="m 203.81941,203.40557 c 5.40632,-4.70872 -5.05749,-5.05752 0.52321,-8.89426"
       id="path26-0"
       sodipodi:nodetypes="cc" />
    <path
       style="fill:none;fill-opacity:1;stroke:#370188;stroke-width:1.5875;stroke-linecap:round;stroke-dasharray:none;stroke-opacity:1"
       d="M 87.976063,154.46053 C 88.274874,143.72316 61.586026,140.82548 61.854288,130.21734"
       id="path13-1-9-2-1-7-8-0-7"
       sodipodi:nodetypes="cc" />
  </g>
</svg>
