<?xml version="1.0" encoding="UTF-8" standalone="no"?>
<!-- Created with Inkscape (http://www.inkscape.org/) -->

<svg
   width="1080"
   height="1350"
   viewBox="0 0 285.74999 357.1875"
   version="1.1"
   id="svg1"
   inkscape:version="1.4 (e7c3feb1, 2024-10-09)"
   sodipodi:docname="panel-02.svg"
   xml:space="preserve"
   xmlns:inkscape="http://www.inkscape.org/namespaces/inkscape"
   xmlns:sodipodi="http://sodipodi.sourceforge.net/DTD/sodipodi-0.dtd"
   xmlns="http://www.w3.org/2000/svg"
   xmlns:svg="http://www.w3.org/2000/svg"><sodipodi:namedview
     id="namedview1"
     pagecolor="#ffffff"
     bordercolor="#000000"
     borderopacity="0.25"
     inkscape:showpageshadow="2"
     inkscape:pageopacity="0.0"
     inkscape:pagecheckerboard="0"
     inkscape:deskcolor="#d1d1d1"
     inkscape:document-units="px"
     inkscape:zoom="0.35322726"
     inkscape:cx="608.67329"
     inkscape:cy="543.55941"
     inkscape:window-width="1728"
     inkscape:window-height="1057"
     inkscape:window-x="0"
     inkscape:window-y="32"
     inkscape:window-maximized="0"
     inkscape:current-layer="layer1"
     showguides="true"
     showgrid="false" /><defs
     id="defs1"><rect
       x="337.60629"
       y="293.08679"
       width="868.13049"
       height="871.84045"
       id="rect26" /><rect
       x="358.01108"
       y="335.75131"
       width="877.4054"
       height="734.57196"
       id="rect25" /><rect
       x="418.44797"
       y="244.75258"
       width="748.0744"
       height="801.36731"
       id="rect16" /><clipPath
       clipPathUnits="userSpaceOnUse"
       id="clipPath32"><rect
         style="fill:none;fill-opacity:1;fill-rule:nonzero;stroke:#370188;stroke-width:3.175;stroke-dasharray:none;stroke-opacity:1"
         id="rect33"
         width="282.57498"
         height="354.01248"
         x="1.5875"
         y="15.875003" /></clipPath><clipPath
       clipPathUnits="userSpaceOnUse"
       id="clipPath33"><rect
         style="fill:none;fill-opacity:1;fill-rule:nonzero;stroke:#370188;stroke-width:3.175;stroke-dasharray:none;stroke-opacity:1"
         id="rect34"
         width="282.57498"
         height="354.01248"
         x="1.5875"
         y="15.875003"
         transform="scale(-1,1)" /></clipPath><clipPath
       clipPathUnits="userSpaceOnUse"
       id="clipPath34"><rect
         style="fill:none;fill-opacity:1;fill-rule:nonzero;stroke:#370188;stroke-width:3.175;stroke-dasharray:none;stroke-opacity:1"
         id="rect35"
         width="282.57498"
         height="354.01248"
         x="1.5875"
         y="15.875003" /></clipPath><clipPath
       clipPathUnits="userSpaceOnUse"
       id="clipPath35"><rect
         style="fill:none;fill-opacity:1;fill-rule:nonzero;stroke:#370188;stroke-width:3.175;stroke-dasharray:none;stroke-opacity:1"
         id="rect36"
         width="282.57498"
         height="354.01248"
         x="1.5875"
         y="15.875003" /></clipPath><clipPath
       clipPathUnits="userSpaceOnUse"
       id="clipPath1"><rect
         style="fill:none;fill-opacity:1;fill-rule:nonzero;stroke:#370188;stroke-width:0.695287;stroke-dasharray:none;stroke-opacity:1"
         id="rect2"
         width="61.880581"
         height="77.524551"
         x="-167.02388"
         y="-16.952217"
         transform="scale(-1,1)" /></clipPath><clipPath
       clipPathUnits="userSpaceOnUse"
       id="clipPath2"><rect
         style="fill:none;fill-opacity:1;fill-rule:nonzero;stroke:#370188;stroke-width:3.175;stroke-dasharray:none;stroke-opacity:1"
         id="rect3"
         width="282.57498"
         height="354.01248"
         x="139.64767"
         y="-132.82672"
         transform="rotate(21.214416)" /></clipPath><clipPath
       clipPathUnits="userSpaceOnUse"
       id="clipPath3"><rect
         style="fill:none;fill-opacity:1;fill-rule:nonzero;stroke:#370188;stroke-width:3.175;stroke-dasharray:none;stroke-opacity:1"
         id="rect4"
         width="282.57498"
         height="354.01248"
         x="1.5875"
         y="1.5875"
         transform="rotate(23.854687)" /></clipPath><clipPath
       clipPathUnits="userSpaceOnUse"
       id="clipPath5"><rect
         style="fill:none;fill-opacity:1;fill-rule:nonzero;stroke:#370188;stroke-width:3.175;stroke-dasharray:none;stroke-opacity:1"
         id="rect6"
         width="282.57498"
         height="354.01248"
         x="1.5875"
         y="1.5875"
         transform="rotate(23.854687)" /></clipPath><clipPath
       clipPathUnits="userSpaceOnUse"
       id="clipPath6"><rect
         style="fill:none;fill-opacity:1;fill-rule:nonzero;stroke:#370188;stroke-width:3.175;stroke-dasharray:none;stroke-opacity:1"
         id="rect7"
         width="282.57498"
         height="354.01248"
         x="114.21098"
         y="-148.05612"
         transform="rotate(21.830906)" /></clipPath><clipPath
       clipPathUnits="userSpaceOnUse"
       id="clipPath4"><rect
         style="fill:none;fill-opacity:1;fill-rule:nonzero;stroke:#370188;stroke-width:3.175;stroke-dasharray:none;stroke-opacity:1"
         id="rect5"
         width="282.57498"
         height="354.01248"
         x="-114.64226"
         y="-70.391449"
         transform="rotate(-14.2538)" /></clipPath></defs><g
     inkscape:label="Layer 1"
     inkscape:groupmode="layer"
     id="layer1"><text
       xml:space="preserve"
       transform="scale(0.26458333)"
       id="text16"
       style="font-style:normal;font-variant:normal;font-weight:bold;font-stretch:normal;font-size:60px;font-family:'Josefin Slab';-inkscape-font-specification:'Josefin Slab Bold';text-align:start;letter-spacing:0px;word-spacing:0px;writing-mode:lr-tb;direction:ltr;white-space:pre;shape-inside:url(#rect16);display:inline;fill:#000000;fill-opacity:0;stroke:#370188;stroke-width:12;stroke-opacity:1" /><text
       xml:space="preserve"
       transform="scale(0.26458333)"
       id="text25"
       style="font-style:normal;font-variant:normal;font-weight:bold;font-stretch:normal;font-size:60px;font-family:'Josefin Slab';-inkscape-font-specification:'Josefin Slab Bold';text-align:start;letter-spacing:0px;word-spacing:0px;writing-mode:lr-tb;direction:ltr;white-space:pre;shape-inside:url(#rect25);display:inline;fill:#000000;fill-opacity:0;stroke:#370188;stroke-width:12;stroke-opacity:1" /><text
       xml:space="preserve"
       transform="scale(0.26458333)"
       id="text26"
       style="font-style:normal;font-variant:normal;font-weight:bold;font-stretch:normal;font-size:60px;font-family:'Josefin Slab';-inkscape-font-specification:'Josefin Slab Bold';text-align:start;letter-spacing:0px;word-spacing:0px;writing-mode:lr-tb;direction:ltr;white-space:pre;shape-inside:url(#rect26);display:inline;fill:#000000;fill-opacity:0;stroke:#370188;stroke-width:12;stroke-opacity:1" /><rect
       width="9.8019896"
       height="15.875"
       rx="0"
       ry="0"
       fill="#6002ee"
       stroke-width="0"
       id="rect1-3-4-39-4-2-0-5-6"
       x="247.60098"
       y="332.84583" /><text
       font-family="Montserrat"
       font-size="618.11px"
       font-weight="200"
       stroke-width="0"
       fill="#33333"
       id="text3-0-3-0-0-5-3-3-2"
       x="248.33717"
       y="345.42685"
       style="font-style:normal;font-variant:normal;font-weight:300;font-stretch:normal;font-size:13.0774px;font-family:Montserrat;-inkscape-font-specification:'Montserrat Light'"
       transform="scale(0.99938968,1.0006107)"><tspan
         y="345.42685"
         font-weight="200"
         stroke-width="0"
         id="tspan1-4-8-6-2-1-2-5-9"
         style="font-style:normal;font-variant:normal;font-weight:300;font-stretch:normal;font-size:13.0774px;font-family:Montserrat;-inkscape-font-specification:'Montserrat Light'"><tspan
           style="font-style:normal;font-variant:normal;font-weight:300;font-stretch:normal;font-size:13.0774px;font-family:Montserrat;-inkscape-font-specification:'Montserrat Light';fill:#ffffff;fill-opacity:1;stroke-width:0"
           id="tspan3-6-3-13-5-2-1-6-6">k</tspan></tspan></text><text
       dx="0"
       dy="0"
       font-family="Montserrat"
       font-size="465.256px"
       font-weight="200"
       stroke-width="0"
       fill="#33333"
       id="text3-0-3-6-8-4-0-8-9"
       x="195.17656"
       y="345.42685"
       style="font-style:normal;font-variant:normal;font-weight:300;font-stretch:normal;font-size:13.0774px;font-family:Montserrat;-inkscape-font-specification:'Montserrat Light'"
       transform="scale(0.99938968,1.0006107)"><tspan
         y="345.42685"
         font-weight="200"
         stroke-width="0"
         id="tspan1-4-8-3-9-0-0-6-9"
         style="font-style:normal;font-variant:normal;font-weight:300;font-stretch:normal;font-size:13.0774px;font-family:Montserrat;-inkscape-font-specification:'Montserrat Light'">product</tspan></text><text
       font-family="Montserrat"
       font-size="465.256px"
       font-weight="200"
       stroke-width="0"
       fill="#33333"
       id="text3-0-3-6-4-3-4-3-7-8"
       x="257.78415"
       y="345.42685"
       style="font-style:normal;font-variant:normal;font-weight:300;font-stretch:normal;font-size:13.0774px;font-family:Montserrat;-inkscape-font-specification:'Montserrat Light'"
       transform="scale(0.99938968,1.0006107)"><tspan
         y="345.42685"
         font-weight="200"
         stroke-width="0"
         id="tspan1-4-8-3-6-9-9-9-7-0"
         style="font-style:normal;font-variant:normal;font-weight:300;font-stretch:normal;font-size:13.0774px;font-family:Montserrat;-inkscape-font-specification:'Montserrat Light'">ind</tspan></text><rect
       style="fill:#9a58fd;fill-opacity:1;stroke:#370188;stroke-width:3.175;stroke-dasharray:none;stroke-opacity:1"
       id="rect18"
       width="105.83333"
       height="21.166666"
       x="155.84489"
       y="297.48495"
       rx="10.583333" /><rect
       style="fill:#d7bdfe;fill-opacity:1;stroke:#370188;stroke-width:3.17498;stroke-dasharray:none;stroke-opacity:1"
       id="rect10-8"
       width="9.5250206"
       height="17.991848"
       x="173.8365"
       y="205.40993"
       rx="4.7625103" /><rect
       style="fill:#d7bdfe;fill-opacity:1;stroke:#370188;stroke-width:3.17496;stroke-dasharray:none;stroke-opacity:1"
       id="rect10-8-8"
       width="9.525032"
       height="17.991699"
       x="230.98651"
       y="205.40999"
       rx="4.762516" /><rect
       style="fill:#9a58fd;fill-opacity:1;stroke:#370188;stroke-width:3.17506;stroke-dasharray:none;stroke-opacity:1"
       id="rect9"
       width="53.974957"
       height="39.158276"
       x="180.18658"
       y="190.59337"
       rx="9.7154922" /><rect
       style="fill:#ffffff;fill-opacity:1;stroke:#370188;stroke-width:3.175;stroke-dasharray:none;stroke-opacity:1"
       id="rect10"
       width="9.5249996"
       height="21.166666"
       x="189.71156"
       y="197.47061"
       rx="4.7624998" /><rect
       style="fill:#ffffff;fill-opacity:1;stroke:#370188;stroke-width:3.175;stroke-dasharray:none;stroke-opacity:1"
       id="rect10-9"
       width="9.5249996"
       height="21.166666"
       x="215.11156"
       y="197.17004"
       rx="4.7624998" /><circle
       style="fill:#d7bdfe;fill-opacity:1;stroke:#370188;stroke-width:3.175;stroke-dasharray:none;stroke-opacity:1"
       id="path10"
       cx="207.17406"
       cy="167.02998"
       r="4.2333331" /><circle
       style="fill:#d7bdfe;fill-opacity:1;stroke:#370188;stroke-width:3.175;stroke-dasharray:none;stroke-opacity:1"
       id="path10-3"
       cx="166.95738"
       cy="308.0683"
       r="5.2916665" /><circle
       style="fill:#d7bdfe;fill-opacity:1;stroke:#370188;stroke-width:3.175;stroke-dasharray:none;stroke-opacity:1"
       id="path10-9"
       cx="250.03656"
       cy="308.0683"
       r="5.2916665" /><path
       style="fill:#ffffff;stroke:#370188;stroke-width:3.175;stroke-dasharray:none;stroke-opacity:1"
       d="m 207.17405,171.91369 v 17.98102"
       id="path11" /><rect
       style="fill:#ffffff;stroke:#370188;stroke-width:3.17495;stroke-dasharray:none;stroke-opacity:1"
       id="rect11"
       width="28.575048"
       height="3.1750476"
       x="192.88651"
       y="232.92664"
       rx="3.8625619" /><rect
       style="fill:#ffffff;stroke:#370188;stroke-width:3.17495;stroke-dasharray:none;stroke-opacity:1"
       id="rect11-0"
       width="28.575048"
       height="3.1750476"
       x="192.88651"
       y="239.27664"
       rx="3.8625619" /><rect
       style="fill:#ffffff;stroke:#370188;stroke-width:3.17495;stroke-dasharray:none;stroke-opacity:1"
       id="rect11-0-5"
       width="28.575048"
       height="3.1750476"
       x="192.88651"
       y="291.13492"
       rx="3.8625619" /><circle
       style="fill:#d7bdfe;fill-opacity:1;stroke:#370188;stroke-width:3.175;stroke-dasharray:none;stroke-opacity:1"
       id="path10-4"
       cx="183.57323"
       cy="308.0683"
       r="5.2916665" /><circle
       style="fill:#d7bdfe;fill-opacity:1;stroke:#370188;stroke-width:3.175;stroke-dasharray:none;stroke-opacity:1"
       id="path10-7"
       cx="200.18904"
       cy="308.0683"
       r="5.2916665" /><circle
       style="fill:#d7bdfe;fill-opacity:1;stroke:#370188;stroke-width:3.175;stroke-dasharray:none;stroke-opacity:1"
       id="path10-1"
       cx="216.80492"
       cy="308.0683"
       r="5.2916665" /><circle
       style="fill:#d7bdfe;fill-opacity:1;stroke:#370188;stroke-width:3.175;stroke-dasharray:none;stroke-opacity:1"
       id="path10-74"
       cx="233.42072"
       cy="308.0683"
       r="5.2916665" /><path
       style="fill:#d7bdfe;fill-opacity:1;stroke:#370188;stroke-width:3.175;stroke-dasharray:none;stroke-opacity:1"
       d="m 241.94662,261.95463 c 14.51235,0.70138 18.8462,9.5563 20.22453,11.55562 5.469,7.93302 14.78388,1.9285 8.64235,-6.32227 -3.65341,-4.90814 -12.91346,-16.87029 -28.71473,-16.14712"
       id="path19"
       sodipodi:nodetypes="cssc" /><path
       style="fill:none;fill-opacity:1;stroke:#370188;stroke-width:3.175;stroke-dasharray:none;stroke-opacity:1"
       id="path21"
       sodipodi:type="arc"
       sodipodi:cx="274.82846"
       sodipodi:cy="282.45523"
       sodipodi:rx="5.2916665"
       sodipodi:ry="5.2916665"
       sodipodi:start="2.191883"
       sodipodi:end="6.0837601"
       sodipodi:arc-type="arc"
       d="m 271.74914,286.75866 a 5.2916665,5.2916665 0 0 1 -1.8959,-6.10591 5.2916665,5.2916665 0 0 1 5.36686,-3.47467 5.2916665,5.2916665 0 0 1 4.79515,4.22884"
       sodipodi:open="true" /><path
       style="fill:none;fill-opacity:1;stroke:#370188;stroke-width:3.175;stroke-dasharray:none;stroke-opacity:1"
       d="m 248.26649,262.33385 2.96129,-9.98579"
       id="path22" /><path
       style="fill:none;fill-opacity:1;stroke:#370188;stroke-width:3.175;stroke-dasharray:none;stroke-opacity:1"
       d="m 254.66189,264.25022 5.13198,-7.81513"
       id="path23"
       sodipodi:nodetypes="cc" /><path
       style="fill:none;fill-opacity:1;stroke:#370188;stroke-width:3.175;stroke-dasharray:none;stroke-opacity:1"
       d="m 259.42303,268.87627 6.9556,-6.19808"
       id="path24" /><path
       style="fill:none;fill-opacity:1;stroke:#370188;stroke-width:3.175;stroke-dasharray:none;stroke-opacity:1"
       d="m 263.41734,274.66115 8.60844,-5.64714"
       id="path25" /><path
       style="fill:#d7bdfe;fill-opacity:1;stroke:#370188;stroke-width:3.175;stroke-dasharray:none;stroke-opacity:1"
       d="m 173.78928,262.28642 c -14.51235,0.70138 -18.98475,9.81901 -20.36308,11.81834 -5.46904,7.93301 -14.78388,1.9285 -8.64239,-6.32228 3.65341,-4.90814 12.91346,-16.87029 28.71474,-16.14711"
       id="path19-3"
       sodipodi:nodetypes="cssc" /><path
       style="fill:none;fill-opacity:1;stroke:#370188;stroke-width:3.175;stroke-dasharray:none;stroke-opacity:1"
       id="path21-9"
       sodipodi:type="arc"
       sodipodi:cx="-140.76892"
       sodipodi:cy="283.04974"
       sodipodi:rx="5.2916665"
       sodipodi:ry="5.2916665"
       sodipodi:start="2.191883"
       sodipodi:end="6.0837601"
       sodipodi:arc-type="arc"
       d="m -143.84824,287.35317 a 5.2916665,5.2916665 0 0 1 -1.8959,-6.10591 5.2916665,5.2916665 0 0 1 5.36686,-3.47467 5.2916665,5.2916665 0 0 1 4.79515,4.22884"
       sodipodi:open="true"
       transform="scale(-1,1)" /><path
       style="fill:none;fill-opacity:1;stroke:#370188;stroke-width:3.175;stroke-dasharray:none;stroke-opacity:1"
       d="m 167.33085,262.92836 -2.96132,-9.9858"
       id="path22-6" /><path
       style="fill:none;fill-opacity:1;stroke:#370188;stroke-width:3.175;stroke-dasharray:none;stroke-opacity:1"
       d="m 160.93542,264.84473 -5.13197,-7.81514"
       id="path23-4"
       sodipodi:nodetypes="cc" /><path
       style="fill:none;fill-opacity:1;stroke:#370188;stroke-width:3.175;stroke-dasharray:none;stroke-opacity:1"
       d="m 156.17429,269.47077 -6.9556,-6.19808"
       id="path24-9" /><path
       style="fill:none;fill-opacity:1;stroke:#370188;stroke-width:3.175;stroke-dasharray:none;stroke-opacity:1"
       d="m 152.17998,275.25565 -8.60844,-5.64714"
       id="path25-2" /><rect
       style="fill:#9a58fd;fill-opacity:1;stroke:#370188;stroke-width:3.175;stroke-dasharray:none;stroke-opacity:1"
       id="rect16-7"
       width="68.791664"
       height="42.333332"
       x="172.77817"
       y="245.62665"
       rx="4.7624989" /><rect
       style="fill:#370188;fill-opacity:1;stroke:none;stroke-width:0;stroke-dasharray:none"
       id="rect17"
       width="52.916664"
       height="29.765625"
       x="180.71571"
       y="251.97662" /><path
       style="fill:#018816;fill-opacity:1;stroke:#370188;stroke-width:3.175;stroke-dasharray:none;stroke-opacity:1"
       d="m 65.190421,256.32077 -2.44821,35.65858 51.518659,1.38376 -2.02244,-39.59698 z"
       id="path25-4" /><path
       style="fill:#ffffff;fill-opacity:1;stroke:#370188;stroke-width:3.175;stroke-dasharray:none;stroke-opacity:1"
       d="m 48.529165,264.76859 c 0,15.83267 7.109174,26.92819 17.072324,33.2866 2.370486,1.51282 4.90258,2.75752 7.53891,3.73402 23.316628,8.63654 54.788081,-3.70364 54.763761,-37.02062 l -15.06804,15.50714 -15.151289,-6.57609 -19.957542,9.34237 -10.755375,-11.69092 -8.490204,5.1436 z"
       id="path1-8"
       sodipodi:nodetypes="cssccccccc" /><path
       style="fill:#370189;fill-opacity:1;stroke:#370188;stroke-width:0;stroke-dasharray:none;stroke-opacity:1"
       d="m 72.457171,300.10452 -3.826923,-5.27259 5.071173,2.35369 1.326261,-3.92795 0.376809,4.14214 4.169982,-3.19913 -2.573465,4.76485 5.63245,0.54648 -3.692811,2.89899 z"
       id="path3-2"
       sodipodi:nodetypes="cccccccccc" /><path
       style="fill:#370189;fill-opacity:1;stroke:#370188;stroke-width:0;stroke-dasharray:none;stroke-opacity:1"
       d="m 103.60189,300.64088 3.03511,-5.32826 -4.74552,2.65567 -0.40824,-3.99875 -1.23584,4.49195 -4.724649,-1.3668 3.40941,3.17528 -4.781804,1.08258 4.5025,2.28216 z"
       id="path3-1-5"
       sodipodi:nodetypes="cccccccccc" /><path
       style="fill:#ee4302;fill-opacity:1;stroke:#370188;stroke-width:3.175;stroke-dasharray:none;stroke-opacity:1"
       d="m 73.051499,301.4346 c -0.09081,0.82797 -0.110808,10.87926 -0.110808,10.87926 l -7.657909,4.01428 9.170479,-1.55092 0.742855,0.90941 0.700278,-0.93297 8.75249,1.41576 -6.925976,-3.71138 c 0,0 0.07017,-8.98281 0.0127,-9.10428 z"
       id="path7-8"
       sodipodi:nodetypes="cccccccccc" /><path
       style="fill:#ee4302;fill-opacity:1;stroke:#370188;stroke-width:3.175;stroke-dasharray:none;stroke-opacity:1"
       d="m 103.09005,300.69669 0.34004,12.60688 7.87114,2.69119 -9.9795,-1.45316 -0.74286,0.90941 -0.700305,-0.93297 -9.076213,1.20136 7.41826,-3.10319 c 0,0 0.16637,-9.20292 0.179705,-9.39399 z"
       id="path7-4-0"
       sodipodi:nodetypes="cccccccccc" /><path
       style="fill:none;fill-opacity:1;stroke:#370188;stroke-width:3.175;stroke-dasharray:none;stroke-opacity:1"
       d="m 73.549656,277.11695 3.905726,-9.47851 22.305454,-0.053 3.054924,7.69033"
       id="path19-60"
       sodipodi:nodetypes="cccc" /><path
       style="fill:#fdc458;fill-opacity:1;stroke:#370188;stroke-width:3.175;stroke-dasharray:none;stroke-opacity:1"
       d="m 61.905662,246.37457 c 0,0 -38.472776,27.21074 6.956202,15.58833 z"
       id="path17-0"
       sodipodi:nodetypes="ccc" /><path
       style="fill:#fdc458;fill-opacity:1;stroke:#370188;stroke-width:3.175;stroke-dasharray:none;stroke-opacity:1"
       d="m 118.15818,247.41346 c 0,0 34.30229,21.19084 -7.53478,15.42339 z"
       id="path16-7"
       sodipodi:nodetypes="ccc" /><path
       style="fill:#fdc458;fill-opacity:1;stroke:#370188;stroke-width:3.175;stroke-dasharray:none;stroke-opacity:1"
       d="M 104.53629,232.61314 C 121.96224,193.67123 54.905454,194.268 71.944789,233.25639 l 15.592742,7.69652 z"
       id="path23-5"
       sodipodi:nodetypes="cccc" /><path
       style="fill:#018816;fill-opacity:1;stroke:#370188;stroke-width:3.175;stroke-dasharray:none;stroke-opacity:1"
       d="m 70.904437,262.0758 -9.800304,4.04721 -6.621494,-19.13719 13.522515,-5.46455 -0.305753,-10.09069 19.875563,9.57891 20.487096,-10.49623 v 8.56177 l 14.32217,7.7724 -6.59069,18.69103 -9.53129,-3.85836"
       id="path12-0"
       sodipodi:nodetypes="ccccccccccc" /><circle
       style="fill:#370188;fill-opacity:1;stroke:none;stroke-width:8.13508;stroke-dasharray:none;stroke-opacity:1"
       id="path9-8"
       cx="82.275421"
       cy="217.65016"
       r="1.7054044" /><circle
       style="fill:#370188;fill-opacity:1;stroke:none;stroke-width:8.13508;stroke-dasharray:none;stroke-opacity:1"
       id="path9-4"
       cx="94.772041"
       cy="217.73529"
       r="1.7054044" /><path
       style="fill:none;fill-opacity:1;stroke:#370188;stroke-width:3.175;stroke-dasharray:none;stroke-opacity:1"
       d="m 67.700036,241.31975 19.874928,4.4824 20.996306,-6.52113"
       id="path22-1"
       sodipodi:nodetypes="ccc" /><path
       style="fill:none;fill-opacity:1;stroke:#370188;stroke-width:3.175;stroke-dasharray:none;stroke-opacity:1"
       d="m 78.393373,240.37281 -3.37312,20.3066"
       id="path10-79"
       sodipodi:nodetypes="cc" /><path
       style="fill:none;fill-opacity:1;stroke:#370188;stroke-width:3.175;stroke-dasharray:none;stroke-opacity:1"
       d="m 95.833266,239.86639 2.501138,20.97739"
       id="path11-71"
       sodipodi:nodetypes="cc" /><path
       style="fill:none;fill-opacity:1;stroke:#370188;stroke-width:3.175;stroke-dasharray:none;stroke-opacity:1"
       d="m 87.230032,222.77785 5.982748,3.09451 -7.220553,3.30086"
       id="path24-70" /><path
       style="fill:none;fill-opacity:1;stroke:#370188;stroke-width:3.175;stroke-dasharray:none;stroke-opacity:1"
       d="m 88.34433,205.70946 c 5.406327,-4.70872 -5.057489,-5.05752 0.523209,-8.89425"
       id="path26-0"
       sodipodi:nodetypes="cc" /><text
       xml:space="preserve"
       style="font-weight:bold;font-size:12.7px;font-family:Helvetica;-inkscape-font-specification:'Helvetica Bold';text-align:center;letter-spacing:0px;word-spacing:0px;writing-mode:lr-tb;direction:ltr;text-anchor:middle;fill:#fe8bed;fill-opacity:1;stroke:#370188;stroke-width:3.175;stroke-dasharray:none"
       x="112.57917"
       y="100.13621"
       id="text4"><tspan
         sodipodi:role="line"
         id="tspan4"
         style="stroke-width:3.175" /></text><g
       id="g1"
       transform="rotate(14.2538,-181.05372,494.699)"
       clip-path="url(#clipPath4)"><path
         style="fill:#ffffff;fill-opacity:1;stroke:#370188;stroke-width:3.21643;stroke-dasharray:none;stroke-opacity:1"
         d="m -48.898594,178.15188 c 1.24358,8.17194 13.4967,27.73727 15.45088,31.82324 1.95415,4.08598 -3.22145,8.96309 -6.77443,5.76539 -3.55302,-3.19776 -15.76829,-21.08606 -17.36715,-27.30385"
         id="path5-1-2-1-7"
         sodipodi:nodetypes="cssc" /><path
         style="fill:#ffffff;fill-opacity:1;stroke:#370188;stroke-width:3.21643;stroke-dasharray:none;stroke-opacity:1"
         d="m -91.264649,220.38893 c -0.816864,6.53498 -4.510056,21.22091 -12.139901,30.13967 -6.13108,7.16677 -14.56271,8.4803 -18.80835,10.80215 -9.77519,5.346 -6.769,14.03994 1.93155,11.82475 12.68041,-3.22847 31.836323,-6.967 30.95234,-15.80671"
         id="path2-4-2-5-8-3"
         sodipodi:nodetypes="csssc" /><path
         style="fill:#fd8658;fill-opacity:1;stroke:#370188;stroke-width:3.21643;stroke-dasharray:none;stroke-opacity:1"
         d="m -47.451424,184.27468 14.44256,20.39692 -11.14863,9.75507"
         id="path13-6-7-6-8"
         sodipodi:nodetypes="ccc" /><path
         style="fill:#ffffff;fill-opacity:1;stroke:#370188;stroke-width:3.21643;stroke-dasharray:none;stroke-opacity:1"
         d="m -43.746874,132.56558 c 2.98009,-3.6622 -0.72158,-6.68728 -3.80158,-2.51292"
         id="path15-0-5-6-6-1"
         sodipodi:nodetypes="cc" /><path
         style="fill:#ffffff;fill-opacity:1;stroke:#370188;stroke-width:3.21656;stroke-dasharray:none;stroke-opacity:1"
         d="m -64.571758,156.90999 c 9.265534,17.31194 44.377134,6.82723 30.478794,-11.94766 -13.89834,-18.77498 -19.2626,-20.48179 -30.234954,-19.99418 -10.972387,0.48772 -19.640041,10.31736 -20.725606,18.2873 -1.429766,10.49709 -3.327304,59.21102 -5.765641,73.59704 -1.99771,11.78674 0.793941,34.08944 2.082419,46.63332 0.284163,2.76612 0.49511,5.05771 0.565563,6.65731 0.443579,10.07059 13.414279,10.82716 14.142148,0.73152 0.539369,-7.48017 10.085451,-6.21151 10.387552,0 0.451231,9.27808 13.783689,9.12606 14.584489,-0.2613 0.92951,-10.89467 6.17163,-40.69925 5.15074,-52.22005 -0.97228,-10.97236 -6.7672,-52.94938 -6.7672,-52.94938 v 0"
         id="path1-2-4-7-1-7"
         sodipodi:nodetypes="csssssssssscc" /><circle
         style="fill:#370188;fill-opacity:1;stroke:#370188;stroke-width:0.804104;stroke-opacity:1"
         id="path3-29-2-0"
         cx="47.320068"
         cy="138.86905"
         r="1.5030103"
         transform="scale(-1,1)" /><circle
         style="fill:#370188;fill-opacity:1;stroke:#370188;stroke-width:0.804104;stroke-opacity:1"
         id="path3-3-5-9-1"
         cx="57.966965"
         cy="141.203"
         r="1.5030103"
         transform="scale(-1,1)" /><path
         style="fill:#370188;fill-opacity:1;stroke:#370188;stroke-width:3.21643;stroke-dasharray:none;stroke-opacity:1"
         d="m -42.379014,150.42362 c -1.06385,-0.69009 -5.0199,0.46523 -5.52069,1.5527 -0.46854,1.01737 3.81838,3.16652 4.54307,2.76035 0.53051,-0.29718 2.04153,-3.62296 0.97762,-4.31305 z"
         id="path4-2-3-9-6"
         sodipodi:nodetypes="zssz" /><path
         style="fill:#fd8658;fill-opacity:1;stroke:#370188;stroke-width:3.21643;stroke-dasharray:none;stroke-opacity:1"
         d="m -90.596311,244.77427 c 0.340518,5.32857 0.99514,27.69689 0.99514,27.69689 l 19.1556,-0.58046 1.990185,-5.97062 1.741424,6.05349 20.399468,0.58052 c 0,0 0.21209,-19.99025 0.66339,-29.02366 0.45123,-9.03342 3.11143,-13.35294 1.94037,-25.16197 -1.17107,-11.80906 -5.49523,-45.01378 -5.49523,-45.01378 l -5.28793,1.13319 -4.910234,10.19816 -4.154869,-10.38705 -23.22922,-1.51085 c 0,0 -1.737105,30.37408 -4.163123,44.7587 -2.425986,14.3845 -0.333851,17.47355 -0.129857,20.37636 0.204152,2.90281 0.144145,1.52251 0.484727,6.85108 z"
         id="path14-0-7-8-2"
         sodipodi:nodetypes="zccccczzccccczzz" /><path
         style="fill:#ffffff;fill-opacity:1;stroke:#370188;stroke-width:3.21643;stroke-dasharray:none;stroke-opacity:1"
         d="m -87.867971,184.09773 c -0.691102,10.08987 1.553052,30.37777 1.962754,34.40325 0.552862,5.43208 7.643431,6.63439 8.749188,0.13812 1.105726,-6.49628 1.556734,-27.26405 1.556734,-27.26405"
         id="path6-86-3-4-3"
         sodipodi:nodetypes="cssc" /><path
         style="fill:#ffffff;fill-opacity:1;stroke:#370188;stroke-width:3.21643;stroke-dasharray:none;stroke-opacity:1"
         d="m -64.265021,173.44345 4.170711,11.2469"
         id="path10-5-4-0-6-1"
         sodipodi:nodetypes="cc" /><path
         style="fill:#fd8658;fill-opacity:1;stroke:#370188;stroke-width:3.21643;stroke-dasharray:none;stroke-opacity:1"
         d="m -68.011966,183.41803 3.074575,-8.95407 -22.081077,-1.61389 -2.640901,9.02313 z"
         id="path7-1-7-2-3-4"
         sodipodi:nodetypes="ccccc" /><path
         style="fill:#ffffff;fill-opacity:1;stroke:#370188;stroke-width:3.21643;stroke-dasharray:none;stroke-opacity:1"
         d="m -59.783604,184.97076 5.09152,-11.52731"
         id="path9-9-9-5-8-8"
         sodipodi:nodetypes="cc" /><path
         style="fill:#fd8658;fill-opacity:1;stroke:#370188;stroke-width:3.21643;stroke-dasharray:none;stroke-opacity:1"
         d="m -49.091884,173.43691 -5.11909,0.79594 2.01381,9.07551 6.3901,-1.8254 z"
         id="path8-9-5-7-9-9"
         sodipodi:nodetypes="ccccc" /><path
         style="fill:#fd8658;fill-opacity:1;stroke:#370188;stroke-width:3.21643;stroke-dasharray:none;stroke-opacity:1"
         d="m -72.570122,189.46355 -0.752666,24.69108 -15.035275,-3.05022 0.694753,-27.08948"
         id="path12-2-2-7-8-2"
         sodipodi:nodetypes="cccc" /><path
         style="fill:#fd8658;fill-opacity:1;stroke:#370188;stroke-width:3.21643;stroke-dasharray:none;stroke-opacity:1"
         d="m -59.880315,184.50204 c 0,0 1.329881,28.23527 1.432181,31.20199 0.10255,2.96675 -1.859663,33.1203 -1.859663,33.1203 l -5.23132,-0.403"
         id="path11-7-9-4-2-3"
         sodipodi:nodetypes="csc" /><circle
         style="fill:#370188;fill-opacity:1;stroke:#370188;stroke-width:0.804104;stroke-opacity:1"
         id="path3-3-6-16-4-6-1"
         r="0.76141715"
         cy="193.12111"
         cx="63.550728"
         inkscape:transform-center-x="-2.5670637"
         inkscape:transform-center-y="-5.6852825e-06"
         transform="scale(-1,1)" /><circle
         style="fill:#370188;fill-opacity:1;stroke:#370188;stroke-width:0.804104;stroke-opacity:1"
         id="path3-3-6-9-41-1-0-5"
         r="0.76141715"
         cy="203.24965"
         cx="63.063553"
         inkscape:transform-center-x="-2.5670302"
         inkscape:transform-center-y="-3.6976775e-06"
         transform="scale(-1,1)" /><circle
         style="fill:#370188;fill-opacity:1;stroke:#370188;stroke-width:0.804104;stroke-opacity:1"
         id="path3-3-6-2-6-2-9-0"
         r="0.76141715"
         cy="212.67653"
         cx="62.582573"
         inkscape:transform-center-x="-2.5670506"
         inkscape:transform-center-y="7.9723223e-06"
         transform="scale(-1,1)" /><circle
         style="fill:#370188;fill-opacity:1;stroke:#370188;stroke-width:0.804104;stroke-opacity:1"
         id="path3-3-6-1-3-7-6-7"
         r="0.76141715"
         cy="222.46812"
         cx="62.747681"
         inkscape:transform-center-x="-2.5670689"
         inkscape:transform-center-y="1.4437816e-05"
         transform="scale(-1,1)" /><circle
         style="fill:#370188;fill-opacity:1;stroke:#370188;stroke-width:0.804104;stroke-opacity:1"
         id="path3-3-6-6-9-8-5-4"
         r="0.76141715"
         cy="232.60564"
         cx="63.320511"
         inkscape:transform-center-x="-2.5670416"
         inkscape:transform-center-y="-8.241693e-06"
         transform="scale(-1,1)" /><circle
         style="fill:#370188;fill-opacity:1;stroke:#370188;stroke-width:0.804104;stroke-opacity:1"
         id="path3-3-6-60-59-6-9-2"
         r="0.76141715"
         cy="242.40001"
         cx="63.891403"
         inkscape:transform-center-x="-2.5670368"
         inkscape:transform-center-y="-1.4574684e-05"
         transform="scale(-1,1)" /><path
         style="fill:#ffffff;fill-opacity:1;stroke:#370188;stroke-width:3.21643;stroke-dasharray:none;stroke-opacity:1"
         d="m -71.372195,136.92984 c -3.37258,-3.08899 -6.144101,1.80683 -3.088957,3.72208"
         id="path15-1-0-5-7"
         sodipodi:nodetypes="cc" /></g><rect
       style="fill:none;fill-opacity:1;fill-rule:nonzero;stroke:#370188;stroke-width:3.175;stroke-dasharray:none;stroke-opacity:1"
       id="rect113-4-2"
       width="282.57498"
       height="354.01248"
       x="1.5875"
       y="1.5875" /><path
       style="fill:none;fill-opacity:1;stroke:#370188;stroke-width:1.5875;stroke-linecap:round;stroke-dasharray:none;stroke-opacity:1"
       d="M 35.882539,158.30993 C 34.390605,143.40191 66.515579,86.847527 66.131461,70.453211"
       id="path13-1-9"
       sodipodi:nodetypes="cc" /><text
       xml:space="preserve"
       style="font-style:normal;font-variant:normal;font-weight:normal;font-stretch:normal;font-size:19.05px;font-family:'Nanum Pen';-inkscape-font-specification:'Nanum Pen';text-align:start;letter-spacing:0px;word-spacing:0px;writing-mode:lr-tb;direction:ltr;text-anchor:start;white-space:pre;inline-size:166.376;display:inline;fill:#370188;fill-opacity:1;stroke:none;stroke-width:1.5875;stroke-linecap:round;stroke-dasharray:none;stroke-opacity:1"
       x="-95.932167"
       y="156.49693"
       id="text17"
       transform="translate(112.37869,-124.18547)"><tspan
         x="-95.932167"
         y="156.49693"
         id="tspan1">Are you sure that you </tspan><tspan
         x="-95.932167"
         y="180.30944"
         id="tspan7">are promting properly?</tspan></text><path
       style="fill:none;fill-opacity:1;stroke:#370188;stroke-width:1.5875;stroke-linecap:round;stroke-dasharray:none;stroke-opacity:1"
       d="M 96.436417,190.05974 C 94.944483,175.15172 175.00837,151.55533 174.62426,135.16102"
       id="path13-1-9-2"
       sodipodi:nodetypes="cc" /><text
       xml:space="preserve"
       style="font-style:normal;font-variant:normal;font-weight:normal;font-stretch:normal;font-size:19.05px;font-family:'Nanum Pen';-inkscape-font-specification:'Nanum Pen';text-align:end;letter-spacing:0px;word-spacing:0px;writing-mode:lr-tb;direction:ltr;text-anchor:end;white-space:pre;inline-size:166.376;display:inline;fill:#370188;fill-opacity:1;stroke:none;stroke-width:1.5875;stroke-linecap:round;stroke-dasharray:none;stroke-opacity:1"
       x="22.639784"
       y="156.49693"
       id="text17-9"
       transform="translate(250.60913,-56.60026)"><tspan
         x="22.639784"
         y="156.49693"
         id="tspan8">yes! I have even set
</tspan><tspan
         x="22.639784"
         y="180.30944"
         id="tspan9">an elaborate role!</tspan></text></g></svg>
