<?xml version="1.0" encoding="UTF-8" standalone="no"?>
<!-- Created with Inkscape (http://www.inkscape.org/) -->

<svg
   width="1080"
   height="1350"
   viewBox="0 0 285.74999 357.1875"
   version="1.1"
   id="svg1"
   inkscape:version="1.4 (e7c3feb1, 2024-10-09)"
   sodipodi:docname="panel-01.svg"
   xmlns:inkscape="http://www.inkscape.org/namespaces/inkscape"
   xmlns:sodipodi="http://sodipodi.sourceforge.net/DTD/sodipodi-0.dtd"
   xmlns="http://www.w3.org/2000/svg"
   xmlns:svg="http://www.w3.org/2000/svg">
  <sodipodi:namedview
     id="namedview1"
     pagecolor="#ffffff"
     bordercolor="#000000"
     borderopacity="0.25"
     inkscape:showpageshadow="2"
     inkscape:pageopacity="0.0"
     inkscape:pagecheckerboard="0"
     inkscape:deskcolor="#d1d1d1"
     inkscape:document-units="px"
     inkscape:zoom="0.53450042"
     inkscape:cx="516.37003"
     inkscape:cy="469.59738"
     inkscape:window-width="1728"
     inkscape:window-height="1057"
     inkscape:window-x="0"
     inkscape:window-y="32"
     inkscape:window-maximized="0"
     inkscape:current-layer="layer1" />
  <defs
     id="defs1">
    <rect
       x="337.60629"
       y="293.08679"
       width="868.13049"
       height="871.84045"
       id="rect26" />
    <rect
       x="358.01108"
       y="335.75131"
       width="877.4054"
       height="734.57196"
       id="rect25" />
    <rect
       x="418.44797"
       y="244.75258"
       width="748.0744"
       height="801.36731"
       id="rect16" />
    <clipPath
       clipPathUnits="userSpaceOnUse"
       id="clipPath3">
      <rect
         style="fill:#370188;stroke:#370188;stroke-width:3.175"
         id="rect4"
         width="387.91391"
         height="225.63065"
         x="-131.6772"
         y="-44.129654"
         ry="1.5951835" />
    </clipPath>
    <clipPath
       clipPathUnits="userSpaceOnUse"
       id="clipPath2">
      <rect
         style="fill:#fdc458;fill-opacity:1;stroke:#370188;stroke-width:1"
         id="rect2"
         width="52.911999"
         height="67.471672"
         x="4.6164827"
         y="-20.951731"
         ry="1.4910408" />
    </clipPath>
    <clipPath
       clipPathUnits="userSpaceOnUse"
       id="clipPath8">
      <rect
         style="fill:none;fill-opacity:1;fill-rule:nonzero;stroke:#370188;stroke-width:3.175;stroke-dasharray:none;stroke-opacity:1"
         id="rect8"
         width="282.57498"
         height="354.01248"
         x="1.5875"
         y="1.5875" />
    </clipPath>
  </defs>
  <g
     inkscape:label="Layer 1"
     inkscape:groupmode="layer"
     id="layer1">
    <rect
       style="fill:#ffffff;fill-opacity:1;stroke:#370188;stroke-width:4.23332;stroke-linecap:round;stroke-dasharray:none;stroke-opacity:1"
       id="rect37-0"
       width="259.29166"
       height="140.15659"
       x="13.758327"
       y="43.186646" />
    <text
       xml:space="preserve"
       transform="scale(0.26458333)"
       id="text16"
       style="font-style:normal;font-variant:normal;font-weight:bold;font-stretch:normal;font-size:60px;font-family:'Josefin Slab';-inkscape-font-specification:'Josefin Slab Bold';text-align:start;letter-spacing:0px;word-spacing:0px;writing-mode:lr-tb;direction:ltr;white-space:pre;shape-inside:url(#rect16);display:inline;fill:#000000;fill-opacity:0;stroke:#370188;stroke-width:12;stroke-opacity:1" />
    <text
       xml:space="preserve"
       transform="scale(0.26458333)"
       id="text25"
       style="font-style:normal;font-variant:normal;font-weight:bold;font-stretch:normal;font-size:60px;font-family:'Josefin Slab';-inkscape-font-specification:'Josefin Slab Bold';text-align:start;letter-spacing:0px;word-spacing:0px;writing-mode:lr-tb;direction:ltr;white-space:pre;shape-inside:url(#rect25);display:inline;fill:#000000;fill-opacity:0;stroke:#370188;stroke-width:12;stroke-opacity:1" />
    <text
       xml:space="preserve"
       transform="scale(0.26458333)"
       id="text26"
       style="font-style:normal;font-variant:normal;font-weight:bold;font-stretch:normal;font-size:60px;font-family:'Josefin Slab';-inkscape-font-specification:'Josefin Slab Bold';text-align:start;letter-spacing:0px;word-spacing:0px;writing-mode:lr-tb;direction:ltr;white-space:pre;shape-inside:url(#rect26);display:inline;fill:#000000;fill-opacity:0;stroke:#370188;stroke-width:12;stroke-opacity:1" />
    <rect
       width="9.8019896"
       height="15.875"
       rx="0"
       ry="0"
       fill="#6002ee"
       stroke-width="0"
       id="rect1-3-4-39-4-2-0-5-6"
       x="247.60098"
       y="332.84583" />
    <text
       font-family="Montserrat"
       font-size="618.11px"
       font-weight="200"
       stroke-width="0"
       fill="#33333"
       id="text3-0-3-0-0-5-3-3-2"
       x="248.33717"
       y="345.42685"
       style="font-style:normal;font-variant:normal;font-weight:300;font-stretch:normal;font-size:13.0774px;font-family:Montserrat;-inkscape-font-specification:'Montserrat Light'"
       transform="scale(0.99938968,1.0006107)"><tspan
         y="345.42685"
         font-weight="200"
         stroke-width="0"
         id="tspan1-4-8-6-2-1-2-5-9"
         style="font-style:normal;font-variant:normal;font-weight:300;font-stretch:normal;font-size:13.0774px;font-family:Montserrat;-inkscape-font-specification:'Montserrat Light'"><tspan
           style="font-style:normal;font-variant:normal;font-weight:300;font-stretch:normal;font-size:13.0774px;font-family:Montserrat;-inkscape-font-specification:'Montserrat Light';fill:#ffffff;fill-opacity:1;stroke-width:0"
           id="tspan3-6-3-13-5-2-1-6-6">k</tspan></tspan></text>
    <text
       dx="0"
       dy="0"
       font-family="Montserrat"
       font-size="465.256px"
       font-weight="200"
       stroke-width="0"
       fill="#33333"
       id="text3-0-3-6-8-4-0-8-9"
       x="195.17656"
       y="345.42685"
       style="font-style:normal;font-variant:normal;font-weight:300;font-stretch:normal;font-size:13.0774px;font-family:Montserrat;-inkscape-font-specification:'Montserrat Light'"
       transform="scale(0.99938968,1.0006107)"><tspan
         y="345.42685"
         font-weight="200"
         stroke-width="0"
         id="tspan1-4-8-3-9-0-0-6-9"
         style="font-style:normal;font-variant:normal;font-weight:300;font-stretch:normal;font-size:13.0774px;font-family:Montserrat;-inkscape-font-specification:'Montserrat Light'">product</tspan></text>
    <text
       font-family="Montserrat"
       font-size="465.256px"
       font-weight="200"
       stroke-width="0"
       fill="#33333"
       id="text3-0-3-6-4-3-4-3-7-8"
       x="257.78415"
       y="345.42685"
       style="font-style:normal;font-variant:normal;font-weight:300;font-stretch:normal;font-size:13.0774px;font-family:Montserrat;-inkscape-font-specification:'Montserrat Light'"
       transform="scale(0.99938968,1.0006107)"><tspan
         y="345.42685"
         font-weight="200"
         stroke-width="0"
         id="tspan1-4-8-3-6-9-9-9-7-0"
         style="font-style:normal;font-variant:normal;font-weight:300;font-stretch:normal;font-size:13.0774px;font-family:Montserrat;-inkscape-font-specification:'Montserrat Light'">ind</tspan></text>
    <text
       xml:space="preserve"
       style="font-style:normal;font-variant:normal;font-weight:normal;font-stretch:normal;font-size:19.05px;font-family:'Nanum Pen';-inkscape-font-specification:'Nanum Pen';text-align:center;letter-spacing:0px;word-spacing:0px;writing-mode:lr-tb;direction:ltr;text-anchor:middle;white-space:pre;inline-size:253.275;display:inline;fill:#370188;fill-opacity:1;stroke:none;stroke-width:1.5875;stroke-linecap:round;stroke-dasharray:none;stroke-opacity:1"
       x="50.677452"
       y="156.49693"
       id="text17-6"
       transform="translate(92.840155,-126.8013)"><tspan
         x="50.677452"
         y="156.49693"
         id="tspan1">This is how we are going to do it!</tspan></text>
    <path
       style="fill:none;fill-opacity:1;stroke:#370188;stroke-width:1.5875;stroke-linecap:round;stroke-dasharray:none;stroke-opacity:1"
       d="m 149.82493,99.256102 c -0.44316,-9.318287 6.31022,-42.950865 6.5506,-65.129175"
       id="path13-1-9-2-1"
       sodipodi:nodetypes="cc" />
    <path
       style="fill:none;stroke:#bb0214;stroke-width:3.175;stroke-linecap:square;stroke-dasharray:none;stroke-opacity:1"
       d="m 41.108598,157.32187 45.0237,-41.76118 16.761962,26.65692 15.86391,-18.17414 63.29419,23.49064 16.31293,-27.40577 22.83811,19.57556 35.88846,-75.692169"
       id="path7"
       sodipodi:nodetypes="cccccccc" />
    <g
       id="g7"
       transform="translate(0,26.458344)">
      <path
         style="fill:#6002ee;fill-opacity:1;stroke:#370188;stroke-width:3.175;stroke-dasharray:none;stroke-opacity:1"
         d="m 119.75134,132.61978 -2.44821,35.65859 51.51866,1.38376 -2.02244,-39.59698 -17.21387,1.59909 -7.64546,8.38447 -5.45373,-7.85101 z"
         id="path25-4-3"
         sodipodi:nodetypes="cccccccc" />
      <path
         style="fill:#fdc458;fill-opacity:1;stroke:#370188;stroke-width:3.175;stroke-dasharray:none;stroke-opacity:1"
         d="m 116.46658,122.67359 c 0,0 -38.472779,27.21073 6.9562,15.58833 z"
         id="path17-0-9"
         sodipodi:nodetypes="ccc" />
      <path
         style="fill:#fdc458;fill-opacity:1;stroke:#370188;stroke-width:3.175;stroke-dasharray:none;stroke-opacity:1"
         d="m 172.7191,123.71248 c 0,0 34.30229,21.19084 -7.53478,15.42339 z"
         id="path16-7-38"
         sodipodi:nodetypes="ccc" />
      <path
         style="fill:#fdc458;fill-opacity:1;stroke:#370188;stroke-width:3.175;stroke-dasharray:none;stroke-opacity:1"
         d="m 159.09721,108.91215 c 17.42596,-38.941913 -49.63084,-38.345143 -32.5915,0.64326 l 15.59274,7.69652 z"
         id="path23-5-65"
         sodipodi:nodetypes="cccc" />
      <circle
         style="fill:#370188;fill-opacity:1;stroke:none;stroke-width:8.13508;stroke-dasharray:none;stroke-opacity:1"
         id="path9-8-6"
         cx="136.83632"
         cy="93.949165"
         r="1.7054044" />
      <circle
         style="fill:#370188;fill-opacity:1;stroke:none;stroke-width:8.13508;stroke-dasharray:none;stroke-opacity:1"
         id="path9-4-0"
         cx="149.33293"
         cy="94.034294"
         r="1.7054044" />
      <path
         style="fill:none;fill-opacity:1;stroke:#370188;stroke-width:3.175;stroke-dasharray:none;stroke-opacity:1"
         d="m 141.79102,99.076857 5.98274,3.094523 -7.22055,3.30085"
         id="path24-70-72" />
      <path
         style="fill:none;fill-opacity:1;stroke:#370188;stroke-width:3.175;stroke-dasharray:none;stroke-opacity:1"
         d="m 142.90525,82.008477 c 5.40633,-4.70872 -5.05749,-5.05753 0.52321,-8.89426"
         id="path26-0-17"
         sodipodi:nodetypes="cc" />
      <path
         style="fill:#6002ee;fill-opacity:1;stroke:#370188;stroke-width:3.175;stroke-linecap:square;stroke-dasharray:none;stroke-opacity:1"
         d="m 142.23066,140.95508 0.0908,13.43111"
         id="path4"
         sodipodi:nodetypes="cc" />
      <path
         style="fill:#ffffff;fill-opacity:1;stroke:#370188;stroke-width:3.175;stroke-linecap:square;stroke-dasharray:none;stroke-opacity:1"
         d="m 124.98803,115.27263 18.09223,1.78086 16.34013,-1.78835 -6.40657,14.67183 4.29974,4.43465 -14.57887,1.14157 -14.04696,-0.75034 z"
         id="path5"
         sodipodi:nodetypes="cccccccc" />
      <path
         style="fill:#016388;fill-opacity:1;fill-rule:nonzero;stroke:#370188;stroke-width:3.175;stroke-dasharray:none;stroke-opacity:1"
         d="m 142.11309,126.81522 3.49218,-8.85517 h -6.36076 z"
         id="path76-1"
         sodipodi:nodetypes="cccc" />
      <path
         style="fill:#ffffff;fill-opacity:1;stroke:#370188;stroke-width:3.175;stroke-linecap:square;stroke-dasharray:none;stroke-opacity:1"
         d="m 158.57445,109.69495 3.35775,6.71554 -14.42936,6.62483 -4.17455,-6.44332 z"
         id="path3-6"
         sodipodi:nodetypes="ccccc" />
      <path
         style="fill:#ffffff;fill-opacity:1;stroke:#370188;stroke-width:3.175;stroke-linecap:square;stroke-dasharray:none;stroke-opacity:1"
         d="m 126.34928,109.37383 -3.35776,6.71554 14.42936,6.62483 4.17456,-6.44332 z"
         id="path3"
         sodipodi:nodetypes="ccccc" />
      <path
         style="fill:#6002ee;fill-opacity:1;stroke:#370188;stroke-width:3.175;stroke-dasharray:none;stroke-opacity:1"
         d="m 125.46536,138.37482 -9.80031,4.0472 -6.6215,-19.13718 15.46045,-10.53913 10.76671,15.37205 3.02358,12.34764 2.32093,-1.77511 6.33822,1.52273 3.02504,-12.71984 10.83317,-13.92467 16.13338,9.57793 -6.5907,18.69104 -9.53128,-3.85836"
         id="path12-0-51"
         sodipodi:nodetypes="ccccccccccccc" />
      <path
         style="fill:#ffffff;fill-opacity:1;stroke:#370188;stroke-width:3.175;stroke-linecap:butt;stroke-dasharray:none;stroke-opacity:1"
         d="m 135.26391,127.78858 7.79412,36.0204 1.47768,-12.30931 5.45078,-24.32854"
         id="path6"
         sodipodi:nodetypes="cccc" />
      <path
         style="fill:#ffffff;fill-opacity:1;stroke:#370188;stroke-width:3.175;stroke-dasharray:none;stroke-opacity:1"
         d="m 103.09008,141.0676 c 0,15.83268 7.10917,26.92819 17.07233,33.28661 2.37048,1.51282 4.90258,2.75751 7.53891,3.73402 23.31663,8.63654 54.78808,-3.70364 54.76376,-37.02063 l -15.06804,15.50715 -15.15129,-6.5761 -19.95754,9.34238 -10.75538,-11.69092 -8.49021,5.14359 z"
         id="path1-8-0"
         sodipodi:nodetypes="cssccccccc" />
      <path
         style="fill:#370189;fill-opacity:1;stroke:#370188;stroke-width:0;stroke-dasharray:none;stroke-opacity:1"
         d="m 127.01809,176.40354 -3.82692,-5.27259 5.07117,2.35369 1.32626,-3.92795 0.37681,4.14213 4.16998,-3.19913 -2.57346,4.76485 5.63245,0.54648 -3.69281,2.899 z"
         id="path3-2-8"
         sodipodi:nodetypes="cccccccccc" />
      <path
         style="fill:#370189;fill-opacity:1;stroke:#370188;stroke-width:0;stroke-dasharray:none;stroke-opacity:1"
         d="m 158.16281,176.93989 3.03511,-5.32825 -4.74552,2.65567 -0.40824,-3.99876 -1.23583,4.49196 -4.72466,-1.36681 3.40941,3.17529 -4.7818,1.08258 4.5025,2.28216 z"
         id="path3-1-5-3"
         sodipodi:nodetypes="cccccccccc" />
      <path
         style="fill:#ee4302;fill-opacity:1;stroke:#370188;stroke-width:3.175;stroke-dasharray:none;stroke-opacity:1"
         d="m 127.61242,177.73361 c -0.0908,0.82798 -0.11081,10.87927 -0.11081,10.87927 l -7.65791,4.01428 9.17048,-1.55093 0.74286,0.90942 0.70027,-0.93298 8.75249,1.41577 -6.92597,-3.71139 c 0,0 0.0702,-8.9828 0.0127,-9.10428 z"
         id="path7-8-70"
         sodipodi:nodetypes="cccccccccc" />
      <path
         style="fill:#ee4302;fill-opacity:1;stroke:#370188;stroke-width:3.175;stroke-dasharray:none;stroke-opacity:1"
         d="m 157.65097,176.99571 0.34004,12.60688 7.87114,2.69119 -9.9795,-1.45317 -0.74285,0.90942 -0.70031,-0.93297 -9.07622,1.20135 7.41826,-3.10318 c 0,0 0.16637,-9.20293 0.17971,-9.394 z"
         id="path7-4-0-9"
         sodipodi:nodetypes="cccccccccc" />
      <path
         style="fill:#016388;fill-opacity:1;fill-rule:nonzero;stroke:#370188;stroke-width:3.175;stroke-dasharray:none;stroke-opacity:1"
         d="m 142.24355,126.55376 -4.10366,24.92311 4.29981,8.04482 4.43852,-7.90614 z"
         id="path75-6"
         sodipodi:nodetypes="ccccc" />
    </g>
    <g
       id="g2"
       clip-path="url(#clipPath2)"
       transform="matrix(3.1749999,0,0,3.1749999,99.922431,170.66052)">
      <path
         style="fill:#bb7a02;fill-opacity:1;stroke:#370188;stroke-width:1;stroke-dasharray:none;stroke-opacity:1"
         d="m 44.741676,36.203723 10.07164,1.854506 13.26439,-1.909846 -4.24343,-11.454819 -15.18611,-0.931933 z"
         id="path31-0"
         sodipodi:nodetypes="cccccc" />
      <path
         style="fill:#fdc458;fill-opacity:1;stroke:#370188;stroke-width:1;stroke-dasharray:none;stroke-opacity:1"
         d="m 39.778466,23.424205 c -1.751097,0.302522 -2.593294,1.360662 -3.137882,1.940006 -0.828771,0.881665 -1.57216,0.757981 -1.46695,-0.229668 0.188201,-1.766725 3.209736,-3.631771 4.473222,-3.750084"
         id="path30-80"
         sodipodi:nodetypes="cssc" />
      <path
         style="fill:#fdc458;fill-opacity:1;stroke:#370188;stroke-width:1;stroke-dasharray:none;stroke-opacity:1"
         d="m 44.870486,12.3974 c -3.82065,0.0838 -5.00544,3.521944 -5.08658,5.678286 -0.11334,3.012028 -0.438201,12.916805 0.60521,16.643238 1.0434,3.726433 1.63962,4.918891 7.60191,5.067949 5.9623,0.149057 20.86803,-0.149058 20.86803,-0.149058 0,0 -15.87498,-1.807224 -17.66367,-4.937428 -1.78869,-3.130204 -2.10274,-13.245437 -2.0119,-16.526826 0.0653,-2.357491 -0.73563,-5.627104 -4.313,-5.776161 z"
         id="path26-47"
         sodipodi:nodetypes="cssscssc" />
      <path
         sodipodi:type="spiral"
         style="fill:#bb7a02;fill-opacity:1;fill-rule:evenodd;stroke:#370188;stroke-width:0.695287;stroke-dasharray:none;stroke-opacity:1"
         id="path27-61"
         sodipodi:cx="105.75211"
         sodipodi:cy="39.133308"
         sodipodi:expansion="1.9"
         sodipodi:revolution="1.8526812"
         sodipodi:radius="10.963904"
         sodipodi:argument="-18.497511"
         sodipodi:t0="0.12886804"
         d="m 105.69006,39.348002 c -0.32401,0.23185 -0.69518,-0.169724 -0.77545,-0.456763 -0.23505,-0.84048 0.61833,-1.513252 1.36817,-1.59391 1.54382,-0.166068 2.64192,1.346958 2.66371,2.75927 0.0376,2.433734 -2.34374,4.074062 -4.61129,3.978909 -3.50843,-0.147224 -5.803332,-3.600767 -5.534662,-6.911455 0.386726,-4.765445 5.112132,-7.824404 9.650082,-7.326992 2.50124,0.274164 4.82855,1.527219 6.51074,3.386706"
         transform="matrix(-1.4382541,0,0,1.4382541,214.8687,-24.908647)" />
      <circle
         style="fill:#fdc458;fill-opacity:1;stroke:#370188;stroke-width:1;stroke-dasharray:none;stroke-opacity:1"
         id="path28-6"
         cx="38.708046"
         cy="6.5542994"
         r="0.77635616" />
      <path
         style="fill:#ffffff;fill-opacity:1;stroke:#370188;stroke-width:1;stroke-dasharray:none;stroke-opacity:1"
         d="M 41.658196,13.293071 39.173864,7.4548731"
         id="path29-1" />
      <circle
         style="fill:#fdc458;fill-opacity:1;stroke:#370188;stroke-width:1;stroke-dasharray:none;stroke-opacity:1"
         id="path28-0-4"
         cx="-50.410904"
         cy="6.4534349"
         r="0.77635616"
         transform="scale(-1,1)" />
      <path
         style="fill:#ffffff;fill-opacity:1;stroke:#370188;stroke-width:1;stroke-dasharray:none;stroke-opacity:1"
         d="m 47.460756,13.192206 2.48433,-5.8381979"
         id="path29-6-9" />
      <circle
         style="fill:#370188;fill-opacity:1;stroke:none;stroke-width:3.97515;stroke-dasharray:none;stroke-opacity:1"
         id="path9-6"
         cx="42.742683"
         cy="16.771786"
         r="0.83333331" />
      <circle
         style="fill:#370188;fill-opacity:1;stroke:none;stroke-width:3.97515;stroke-dasharray:none;stroke-opacity:1"
         id="path9-5-4"
         cx="45.917267"
         cy="16.949604"
         r="0.83333331" />
      <path
         style="fill:#fdc458;fill-opacity:1;stroke:#370188;stroke-width:1;stroke-dasharray:none;stroke-opacity:1"
         d="m 48.501936,23.247449 c 1.75109,0.302522 2.49446,1.953646 3.03905,2.53299 0.82877,0.881665 1.67099,0.527376 1.56578,-0.460273 -0.1882,-1.766725 -3.20974,-3.99415 -4.47322,-4.112463"
         id="path30-2-2"
         sodipodi:nodetypes="cssc" />
      <path
         style="mix-blend-mode:normal;fill:#02ee25;fill-opacity:1;fill-rule:nonzero;stroke:#370188;stroke-width:1;stroke-dasharray:none;stroke-opacity:1"
         d="m 38.946068,21.507141 0.511927,2.119187 -0.21218,1.637019 c 0,1.500673 -0.0199,9.956147 -2.667219,13.291934 4.98838,0.17497 25.14443,-0.04888 27.8223,-0.05739 -11.67011,-1.571153 -14.97834,-12.802599 -15.55469,-13.933461 -0.083,-0.162765 -0.0732,-0.840823 -0.0732,-0.840823 l 0.84366,-1.967865 -0.91598,-0.979057 -1.56457,1.954961 -6.1442,-0.05115 -1.0867,-1.986774 z"
         id="path33-8"
         sodipodi:nodetypes="cccccsccccccc" />
    </g>
    <path
       style="fill:#b98bfe;fill-opacity:1;fill-rule:nonzero;stroke:#370188;stroke-width:3.175;stroke-dasharray:none;stroke-opacity:1"
       d="m 82.460599,222.40555 c 16.196341,5.3238 13.876401,14.98207 -2.924175,11.0971"
       id="path61"
       sodipodi:nodetypes="cc" />
    <g
       id="g8"
       clip-path="url(#clipPath8)"
       transform="translate(0,26.458344)">
      <path
         style="fill:#b98bfe;fill-opacity:1;fill-rule:nonzero;stroke:#370188;stroke-width:3.175;stroke-dasharray:none;stroke-opacity:1"
         d="m 21.213486,243.95277 c -14.3847502,-0.25686 -19.4324292,-7.842 -21.83396719,-15.15534 -3.22392601,-9.8177 -7.98582301,-11.95542 -12.58661981,-3.08245 -3.596195,6.9355 -7.962995,2.05497 -5.137436,-2.05496 2.825592,-4.10992 6.395688,-10.61688 14.8984968,-8.21985 8.748744,2.46636 4.880546,24.14581 25.4301302,23.63207"
         id="path68"
         sodipodi:nodetypes="cssssc" />
      <path
         style="fill:#b98bfe;fill-opacity:1;fill-rule:nonzero;stroke:#370188;stroke-width:3.175;stroke-dasharray:none;stroke-opacity:1"
         d="m 12.320184,195.52839 c -16.1963412,5.3238 -13.8764012,14.98207 2.924175,11.09709"
         id="path61-9"
         sodipodi:nodetypes="cc" />
      <path
         style="fill:#b98bfe;fill-opacity:1;fill-rule:nonzero;stroke:#370188;stroke-width:3.175;stroke-dasharray:none;stroke-opacity:1"
         d="m 65.111351,180.79369 c 25.532683,-25.40051 6.656482,-52.88401 -18.841465,-51.92556 -25.115963,0.9441 -40.3705052,29.17676 -17.009109,51.85551 -3.854259,24.96866 -6.10842,70.52398 -6.659219,104.67395 1.63141,9.34331 16.160781,8.97821 17.238154,-1.43651 1.077404,-10.41472 14.01283,-11.94105 14.579377,-0.16732 0.503428,10.462 17.310893,10.41553 17.742185,-0.1918 2.537079,-17.45115 -5.034814,-77.48945 -7.049923,-102.80824 z"
         id="path49"
         sodipodi:nodetypes="csccssccc" />
      <path
         style="fill:#370188;fill-opacity:1;fill-rule:nonzero;stroke:#370188;stroke-width:3.175;stroke-dasharray:none;stroke-opacity:1"
         d="m 47.572271,163.29419 c -0.532384,0.0111 -3.572764,-4.01333 -3.315081,-4.46341 0.25781,-0.45009 6.116733,-0.63218 6.465793,-0.15107 0.349059,0.48111 -2.618328,4.6035 -3.150712,4.61448 z"
         id="path51"
         sodipodi:nodetypes="zzzz" />
      <path
         style="fill:#6002ee;fill-opacity:1;fill-rule:nonzero;stroke:#370188;stroke-width:3.175;stroke-dasharray:none;stroke-opacity:1"
         d="m 40.677981,160.31659 -9.244456,1.75721"
         id="path52" />
      <path
         style="fill:#6002ee;fill-opacity:1;fill-rule:nonzero;stroke:#370188;stroke-width:3.175;stroke-dasharray:none;stroke-opacity:1"
         d="m 42.129591,164.44221 -7.33444,3.66722"
         id="path53" />
      <path
         style="fill:#6002ee;fill-opacity:1;fill-rule:nonzero;stroke:#370188;stroke-width:3.175;stroke-dasharray:none;stroke-opacity:1"
         d="m 54.714815,160.19143 9.244455,1.75721"
         id="path52-5" />
      <path
         style="fill:#6002ee;fill-opacity:1;fill-rule:nonzero;stroke:#370188;stroke-width:3.175;stroke-dasharray:none;stroke-opacity:1"
         d="m 53.263205,164.31705 7.334439,3.66722"
         id="path53-5" />
      <path
         style="fill:#ee02ca;fill-opacity:1;fill-rule:nonzero;stroke:#370188;stroke-width:3.175;stroke-dasharray:none;stroke-opacity:1"
         d="m 17.243938,283.87523 26.582877,0.41306 3.298126,-15.55068 3.430556,15.49144 27.349767,-0.10287 -5.70738,-57.54784 -53.14426,0.29356 z"
         id="path55"
         sodipodi:nodetypes="cccccccc" />
      <path
         style="fill:#ee02ca;fill-opacity:1;fill-rule:nonzero;stroke:#370188;stroke-width:3.175;stroke-dasharray:none;stroke-opacity:1"
         d="m 29.22963,179.84944 -16.872902,71.52352 66.134674,-0.3447 -12.378974,-70.83413 -15.05207,4.21068 -4.050411,7.53825 -3.712876,-7.31323 z"
         id="path56"
         sodipodi:nodetypes="cccccccc" />
      <path
         style="fill:#ee02ca;fill-opacity:1;fill-rule:nonzero;stroke:#370188;stroke-width:3.175;stroke-dasharray:none;stroke-opacity:1"
         d="m 65.497145,186.15665 17.539463,6.13268 -3.434271,17.48754 -13.614559,-3.06634"
         id="path57"
         sodipodi:nodetypes="cccc" />
      <path
         style="fill:#ee02ca;fill-opacity:1;fill-rule:nonzero;stroke:#370188;stroke-width:3.175;stroke-dasharray:none;stroke-opacity:1"
         d="m 28.883079,185.97351 -17.539462,6.13269 3.434271,17.48754 13.614558,-3.06634"
         id="path57-4"
         sodipodi:nodetypes="cccc" />
      <path
         style="fill:#ee02ca;fill-opacity:1;fill-rule:nonzero;stroke:#370188;stroke-width:3.175;stroke-dasharray:none;stroke-opacity:1"
         d="m 66.152941,180.21835 3.91468,6.00247 -17.09404,5.21954 -1.21104,-6.91701 z"
         id="path58"
         sodipodi:nodetypes="ccccc" />
      <path
         style="fill:#ee02ca;fill-opacity:1;fill-rule:nonzero;stroke:#370188;stroke-width:3.175;stroke-dasharray:none;stroke-opacity:1"
         d="m 42.4429,184.26349 -13.218223,-4.43661 -3.914648,6.43651 14.98673,4.87936 z"
         id="path59"
         sodipodi:nodetypes="ccccc" />
      <path
         style="fill:#ffffff;fill-opacity:1;fill-rule:nonzero;stroke:#370188;stroke-width:3.175;stroke-dasharray:none;stroke-opacity:1"
         d="m 46.981531,190.46144 -3.2e-5,59.83336"
         id="path60"
         sodipodi:nodetypes="cc" />
      <circle
         style="fill:#370188;fill-opacity:1;stroke:#370188;stroke-width:0.797947;stroke-opacity:1"
         id="path3-3-6-6-7"
         r="0.75558645"
         cy="235.21953"
         cx="-41.746384"
         inkscape:transform-center-x="-2.547397"
         inkscape:transform-center-y="-7.9173349e-05"
         transform="scale(-1,1)" />
      <circle
         style="fill:#370188;fill-opacity:1;stroke:#370188;stroke-width:0.797947;stroke-opacity:1"
         id="path3-3-6-60-5"
         r="0.75558645"
         cy="244.49632"
         cx="-41.976749"
         inkscape:transform-center-x="-2.5474326"
         inkscape:transform-center-y="1.983531e-06"
         transform="scale(-1,1)" />
      <circle
         style="fill:#370188;fill-opacity:1;stroke:#370188;stroke-width:0.797947;stroke-opacity:1"
         id="path3-3-6-6-7-0"
         r="0.75558645"
         cy="217.2108"
         cx="-42.038227"
         inkscape:transform-center-x="-2.547397"
         inkscape:transform-center-y="-7.9173349e-05"
         transform="scale(-1,1)" />
      <circle
         style="fill:#370188;fill-opacity:1;stroke:#370188;stroke-width:0.797947;stroke-opacity:1"
         id="path3-3-6-60-5-3"
         r="0.75558645"
         cy="226.222"
         cx="-41.825935"
         inkscape:transform-center-x="-2.5474326"
         inkscape:transform-center-y="1.983531e-06"
         transform="scale(-1,1)" />
      <circle
         style="fill:#370188;fill-opacity:1;stroke:#370188;stroke-width:0.797947;stroke-opacity:1"
         id="path3-3-6-6-7-0-0"
         r="0.75558645"
         cy="198.59038"
         cx="-42.129745"
         inkscape:transform-center-x="-2.547397"
         inkscape:transform-center-y="-7.9173349e-05"
         transform="scale(-1,1)" />
      <circle
         style="fill:#370188;fill-opacity:1;stroke:#370188;stroke-width:0.797947;stroke-opacity:1"
         id="path3-3-6-60-5-3-6"
         r="0.75558645"
         cy="208.13275"
         cx="-42.094524"
         inkscape:transform-center-x="-2.5474326"
         inkscape:transform-center-y="1.983531e-06"
         transform="scale(-1,1)" />
      <path
         style="fill:#ffffff;fill-opacity:1;fill-rule:nonzero;stroke:#370188;stroke-width:3.175;stroke-dasharray:none;stroke-opacity:1"
         d="m 64.637768,143.3948 c 0,0 -9.835196,-1.20621 -12.340398,1.48455 -2.505202,2.69076 -1.57734,10.4847 3.525805,10.29913 5.103177,-0.18558 9.278524,-3.61861 8.814593,-11.78368 z"
         id="path62" />
      <path
         style="fill:#ffffff;fill-opacity:1;fill-rule:nonzero;stroke:#370188;stroke-width:3.175;stroke-dasharray:none;stroke-opacity:1"
         d="m 30.631901,143.51911 c 0,0 9.835197,-1.2062 12.340399,1.48456 2.505202,2.69076 1.57734,10.48469 -3.525806,10.29913 -5.103177,-0.18558 -9.278524,-3.61862 -8.814593,-11.78369 z"
         id="path62-2" />
      <circle
         style="fill:#370188;fill-opacity:1;stroke:none;stroke-width:12.6211;stroke-dasharray:none;stroke-opacity:1"
         id="path9-5-7"
         cx="-57.109257"
         cy="149.3555"
         r="2.6458333"
         transform="scale(-1,1)" />
      <circle
         style="fill:#370188;fill-opacity:1;stroke:none;stroke-width:12.6211;stroke-dasharray:none;stroke-opacity:1"
         id="path9-5-7-6"
         cx="-38.045982"
         cy="149.45212"
         r="2.6458333"
         transform="scale(-1,1)" />
      <path
         style="fill:#ffffff;fill-opacity:1;fill-rule:nonzero;stroke:#370188;stroke-width:3.175;stroke-dasharray:none;stroke-opacity:1"
         d="m 64.836174,145.60535 8.09517,-1.80952"
         id="path63" />
      <path
         style="fill:#ffffff;fill-opacity:1;fill-rule:nonzero;stroke:#370188;stroke-width:3.175;stroke-dasharray:none;stroke-opacity:1"
         d="m 30.455434,145.9863 -8.571357,-1.71428"
         id="path64" />
      <path
         style="fill:#ffffff;fill-opacity:1;fill-rule:nonzero;stroke:#370188;stroke-width:3.175;stroke-dasharray:none;stroke-opacity:1"
         d="m 51.312453,147.98628 c -0.857123,-1.5238 -5.809488,-1.80951 -7.333297,-0.28571"
         id="path65" />
      <path
         style="fill:#b98bfe;fill-opacity:1;fill-rule:nonzero;stroke:#370188;stroke-width:3.175;stroke-dasharray:none;stroke-opacity:1"
         d="m 29.551575,137.67736 c 0,0 -1.313275,-13.11396 0.936212,-14.04122 2.249488,-0.92726 10.698036,10.16317 10.698036,10.16317"
         id="path66-0"
         sodipodi:nodetypes="czc" />
      <path
         style="fill:#b98bfe;fill-opacity:1;fill-rule:nonzero;stroke:#370188;stroke-width:3.175;stroke-dasharray:none;stroke-opacity:1"
         d="m 66.835693,137.80373 c 0,0 1.313275,-13.11396 -0.936212,-14.04122 -2.249487,-0.92726 -10.698034,10.16317 -10.698034,10.16317"
         id="path66-0-3"
         sodipodi:nodetypes="czc" />
      <path
         style="fill:none;fill-opacity:1;fill-rule:nonzero;stroke:#370188;stroke-width:3.175;stroke-dasharray:none;stroke-opacity:1"
         d="m 47.396277,269.93678 4.003865,0.24578 -2.77495,-14.501"
         id="path78"
         sodipodi:nodetypes="ccc" />
    </g>
    <rect
       style="fill:none;fill-opacity:1;fill-rule:nonzero;stroke:#370188;stroke-width:3.175;stroke-dasharray:none;stroke-opacity:1"
       id="rect113-4-2"
       width="282.57498"
       height="354.01248"
       x="1.5875"
       y="1.5875" />
    <path
       style="fill:#ffffff;fill-opacity:1;stroke:#370188;stroke-width:3.175;stroke-linecap:square;stroke-dasharray:none;stroke-opacity:1"
       d="M 203.85441,189.35428 H 87.238027 L 25.118705,324.43633 H 262.01035 Z"
       id="path8"
       sodipodi:nodetypes="ccccc" />
  </g>
</svg>
