<?xml version="1.0" encoding="UTF-8" standalone="no"?>
<!-- Created with Inkscape (http://www.inkscape.org/) -->

<svg
   width="1080"
   height="1350"
   viewBox="0 0 285.74999 357.1875"
   version="1.1"
   id="svg1"
   inkscape:version="1.4 (e7c3feb1, 2024-10-09)"
   sodipodi:docname="panel-02.svg"
   xmlns:inkscape="http://www.inkscape.org/namespaces/inkscape"
   xmlns:sodipodi="http://sodipodi.sourceforge.net/DTD/sodipodi-0.dtd"
   xmlns="http://www.w3.org/2000/svg"
   xmlns:svg="http://www.w3.org/2000/svg">
  <sodipodi:namedview
     id="namedview1"
     pagecolor="#ffffff"
     bordercolor="#000000"
     borderopacity="0.25"
     inkscape:showpageshadow="2"
     inkscape:pageopacity="0.0"
     inkscape:pagecheckerboard="0"
     inkscape:deskcolor="#d1d1d1"
     inkscape:document-units="px"
     inkscape:zoom="0.37172659"
     inkscape:cx="336.26865"
     inkscape:cy="785.52357"
     inkscape:window-width="1728"
     inkscape:window-height="1057"
     inkscape:window-x="0"
     inkscape:window-y="32"
     inkscape:window-maximized="0"
     inkscape:current-layer="layer1" />
  <defs
     id="defs1">
    <rect
       x="337.60629"
       y="293.08679"
       width="868.13049"
       height="871.84045"
       id="rect26" />
    <rect
       x="358.01108"
       y="335.75131"
       width="877.4054"
       height="734.57196"
       id="rect25" />
    <rect
       x="418.44797"
       y="244.75258"
       width="748.0744"
       height="801.36731"
       id="rect16" />
    <clipPath
       clipPathUnits="userSpaceOnUse"
       id="clipPath3">
      <rect
         style="fill:#370188;stroke:#370188;stroke-width:3.175"
         id="rect4"
         width="387.91391"
         height="225.63065"
         x="-131.6772"
         y="-44.129654"
         ry="1.5951835" />
    </clipPath>
  </defs>
  <g
     inkscape:label="Layer 1"
     inkscape:groupmode="layer"
     id="layer1">
    <text
       xml:space="preserve"
       transform="scale(0.26458333)"
       id="text16"
       style="font-style:normal;font-variant:normal;font-weight:bold;font-stretch:normal;font-size:60px;font-family:'Josefin Slab';-inkscape-font-specification:'Josefin Slab Bold';text-align:start;letter-spacing:0px;word-spacing:0px;writing-mode:lr-tb;direction:ltr;white-space:pre;shape-inside:url(#rect16);display:inline;fill:#000000;fill-opacity:0;stroke:#370188;stroke-width:12;stroke-opacity:1" />
    <text
       xml:space="preserve"
       transform="scale(0.26458333)"
       id="text25"
       style="font-style:normal;font-variant:normal;font-weight:bold;font-stretch:normal;font-size:60px;font-family:'Josefin Slab';-inkscape-font-specification:'Josefin Slab Bold';text-align:start;letter-spacing:0px;word-spacing:0px;writing-mode:lr-tb;direction:ltr;white-space:pre;shape-inside:url(#rect25);display:inline;fill:#000000;fill-opacity:0;stroke:#370188;stroke-width:12;stroke-opacity:1" />
    <text
       xml:space="preserve"
       transform="scale(0.26458333)"
       id="text26"
       style="font-style:normal;font-variant:normal;font-weight:bold;font-stretch:normal;font-size:60px;font-family:'Josefin Slab';-inkscape-font-specification:'Josefin Slab Bold';text-align:start;letter-spacing:0px;word-spacing:0px;writing-mode:lr-tb;direction:ltr;white-space:pre;shape-inside:url(#rect26);display:inline;fill:#000000;fill-opacity:0;stroke:#370188;stroke-width:12;stroke-opacity:1" />
    <rect
       style="fill:none;fill-opacity:1;fill-rule:nonzero;stroke:#370188;stroke-width:3.175;stroke-dasharray:none;stroke-opacity:1"
       id="rect113-4-2"
       width="282.57498"
       height="354.01248"
       x="1.5875"
       y="1.5875" />
    <rect
       width="9.8019896"
       height="15.875"
       rx="0"
       ry="0"
       fill="#6002ee"
       stroke-width="0"
       id="rect1-3-4-39-4-2-0-5-6"
       x="247.60098"
       y="332.84583" />
    <text
       font-family="Montserrat"
       font-size="618.11px"
       font-weight="200"
       stroke-width="0"
       fill="#33333"
       id="text3-0-3-0-0-5-3-3-2"
       x="248.33717"
       y="345.42685"
       style="font-style:normal;font-variant:normal;font-weight:300;font-stretch:normal;font-size:13.0774px;font-family:Montserrat;-inkscape-font-specification:'Montserrat Light'"
       transform="scale(0.99938968,1.0006107)"><tspan
         y="345.42685"
         font-weight="200"
         stroke-width="0"
         id="tspan1-4-8-6-2-1-2-5-9"
         style="font-style:normal;font-variant:normal;font-weight:300;font-stretch:normal;font-size:13.0774px;font-family:Montserrat;-inkscape-font-specification:'Montserrat Light'"><tspan
           style="font-style:normal;font-variant:normal;font-weight:300;font-stretch:normal;font-size:13.0774px;font-family:Montserrat;-inkscape-font-specification:'Montserrat Light';fill:#ffffff;fill-opacity:1;stroke-width:0"
           id="tspan3-6-3-13-5-2-1-6-6">k</tspan></tspan></text>
    <text
       dx="0"
       dy="0"
       font-family="Montserrat"
       font-size="465.256px"
       font-weight="200"
       stroke-width="0"
       fill="#33333"
       id="text3-0-3-6-8-4-0-8-9"
       x="195.17656"
       y="345.42685"
       style="font-style:normal;font-variant:normal;font-weight:300;font-stretch:normal;font-size:13.0774px;font-family:Montserrat;-inkscape-font-specification:'Montserrat Light'"
       transform="scale(0.99938968,1.0006107)"><tspan
         y="345.42685"
         font-weight="200"
         stroke-width="0"
         id="tspan1-4-8-3-9-0-0-6-9"
         style="font-style:normal;font-variant:normal;font-weight:300;font-stretch:normal;font-size:13.0774px;font-family:Montserrat;-inkscape-font-specification:'Montserrat Light'">product</tspan></text>
    <text
       font-family="Montserrat"
       font-size="465.256px"
       font-weight="200"
       stroke-width="0"
       fill="#33333"
       id="text3-0-3-6-4-3-4-3-7-8"
       x="257.78415"
       y="345.42685"
       style="font-style:normal;font-variant:normal;font-weight:300;font-stretch:normal;font-size:13.0774px;font-family:Montserrat;-inkscape-font-specification:'Montserrat Light'"
       transform="scale(0.99938968,1.0006107)"><tspan
         y="345.42685"
         font-weight="200"
         stroke-width="0"
         id="tspan1-4-8-3-6-9-9-9-7-0"
         style="font-style:normal;font-variant:normal;font-weight:300;font-stretch:normal;font-size:13.0774px;font-family:Montserrat;-inkscape-font-specification:'Montserrat Light'">ind</tspan></text>
    <g
       id="g1"
       clip-path="url(#clipPath3)"
       transform="translate(-0.71176863,103.20645)">
      <path
         style="fill:#b98bfe;fill-opacity:1;fill-rule:nonzero;stroke:#370188;stroke-width:3.175;stroke-dasharray:none;stroke-opacity:1"
         d="m 89.967736,181.44226 c 14.384754,-0.25686 19.432424,-7.842 21.833964,-15.15535 3.22393,-9.8177 7.98583,-11.95541 12.58662,-3.08244 3.5962,6.9355 7.963,2.05496 5.13744,-2.05496 -2.82559,-4.10993 -6.39569,-10.61688 -14.8985,-8.21985 -8.74874,2.46635 -4.88054,24.14581 -25.430128,23.63207"
         id="path68"
         sodipodi:nodetypes="cssssc" />
      <path
         style="fill:#b98bfe;fill-opacity:1;fill-rule:nonzero;stroke:#370188;stroke-width:3.175;stroke-dasharray:none;stroke-opacity:1"
         d="m 98.861038,133.01788 c 16.196342,5.32379 13.876402,14.98207 -2.924175,11.09709"
         id="path61-9"
         sodipodi:nodetypes="cc" />
      <path
         style="fill:#b98bfe;fill-opacity:1;fill-rule:nonzero;stroke:#370188;stroke-width:3.175;stroke-dasharray:none;stroke-opacity:1"
         d="m 28.720623,133.43654 c -16.196341,5.3238 -13.876401,14.98207 2.924175,11.09709"
         id="path61"
         sodipodi:nodetypes="cc" />
      <path
         style="fill:#b98bfe;fill-opacity:1;fill-rule:nonzero;stroke:#370188;stroke-width:3.175;stroke-dasharray:none;stroke-opacity:1"
         d="M 46.06987,118.28317 C 20.537188,92.882674 39.413388,65.399173 64.911336,66.357626 c 25.115963,0.944096 40.370504,29.17676 17.009109,51.855504 3.854259,24.96866 10.080307,70.52398 10.631106,104.67395 -1.63141,9.34331 -16.160781,8.97821 -17.238154,-1.43651 -1.077404,-10.41472 -14.01283,-11.94106 -14.579377,-0.16732 -0.503428,10.462 -17.310893,10.41553 -17.742185,-0.19181 C 40.454756,203.6403 44.054761,143.602 46.06987,118.2832 Z"
         id="path49"
         sodipodi:nodetypes="csccssccc" />
      <path
         style="fill:#370188;fill-opacity:1;fill-rule:nonzero;stroke:#370188;stroke-width:3.175;stroke-dasharray:none;stroke-opacity:1"
         d="m 63.608951,100.78368 c 0.532384,0.0111 3.572764,-4.01333 3.315081,-4.463411 -0.25781,-0.450082 -6.116733,-0.632178 -6.465793,-0.151067 -0.349059,0.481111 2.618328,4.603498 3.150712,4.614478 z"
         id="path51"
         sodipodi:nodetypes="zzzz" />
      <path
         style="fill:#6002ee;fill-opacity:1;fill-rule:nonzero;stroke:#370188;stroke-width:3.175;stroke-dasharray:none;stroke-opacity:1"
         d="m 70.503241,97.806086 9.244456,1.75721"
         id="path52" />
      <path
         style="fill:#6002ee;fill-opacity:1;fill-rule:nonzero;stroke:#370188;stroke-width:3.175;stroke-dasharray:none;stroke-opacity:1"
         d="m 69.051631,101.9317 7.33444,3.66722"
         id="path53" />
      <path
         style="fill:#6002ee;fill-opacity:1;fill-rule:nonzero;stroke:#370188;stroke-width:3.175;stroke-dasharray:none;stroke-opacity:1"
         d="m 56.466407,97.680928 -9.244456,1.75721"
         id="path52-5" />
      <path
         style="fill:#6002ee;fill-opacity:1;fill-rule:nonzero;stroke:#370188;stroke-width:3.175;stroke-dasharray:none;stroke-opacity:1"
         d="m 57.918017,101.80654 -7.33444,3.66722"
         id="path53-5" />
      <path
         style="fill:#ee02ca;fill-opacity:1;fill-rule:nonzero;stroke:#370188;stroke-width:3.175;stroke-dasharray:none;stroke-opacity:1"
         d="m 37.735464,221.72579 26.582877,0.41306 3.298126,-15.55067 3.430556,15.49144 27.349767,-0.10287 -5.70738,-57.54785 -53.14426,0.29356 z"
         id="path55"
         sodipodi:nodetypes="cccccccc" />
      <path
         style="fill:#ee02ca;fill-opacity:1;fill-rule:nonzero;stroke:#370188;stroke-width:3.175;stroke-dasharray:none;stroke-opacity:1"
         d="m 81.951592,117.33892 16.872902,71.52353 -63.398589,-0.3447 9.642888,-70.83413 15.052071,4.21067 4.050411,7.53826 3.712876,-7.31323 z"
         id="path56"
         sodipodi:nodetypes="cccccccc" />
      <path
         style="fill:#ee02ca;fill-opacity:1;fill-rule:nonzero;stroke:#370188;stroke-width:3.175;stroke-dasharray:none;stroke-opacity:1"
         d="m 45.684076,123.64614 -17.539462,6.13268 3.434271,17.48754 13.614558,-3.06634"
         id="path57"
         sodipodi:nodetypes="cccc" />
      <path
         style="fill:#ee02ca;fill-opacity:1;fill-rule:nonzero;stroke:#370188;stroke-width:3.175;stroke-dasharray:none;stroke-opacity:1"
         d="m 82.298143,123.463 17.539461,6.13268 -3.43427,17.48755 -13.614558,-3.06635"
         id="path57-4"
         sodipodi:nodetypes="cccc" />
      <path
         style="fill:#ee02ca;fill-opacity:1;fill-rule:nonzero;stroke:#370188;stroke-width:3.175;stroke-dasharray:none;stroke-opacity:1"
         d="m 45.02828,117.70783 -3.91468,6.00248 17.094041,5.21954 1.21104,-6.91701 z"
         id="path58"
         sodipodi:nodetypes="ccccc" />
      <path
         style="fill:#ee02ca;fill-opacity:1;fill-rule:nonzero;stroke:#370188;stroke-width:3.175;stroke-dasharray:none;stroke-opacity:1"
         d="m 68.738322,121.75298 13.218223,-4.43661 3.914648,6.43651 -14.98673,4.87935 z"
         id="path59"
         sodipodi:nodetypes="ccccc" />
      <path
         style="fill:#ffffff;fill-opacity:1;fill-rule:nonzero;stroke:#370188;stroke-width:3.175;stroke-dasharray:none;stroke-opacity:1"
         d="m 64.199691,127.95093 3.2e-5,59.83336"
         id="path60"
         sodipodi:nodetypes="cc" />
      <circle
         style="fill:#370188;fill-opacity:1;stroke:#370188;stroke-width:0.797947;stroke-opacity:1"
         id="path3-3-6-6-7"
         r="0.75558645"
         cy="172.70903"
         cx="69.434837"
         inkscape:transform-center-x="2.5473966"
         inkscape:transform-center-y="-7.9173349e-05" />
      <circle
         style="fill:#370188;fill-opacity:1;stroke:#370188;stroke-width:0.797947;stroke-opacity:1"
         id="path3-3-6-60-5"
         r="0.75558645"
         cy="181.98581"
         cx="69.204475"
         inkscape:transform-center-x="2.5474322"
         inkscape:transform-center-y="1.983531e-06" />
      <circle
         style="fill:#370188;fill-opacity:1;stroke:#370188;stroke-width:0.797947;stroke-opacity:1"
         id="path3-3-6-6-7-0"
         r="0.75558645"
         cy="154.70029"
         cx="69.14299"
         inkscape:transform-center-x="2.5473966"
         inkscape:transform-center-y="-7.9173349e-05" />
      <circle
         style="fill:#370188;fill-opacity:1;stroke:#370188;stroke-width:0.797947;stroke-opacity:1"
         id="path3-3-6-60-5-3"
         r="0.75558645"
         cy="163.71149"
         cx="69.355286"
         inkscape:transform-center-x="2.5474322"
         inkscape:transform-center-y="1.983531e-06" />
      <circle
         style="fill:#370188;fill-opacity:1;stroke:#370188;stroke-width:0.797947;stroke-opacity:1"
         id="path3-3-6-6-7-0-0"
         r="0.75558645"
         cy="136.07988"
         cx="69.051476"
         inkscape:transform-center-x="2.5473966"
         inkscape:transform-center-y="-7.9173349e-05" />
      <circle
         style="fill:#370188;fill-opacity:1;stroke:#370188;stroke-width:0.797947;stroke-opacity:1"
         id="path3-3-6-60-5-3-6"
         r="0.75558645"
         cy="145.62224"
         cx="69.0867"
         inkscape:transform-center-x="2.5474322"
         inkscape:transform-center-y="1.983531e-06" />
      <path
         style="fill:#ffffff;fill-opacity:1;fill-rule:nonzero;stroke:#370188;stroke-width:3.175;stroke-dasharray:none;stroke-opacity:1"
         d="m 46.543453,80.884289 c 0,0 9.835197,-1.206205 12.340399,1.484557 2.505202,2.690762 1.57734,10.484697 -3.525805,10.299128 -5.103178,-0.185579 -9.278525,-3.618614 -8.814594,-11.783685 z"
         id="path62" />
      <path
         style="fill:#ffffff;fill-opacity:1;fill-rule:nonzero;stroke:#370188;stroke-width:3.175;stroke-dasharray:none;stroke-opacity:1"
         d="m 80.549321,81.008603 c 0,0 -9.835197,-1.206205 -12.340399,1.484557 -2.505202,2.690762 -1.57734,10.484697 3.525806,10.299128 5.103177,-0.185579 9.278524,-3.618614 8.814593,-11.783685 z"
         id="path62-2" />
      <circle
         style="fill:#370188;fill-opacity:1;stroke:none;stroke-width:12.6211;stroke-dasharray:none;stroke-opacity:1"
         id="path9-5-7"
         cx="54.071964"
         cy="86.844986"
         r="2.6458333" />
      <circle
         style="fill:#370188;fill-opacity:1;stroke:none;stroke-width:12.6211;stroke-dasharray:none;stroke-opacity:1"
         id="path9-5-7-6"
         cx="73.135239"
         cy="86.941612"
         r="2.6458333" />
      <path
         style="fill:#ffffff;fill-opacity:1;fill-rule:nonzero;stroke:#370188;stroke-width:3.175;stroke-dasharray:none;stroke-opacity:1"
         d="m 46.345047,83.094838 -8.09517,-1.809512"
         id="path63" />
      <path
         style="fill:#ffffff;fill-opacity:1;fill-rule:nonzero;stroke:#370188;stroke-width:3.175;stroke-dasharray:none;stroke-opacity:1"
         d="m 80.725788,83.475791 8.571357,-1.714278"
         id="path64" />
      <path
         style="fill:#ffffff;fill-opacity:1;fill-rule:nonzero;stroke:#370188;stroke-width:3.175;stroke-dasharray:none;stroke-opacity:1"
         d="m 59.868769,85.475777 c 0.857123,-1.5238 5.809488,-1.809512 7.333297,-0.285718"
         id="path65" />
      <path
         style="fill:#b98bfe;fill-opacity:1;fill-rule:nonzero;stroke:#370188;stroke-width:3.175;stroke-dasharray:none;stroke-opacity:1"
         d="m 81.629647,75.166851 c 0,0 1.313275,-13.113956 -0.936212,-14.041215 -2.249488,-0.927259 -10.698036,10.163165 -10.698036,10.163165"
         id="path66-0"
         sodipodi:nodetypes="czc" />
      <path
         style="fill:#b98bfe;fill-opacity:1;fill-rule:nonzero;stroke:#370188;stroke-width:3.175;stroke-dasharray:none;stroke-opacity:1"
         d="m 44.345528,75.293219 c 0,0 -1.313275,-13.113956 0.936212,-14.041215 2.249487,-0.927259 10.698035,10.163165 10.698035,10.163165"
         id="path66-0-3"
         sodipodi:nodetypes="czc" />
      <path
         style="fill:none;fill-opacity:1;fill-rule:nonzero;stroke:#370188;stroke-width:3.175;stroke-dasharray:none;stroke-opacity:1"
         d="m 67.887803,207.78735 4.003865,0.24578 -2.77495,-14.501"
         id="path78"
         sodipodi:nodetypes="ccc" />
    </g>
    <g
       id="g2"
       transform="translate(-59.788566,106.05353)">
      <path
         style="fill:#bb7a02;fill-opacity:1;stroke:#370188;stroke-width:3.175;stroke-dasharray:none;stroke-opacity:1"
         d="m 240.02869,161.56951 -31.97746,5.88806 -42.11444,-6.06376 13.47289,-36.36905 48.2159,-2.95889 z"
         id="path31"
         sodipodi:nodetypes="cccccc" />
      <path
         style="fill:#fdc458;fill-opacity:1;stroke:#370188;stroke-width:3.175;stroke-dasharray:none;stroke-opacity:1"
         d="m 255.78688,120.99454 c 5.55973,0.96051 8.23371,4.3201 9.96277,6.15952 2.63135,2.79929 4.99161,2.40659 4.65757,-0.72919 -0.59754,-5.60936 -10.19091,-11.53088 -14.20248,-11.90652"
         id="path30"
         sodipodi:nodetypes="cssc" />
      <path
         style="fill:#fdc458;fill-opacity:1;stroke:#370188;stroke-width:3.175;stroke-dasharray:none;stroke-opacity:1"
         d="m 239.61972,85.984441 c 12.13056,0.26606 15.89227,11.18217 16.14989,18.028559 0.35985,9.56318 1.39128,41.01085 -1.92154,52.84227 -3.3128,11.83143 -5.2058,15.61748 -24.13607,16.09074 -18.9303,0.47326 -66.25599,-0.47326 -66.25599,-0.47326 0,0 50.40306,-5.73793 56.08215,-15.67633 5.67909,-9.9384 6.6762,-42.05426 6.38778,-52.47267 -0.20733,-7.485039 2.33563,-17.866059 13.69378,-18.339309 z"
         id="path26"
         sodipodi:nodetypes="cssscssc" />
      <path
         sodipodi:type="spiral"
         style="fill:#bb7a02;fill-opacity:1;fill-rule:evenodd;stroke:#370188;stroke-width:0.695287;stroke-dasharray:none;stroke-opacity:1"
         id="path27"
         sodipodi:cx="105.75211"
         sodipodi:cy="39.133308"
         sodipodi:expansion="1.9"
         sodipodi:revolution="1.8526812"
         sodipodi:radius="10.963904"
         sodipodi:argument="-18.497511"
         sodipodi:t0="0.12886804"
         d="m 105.69006,39.348002 c -0.32401,0.23185 -0.69518,-0.169724 -0.77545,-0.456763 -0.23505,-0.84048 0.61833,-1.513252 1.36817,-1.59391 1.54382,-0.166068 2.64192,1.346958 2.66371,2.75927 0.0376,2.433734 -2.34374,4.074062 -4.61129,3.978909 -3.50843,-0.147224 -5.803332,-3.600767 -5.534662,-6.911455 0.386726,-4.765445 5.112132,-7.824404 9.650082,-7.326992 2.50124,0.274164 4.82855,1.527219 6.51074,3.386706"
         transform="matrix(4.5664566,0,0,4.5664566,-300.1246,-32.462255)" />
      <circle
         style="fill:#fdc458;fill-opacity:1;stroke:#370188;stroke-width:3.175;stroke-dasharray:none;stroke-opacity:1"
         id="path28"
         cx="-259.18546"
         cy="67.432602"
         r="2.4649308"
         transform="scale(-1,1)" />
      <path
         style="fill:#ffffff;fill-opacity:1;stroke:#370188;stroke-width:3.175;stroke-dasharray:none;stroke-opacity:1"
         d="m 249.81874,88.828191 7.88775,-18.53627"
         id="path29" />
      <circle
         style="fill:#fdc458;fill-opacity:1;stroke:#370188;stroke-width:3.175;stroke-dasharray:none;stroke-opacity:1"
         id="path28-0"
         cx="222.0289"
         cy="67.11235"
         r="2.4649308" />
      <path
         style="fill:#ffffff;fill-opacity:1;stroke:#370188;stroke-width:3.175;stroke-dasharray:none;stroke-opacity:1"
         d="m 231.39561,88.507951 -7.88775,-18.53628"
         id="path29-6" />
      <circle
         style="fill:#370188;fill-opacity:1;stroke:none;stroke-width:12.6211;stroke-dasharray:none;stroke-opacity:1"
         id="path9"
         cx="-246.37549"
         cy="99.873123"
         r="2.6458333"
         transform="scale(-1,1)" />
      <circle
         style="fill:#370188;fill-opacity:1;stroke:none;stroke-width:12.6211;stroke-dasharray:none;stroke-opacity:1"
         id="path9-5"
         cx="-236.2962"
         cy="100.4377"
         r="2.6458333"
         transform="scale(-1,1)" />
      <path
         style="fill:#fdc458;fill-opacity:1;stroke:#370188;stroke-width:3.175;stroke-dasharray:none;stroke-opacity:1"
         d="m 228.08986,120.43334 c -5.55971,0.96051 -7.91991,6.20283 -9.64898,8.04225 -2.63135,2.79928 -5.30539,1.67441 -4.97135,-1.46137 0.59753,-5.60935 10.19092,-12.68143 14.20247,-13.05707"
         id="path30-2"
         sodipodi:nodetypes="cssc" />
      <path
         style="mix-blend-mode:normal;fill:#02ee25;fill-opacity:1;fill-rule:nonzero;stroke:#370188;stroke-width:3.175;stroke-dasharray:none;stroke-opacity:1"
         d="m 258.42974,114.90786 -1.62537,6.72842 0.67368,5.19754 c 0,4.76463 0.0632,31.61076 8.46842,42.20189 -15.83811,0.55553 -79.83357,-0.1552 -88.3358,-0.18222 37.05259,-4.98841 47.55622,-40.64825 49.38614,-44.23873 0.26352,-0.51678 0.23241,-2.66962 0.23241,-2.66962 l -2.67863,-6.24797 2.90824,-3.1085 4.96751,6.207 19.50784,-0.1624 3.45027,-6.30801 z"
         id="path33"
         sodipodi:nodetypes="cccccsccccccc" />
    </g>
    <g
       id="g3"
       transform="translate(127.40659,-134.52427)">
      <path
         style="fill:#ffffff;fill-opacity:1;stroke:#370188;stroke-width:3.175;stroke-linejoin:miter;stroke-dasharray:none;stroke-opacity:1"
         d="m -119.33963,385.48697 h 229.07888 l 39.85519,49.7774 H -84.85745 Z"
         id="path2-3"
         sodipodi:nodetypes="ccccc" />
      <path
         style="fill:#ffffff;fill-opacity:1;stroke:#370188;stroke-width:3.175;stroke-linejoin:miter;stroke-dasharray:none;stroke-opacity:1"
         d="M -77.463307,419.90154 -94.96306,394.28133 h 25.706263"
         id="path21"
         sodipodi:nodetypes="ccc" />
      <path
         style="fill:#ffffff;fill-opacity:1;stroke:#370188;stroke-width:3.175;stroke-linejoin:miter;stroke-dasharray:none;stroke-opacity:1"
         d="M -76.775667,419.33168 H 5.2173644 L 20.139165,367.72281 h -79.422957 z"
         id="path18"
         sodipodi:nodetypes="ccccc" />
      <ellipse
         style="fill:#370188;fill-opacity:1;stroke:#370188;stroke-width:2.3649;stroke-linejoin:miter;stroke-dasharray:none;stroke-opacity:1"
         id="path20"
         cx="83.747734"
         cy="407.06284"
         rx="7.0081496"
         ry="5.4544897"
         transform="matrix(1,0,-0.26648382,0.96383939,0,0)" />
      <path
         style="fill:#370188;fill-opacity:1;stroke:#370188;stroke-width:2.581;stroke-linejoin:miter;stroke-dasharray:none;stroke-opacity:1"
         d="m -75.590287,413.80036 -7.894093,-11.99673 h 12.076433 z"
         id="path22"
         sodipodi:nodetypes="cccc" />
      <path
         style="fill:#ffffff;fill-opacity:1;stroke:#370188;stroke-width:3.175;stroke-linejoin:miter;stroke-dasharray:none;stroke-opacity:1"
         d="M 42.257834,419.14127 24.758085,393.52106 h 25.706259"
         id="path21-7"
         sodipodi:nodetypes="ccc" />
      <path
         style="fill:#ffffff;fill-opacity:1;stroke:#370188;stroke-width:3.175;stroke-linejoin:miter;stroke-dasharray:none;stroke-opacity:1"
         d="m 42.945474,418.57141 h 81.993036 l 14.9218,-51.60887 H 60.437354 Z"
         id="path18-6"
         sodipodi:nodetypes="ccccc" />
      <ellipse
         style="fill:#370188;fill-opacity:1;stroke:#370188;stroke-width:2.3649;stroke-linejoin:miter;stroke-dasharray:none;stroke-opacity:1"
         id="path20-0"
         cx="203.25868"
         cy="406.27402"
         rx="7.0081496"
         ry="5.4544897"
         transform="matrix(1,0,-0.26648382,0.96383939,0,0)" />
      <path
         style="fill:#370188;fill-opacity:1;stroke:#370188;stroke-width:2.581;stroke-linejoin:miter;stroke-dasharray:none;stroke-opacity:1"
         d="m 44.130854,413.04009 -7.89409,-11.99673 h 12.07643 z"
         id="path22-6"
         sodipodi:nodetypes="cccc" />
    </g>
  </g>
</svg>
