<?xml version="1.0" encoding="UTF-8" standalone="no"?>
<!-- Created with Inkscape (http://www.inkscape.org/) -->

<svg
   width="1080"
   height="1350"
   viewBox="0 0 285.74999 357.1875"
   version="1.1"
   id="svg1"
   inkscape:version="1.4 (e7c3feb1, 2024-10-09)"
   sodipodi:docname="panel-02.svg"
   xmlns:inkscape="http://www.inkscape.org/namespaces/inkscape"
   xmlns:sodipodi="http://sodipodi.sourceforge.net/DTD/sodipodi-0.dtd"
   xmlns="http://www.w3.org/2000/svg"
   xmlns:svg="http://www.w3.org/2000/svg">
  <sodipodi:namedview
     id="namedview1"
     pagecolor="#ffffff"
     bordercolor="#000000"
     borderopacity="0.25"
     inkscape:showpageshadow="2"
     inkscape:pageopacity="0.0"
     inkscape:pagecheckerboard="0"
     inkscape:deskcolor="#d1d1d1"
     inkscape:document-units="px"
     inkscape:zoom="0.35223058"
     inkscape:cx="1138.4588"
     inkscape:cy="630.26896"
     inkscape:window-width="1728"
     inkscape:window-height="1057"
     inkscape:window-x="0"
     inkscape:window-y="32"
     inkscape:window-maximized="0"
     inkscape:current-layer="layer1"
     showguides="true" />
  <defs
     id="defs1">
    <rect
       x="337.60629"
       y="293.08679"
       width="868.13049"
       height="871.84045"
       id="rect26" />
    <rect
       x="358.01108"
       y="335.75131"
       width="877.4054"
       height="734.57196"
       id="rect25" />
    <rect
       x="418.44797"
       y="244.75258"
       width="748.0744"
       height="801.36731"
       id="rect16" />
    <clipPath
       clipPathUnits="userSpaceOnUse"
       id="clipPath32">
      <rect
         style="fill:none;fill-opacity:1;fill-rule:nonzero;stroke:#370188;stroke-width:3.175;stroke-dasharray:none;stroke-opacity:1"
         id="rect33"
         width="282.57498"
         height="354.01248"
         x="1.5875"
         y="15.875003" />
    </clipPath>
    <clipPath
       clipPathUnits="userSpaceOnUse"
       id="clipPath33">
      <rect
         style="fill:none;fill-opacity:1;fill-rule:nonzero;stroke:#370188;stroke-width:3.175;stroke-dasharray:none;stroke-opacity:1"
         id="rect34"
         width="282.57498"
         height="354.01248"
         x="1.5875"
         y="15.875003"
         transform="scale(-1,1)" />
    </clipPath>
    <clipPath
       clipPathUnits="userSpaceOnUse"
       id="clipPath34">
      <rect
         style="fill:none;fill-opacity:1;fill-rule:nonzero;stroke:#370188;stroke-width:3.175;stroke-dasharray:none;stroke-opacity:1"
         id="rect35"
         width="282.57498"
         height="354.01248"
         x="1.5875"
         y="15.875003" />
    </clipPath>
    <clipPath
       clipPathUnits="userSpaceOnUse"
       id="clipPath35">
      <rect
         style="fill:none;fill-opacity:1;fill-rule:nonzero;stroke:#370188;stroke-width:3.175;stroke-dasharray:none;stroke-opacity:1"
         id="rect36"
         width="282.57498"
         height="354.01248"
         x="1.5875"
         y="15.875003" />
    </clipPath>
    <clipPath
       clipPathUnits="userSpaceOnUse"
       id="clipPath1">
      <rect
         style="fill:none;fill-opacity:1;fill-rule:nonzero;stroke:#370188;stroke-width:0.695287;stroke-dasharray:none;stroke-opacity:1"
         id="rect2"
         width="61.880581"
         height="77.524551"
         x="-167.02388"
         y="-16.952217"
         transform="scale(-1,1)" />
    </clipPath>
    <clipPath
       clipPathUnits="userSpaceOnUse"
       id="clipPath2">
      <rect
         style="fill:none;stroke:#370188;stroke-width:6.40779"
         id="rect3"
         width="56.397327"
         height="56.397327"
         x="-183.94559"
         y="134.2606" />
    </clipPath>
    <clipPath
       clipPathUnits="userSpaceOnUse"
       id="clipPath34-6">
      <rect
         style="fill:none;fill-opacity:1;fill-rule:nonzero;stroke:#370188;stroke-width:3.175;stroke-dasharray:none;stroke-opacity:1"
         id="rect35-9"
         width="282.57498"
         height="354.01248"
         x="1.5875"
         y="15.875003" />
    </clipPath>
    <clipPath
       clipPathUnits="userSpaceOnUse"
       id="clipPath35-1">
      <rect
         style="fill:none;fill-opacity:1;fill-rule:nonzero;stroke:#370188;stroke-width:3.175;stroke-dasharray:none;stroke-opacity:1"
         id="rect36-0"
         width="282.57498"
         height="354.01248"
         x="1.5875"
         y="15.875003" />
    </clipPath>
    <clipPath
       clipPathUnits="userSpaceOnUse"
       id="clipPath33-4">
      <rect
         style="fill:none;fill-opacity:1;fill-rule:nonzero;stroke:#370188;stroke-width:3.175;stroke-dasharray:none;stroke-opacity:1"
         id="rect34-5"
         width="282.57498"
         height="354.01248"
         x="1.5875"
         y="15.875003"
         transform="scale(-1,1)" />
    </clipPath>
    <clipPath
       clipPathUnits="userSpaceOnUse"
       id="clipPath32-8">
      <rect
         style="fill:none;fill-opacity:1;fill-rule:nonzero;stroke:#370188;stroke-width:3.175;stroke-dasharray:none;stroke-opacity:1"
         id="rect33-2"
         width="282.57498"
         height="354.01248"
         x="1.5875"
         y="15.875003" />
    </clipPath>
    <clipPath
       clipPathUnits="userSpaceOnUse"
       id="clipPath1-1">
      <rect
         style="fill:none;fill-opacity:1;fill-rule:nonzero;stroke:#370188;stroke-width:0.695287;stroke-dasharray:none;stroke-opacity:1"
         id="rect2-6"
         width="61.880581"
         height="77.524551"
         x="-167.02388"
         y="-16.952217"
         transform="scale(-1,1)" />
    </clipPath>
  </defs>
  <g
     inkscape:label="Layer 1"
     inkscape:groupmode="layer"
     id="layer1">
    <rect
       style="fill:none;fill-opacity:1;stroke:#370188;stroke-width:4.23333;stroke-linecap:round;stroke-dasharray:none;stroke-opacity:1"
       id="rect37"
       width="259.29166"
       height="140.15659"
       x="13.758331"
       y="56.796234" />
    <text
       xml:space="preserve"
       transform="scale(0.26458333)"
       id="text16"
       style="font-style:normal;font-variant:normal;font-weight:bold;font-stretch:normal;font-size:60px;font-family:'Josefin Slab';-inkscape-font-specification:'Josefin Slab Bold';text-align:start;letter-spacing:0px;word-spacing:0px;writing-mode:lr-tb;direction:ltr;white-space:pre;shape-inside:url(#rect16);display:inline;fill:#000000;fill-opacity:0;stroke:#370188;stroke-width:12;stroke-opacity:1" />
    <text
       xml:space="preserve"
       transform="scale(0.26458333)"
       id="text25"
       style="font-style:normal;font-variant:normal;font-weight:bold;font-stretch:normal;font-size:60px;font-family:'Josefin Slab';-inkscape-font-specification:'Josefin Slab Bold';text-align:start;letter-spacing:0px;word-spacing:0px;writing-mode:lr-tb;direction:ltr;white-space:pre;shape-inside:url(#rect25);display:inline;fill:#000000;fill-opacity:0;stroke:#370188;stroke-width:12;stroke-opacity:1" />
    <text
       xml:space="preserve"
       transform="scale(0.26458333)"
       id="text26"
       style="font-style:normal;font-variant:normal;font-weight:bold;font-stretch:normal;font-size:60px;font-family:'Josefin Slab';-inkscape-font-specification:'Josefin Slab Bold';text-align:start;letter-spacing:0px;word-spacing:0px;writing-mode:lr-tb;direction:ltr;white-space:pre;shape-inside:url(#rect26);display:inline;fill:#000000;fill-opacity:0;stroke:#370188;stroke-width:12;stroke-opacity:1" />
    <rect
       width="9.8019896"
       height="15.875"
       rx="0"
       ry="0"
       fill="#6002ee"
       stroke-width="0"
       id="rect1-3-4-39-4-2-0-5-6"
       x="247.60098"
       y="332.84583" />
    <text
       font-family="Montserrat"
       font-size="618.11px"
       font-weight="200"
       stroke-width="0"
       fill="#33333"
       id="text3-0-3-0-0-5-3-3-2"
       x="248.33717"
       y="345.42685"
       style="font-style:normal;font-variant:normal;font-weight:300;font-stretch:normal;font-size:13.0774px;font-family:Montserrat;-inkscape-font-specification:'Montserrat Light'"
       transform="scale(0.99938968,1.0006107)"><tspan
         y="345.42685"
         font-weight="200"
         stroke-width="0"
         id="tspan1-4-8-6-2-1-2-5-9"
         style="font-style:normal;font-variant:normal;font-weight:300;font-stretch:normal;font-size:13.0774px;font-family:Montserrat;-inkscape-font-specification:'Montserrat Light'"><tspan
           style="font-style:normal;font-variant:normal;font-weight:300;font-stretch:normal;font-size:13.0774px;font-family:Montserrat;-inkscape-font-specification:'Montserrat Light';fill:#ffffff;fill-opacity:1;stroke-width:0"
           id="tspan3-6-3-13-5-2-1-6-6">k</tspan></tspan></text>
    <text
       dx="0"
       dy="0"
       font-family="Montserrat"
       font-size="465.256px"
       font-weight="200"
       stroke-width="0"
       fill="#33333"
       id="text3-0-3-6-8-4-0-8-9"
       x="195.17656"
       y="345.42685"
       style="font-style:normal;font-variant:normal;font-weight:300;font-stretch:normal;font-size:13.0774px;font-family:Montserrat;-inkscape-font-specification:'Montserrat Light'"
       transform="scale(0.99938968,1.0006107)"><tspan
         y="345.42685"
         font-weight="200"
         stroke-width="0"
         id="tspan1-4-8-3-9-0-0-6-9"
         style="font-style:normal;font-variant:normal;font-weight:300;font-stretch:normal;font-size:13.0774px;font-family:Montserrat;-inkscape-font-specification:'Montserrat Light'">product</tspan></text>
    <text
       font-family="Montserrat"
       font-size="465.256px"
       font-weight="200"
       stroke-width="0"
       fill="#33333"
       id="text3-0-3-6-4-3-4-3-7-8"
       x="257.78415"
       y="345.42685"
       style="font-style:normal;font-variant:normal;font-weight:300;font-stretch:normal;font-size:13.0774px;font-family:Montserrat;-inkscape-font-specification:'Montserrat Light'"
       transform="scale(0.99938968,1.0006107)"><tspan
         y="345.42685"
         font-weight="200"
         stroke-width="0"
         id="tspan1-4-8-3-6-9-9-9-7-0"
         style="font-style:normal;font-variant:normal;font-weight:300;font-stretch:normal;font-size:13.0774px;font-family:Montserrat;-inkscape-font-specification:'Montserrat Light'">ind</tspan></text>
    <text
       xml:space="preserve"
       style="font-style:normal;font-variant:normal;font-weight:normal;font-stretch:normal;font-size:19.05px;font-family:'Nanum Pen';-inkscape-font-specification:'Nanum Pen';text-align:center;letter-spacing:0px;word-spacing:0px;writing-mode:lr-tb;direction:ltr;text-anchor:middle;white-space:pre;inline-size:253.265;display:inline;fill:#370188;fill-opacity:1;stroke:none;stroke-width:1.5875;stroke-linecap:round;stroke-dasharray:none;stroke-opacity:1"
       x="23.771687"
       y="156.49693"
       id="text17"
       transform="translate(119.63673,-130.10104)"><tspan
         x="23.771687"
         y="156.49693"
         id="tspan1">It’s not just ‘build umbrella’, it’s<tspan
   y="156.49693"
   id="tspan2"> </tspan></tspan><tspan
         x="23.771687"
         y="180.30944"
         id="tspan3">‘keep Giraffe dry’.</tspan></text>
    <path
       style="fill:#fe8b96;fill-opacity:1;stroke:#370188;stroke-width:3.175;stroke-linejoin:miter;stroke-dasharray:none;stroke-opacity:1"
       d="m 200.99706,85.335087 h 17.18469 v 10.108677 c 0,0 0.60429,3.17039 1.81956,5.054336 -5.23621,0.002 -14.97064,0.40207 -17.86011,0.0896 -1.27657,-2.194146 -1.54848,-5.548276 -1.54848,-5.548276 z"
       id="path2-09"
       sodipodi:nodetypes="ccccccc" />
    <path
       style="fill:#fe8b96;fill-opacity:1;stroke:#370188;stroke-width:3.175;stroke-linejoin:miter;stroke-dasharray:none;stroke-opacity:1"
       d="m 98.23187,86.324248 h 17.1847 v 10.108637 c 0,0 0.60429,3.1704 1.81956,5.054345 -5.23621,0.002 -14.97065,0.40207 -17.860123,0.0896 C 98.09944,99.382665 97.82753,96.028541 97.82753,96.028541 Z"
       id="path2-02"
       sodipodi:nodetypes="ccccccc" />
    <path
       style="fill:#fe8b96;fill-opacity:1;stroke:#370188;stroke-width:3.175;stroke-linejoin:miter;stroke-dasharray:none;stroke-opacity:1"
       d="m 166.81332,85.370122 h 17.18469 v 10.108689 c 0,0 0.60429,3.17038 1.81956,5.054319 -5.23621,0.002 -14.97064,0.40208 -17.86011,0.0896 -1.27657,-2.194149 -1.54848,-5.548269 -1.54848,-5.548269 z"
       id="path2-8-3"
       sodipodi:nodetypes="ccccccc" />
    <path
       style="fill:#fe8b96;fill-opacity:1;stroke:#370188;stroke-width:3.175;stroke-linejoin:miter;stroke-dasharray:none;stroke-opacity:1"
       d="m 235.3745,85.213359 h 17.18469 v 10.108637 c 0,0 0.60429,3.170384 1.81956,5.054334 -5.23621,0.002 -14.97064,0.40207 -17.86011,0.0896 -1.27657,-2.194164 -1.54848,-5.548278 -1.54848,-5.548278 z"
       id="path2-1"
       sodipodi:nodetypes="ccccccc" />
    <path
       style="fill:#fe8b96;fill-opacity:1;stroke:#370188;stroke-width:3.175;stroke-linejoin:miter;stroke-dasharray:none;stroke-opacity:1"
       d="m 132.37971,85.788819 h 17.18469 v 10.10864 c 0,0 0.60429,3.17038 1.81956,5.054321 -5.23621,0.002 -14.97064,0.40207 -17.86011,0.0896 -1.27657,-2.194151 -1.54848,-5.548271 -1.54848,-5.548271 z"
       id="path2-17"
       sodipodi:nodetypes="ccccccc" />
    <path
       style="fill:#fed68b;fill-opacity:1;stroke:#370188;stroke-width:3.175;stroke-linejoin:miter;stroke-dasharray:none;stroke-opacity:1"
       d="m 99.008097,112.68942 h 17.184693 v 10.10864 c 0,0 0.60427,3.17039 1.81956,5.05433 -5.2362,0.002 -14.97063,0.40207 -17.86011,0.0896 -1.276573,-2.19416 -1.548483,-5.54827 -1.548483,-5.54827 z"
       id="path2-41-87"
       sodipodi:nodetypes="ccccccc" />
    <path
       style="fill:#fed68b;fill-opacity:1;stroke:#370188;stroke-width:3.175;stroke-linejoin:miter;stroke-dasharray:none;stroke-opacity:1"
       d="m 132.02761,113.40654 h 17.18468 v 10.10864 c 0,0 0.60427,3.17038 1.81956,5.05432 -5.23621,0.002 -14.97063,0.40207 -17.8601,0.0896 -1.27657,-2.19416 -1.54848,-5.54827 -1.54848,-5.54827 z"
       id="path2-41-6"
       sodipodi:nodetypes="ccccccc" />
    <path
       style="fill:#fed68b;fill-opacity:1;stroke:#370188;stroke-width:3.175;stroke-linejoin:miter;stroke-dasharray:none;stroke-opacity:1"
       d="m 167.30204,113.99952 h 17.18468 v 10.10864 c 0,0 0.60427,3.17038 1.81956,5.05432 -5.23621,0.002 -14.97063,0.40208 -17.8601,0.0896 -1.27657,-2.19416 -1.54848,-5.54827 -1.54848,-5.54827 z"
       id="path2-41-8"
       sodipodi:nodetypes="ccccccc" />
    <path
       style="fill:#fed68b;fill-opacity:1;stroke:#370188;stroke-width:3.175;stroke-linejoin:miter;stroke-dasharray:none;stroke-opacity:1"
       d="m 167.52526,142.06828 h 17.18468 v 10.10864 c 0,0 0.60427,3.17039 1.81956,5.05433 -5.23621,0.002 -14.97063,0.40207 -17.8601,0.0896 -1.27657,-2.19415 -1.54848,-5.54827 -1.54848,-5.54827 z"
       id="path2-41-4"
       sodipodi:nodetypes="ccccccc" />
    <path
       style="fill:#fed68b;fill-opacity:1;stroke:#370188;stroke-width:3.175;stroke-linejoin:miter;stroke-dasharray:none;stroke-opacity:1"
       d="m 201.41307,114.15357 h 17.18468 v 10.10864 c 0,0 0.60427,3.17039 1.81956,5.05433 -5.23621,0.002 -14.97063,0.40207 -17.8601,0.0896 -1.27657,-2.19415 -1.54848,-5.54827 -1.54848,-5.54827 z"
       id="path2-41-0"
       sodipodi:nodetypes="ccccccc" />
    <path
       style="fill:#fed68b;fill-opacity:1;stroke:#370188;stroke-width:3.175;stroke-linejoin:miter;stroke-dasharray:none;stroke-opacity:1"
       d="m 132.8842,141.47719 h 17.18468 v 10.10865 c 0,0 0.60427,3.17038 1.81956,5.05432 -5.23621,0.002 -14.97063,0.40207 -17.8601,0.0896 -1.27657,-2.19416 -1.54848,-5.54827 -1.54848,-5.54827 z"
       id="path2-41-64"
       sodipodi:nodetypes="ccccccc" />
    <path
       style="fill:none;fill-opacity:1;stroke:#370188;stroke-width:1.5875;stroke-linecap:round;stroke-dasharray:none;stroke-opacity:1"
       d="M 30.565662,208.86494 C 15.401477,209.79235 7.2670007,216.25452 6.9225111,179.2233 6.5257991,136.57839 4.9581485,77.355053 9.5336968,47.900299 11.866769,32.881318 16.467769,29.083427 23.382876,26.911666"
       id="path13-1"
       sodipodi:nodetypes="cssc" />
    <path
       style="fill:#fed68b;fill-opacity:1;stroke:#370188;stroke-width:3.175;stroke-linejoin:miter;stroke-dasharray:none;stroke-opacity:1"
       d="m 236.48633,111.74174 h 17.18468 v 10.10864 c 0,0 0.60427,3.17039 1.81956,5.05433 -5.23621,0.002 -14.97063,0.40207 -17.8601,0.0896 -1.27657,-2.19415 -1.54848,-5.54827 -1.54848,-5.54827 z"
       id="path2-41-0-4"
       sodipodi:nodetypes="ccccccc" />
    <path
       style="fill:#fed68b;fill-opacity:1;stroke:#370188;stroke-width:3.175;stroke-linejoin:miter;stroke-dasharray:none;stroke-opacity:1"
       d="m 236.45039,140.93531 h 17.18468 v 10.10864 c 0,0 0.60427,3.17039 1.81956,5.05433 -5.23621,0.002 -14.97063,0.40207 -17.8601,0.0896 -1.27657,-2.19415 -1.54848,-5.54827 -1.54848,-5.54827 z"
       id="path2-41-0-7"
       sodipodi:nodetypes="ccccccc" />
    <path
       style="fill:#fed68b;fill-opacity:1;stroke:#370188;stroke-width:3.175;stroke-linejoin:miter;stroke-dasharray:none;stroke-opacity:1"
       d="m 168.50593,168.0989 h 17.18468 v 10.10864 c 0,0 0.60427,3.17039 1.81956,5.05433 -5.23621,0.002 -14.97063,0.40207 -17.8601,0.0896 -1.27657,-2.19415 -1.54848,-5.54827 -1.54848,-5.54827 z"
       id="path2-41-0-44"
       sodipodi:nodetypes="ccccccc" />
    <g
       id="g22"
       transform="rotate(6.9531176,55.605259,109.77817)">
      <g
         id="g6"
         transform="rotate(10.940381,-76.780096,109.83306)">
        <g
           id="g7"
           transform="rotate(-20.673151,-119.7134,-229.31545)">
          <rect
             style="fill:#ffffff;fill-opacity:1;stroke:none;stroke-width:3.175"
             id="rect5"
             width="28.332441"
             height="29.884909"
             x="-94.700233"
             y="101.29819" />
          <g
             id="g1"
             transform="matrix(0.49549032,0,0,0.49549032,-4.3331954,36.325817)"
             clip-path="url(#clipPath2)">
            <path
               style="fill:#fdb226;fill-opacity:1;fill-rule:nonzero;stroke:#370188;stroke-width:3.175;stroke-dasharray:none;stroke-opacity:1"
               d="m -150.93568,173.10956 c -3.5687,3.17217 -18.59572,10.10545 -22.16442,1.77848 -3.5687,-8.32695 14.68307,-21.37134 23.01002,-20.97481 8.32698,0.39649 11.89565,8.32694 11.89565,15.06781 0,6.74088 7.53395,84.06264 7.53395,84.06264 l -18.63649,21.01567 -9.29509,-7.57473 2.81651,-90.24368"
               id="path83"
               sodipodi:nodetypes="cssscccc" />
            <circle
               style="fill:#370188;fill-opacity:1;stroke:none;stroke-width:12.6211;stroke-dasharray:none;stroke-opacity:1"
               id="path9-5-7-5-2-3-8"
               cx="-158.69215"
               cy="162.68678"
               r="2.1166666" />
            <circle
               style="fill:#370188;fill-opacity:1;stroke:none;stroke-width:12.6211;stroke-dasharray:none;stroke-opacity:1"
               id="path9-5-7-5-2-3-8-3"
               cx="-157.57088"
               cy="142.34583"
               r="2.6458333" />
            <circle
               style="fill:#370188;fill-opacity:1;stroke:none;stroke-width:12.6211;stroke-dasharray:none;stroke-opacity:1"
               id="path9-5-7-5-2-3-8-8"
               cx="-149.36887"
               cy="142.87502"
               r="2.6458333" />
            <circle
               style="fill:#370188;fill-opacity:1;stroke:none;stroke-width:12.6211;stroke-dasharray:none;stroke-opacity:1"
               id="path9-5-7-6-7-6-0-4"
               cx="-150.39886"
               cy="164.89195"
               r="2.1166666" />
            <path
               style="fill:#fdb226;fill-opacity:1;fill-rule:nonzero;stroke:#370188;stroke-width:3.175;stroke-dasharray:none;stroke-opacity:1"
               d="m -172.937,263.62281 c 0,0 -16.79743,1.0955 -18.9884,5.11225 -2.19097,4.01679 -3.28645,7.30323 0.36515,9.12905 3.65163,1.82582 21.90966,-4.01679 21.90966,-4.01679"
               id="path82-4" />
            <path
               style="fill:#fdb226;fill-opacity:1;fill-rule:nonzero;stroke:#370188;stroke-width:3.175;stroke-dasharray:none;stroke-opacity:1"
               d="m -161.73157,342.97317 c 0,0 -4.10372,18.93538 -0.0718,21.09854 4.19938,2.25304 6.71887,2.38369 10.09863,0.0937 2.54984,-1.7278 0.65922,-22.26507 0.65922,-22.26507"
               id="path82-2-5"
               sodipodi:nodetypes="cssc" />
            <path
               style="fill:#fdb226;fill-opacity:1;fill-rule:nonzero;stroke:#370188;stroke-width:3.175;stroke-dasharray:none;stroke-opacity:1"
               d="m -127.58898,342.88341 c 0,0 -4.10372,18.93541 -0.0718,21.09854 4.19938,2.25304 6.71887,2.38369 10.09863,0.0937 2.54984,-1.7278 0.65922,-22.26507 0.65922,-22.26507"
               id="path82-2-7-3"
               sodipodi:nodetypes="cssc" />
            <path
               style="fill:#fdb226;fill-opacity:1;fill-rule:nonzero;stroke:#370188;stroke-width:3.175;stroke-dasharray:none;stroke-opacity:1"
               d="m -118.05614,263.18088 c 0,0 16.79743,1.09547 18.988404,5.11226 2.190972,4.01675 3.286442,7.30323 -0.365157,9.12901 -3.651627,1.82582 -21.909657,-4.01676 -21.909657,-4.01676"
               id="path82-5-0" />
            <path
               style="fill:#885901;fill-opacity:1;fill-rule:nonzero;stroke:#370188;stroke-width:2.84831;stroke-dasharray:none;stroke-opacity:1"
               d="m -157.21576,245.45708 c 0.22669,1.95516 4.30701,3.46218 6.9515,1.31607 2.64449,-2.14608 3.91966,-9.97109 3.17849,-14.33195 -0.74117,-4.36083 -3.38614,-9.26446 -6.0391,-9.15651 -2.653,0.10795 -3.70716,2.20907 -3.77304,6.54304 -0.066,4.33394 -0.54452,13.67418 -0.31785,15.62935 z m 18.85134,-15.35522 c 3.10419,0.76777 4.79288,-2.98758 4.61803,-6.328 -0.17462,-3.34042 -0.67211,-9.02913 -0.94996,-13.43266 -0.27781,-4.40351 -2.18954,-7.29596 -4.96214,-6.45862 -2.77263,0.83734 -2.98158,7.32815 -2.8755,11.93886 0.10604,4.6107 1.0654,13.51264 4.16957,14.28042 z m -17.84007,-23.08333 c -0.31211,3.24431 2.74472,6.00783 4.97703,5.58774 2.23231,-0.42005 3.06819,-2.98224 3.53749,-7.36234 0.46933,-4.38014 -0.92437,-15.84125 -3.88512,-17.25026 -2.96075,-1.409 -3.73815,-0.64071 -3.95249,3.17065 -0.21432,3.8114 -0.36462,12.6099 -0.67691,15.85421 z m 20.25475,62.11208 c 3.55695,0.63389 4.54047,-2.91726 4.61807,-6.32797 0.0775,-3.41071 0.0222,-10.19238 -0.41151,-13.20784 -0.43253,-3.01542 -3.59064,-4.28638 -5.85963,-3.76072 -2.26898,0.52568 -4.35054,2.22392 -4.84997,6.76786 -0.49942,4.54396 2.94615,15.89481 6.50304,16.52867 z"
               id="path84"
               sodipodi:nodetypes="zzzzzzzzzzzzzzzzzzzzzzzz" />
            <path
               style="fill:#9a58fd;fill-opacity:1;fill-rule:nonzero;stroke:#370188;stroke-width:3.175;stroke-dasharray:none;stroke-opacity:1"
               d="m -124.86966,262.33595 8.7904,57.84046 -50.86547,-0.19177 6.19332,-54.76128 c 12.30484,3.05038 23.59758,1.43554 35.88175,-2.88732 z"
               id="path56-7-2-0-7"
               sodipodi:nodetypes="ccccc" />
            <path
               style="fill:#0288bb;fill-opacity:1;fill-rule:nonzero;stroke:#370188;stroke-width:3.175;stroke-dasharray:none;stroke-opacity:1"
               d="m -170.0748,353.03976 26.58288,0.41307 3.29812,-15.55071 3.43056,15.49146 27.34977,-0.10287 -8.45611,-44.42555 -47.87284,0.13557 z"
               id="path55-9-6-4-6"
               sodipodi:nodetypes="cccccccc" />
            <path
               style="fill:none;fill-opacity:1;fill-rule:nonzero;stroke:#370188;stroke-width:3.175;stroke-dasharray:none;stroke-opacity:1"
               d="m -141.43459,339.0455 4.89836,0.11049 -1.97205,-17.41675"
               id="path71-3-2-4"
               sodipodi:nodetypes="ccc" />
            <path
               style="fill:#853200;fill-opacity:1;fill-rule:nonzero;stroke:#370188;stroke-width:3.175;stroke-dasharray:none;stroke-opacity:1"
               d="m -154.16716,157.12185 -3.08337,-13.21445"
               id="path85" />
            <path
               style="fill:#853200;fill-opacity:1;fill-rule:nonzero;stroke:#370188;stroke-width:3.175;stroke-dasharray:none;stroke-opacity:1"
               d="M -149.38952,156.76615 V 144.43268"
               id="path86" />
            <path
               style="fill:#9a58fd;fill-opacity:1;fill-rule:nonzero;stroke:#370188;stroke-width:3.175;stroke-dasharray:none;stroke-opacity:1"
               d="m -156.2499,274.78427 -19.46976,5.30993 -4.56467,-20.02869 19.65608,-5.30994 c 10.36005,6.2932 20.84886,7.01421 32.69802,-1.58366 l 20.02866,7.26621 -4.2852,18.63135 -17.88608,-6.24148"
               id="path87"
               sodipodi:nodetypes="cccccccc" />
          </g>
          <rect
             style="fill:none;stroke:#370188;stroke-width:3.175"
             id="rect4"
             width="28.332443"
             height="30.273018"
             x="-94.700226"
             y="101.29819" />
        </g>
      </g>
      <rect
         style="fill:none;fill-opacity:1;stroke:#370188;stroke-width:3.175;stroke-opacity:1"
         id="rect7"
         width="68.912384"
         height="95.883141"
         x="6.6414618"
         y="84.902618"
         transform="rotate(-8.2661079)" />
      <path
         style="fill:none;fill-opacity:1;stroke:#370188;stroke-width:3.175;stroke-opacity:1"
         d="M 60.157931,86.937912 77.23502,83.832987"
         id="path7" />
      <path
         style="fill:none;fill-opacity:1;stroke:#370188;stroke-width:3.175;stroke-opacity:1"
         d="M 61.710395,98.193269 71.02517,96.25269"
         id="path8" />
      <path
         style="fill:none;fill-opacity:1;stroke:#370188;stroke-width:3.175;stroke-opacity:1"
         d="m 65.203434,106.3437 16.688975,-3.10493"
         id="path9" />
      <path
         style="fill:none;fill-opacity:1;stroke:#370188;stroke-width:3.175;stroke-opacity:1"
         d="M 75.294441,94.700226 81.892409,93.53588"
         id="path10" />
      <path
         style="fill:none;fill-opacity:1;stroke:#370188;stroke-width:3.175;stroke-opacity:1"
         d="m 36.09476,129.63064 26.003749,-4.26927"
         id="path11" />
      <path
         style="fill:none;fill-opacity:1;stroke:#370188;stroke-width:3.175;stroke-opacity:1"
         d="m 67.532127,123.8089 16.688975,-3.10492"
         id="path12" />
      <path
         style="fill:none;fill-opacity:1;stroke:#370188;stroke-width:3.175;stroke-opacity:1"
         d="m 64.427202,115.27036 11.255357,-1.94058"
         id="path13" />
      <path
         style="fill:none;fill-opacity:1;stroke:#370188;stroke-width:3.175;stroke-opacity:1"
         d="m 33.766065,139.33353 17.465204,-3.10492"
         id="path14" />
      <path
         style="fill:none;fill-opacity:1;stroke:#370188;stroke-width:3.175;stroke-opacity:1"
         d="M 58.217352,135.06426 79.95183,131.95933"
         id="path15" />
      <path
         style="fill:none;fill-opacity:1;stroke:#370188;stroke-width:3.175;stroke-opacity:1"
         d="m 40.364031,146.70773 6.986082,-1.16435"
         id="path16" />
      <path
         style="fill:none;fill-opacity:1;stroke:#370188;stroke-width:3.175;stroke-opacity:1"
         d="M 53.559963,144.37903 77.23502,140.88599"
         id="path17" />
      <path
         style="fill:none;fill-opacity:1;stroke:#370188;stroke-width:3.175;stroke-opacity:1"
         d="m 83.444873,139.33353 6.20985,-0.77623"
         id="path18" />
      <path
         style="fill:none;fill-opacity:1;stroke:#370188;stroke-width:3.175;stroke-opacity:1"
         d="m 37.647221,157.18685 24.839403,-3.88116"
         id="path19" />
      <path
         style="fill:none;fill-opacity:1;stroke:#370188;stroke-width:3.175;stroke-opacity:1"
         d="m 68.308361,152.14135 9.314775,-1.55246"
         id="path20" />
      <path
         style="fill:none;fill-opacity:1;stroke:#370188;stroke-width:3.175;stroke-opacity:1"
         d="M 83.444871,149.42454 91.5953,148.26019"
         id="path21" />
      <path
         style="fill:none;fill-opacity:1;stroke:#370188;stroke-width:3.175;stroke-opacity:1"
         d="m 40.364031,166.88974 32.989832,-4.65739"
         id="path22" />
    </g>
    <path
       style="fill:#018816;fill-opacity:1;stroke:#370188;stroke-width:3.175;stroke-dasharray:none;stroke-opacity:1"
       d="m 33.022141,242.46969 -2.44821,35.65858 51.518659,1.38376 -2.022443,-39.59697 z"
       id="path25-4" />
    <path
       style="fill:#ffffff;fill-opacity:1;stroke:#370188;stroke-width:3.175;stroke-dasharray:none;stroke-opacity:1"
       d="m 16.360885,250.91751 c 0,15.83268 7.109174,26.92819 17.072324,33.2866 2.370486,1.51283 4.90258,2.75752 7.53891,3.73403 23.316628,8.63653 54.788084,-3.70364 54.763763,-37.02063 l -15.068041,15.50714 -15.15129,-6.57609 -19.957542,9.34238 -10.755375,-11.69093 -8.490204,5.1436 z"
       id="path1-8"
       sodipodi:nodetypes="cssccccccc" />
    <path
       style="fill:#370189;fill-opacity:1;stroke:#370188;stroke-width:0;stroke-dasharray:none;stroke-opacity:1"
       d="m 40.288891,286.25345 -3.826923,-5.2726 5.071173,2.35369 1.326261,-3.92795 0.376809,4.14214 4.169982,-3.19913 -2.573465,4.76485 5.63245,0.54648 -3.692811,2.899 z"
       id="path3-2"
       sodipodi:nodetypes="cccccccccc" />
    <path
       style="fill:#370189;fill-opacity:1;stroke:#370188;stroke-width:0;stroke-dasharray:none;stroke-opacity:1"
       d="m 71.433608,286.7898 3.035109,-5.32825 -4.745514,2.65566 -0.408241,-3.99875 -1.235837,4.49196 -4.724654,-1.36681 3.40941,3.17529 -4.781804,1.08258 4.5025,2.28216 z"
       id="path3-1-5"
       sodipodi:nodetypes="cccccccccc" />
    <path
       style="fill:#ee4302;fill-opacity:1;stroke:#370188;stroke-width:3.175;stroke-dasharray:none;stroke-opacity:1"
       d="m 40.883219,287.58352 c -0.0908,0.82798 -0.110808,10.87926 -0.110808,10.87926 l -7.657909,4.01428 9.170479,-1.55092 0.742855,0.90941 0.700278,-0.93297 8.75249,1.41576 -6.925976,-3.71138 c 0,0 0.07017,-8.9828 0.0127,-9.10428 z"
       id="path7-8"
       sodipodi:nodetypes="cccccccccc" />
    <path
       style="fill:#ee4302;fill-opacity:1;stroke:#370188;stroke-width:3.175;stroke-dasharray:none;stroke-opacity:1"
       d="m 70.921766,286.84562 0.340042,12.60687 7.871143,2.6912 -9.979501,-1.45317 -0.742855,0.90942 -0.70031,-0.93298 -9.076213,1.20136 7.41826,-3.10318 c 0,0 0.16637,-9.20293 0.179705,-9.394 z"
       id="path7-4-0"
       sodipodi:nodetypes="cccccccccc" />
    <path
       style="fill:none;fill-opacity:1;stroke:#370188;stroke-width:3.175;stroke-dasharray:none;stroke-opacity:1"
       d="m 41.381376,263.26588 3.905726,-9.47852 22.305454,-0.053 3.054922,7.69032"
       id="path19-60"
       sodipodi:nodetypes="cccc" />
    <path
       style="fill:#fdc458;fill-opacity:1;stroke:#370188;stroke-width:3.175;stroke-dasharray:none;stroke-opacity:1"
       d="m 29.737382,232.5235 c 0,0 -38.4727763,27.21073 6.956202,15.58833 z"
       id="path17-0"
       sodipodi:nodetypes="ccc" />
    <path
       style="fill:#fdc458;fill-opacity:1;stroke:#370188;stroke-width:3.175;stroke-dasharray:none;stroke-opacity:1"
       d="m 85.989903,233.56239 c 0,0 34.302277,21.19084 -7.534783,15.42339 z"
       id="path16-7"
       sodipodi:nodetypes="ccc" />
    <path
       style="fill:#fdc458;fill-opacity:1;stroke:#370188;stroke-width:3.175;stroke-dasharray:none;stroke-opacity:1"
       d="m 72.36801,218.76206 c 17.425955,-38.94191 -49.630836,-38.34514 -32.591501,0.64326 l 15.592742,7.69652 z"
       id="path23-5"
       sodipodi:nodetypes="cccc" />
    <path
       style="fill:#018816;fill-opacity:1;stroke:#370188;stroke-width:3.175;stroke-dasharray:none;stroke-opacity:1"
       d="m 38.736157,248.22473 -9.800304,4.0472 -6.621494,-19.13718 13.522515,-5.46456 -0.305753,-10.09069 19.875563,9.57891 20.4871,-10.49623 v 8.56177 l 14.322171,7.7724 -6.590697,18.69103 -9.531286,-3.85835"
       id="path12-0"
       sodipodi:nodetypes="ccccccccccc" />
    <circle
       style="fill:#370188;fill-opacity:1;stroke:none;stroke-width:8.13508;stroke-dasharray:none;stroke-opacity:1"
       id="path9-8"
       cx="50.107147"
       cy="203.79909"
       r="1.7054044" />
    <circle
       style="fill:#370188;fill-opacity:1;stroke:none;stroke-width:8.13508;stroke-dasharray:none;stroke-opacity:1"
       id="path9-4"
       cx="62.603767"
       cy="203.88422"
       r="1.7054044" />
    <path
       style="fill:none;fill-opacity:1;stroke:#370188;stroke-width:3.175;stroke-dasharray:none;stroke-opacity:1"
       d="m 35.531756,227.46867 19.874928,4.48241 20.996306,-6.52114"
       id="path22-1"
       sodipodi:nodetypes="ccc" />
    <path
       style="fill:none;fill-opacity:1;stroke:#370188;stroke-width:3.175;stroke-dasharray:none;stroke-opacity:1"
       d="m 46.225093,226.52173 -3.37312,20.3066"
       id="path10-79"
       sodipodi:nodetypes="cc" />
    <path
       style="fill:none;fill-opacity:1;stroke:#370188;stroke-width:3.175;stroke-dasharray:none;stroke-opacity:1"
       d="m 63.664986,226.01532 2.501138,20.97738"
       id="path11-71"
       sodipodi:nodetypes="cc" />
    <path
       style="fill:none;fill-opacity:1;stroke:#370188;stroke-width:3.175;stroke-dasharray:none;stroke-opacity:1"
       d="m 55.061752,208.92677 5.982748,3.09451 -7.220553,3.30086"
       id="path24-70" />
    <path
       style="fill:none;fill-opacity:1;stroke:#370188;stroke-width:3.175;stroke-dasharray:none;stroke-opacity:1"
       d="m 56.17605,191.85838 c 5.406327,-4.70871 -5.057489,-5.05752 0.523209,-8.89425"
       id="path26-0"
       sodipodi:nodetypes="cc" />
    <path
       style="fill:#b98bfe;fill-opacity:1;fill-rule:nonzero;stroke:#370188;stroke-width:3.175;stroke-dasharray:none;stroke-opacity:1"
       d="m 173.57214,231.86572 c 16.19634,5.3238 13.8764,14.98207 -2.92418,11.09709"
       id="path61-9"
       sodipodi:nodetypes="cc" />
    <path
       style="fill:#b98bfe;fill-opacity:1;fill-rule:nonzero;stroke:#370188;stroke-width:3.175;stroke-dasharray:none;stroke-opacity:1"
       d="m 103.43172,232.28439 c -16.196339,5.32379 -13.876399,14.98207 2.92418,11.09709"
       id="path61"
       sodipodi:nodetypes="cc" />
    <path
       style="fill:#b98bfe;fill-opacity:1;fill-rule:nonzero;stroke:#370188;stroke-width:3.175;stroke-dasharray:none;stroke-opacity:1"
       d="m 120.78097,217.13102 c -25.532689,-25.40051 -6.65648,-52.88401 18.84146,-51.92555 25.11597,0.94409 40.37051,29.17676 17.00911,51.85551 3.85426,24.96865 10.08031,70.52397 10.63111,104.67395 -1.63141,9.3433 -16.16078,8.9782 -17.23815,-1.43652 -1.07741,-10.41472 -14.01283,-11.94105 -14.57938,-0.16732 -0.50343,10.462 -17.31089,10.41554 -17.74219,-0.1918 -2.53708,-17.45114 1.06293,-77.48945 3.07804,-102.80824 z"
       id="path49"
       sodipodi:nodetypes="csccssccc" />
    <path
       style="fill:#ee02ca;fill-opacity:1;fill-rule:nonzero;stroke:#370188;stroke-width:3.175;stroke-dasharray:none;stroke-opacity:1"
       d="m 112.44656,320.57364 26.58288,0.41306 3.29813,-15.55068 3.43055,15.49144 27.34977,-0.10287 -5.70738,-57.54784 -53.14426,0.29356 z"
       id="path55"
       sodipodi:nodetypes="cccccccc" />
    <path
       style="fill:#ee02ca;fill-opacity:1;fill-rule:nonzero;stroke:#370188;stroke-width:3.175;stroke-dasharray:none;stroke-opacity:1"
       d="m 156.66269,216.18677 16.8729,71.52352 -63.39859,-0.3447 9.64289,-70.83412 15.05207,4.21067 7.76329,0.22502 z"
       id="path56"
       sodipodi:nodetypes="ccccccc" />
    <path
       style="fill:#ee02ca;fill-opacity:1;fill-rule:nonzero;stroke:#370188;stroke-width:3.175;stroke-dasharray:none;stroke-opacity:1"
       d="m 120.39517,222.49398 -17.53946,6.13268 3.43427,17.48755 13.61456,-3.06635"
       id="path57"
       sodipodi:nodetypes="cccc" />
    <path
       style="fill:#ee02ca;fill-opacity:1;fill-rule:nonzero;stroke:#370188;stroke-width:3.175;stroke-dasharray:none;stroke-opacity:1"
       d="m 157.00924,222.31085 17.53946,6.13268 -3.43427,17.48754 -13.61456,-3.06634"
       id="path57-4"
       sodipodi:nodetypes="cccc" />
    <path
       style="fill:#ee02ca;fill-opacity:1;fill-rule:nonzero;stroke:#370188;stroke-width:3.175;stroke-dasharray:none;stroke-opacity:1"
       d="m 119.73938,216.55568 -3.91468,6.00248 c 16.73338,6.11428 28.60553,5.66285 44.05984,-0.0971 l -3.06725,-6.31861 c -13.42763,4.39851 -25.70765,4.4445 -37.07791,0.41324 z"
       id="path58"
       sodipodi:nodetypes="ccccc" />
    <path
       style="fill:#b98bfe;fill-opacity:1;fill-rule:nonzero;stroke:#370188;stroke-width:3.175;stroke-dasharray:none;stroke-opacity:1"
       d="m 156.34075,174.01469 c 0,0 1.31327,-13.11396 -0.93622,-14.04121 -2.24948,-0.92726 -10.69803,10.16316 -10.69803,10.16316"
       id="path66-0"
       sodipodi:nodetypes="czc" />
    <path
       style="fill:#b98bfe;fill-opacity:1;fill-rule:nonzero;stroke:#370188;stroke-width:3.175;stroke-dasharray:none;stroke-opacity:1"
       d="m 119.05663,174.14106 c 0,0 -1.31328,-13.11396 0.93621,-14.04122 2.24949,-0.92725 10.69803,10.16317 10.69803,10.16317"
       id="path66-0-3"
       sodipodi:nodetypes="czc" />
    <path
       style="fill:#fdc458;fill-opacity:1;stroke:#370188;stroke-width:3.175;stroke-dasharray:none;stroke-opacity:1"
       d="m 206.77227,275.4398 c -5.55973,0.96051 -8.23371,4.3201 -9.96277,6.15952 -2.63135,2.79929 -4.99161,2.40659 -4.65757,-0.72919 0.59754,-5.60936 10.19091,-11.53088 14.20248,-11.90652"
       id="path30"
       sodipodi:nodetypes="cssc" />
    <path
       style="fill:#fdc458;fill-opacity:1;stroke:#370188;stroke-width:3.175;stroke-dasharray:none;stroke-opacity:1"
       d="m 224.55052,197.44576 c -12.13057,0.26606 -15.89228,11.18217 -16.1499,18.02856 -0.35985,9.56318 -1.39128,41.01085 1.92155,52.84227 3.31279,11.83143 5.20579,15.61748 24.13606,16.09074 18.9303,0.47326 66.25599,-0.47326 66.25599,-0.47326 0,0 -50.40306,-5.73793 -56.08215,-15.67633 -5.67909,-9.9384 -6.6762,-42.05426 -6.38778,-52.47267 0.20733,-7.48504 -2.33563,-17.86606 -13.69377,-18.33931 z"
       id="path26"
       sodipodi:nodetypes="cssscssc"
       clip-path="url(#clipPath34-6)"
       transform="translate(-1.6110806,42.983945)" />
    <path
       style="fill:#bb7a02;fill-opacity:1;stroke:#370188;stroke-width:3.175;stroke-dasharray:none;stroke-opacity:1"
       d="m 224.14154,273.03083 31.97746,5.88806 23.05606,0.40001 3.08089,-22.66843 -1.5087,-20.24011 -58.74293,-3.00527 z"
       id="path31"
       sodipodi:nodetypes="ccccccc"
       clip-path="url(#clipPath35-1)"
       transform="translate(0.40137927,43.937216)" />
    <circle
       style="fill:#fdc458;fill-opacity:1;stroke:#370188;stroke-width:3.175;stroke-dasharray:none;stroke-opacity:1"
       id="path28"
       cx="203.37367"
       cy="221.87785"
       r="2.4649308" />
    <path
       style="fill:#ffffff;fill-opacity:1;stroke:#370188;stroke-width:3.175;stroke-dasharray:none;stroke-opacity:1"
       d="m 212.74041,243.27345 -7.88775,-18.53627"
       id="path29" />
    <circle
       style="fill:#fdc458;fill-opacity:1;stroke:#370188;stroke-width:3.175;stroke-dasharray:none;stroke-opacity:1"
       id="path28-0"
       cx="-242.14134"
       cy="178.57367"
       r="2.4649308"
       transform="matrix(-1,0,0,1,-1.6110806,42.983945)"
       clip-path="url(#clipPath33-4)" />
    <path
       style="fill:#ffffff;fill-opacity:1;stroke:#370188;stroke-width:3.175;stroke-dasharray:none;stroke-opacity:1"
       d="m 231.16354,242.95321 7.88775,-18.53628"
       id="path29-6" />
    <path
       style="mix-blend-mode:normal;fill:#02ee25;fill-opacity:1;fill-rule:nonzero;stroke:#370188;stroke-width:3.175;stroke-dasharray:none;stroke-opacity:1"
       d="m 205.74049,226.36918 1.62537,6.72842 -0.67367,5.19754 c 0,4.76463 -0.0632,31.61076 -8.46842,42.20189 15.8381,0.55553 79.83356,-0.1552 88.3358,-0.18222 -37.7825,1.13922 -58.0682,-12.11164 -59.33911,-26.02342 0.36421,-2.27978 4.38098,-11.00972 9.95297,-18.21531 0.35485,-0.45889 -0.23241,-2.66962 -0.23241,-2.66962 l 2.67862,-6.24797 -2.90824,-3.1085 -4.96751,6.207 -19.50783,-0.1624 -3.45028,-6.30801 z"
       id="path33"
       sodipodi:nodetypes="cccccccccccccc"
       clip-path="url(#clipPath32-8)"
       transform="translate(-1.6110806,42.983945)" />
    <path
       sodipodi:type="spiral"
       style="fill:#bb7a02;fill-opacity:1;fill-rule:evenodd;stroke:#370188;stroke-width:0.695287;stroke-dasharray:none;stroke-opacity:1"
       id="path27"
       sodipodi:cx="105.75211"
       sodipodi:cy="39.133308"
       sodipodi:expansion="1.9"
       sodipodi:revolution="1.9334221"
       sodipodi:radius="11.889563"
       sodipodi:argument="-18.497511"
       sodipodi:t0="0.12348633"
       d="m 105.69006,39.348002 c -0.32401,0.231852 -0.69518,-0.169723 -0.77546,-0.456763 -0.23505,-0.840481 0.61834,-1.513255 1.36818,-1.593915 1.54382,-0.16607 2.64192,1.346958 2.66372,2.759274 0.0376,2.433739 -2.34375,4.074075 -4.6113,3.978925 -3.50844,-0.14722 -5.803349,-3.60077 -5.534683,-6.911467 0.386721,-4.765458 5.112133,-7.824431 9.650103,-7.327023 4.56164,0.500002 8.17504,4.151459 9.16495,8.548855"
       transform="matrix(-4.5664566,0,0,4.5664566,762.68375,121.98301)"
       clip-path="url(#clipPath1-1)" />
    <path
       style="fill:#b98bfe;fill-opacity:1;fill-rule:nonzero;stroke:#370188;stroke-width:3.175;stroke-dasharray:none;stroke-opacity:1"
       d="m 143.9024,292.04904 c 20.54958,0.51374 16.68139,-21.16571 25.43013,-23.63206 8.50281,-2.39704 12.07291,4.10992 14.8985,8.21984 2.82556,4.10993 -1.54124,8.99046 -5.13744,2.05497 -4.6008,-8.87297 -9.36269,-6.73526 -12.58662,3.08244 -2.40154,7.31334 -7.44922,14.89849 -21.83397,15.15534 -3.05296,-0.461 -3.79534,-3.88663 -0.7706,-4.88053 z"
       id="path68"
       sodipodi:nodetypes="csssscc" />
    <rect
       style="fill:none;fill-opacity:1;fill-rule:nonzero;stroke:#370188;stroke-width:3.175;stroke-dasharray:none;stroke-opacity:1"
       id="rect113-4-2"
       width="282.57498"
       height="354.01248"
       x="1.5875"
       y="1.5875" />
  </g>
</svg>
