<?xml version="1.0" encoding="UTF-8" standalone="no"?>
<!-- Created with Inkscape (http://www.inkscape.org/) -->

<svg
   width="1080"
   height="1350"
   viewBox="0 0 285.74999 357.1875"
   version="1.1"
   id="svg1"
   inkscape:version="1.4 (e7c3feb1, 2024-10-09)"
   sodipodi:docname="panel-00.svg"
   xml:space="preserve"
   xmlns:inkscape="http://www.inkscape.org/namespaces/inkscape"
   xmlns:sodipodi="http://sodipodi.sourceforge.net/DTD/sodipodi-0.dtd"
   xmlns="http://www.w3.org/2000/svg"
   xmlns:svg="http://www.w3.org/2000/svg"><sodipodi:namedview
     id="namedview1"
     pagecolor="#ffffff"
     bordercolor="#000000"
     borderopacity="0.25"
     inkscape:showpageshadow="2"
     inkscape:pageopacity="0.0"
     inkscape:pagecheckerboard="0"
     inkscape:deskcolor="#d1d1d1"
     inkscape:document-units="px"
     inkscape:zoom="0.52574412"
     inkscape:cx="690.44995"
     inkscape:cy="680.93962"
     inkscape:window-width="1728"
     inkscape:window-height="1057"
     inkscape:window-x="0"
     inkscape:window-y="32"
     inkscape:window-maximized="0"
     inkscape:current-layer="layer1"
     showguides="true"
     showgrid="false" /><defs
     id="defs1"><rect
       x="337.60629"
       y="293.08679"
       width="868.13049"
       height="871.84045"
       id="rect26" /><rect
       x="358.01108"
       y="335.75131"
       width="877.4054"
       height="734.57196"
       id="rect25" /><rect
       x="418.44797"
       y="244.75258"
       width="748.0744"
       height="801.36731"
       id="rect16" /><clipPath
       clipPathUnits="userSpaceOnUse"
       id="clipPath32"><rect
         style="fill:none;fill-opacity:1;fill-rule:nonzero;stroke:#370188;stroke-width:3.175;stroke-dasharray:none;stroke-opacity:1"
         id="rect33"
         width="282.57498"
         height="354.01248"
         x="1.5875"
         y="15.875003" /></clipPath><clipPath
       clipPathUnits="userSpaceOnUse"
       id="clipPath33"><rect
         style="fill:none;fill-opacity:1;fill-rule:nonzero;stroke:#370188;stroke-width:3.175;stroke-dasharray:none;stroke-opacity:1"
         id="rect34"
         width="282.57498"
         height="354.01248"
         x="1.5875"
         y="15.875003"
         transform="scale(-1,1)" /></clipPath><clipPath
       clipPathUnits="userSpaceOnUse"
       id="clipPath34"><rect
         style="fill:none;fill-opacity:1;fill-rule:nonzero;stroke:#370188;stroke-width:3.175;stroke-dasharray:none;stroke-opacity:1"
         id="rect35"
         width="282.57498"
         height="354.01248"
         x="1.5875"
         y="15.875003" /></clipPath><clipPath
       clipPathUnits="userSpaceOnUse"
       id="clipPath35"><rect
         style="fill:none;fill-opacity:1;fill-rule:nonzero;stroke:#370188;stroke-width:3.175;stroke-dasharray:none;stroke-opacity:1"
         id="rect36"
         width="282.57498"
         height="354.01248"
         x="1.5875"
         y="15.875003" /></clipPath><clipPath
       clipPathUnits="userSpaceOnUse"
       id="clipPath1"><rect
         style="fill:none;fill-opacity:1;fill-rule:nonzero;stroke:#370188;stroke-width:0.695287;stroke-dasharray:none;stroke-opacity:1"
         id="rect2"
         width="61.880581"
         height="77.524551"
         x="-167.02388"
         y="-16.952217"
         transform="scale(-1,1)" /></clipPath><clipPath
       clipPathUnits="userSpaceOnUse"
       id="clipPath2"><rect
         style="fill:none;fill-opacity:1;fill-rule:nonzero;stroke:#370188;stroke-width:3.175;stroke-dasharray:none;stroke-opacity:1"
         id="rect3"
         width="282.57498"
         height="354.01248"
         x="139.64767"
         y="-132.82672"
         transform="rotate(21.214416)" /></clipPath><clipPath
       clipPathUnits="userSpaceOnUse"
       id="clipPath3"><rect
         style="fill:none;fill-opacity:1;fill-rule:nonzero;stroke:#370188;stroke-width:3.175;stroke-dasharray:none;stroke-opacity:1"
         id="rect4"
         width="282.57498"
         height="354.01248"
         x="1.5875"
         y="1.5875"
         transform="rotate(23.854687)" /></clipPath><clipPath
       clipPathUnits="userSpaceOnUse"
       id="clipPath5"><rect
         style="fill:none;fill-opacity:1;fill-rule:nonzero;stroke:#370188;stroke-width:3.175;stroke-dasharray:none;stroke-opacity:1"
         id="rect6"
         width="282.57498"
         height="354.01248"
         x="1.5875"
         y="1.5875"
         transform="rotate(23.854687)" /></clipPath></defs><g
     inkscape:label="Layer 1"
     inkscape:groupmode="layer"
     id="layer1"><path
       id="path6-3-1-4-1"
       style="fill:#5c58fd;fill-opacity:1;stroke:#370188;stroke-width:3.175;stroke-dasharray:none"
       d="m 191.3611,178.10352 c 0,-4.2183 -3.69877,-7.6749 -7.9375,-7.6749 -4.23873,0 -7.9375,3.43617 -7.9375,7.6749 v 0 c 0,-4.23873 -3.69877,-7.6749 -7.9375,-7.6749 -4.23873,0 -7.9375,3.43617 -7.9375,7.6749 v 0 c 0,-4.23873 -3.69877,-7.6749 -7.9375,-7.6749 -4.23873,0 -7.9375,3.43617 -7.9375,7.6749 v 0 c 0,-4.23873 -3.69877,-7.6749 -7.9375,-7.6749 -4.23873,0 -7.9375,3.43617 -7.9375,7.6749 v 0 c 0,-4.23873 -3.69877,-7.6749 -7.9375,-7.6749 -4.23873,0 -7.9375,3.43617 -7.9375,7.6749 v 0 c 0,-4.23873 -3.69877,-7.6749 -7.9375,-7.6749 -4.238735,0 -7.937495,3.43617 -7.936505,7.6744 9.9e-4,-25.62528 22.001215,-46.39842 47.625985,-46.39842 25.62478,0 47.62302,20.95542 47.62302,46.39892 z"
       sodipodi:nodetypes="csccsccsccsccsccscsc" /><path
       style="fill:none;fill-opacity:1;stroke:#370188;stroke-width:3.175;stroke-dasharray:none"
       d="m 143.73808,131.7046 c -5.92832,0 -31.75211,14.47804 -31.75211,46.39892"
       id="path2"
       sodipodi:nodetypes="cc" /><path
       style="fill:none;fill-opacity:1;stroke:#370188;stroke-width:3.175;stroke-dasharray:none"
       d="m 143.73808,131.7046 c -5.92832,0 -15.87444,26.5791 -15.87444,46.34823"
       id="path2-1"
       sodipodi:nodetypes="cc" /><path
       style="fill:none;fill-opacity:1;stroke:#370188;stroke-width:3.175;stroke-dasharray:none"
       d="m 143.69523,131.7046 c 5.92833,0 15.87445,26.57909 15.87445,46.34822"
       id="path2-1-1"
       sodipodi:nodetypes="cc" /><path
       d="m 143.71612,131.69357 c 5.92833,0 31.75212,14.47804 31.75212,46.39892"
       style="fill:none;fill-opacity:1;stroke:#370188;stroke-width:3.175;stroke-dasharray:none"
       id="path1" /><path
       style="fill:none;fill-opacity:1;stroke:#370188;stroke-width:3.175;stroke-dasharray:none"
       d="m 143.74356,131.89288 v 91.31113 c 0,15.20004 23.22747,15.36627 23.22747,-0.93375"
       id="path3"
       sodipodi:nodetypes="ccc" /><text
       xml:space="preserve"
       transform="scale(0.26458333)"
       id="text16"
       style="font-style:normal;font-variant:normal;font-weight:bold;font-stretch:normal;font-size:60px;font-family:'Josefin Slab';-inkscape-font-specification:'Josefin Slab Bold';text-align:start;letter-spacing:0px;word-spacing:0px;writing-mode:lr-tb;direction:ltr;white-space:pre;shape-inside:url(#rect16);display:inline;fill:#000000;fill-opacity:0;stroke:#370188;stroke-width:12;stroke-opacity:1" /><text
       xml:space="preserve"
       transform="scale(0.26458333)"
       id="text25"
       style="font-style:normal;font-variant:normal;font-weight:bold;font-stretch:normal;font-size:60px;font-family:'Josefin Slab';-inkscape-font-specification:'Josefin Slab Bold';text-align:start;letter-spacing:0px;word-spacing:0px;writing-mode:lr-tb;direction:ltr;white-space:pre;shape-inside:url(#rect25);display:inline;fill:#000000;fill-opacity:0;stroke:#370188;stroke-width:12;stroke-opacity:1" /><text
       xml:space="preserve"
       transform="scale(0.26458333)"
       id="text26"
       style="font-style:normal;font-variant:normal;font-weight:bold;font-stretch:normal;font-size:60px;font-family:'Josefin Slab';-inkscape-font-specification:'Josefin Slab Bold';text-align:start;letter-spacing:0px;word-spacing:0px;writing-mode:lr-tb;direction:ltr;white-space:pre;shape-inside:url(#rect26);display:inline;fill:#000000;fill-opacity:0;stroke:#370188;stroke-width:12;stroke-opacity:1" /><rect
       width="9.8019896"
       height="15.875"
       rx="0"
       ry="0"
       fill="#6002ee"
       stroke-width="0"
       id="rect1-3-4-39-4-2-0-5-6"
       x="247.60098"
       y="332.84583" /><text
       font-family="Montserrat"
       font-size="618.11px"
       font-weight="200"
       stroke-width="0"
       fill="#33333"
       id="text3-0-3-0-0-5-3-3-2"
       x="248.33717"
       y="345.42685"
       style="font-style:normal;font-variant:normal;font-weight:300;font-stretch:normal;font-size:13.0774px;font-family:Montserrat;-inkscape-font-specification:'Montserrat Light'"
       transform="scale(0.99938968,1.0006107)"><tspan
         y="345.42685"
         font-weight="200"
         stroke-width="0"
         id="tspan1-4-8-6-2-1-2-5-9"
         style="font-style:normal;font-variant:normal;font-weight:300;font-stretch:normal;font-size:13.0774px;font-family:Montserrat;-inkscape-font-specification:'Montserrat Light'"><tspan
           style="font-style:normal;font-variant:normal;font-weight:300;font-stretch:normal;font-size:13.0774px;font-family:Montserrat;-inkscape-font-specification:'Montserrat Light';fill:#ffffff;fill-opacity:1;stroke-width:0"
           id="tspan3-6-3-13-5-2-1-6-6">k</tspan></tspan></text><text
       dx="0"
       dy="0"
       font-family="Montserrat"
       font-size="465.256px"
       font-weight="200"
       stroke-width="0"
       fill="#33333"
       id="text3-0-3-6-8-4-0-8-9"
       x="195.17656"
       y="345.42685"
       style="font-style:normal;font-variant:normal;font-weight:300;font-stretch:normal;font-size:13.0774px;font-family:Montserrat;-inkscape-font-specification:'Montserrat Light'"
       transform="scale(0.99938968,1.0006107)"><tspan
         y="345.42685"
         font-weight="200"
         stroke-width="0"
         id="tspan1-4-8-3-9-0-0-6-9"
         style="font-style:normal;font-variant:normal;font-weight:300;font-stretch:normal;font-size:13.0774px;font-family:Montserrat;-inkscape-font-specification:'Montserrat Light'">product</tspan></text><text
       font-family="Montserrat"
       font-size="465.256px"
       font-weight="200"
       stroke-width="0"
       fill="#33333"
       id="text3-0-3-6-4-3-4-3-7-8"
       x="257.78415"
       y="345.42685"
       style="font-style:normal;font-variant:normal;font-weight:300;font-stretch:normal;font-size:13.0774px;font-family:Montserrat;-inkscape-font-specification:'Montserrat Light'"
       transform="scale(0.99938968,1.0006107)"><tspan
         y="345.42685"
         font-weight="200"
         stroke-width="0"
         id="tspan1-4-8-3-6-9-9-9-7-0"
         style="font-style:normal;font-variant:normal;font-weight:300;font-stretch:normal;font-size:13.0774px;font-family:Montserrat;-inkscape-font-specification:'Montserrat Light'">ind</tspan></text><rect
       style="fill:none;fill-opacity:1;fill-rule:nonzero;stroke:#370188;stroke-width:3.175;stroke-dasharray:none;stroke-opacity:1"
       id="rect113-4-2"
       width="282.57498"
       height="354.01248"
       x="1.5875"
       y="1.5875" /><path
       style="fill:#fdb226;fill-opacity:1;fill-rule:nonzero;stroke:#370188;stroke-width:3.175;stroke-dasharray:none;stroke-opacity:1"
       d="m 205.03477,137.12865 c -0.7102,-1.56539 -3.6599,-3.17327 -5.23173,-2.34257 -1.11445,0.58897 -2.37832,1.17164 -3.71341,1.68307 -5.64913,2.16403 -12.57323,3.05274 -14.84677,-2.25219 -3.56869,-8.32695 14.68307,-21.37133 23.01001,-20.97481 8.32698,0.3965 11.89565,8.32695 11.89565,15.06782 0,6.74087 7.53396,84.06263 7.53396,84.06263 l -18.63649,21.01568 -9.2951,-7.57473 2.81651,-90.24369"
       id="path83"
       sodipodi:nodetypes="cssssscccc" /><circle
       style="fill:#370188;fill-opacity:1;stroke:none;stroke-width:12.6211;stroke-dasharray:none;stroke-opacity:1"
       id="path9-5-7-5-2-3-8"
       cx="195.6508"
       cy="122.01572"
       r="2.1166666" /><circle
       style="fill:#370188;fill-opacity:1;stroke:none;stroke-width:12.6211;stroke-dasharray:none;stroke-opacity:1"
       id="path9-5-7-5-2-3-8-3"
       cx="193.19203"
       cy="106.72894"
       r="2.6458333" /><circle
       style="fill:#370188;fill-opacity:1;stroke:none;stroke-width:12.6211;stroke-dasharray:none;stroke-opacity:1"
       id="path9-5-7-5-2-3-8-8"
       cx="211.99377"
       cy="106.34557"
       r="2.6458333" /><circle
       style="fill:#370188;fill-opacity:1;stroke:none;stroke-width:12.6211;stroke-dasharray:none;stroke-opacity:1"
       id="path9-5-7-6-7-6-0-4"
       cx="203.94409"
       cy="124.22089"
       r="2.1166666" /><path
       style="fill:#fdb226;fill-opacity:1;fill-rule:nonzero;stroke:#370188;stroke-width:3.175;stroke-dasharray:none;stroke-opacity:1"
       d="m 181.40596,222.95173 c 0,0 -16.79744,1.0955 -18.98841,5.11226 -2.19097,4.01679 -3.28644,7.30323 0.36516,9.12905 3.65163,1.82581 21.90966,-4.01679 21.90966,-4.01679"
       id="path82-4" /><path
       style="fill:#fdb226;fill-opacity:1;fill-rule:nonzero;stroke:#370188;stroke-width:3.175;stroke-dasharray:none;stroke-opacity:1"
       d="m 192.61139,302.30209 c 0,0 -4.10372,18.93538 -0.0718,21.09854 4.19938,2.25305 6.71887,2.3837 10.09863,0.0937 2.54984,-1.72781 0.65922,-22.26507 0.65922,-22.26507"
       id="path82-2-5"
       sodipodi:nodetypes="cssc" /><path
       style="fill:#fdb226;fill-opacity:1;fill-rule:nonzero;stroke:#370188;stroke-width:3.175;stroke-dasharray:none;stroke-opacity:1"
       d="m 226.75397,302.21234 c 0,0 -4.10372,18.93541 -0.0717,21.09854 4.19938,2.25304 6.71887,2.38369 10.09862,0.0937 2.54985,-1.7278 0.65923,-22.26507 0.65923,-22.26507"
       id="path82-2-7-3"
       sodipodi:nodetypes="cssc" /><path
       style="fill:#fdb226;fill-opacity:1;fill-rule:nonzero;stroke:#370188;stroke-width:3.175;stroke-dasharray:none;stroke-opacity:1"
       d="m 236.28681,222.5098 c 0,0 16.79744,1.09547 18.98841,5.11226 2.19097,4.01676 3.28644,7.30323 -0.36516,9.12902 -3.65163,1.82581 -21.90966,-4.01676 -21.90966,-4.01676"
       id="path82-5-0" /><path
       style="fill:#885901;fill-opacity:1;fill-rule:nonzero;stroke:#370188;stroke-width:2.84831;stroke-dasharray:none;stroke-opacity:1"
       d="m 197.12719,204.786 c 0.22669,1.95517 4.30701,3.46218 6.9515,1.31607 2.64449,-2.14608 3.91967,-9.97109 3.1785,-14.33195 -0.74118,-4.36083 -3.38614,-9.26446 -6.03911,-9.15651 -2.653,0.10795 -3.70716,2.20907 -3.77304,6.54304 -0.066,4.33394 -0.54451,13.67419 -0.31785,15.62935 z m 18.85134,-15.35522 c 3.1042,0.76778 4.79288,-2.98758 4.61804,-6.32799 -0.17463,-3.34042 -0.67212,-9.02913 -0.94996,-13.43267 -0.27782,-4.4035 -2.18955,-7.29596 -4.96215,-6.45861 -2.77263,0.83734 -2.98158,7.32815 -2.8755,11.93885 0.10605,4.61071 1.0654,13.51264 4.16957,14.28042 z m -17.84007,-23.08333 c -0.3121,3.24431 2.74472,6.00783 4.97703,5.58775 2.23231,-0.42005 3.0682,-2.98225 3.53749,-7.36235 0.46933,-4.38013 -0.92437,-15.84125 -3.88512,-17.25025 -2.96075,-1.409 -3.73815,-0.64071 -3.95249,3.17065 -0.21431,3.8114 -0.36462,12.60989 -0.67691,15.8542 z m 20.25475,62.11208 c 3.55695,0.63389 4.54047,-2.91725 4.61807,-6.32796 0.0775,-3.41071 0.0222,-10.19239 -0.41151,-13.20784 -0.43253,-3.01543 -3.59064,-4.28638 -5.85962,-3.76073 -2.26898,0.52569 -4.35055,2.22393 -4.84997,6.76786 -0.49943,4.54397 2.94614,15.89482 6.50303,16.52867 z"
       id="path84"
       sodipodi:nodetypes="zzzzzzzzzzzzzzzzzzzzzzzz" /><path
       style="fill:#9a58fd;fill-opacity:1;fill-rule:nonzero;stroke:#370188;stroke-width:3.175;stroke-dasharray:none;stroke-opacity:1"
       d="m 229.4733,221.66487 8.7904,57.84047 -50.86547,-0.19177 6.19331,-54.76129 c 12.30484,3.05038 23.59759,1.43555 35.88176,-2.88731 z"
       id="path56-7-2-0-7"
       sodipodi:nodetypes="ccccc" /><path
       style="fill:#0288bb;fill-opacity:1;fill-rule:nonzero;stroke:#370188;stroke-width:3.175;stroke-dasharray:none;stroke-opacity:1"
       d="m 184.26815,312.36868 26.58288,0.41307 3.29813,-15.5507 3.43055,15.49146 27.34977,-0.10287 -8.4561,-44.42556 -47.87284,0.13558 z"
       id="path55-9-6-4-6"
       sodipodi:nodetypes="cccccccc" /><path
       style="fill:none;fill-opacity:1;fill-rule:nonzero;stroke:#370188;stroke-width:3.175;stroke-dasharray:none;stroke-opacity:1"
       d="m 212.90837,298.37443 4.89836,0.11049 -1.97206,-17.41675"
       id="path71-3-2-4"
       sodipodi:nodetypes="ccc" /><path
       style="fill:none;fill-opacity:1;fill-rule:nonzero;stroke:#370188;stroke-width:3.175;stroke-dasharray:none;stroke-opacity:1"
       d="m 200.17579,116.45077 c -0.64641,-6.27043 -0.82681,-17.025282 -6.45282,-10.26617"
       id="path85"
       sodipodi:nodetypes="cc" /><path
       style="fill:none;fill-opacity:1;fill-rule:nonzero;stroke:#370188;stroke-width:3.175;stroke-dasharray:none;stroke-opacity:1"
       d="m 204.95344,116.09508 c 0.41246,-6.1921 -0.58934,-17.462775 6.7389,-10.01698"
       id="path86"
       sodipodi:nodetypes="cc" /><path
       style="fill:#9a58fd;fill-opacity:1;fill-rule:nonzero;stroke:#370188;stroke-width:3.175;stroke-dasharray:none;stroke-opacity:1"
       d="m 198.09306,234.11319 -19.46977,5.30993 -4.56467,-20.02869 19.65608,-5.30993 c 10.36006,6.2932 20.84886,7.01421 32.69802,-1.58366 l 20.02866,7.26621 -4.2852,18.63134 -17.88607,-6.24148"
       id="path87"
       sodipodi:nodetypes="cccccccc" /><path
       style="fill:#26c2fd;fill-opacity:1;stroke:#370188;stroke-width:1.5875;stroke-dasharray:none"
       d="m 34.94621,67.31541 c -5.54941,8.27806 5.50241,8.35374 0,0 z"
       id="path10"
       sodipodi:nodetypes="cc" /><path
       style="fill:#26c2fd;fill-opacity:1;stroke:#370188;stroke-width:1.5875;stroke-dasharray:none"
       d="m 92.096203,67.579991 c -5.54941,8.27806 5.50241,8.35374 0,0 z"
       id="path10-0"
       sodipodi:nodetypes="cc" /><path
       style="fill:#26c2fd;fill-opacity:1;stroke:#370188;stroke-width:1.5875;stroke-dasharray:none"
       d="m 62.462871,54.615408 c -5.54941,8.27806 5.50241,8.35374 0,0 z"
       id="path10-7"
       sodipodi:nodetypes="cc" /><path
       style="fill:#26c2fd;fill-opacity:1;stroke:#370188;stroke-width:1.5875;stroke-dasharray:none"
       d="m 118.28995,48.529992 c -5.54941,8.27806 5.50241,8.35374 0,0 z"
       id="path10-4"
       sodipodi:nodetypes="cc" /><path
       style="fill:#26c2fd;fill-opacity:1;stroke:#370188;stroke-width:1.5875;stroke-dasharray:none"
       d="m 92.62537,23.923742 c -5.54941,8.27806 5.50241,8.35374 0,0 z"
       id="path10-5"
       sodipodi:nodetypes="cc" /><path
       style="fill:#26c2fd;fill-opacity:1;stroke:#370188;stroke-width:1.5875;stroke-dasharray:none"
       d="m 36.798288,35.036242 c -5.54941,8.27806 5.50241,8.35374 0,0 z"
       id="path10-3"
       sodipodi:nodetypes="cc" /><path
       style="fill:#26c2fd;fill-opacity:1;stroke:#370188;stroke-width:1.5875;stroke-dasharray:none"
       d="m 68.019121,20.748742 c -5.54941,8.27806 5.50241,8.35374 0,0 z"
       id="path10-49"
       sodipodi:nodetypes="cc" /><path
       style="fill:#26c2fd;fill-opacity:1;stroke:#370188;stroke-width:1.5875;stroke-dasharray:none"
       d="m 88.65662,46.942492 c -5.54941,8.27806 5.50241,8.35374 0,0 z"
       id="path10-32"
       sodipodi:nodetypes="cc" /><path
       style="fill:#26c2fd;fill-opacity:1;stroke:#370188;stroke-width:1.5875;stroke-dasharray:none"
       d="m 106.64829,93.773741 c -5.54941,8.278059 5.50241,8.353739 0,0 z"
       id="path10-8"
       sodipodi:nodetypes="cc" /><path
       style="fill:#26c2fd;fill-opacity:1;stroke:#370188;stroke-width:1.5875;stroke-dasharray:none"
       d="m 51.350371,101.44666 c -5.54941,8.27806 5.50241,8.35374 0,0 z"
       id="path10-06"
       sodipodi:nodetypes="cc" /><path
       style="fill:#26c2fd;fill-opacity:1;stroke:#370188;stroke-width:1.5875;stroke-dasharray:none"
       d="m 74.898287,80.279991 c -5.54941,8.27806 5.50241,8.35374 0,0 z"
       id="path10-33"
       sodipodi:nodetypes="cc" /><path
       style="fill:#26c2fd;fill-opacity:1;stroke:#370188;stroke-width:1.5875;stroke-dasharray:none"
       d="m 81.51287,102.76957 c -5.54941,8.27806 5.50241,8.35374 0,0 z"
       id="path10-00"
       sodipodi:nodetypes="cc" /><path
       style="fill:#26c2fd;fill-opacity:1;stroke:#370188;stroke-width:1.5875;stroke-dasharray:none"
       d="m 137.33995,79.750824 c -5.54941,8.27806 5.50241,8.35374 0,0 z"
       id="path10-84"
       sodipodi:nodetypes="cc" /><path
       style="fill:#26c2fd;fill-opacity:1;stroke:#370188;stroke-width:1.5875;stroke-dasharray:none"
       d="m 148.45245,30.009158 c -5.54941,8.27806 5.50241,8.35374 0,0 z"
       id="path10-09"
       sodipodi:nodetypes="cc" /><path
       style="fill:#26c2fd;fill-opacity:1;stroke:#370188;stroke-width:1.5875;stroke-dasharray:none"
       d="m 117.76079,15.192492 c -5.54941,8.27806 5.50241,8.35374 0,0 z"
       id="path10-35"
       sodipodi:nodetypes="cc" /><path
       style="fill:#26c2fd;fill-opacity:1;stroke:#370188;stroke-width:1.5875;stroke-dasharray:none"
       d="m 117.23162,76.840408 c -5.54941,8.27806 5.50241,8.35374 0,0 z"
       id="path10-1"
       sodipodi:nodetypes="cc" /><path
       style="fill:#26c2fd;fill-opacity:1;stroke:#370188;stroke-width:1.5875;stroke-dasharray:none"
       d="m 176.76287,75.252908 c -5.54941,8.27806 5.50241,8.35374 0,0 z"
       id="path10-9"
       sodipodi:nodetypes="cc" /><path
       style="fill:#26c2fd;fill-opacity:1;stroke:#370188;stroke-width:1.5875;stroke-dasharray:none"
       d="m 158.50662,102.76957 c -5.54941,8.27806 5.50241,8.35374 0,0 z"
       id="path10-98"
       sodipodi:nodetypes="cc" /><path
       style="fill:#26c2fd;fill-opacity:1;stroke:#370188;stroke-width:1.5875;stroke-dasharray:none"
       d="m 149.51079,57.525825 c -5.54941,8.27806 5.50241,8.35374 0,0 z"
       id="path10-842"
       sodipodi:nodetypes="cc" /><path
       style="fill:#26c2fd;fill-opacity:1;stroke:#370188;stroke-width:1.5875;stroke-dasharray:none"
       d="m 132.31287,34.507075 c -5.54941,8.27806 5.50241,8.35374 0,0 z"
       id="path10-07"
       sodipodi:nodetypes="cc" /><path
       style="fill:#26c2fd;fill-opacity:1;stroke:#370188;stroke-width:1.5875;stroke-dasharray:none"
       d="m 193.6962,37.946658 c -5.54941,8.27806 5.50241,8.35374 0,0 z"
       id="path10-39"
       sodipodi:nodetypes="cc" /><path
       style="fill:#26c2fd;fill-opacity:1;stroke:#370188;stroke-width:1.5875;stroke-dasharray:none"
       d="m 174.6462,19.425825 c -5.54941,8.27806 5.50241,8.35374 0,0 z"
       id="path10-31"
       sodipodi:nodetypes="cc" /><path
       style="fill:#26c2fd;fill-opacity:1;stroke:#370188;stroke-width:1.5875;stroke-dasharray:none"
       d="m 171.20662,41.386242 c -5.54941,8.27806 5.50241,8.35374 0,0 z"
       id="path10-04"
       sodipodi:nodetypes="cc" /><path
       style="fill:#26c2fd;fill-opacity:1;stroke:#370188;stroke-width:1.5875;stroke-dasharray:none"
       d="m 202.42745,79.750824 c -5.54941,8.27806 5.50241,8.35374 0,0 z"
       id="path10-6"
       sodipodi:nodetypes="cc" /><path
       style="fill:#26c2fd;fill-opacity:1;stroke:#370188;stroke-width:1.5875;stroke-dasharray:none"
       d="m 234.44203,31.861242 c -5.54941,8.27806 5.50241,8.35374 0,0 z"
       id="path10-64"
       sodipodi:nodetypes="cc" /><path
       style="fill:#26c2fd;fill-opacity:1;stroke:#370188;stroke-width:1.5875;stroke-dasharray:none"
       d="m 210.36495,18.896659 c -5.54941,8.27806 5.50241,8.35374 0,0 z"
       id="path10-498"
       sodipodi:nodetypes="cc" /><path
       style="fill:#26c2fd;fill-opacity:1;stroke:#370188;stroke-width:1.5875;stroke-dasharray:none"
       d="m 226.50453,87.688324 c -5.54941,8.27806 5.50241,8.35374 0,0 z"
       id="path10-74"
       sodipodi:nodetypes="cc" /><path
       style="fill:#26c2fd;fill-opacity:1;stroke:#370188;stroke-width:1.5875;stroke-dasharray:none"
       d="m 241.05662,129.49249 c -5.54941,8.27806 5.50241,8.35374 0,0 z"
       id="path10-12"
       sodipodi:nodetypes="cc" /><path
       style="fill:#26c2fd;fill-opacity:1;stroke:#370188;stroke-width:1.5875;stroke-dasharray:none"
       d="m 243.96703,176.85291 c -5.54941,8.27806 5.50241,8.35374 0,0 z"
       id="path10-99"
       sodipodi:nodetypes="cc" /><path
       style="fill:#26c2fd;fill-opacity:1;stroke:#370188;stroke-width:1.5875;stroke-dasharray:none"
       d="m 222.53578,50.646658 c -5.54941,8.27806 5.50241,8.35374 0,0 z"
       id="path10-398"
       sodipodi:nodetypes="cc" /><path
       style="fill:#26c2fd;fill-opacity:1;stroke:#370188;stroke-width:1.5875;stroke-dasharray:none"
       d="m 189.72745,56.467491 c -5.54941,8.27806 5.50241,8.35374 0,0 z"
       id="path10-34"
       sodipodi:nodetypes="cc" /><path
       style="fill:#26c2fd;fill-opacity:1;stroke:#370188;stroke-width:1.5875;stroke-dasharray:none"
       d="m 257.1962,56.467491 c -5.54941,8.27806 5.50241,8.35374 0,0 z"
       id="path10-494"
       sodipodi:nodetypes="cc" /><path
       style="fill:#26c2fd;fill-opacity:1;stroke:#370188;stroke-width:1.5875;stroke-dasharray:none"
       d="m 256.13787,23.923742 c -5.54941,8.27806 5.50241,8.35374 0,0 z"
       id="path10-70"
       sodipodi:nodetypes="cc" /><path
       style="fill:#26c2fd;fill-opacity:1;stroke:#370188;stroke-width:1.5875;stroke-dasharray:none"
       d="m 243.70245,77.104991 c -5.54941,8.27806 5.50241,8.35374 0,0 z"
       id="path10-15"
       sodipodi:nodetypes="cc" /><path
       style="fill:#26c2fd;fill-opacity:1;stroke:#370188;stroke-width:1.5875;stroke-dasharray:none"
       d="m 254.28578,121.02582 c -5.54941,8.27806 5.50241,8.35374 0,0 z"
       id="path10-128"
       sodipodi:nodetypes="cc" /><path
       style="fill:#26c2fd;fill-opacity:1;stroke:#370188;stroke-width:1.5875;stroke-dasharray:none"
       d="m 261.69412,88.746657 c -5.54941,8.27806 5.50241,8.35374 0,0 z"
       id="path10-79"
       sodipodi:nodetypes="cc" /><path
       style="fill:#26c2fd;fill-opacity:1;stroke:#370188;stroke-width:1.5875;stroke-dasharray:none"
       d="m 229.41495,113.88207 c -5.54941,8.27806 5.50241,8.35374 0,0 z"
       id="path10-2"
       sodipodi:nodetypes="cc" /><path
       style="fill:#26c2fd;fill-opacity:1;stroke:#370188;stroke-width:1.5875;stroke-dasharray:none"
       d="m 225.97537,170.23832 c -5.54941,8.27806 5.50241,8.35374 0,0 z"
       id="path10-10"
       sodipodi:nodetypes="cc" /><path
       style="fill:#26c2fd;fill-opacity:1;stroke:#370188;stroke-width:1.5875;stroke-dasharray:none"
       d="m 261.69412,158.86124 c -5.54941,8.27806 5.50241,8.35374 0,0 z"
       id="path10-009"
       sodipodi:nodetypes="cc" /><path
       style="fill:#26c2fd;fill-opacity:1;stroke:#370188;stroke-width:1.5875;stroke-dasharray:none"
       d="m 272.80662,221.03832 c -5.54941,8.27806 5.50241,8.35374 0,0 z"
       id="path10-02"
       sodipodi:nodetypes="cc" /><path
       style="fill:#26c2fd;fill-opacity:1;stroke:#370188;stroke-width:1.5875;stroke-dasharray:none"
       d="m 251.11078,187.96541 c -5.54941,8.27806 5.50241,8.35374 0,0 z"
       id="path10-22"
       sodipodi:nodetypes="cc" /><path
       style="fill:#26c2fd;fill-opacity:1;stroke:#370188;stroke-width:1.5875;stroke-dasharray:none"
       d="m 28.067038,167.32791 c -5.54941,8.27806 5.50241,8.35374 0,0 z"
       id="path10-049"
       sodipodi:nodetypes="cc" /><path
       style="fill:#26c2fd;fill-opacity:1;stroke:#370188;stroke-width:1.5875;stroke-dasharray:none"
       d="m 49.233704,138.22374 c -5.54941,8.27806 5.50241,8.35374 0,0 z"
       id="path10-069"
       sodipodi:nodetypes="cc" /><path
       style="fill:#26c2fd;fill-opacity:1;stroke:#370188;stroke-width:1.5875;stroke-dasharray:none"
       d="m 20.129538,108.32582 c -5.54941,8.27806 5.50241,8.35374 0,0 z"
       id="path10-28"
       sodipodi:nodetypes="cc" /><path
       style="fill:#26c2fd;fill-opacity:1;stroke:#370188;stroke-width:1.5875;stroke-dasharray:none"
       d="m 62.992037,169.44457 c -5.54941,8.27806 5.50241,8.35374 0,0 z"
       id="path10-95"
       sodipodi:nodetypes="cc" /><path
       style="fill:#26c2fd;fill-opacity:1;stroke:#370188;stroke-width:1.5875;stroke-dasharray:none"
       d="m 94.21287,128.43416 c -5.54941,8.27806 5.50241,8.35374 0,0 z"
       id="path10-89"
       sodipodi:nodetypes="cc" /><path
       style="fill:#26c2fd;fill-opacity:1;stroke:#370188;stroke-width:1.5875;stroke-dasharray:none"
       d="m 123.8462,108.32582 c -5.54941,8.27806 5.50241,8.35374 0,0 z"
       id="path10-40"
       sodipodi:nodetypes="cc" /><path
       style="fill:#26c2fd;fill-opacity:1;stroke:#370188;stroke-width:1.5875;stroke-dasharray:none"
       d="m 79.92537,210.19041 c -5.54941,8.27806 5.50241,8.35374 0,0 z"
       id="path10-14"
       sodipodi:nodetypes="cc" /><path
       style="fill:#26c2fd;fill-opacity:1;stroke:#370188;stroke-width:1.5875;stroke-dasharray:none"
       d="m 50.821204,235.85499 c -5.54941,8.27806 5.50241,8.35374 0,0 z"
       id="path10-023"
       sodipodi:nodetypes="cc" /><path
       style="fill:#26c2fd;fill-opacity:1;stroke:#370188;stroke-width:1.5875;stroke-dasharray:none"
       d="m 29.125371,201.98832 c -5.54941,8.27806 5.50241,8.35374 0,0 z"
       id="path10-13"
       sodipodi:nodetypes="cc" /><path
       style="fill:#26c2fd;fill-opacity:1;stroke:#370188;stroke-width:1.5875;stroke-dasharray:none"
       d="m 49.233704,207.54457 c -5.54941,8.27806 5.50241,8.35374 0,0 z"
       id="path10-402"
       sodipodi:nodetypes="cc" /><path
       style="fill:#26c2fd;fill-opacity:1;stroke:#370188;stroke-width:1.5875;stroke-dasharray:none"
       d="m 56.377454,287.44874 c -5.54941,8.27806 5.50241,8.35374 0,0 z"
       id="path10-490"
       sodipodi:nodetypes="cc" /><path
       style="fill:#26c2fd;fill-opacity:1;stroke:#370188;stroke-width:1.5875;stroke-dasharray:none"
       d="m 28.596204,311.26124 c -5.54941,8.27806 5.50241,8.35374 0,0 z"
       id="path10-82"
       sodipodi:nodetypes="cc" /><path
       style="fill:#26c2fd;fill-opacity:1;stroke:#370188;stroke-width:1.5875;stroke-dasharray:none"
       d="m 33.358705,247.76124 c -5.549411,8.27806 5.502409,8.35374 0,0 z"
       id="path10-329"
       sodipodi:nodetypes="cc" /><path
       style="fill:#26c2fd;fill-opacity:1;stroke:#370188;stroke-width:1.5875;stroke-dasharray:none"
       d="m 250.58162,281.6279 c -5.54941,8.27806 5.50241,8.35374 0,0 z"
       id="path10-86"
       sodipodi:nodetypes="cc" /><path
       style="fill:#26c2fd;fill-opacity:1;stroke:#370188;stroke-width:1.5875;stroke-dasharray:none"
       d="m 215.9212,262.84249 c -5.54941,8.27806 5.50241,8.35374 0,0 z"
       id="path10-69"
       sodipodi:nodetypes="cc" /><path
       style="fill:#26c2fd;fill-opacity:1;stroke:#370188;stroke-width:1.5875;stroke-dasharray:none"
       d="m 273.86495,260.9904 c -5.54941,8.27806 5.50241,8.35374 0,0 z"
       id="path10-26"
       sodipodi:nodetypes="cc" /><path
       style="fill:#26c2fd;fill-opacity:1;stroke:#370188;stroke-width:1.5875;stroke-dasharray:none"
       d="m 208.24828,236.11957 c -5.54941,8.27806 5.50241,8.35374 0,0 z"
       id="path10-21"
       sodipodi:nodetypes="cc" /><path
       style="fill:#26c2fd;fill-opacity:1;stroke:#370188;stroke-width:1.5875;stroke-dasharray:none"
       d="m 231.53162,294.59249 c -5.54941,8.27806 5.50241,8.35374 0,0 z"
       id="path10-73"
       sodipodi:nodetypes="cc" /><path
       style="fill:#26c2fd;fill-opacity:1;stroke:#370188;stroke-width:1.5875;stroke-dasharray:none"
       d="m 204.27953,199.60707 c -5.54941,8.27806 5.50241,8.35374 0,0 z"
       id="path10-59"
       sodipodi:nodetypes="cc" /><path
       style="fill:#26c2fd;fill-opacity:1;stroke:#370188;stroke-width:1.5875;stroke-dasharray:none"
       d="m 208.24828,149.60082 c -5.54941,8.27806 5.50241,8.35374 0,0 z"
       id="path10-08"
       sodipodi:nodetypes="cc" /><path
       style="fill:#26c2fd;fill-opacity:1;stroke:#370188;stroke-width:1.5875;stroke-dasharray:none"
       d="m 180.20245,121.55499 c -5.54941,8.27806 5.50241,8.35374 0,0 z"
       id="path10-23"
       sodipodi:nodetypes="cc" /><path
       style="fill:#26c2fd;fill-opacity:1;stroke:#370188;stroke-width:1.5875;stroke-dasharray:none"
       d="m 174.11704,86.894574 c -5.54941,8.27806 5.50241,8.35374 0,0 z"
       id="path10-63"
       sodipodi:nodetypes="cc" /></g></svg>
