<?xml version="1.0" encoding="UTF-8" standalone="no"?>
<!-- Created with Inkscape (http://www.inkscape.org/) -->

<svg
   width="1080"
   height="1350"
   viewBox="0 0 285.74999 357.1875"
   version="1.1"
   id="svg1"
   inkscape:version="1.4 (e7c3feb1, 2024-10-09)"
   sodipodi:docname="panel-03.svg"
   xml:space="preserve"
   xmlns:inkscape="http://www.inkscape.org/namespaces/inkscape"
   xmlns:sodipodi="http://sodipodi.sourceforge.net/DTD/sodipodi-0.dtd"
   xmlns="http://www.w3.org/2000/svg"
   xmlns:svg="http://www.w3.org/2000/svg"><sodipodi:namedview
     id="namedview1"
     pagecolor="#ffffff"
     bordercolor="#000000"
     borderopacity="0.25"
     inkscape:showpageshadow="2"
     inkscape:pageopacity="0.0"
     inkscape:pagecheckerboard="0"
     inkscape:deskcolor="#d1d1d1"
     inkscape:document-units="px"
     inkscape:zoom="0.34319986"
     inkscape:cx="107.8089"
     inkscape:cy="329.25421"
     inkscape:window-width="1728"
     inkscape:window-height="1057"
     inkscape:window-x="0"
     inkscape:window-y="32"
     inkscape:window-maximized="0"
     inkscape:current-layer="layer1"
     showguides="true"
     showgrid="false" /><defs
     id="defs1"><rect
       x="337.60629"
       y="293.08679"
       width="868.13049"
       height="871.84045"
       id="rect26" /><rect
       x="358.01108"
       y="335.75131"
       width="877.4054"
       height="734.57196"
       id="rect25" /><rect
       x="418.44797"
       y="244.75258"
       width="748.0744"
       height="801.36731"
       id="rect16" /><clipPath
       clipPathUnits="userSpaceOnUse"
       id="clipPath32"><rect
         style="fill:none;fill-opacity:1;fill-rule:nonzero;stroke:#370188;stroke-width:3.175;stroke-dasharray:none;stroke-opacity:1"
         id="rect33"
         width="282.57498"
         height="354.01248"
         x="1.5875"
         y="15.875003" /></clipPath><clipPath
       clipPathUnits="userSpaceOnUse"
       id="clipPath33"><rect
         style="fill:none;fill-opacity:1;fill-rule:nonzero;stroke:#370188;stroke-width:3.175;stroke-dasharray:none;stroke-opacity:1"
         id="rect34"
         width="282.57498"
         height="354.01248"
         x="1.5875"
         y="15.875003"
         transform="scale(-1,1)" /></clipPath><clipPath
       clipPathUnits="userSpaceOnUse"
       id="clipPath34"><rect
         style="fill:none;fill-opacity:1;fill-rule:nonzero;stroke:#370188;stroke-width:3.175;stroke-dasharray:none;stroke-opacity:1"
         id="rect35"
         width="282.57498"
         height="354.01248"
         x="1.5875"
         y="15.875003" /></clipPath><clipPath
       clipPathUnits="userSpaceOnUse"
       id="clipPath35"><rect
         style="fill:none;fill-opacity:1;fill-rule:nonzero;stroke:#370188;stroke-width:3.175;stroke-dasharray:none;stroke-opacity:1"
         id="rect36"
         width="282.57498"
         height="354.01248"
         x="1.5875"
         y="15.875003" /></clipPath><clipPath
       clipPathUnits="userSpaceOnUse"
       id="clipPath1"><rect
         style="fill:none;fill-opacity:1;fill-rule:nonzero;stroke:#370188;stroke-width:0.695287;stroke-dasharray:none;stroke-opacity:1"
         id="rect2"
         width="61.880581"
         height="77.524551"
         x="-167.02388"
         y="-16.952217"
         transform="scale(-1,1)" /></clipPath><clipPath
       clipPathUnits="userSpaceOnUse"
       id="clipPath2"><rect
         style="fill:none;fill-opacity:1;fill-rule:nonzero;stroke:#370188;stroke-width:3.175;stroke-dasharray:none;stroke-opacity:1"
         id="rect3"
         width="282.57498"
         height="354.01248"
         x="139.64767"
         y="-132.82672"
         transform="rotate(21.214416)" /></clipPath><clipPath
       clipPathUnits="userSpaceOnUse"
       id="clipPath3"><rect
         style="fill:none;fill-opacity:1;fill-rule:nonzero;stroke:#370188;stroke-width:3.175;stroke-dasharray:none;stroke-opacity:1"
         id="rect4"
         width="282.57498"
         height="354.01248"
         x="1.5875"
         y="1.5875"
         transform="rotate(23.854687)" /></clipPath><clipPath
       clipPathUnits="userSpaceOnUse"
       id="clipPath5"><rect
         style="fill:none;fill-opacity:1;fill-rule:nonzero;stroke:#370188;stroke-width:3.175;stroke-dasharray:none;stroke-opacity:1"
         id="rect6"
         width="282.57498"
         height="354.01248"
         x="1.5875"
         y="1.5875"
         transform="rotate(23.854687)" /></clipPath></defs><g
     inkscape:label="Layer 1"
     inkscape:groupmode="layer"
     id="layer1"><path
       id="path6-3-1-4-1"
       style="fill:#5c58fd;fill-opacity:1;stroke:#370188;stroke-width:3.175;stroke-dasharray:none"
       d="m 196.51379,94.279122 c 0,-4.2183 -3.69877,-7.6749 -7.9375,-7.6749 -4.23873,0 -7.9375,3.43617 -7.9375,7.6749 v 0 c 0,-4.23873 -3.69877,-7.6749 -7.9375,-7.6749 -4.23873,0 -7.9375,3.43617 -7.9375,7.6749 v 0 c 0,-4.23873 -3.69877,-7.6749 -7.9375,-7.6749 -4.23873,0 -7.9375,3.43617 -7.9375,7.6749 v 0 c 0,-4.23873 -3.69877,-7.6749 -7.9375,-7.6749 -4.23873,0 -7.9375,3.43617 -7.9375,7.6749 v 0 c 0,-4.23873 -3.69877,-7.6749 -7.9375,-7.6749 -4.23873,0 -7.9375,3.43617 -7.9375,7.6749 v 0 c 0,-4.23873 -3.69877,-7.6749 -7.9375,-7.6749 -4.23874,0 -7.9375,3.43617 -7.93651,7.6744 9.9e-4,-25.62528 22.00122,-46.39842 47.62599,-46.39842 25.62478,0 47.62302,20.95542 47.62302,46.39892 z"
       sodipodi:nodetypes="csccsccsccsccsccscsc" /><path
       style="fill:none;fill-opacity:1;stroke:#370188;stroke-width:3.175;stroke-dasharray:none"
       d="m 148.89077,47.880202 c -5.92832,0 -31.75211,14.47804 -31.75211,46.39892"
       id="path2"
       sodipodi:nodetypes="cc" /><path
       style="fill:none;fill-opacity:1;stroke:#370188;stroke-width:3.175;stroke-dasharray:none"
       d="m 148.89077,47.880202 c -5.92832,0 -15.87444,26.5791 -15.87444,46.34823"
       id="path2-1"
       sodipodi:nodetypes="cc" /><path
       style="fill:none;fill-opacity:1;stroke:#370188;stroke-width:3.175;stroke-dasharray:none"
       d="m 148.84792,47.880202 c 5.92833,0 15.87445,26.57909 15.87445,46.34822"
       id="path2-1-1"
       sodipodi:nodetypes="cc" /><path
       d="m 148.86881,47.869172 c 5.92833,0 31.75212,14.47804 31.75212,46.39892"
       style="fill:none;fill-opacity:1;stroke:#370188;stroke-width:3.175;stroke-dasharray:none"
       id="path1" /><path
       style="fill:none;fill-opacity:1;stroke:#370188;stroke-width:3.175;stroke-dasharray:none"
       d="m 148.89625,48.068482 v 43.50191"
       id="path3"
       sodipodi:nodetypes="cc" /><text
       xml:space="preserve"
       transform="scale(0.26458333)"
       id="text16"
       style="font-style:normal;font-variant:normal;font-weight:bold;font-stretch:normal;font-size:60px;font-family:'Josefin Slab';-inkscape-font-specification:'Josefin Slab Bold';text-align:start;letter-spacing:0px;word-spacing:0px;writing-mode:lr-tb;direction:ltr;white-space:pre;shape-inside:url(#rect16);display:inline;fill:#000000;fill-opacity:0;stroke:#370188;stroke-width:12;stroke-opacity:1" /><text
       xml:space="preserve"
       transform="scale(0.26458333)"
       id="text25"
       style="font-style:normal;font-variant:normal;font-weight:bold;font-stretch:normal;font-size:60px;font-family:'Josefin Slab';-inkscape-font-specification:'Josefin Slab Bold';text-align:start;letter-spacing:0px;word-spacing:0px;writing-mode:lr-tb;direction:ltr;white-space:pre;shape-inside:url(#rect25);display:inline;fill:#000000;fill-opacity:0;stroke:#370188;stroke-width:12;stroke-opacity:1" /><text
       xml:space="preserve"
       transform="scale(0.26458333)"
       id="text26"
       style="font-style:normal;font-variant:normal;font-weight:bold;font-stretch:normal;font-size:60px;font-family:'Josefin Slab';-inkscape-font-specification:'Josefin Slab Bold';text-align:start;letter-spacing:0px;word-spacing:0px;writing-mode:lr-tb;direction:ltr;white-space:pre;shape-inside:url(#rect26);display:inline;fill:#000000;fill-opacity:0;stroke:#370188;stroke-width:12;stroke-opacity:1" /><rect
       width="9.8019896"
       height="15.875"
       rx="0"
       ry="0"
       fill="#6002ee"
       stroke-width="0"
       id="rect1-3-4-39-4-2-0-5-6"
       x="247.60098"
       y="332.84583" /><text
       font-family="Montserrat"
       font-size="618.11px"
       font-weight="200"
       stroke-width="0"
       fill="#33333"
       id="text3-0-3-0-0-5-3-3-2"
       x="248.33717"
       y="345.42685"
       style="font-style:normal;font-variant:normal;font-weight:300;font-stretch:normal;font-size:13.0774px;font-family:Montserrat;-inkscape-font-specification:'Montserrat Light'"
       transform="scale(0.99938968,1.0006107)"><tspan
         y="345.42685"
         font-weight="200"
         stroke-width="0"
         id="tspan1-4-8-6-2-1-2-5-9"
         style="font-style:normal;font-variant:normal;font-weight:300;font-stretch:normal;font-size:13.0774px;font-family:Montserrat;-inkscape-font-specification:'Montserrat Light'"><tspan
           style="font-style:normal;font-variant:normal;font-weight:300;font-stretch:normal;font-size:13.0774px;font-family:Montserrat;-inkscape-font-specification:'Montserrat Light';fill:#ffffff;fill-opacity:1;stroke-width:0"
           id="tspan3-6-3-13-5-2-1-6-6">k</tspan></tspan></text><text
       dx="0"
       dy="0"
       font-family="Montserrat"
       font-size="465.256px"
       font-weight="200"
       stroke-width="0"
       fill="#33333"
       id="text3-0-3-6-8-4-0-8-9"
       x="195.17656"
       y="345.42685"
       style="font-style:normal;font-variant:normal;font-weight:300;font-stretch:normal;font-size:13.0774px;font-family:Montserrat;-inkscape-font-specification:'Montserrat Light'"
       transform="scale(0.99938968,1.0006107)"><tspan
         y="345.42685"
         font-weight="200"
         stroke-width="0"
         id="tspan1-4-8-3-9-0-0-6-9"
         style="font-style:normal;font-variant:normal;font-weight:300;font-stretch:normal;font-size:13.0774px;font-family:Montserrat;-inkscape-font-specification:'Montserrat Light'">product</tspan></text><text
       font-family="Montserrat"
       font-size="465.256px"
       font-weight="200"
       stroke-width="0"
       fill="#33333"
       id="text3-0-3-6-4-3-4-3-7-8"
       x="257.78415"
       y="345.42685"
       style="font-style:normal;font-variant:normal;font-weight:300;font-stretch:normal;font-size:13.0774px;font-family:Montserrat;-inkscape-font-specification:'Montserrat Light'"
       transform="scale(0.99938968,1.0006107)"><tspan
         y="345.42685"
         font-weight="200"
         stroke-width="0"
         id="tspan1-4-8-3-6-9-9-9-7-0"
         style="font-style:normal;font-variant:normal;font-weight:300;font-stretch:normal;font-size:13.0774px;font-family:Montserrat;-inkscape-font-specification:'Montserrat Light'">ind</tspan></text><rect
       style="fill:none;fill-opacity:1;fill-rule:nonzero;stroke:#370188;stroke-width:3.175;stroke-dasharray:none;stroke-opacity:1"
       id="rect113-4-2"
       width="282.57498"
       height="354.01248"
       x="1.5875"
       y="1.5875" /><path
       style="fill:#26c2fd;fill-opacity:1;stroke:#370188;stroke-width:1.5875;stroke-dasharray:none"
       d="m 34.94621,67.31541 c -5.54941,8.27806 5.50241,8.35374 0,0 z"
       id="path10"
       sodipodi:nodetypes="cc" /><path
       style="fill:#26c2fd;fill-opacity:1;stroke:#370188;stroke-width:1.5875;stroke-dasharray:none"
       d="m 80.059808,146.42358 c -5.54941,8.27806 5.50241,8.35374 0,0 z"
       id="path10-0"
       sodipodi:nodetypes="cc" /><path
       style="fill:#26c2fd;fill-opacity:1;stroke:#370188;stroke-width:1.5875;stroke-dasharray:none"
       d="m 213.42145,66.683637 c -5.54941,8.27806 5.50241,8.35374 0,0 z"
       id="path10-7"
       sodipodi:nodetypes="cc" /><path
       style="fill:#26c2fd;fill-opacity:1;stroke:#370188;stroke-width:1.5875;stroke-dasharray:none"
       d="m 219.02832,103.97075 c -5.54941,8.27806 5.50241,8.35374 0,0 z"
       id="path10-4"
       sodipodi:nodetypes="cc" /><path
       style="fill:#26c2fd;fill-opacity:1;stroke:#370188;stroke-width:1.5875;stroke-dasharray:none"
       d="m 92.62537,23.923742 c -5.54941,8.27806 5.50241,8.35374 0,0 z"
       id="path10-5"
       sodipodi:nodetypes="cc" /><path
       style="fill:#26c2fd;fill-opacity:1;stroke:#370188;stroke-width:1.5875;stroke-dasharray:none"
       d="m 36.798288,35.036242 c -5.54941,8.27806 5.50241,8.35374 0,0 z"
       id="path10-3"
       sodipodi:nodetypes="cc" /><path
       style="fill:#26c2fd;fill-opacity:1;stroke:#370188;stroke-width:1.5875;stroke-dasharray:none"
       d="m 68.019121,20.748742 c -5.54941,8.27806 5.50241,8.35374 0,0 z"
       id="path10-49"
       sodipodi:nodetypes="cc" /><path
       style="fill:#26c2fd;fill-opacity:1;stroke:#370188;stroke-width:1.5875;stroke-dasharray:none"
       d="m 230.67676,282.47156 c -5.54941,8.27806 5.50241,8.35374 0,0 z"
       id="path10-32"
       sodipodi:nodetypes="cc" /><path
       style="fill:#26c2fd;fill-opacity:1;stroke:#370188;stroke-width:1.5875;stroke-dasharray:none"
       d="m 81.992929,50.108206 c -5.54941,8.278059 5.50241,8.353739 0,0 z"
       id="path10-8"
       sodipodi:nodetypes="cc" /><path
       style="fill:#26c2fd;fill-opacity:1;stroke:#370188;stroke-width:1.5875;stroke-dasharray:none"
       d="m 62.974535,48.316902 c -5.54941,8.27806 5.50241,8.35374 0,0 z"
       id="path10-06"
       sodipodi:nodetypes="cc" /><path
       style="fill:#26c2fd;fill-opacity:1;stroke:#370188;stroke-width:1.5875;stroke-dasharray:none"
       d="m 61.284521,81.832415 c -5.54941,8.27806 5.50241,8.35374 0,0 z"
       id="path10-33"
       sodipodi:nodetypes="cc" /><path
       style="fill:#26c2fd;fill-opacity:1;stroke:#370188;stroke-width:1.5875;stroke-dasharray:none"
       d="m 81.51287,102.76957 c -5.54941,8.27806 5.50241,8.35374 0,0 z"
       id="path10-00"
       sodipodi:nodetypes="cc" /><path
       style="fill:#26c2fd;fill-opacity:1;stroke:#370188;stroke-width:1.5875;stroke-dasharray:none"
       d="m 227.56252,193.55429 c -5.54941,8.27806 5.50241,8.35374 0,0 z"
       id="path10-84"
       sodipodi:nodetypes="cc" /><path
       style="fill:#26c2fd;fill-opacity:1;stroke:#370188;stroke-width:1.5875;stroke-dasharray:none"
       d="m 148.45245,30.009158 c -5.54941,8.27806 5.50241,8.35374 0,0 z"
       id="path10-09"
       sodipodi:nodetypes="cc" /><path
       style="fill:#26c2fd;fill-opacity:1;stroke:#370188;stroke-width:1.5875;stroke-dasharray:none"
       d="m 117.76079,15.192492 c -5.54941,8.27806 5.50241,8.35374 0,0 z"
       id="path10-35"
       sodipodi:nodetypes="cc" /><path
       style="fill:#26c2fd;fill-opacity:1;stroke:#370188;stroke-width:1.5875;stroke-dasharray:none"
       d="m 241.10476,101.25954 c -5.54941,8.27806 5.50241,8.35374 0,0 z"
       id="path10-1"
       sodipodi:nodetypes="cc" /><path
       style="fill:#26c2fd;fill-opacity:1;stroke:#370188;stroke-width:1.5875;stroke-dasharray:none"
       d="m 266.98544,189.05638 c -5.54941,8.27806 5.50241,8.35374 0,0 z"
       id="path10-9"
       sodipodi:nodetypes="cc" /><path
       style="fill:#26c2fd;fill-opacity:1;stroke:#370188;stroke-width:1.5875;stroke-dasharray:none"
       d="m 239.73336,171.3293 c -5.54941,8.27806 5.50241,8.35374 0,0 z"
       id="path10-842"
       sodipodi:nodetypes="cc" /><path
       style="fill:#26c2fd;fill-opacity:1;stroke:#370188;stroke-width:1.5875;stroke-dasharray:none"
       d="m 132.31287,34.507075 c -5.54941,8.27806 5.50241,8.35374 0,0 z"
       id="path10-07"
       sodipodi:nodetypes="cc" /><path
       style="fill:#26c2fd;fill-opacity:1;stroke:#370188;stroke-width:1.5875;stroke-dasharray:none"
       d="m 193.6962,37.946658 c -5.54941,8.27806 5.50241,8.35374 0,0 z"
       id="path10-39"
       sodipodi:nodetypes="cc" /><path
       style="fill:#26c2fd;fill-opacity:1;stroke:#370188;stroke-width:1.5875;stroke-dasharray:none"
       d="m 174.6462,19.425825 c -5.54941,8.27806 5.50241,8.35374 0,0 z"
       id="path10-31"
       sodipodi:nodetypes="cc" /><path
       style="fill:#26c2fd;fill-opacity:1;stroke:#370188;stroke-width:1.5875;stroke-dasharray:none"
       d="m 261.42919,155.18971 c -5.54941,8.27806 5.50241,8.35374 0,0 z"
       id="path10-04"
       sodipodi:nodetypes="cc" /><path
       style="fill:#26c2fd;fill-opacity:1;stroke:#370188;stroke-width:1.5875;stroke-dasharray:none"
       d="m 245.72238,224.85576 c -5.54941,8.27806 5.50241,8.35374 0,0 z"
       id="path10-6"
       sodipodi:nodetypes="cc" /><path
       style="fill:#26c2fd;fill-opacity:1;stroke:#370188;stroke-width:1.5875;stroke-dasharray:none"
       d="m 234.44203,31.861242 c -5.54941,8.27806 5.50241,8.35374 0,0 z"
       id="path10-64"
       sodipodi:nodetypes="cc" /><path
       style="fill:#26c2fd;fill-opacity:1;stroke:#370188;stroke-width:1.5875;stroke-dasharray:none"
       d="m 210.36495,18.896659 c -5.54941,8.27806 5.50241,8.35374 0,0 z"
       id="path10-498"
       sodipodi:nodetypes="cc" /><path
       style="fill:#26c2fd;fill-opacity:1;stroke:#370188;stroke-width:1.5875;stroke-dasharray:none"
       d="m 265.06735,224.90641 c -5.54941,8.27806 5.50241,8.35374 0,0 z"
       id="path10-74"
       sodipodi:nodetypes="cc" /><path
       style="fill:#26c2fd;fill-opacity:1;stroke:#370188;stroke-width:1.5875;stroke-dasharray:none"
       d="m 255.8407,127.39887 c -5.54941,8.27806 5.50241,8.35374 0,0 z"
       id="path10-398"
       sodipodi:nodetypes="cc" /><path
       style="fill:#26c2fd;fill-opacity:1;stroke:#370188;stroke-width:1.5875;stroke-dasharray:none"
       d="m 233.02238,66.444343 c -5.54941,8.27806 5.50241,8.35374 0,0 z"
       id="path10-34"
       sodipodi:nodetypes="cc" /><path
       style="fill:#26c2fd;fill-opacity:1;stroke:#370188;stroke-width:1.5875;stroke-dasharray:none"
       d="m 257.1962,56.467491 c -5.54941,8.27806 5.50241,8.35374 0,0 z"
       id="path10-494"
       sodipodi:nodetypes="cc" /><path
       style="fill:#26c2fd;fill-opacity:1;stroke:#370188;stroke-width:1.5875;stroke-dasharray:none"
       d="m 256.13787,23.923742 c -5.54941,8.27806 5.50241,8.35374 0,0 z"
       id="path10-70"
       sodipodi:nodetypes="cc" /><path
       style="fill:#26c2fd;fill-opacity:1;stroke:#370188;stroke-width:1.5875;stroke-dasharray:none"
       d="m 260.70787,274.78895 c -5.54941,8.27806 5.50241,8.35374 0,0 z"
       id="path10-15"
       sodipodi:nodetypes="cc" /><path
       style="fill:#26c2fd;fill-opacity:1;stroke:#370188;stroke-width:1.5875;stroke-dasharray:none"
       d="m 261.69412,88.746657 c -5.54941,8.27806 5.50241,8.35374 0,0 z"
       id="path10-79"
       sodipodi:nodetypes="cc" /><path
       style="fill:#26c2fd;fill-opacity:1;stroke:#370188;stroke-width:1.5875;stroke-dasharray:none"
       d="m 28.067038,167.32791 c -5.54941,8.27806 5.50241,8.35374 0,0 z"
       id="path10-049"
       sodipodi:nodetypes="cc" /><path
       style="fill:#26c2fd;fill-opacity:1;stroke:#370188;stroke-width:1.5875;stroke-dasharray:none"
       d="m 49.233704,138.22374 c -5.54941,8.27806 5.50241,8.35374 0,0 z"
       id="path10-069"
       sodipodi:nodetypes="cc" /><path
       style="fill:#26c2fd;fill-opacity:1;stroke:#370188;stroke-width:1.5875;stroke-dasharray:none"
       d="m 20.129538,108.32582 c -5.54941,8.27806 5.50241,8.35374 0,0 z"
       id="path10-28"
       sodipodi:nodetypes="cc" /><path
       style="fill:#26c2fd;fill-opacity:1;stroke:#370188;stroke-width:1.5875;stroke-dasharray:none"
       d="m 62.992037,169.44457 c -5.54941,8.27806 5.50241,8.35374 0,0 z"
       id="path10-95"
       sodipodi:nodetypes="cc" /><path
       style="fill:#26c2fd;fill-opacity:1;stroke:#370188;stroke-width:1.5875;stroke-dasharray:none"
       d="m 233.54864,142.15928 c -5.54941,8.27806 5.50241,8.35374 0,0 z"
       id="path10-40"
       sodipodi:nodetypes="cc" /><path
       style="fill:#26c2fd;fill-opacity:1;stroke:#370188;stroke-width:1.5875;stroke-dasharray:none"
       d="m 79.92537,210.19041 c -5.54941,8.27806 5.50241,8.35374 0,0 z"
       id="path10-14"
       sodipodi:nodetypes="cc" /><path
       style="fill:#26c2fd;fill-opacity:1;stroke:#370188;stroke-width:1.5875;stroke-dasharray:none"
       d="m 50.821204,235.85499 c -5.54941,8.27806 5.50241,8.35374 0,0 z"
       id="path10-023"
       sodipodi:nodetypes="cc" /><path
       style="fill:#26c2fd;fill-opacity:1;stroke:#370188;stroke-width:1.5875;stroke-dasharray:none"
       d="m 29.125371,201.98832 c -5.54941,8.27806 5.50241,8.35374 0,0 z"
       id="path10-13"
       sodipodi:nodetypes="cc" /><path
       style="fill:#26c2fd;fill-opacity:1;stroke:#370188;stroke-width:1.5875;stroke-dasharray:none"
       d="m 49.233704,207.54457 c -5.54941,8.27806 5.50241,8.35374 0,0 z"
       id="path10-402"
       sodipodi:nodetypes="cc" /><path
       style="fill:#26c2fd;fill-opacity:1;stroke:#370188;stroke-width:1.5875;stroke-dasharray:none"
       d="m 56.377454,287.44874 c -5.54941,8.27806 5.50241,8.35374 0,0 z"
       id="path10-490"
       sodipodi:nodetypes="cc" /><path
       style="fill:#26c2fd;fill-opacity:1;stroke:#370188;stroke-width:1.5875;stroke-dasharray:none"
       d="m 28.596204,311.26124 c -5.54941,8.27806 5.50241,8.35374 0,0 z"
       id="path10-82"
       sodipodi:nodetypes="cc" /><path
       style="fill:#26c2fd;fill-opacity:1;stroke:#370188;stroke-width:1.5875;stroke-dasharray:none"
       d="m 33.358705,247.76124 c -5.549411,8.27806 5.502409,8.35374 0,0 z"
       id="path10-329"
       sodipodi:nodetypes="cc" /><path
       style="fill:#26c2fd;fill-opacity:1;stroke:#370188;stroke-width:1.5875;stroke-dasharray:none"
       d="m 85.217038,268.9279 c -5.549411,8.27806 5.502409,8.35375 0,0 z"
       id="path10-329-6"
       sodipodi:nodetypes="cc" /><path
       style="fill:#26c2fd;fill-opacity:1;stroke:#370188;stroke-width:1.5875;stroke-dasharray:none"
       d="m 74.104538,241.67582 c -5.549411,8.27806 5.502409,8.35374 0,0 z"
       id="path10-329-8"
       sodipodi:nodetypes="cc" /><path
       style="fill:#26c2fd;fill-opacity:1;stroke:#370188;stroke-width:1.5875;stroke-dasharray:none"
       d="m 70.929538,325.81332 c -5.549411,8.27806 5.502409,8.35374 0,0 z"
       id="path10-329-3"
       sodipodi:nodetypes="cc" /><path
       style="fill:#26c2fd;fill-opacity:1;stroke:#370188;stroke-width:1.5875;stroke-dasharray:none"
       d="m 85.432353,168.91509 c -5.54941,8.27806 5.50241,8.35374 0,0 z"
       id="path10-63"
       sodipodi:nodetypes="cc" /><path
       style="fill:#fdb226;fill-opacity:1;fill-rule:nonzero;stroke:#370188;stroke-width:3.175;stroke-dasharray:none;stroke-opacity:1"
       d="m 151.40342,131.82312 c -3.5687,3.17218 -18.59572,10.10546 -22.16442,1.77848 -3.5687,-8.32695 14.68307,-21.37134 23.01002,-20.97481 8.32697,0.39649 11.89564,8.32694 11.89564,15.06782 0,6.74087 7.53396,84.06263 7.53396,84.06263 l -18.63649,21.01567 -9.2951,-7.57472 2.81652,-90.24369"
       id="path83"
       sodipodi:nodetypes="cssscccc" /><circle
       style="fill:#370188;fill-opacity:1;stroke:none;stroke-width:12.6211;stroke-dasharray:none;stroke-opacity:1"
       id="path9-5-7-5-2-3-8-3"
       cx="144.76822"
       cy="101.05939"
       r="2.6458333" /><circle
       style="fill:#370188;fill-opacity:1;stroke:none;stroke-width:12.6211;stroke-dasharray:none;stroke-opacity:1"
       id="path9-5-7-5-2-3-8-8"
       cx="152.97025"
       cy="101.58857"
       r="2.6458333" /><path
       style="fill:#fdb226;fill-opacity:1;fill-rule:nonzero;stroke:#370188;stroke-width:3.175;stroke-dasharray:none;stroke-opacity:1"
       d="m 129.4021,222.33637 c 0,0 -16.79744,1.0955 -18.98841,5.11226 -2.19097,4.01678 -3.28644,7.30323 0.36516,9.12904 3.65163,1.82582 21.90966,-4.01679 21.90966,-4.01679"
       id="path82-4" /><path
       style="fill:#fdb226;fill-opacity:1;fill-rule:nonzero;stroke:#370188;stroke-width:3.175;stroke-dasharray:none;stroke-opacity:1"
       d="m 140.60753,301.68673 c 0,0 -4.10372,18.93538 -0.0718,21.09854 4.19938,2.25304 6.71887,2.38369 10.09862,0.0937 2.54985,-1.7278 0.65923,-22.26507 0.65923,-22.26507"
       id="path82-2-5"
       sodipodi:nodetypes="cssc" /><path
       style="fill:#fdb226;fill-opacity:1;fill-rule:nonzero;stroke:#370188;stroke-width:3.175;stroke-dasharray:none;stroke-opacity:1"
       d="m 174.75011,301.59697 c 0,0 -4.10371,18.93541 -0.0718,21.09854 4.19938,2.25305 6.71887,2.3837 10.09863,0.0937 2.54984,-1.7278 0.65922,-22.26506 0.65922,-22.26506"
       id="path82-2-7-3"
       sodipodi:nodetypes="cssc" /><path
       style="fill:#fdb226;fill-opacity:1;fill-rule:nonzero;stroke:#370188;stroke-width:3.175;stroke-dasharray:none;stroke-opacity:1"
       d="m 184.28296,221.89444 c 0,0 16.79743,1.09547 18.9884,5.11226 2.19097,4.01675 3.28644,7.30323 -0.36516,9.12901 -3.65163,1.82582 -21.90965,-4.01675 -21.90965,-4.01675"
       id="path82-5-0" /><path
       style="fill:#885901;fill-opacity:1;fill-rule:nonzero;stroke:#370188;stroke-width:2.84831;stroke-dasharray:none;stroke-opacity:1"
       d="m 145.12333,204.17064 c 0.2267,1.95516 4.30702,3.46218 6.95151,1.31607 2.64449,-2.14608 3.91966,-9.97109 3.17849,-14.33195 -0.74117,-4.36083 -3.38614,-9.26446 -6.0391,-9.15651 -2.653,0.10795 -3.70717,2.20907 -3.77305,6.54304 -0.066,4.33394 -0.54451,13.67418 -0.31785,15.62935 z m 18.85134,-15.35522 c 3.1042,0.76778 4.79289,-2.98758 4.61804,-6.328 -0.17462,-3.34042 -0.67212,-9.02913 -0.94996,-13.43266 -0.27781,-4.4035 -2.18954,-7.29596 -4.96214,-6.45862 -2.77264,0.83735 -2.98158,7.32816 -2.87551,11.93886 0.10605,4.6107 1.06541,13.51264 4.16957,14.28042 z M 146.1346,165.73209 c -0.3121,3.24431 2.74473,6.00783 4.97704,5.58775 2.23231,-0.42006 3.06819,-2.98225 3.53749,-7.36235 0.46933,-4.38014 -0.92437,-15.84125 -3.88512,-17.25025 -2.96075,-1.40901 -3.73815,-0.64072 -3.9525,3.17065 -0.21431,3.81139 -0.36461,12.60989 -0.67691,15.8542 z m 20.25476,62.11208 c 3.55695,0.63389 4.54047,-2.91726 4.61806,-6.32797 0.0775,-3.41071 0.0222,-10.19238 -0.41151,-13.20784 -0.43253,-3.01542 -3.59064,-4.28637 -5.85962,-3.76072 -2.26898,0.52568 -4.35054,2.22393 -4.84997,6.76786 -0.49943,4.54396 2.94615,15.89481 6.50304,16.52867 z"
       id="path84"
       sodipodi:nodetypes="zzzzzzzzzzzzzzzzzzzzzzzz" /><path
       style="fill:#9a58fd;fill-opacity:1;fill-rule:nonzero;stroke:#370188;stroke-width:3.175;stroke-dasharray:none;stroke-opacity:1"
       d="m 177.46944,221.04951 8.7904,57.84047 -50.86547,-0.19177 6.19332,-54.76129 c 12.30483,3.05038 23.59758,1.43554 35.88175,-2.88732 z"
       id="path56-7-2-0-7"
       sodipodi:nodetypes="ccccc" /><path
       style="fill:#0288bb;fill-opacity:1;fill-rule:nonzero;stroke:#370188;stroke-width:3.175;stroke-dasharray:none;stroke-opacity:1"
       d="m 132.2643,311.75332 26.58288,0.41307 3.29812,-15.55071 3.43056,15.49146 27.34976,-0.10287 -8.4561,-44.42555 -47.87284,0.13557 z"
       id="path55-9-6-4-6"
       sodipodi:nodetypes="cccccccc" /><path
       style="fill:none;fill-opacity:1;fill-rule:nonzero;stroke:#370188;stroke-width:3.175;stroke-dasharray:none;stroke-opacity:1"
       d="m 160.90451,297.75906 4.89836,0.11049 -1.97206,-17.41674"
       id="path71-3-2-4"
       sodipodi:nodetypes="ccc" /><path
       style="fill:#853200;fill-opacity:1;fill-rule:nonzero;stroke:#370188;stroke-width:3.175;stroke-dasharray:none;stroke-opacity:1"
       d="m 148.17194,115.83541 -3.08337,-13.21444"
       id="path85" /><path
       style="fill:#853200;fill-opacity:1;fill-rule:nonzero;stroke:#370188;stroke-width:3.175;stroke-dasharray:none;stroke-opacity:1"
       d="M 152.94958,115.47972 V 103.14624"
       id="path86" /><path
       style="fill:#9a58fd;fill-opacity:1;fill-rule:nonzero;stroke:#370188;stroke-width:3.175;stroke-dasharray:none;stroke-opacity:1"
       d="m 146.0892,233.49783 -19.46977,5.30993 -4.56466,-20.02869 19.65607,-5.30994 c 10.36006,6.2932 20.84886,7.01421 32.69803,-1.58365 l 20.02866,7.26621 -4.28521,18.63134 -17.88607,-6.24148"
       id="path87"
       sodipodi:nodetypes="cccccccc" /><path
       style="fill:none;fill-opacity:1;stroke:#370188;stroke-width:3.175;stroke-dasharray:none"
       d="m 117.03019,93.319616 25.01575,21.970354 19.79507,3.0454 18.05485,-25.015755"
       id="path4"
       sodipodi:nodetypes="cccc" /><path
       style="fill:none;fill-opacity:1;stroke:#370188;stroke-width:3.19065;stroke-dasharray:none;stroke-opacity:1"
       d="m 140.64332,121.67835 c 0.72809,-2.64791 5.038,-1.27031 4.04287,1.23798"
       id="path32-7"
       sodipodi:nodetypes="cc" /><path
       style="fill:none;fill-opacity:1;stroke:#370188;stroke-width:3.19065;stroke-dasharray:none;stroke-opacity:1"
       d="m 148.23191,123.89747 c 0.72809,-2.64791 5.038,-1.27031 4.04287,1.23798"
       id="path32-7-2"
       sodipodi:nodetypes="cc" /></g></svg>
