<?xml version="1.0" encoding="UTF-8" standalone="no"?>
<!-- Created with Inkscape (http://www.inkscape.org/) -->

<svg
   width="576mm"
   height="324mm"
   viewBox="0 0 576 324"
   version="1.1"
   id="svg1"
   inkscape:version="1.4 (e7c3feb1, 2024-10-09)"
   sodipodi:docname="cover-seminars-by-productkin-two-line-title.svg"
   xml:space="preserve"
   xmlns:inkscape="http://www.inkscape.org/namespaces/inkscape"
   xmlns:sodipodi="http://sodipodi.sourceforge.net/DTD/sodipodi-0.dtd"
   xmlns:xlink="http://www.w3.org/1999/xlink"
   xmlns="http://www.w3.org/2000/svg"
   xmlns:svg="http://www.w3.org/2000/svg"><sodipodi:namedview
     id="namedview1"
     pagecolor="#ffffff"
     bordercolor="#000000"
     borderopacity="0.25"
     inkscape:showpageshadow="2"
     inkscape:pageopacity="0.0"
     inkscape:pagecheckerboard="0"
     inkscape:deskcolor="#d1d1d1"
     inkscape:document-units="mm"
     showguides="true"
     inkscape:zoom="0.29945538"
     inkscape:cx="891.61864"
     inkscape:cy="891.61864"
     inkscape:window-width="1728"
     inkscape:window-height="1057"
     inkscape:window-x="0"
     inkscape:window-y="32"
     inkscape:window-maximized="0"
     inkscape:current-layer="layer1" /><defs
     id="defs1"><linearGradient
       id="linearGradient11"
       inkscape:collect="always"><stop
         style="stop-color:#6002ee;stop-opacity:1;"
         offset="0"
         id="stop11" /><stop
         style="stop-color:#ff00e3;stop-opacity:1;"
         offset="1"
         id="stop12" /></linearGradient><linearGradient
       id="linearGradient2"
       inkscape:collect="always"><stop
         style="stop-color:#6002ee;stop-opacity:1;"
         offset="0"
         id="stop2" /><stop
         style="stop-color:#ff00e3;stop-opacity:1;"
         offset="1"
         id="stop3" /></linearGradient><linearGradient
       id="linearGradient4"
       inkscape:collect="always"><stop
         style="stop-color:#6002ee;stop-opacity:1;"
         offset="0"
         id="stop4" /><stop
         style="stop-color:#ff00e3;stop-opacity:1;"
         offset="1"
         id="stop5" /></linearGradient><rect
       x="2895.6289"
       y="2287.6228"
       width="9223.7227"
       height="4950.9526"
       id="rect7-0-0-7-2-3-8-2-6-2-7-80-7-0-0-4-7" /><linearGradient
       inkscape:collect="always"
       xlink:href="#linearGradient4"
       id="linearGradient9"
       x1="15269.863"
       y1="6937.166"
       x2="15454.212"
       y2="6937.166"
       gradientUnits="userSpaceOnUse"
       gradientTransform="matrix(0.02474565,0,0,0.02474565,-323.67664,-49.35888)" /><linearGradient
       inkscape:collect="always"
       xlink:href="#linearGradient2"
       id="linearGradient3"
       x1="351.0863"
       y1="253.74675"
       x2="234.1161"
       y2="51.148426"
       gradientUnits="userSpaceOnUse"
       gradientTransform="matrix(2.4624164,0,0,1.0684715,-432.47642,39.512524)" /><linearGradient
       inkscape:collect="always"
       xlink:href="#linearGradient11"
       id="linearGradient12"
       x1="19.049886"
       y1="2079.6124"
       x2="19866.563"
       y2="2079.6124"
       gradientUnits="userSpaceOnUse" /><linearGradient
       inkscape:collect="always"
       xlink:href="#linearGradient11"
       id="linearGradient13"
       gradientUnits="userSpaceOnUse"
       x1="19.049886"
       y1="2079.6124"
       x2="19866.563"
       y2="2079.6124" /><linearGradient
       inkscape:collect="always"
       xlink:href="#linearGradient11"
       id="linearGradient14"
       gradientUnits="userSpaceOnUse"
       x1="19.049886"
       y1="2079.6124"
       x2="19866.563"
       y2="2079.6124" /><linearGradient
       inkscape:collect="always"
       xlink:href="#linearGradient11"
       id="linearGradient15"
       gradientUnits="userSpaceOnUse"
       x1="19.049886"
       y1="2079.6124"
       x2="19866.563"
       y2="2079.6124" /></defs><g
     inkscape:label="Layer 1"
     inkscape:groupmode="layer"
     id="layer1"><rect
       style="opacity:1;fill:url(#linearGradient3);stroke:none;stroke-width:3.2441;stroke-linejoin:miter;stroke-dasharray:none;stroke-opacity:1"
       id="rect1"
       width="576.05859"
       height="243.203"
       x="0"
       y="80.796997" /><path
       style="fill:none;fill-opacity:1;stroke:#ffffff;stroke-width:0.8;stroke-linejoin:miter;stroke-dasharray:none;stroke-opacity:1"
       d="M 10,313.6 H 566"
       id="path23-42" /><path
       style="fill:none;fill-opacity:1;stroke:#ffffff;stroke-width:0.8;stroke-linejoin:miter;stroke-dasharray:none;stroke-opacity:1"
       d="M 10,198.75 H 566"
       id="path23" /><g
       id="g9"
       style="fill:url(#linearGradient12)"
       transform="matrix(0.0143091,0,0,0.0143091,276.72741,13.141098)"><g
         id="g10"
         style="fill:url(#linearGradient15);fill-opacity:1"><g
           id="g16"
           style="fill:url(#linearGradient14);fill-opacity:1"><path
             id="path48-3-8-0-3"
             style="opacity:0.9975;fill:url(#linearGradient13);fill-opacity:1;stroke-width:191.352;stroke-linejoin:bevel"
             d="m 3667.2086,2176.0507 c -95.1421,7.1181 -188.1386,34.1732 -273.1988,76.9882 -170.1207,85.6314 -312.0987,236.5581 -387.3673,421.8418 -72.1224,177.5389 -82.9962,386.6205 1.3085,600.0242 l 141.7792,-56.986 c -143.9626,-364.4701 44.6508,-693.9312 312.6735,-828.8406 136.9492,-68.9335 291.4685,-85.0988 435.7728,-28.7777 139.5627,54.4705 274.7693,178.0372 374.5283,407.5303 l 141.4105,-56.7876 c -112.4309,-260.3492 -277.7207,-421.0003 -460.6263,-492.3882 -94.0723,-36.7163 -191.1374,-49.7247 -286.2797,-42.6044 z m 206.3007,315.056 c -124.6616,-50.7043 -257.7786,-34.8316 -367.0057,23.171 -210.8079,111.946 -346.5135,384.6995 -237.1198,655.5898 l 141.4841,-56.7704 c -81.2677,-199.7615 21.4948,-386.6242 167.0185,-463.9015 75.3309,-40.0029 158.1653,-49.3169 238.0681,-16.82 74.4484,30.2809 151.3814,98.9635 212.8539,233.2706 l 141.3812,-56.681 c -74.1634,-164.7971 -178.9465,-269.972 -296.6803,-317.8585 z m -93.0596,263.4813 c -66.0026,-24.3264 -134.2532,-4.4217 -181.6343,32.5146 -47.381,36.9288 -81.2468,92.9872 -82.9686,159.2116 -0.9759,37.5271 11.0414,76.4057 34.2856,110.966 l 151.8794,-60.8161 c -33.5579,-21.2492 -34.0122,-33.7126 -33.682,-46.4129 0.3338,-12.8394 9.9196,-31.7774 24.2927,-42.9794 14.3725,-11.1938 26.1572,-12.6482 35.131,-9.338 8.7153,3.2177 28.4598,15.435 44.8865,70.4702 l 141.7002,-56.7067 c -26.4916,-78.3458 -73.011,-134.4636 -133.8905,-156.9038 z M 10030.434,1077.3779 c -40.1623,0 -74.8473,14.6046 -104.0563,43.8136 -29.209,29.209 -43.8139,63.8947 -43.8139,104.0571 0,40.1624 14.6049,74.8481 43.8139,104.0571 29.209,25.5579 63.894,38.3369 104.0563,38.3369 36.511,0 69.372,-12.779 98.581,-38.3369 29.209,-29.209 43.814,-63.8947 43.814,-104.0571 0,-40.1624 -14.605,-74.8481 -43.814,-104.0571 -29.209,-29.209 -62.07,-43.8136 -98.581,-43.8136 z m -6303.6644,810.5503 c -149.6963,0 -290.265,29.209 -421.7056,87.627 -127.7895,54.7669 -239.1485,129.6151 -334.0778,224.5444 -98.5804,94.9293 -175.2544,208.1138 -230.0214,339.5544 -54.7669,131.4406 -82.1503,270.1838 -82.1503,416.2289 0,149.6962 27.3834,288.439 82.1503,416.2285 54.767,127.7894 131.441,240.9744 230.0214,339.5548 94.9293,94.9293 206.2883,171.6034 334.0778,230.0214 131.4406,54.7669 272.0093,82.15 421.7056,82.15 142.3939,0 273.8341,-25.5575 394.3213,-76.6733 124.1384,-51.1158 233.6722,-122.3131 328.6015,-213.5913 l -98.5801,-115.0105 c -80.3248,80.3248 -173.4289,142.3936 -279.3116,186.2071 -105.8827,43.8135 -220.8928,65.7207 -345.0311,65.7207 -189.8587,0 -359.6361,-49.2903 -509.3323,-147.8707 -149.6962,-102.2316 -259.2304,-235.4973 -328.6018,-399.7981 -9.3801,-27.2228 -37.5946,-108.3055 -43.8143,-142.3947 -40.1624,-142.3939 -45.6398,-281.1364 -16.4308,-416.2281 32.8602,-135.0917 89.453,-255.5789 169.7778,-361.4616 83.9759,-109.5338 188.0331,-197.1609 312.1714,-262.8811 127.7894,-69.3715 266.5326,-104.0575 416.2289,-104.0575 160.6496,0 306.6943,45.6391 438.1349,136.9172 131.4405,91.2782 231.8462,209.9402 301.2176,355.9853 0,0 46.6786,92.2866 63.0893,136.0819 44.6087,-17.9362 89.2992,-35.9136 134.0712,-53.9315 -36.5113,-105.8827 -85.8015,-200.812 -147.8707,-284.788 -58.418,-87.627 -124.1383,-162.4751 -197.1608,-224.5443 -80.3248,-69.3714 -171.603,-122.3127 -273.8346,-158.824 -102.2315,-36.5113 -208.1139,-54.7669 -317.6477,-54.7669 z m 11062.9074,0 c -149.696,0 -290.265,29.209 -421.705,87.627 -127.79,54.7669 -239.149,129.6151 -334.078,224.5444 -98.581,94.9293 -175.254,208.1138 -230.021,339.5544 -54.767,131.4406 -82.151,270.1838 -82.151,416.2289 0,149.6962 27.384,288.439 82.151,416.2285 54.767,127.7894 131.44,239.1488 230.021,334.0781 94.929,98.5805 206.288,177.0801 334.078,235.4981 131.44,54.7669 272.009,82.15 421.705,82.15 113.185,0 219.068,-14.6045 317.648,-43.8135 102.232,-32.8602 193.509,-78.4993 273.834,-136.9173 80.325,-51.1158 149.697,-111.3594 208.115,-180.7308 58.418,-73.0225 104.057,-149.6966 136.917,-230.0214 0,51.1158 -1.825,100.4064 -5.477,147.871 v 147.8707 257.4045 h 547.669 v -147.8707 h -405.275 v -1905.888 h -120.487 c -3.651,94.9293 -7.302,188.0327 -10.953,279.3108 l -10.954,273.8346 c -69.371,-167.9519 -186.207,-308.5199 -350.508,-421.7048 -164.301,-116.8361 -357.81,-175.2545 -580.529,-175.2545 z m -8264.3203,5.4767 c -208.1142,0 -392.4958,52.9417 -553.1454,158.8244 -156.9984,102.2315 -273.8349,240.974 -350.5086,416.2281 0,-58.418 -1.8255,-107.7082 -5.4766,-147.8706 0,-43.8136 -1.8256,-93.1042 -5.4767,-147.8711 l -5.4767,-240.9736 h -520.2853 v 147.8703 h 399.7981 v 1758.0177 h -427.1819 v 147.8707 H 6065.3147 V 3837.6301 H 5638.1328 V 2824.4423 c 0,-113.1849 23.732,-217.2421 71.1966,-312.1714 47.4647,-98.5804 113.1853,-182.5563 197.1613,-251.9277 80.3248,-65.7203 173.4285,-118.6617 279.3112,-158.8241 105.8827,-40.1624 219.0676,-60.2439 339.5548,-60.2439 153.3474,7.3022 272.009,58.4184 355.9849,153.3477 87.6271,91.2781 135.0917,198.9864 142.394,323.1247 v 1319.8825 h -432.6582 v 147.8707 H 7598.7885 V 3837.6301 H 7177.0829 V 2797.0585 c 0,-109.5338 25.5579,-209.9395 76.6737,-301.2176 51.1158,-91.2782 116.8361,-171.603 197.1609,-240.9744 80.3248,-65.7203 171.6033,-116.8361 273.8349,-153.3474 105.8827,-40.1624 217.2417,-60.2439 334.0778,-60.2439 156.9984,7.3022 277.4856,58.4184 361.4615,153.3477 83.976,91.2781 129.6151,198.9864 136.9173,323.1247 v 1319.8825 h -432.6586 v 147.8707 H 9132.2616 V 3837.6301 H 8710.556 V 2506.7942 c -7.3023,-182.5563 -69.3711,-330.4266 -186.2071,-443.6115 -113.185,-113.185 -268.3579,-169.7778 -465.5187,-169.7778 -200.812,0 -379.7173,49.2898 -536.7157,147.8703 -156.9985,98.5804 -273.8346,231.8473 -350.5083,399.7991 -18.2556,-164.3007 -85.8011,-295.742 -202.6371,-394.3224 -113.185,-102.2316 -261.056,-153.347 -443.6124,-153.347 z m 5849.0993,0 c -204.463,0 -388.845,52.9417 -553.145,158.8244 -160.65,102.2315 -277.486,240.974 -350.509,416.2281 0,-58.418 -1.825,-107.7082 -5.476,-147.8706 0,-43.8136 -1.826,-93.1042 -5.477,-147.8711 l -5.477,-240.9736 h -520.285 v 147.8703 h 399.798 v 1758.0177 h -427.182 v 147.8707 h 1007.711 v -147.8707 h -427.182 V 2824.4423 c 0,-113.1849 23.733,-217.2421 71.197,-312.1714 47.465,-98.5804 113.186,-182.5563 197.162,-251.9277 80.324,-65.7203 173.428,-118.6617 279.31,-158.8241 105.883,-40.1624 219.068,-60.2439 339.555,-60.2439 153.347,7.3022 272.009,58.4184 355.985,153.3477 87.627,91.2781 135.092,198.9864 142.394,323.1247 v 1319.8825 h -432.658 v 147.8707 h 1007.711 v -147.8707 h -421.705 V 2506.7942 c -7.303,-182.5563 -69.372,-330.4266 -186.208,-443.6115 -113.185,-113.185 -268.358,-169.7778 -465.519,-169.7778 z m 5728.619,0 c -91.279,0 -180.732,12.7793 -268.359,38.3372 -83.976,25.5579 -164.3,63.894 -240.974,115.0098 -83.976,47.4646 -156.999,107.7086 -219.068,180.7311 -62.069,69.3714 -115.01,149.6962 -158.823,240.9744 0,-58.418 -1.826,-100.406 -5.477,-125.9639 v -120.4872 l -10.954,-290.2642 h -520.285 v 147.8703 h 399.798 v 1758.0177 h -427.182 v 147.8707 h 1007.711 V 3837.6301 H 17232.28 V 2835.3957 c 0,-113.185 23.733,-217.2421 71.197,-312.1714 51.116,-98.5804 116.836,-180.7308 197.161,-246.4511 80.325,-65.7203 169.778,-116.836 268.358,-153.3473 102.232,-40.1624 211.766,-62.0688 328.602,-65.7199 z m 1155.575,10.9534 c -65.72,0 -136.916,12.7789 -213.59,38.3368 -76.674,21.9068 -144.22,56.5921 -202.638,104.0568 -54.767,47.4646 -98.581,105.883 -131.441,175.2544 -32.86,65.7203 -49.29,146.0451 -49.29,240.9744 0,113.185 25.558,202.6376 76.674,268.3579 54.767,65.7203 120.487,115.0105 197.161,147.8706 76.673,40.1624 160.649,73.0226 251.927,98.5805 94.93,25.5578 180.731,54.7672 257.405,87.6274 76.674,29.209 140.568,73.0225 191.684,131.4405 51.116,54.767 76.674,135.0918 76.674,240.9744 0,73.0226 -14.605,136.9169 -43.814,191.6839 -29.209,54.7669 -65.72,98.5804 -109.533,131.4405 -47.465,40.1624 -100.407,69.3715 -158.825,87.6271 -54.767,18.2556 -115.01,27.3834 -180.73,27.3834 -83.976,0 -167.952,-5.4766 -251.928,-16.43 -83.976,-14.6045 -162.475,-49.2902 -235.498,-104.0572 v -301.2179 h -147.871 v 383.3683 c 87.628,76.6737 186.208,127.7895 295.742,153.3474 109.534,25.5578 217.242,38.3368 323.125,38.3368 116.836,0 217.242,-18.2556 301.218,-54.7669 87.627,-40.1624 158.824,-91.2778 213.59,-153.347 51.116,-58.418 87.628,-122.3131 109.534,-191.6845 25.558,-73.0226 38.337,-142.3944 38.337,-208.1147 0,-116.836 -25.558,-209.9394 -76.674,-279.3108 -51.116,-69.3714 -115.01,-125.9639 -191.684,-169.7774 -80.325,-40.1624 -166.126,-73.0226 -257.404,-98.5805 -87.627,-25.5579 -171.603,-56.5924 -251.928,-93.1037 -76.674,-29.209 -142.394,-69.3714 -197.161,-120.4872 -51.116,-51.1158 -76.674,-124.138 -76.674,-219.0673 0,-69.3714 12.779,-127.7898 38.337,-175.2545 25.558,-51.1157 60.244,-93.1037 104.057,-125.9638 40.163,-29.2091 87.627,-49.2903 142.394,-60.2436 54.767,-14.6045 105.883,-21.9064 153.348,-21.9064 73.022,0 140.568,7.3019 202.637,21.9064 65.721,14.6045 127.79,40.1624 186.208,76.6736 v 306.6947 h 142.393 v -383.3683 c -29.209,-29.2091 -65.719,-54.7669 -109.533,-76.6737 -40.162,-21.9068 -82.15,-40.1624 -125.964,-54.7669 -62.069,-18.2557 -113.185,-29.2094 -153.347,-32.8605 -40.163,-7.3023 -85.802,-10.953 -136.918,-10.953 z m -9743.0245,27.3838 v 147.8703 h 438.1353 v 1758.0177 h -438.1353 v 147.8707 h 1007.7115 v -147.8707 h -416.229 v -1905.888 z m 5274.0515,104.0564 c 127.789,0 246.451,23.7327 355.985,71.1973 113.185,47.4647 211.765,113.1853 295.741,197.1612 83.976,83.976 149.696,182.556 197.161,295.741 47.464,109.5338 71.197,228.1954 71.197,355.9849 0,131.4406 -23.733,251.9281 -71.197,361.4619 -47.465,109.5339 -113.185,206.2884 -197.161,290.2643 -83.976,80.3248 -182.556,144.2192 -295.741,191.6838 -109.534,47.4647 -228.196,71.1974 -355.985,71.1974 -124.138,0 -240.974,-21.9072 -350.508,-65.7207 -109.534,-47.4647 -204.463,-111.359 -284.788,-191.6838 -87.627,-80.3248 -156.999,-177.0793 -208.114,-290.2643 -47.465,-113.1849 -71.198,-235.498 -71.198,-366.9386 0,-124.1383 23.733,-240.9744 71.198,-350.5082 47.464,-113.185 111.359,-211.765 191.684,-295.741 83.976,-83.9759 180.731,-149.6965 290.264,-197.1612 113.185,-51.1158 233.672,-76.674 361.462,-76.674 z M 1935.8917,3739.0497 q 158.824,-136.9173 246.4511,-334.0782 93.1037,-197.1608 87.627,-438.1352 -5.4767,-366.9383 -158.824,-569.5759 -147.8707,-202.6375 -372.415,-317.648 -235.4977,-109.5339 -498.3789,-175.2541 -262.88112,-65.7203 -476.47207,-158.8241 -208.11425,-87.627 -339.55482,-230.021 -131.44058,-147.8706 -131.44058,-416.2285 0,-158.82403 43.81352,-301.21799 49.29022,-147.87065 153.34734,-268.35785 98.58044,-109.53381 251.92778,-180.73079 153.34734,-71.19698 355.98493,-71.19698 246.4511,0 421.7052,54.76691 175.2541,54.7669 284.7879,131.44058 v 531.239 h 147.8706 V 387.3149 q -98.5804,-76.67367 -208.1142,-125.96388 -109.5338,-54.76691 -219.0676,-87.62706 -109.5339,-21.90676 -219.0677,-32.86014 -109.5338,-10.95338 -197.1608,-10.95338 -268.35789,0 -454.56538,93.10374 -186.20749,87.62705 -306.69469,235.4977 -115.0105,147.87066 -169.77741,334.07814 -49.29022,180.7308 -38.33684,361.46158 5.47669,246.4511 109.53382,399.7984 104.05712,153.3474 262.88116,240.9744 153.34734,98.5805 345.03152,158.8241 191.68422,54.7669 377.89162,109.5338 175.2541,54.7669 334.0782,120.4872 164.3007,65.7203 290.2646,169.7774 115.0105,104.0571 186.2075,257.4045 71.197,147.8706 71.197,372.4149 0,208.1143 -87.6271,372.415 -87.627,164.3007 -224.5443,284.7879 -142.394,115.0105 -328.6015,180.7308 -180.7308,60.2436 -377.8916,60.2436 -323.12478,0 -547.66911,-98.5804 Q 325.74457,3678.8061 166.92054,3530.9354 V 3038.0333 H 19.049886 v 564.0991 q 54.766908,60.2436 153.347344,136.9173 98.58043,71.197 235.4977,131.4406 131.44058,71.1969 306.69469,115.0105 180.73079,43.8135 399.79838,43.8135 235.4978,0 449.0887,-71.197 213.5909,-76.6737 372.415,-219.0676 z" /></g></g></g><text
       xml:space="preserve"
       style="font-size:42.3333px;font-family:'Josefin Slab';-inkscape-font-specification:'Josefin Slab';text-align:start;letter-spacing:0px;word-spacing:0px;writing-mode:lr-tb;direction:ltr;text-anchor:start;white-space:pre;inline-size:543.212;display:inline;opacity:0.9975;fill:#8e01e9;fill-opacity:1;stroke-width:1.05833;stroke-linejoin:bevel"
       x="32.382477"
       y="146.44565"
       id="text1"
       transform="translate(-13.864478,94.454328)"><tspan
         x="32.382477"
         y="146.44565"
         id="tspan4"><tspan
           style="font-weight:bold;-inkscape-font-specification:'Josefin Slab Bold';fill:#ffffff"
           id="tspan3">Build your AI product coach </tspan></tspan><tspan
         x="32.382477"
         y="199.36227"
         id="tspan9"><tspan
           style="font-weight:bold;-inkscape-font-specification:'Josefin Slab Bold';fill:#ffffff"
           id="tspan5">to write impactful user stories</tspan></tspan></text><text
       font-family="Montserrat"
       font-size="26.433px"
       font-weight="200"
       stroke-width="0"
       fill="#33333"
       id="text3-9-1-0-4-3-6-37-3-7-3-5-5-3-9-8-9-1-9-9"
       x="353.68011"
       y="117.35152"
       style="fill:#ffffff;fill-opacity:1;stroke:none"><tspan
         style="font-style:normal;font-variant:normal;font-weight:300;font-stretch:normal;font-family:Montserrat;-inkscape-font-specification:'Montserrat Light';fill:#ffffff;fill-opacity:1;stroke-width:0"
         id="tspan1">by</tspan></text><path
       id="rect1-3-4-39-4-2-0-5"
       d="m 501.54127,90.797 v 32.37929 h 19.99254 V 90.797 Z m 4.01814,6.28786 h 1.33291 v 14.01083 l 8.90335,-8.13916 h 1.70596 l -5.98695,5.62787 6.57341,8.30394 h -1.65273 l -5.92737,-7.44428 -3.61567,3.30831 v 4.13597 h -1.33291 z"
       style="fill:#ffffff;fill-opacity:1;stroke-width:0.207728" /><text
       dx="0"
       dy="0"
       font-family="Montserrat"
       font-size="465.256px"
       font-weight="200"
       stroke-width="0"
       fill="#33333"
       id="text3-0-3-6-8-4-0-8"
       x="394.61258"
       y="116.81651"
       style="font-style:normal;font-variant:normal;font-weight:300;font-stretch:normal;font-size:26.673px;font-family:Montserrat;-inkscape-font-specification:'Montserrat Light';fill:#ffffff;fill-opacity:1"
       transform="scale(0.99938887,1.0006115)"><tspan
         y="116.81651"
         font-weight="200"
         stroke-width="0"
         id="tspan1-4-8-3-9-0-0-6"
         style="font-style:normal;font-variant:normal;font-weight:300;font-stretch:normal;font-size:26.673px;font-family:Montserrat;-inkscape-font-specification:'Montserrat Light';fill:#ffffff;fill-opacity:1">product</tspan></text><text
       font-family="Montserrat"
       font-size="465.256px"
       font-weight="200"
       stroke-width="0"
       fill="#33333"
       id="text3-0-3-6-4-3-4-3-7"
       x="522.30957"
       y="116.81651"
       style="font-style:normal;font-variant:normal;font-weight:300;font-stretch:normal;font-size:26.673px;font-family:Montserrat;-inkscape-font-specification:'Montserrat Light';fill:#ffffff;fill-opacity:1"
       transform="scale(0.99938887,1.0006115)"><tspan
         y="116.81651"
         font-weight="200"
         stroke-width="0"
         id="tspan1-4-8-3-6-9-9-9-7"
         style="font-style:normal;font-variant:normal;font-weight:300;font-stretch:normal;font-size:26.673px;font-family:Montserrat;-inkscape-font-specification:'Montserrat Light';fill:#ffffff;fill-opacity:1">ind</tspan></text></g></svg>
