<?xml version="1.0" encoding="UTF-8" standalone="no"?>
<!-- Created with Inkscape (http://www.inkscape.org/) -->

<svg
   width="840"
   height="600"
   viewBox="0 0 222.25 158.75"
   version="1.1"
   id="svg1"
   inkscape:version="1.4 (e7c3feb1, 2024-10-09)"
   sodipodi:docname="how-to-share-bad-news.svg"
   inkscape:export-filename="how-to-share-bad-news.png"
   inkscape:export-xdpi="96"
   inkscape:export-ydpi="96"
   xmlns:inkscape="http://www.inkscape.org/namespaces/inkscape"
   xmlns:sodipodi="http://sodipodi.sourceforge.net/DTD/sodipodi-0.dtd"
   xmlns="http://www.w3.org/2000/svg"
   xmlns:svg="http://www.w3.org/2000/svg">
  <sodipodi:namedview
     id="namedview1"
     pagecolor="#ffffff"
     bordercolor="#000000"
     borderopacity="0.25"
     inkscape:showpageshadow="2"
     inkscape:pageopacity="0.0"
     inkscape:pagecheckerboard="0"
     inkscape:deskcolor="#d1d1d1"
     inkscape:document-units="px"
     inkscape:zoom="0.28414604"
     inkscape:cx="-292.10331"
     inkscape:cy="323.77716"
     inkscape:window-width="1728"
     inkscape:window-height="1057"
     inkscape:window-x="2560"
     inkscape:window-y="355"
     inkscape:window-maximized="0"
     inkscape:current-layer="layer1"
     inkscape:export-bgcolor="#ffffffff" />
  <defs
     id="defs1" />
  <g
     inkscape:label="Layer 1"
     inkscape:groupmode="layer"
     id="layer1">
    <path
       style="fill:#bb7a02;fill-opacity:1;stroke:#370188;stroke-width:2.17747;stroke-dasharray:none;stroke-opacity:1"
       d="m 134.08585,115.46345 21.93066,4.03813 28.88278,-4.15862 -9.23993,-24.942494 -33.06726,-2.029255 z"
       id="path31-5"
       sodipodi:nodetypes="cccccc" />
    <path
       style="fill:#fdc458;fill-opacity:1;stroke:#370188;stroke-width:2.17747;stroke-dasharray:none;stroke-opacity:1"
       d="m 123.27863,87.636475 c -3.81297,0.658734 -5.64683,2.962796 -6.83265,4.2243 -1.80462,1.919799 -3.42333,1.650479 -3.19424,-0.500091 0.4098,-3.846991 6.9891,-7.908066 9.74031,-8.165686"
       id="path30-8"
       sodipodi:nodetypes="cssc" />
    <path
       style="fill:#fdc458;fill-opacity:1;stroke:#370188;stroke-width:2.17747;stroke-dasharray:none;stroke-opacity:1"
       d="m 134.36633,63.625972 c -8.31933,0.182472 -10.89918,7.668917 -11.07586,12.364281 -0.24679,6.558589 -0.95419,28.125917 1.31783,36.240097 2.27196,8.11419 3.57021,10.71072 16.5529,11.03529 12.98272,0.32457 45.43945,-0.32457 45.43945,-0.32457 0,0 -34.56724,-3.93516 -38.46205,-10.75108 -3.89482,-6.81592 -4.57865,-28.841499 -4.38086,-35.986618 0.14219,-5.133358 -1.6018,-12.252833 -9.39141,-12.5774 z"
       id="path26-1"
       sodipodi:nodetypes="cssscssc" />
    <path
       sodipodi:type="spiral"
       style="fill:#bb7a02;fill-opacity:1;fill-rule:evenodd;stroke:#370188;stroke-width:0.695287;stroke-dasharray:none;stroke-opacity:1"
       id="path27-7"
       sodipodi:cx="105.75211"
       sodipodi:cy="39.133308"
       sodipodi:expansion="1.9"
       sodipodi:revolution="1.8526812"
       sodipodi:radius="10.963904"
       sodipodi:argument="-18.497511"
       sodipodi:t0="0.12886804"
       d="m 105.69006,39.348002 c -0.32401,0.23185 -0.69518,-0.169724 -0.77545,-0.456763 -0.23505,-0.84048 0.61833,-1.513252 1.36817,-1.59391 1.54382,-0.166068 2.64192,1.346958 2.66371,2.75927 0.0376,2.433734 -2.34374,4.074062 -4.61129,3.978909 -3.50843,-0.147224 -5.803332,-3.600767 -5.534662,-6.911455 0.386726,-4.765445 5.112132,-7.824404 9.650082,-7.326992 2.50124,0.274164 4.82855,1.527219 6.51074,3.386706"
       transform="matrix(-3.1317509,0,0,3.1317509,504.53183,-17.606714)" />
    <circle
       style="fill:#fdc458;fill-opacity:1;stroke:#370188;stroke-width:2.17747;stroke-dasharray:none;stroke-opacity:1"
       id="path28-1"
       cx="120.31914"
       cy="59.389606"
       r="1.6904899" />
    <path
       style="fill:none;fill-opacity:1;stroke:#370188;stroke-width:2.17747;stroke-dasharray:none;stroke-opacity:1"
       d="m 127.43268,65.942263 c 2.06507,-7.055288 -0.76898,-11.241377 -5.82006,-8.084432"
       id="path29-30"
       sodipodi:nodetypes="cc" />
    <circle
       style="fill:#fdc458;fill-opacity:1;stroke:#370188;stroke-width:2.17747;stroke-dasharray:none;stroke-opacity:1"
       id="path28-0-85"
       cx="-148.15915"
       cy="59.955791"
       r="1.6904899"
       transform="scale(-1,1)" />
    <path
       style="fill:none;fill-opacity:1;stroke:#370188;stroke-width:2.17747;stroke-dasharray:none;stroke-opacity:1"
       d="m 140.00656,65.356636 c -0.97044,-5.726941 0.81182,-11.43084 7.00701,-7.282111"
       id="path29-6-6"
       sodipodi:nodetypes="cc" />
    <path
       style="fill:#370188;fill-opacity:1;stroke:none;stroke-width:8.65576;stroke-dasharray:none;stroke-opacity:1"
       id="path9-4"
       sodipodi:type="arc"
       sodipodi:cx="129.73308"
       sodipodi:cy="73.151062"
       sodipodi:rx="1.8145558"
       sodipodi:ry="1.8145558"
       sodipodi:start="5.0614548"
       sodipodi:end="3.1415927"
       sodipodi:arc-type="chord"
       d="m 130.35369,71.445937 a 1.8145558,1.8145558 0 0 1 1.14503,2.12359 1.8145558,1.8145558 0 0 1 -1.9763,1.383821 1.8145558,1.8145558 0 0 1 -1.6039,-1.802286 z"
       sodipodi:open="true" />
    <path
       style="fill:#370188;fill-opacity:1;stroke:none;stroke-width:8.65576;stroke-dasharray:none;stroke-opacity:1"
       id="path9-5-3"
       sodipodi:type="arc"
       sodipodi:cx="136.64565"
       sodipodi:cy="73.538254"
       sodipodi:rx="1.8145558"
       sodipodi:ry="1.8145558"
       sodipodi:start="0"
       sodipodi:end="4.5378561"
       sodipodi:arc-type="chord"
       d="m 138.4602,73.538254 a 1.8145558,1.8145558 0 0 1 -1.70905,1.811486 1.8145558,1.8145558 0 0 1 -1.90779,-1.600829 1.8145558,1.8145558 0 0 1 1.48719,-1.997646 z"
       sodipodi:open="true" />
    <path
       style="fill:#fdc458;fill-opacity:1;stroke:#370188;stroke-width:2.17747;stroke-dasharray:none;stroke-opacity:1"
       d="m 142.27369,87.251595 c 3.81294,0.658734 5.43161,4.254002 6.61744,5.515507 1.80461,1.919792 3.63852,1.148338 3.40943,-1.002232 -0.4098,-3.846984 -6.98911,-8.697132 -9.74029,-8.954752"
       id="path30-2-47"
       sodipodi:nodetypes="cssc" />
    <path
       style="mix-blend-mode:normal;fill:#02ee25;fill-opacity:1;fill-rule:nonzero;stroke:#370188;stroke-width:2.17747;stroke-dasharray:none;stroke-opacity:1"
       d="m 121.46611,83.46213 1.11468,4.614461 -0.46199,3.564558 c 0,3.267661 -0.0433,21.679181 -5.80778,28.942751 10.86203,0.38099 54.75116,-0.10644 60.58213,-0.12497 -25.41128,-3.42114 -32.61484,-27.877239 -33.86982,-30.339649 -0.18073,-0.354416 -0.15939,-1.830869 -0.15939,-1.830869 l 1.83704,-4.28496 -1.99452,-2.13186 -3.4068,4.256862 -13.37879,-0.111376 -2.36625,-4.326138 z"
       id="path33-5"
       sodipodi:nodetypes="cccccsccccccc" />
    <g
       id="g1"
       transform="matrix(0.68581638,0,0,0.68581638,167.44136,-29.795829)">
      <path
         style="fill:#b98bfe;fill-opacity:1;fill-rule:nonzero;stroke:#370188;stroke-width:3.175;stroke-dasharray:none;stroke-opacity:1"
         d="m -125.6676,183.35769 c 14.38475,-0.25686 19.43243,-7.842 21.83397,-15.15534 3.22393,-9.8177 7.985823,-11.95541 12.58662,-3.08245 3.596196,6.9355 7.962995,2.05497 5.137436,-2.05496 -2.825591,-4.10992 -6.395688,-10.61688 -14.898496,-8.21985 -8.74875,2.46636 -4.88055,24.14581 -25.43013,23.63207"
         id="path68-8"
         sodipodi:nodetypes="cssssc" />
      <path
         style="fill:#b98bfe;fill-opacity:1;fill-rule:nonzero;stroke:#370188;stroke-width:3.175;stroke-dasharray:none;stroke-opacity:1"
         d="m -116.7743,134.93331 c 16.19635,5.3238 13.87641,14.98207 -2.92417,11.09709"
         id="path61-9-1"
         sodipodi:nodetypes="cc" />
      <path
         style="fill:#b98bfe;fill-opacity:1;fill-rule:nonzero;stroke:#370188;stroke-width:3.175;stroke-dasharray:none;stroke-opacity:1"
         d="m -186.91471,135.35197 c -16.19634,5.3238 -13.8764,14.98207 2.92417,11.0971"
         id="path61-3"
         sodipodi:nodetypes="cc" />
      <path
         style="fill:#b98bfe;fill-opacity:1;fill-rule:nonzero;stroke:#370188;stroke-width:3.175;stroke-dasharray:none;stroke-opacity:1"
         d="m -169.56547,120.1986 c -25.53268,-25.4005 -6.65648,-52.884002 18.84147,-51.925549 25.11597,0.944096 40.37051,29.176761 17.00911,51.855509 3.85426,24.96866 10.08031,70.52398 10.63111,104.67396 -1.63141,9.3433 -16.16078,8.9782 -17.23816,-1.43652 -1.0774,-10.41472 -14.01283,-11.94105 -14.57937,-0.16732 -0.50343,10.462 -17.3109,10.41554 -17.74219,-0.1918 -2.53708,-17.45114 1.06293,-77.48945 3.07803,-102.80824 z"
         id="path49-4"
         sodipodi:nodetypes="csccssccc" />
      <path
         style="fill:#370188;fill-opacity:1;fill-rule:nonzero;stroke:#370188;stroke-width:3.175;stroke-dasharray:none;stroke-opacity:1"
         d="m -152.02638,102.69911 c 0.53238,0.0111 3.57276,-4.013334 3.31508,-4.463415 -0.25781,-0.450082 -6.11674,-0.632178 -6.4658,-0.151067 -0.34905,0.481111 2.61833,4.603502 3.15072,4.614482 z"
         id="path51-2"
         sodipodi:nodetypes="zzzz" />
      <path
         style="fill:#6002ee;fill-opacity:1;fill-rule:nonzero;stroke:#370188;stroke-width:3.175;stroke-dasharray:none;stroke-opacity:1"
         d="m -145.13209,99.721512 9.24445,1.757208"
         id="path52-58" />
      <path
         style="fill:#6002ee;fill-opacity:1;fill-rule:nonzero;stroke:#370188;stroke-width:3.175;stroke-dasharray:none;stroke-opacity:1"
         d="m -146.5837,103.84713 7.33444,3.66722"
         id="path53-2" />
      <path
         style="fill:#6002ee;fill-opacity:1;fill-rule:nonzero;stroke:#370188;stroke-width:3.175;stroke-dasharray:none;stroke-opacity:1"
         d="m -159.16893,99.596353 -9.24445,1.757207"
         id="path52-5-7" />
      <path
         style="fill:#6002ee;fill-opacity:1;fill-rule:nonzero;stroke:#370188;stroke-width:3.175;stroke-dasharray:none;stroke-opacity:1"
         d="m -157.71732,103.72197 -7.33444,3.66722"
         id="path53-5-7" />
      <path
         style="fill:#ee02ca;fill-opacity:1;fill-rule:nonzero;stroke:#370188;stroke-width:3.175;stroke-dasharray:none;stroke-opacity:1"
         d="m -177.89987,223.64123 26.58288,0.41306 3.29812,-15.55068 3.43056,15.49144 27.34977,-0.10287 -5.70738,-57.54784 -53.14427,0.29356 z"
         id="path55-57"
         sodipodi:nodetypes="cccccccc" />
      <path
         style="fill:#ee02ca;fill-opacity:1;fill-rule:nonzero;stroke:#370188;stroke-width:3.175;stroke-dasharray:none;stroke-opacity:1"
         d="m -133.68374,119.25436 16.8729,71.52352 -63.39859,-0.3447 9.64289,-70.83413 15.05207,4.21068 4.05041,7.53825 3.71288,-7.31323 z"
         id="path56-1"
         sodipodi:nodetypes="cccccccc" />
      <path
         style="fill:#ee02ca;fill-opacity:1;fill-rule:nonzero;stroke:#370188;stroke-width:3.175;stroke-dasharray:none;stroke-opacity:1"
         d="m -169.95126,125.56157 -17.53946,6.13268 3.43427,17.48755 13.61456,-3.06635"
         id="path57-2"
         sodipodi:nodetypes="cccc" />
      <path
         style="fill:#ee02ca;fill-opacity:1;fill-rule:nonzero;stroke:#370188;stroke-width:3.175;stroke-dasharray:none;stroke-opacity:1"
         d="m -133.33719,125.37843 17.53946,6.13269 -3.43427,17.48754 -13.61456,-3.06634"
         id="path57-4-7"
         sodipodi:nodetypes="cccc" />
      <path
         style="fill:#ee02ca;fill-opacity:1;fill-rule:nonzero;stroke:#370188;stroke-width:3.175;stroke-dasharray:none;stroke-opacity:1"
         d="m -170.60706,119.62327 -3.91468,6.00247 17.09405,5.21954 1.21104,-6.91701 z"
         id="path58-4"
         sodipodi:nodetypes="ccccc" />
      <path
         style="fill:#ee02ca;fill-opacity:1;fill-rule:nonzero;stroke:#370188;stroke-width:3.175;stroke-dasharray:none;stroke-opacity:1"
         d="m -146.89701,123.66841 13.21822,-4.43661 3.91465,6.43651 -14.98673,4.87936 z"
         id="path59-8"
         sodipodi:nodetypes="ccccc" />
      <path
         style="fill:#ffffff;fill-opacity:1;fill-rule:nonzero;stroke:#370188;stroke-width:3.175;stroke-dasharray:none;stroke-opacity:1"
         d="m -151.43564,129.86636 3e-5,59.83336"
         id="path60-35"
         sodipodi:nodetypes="cc" />
      <circle
         style="fill:#370188;fill-opacity:1;stroke:#370188;stroke-width:0.797947;stroke-opacity:1"
         id="path3-3-6-6-7-1"
         r="0.7555865"
         cy="174.62445"
         cx="-146.20053"
         inkscape:transform-center-x="2.5473966"
         inkscape:transform-center-y="-7.9173349e-05" />
      <circle
         style="fill:#370188;fill-opacity:1;stroke:#370188;stroke-width:0.797947;stroke-opacity:1"
         id="path3-3-6-60-5-9"
         r="0.7555865"
         cy="183.90123"
         cx="-146.43085"
         inkscape:transform-center-x="2.5474322"
         inkscape:transform-center-y="1.983531e-06" />
      <circle
         style="fill:#370188;fill-opacity:1;stroke:#370188;stroke-width:0.797947;stroke-opacity:1"
         id="path3-3-6-6-7-0-3"
         r="0.7555865"
         cy="156.61571"
         cx="-146.49239"
         inkscape:transform-center-x="2.5473966"
         inkscape:transform-center-y="-7.9173349e-05" />
      <circle
         style="fill:#370188;fill-opacity:1;stroke:#370188;stroke-width:0.797947;stroke-opacity:1"
         id="path3-3-6-60-5-3-3"
         r="0.7555865"
         cy="165.62691"
         cx="-146.28009"
         inkscape:transform-center-x="2.5474322"
         inkscape:transform-center-y="1.983531e-06" />
      <circle
         style="fill:#370188;fill-opacity:1;stroke:#370188;stroke-width:0.797947;stroke-opacity:1"
         id="path3-3-6-6-7-0-0-4"
         r="0.7555865"
         cy="137.9953"
         cx="-146.58385"
         inkscape:transform-center-x="2.5473966"
         inkscape:transform-center-y="-7.9173349e-05" />
      <circle
         style="fill:#370188;fill-opacity:1;stroke:#370188;stroke-width:0.797947;stroke-opacity:1"
         id="path3-3-6-60-5-3-6-1"
         r="0.7555865"
         cy="147.53767"
         cx="-146.54868"
         inkscape:transform-center-x="2.5474322"
         inkscape:transform-center-y="1.983531e-06" />
      <path
         style="fill:#ffffff;fill-opacity:1;fill-rule:nonzero;stroke:#370188;stroke-width:3.175;stroke-dasharray:none;stroke-opacity:1"
         d="m -169.09188,82.799714 c 0,0 9.8352,-1.206204 12.3404,1.484557 2.5052,2.690762 1.57734,10.484698 -3.52581,10.299129 -5.10318,-0.185579 -9.27852,-3.618614 -8.81459,-11.783686 z"
         id="path62-89" />
      <path
         style="fill:#ffffff;fill-opacity:1;fill-rule:nonzero;stroke:#370188;stroke-width:3.175;stroke-dasharray:none;stroke-opacity:1"
         d="m -135.08601,82.924028 c 0,0 -9.8352,-1.206204 -12.3404,1.484557 -2.5052,2.690762 -1.57734,10.484698 3.5258,10.299129 5.10318,-0.185579 9.27853,-3.618614 8.8146,-11.783686 z"
         id="path62-2-3" />
      <path
         style="fill:#370188;fill-opacity:1;stroke:none;stroke-width:12.6211;stroke-dasharray:none;stroke-opacity:1"
         id="path9-5-7-8"
         sodipodi:type="arc"
         sodipodi:cx="-161.56335"
         sodipodi:cy="88.760406"
         sodipodi:rx="2.6458333"
         sodipodi:ry="2.6458333"
         sodipodi:start="5.0614548"
         sodipodi:end="3.1415927"
         sodipodi:arc-type="chord"
         d="m -160.65843,86.274136 a 2.6458333,2.6458333 0 0 1 1.66959,3.096442 2.6458333,2.6458333 0 0 1 -2.88168,2.017772 2.6458333,2.6458333 0 0 1 -2.33867,-2.627944 z"
         sodipodi:open="true" />
      <path
         style="fill:#370188;fill-opacity:1;stroke:none;stroke-width:12.6211;stroke-dasharray:none;stroke-opacity:1"
         id="path9-5-7-6-7"
         sodipodi:type="arc"
         sodipodi:cx="-142.50009"
         sodipodi:cy="88.857033"
         sodipodi:rx="2.6458333"
         sodipodi:ry="2.6458333"
         sodipodi:start="0"
         sodipodi:end="4.5378561"
         sodipodi:arc-type="chord"
         d="m -139.85426,88.857033 a 2.6458333,2.6458333 0 0 1 -2.49199,2.641357 2.6458333,2.6458333 0 0 1 -2.78178,-2.334195 2.6458333,2.6458333 0 0 1 2.16849,-2.912799 z"
         sodipodi:open="true" />
      <path
         style="fill:#ffffff;fill-opacity:1;fill-rule:nonzero;stroke:#370188;stroke-width:3.175;stroke-dasharray:none;stroke-opacity:1"
         d="m -169.29029,85.010264 -8.09517,-1.809512"
         id="path63-2" />
      <path
         style="fill:#ffffff;fill-opacity:1;fill-rule:nonzero;stroke:#370188;stroke-width:3.175;stroke-dasharray:none;stroke-opacity:1"
         d="m -134.90955,85.391216 8.57136,-1.714278"
         id="path64-3" />
      <path
         style="fill:#ffffff;fill-opacity:1;fill-rule:nonzero;stroke:#370188;stroke-width:3.175;stroke-dasharray:none;stroke-opacity:1"
         d="m -155.76657,87.391203 c 0.85713,-1.5238 5.80949,-1.809512 7.3333,-0.285719"
         id="path65-8" />
      <path
         style="fill:#b98bfe;fill-opacity:1;fill-rule:nonzero;stroke:#370188;stroke-width:3.175;stroke-dasharray:none;stroke-opacity:1"
         d="m -134.00569,77.082276 c 0,0 1.31328,-13.113956 -0.93621,-14.041215 -2.24949,-0.927259 -10.69804,10.163165 -10.69804,10.163165"
         id="path66-0-1"
         sodipodi:nodetypes="czc" />
      <path
         style="fill:#b98bfe;fill-opacity:1;fill-rule:nonzero;stroke:#370188;stroke-width:3.175;stroke-dasharray:none;stroke-opacity:1"
         d="m -171.28981,77.208644 c 0,0 -1.31327,-13.113956 0.93621,-14.041215 2.24949,-0.927259 10.69804,10.163165 10.69804,10.163165"
         id="path66-0-3-1"
         sodipodi:nodetypes="czc" />
      <path
         style="fill:none;fill-opacity:1;fill-rule:nonzero;stroke:#370188;stroke-width:3.175;stroke-dasharray:none;stroke-opacity:1"
         d="m -147.74753,209.70278 4.00386,0.24578 -2.77495,-14.50099"
         id="path78-99"
         sodipodi:nodetypes="ccc" />
    </g>
    <g
       id="g3"
       transform="matrix(0.68581638,0,0,0.68581638,71.425106,-58.490344)">
      <path
         style="fill:#018816;fill-opacity:1;stroke:#370188;stroke-width:3.175;stroke-dasharray:none;stroke-opacity:1"
         d="m 17.668984,241.91575 -2.448211,35.65859 51.518666,1.38376 -2.02245,-39.59699 z"
         id="path25-4-4" />
      <path
         style="fill:#ffffff;fill-opacity:1;stroke:#370188;stroke-width:3.175;stroke-dasharray:none;stroke-opacity:1"
         d="m 1.0077266,250.36357 c 0,15.83268 7.109174,26.92819 17.0723244,33.2866 2.370487,1.51283 4.902581,2.75752 7.538911,3.73403 23.316628,8.63654 54.788087,-3.70364 54.763757,-37.02063 l -15.06803,15.50714 -15.151295,-6.57609 -19.957542,9.34238 -10.755376,-11.69093 -8.490204,5.1436 z"
         id="path1-8-4"
         sodipodi:nodetypes="cssccccccc" />
      <path
         style="fill:#370189;fill-opacity:1;stroke:#370188;stroke-width:0;stroke-dasharray:none;stroke-opacity:1"
         d="m 24.935733,285.69951 -3.826922,-5.2726 5.071173,2.35369 1.326261,-3.92795 0.376809,4.14214 4.169982,-3.19913 -2.573465,4.76485 5.63245,0.54648 -3.692811,2.899 z"
         id="path3-2-7"
         sodipodi:nodetypes="cccccccccc" />
      <path
         style="fill:#370189;fill-opacity:1;stroke:#370188;stroke-width:0;stroke-dasharray:none;stroke-opacity:1"
         d="m 56.080449,286.23586 3.03511,-5.32825 -4.745512,2.65566 -0.408241,-3.99875 -1.235837,4.49196 -4.724654,-1.36681 3.40941,3.17529 -4.781804,1.08258 4.502499,2.28216 z"
         id="path3-1-5-8"
         sodipodi:nodetypes="cccccccccc" />
      <path
         style="fill:#ee4302;fill-opacity:1;stroke:#370188;stroke-width:3.175;stroke-dasharray:none;stroke-opacity:1"
         d="m 25.530062,287.02958 c -0.09081,0.82798 -0.110808,10.87926 -0.110808,10.87926 l -7.657909,4.01428 9.170479,-1.55092 0.742855,0.90942 0.700278,-0.93298 8.752491,1.41577 -6.925977,-3.71139 c 0,0 0.07017,-8.9828 0.0127,-9.10428 z"
         id="path7-8-8"
         sodipodi:nodetypes="cccccccccc" />
      <path
         style="fill:#ee4302;fill-opacity:1;stroke:#370188;stroke-width:3.175;stroke-dasharray:none;stroke-opacity:1"
         d="m 55.56861,286.29168 0.340039,12.60688 7.87115,2.69119 -9.979506,-1.45317 -0.742854,0.90942 -0.70031,-0.93297 -9.076214,1.20135 7.418261,-3.10318 c 0,0 0.16637,-9.20293 0.179705,-9.394 z"
         id="path7-4-0-5"
         sodipodi:nodetypes="cccccccccc" />
      <path
         style="fill:#fdc458;fill-opacity:1;stroke:#370188;stroke-width:3.175;stroke-dasharray:none;stroke-opacity:1"
         d="m 14.384224,231.96956 c 0,0 -38.472769,27.21073 6.956203,15.58833 z"
         id="path17-0-8"
         sodipodi:nodetypes="ccc" />
      <path
         style="fill:#fdc458;fill-opacity:1;stroke:#370188;stroke-width:3.175;stroke-dasharray:none;stroke-opacity:1"
         d="m 70.636749,233.00845 c 0,0 34.302291,21.19084 -7.53479,15.42339 z"
         id="path16-7-8"
         sodipodi:nodetypes="ccc" />
      <path
         style="fill:#fdc458;fill-opacity:1;stroke:#370188;stroke-width:3.175;stroke-dasharray:none;stroke-opacity:1"
         d="m 57.014849,218.20812 c 17.42596,-38.94191 -49.6308334,-38.34514 -32.591497,0.64326 l 15.592742,7.69651 z"
         id="path23-5-4"
         sodipodi:nodetypes="cccc" />
      <path
         style="fill:#018816;fill-opacity:1;stroke:#370188;stroke-width:3.175;stroke-dasharray:none;stroke-opacity:1"
         d="m 23.383,247.67079 -9.800305,4.0472 -6.6214944,-19.13718 13.5225164,-5.46456 -0.305753,-10.09069 c 14.737544,2.54162 25.855746,0.94063 40.362665,-0.91732 v 8.56177 l 14.32217,7.7724 -6.5907,18.69103 -9.53128,-3.85835"
         id="path12-0-3"
         sodipodi:nodetypes="cccccccccc" />
      <path
         style="fill:none;fill-opacity:1;stroke:#370188;stroke-width:3.175;stroke-dasharray:none;stroke-opacity:1"
         d="m 20.178599,226.91473 c 16.68306,23.4911 26.669876,22.63731 40.87124,-2.03873"
         id="path22-1-1"
         sodipodi:nodetypes="cc" />
      <path
         style="fill:none;fill-opacity:1;stroke:#370188;stroke-width:3.175;stroke-dasharray:none;stroke-opacity:1"
         d="m 40.822894,191.30444 c 5.406326,-4.70871 -5.05749,-5.05752 0.523208,-8.89425"
         id="path26-0-2"
         sodipodi:nodetypes="cc" />
    </g>
  </g>
</svg>
