<?xml version="1.0" encoding="UTF-8" standalone="no"?>
<!-- Created with Inkscape (http://www.inkscape.org/) -->

<svg
   width="840"
   height="600"
   viewBox="0 0 222.25 158.75"
   version="1.1"
   id="svg1"
   inkscape:version="1.4 (e7c3feb1, 2024-10-09)"
   sodipodi:docname="mentoring.svg"
   inkscape:export-filename="bulb.png"
   inkscape:export-xdpi="96"
   inkscape:export-ydpi="96"
   xmlns:inkscape="http://www.inkscape.org/namespaces/inkscape"
   xmlns:sodipodi="http://sodipodi.sourceforge.net/DTD/sodipodi-0.dtd"
   xmlns="http://www.w3.org/2000/svg"
   xmlns:svg="http://www.w3.org/2000/svg">
  <sodipodi:namedview
     id="namedview1"
     pagecolor="#ffffff"
     bordercolor="#000000"
     borderopacity="0.25"
     inkscape:showpageshadow="2"
     inkscape:pageopacity="0.0"
     inkscape:pagecheckerboard="0"
     inkscape:deskcolor="#d1d1d1"
     inkscape:document-units="px"
     inkscape:zoom="0.7322355"
     inkscape:cx="286.11014"
     inkscape:cy="234.89711"
     inkscape:window-width="1728"
     inkscape:window-height="1057"
     inkscape:window-x="0"
     inkscape:window-y="32"
     inkscape:window-maximized="0"
     inkscape:current-layer="layer1"
     inkscape:export-bgcolor="#ffffffff" />
  <defs
     id="defs1">
    <rect
       x="223.41458"
       y="115.23489"
       width="65.848509"
       height="26.652968"
       id="rect2" />
  </defs>
  <g
     inkscape:label="Layer 1"
     inkscape:groupmode="layer"
     id="layer1">
    <path
       style="fill:#ee4302;fill-opacity:1;stroke:#370188;stroke-width:2.7713;stroke-dasharray:none;stroke-opacity:1"
       d="m 49.363276,131.22467 c -0.07925,0.72268 -0.09667,9.49596 -0.09667,9.49596 l -6.684184,3.50386 8.004429,-1.35373 0.648403,0.79377 0.611255,-0.81435 7.639602,1.23577 -6.045331,-3.23947 c 0,0 0.06123,-7.84066 0.01086,-7.94669 z"
       id="path7-8-1"
       sodipodi:nodetypes="cccccccccc" />
    <path
       style="fill:#ee4302;fill-opacity:1;stroke:#370188;stroke-width:2.7713;stroke-dasharray:none;stroke-opacity:1"
       d="m 75.582406,130.58058 0.296801,11.00391 6.870334,2.349 -8.710602,-1.26838 -0.648402,0.79377 -0.611256,-0.81434 -7.922173,1.04861 6.475007,-2.7086 c 0,0 0.145338,-8.0328 0.15692,-8.19957 z"
       id="path7-4-0-2"
       sodipodi:nodetypes="cccccccccc" />
    <path
       style="fill:#ffffff;fill-opacity:1;stroke:#370188;stroke-width:2.7713;stroke-dasharray:none;stroke-opacity:1"
       d="m 28.175072,98.520785 c 0,13.819535 6.205214,23.504255 14.901542,29.054175 2.069103,1.32049 4.279228,2.4069 6.580348,3.25924 20.351899,7.53842 47.821719,-3.23273 47.800519,-32.313415 -0.0205,-28.090441 -17.723786,-57.9591 -34.641206,-57.735337 -16.91742,0.223764 -34.641203,29.150314 -34.641203,57.735337 z"
       id="path1-1"
       sodipodi:nodetypes="sssszs" />
    <path
       style="fill:#370188;fill-opacity:1;stroke:#370188;stroke-width:0;stroke-dasharray:none;stroke-opacity:1"
       d="m 49.060616,129.36374 -3.340338,-4.60219 4.426381,2.05441 1.157612,-3.42849 0.328889,3.61545 3.639788,-2.79236 -2.246247,4.15899 4.916271,0.47701 -3.223281,2.53036 z"
       id="path3-19"
       sodipodi:nodetypes="cccccccccc" />
    <path
       style="fill:#370188;fill-opacity:1;stroke:#370188;stroke-width:0;stroke-dasharray:none;stroke-opacity:1"
       d="m 76.24524,129.83188 2.649191,-4.65076 -4.142109,2.31799 -0.356326,-3.49031 -1.078697,3.92082 -4.123918,-1.19303 2.975904,2.77155 -4.173794,0.94492 3.930007,1.99198 z"
       id="path3-1-8"
       sodipodi:nodetypes="cccccccccc" />
    <path
       style="fill:#fdc458;fill-opacity:1;stroke:#370188;stroke-width:2.7713;stroke-dasharray:none;stroke-opacity:1"
       d="m 47.821685,66.733915 -2.314589,-8.431717 7.004375,2.667112 3.907262,-5.14703 3.229454,4.529832 7.847509,-5.852454 -0.495983,6.943767 8.431717,-3.306556 -3.141227,7.605079 4.463851,3.306558 -10.699568,0.539514 -0.873378,5.908269 -4.829947,-7.570767 -11.101093,6.478909 2.043502,-7.339859 z"
       id="path27"
       sodipodi:nodetypes="cccccccccccccccc" />
    <circle
       style="fill:#370188;fill-opacity:1;stroke:none;stroke-width:7.10071;stroke-dasharray:none;stroke-opacity:1"
       id="path9-5-5"
       cx="55.641125"
       cy="65.293434"
       r="1.4885609" />
    <circle
       style="fill:#370188;fill-opacity:1;stroke:none;stroke-width:7.10071;stroke-dasharray:none;stroke-opacity:1"
       id="path9-4-2-2"
       cx="66.548836"
       cy="65.36776"
       r="1.4885609" />
    <path
       style="fill:#ffffff;fill-opacity:1;stroke:#370188;stroke-width:2.78599;stroke-dasharray:none;stroke-opacity:1"
       d="m 161.98696,95.742608 c 0.70754,5.660362 3.90645,18.380852 10.51513,26.105952 5.31053,6.20762 12.61373,7.34535 16.29115,9.35647 8.46695,4.63048 5.86306,12.16087 -1.67303,10.24214 -10.98331,-2.79639 -27.57551,-6.03456 -26.80985,-13.69121"
       id="path2-4"
       sodipodi:nodetypes="csssc" />
    <path
       style="fill:#ffffff;fill-opacity:1;stroke:#370188;stroke-width:2.78599;stroke-dasharray:none;stroke-opacity:1"
       d="m 120.8287,19.673099 c -2.58122,-3.172081 0.62503,-5.792286 3.29282,-2.176632"
       id="path15-0"
       sodipodi:nodetypes="cc" />
    <path
       style="fill:#ffffff;fill-opacity:1;stroke:#370188;stroke-width:2.78604;stroke-dasharray:none;stroke-opacity:1"
       d="m 138.86651,40.759367 c -8.02548,14.99504 -38.43791,5.91353 -26.39967,-10.348658 12.03823,-16.262216 16.68458,-17.740592 26.18847,-17.318219 9.50388,0.422402 17.01152,8.936516 17.95179,15.839843 1.23844,9.09218 2.88199,51.286469 4.99398,63.747107 1.73038,10.20932 -0.68766,29.52711 -1.80366,40.39217 -0.24609,2.39595 -0.42889,4.38087 -0.48991,5.76641 -0.38421,8.72273 -11.61897,9.37807 -12.24949,0.6336 -0.46713,-6.4791 -8.73562,-5.38022 -8.99729,0 -0.39084,8.03631 -11.93894,7.90465 -12.63259,-0.22614 -0.80507,-9.43665 -5.34565,-35.25233 -4.46141,-45.231218 0.84217,-9.503888 5.86152,-45.862933 5.86152,-45.862933 v 0"
       id="path1-2"
       sodipodi:nodetypes="csssssssssscc" />
    <path
       style="fill:none;fill-opacity:1;stroke:#370188;stroke-width:2.78496;stroke-dasharray:none;stroke-opacity:1"
       d="m 122.04729,25.605946 c 1.35123,-3.921605 7.30505,-1.511381 5.54179,1.259498"
       id="path32"
       sodipodi:nodetypes="cc" />
    <path
       style="fill:none;fill-opacity:1;stroke:#370188;stroke-width:2.78496;stroke-dasharray:none;stroke-opacity:1"
       d="m 132.11852,29.063637 c 1.35122,-3.921606 7.30507,-1.511382 5.54175,1.259498"
       id="path32-9"
       sodipodi:nodetypes="cc" />
    <path
       style="fill:#370188;fill-opacity:1;stroke:#370188;stroke-width:2.78599;stroke-dasharray:none;stroke-opacity:1"
       d="m 119.64391,35.141089 c 0.92149,-0.597712 4.34806,0.403003 4.78185,1.344911 0.40583,0.881216 -3.30735,2.742751 -3.93505,2.390936 -0.45951,-0.257453 -1.76831,-3.138106 -0.8468,-3.735847 z"
       id="path4"
       sodipodi:nodetypes="zssz" />
    <path
       style="fill:#fd58e5;fill-opacity:1;stroke:#370188;stroke-width:2.78599;stroke-dasharray:none;stroke-opacity:1"
       d="m 161.40806,116.86438 -0.86195,23.99006 -16.59192,-0.5028 -1.72383,-5.17149 -1.50836,5.24332 -17.66931,0.5028 c 0,0 -0.18374,-17.31486 -0.5746,-25.13929 -0.39084,-7.82439 -2.69503,-11.56587 -1.68068,-21.794452 1.01435,-10.228571 4.75976,-38.989337 4.75976,-38.989337 l 4.58026,0.981483 4.25308,8.83334 3.59877,-8.996902 20.12039,-1.308662 c 0,0 1.50459,26.308993 3.6059,38.768409 2.1013,12.459411 -0.30751,23.583521 -0.30751,23.583521 z"
       id="path14"
       sodipodi:nodetypes="cccccczzccccczc" />
    <path
       style="fill:#ffffff;fill-opacity:1;stroke:#370188;stroke-width:2.78599;stroke-dasharray:none;stroke-opacity:1"
       d="m 138.60083,55.080096 -3.61253,9.74166"
       id="path10-5"
       sodipodi:nodetypes="cc" />
    <path
       style="fill:#fd58e5;fill-opacity:1;stroke:#370188;stroke-width:2.78599;stroke-dasharray:none;stroke-opacity:1"
       d="m 141.84626,63.719694 -2.66302,-7.755694 19.12582,-1.397869 2.28746,7.815526 z"
       id="path7-1"
       sodipodi:nodetypes="ccccc" />
    <path
       style="fill:#ffffff;fill-opacity:1;stroke:#370188;stroke-width:2.78599;stroke-dasharray:none;stroke-opacity:1"
       d="m 134.71918,65.064633 -4.41007,-9.984565"
       id="path9-9"
       sodipodi:nodetypes="cc" />
    <path
       style="fill:#fd58e5;fill-opacity:1;stroke:#370188;stroke-width:2.78599;stroke-dasharray:none;stroke-opacity:1"
       d="m 125.4584,55.074442 4.43396,0.689388 -1.74429,7.860892 -5.53486,-1.581107 z"
       id="path8-9"
       sodipodi:nodetypes="ccccc" />
    <path
       style="fill:#fd58e5;fill-opacity:1;stroke:#370188;stroke-width:2.78599;stroke-dasharray:none;stroke-opacity:1"
       d="m 134.80296,64.658637 c 0,0 -1.15192,24.45641 -1.24054,27.026121 -0.0887,2.569712 1.61078,28.687612 1.61078,28.687612 l 4.53121,-0.34904"
       id="path11-7"
       sodipodi:nodetypes="csc" />
    <circle
       style="fill:#370188;fill-opacity:1;stroke:#370188;stroke-width:0.696487;stroke-opacity:1"
       id="path3-3-6"
       r="0.65951312"
       cy="72.124237"
       cx="137.98221"
       inkscape:transform-center-x="2.2234854"
       inkscape:transform-center-y="-3.0910198e-05" />
    <circle
       style="fill:#370188;fill-opacity:1;stroke:#370188;stroke-width:0.696487;stroke-opacity:1"
       id="path3-3-6-9"
       r="0.65951312"
       cy="80.897179"
       cx="137.56027"
       inkscape:transform-center-x="2.223462"
       inkscape:transform-center-y="-7.1926843e-06" />
    <circle
       style="fill:#370188;fill-opacity:1;stroke:#370188;stroke-width:0.696487;stroke-opacity:1"
       id="path3-3-6-2"
       r="0.65951312"
       cy="89.062386"
       cx="137.14365"
       inkscape:transform-center-x="2.2234249"
       inkscape:transform-center-y="1.5655086e-06" />
    <circle
       style="fill:#370188;fill-opacity:1;stroke:#370188;stroke-width:0.696487;stroke-opacity:1"
       id="path3-3-6-1"
       r="0.65951312"
       cy="97.543564"
       cx="137.28658"
       inkscape:transform-center-x="2.2234874"
       inkscape:transform-center-y="2.9469598e-05" />
    <circle
       style="fill:#370188;fill-opacity:1;stroke:#370188;stroke-width:0.696487;stroke-opacity:1"
       id="path3-3-6-6"
       r="0.65951312"
       cy="106.3243"
       cx="137.78276"
       inkscape:transform-center-x="2.2235002"
       inkscape:transform-center-y="-6.5459583e-05" />
    <circle
       style="fill:#370188;fill-opacity:1;stroke:#370188;stroke-width:0.696487;stroke-opacity:1"
       id="path3-3-6-60"
       r="0.65951312"
       cy="114.80791"
       cx="138.27718"
       inkscape:transform-center-x="2.2235298"
       inkscape:transform-center-y="1.4321012e-06" />
    <path
       style="fill:#ffffff;fill-opacity:1;stroke:#370188;stroke-width:2.78599;stroke-dasharray:none;stroke-opacity:1"
       d="m 144.75681,23.453287 c 2.92118,-2.675604 5.32178,1.564978 2.67556,3.223931"
       id="path15"
       sodipodi:nodetypes="cc" />
    <path
       style="fill:#ffffff;fill-opacity:1;stroke:#370188;stroke-width:2.78604;stroke-opacity:1"
       d="m 125.17847,54.077274 c 0.56878,17.82193 23.19381,17.984385 23.57297,-0.02771"
       id="path18"
       sodipodi:nodetypes="cc" />
    <ellipse
       style="fill:#ffffff;fill-opacity:1;stroke:#370188;stroke-width:2.78604;stroke-opacity:1"
       id="path2"
       cx="136.96259"
       cy="54.14629"
       rx="11.80168"
       ry="3.0693007" />
    <ellipse
       style="fill:#370188;fill-opacity:1;stroke:none;stroke-width:5.43138"
       id="path20"
       cx="137.01552"
       cy="54.843719"
       rx="7.629879"
       ry="1.6349739" />
    <path
       style="fill:#ffffff;fill-opacity:1;stroke:#370188;stroke-width:2.78599;stroke-dasharray:none;stroke-opacity:1"
       d="m 124.94845,70.997953 c 2.38134,-2.958528 2.32182,-3.209136 5.1261,-5.42609 3.07749,-2.433005 7.31378,2.296656 4.4242,5.261942 -2.8896,2.96526 -2.861,2.926986 -3.35518,3.169228"
       id="path5"
       sodipodi:nodetypes="cssc" />
    <path
       style="fill:#fd58e5;fill-opacity:1;stroke:#370188;stroke-width:2.78599;stroke-dasharray:none;stroke-opacity:1"
       d="m 125.66971,67.412862 8.55332,6.353725 -12.10241,9.434461 c -2.39869,-5.135295 -2.18675,-10.02195 1.72239,-14.556483 z"
       id="path13"
       sodipodi:nodetypes="ccccc" />
    <path
       style="fill:#ffffff;fill-opacity:1;stroke:#370188;stroke-width:2.78599;stroke-dasharray:none;stroke-opacity:1"
       d="m 149.80187,75.939807 c -6.75192,-5.581085 -4.04675,-3.106925 -6.33185,-5.764267 -3.08362,-3.585891 1.04863,-9.247566 5.29986,-5.439057 7.35776,6.591529 5.56265,5.201557 5.53882,5.170491"
       id="path6"
       sodipodi:nodetypes="cssc" />
    <path
       style="fill:#fd58e5;fill-opacity:1;stroke:#370188;stroke-width:2.78599;stroke-dasharray:none;stroke-opacity:1"
       d="m 159.13175,71.808638 -8.00863,-7.298459 -6.40256,8.392924 15.94446,12.637111 c 0.76924,-4.577177 3.59637,-9.154364 -1.53327,-13.731576 z"
       id="path12-2"
       sodipodi:nodetypes="ccccc" />
  </g>
</svg>
