<?xml version="1.0" encoding="UTF-8" standalone="no"?>
<!-- Created with Inkscape (http://www.inkscape.org/) -->

<svg
   width="50mm"
   height="50mm"
   viewBox="0 0 50 50"
   version="1.1"
   id="svg1"
   inkscape:version="1.4 (e7c3feb1, 2024-10-09)"
   sodipodi:docname="sticker-invert.svg"
   inkscape:export-filename="sticker.jpg"
   inkscape:export-xdpi="600"
   inkscape:export-ydpi="600"
   xmlns:inkscape="http://www.inkscape.org/namespaces/inkscape"
   xmlns:sodipodi="http://sodipodi.sourceforge.net/DTD/sodipodi-0.dtd"
   xmlns:xlink="http://www.w3.org/1999/xlink"
   xmlns="http://www.w3.org/2000/svg"
   xmlns:svg="http://www.w3.org/2000/svg">
  <sodipodi:namedview
     id="namedview1"
     pagecolor="#ffffff"
     bordercolor="#000000"
     borderopacity="0.25"
     inkscape:showpageshadow="2"
     inkscape:pageopacity="0.0"
     inkscape:pagecheckerboard="0"
     inkscape:deskcolor="#d1d1d1"
     inkscape:document-units="mm"
     inkscape:zoom="2.469146"
     inkscape:cx="25.312395"
     inkscape:cy="84.239652"
     inkscape:window-width="1728"
     inkscape:window-height="1057"
     inkscape:window-x="0"
     inkscape:window-y="32"
     inkscape:window-maximized="0"
     inkscape:current-layer="svg1"
     showguides="true" />
  <defs
     id="defs1">
    <linearGradient
       id="linearGradient220-8"
       inkscape:collect="always"
       inkscape:label="LP">
      <stop
         style="stop-color:#eb9600;stop-opacity:1;"
         offset="0.05045871"
         id="stop215-1" />
      <stop
         style="stop-color:#f1c000;stop-opacity:1;"
         offset="0.29931194"
         id="stop216-6" />
      <stop
         style="stop-color:#fbfb00;stop-opacity:1;"
         offset="0.50286698"
         id="stop217-1" />
      <stop
         style="stop-color:#aeff37;stop-opacity:1;"
         offset="0.70326835"
         id="stop218-5" />
      <stop
         style="stop-color:#00ed70;stop-opacity:1;"
         offset="0.94954127"
         id="stop219-7" />
    </linearGradient>
    <linearGradient
       inkscape:collect="always"
       xlink:href="#linearGradient220-8"
       id="linearGradient8"
       x1="697.70459"
       y1="1706.5898"
       x2="550.71808"
       y2="1961.178"
       gradientUnits="userSpaceOnUse" />
  </defs>
  <rect
     style="fill:#686868;fill-opacity:1;stroke:none;stroke-width:1;stroke-dasharray:none;stroke-opacity:1"
     id="rect8"
     width="71.135368"
     height="72.727211"
     x="-15.719424"
     y="-19.798515" />
  <path
     id="path5"
     style="display:inline;fill:#000000;stroke:#080809;stroke-width:0;stroke-dasharray:none;stroke-opacity:1;fill-opacity:1"
     inkscape:label="background"
     d="M 668.33195 1589.2651 A 278.49645 278.49645 0 0 0 389.83523 1867.7619 A 278.49645 278.49645 0 0 0 668.33195 2146.2586 A 278.49645 278.49645 0 0 0 946.82868 1867.7619 A 278.49645 278.49645 0 0 0 668.33195 1589.2651 z M 690.26491 1669.3406 C 714.11107 1669.9613 723.79413 1688.0921 724.26962 1710.403 L 759.78259 1738.7546 L 722.89953 1755.3857 C 738.54571 1819.7381 766.53596 1957.3596 723.76879 1983.9202 C 673.2795 2015.2766 547.24536 1992.98 490.19721 1939.5822 C 521.65308 1934.3499 571.71455 1888.8874 614.35731 1850.3306 C 653.40283 1815.0263 647.00509 1742.6272 648.36778 1714.2082 C 649.71741 1686.0613 666.69806 1672.2592 679.16603 1670.1868 C 683.16521 1669.5221 686.85831 1669.2519 690.26491 1669.3406 z "
     transform="matrix(0.08976775,0,0,0.08976775,-34.944505,-142.61463)" />
  <path
     style="fill:none;stroke-width:16.70978734;stroke-dasharray:none;stroke:#ffffff;stroke-opacity:1;stroke-linejoin:round"
     d="m -494.80664,1729.4473 c -14.36427,0.5928 -25.24364,6.0024 -31.89844,14.7226 -7.0477,9.235 -9.14578,21.3028 -8.45117,33.8789 l -37.25586,37.2559 43.16406,13.9219 c -4.09522,33.0736 -8.82178,81.7086 -7.35351,126.1289 0.76829,23.2437 3.20242,45.2048 8.53515,63.1972 5.33273,17.9925 13.65022,32.5673 27.37696,39.0977 6.24873,2.9728 13.32056,5.0092 20.81836,6.4883 l 4.54101,40.4883 -20.77539,8.1406 4.37891,11.1719 17.78125,-6.9688 0.5,4.4512 11.92187,-1.3379 -0.56054,-4.9922 19.53125,2.9531 1.79296,-11.8633 -22.70703,-3.4336 -4.13476,-36.871 c 14.52398,1.3511 30.50684,0.5308 47.1914,-2.1446 l 4.125,36.7774 -20.77539,8.1425 4.37696,11.17 17.78125,-6.9688 0.5,4.4512 11.92382,-1.3379 -0.56054,-4.9922 19.52929,2.9531 1.79493,-11.8613 -22.70899,-3.4355 -4.16015,-37.0782 c 8.90416,-1.843 17.89561,-4.0322 26.90039,-6.7675 44.60145,-13.5486 88.77572,-37.6806 115.30664,-68.752 l 7.89062,-9.2402 -12.13476,-0.6446 c -13.6274,-0.7247 -35.09044,-10.4895 -58.30664,-24.6132 -23.21621,-14.1238 -48.50205,-32.3424 -71.84375,-49.127 -19.58034,-14.08 -30.32908,-38.4621 -36.49805,-63.3066 -6.16898,-24.8446 -7.68554,-49.527 -10.05664,-64.2559 -4.84629,-30.1043 -25.06921,-44.5022 -41.11328,-45.3535 -2.19213,-0.1163 -4.31515,-0.1296 -6.36719,-0.045 z"
     id="path18"
     sodipodi:nodetypes="cscccsssccccccccccccccccccccccccccccccssscc"
     transform="matrix(-0.08920831,0.01000631,0.01000631,0.08920831,-34.944505,-142.61463)" />
  <g
     inkscape:label="foreground"
     inkscape:groupmode="layer"
     id="layer1">
    <g
       id="g39"
       transform="matrix(0.08976775,0,0,0.08976775,-34.944506,-142.61463)"
       inkscape:label="little-parrot-normal">
      <path
         style="display:inline;fill:url(#linearGradient8);stroke:#080809;stroke-width:11.99762721;stroke-dasharray:none;stroke-opacity:1;fill-opacity:1"
         d="m 722.89882,1755.3872 36.8851,-16.6352 -35.51545,-28.3516 c -0.54342,-25.4982 -13.11133,-45.5318 -45.10484,-40.2141 -12.46797,2.0724 -29.44411,15.8753 -30.79374,44.0222 -1.36269,28.419 5.03288,100.8152 -34.01264,136.1195 -42.64276,38.5568 -92.70361,84.024 -124.15948,89.2563 57.04815,53.3978 183.08167,75.6922 233.57096,44.3358 42.76717,-26.5606 14.77627,-164.1805 -0.86991,-228.5329 -10.1118,4.2329 -26.76164,4.1482 -37.26143,-0.773 10.50055,4.9185 27.14647,5.0115 37.26143,0.773 z"
         id="path35"
         sodipodi:nodetypes="cccssscsccc"
         inkscape:label="parrot-body" />
      <path
         id="path36"
         style="display:inline;fill:#080809;stroke-width:2.22797162;stroke:#080809;stroke-opacity:1;stroke-dasharray:none"
         inkscape:label="parrot-eye"
         transform="matrix(-0.99376792,0.11146893,0.11146893,0.99376792,0,0)"
         d="m -492.08549,1772.0703 c -2.93957,-2.9018 -4.25576,-5.0085 -9.5462,-5.0085 -5.29045,0 -6.33314,1.9363 -9.61217,5.0085 -1e-5,-5.2904 4.28874,-9.5792 9.57919,-9.5792 5.29044,0 9.57919,4.2888 9.57918,9.5792 z"
         sodipodi:nodetypes="cscsc" />
      <g
         id="g34"
         inkscape:label="leg-back"
         transform="translate(286.01242,1.2996501e-5)">
        <path
           style="fill:#080809;fill-opacity:1;stroke:#080809;stroke-width:12;stroke-linecap:butt;stroke-dasharray:none;stroke-opacity:1"
           d="m 388.32601,2049.7196 25.6141,-6.8633 27.016,7.239"
           id="path34"
           inkscape:label="leg-back-foot" />
        <path
           style="fill:#080809;fill-opacity:1;stroke:#080809;stroke-width:12;stroke-linecap:butt;stroke-dasharray:none;stroke-opacity:1"
           d="m 414.95621,1992.595 v 62.8311"
           id="path33"
           inkscape:label="leg-back-leg"
           sodipodi:nodetypes="cc" />
      </g>
      <g
         id="g38"
         inkscape:label="leg-front"
         transform="translate(286.01242)">
        <path
           style="fill:#080809;fill-opacity:1;stroke:#080809;stroke-width:12;stroke-linecap:butt;stroke-dasharray:none;stroke-opacity:1"
           d="m 355.8219,1985.6347 v 72.282"
           id="path37"
           inkscape:label="leg-front-foot" />
        <path
           style="fill:#080809;fill-opacity:1;stroke:#080809;stroke-width:12;stroke-linecap:butt;stroke-dasharray:none;stroke-opacity:1"
           d="m 329.1917,2052.2102 25.6141,-6.8633 27.016,7.239"
           id="path38"
           inkscape:label="leg-front-leg" />
      </g>
    </g>
    <path
       style="font-weight:bold;font-size:4.23333px;font-family:'Space Mono';-inkscape-font-specification:'Space Mono Bold';text-align:center;letter-spacing:0px;word-spacing:0px;text-anchor:middle;white-space:pre;fill:#ffffff;stroke:#ffffff;stroke-width:0.2;stroke-linecap:round;fill-opacity:1;stroke-opacity:1"
       d="m 4.1410872,22.220727 -0.018443,0.125654 -2.0251278,0.562769 0.088528,-0.603137 1.4874711,-0.397801 0.011066,-0.07539 -1.3104145,-0.808474 0.088528,-0.603137 1.7779863,1.120989 -0.018443,0.125654 1.0303591,0.151236 -0.081151,0.552875 z M 3.7125936,20.121824 Q 3.1585408,19.965319 2.9312493,19.601985 2.7051087,19.234577 2.844352,18.741633 2.9835952,18.248689 3.3673915,18.05797 q 0.384947,-0.194792 0.9389999,-0.03829 l 0.6355312,0.17952 q 0.5703485,0.161108 0.7883413,0.526214 0.2191436,0.361033 0.0799,0.853977 -0.1392433,0.492944 -0.5160425,0.690038 -0.3756484,0.19302 -0.9459969,0.03191 z m 1.6087005,-0.680522 q 0.041428,-0.146661 0.024233,-0.257094 -0.021269,-0.111583 -0.089559,-0.196858 -0.068291,-0.08527 -0.1795297,-0.143091 -0.111239,-0.05782 -0.2538261,-0.09809 L 4.1218983,18.548234 Q 3.987459,18.510258 3.86126,18.505403 q -0.1261991,-0.0049 -0.2290129,0.03209 -0.1028138,0.03694 -0.1793193,0.120907 -0.080579,0.08281 -0.1197057,0.221327 -0.039126,0.138514 -0.013784,0.251248 0.021269,0.111583 0.089559,0.196858 0.068291,0.08527 0.1783789,0.147165 0.1100882,0.06189 0.2445275,0.09986 l 0.7007139,0.197932 q 0.1425871,0.04028 0.2676354,0.04921 0.1250482,0.0089 0.2278621,-0.02801 0.1028138,-0.03694 0.1793193,-0.120908 0.072432,-0.08512 0.1138594,-0.231776 z M 4.313296,14.974388 6.0954175,15.73809 q 0.4669314,0.200097 0.6248077,0.562515 0.1595437,0.358527 -0.04889,0.844914 -0.2084339,0.486386 -0.5797465,0.622028 -0.3696452,0.131751 -0.8365766,-0.06835 L 3.4728903,16.9355 3.6929966,16.421875 5.4751181,17.185577 q 0.2412478,0.103384 0.4257928,0.0489 Q 6.0854559,17.18 6.1888392,16.938752 6.2922224,16.697504 6.2043908,16.526301 6.1165591,16.355098 5.8753112,16.251714 L 4.0931898,15.488012 Z M 8.299765,13.949715 8.0151438,14.430598 7.250104,13.977791 q -0.087433,-0.05175 -0.1701097,-0.03673 -0.08052,0.01137 -0.1430508,0.117022 l -0.3277456,0.553743 0.9617644,0.569242 -0.2846212,0.480882 -2.5501329,-1.509354 0.5778673,-0.976337 q 0.1164359,-0.196725 0.2594867,-0.313746 0.1430508,-0.117022 0.299631,-0.157166 0.1550934,-0.04594 0.3127872,-0.02148 0.1598499,0.02082 0.3055718,0.107071 l 0.087433,0.05175 q 0.1566511,0.09272 0.2454937,0.258444 0.0852,0.16357 0.054562,0.381561 l 0.065575,0.03881 q 0.09004,-0.118882 0.2169544,-0.14215 0.1290707,-0.02691 0.2565774,0.04856 z m -2.1495911,0.390424 0.2716839,-0.459024 q 0.1034986,-0.174866 0.077257,-0.313379 -0.029885,-0.14067 -0.1792494,-0.229075 l -0.043717,-0.02587 q -0.1275066,-0.07547 -0.2724883,-0.0383 -0.1486248,0.03501 -0.2521234,0.20988 L 5.4798533,13.943394 Z M 10.887309,9.9371687 10.169096,10.643774 10.511834,11.197373 10.095391,11.607086 8.5210949,8.9988829 9.269485,8.2625878 11.851693,9.8791677 11.435251,10.28888 Z M 9.8795061,10.180414 10.42571,9.6430372 9.1183988,8.8031833 9.0640801,8.8566241 Z M 10.355177,7.2848936 11.935142,6.0895448 12.256967,6.5149199 11.6898,6.9440195 12.834065,8.4564642 13.401232,8.0273646 13.723057,8.4527397 12.143092,9.6480885 11.821268,9.2227134 12.388434,8.7936139 11.244169,7.2811691 10.677002,7.7102687 Z m 5.067271,-3.177099 1.731643,-0.7089044 0.202086,0.4936359 -1.214501,0.4971954 0.256617,0.6268392 1.167488,-0.4779491 0.202086,0.4936358 -1.167488,0.4779492 0.259825,0.6346747 1.261514,-0.5164417 0.202086,0.4936359 -1.778657,0.7281507 z M 20.847414,5.41014 20.307253,5.5532603 20.079561,4.6939139 q -0.02602,-0.098211 -0.09548,-0.1454977 -0.06537,-0.048371 -0.184041,-0.016928 l -0.622003,0.1648053 0.286241,1.0803212 -0.540161,0.1431203 -0.758971,-2.864488 1.096689,-0.2905777 q 0.220975,-0.058549 0.405016,-0.041621 0.184041,0.016928 0.323803,0.098141 0.14277,0.076036 0.238008,0.2040813 0.09933,0.1269608 0.1427,0.2906458 l 0.02602,0.098211 q 0.04662,0.1759614 -0.0063,0.3563998 -0.054,0.1763463 -0.228739,0.3102326 l 0.01952,0.073658 q 0.147561,-0.02158 0.254341,0.050854 0.110873,0.07135 0.148821,0.2145741 z M 19.041419,4.1806858 19.557027,4.0440709 q 0.196422,-0.052044 0.274872,-0.1691767 0.07737,-0.121225 0.03291,-0.2890021 l -0.01301,-0.049106 Q 19.813851,3.3935622 19.684442,3.3183651 19.553948,3.239076 19.357526,3.2911198 l -0.515608,0.1366149 z m 3.794464,0.2919282 -0.999103,0.1300574 -0.06076,0.6482664 -0.579312,0.075411 0.31853,-3.029797 1.041082,-0.135522 1.083573,2.8472794 -0.579312,0.075412 z m -0.950415,-0.4141804 0.759822,-0.098909 -0.535664,-1.4585891 -0.07556,0.00984 z m 6.47016,-0.8650073 q 0.02299,-0.1763074 -0.09857,-0.3245015 -0.117362,-0.1476467 -0.365032,-0.17994 -0.20989,-0.027367 -0.34312,0.044913 -0.132683,0.068083 -0.15184,0.2150058 -0.0099,0.07556 0.01132,0.1423587 0.02172,0.062601 0.08652,0.122279 0.06954,0.056028 0.182152,0.1091338 0.11681,0.053653 0.297134,0.1113187 0.450811,0.1441638 0.668558,0.3732062 0.217747,0.2290424 0.167391,0.6152397 l -0.0066,0.050374 q -0.02682,0.2056921 -0.124274,0.3637517 -0.09271,0.1544092 -0.246562,0.2538852 -0.153853,0.099476 -0.359359,0.1367177 -0.205507,0.037242 -0.453177,0.00495 Q 27.33055,5.1943499 27.118467,5.0855825 26.911128,4.9731647 26.782815,4.8112826 26.655049,4.6452026 26.604667,4.4422518 26.554831,4.2351032 26.584935,4.0042244 l 0.01642,-0.1259339 0.554109,0.072249 -0.01314,0.1007472 q -0.03448,0.2644611 0.09584,0.4436818 0.135066,0.1755702 0.458297,0.2177157 0.251867,0.032841 0.387834,-0.060429 0.135967,-0.09327 0.155672,-0.2443904 0.0093,-0.071363 -0.0077,-0.1376136 Q 28.21587,4.1998028 28.159471,4.1412191 28.10362,4.0784376 27.99995,4.0222286 27.896281,3.9660197 27.732201,3.9147414 27.514643,3.847952 27.337603,3.7650997 27.16111,3.6780496 27.035719,3.5592401 26.914526,3.4409779 26.85867,3.2800051 26.802814,3.1190322 26.831276,2.9007468 l 0.0033,-0.025187 q 0.02354,-0.1805052 0.114603,-0.3223211 0.09581,-0.1454662 0.240722,-0.2418391 0.149108,-0.095825 0.342021,-0.1347092 0.197111,-0.038337 0.42799,-0.00823 0.260263,0.033935 0.451905,0.1357682 0.19219,0.097635 0.310099,0.241084 0.122107,0.1439962 0.167925,0.3164678 0.05002,0.1730189 0.02648,0.3535241 l -0.0197,0.1511207 -0.554109,-0.072249 z M 29.854489,2.5303187 31.916816,3.0771738 31.780102,3.5927554 31.019005,3.3909399 30.396198,5.7397007 29.856065,5.5964767 30.478872,3.2477159 29.717775,3.0459004 Z M 33.287337,6.0955825 32.35498,5.7137036 31.981106,6.2467696 31.440495,6.025344 33.217886,3.5510736 34.189418,3.9489979 33.720461,6.9591824 33.179851,6.7377568 Z M 32.66684,5.2650296 33.375902,5.5554501 33.63301,4.0230295 33.562495,3.9941479 Z M 35.779332,8.1236074 35.29392,7.8467839 35.734321,7.0745362 q 0.05033,-0.088257 0.03398,-0.1706804 -0.01267,-0.080326 -0.119315,-0.1411436 L 35.090028,6.4439457 34.536381,7.4147714 34.050968,7.1379479 35.518972,4.5637888 36.504507,5.1258244 q 0.198578,0.113246 0.317893,0.2543896 0.119315,0.1411436 0.161981,0.2970556 0.04844,0.1543318 0.02652,0.3123998 -0.01824,0.1601652 -0.102126,0.30726 l -0.05033,0.088257 q -0.09018,0.1581269 -0.254449,0.2496326 -0.162174,0.087828 -0.380631,0.060713 l -0.03775,0.066193 q 0.120319,0.08811 0.145632,0.2146322 0.02899,0.1286196 -0.04441,0.2573275 z m -0.425063,-2.1430103 0.463349,0.2642406 q 0.176513,0.1006631 0.314585,0.07219 0.140169,-0.032151 0.226152,-0.182923 l 0.02516,-0.044128 q 0.0734,-0.128708 0.0339,-0.2730709 -0.03741,-0.1480403 -0.213922,-0.2487034 L 35.740144,5.3039609 Z m 2.652383,0.064729 1.701326,1.2875283 L 39.386096,7.7581863 38.758226,7.283027 37.291874,9.2206489 36.846288,8.8834391 38.31264,6.9458172 37.68477,6.4706579 Z m 2.826618,3.5893079 q 0.12471,-0.126729 0.117185,-0.3182534 -0.0045,-0.1885551 -0.182532,-0.3637428 -0.150868,-0.148464 -0.300726,-0.1712087 -0.146889,-0.025762 -0.250814,0.079846 -0.05345,0.054312 -0.07686,0.1203578 -0.02045,0.063028 -0.0048,0.149714 0.02165,0.086638 0.07941,0.1969341 0.06078,0.1132654 0.169789,0.2680527 0.272524,0.3869681 0.307974,0.7010026 0.03545,0.314034 -0.237723,0.591631 l -0.03563,0.03621 q -0.145495,0.147851 -0.318578,0.215098 -0.167097,0.0672 -0.34981,0.0537 -0.182713,-0.0135 -0.369068,-0.107797 -0.186355,-0.0943 -0.364379,-0.269483 -0.208198,-0.20488 -0.311701,-0.419582 -0.09752,-0.21475 -0.102169,-0.4212651 -0.0017,-0.2095323 0.08059,-0.4017778 0.08524,-0.1952629 0.248554,-0.3612176 l 0.08908,-0.090521 0.398291,0.3919452 -0.07126,0.072417 q -0.187065,0.1900935 -0.191273,0.4116472 0.0018,0.2215052 0.234116,0.4501402 0.181041,0.178157 0.345746,0.185815 0.164705,0.0077 0.271599,-0.100967 0.05048,-0.0513 0.07691,-0.114371 0.0294,-0.06609 0.01978,-0.146841 -0.0067,-0.08376 -0.05542,-0.19114 -0.04876,-0.1073748 -0.148668,-0.2472676 -0.133196,-0.1845281 -0.22439,-0.3574195 -0.08822,-0.1759088 -0.116535,-0.3463117 -0.02529,-0.1674336 0.02729,-0.3295055 0.05258,-0.1620719 0.206985,-0.3189745 l 0.01782,-0.018104 q 0.12768,-0.1297464 0.285869,-0.1878934 0.164176,-0.058195 0.337884,-0.047616 0.176726,0.013548 0.354029,0.098936 0.180321,0.088357 0.346275,0.2516678 0.187076,0.1840955 0.278463,0.3809334 0.09436,0.1938206 0.101832,0.3793584 0.01049,0.188507 -0.05703,0.3536925 -0.06451,0.1681547 -0.192186,0.2979011 L 41.160299,10.098996 40.762008,9.7070508 Z m 3.400831,2.7780888 0.284583,0.480904 -1.041959,0.616598 0.487241,0.823367 1.04196,-0.616598 0.284584,0.480905 -2.550251,1.509155 -0.284584,-0.480905 1.049246,-0.620909 -0.487241,-0.823367 -1.049247,0.62091 -0.284583,-0.480905 z m 1.499877,2.671844 0.73692,1.719907 -0.49029,0.210073 -0.516845,-1.20627 -0.622591,0.266758 0.496838,1.159576 -0.49029,0.210073 -0.496838,-1.159576 -0.630373,0.270093 0.536851,1.252964 -0.49029,0.210073 -0.756928,-1.766602 z m -1.214194,5.445022 -0.15188,-0.537763 0.855532,-0.241627 q 0.09777,-0.02761 0.143927,-0.09784 0.0473,-0.06615 0.01394,-0.184291 l -0.174893,-0.619243 -1.075526,0.30376 -0.15188,-0.537763 2.851775,-0.805425 0.308362,1.091823 q 0.06213,0.219994 0.0482,0.404286 -0.01393,0.184291 -0.09287,0.325355 -0.07371,0.143986 -0.200186,0.241293 -0.12533,0.101381 -0.288288,0.147405 l -0.09777,0.02761 q -0.175181,0.04948 -0.356456,-5.02e-4 -0.1772,-0.05113 -0.313909,-0.223667 l -0.07333,0.02071 q 0.02398,0.147191 -0.04671,0.255134 -0.06954,0.112017 -0.212127,0.152288 z m 1.199941,-1.825736 0.144976,0.513319 q 0.05523,0.195551 0.173622,0.272086 0.122466,0.07539 0.289499,0.02821 l 0.04889,-0.01381 q 0.142589,-0.04027 0.215673,-0.170885 0.07716,-0.131765 0.02193,-0.327315 l -0.144977,-0.51332 z m 1.86255,2.023593 0.271693,1.851302 -0.527746,0.07745 -0.190554,-1.298424 -0.670155,0.09835 0.183178,1.248163 -0.527746,0.07745 -0.183178,-1.248163 -0.678531,0.09958 0.19793,1.348686 -0.527747,0.07745 -0.279069,-1.901563 z"
       id="text5"
       inkscape:label="text-YOUR_AI_ERA_STARTS_HERE"
       aria-label="YOUR AI ERA STARTS HERE" />
    <path
       style="fill:none;fill-opacity:1;stroke:none;stroke-width:1;stroke-dasharray:none;stroke-opacity:1"
       id="path2"
       sodipodi:type="arc"
       sodipodi:cx="25"
       sodipodi:cy="25"
       sodipodi:rx="20"
       sodipodi:ry="20"
       sodipodi:start="3.1415927"
       sodipodi:end="0"
       sodipodi:arc-type="arc"
       d="M 5,25 A 20,20 0 0 1 25,5 20,20 0 0 1 45,25"
       sodipodi:open="true"
       inkscape:label="top-text-path" />
    <path
       style="font-weight:bold;font-size:4.7625px;font-family:'Space Mono';-inkscape-font-specification:'Space Mono Bold';text-align:center;letter-spacing:0.0370417px;word-spacing:0px;text-anchor:middle;white-space:pre;fill:#ffffff;stroke:#080809;stroke-width:0.1;stroke-linecap:round;fill-opacity:1"
       d="M 8.2419608,35.347345 8.6007261,35.86357 6.3559294,37.423656 7.2202276,38.667289 6.7274673,39.009746 5.5044039,37.249888 Z M 7.672431,39.278682 8.2093833,39.871845 9.1132506,39.053632 8.6146521,38.502837 9.0383398,38.1193 l 0.9013128,0.995666 -1.3275551,1.201751 0.4602448,0.508425 -0.4236878,0.383537 -1.3999112,-1.54646 z m 2.88532,-0.524096 q -0.07062,0.06392 -0.159737,0.09321 -0.0824,0.02962 -0.169845,0.02527 -0.08392,-0.0075 -0.169695,-0.04553 -0.07905,-0.03765 -0.1397766,-0.104733 -0.063923,-0.07061 -0.093542,-0.15301 -0.026089,-0.08559 -0.02527,-0.169845 0.00435,-0.08745 0.038803,-0.17003 0.04118,-0.08225 0.1117947,-0.146168 0.070615,-0.06392 0.1530099,-0.09354 0.08912,-0.02929 0.173041,-0.02174 0.08745,0.0043 0.166499,0.042 0.08258,0.03445 0.146503,0.105068 0.06073,0.06708 0.08682,0.152675 0.03282,0.08593 0.02847,0.173376 -8.19e-4,0.08425 -0.042,0.166499 -0.03445,0.08258 -0.105067,0.146503 z m 0.1644,1.191652 0.532403,0.454609 0.630886,-0.738844 0.456346,0.389665 -0.630887,0.738845 0.6483,0.553572 -0.371109,0.434614 -0.648301,-0.553572 -0.698923,0.818524 q -0.09278,0.108654 0.005,0.192154 l 0.48532,0.414405 -0.37111,0.434615 -0.7605755,-0.649442 q -0.1231408,-0.105148 -0.1347834,-0.252864 -0.00802,-0.144623 0.097127,-0.267764 l 0.9215889,-1.079293 -0.532403,-0.454609 z m 2.030568,1.704625 0.586213,0.382722 0.531125,-0.813521 0.502469,0.328048 -0.531125,0.813521 0.713825,0.466035 -0.312426,0.478542 -0.713825,-0.466036 -0.588403,0.901254 q -0.07811,0.119635 0.02957,0.189931 l 0.534371,0.348876 -0.312426,0.478541 -0.837448,-0.546745 q -0.135587,-0.08852 -0.166041,-0.233532 -0.02647,-0.142407 0.06205,-0.277994 l 0.775858,-1.188378 -0.586213,-0.382722 z m 1.500276,3.065876 0.746164,0.360474 0.952978,-1.972617 -0.720435,-0.348044 0.248603,-0.514596 1.26076,0.609077 -1.20158,2.487213 0.694704,0.335614 -0.248602,0.514596 -1.981194,-0.957121 z m 3.258227,0.992004 q -0.02861,0.100906 -0.01655,0.200303 0.01808,0.09639 0.06929,0.183732 0.05724,0.08433 0.140071,0.152101 0.08886,0.06475 0.197297,0.100891 0.212355,0.07077 0.349402,0.03612 0.138553,-0.03917 0.222885,-0.126521 l 0.397621,0.433712 q -0.06927,0.07229 -0.173185,0.143085 -0.102406,0.06627 -0.245477,0.103932 -0.138552,0.03916 -0.322289,0.03315 -0.179218,-0.0045 -0.40061,-0.07829 -0.253019,-0.08432 -0.433753,-0.234914 -0.180734,-0.150591 -0.283158,-0.355406 -0.0979,-0.203308 -0.109969,-0.453309 -0.0075,-0.248495 0.08581,-0.528624 l 0.009,-0.02711 q 0.08583,-0.257537 0.242444,-0.441284 0.161134,-0.18224 0.364442,-0.280145 0.203308,-0.09791 0.433731,-0.111475 0.236446,-0.01658 0.471393,0.06172 0.289165,0.09637 0.46237,0.269551 0.17471,0.168665 0.257555,0.371974 0.08435,0.198791 0.08436,0.409636 0.0015,0.206327 -0.0572,0.382536 l -0.100885,0.30272 z m 0.822252,-0.674756 q -0.216874,-0.07228 -0.390064,-0.0045 -0.171684,0.06327 -0.260531,0.194296 l 1.057259,0.352344 q 0.02559,-0.167172 -0.08436,-0.319274 -0.105432,-0.150597 -0.322305,-0.222872 z m 2.012338,1.210296 -0.241568,1.233875 -0.616937,-0.120784 0.640519,-3.271639 1.280613,0.250718 q 0.252384,0.04941 0.422864,0.17014 0.171395,0.116055 0.266378,0.275386 0.100571,0.155571 0.127474,0.340396 0.03249,0.181066 -0.0023,0.358669 l -0.02196,0.112171 q -0.03569,0.182277 -0.13589,0.34707 -0.09461,0.161034 -0.248258,0.276541 -0.148054,0.111749 -0.351475,0.159275 -0.203421,0.04753 -0.455805,-0.0019 z m 0.115293,-0.588895 0.602917,0.118038 q 0.205646,0.04026 0.34445,-0.04903 0.143479,-0.08838 0.17825,-0.265983 l 0.01098,-0.05609 q 0.03477,-0.177603 -0.06479,-0.313564 -0.09488,-0.135046 -0.300529,-0.175307 L 20.62947,44.795414 Z m 3.509616,1.982652 q -0.109584,0.21718 -0.286858,0.301096 -0.176964,0.07916 -0.405081,0.06432 -0.21386,-0.01392 -0.398701,-0.107079 -0.180088,-0.09285 -0.312456,-0.258961 -0.132368,-0.166108 -0.203377,-0.39504 -0.06626,-0.228622 -0.0477,-0.513769 l 0.0049,-0.07604 q 0.01825,-0.280394 0.113573,-0.498502 0.09533,-0.218107 0.243353,-0.36597 0.148027,-0.147862 0.333877,-0.216902 0.190912,-0.07348 0.40002,-0.05988 0.25188,0.01639 0.398391,0.111831 0.151264,0.09575 0.229809,0.282219 l 0.08554,0.0056 0.01856,-0.285147 0.598808,0.03897 -0.107003,1.644347 q -0.0093,0.142573 0.119039,0.150923 l 0.0903,0.0059 -0.03711,0.570294 -0.40871,-0.0266 q -0.161583,-0.01052 -0.259952,-0.112367 -0.09362,-0.101544 -0.08372,-0.253622 z m -0.52176,-0.19622 q 0.261385,0.01701 0.429349,-0.143873 0.168273,-0.165635 0.187756,-0.46504 l 0.0037,-0.05703 q 0.01948,-0.299404 -0.126215,-0.480698 -0.145388,-0.186046 -0.406773,-0.203055 -0.261384,-0.01701 -0.429658,0.148626 -0.167964,0.160883 -0.187447,0.460287 l -0.0037,0.05703 q -0.01948,0.299404 0.125905,0.48545 0.145698,0.181294 0.407082,0.198303 z m 1.660259,-1.769441 0.998117,-0.06334 0.02172,0.342212 0.08555,-0.0054 q 0.05418,-0.199093 0.204387,-0.31361 0.154663,-0.119572 0.378051,-0.133748 0.351718,-0.02232 0.579775,0.187498 0.227756,0.205063 0.256409,0.656592 l 0.0066,0.104565 -0.614263,0.09624 -0.0042,-0.06654 q -0.01237,-0.19487 -0.119415,-0.302607 -0.107352,-0.11249 -0.306976,-0.09982 -0.199623,0.01267 -0.304947,0.157741 -0.105324,0.145074 -0.08904,0.401733 l 0.04826,0.76047 0.541836,-0.03438 0.03619,0.570352 -1.625506,0.103148 -0.03619,-0.570353 0.4848,-0.03076 -0.07721,-1.216753 -0.427765,0.02714 z m 2.645169,-0.184028 0.9818,-0.190575 0.06534,0.336617 0.08416,-0.01634 q 0.02825,-0.20439 0.162563,-0.337192 0.138086,-0.138386 0.357822,-0.181038 0.345968,-0.06715 0.599006,0.111744 0.252131,0.174223 0.338343,0.618371 l 0.01996,0.102855 -0.596891,0.174078 -0.01271,-0.06545 q -0.03721,-0.191684 -0.157167,-0.284833 -0.120868,-0.09782 -0.317228,-0.05971 -0.19636,0.03812 -0.282248,0.195477 -0.08589,0.157362 -0.03688,0.409824 l 0.145199,0.748039 0.532977,-0.103455 0.1089,0.561028 -1.598931,0.310365 -0.1089,-0.561029 0.476874,-0.09256 -0.232319,-1.196861 -0.420772,0.08168 z m 5.285987,-0.137078 q 0.0929,0.280278 0.0699,0.528736 -0.0245,0.243937 -0.137798,0.447062 -0.114791,0.198605 -0.301787,0.345883 -0.182474,0.14578 -0.413026,0.222202 -0.230552,0.07642 -0.468495,0.07 -0.233422,-0.0079 -0.444115,-0.09864 -0.212192,-0.09524 -0.377553,-0.276237 -0.166859,-0.185522 -0.259764,-0.465801 l -0.01798,-0.05425 q -0.09141,-0.275758 -0.0669,-0.519695 0.02301,-0.248457 0.1363,-0.451583 0.113293,-0.203125 0.295767,-0.348905 0.186996,-0.147278 0.417547,-0.2237 0.230552,-0.07642 0.463974,-0.0685 0.237943,0.0064 0.450135,0.101659 0.212192,0.09524 0.379051,0.280757 0.165361,0.181002 0.256767,0.45676 z m -0.962529,1.001408 q 0.122057,-0.04046 0.217066,-0.117107 0.09501,-0.07665 0.150906,-0.180472 0.0559,-0.103822 0.06514,-0.227302 0.01226,-0.129499 -0.03419,-0.269638 l -0.02997,-0.09041 q -0.04645,-0.140139 -0.132142,-0.232151 -0.08267,-0.09803 -0.189513,-0.147909 -0.106845,-0.04988 -0.228826,-0.0546 -0.121981,-0.0047 -0.244038,0.03574 -0.122057,0.04046 -0.217065,0.117108 -0.09501,0.07665 -0.150906,0.180471 -0.0559,0.103823 -0.06816,0.233322 -0.0092,0.123479 0.03721,0.263619 l 0.02997,0.09041 q 0.04645,0.140139 0.12912,0.23817 0.08569,0.09201 0.192535,0.14189 0.106845,0.04988 0.228826,0.0546 0.121982,0.0047 0.244038,-0.03574 z m 0.831088,-2.255668 0.63087,-0.303523 -0.421215,-0.875492 0.540745,-0.260163 0.421215,0.875493 0.768202,-0.369596 0.247774,0.514996 -0.768202,0.369595 0.46664,0.969909 q 0.06194,0.128749 0.177818,0.073 l 0.575078,-0.276681 0.247774,0.514996 -0.901243,0.433604 q -0.145915,0.0702 -0.285756,0.02121 -0.13555,-0.05105 -0.205752,-0.196971 l -0.615304,-1.278905 -0.63087,0.303522 z m 4.802492,-0.387974 q 0.05194,0.07984 0.06676,0.172474 0.01621,0.08604 -0.0019,0.171704 -0.02073,0.08167 -0.07441,0.156359 -0.04709,0.07609 -0.122936,0.125433 -0.07984,0.05194 -0.168483,0.06416 -0.08604,0.01621 -0.169106,0.0021 -0.08566,-0.01813 -0.161747,-0.06522 -0.07469,-0.05368 -0.126635,-0.133517 -0.05194,-0.07984 -0.06815,-0.165885 -0.01481,-0.09263 0.0059,-0.174301 0.01813,-0.08566 0.06782,-0.157755 0.04709,-0.07609 0.126929,-0.128029 0.07585,-0.04935 0.16449,-0.06156 0.09004,-0.0188 0.175696,-6.7e-4 0.08306,0.01414 0.157754,0.06782 0.07609,0.04709 0.12803,0.126928 z m 2.310724,-1.742147 q 0.07254,0.232192 0.0037,0.41585 -0.07191,0.180032 -0.246,0.328195 -0.163204,0.138904 -0.360749,0.200718 -0.193919,0.05873 -0.404584,0.03165 -0.210666,-0.02708 -0.421024,-0.141978 -0.206732,-0.117983 -0.391937,-0.335589 l -0.04939,-0.05803 q -0.182118,-0.21398 -0.26554,-0.436912 -0.08342,-0.222933 -0.08011,-0.432131 0.0033,-0.209199 0.08866,-0.38815 0.08588,-0.185665 0.24546,-0.321482 0.192219,-0.163597 0.363837,-0.197091 0.175244,-0.03658 0.361449,0.04259 l 0.06528,-0.05556 -0.185205,-0.217606 0.456973,-0.38893 1.068013,1.254861 q 0.0926,0.108803 0.190525,0.02546 l 0.06891,-0.05865 0.370409,0.435212 -0.311901,0.26546 q -0.12331,0.104949 -0.264834,0.100322 -0.137897,-0.0077 -0.236673,-0.12377 z m -0.511146,0.222405 q 0.199472,-0.169771 0.208032,-0.402197 0.0055,-0.236053 -0.188991,-0.464539 l -0.03704,-0.04352 q -0.194465,-0.228486 -0.425271,-0.257188 -0.233892,-0.03233 -0.433364,0.137444 -0.199473,0.16977 -0.204946,0.405823 -0.0086,0.232426 0.185904,0.460912 l 0.03704,0.04352 q 0.194465,0.228486 0.428358,0.260814 0.230806,0.0287 0.430278,-0.14107 z m 2.810698,-0.634767 -0.40343,0.444223 -2.453803,-2.228472 0.40343,-0.444223 0.253842,0.230532 0.05763,-0.06346 q -0.08051,-0.201786 -0.03641,-0.406198 0.04058,-0.207614 0.229489,-0.415624 0.14088,-0.155125 0.325686,-0.238192 0.188008,-0.08659 0.397205,-0.08317 0.208874,-0.0033 0.429007,0.08724 0.223335,0.08702 0.43487,0.279135 l 0.06346,0.05763 q 0.215061,0.195311 0.326332,0.405732 0.111271,0.210421 0.134762,0.418323 0.01997,0.2047 -0.04817,0.400154 -0.06846,0.188727 -0.215746,0.350904 -0.108862,0.11987 -0.213587,0.185596 -0.104724,0.06573 -0.207866,0.09429 -0.09994,0.02504 -0.194447,0.02284 -0.09483,-0.0089 -0.183583,-0.03162 l -0.05763,0.06346 z m -0.656186,-1.445136 q 0.188908,-0.208009 0.177253,-0.450195 -0.01198,-0.248914 -0.234091,-0.45063 l -0.04231,-0.03842 q -0.222111,-0.201716 -0.4675,-0.186535 -0.245712,0.0085 -0.43462,0.216462 -0.188907,0.20801 -0.173403,0.460125 0.01518,0.245389 0.230241,0.4407 l 0.04231,0.03842 q 0.21506,0.195312 0.464298,0.19006 0.248914,-0.01198 0.437822,-0.219988 z m 2.632681,-0.908223 -0.343251,0.492208 -2.718863,-1.896053 0.343251,-0.492208 0.281262,0.196143 0.04904,-0.07032 q -0.105679,-0.189821 -0.0881,-0.398198 0.01367,-0.2111 0.174401,-0.441579 0.119866,-0.171882 0.292519,-0.27792 0.175378,-0.109945 0.383291,-0.133332 0.206732,-0.03002 0.436645,0.03161 0.232637,0.05772 0.467022,0.221176 l 0.07032,0.04904 q 0.238291,0.166177 0.375581,0.360624 0.137289,0.194447 0.187199,0.397632 0.046,0.200461 0.0034,0.403029 -0.04374,0.195937 -0.169055,0.375632 -0.09262,0.132818 -0.188074,0.211409 -0.09545,0.07859 -0.194087,0.120122 -0.09591,0.03762 -0.189924,0.04754 -0.09519,0.0033 -0.18612,-0.0079 l -0.04904,0.07032 z m -0.835766,-1.349256 q 0.160729,-0.230479 0.11817,-0.469181 -0.04374,-0.245334 -0.289846,-0.416959 l -0.04688,-0.03269 q -0.246104,-0.171625 -0.48753,-0.12516 -0.242609,0.03984 -0.403338,0.270314 -0.160729,0.230478 -0.113081,0.478536 0.04647,0.241426 0.284757,0.407603 l 0.04688,0.03269 q 0.238291,0.166177 0.484806,0.129066 0.245334,-0.04374 0.406062,-0.274219 z"
       id="text1"
       inkscape:label="text-LittleParrot.app"
       aria-label="LittleParrot.app" />
    <path
       style="fill:none;stroke:none;stroke-width:4.28212"
       id="path3"
       d="m -2,25 a 23,23 0 0 1 -11.5,19.918584 23,23 0 0 1 -23.000001,0 A 23,23 0 0 1 -48,25"
       sodipodi:type="arc"
       sodipodi:arc-type="arc"
       sodipodi:open="true"
       sodipodi:start="0"
       sodipodi:end="3.1415927"
       sodipodi:ry="23"
       sodipodi:rx="23"
       sodipodi:cy="25"
       sodipodi:cx="-25"
       transform="scale(-1,1)"
       inkscape:label="bottom-text-path" />
    <g
       id="g14"
       transform="matrix(0.08976775,0,0,0.08976775,-34.944506,-142.61463)"
       inkscape:label="little-parrot-normal">
      <g
         id="path9"
         inkscape:label="parrot-outline"
         transform="matrix(-0.99376792,0.11146893,0.11146893,0.99376792,0,0)">
        <g
           id="path16" />
      </g>
      <g
         id="g11"
         inkscape:label="leg-back"
         transform="translate(286.01242,1.2996501e-5)" />
      <g
         id="g13"
         inkscape:label="leg-front"
         transform="translate(286.01242)" />
    </g>
  </g>
</svg>
