<?xml version="1.0" encoding="UTF-8" standalone="no"?>
<!-- Created with Inkscape (http://www.inkscape.org/) -->

<svg
   width="1080"
   height="1350"
   viewBox="0 0 285.74999 357.1875"
   version="1.1"
   id="svg1"
   inkscape:version="1.4.2 (ebf0e940, 2025-05-08)"
   sodipodi:docname="panel-02.svg"
   xmlns:inkscape="http://www.inkscape.org/namespaces/inkscape"
   xmlns:sodipodi="http://sodipodi.sourceforge.net/DTD/sodipodi-0.dtd"
   xmlns="http://www.w3.org/2000/svg"
   xmlns:svg="http://www.w3.org/2000/svg">
  <sodipodi:namedview
     id="namedview1"
     pagecolor="#ffffff"
     bordercolor="#000000"
     borderopacity="0.25"
     inkscape:showpageshadow="2"
     inkscape:pageopacity="0.0"
     inkscape:pagecheckerboard="0"
     inkscape:deskcolor="#d1d1d1"
     inkscape:document-units="px"
     inkscape:zoom="0.42904704"
     inkscape:cx="354.27351"
     inkscape:cy="661.93208"
     inkscape:window-width="1712"
     inkscape:window-height="965"
     inkscape:window-x="0"
     inkscape:window-y="39"
     inkscape:window-maximized="0"
     inkscape:current-layer="layer1"
     showguides="false">
    <sodipodi:guide
       position="-39.692685,26.570778"
       orientation="0,-1"
       id="guide1"
       inkscape:locked="false" />
  </sodipodi:namedview>
  <defs
     id="defs1">
    <rect
       x="337.60629"
       y="293.08679"
       width="868.13049"
       height="871.84045"
       id="rect26" />
    <rect
       x="358.01108"
       y="335.75131"
       width="877.4054"
       height="734.57196"
       id="rect25" />
    <rect
       x="418.44797"
       y="244.75258"
       width="748.0744"
       height="801.36731"
       id="rect16" />
    <clipPath
       clipPathUnits="userSpaceOnUse"
       id="clipPath32">
      <rect
         style="fill:none;fill-opacity:1;fill-rule:nonzero;stroke:#370188;stroke-width:3.175;stroke-dasharray:none;stroke-opacity:1"
         id="rect33"
         width="282.57498"
         height="354.01248"
         x="1.5875"
         y="15.875003" />
    </clipPath>
    <clipPath
       clipPathUnits="userSpaceOnUse"
       id="clipPath33">
      <rect
         style="fill:none;fill-opacity:1;fill-rule:nonzero;stroke:#370188;stroke-width:3.175;stroke-dasharray:none;stroke-opacity:1"
         id="rect34"
         width="282.57498"
         height="354.01248"
         x="1.5875"
         y="15.875003"
         transform="scale(-1,1)" />
    </clipPath>
    <clipPath
       clipPathUnits="userSpaceOnUse"
       id="clipPath34">
      <rect
         style="fill:none;fill-opacity:1;fill-rule:nonzero;stroke:#370188;stroke-width:3.175;stroke-dasharray:none;stroke-opacity:1"
         id="rect35"
         width="282.57498"
         height="354.01248"
         x="1.5875"
         y="15.875003" />
    </clipPath>
    <clipPath
       clipPathUnits="userSpaceOnUse"
       id="clipPath35">
      <rect
         style="fill:none;fill-opacity:1;fill-rule:nonzero;stroke:#370188;stroke-width:3.175;stroke-dasharray:none;stroke-opacity:1"
         id="rect36"
         width="282.57498"
         height="354.01248"
         x="1.5875"
         y="15.875003" />
    </clipPath>
    <clipPath
       clipPathUnits="userSpaceOnUse"
       id="clipPath1">
      <rect
         style="fill:none;fill-opacity:1;fill-rule:nonzero;stroke:#370188;stroke-width:0.695287;stroke-dasharray:none;stroke-opacity:1"
         id="rect2"
         width="61.880581"
         height="77.524551"
         x="-167.02388"
         y="-16.952217"
         transform="scale(-1,1)" />
    </clipPath>
    <clipPath
       clipPathUnits="userSpaceOnUse"
       id="clipPath2">
      <rect
         style="fill:none;fill-opacity:1;fill-rule:nonzero;stroke:#370188;stroke-width:3.175;stroke-dasharray:none;stroke-opacity:1"
         id="rect3"
         width="282.57498"
         height="354.01248"
         x="1.5875"
         y="1.5875" />
    </clipPath>
    <clipPath
       clipPathUnits="userSpaceOnUse"
       id="clipPath3">
      <rect
         style="fill:none;fill-opacity:1;fill-rule:nonzero;stroke:#370188;stroke-width:3.175;stroke-dasharray:none;stroke-opacity:1"
         id="rect4"
         width="282.57498"
         height="354.01248"
         x="-61.912533"
         y="1.5875" />
    </clipPath>
    <clipPath
       clipPathUnits="userSpaceOnUse"
       id="clipPath6">
      <rect
         style="fill:none;fill-opacity:1;fill-rule:nonzero;stroke:#370188;stroke-width:3.175;stroke-dasharray:none;stroke-opacity:1"
         id="rect6"
         width="282.57498"
         height="354.01248"
         x="-166.95877"
         y="-51.58847"
         transform="rotate(-22.343004)" />
    </clipPath>
    <clipPath
       clipPathUnits="userSpaceOnUse"
       id="clipPath5">
      <rect
         style="fill:none;fill-opacity:1;fill-rule:nonzero;stroke:#370188;stroke-width:3.175;stroke-dasharray:none;stroke-opacity:1"
         id="rect5"
         width="282.57498"
         height="354.01248"
         x="1.5875"
         y="1.5875" />
    </clipPath>
    <clipPath
       clipPathUnits="userSpaceOnUse"
       id="clipPath10">
      <rect
         style="fill:none;fill-opacity:1;fill-rule:nonzero;stroke:#370188;stroke-width:3.175;stroke-dasharray:none;stroke-opacity:1"
         id="rect10"
         width="282.57498"
         height="354.01248"
         x="123.64077"
         y="-18.538305" />
    </clipPath>
    <clipPath
       clipPathUnits="userSpaceOnUse"
       id="clipPath6-6">
      <rect
         style="fill:none;fill-opacity:1;fill-rule:nonzero;stroke:#370188;stroke-width:3.175;stroke-dasharray:none;stroke-opacity:1"
         id="rect6-2"
         width="282.57498"
         height="354.01248"
         x="-166.95877"
         y="-51.58847"
         transform="rotate(-22.343004)" />
    </clipPath>
    <clipPath
       clipPathUnits="userSpaceOnUse"
       id="clipPath11">
      <rect
         style="fill:none;fill-opacity:1;fill-rule:nonzero;stroke:#370188;stroke-width:3.175;stroke-dasharray:none;stroke-opacity:1"
         id="rect11"
         width="282.57498"
         height="354.01248"
         x="-113.73105"
         y="22.554508" />
    </clipPath>
  </defs>
  <g
     inkscape:label="Layer 1"
     inkscape:groupmode="layer"
     id="layer1">
    <text
       xml:space="preserve"
       transform="scale(0.26458333)"
       id="text16"
       style="font-style:normal;font-variant:normal;font-weight:bold;font-stretch:normal;font-size:60px;font-family:'Josefin Slab';-inkscape-font-specification:'Josefin Slab Bold';text-align:start;letter-spacing:0px;word-spacing:0px;writing-mode:lr-tb;direction:ltr;white-space:pre;shape-inside:url(#rect16);display:inline;fill:#000000;fill-opacity:0;stroke:#370188;stroke-width:12;stroke-opacity:1" />
    <text
       xml:space="preserve"
       transform="scale(0.26458333)"
       id="text25"
       style="font-style:normal;font-variant:normal;font-weight:bold;font-stretch:normal;font-size:60px;font-family:'Josefin Slab';-inkscape-font-specification:'Josefin Slab Bold';text-align:start;letter-spacing:0px;word-spacing:0px;writing-mode:lr-tb;direction:ltr;white-space:pre;shape-inside:url(#rect25);display:inline;fill:#000000;fill-opacity:0;stroke:#370188;stroke-width:12;stroke-opacity:1" />
    <text
       xml:space="preserve"
       transform="scale(0.26458333)"
       id="text26"
       style="font-style:normal;font-variant:normal;font-weight:bold;font-stretch:normal;font-size:60px;font-family:'Josefin Slab';-inkscape-font-specification:'Josefin Slab Bold';text-align:start;letter-spacing:0px;word-spacing:0px;writing-mode:lr-tb;direction:ltr;white-space:pre;shape-inside:url(#rect26);display:inline;fill:#000000;fill-opacity:0;stroke:#370188;stroke-width:12;stroke-opacity:1" />
    <rect
       width="9.8019896"
       height="15.875"
       rx="0"
       ry="0"
       fill="#6002ee"
       stroke-width="0"
       id="rect1-3-4-39-4-2-0-5-6"
       x="247.60098"
       y="332.84583" />
    <text
       font-family="Montserrat"
       font-size="618.11px"
       font-weight="200"
       stroke-width="0"
       fill="#33333"
       id="text3-0-3-0-0-5-3-3-2"
       x="248.33717"
       y="345.42685"
       style="font-style:normal;font-variant:normal;font-weight:300;font-stretch:normal;font-size:13.0774px;font-family:Montserrat;-inkscape-font-specification:'Montserrat Light'"
       transform="scale(0.99938968,1.0006107)"><tspan
         y="345.42685"
         font-weight="200"
         stroke-width="0"
         id="tspan1-4-8-6-2-1-2-5-9"
         style="font-style:normal;font-variant:normal;font-weight:300;font-stretch:normal;font-size:13.0774px;font-family:Montserrat;-inkscape-font-specification:'Montserrat Light'"><tspan
           style="font-style:normal;font-variant:normal;font-weight:300;font-stretch:normal;font-size:13.0774px;font-family:Montserrat;-inkscape-font-specification:'Montserrat Light';fill:#ffffff;fill-opacity:1;stroke-width:0"
           id="tspan3-6-3-13-5-2-1-6-6">k</tspan></tspan></text>
    <text
       dx="0"
       dy="0"
       font-family="Montserrat"
       font-size="465.256px"
       font-weight="200"
       stroke-width="0"
       fill="#33333"
       id="text3-0-3-6-8-4-0-8-9"
       x="195.17656"
       y="345.42685"
       style="font-style:normal;font-variant:normal;font-weight:300;font-stretch:normal;font-size:13.0774px;font-family:Montserrat;-inkscape-font-specification:'Montserrat Light'"
       transform="scale(0.99938968,1.0006107)"><tspan
         y="345.42685"
         font-weight="200"
         stroke-width="0"
         id="tspan1-4-8-3-9-0-0-6-9"
         style="font-style:normal;font-variant:normal;font-weight:300;font-stretch:normal;font-size:13.0774px;font-family:Montserrat;-inkscape-font-specification:'Montserrat Light'">product</tspan></text>
    <text
       font-family="Montserrat"
       font-size="465.256px"
       font-weight="200"
       stroke-width="0"
       fill="#33333"
       id="text3-0-3-6-4-3-4-3-7-8"
       x="257.78415"
       y="345.42685"
       style="font-style:normal;font-variant:normal;font-weight:300;font-stretch:normal;font-size:13.0774px;font-family:Montserrat;-inkscape-font-specification:'Montserrat Light'"
       transform="scale(0.99938968,1.0006107)"><tspan
         y="345.42685"
         font-weight="200"
         stroke-width="0"
         id="tspan1-4-8-3-6-9-9-9-7-0"
         style="font-style:normal;font-variant:normal;font-weight:300;font-stretch:normal;font-size:13.0774px;font-family:Montserrat;-inkscape-font-specification:'Montserrat Light'">ind</tspan></text>
    <path
       style="fill:none;fill-opacity:1;stroke:#370188;stroke-width:1.5875;stroke-linecap:round;stroke-dasharray:none;stroke-opacity:1"
       d="M 133.53296,173.05856 C 109.37803,167.23704 101.54397,141.85061 97.410866,111.38741 93.775883,84.595607 66.373599,61.243601 71.570377,46.074443"
       id="path13-1-4"
       sodipodi:nodetypes="csc" />
    <path
       style="fill:none;fill-opacity:1;stroke:#370188;stroke-width:1.5875;stroke-linecap:round;stroke-dasharray:none;stroke-opacity:1"
       d="m 234.77754,220.35612 c 1.4145,-34.75787 -34.48291,-58.08697 -29.27871,-89.36684"
       id="path13-1-4-5"
       sodipodi:nodetypes="cc" />
    <g
       id="g4"
       transform="translate(-199.64181,-16.674227)">
      <path
         style="fill:#b98bfe;fill-opacity:1;fill-rule:nonzero;stroke:#370188;stroke-width:3.175;stroke-dasharray:none;stroke-opacity:1"
         d="m 395.56148,297.92227 c 14.38475,-0.25686 19.43242,-7.842 21.83396,-15.15534 3.22393,-9.8177 7.98583,-11.95542 12.58662,-3.08245 3.5962,6.9355 7.963,2.05497 5.13744,-2.05496 -2.82559,-4.10992 -6.39569,-10.61688 -14.8985,-8.21985 -8.74874,2.46636 -4.88054,24.14581 -25.43013,23.63207"
         id="path68"
         sodipodi:nodetypes="cssssc" />
      <path
         style="fill:#b98bfe;fill-opacity:1;fill-rule:nonzero;stroke:#370188;stroke-width:3.175;stroke-dasharray:none;stroke-opacity:1"
         d="m 404.45478,249.49789 c 16.19634,5.3238 13.8764,14.98207 -2.92418,11.09709"
         id="path61-9"
         sodipodi:nodetypes="cc" />
      <path
         style="fill:#b98bfe;fill-opacity:1;fill-rule:nonzero;stroke:#370188;stroke-width:3.175;stroke-dasharray:none;stroke-opacity:1"
         d="m 334.31436,249.91655 c -16.19634,5.3238 -13.8764,14.98207 2.92418,11.0971"
         id="path61"
         sodipodi:nodetypes="cc" />
      <path
         style="fill:#b98bfe;fill-opacity:1;fill-rule:nonzero;stroke:#370188;stroke-width:3.175;stroke-dasharray:none;stroke-opacity:1"
         d="m 351.66361,234.76319 c -25.53268,-25.40051 -6.65648,-52.88401 18.84147,-51.92556 25.11596,0.9441 40.3705,29.17676 17.00911,51.85551 3.85425,24.96866 10.0803,70.52398 10.6311,104.67395 -1.63141,9.34331 -16.16078,8.97821 -17.23815,-1.43651 -1.07741,-10.41472 -14.01283,-11.94105 -14.57938,-0.16732 -0.50343,10.462 -17.31089,10.41553 -17.74219,-0.1918 -2.53707,-17.45115 1.06293,-77.48945 3.07804,-102.80824 z"
         id="path49"
         sodipodi:nodetypes="csccssccc" />
      <path
         style="fill:#370188;fill-opacity:1;fill-rule:nonzero;stroke:#370188;stroke-width:3.175;stroke-dasharray:none;stroke-opacity:1"
         d="m 369.20269,217.26369 c 0.53238,0.0111 3.57276,-4.01333 3.31508,-4.46341 -0.25781,-0.45009 -6.11673,-0.63218 -6.46579,-0.15107 -0.34906,0.48111 2.61833,4.6035 3.15071,4.61448 z"
         id="path51"
         sodipodi:nodetypes="zzzz" />
      <path
         style="fill:#6002ee;fill-opacity:1;fill-rule:nonzero;stroke:#370188;stroke-width:3.175;stroke-dasharray:none;stroke-opacity:1"
         d="m 376.09698,214.28609 9.24446,1.75721"
         id="path52" />
      <path
         style="fill:#6002ee;fill-opacity:1;fill-rule:nonzero;stroke:#370188;stroke-width:3.175;stroke-dasharray:none;stroke-opacity:1"
         d="m 374.64537,218.41171 7.33444,3.66722"
         id="path53" />
      <path
         style="fill:#6002ee;fill-opacity:1;fill-rule:nonzero;stroke:#370188;stroke-width:3.175;stroke-dasharray:none;stroke-opacity:1"
         d="m 362.06015,214.16093 -9.24446,1.75721"
         id="path52-5" />
      <path
         style="fill:#6002ee;fill-opacity:1;fill-rule:nonzero;stroke:#370188;stroke-width:3.175;stroke-dasharray:none;stroke-opacity:1"
         d="m 363.51176,218.28655 -7.33444,3.66722"
         id="path53-5" />
      <path
         style="fill:#ee02ca;fill-opacity:1;fill-rule:nonzero;stroke:#370188;stroke-width:3.175;stroke-dasharray:none;stroke-opacity:1"
         d="m 343.3292,338.20581 26.58288,0.41306 3.29813,-15.55068 3.43055,15.49144 27.34977,-0.10287 -5.70738,-57.54784 -53.14426,0.29356 z"
         id="path55"
         sodipodi:nodetypes="cccccccc" />
      <path
         style="fill:#ee02ca;fill-opacity:1;fill-rule:nonzero;stroke:#370188;stroke-width:3.175;stroke-dasharray:none;stroke-opacity:1"
         d="m 387.54533,233.81894 16.8729,71.52352 -63.39858,-0.3447 9.64288,-70.83413 15.05207,4.21068 4.05041,7.53825 3.71288,-7.31323 z"
         id="path56"
         sodipodi:nodetypes="cccccccc" />
      <path
         style="fill:#ee02ca;fill-opacity:1;fill-rule:nonzero;stroke:#370188;stroke-width:3.175;stroke-dasharray:none;stroke-opacity:1"
         d="m 351.27782,240.12615 -17.53947,6.13268 3.43427,17.48754 13.61456,-3.06634"
         id="path57"
         sodipodi:nodetypes="cccc" />
      <path
         style="fill:#ee02ca;fill-opacity:1;fill-rule:nonzero;stroke:#370188;stroke-width:3.175;stroke-dasharray:none;stroke-opacity:1"
         d="m 387.89188,239.94301 17.53946,6.13269 -3.43427,17.48754 -13.61455,-3.06634"
         id="path57-4"
         sodipodi:nodetypes="cccc" />
      <path
         style="fill:#ee02ca;fill-opacity:1;fill-rule:nonzero;stroke:#370188;stroke-width:3.175;stroke-dasharray:none;stroke-opacity:1"
         d="m 350.62202,234.18785 -3.91468,6.00247 17.09404,5.21954 1.21104,-6.91701 z"
         id="path58"
         sodipodi:nodetypes="ccccc" />
      <path
         style="fill:#ee02ca;fill-opacity:1;fill-rule:nonzero;stroke:#370188;stroke-width:3.175;stroke-dasharray:none;stroke-opacity:1"
         d="m 374.33206,238.23299 13.21822,-4.43661 3.91465,6.43651 -14.98673,4.87936 z"
         id="path59"
         sodipodi:nodetypes="ccccc" />
      <path
         style="fill:#ffffff;fill-opacity:1;fill-rule:nonzero;stroke:#370188;stroke-width:3.175;stroke-dasharray:none;stroke-opacity:1"
         d="m 369.79343,244.43094 3e-5,59.83336"
         id="path60"
         sodipodi:nodetypes="cc" />
      <circle
         style="fill:#370188;fill-opacity:1;stroke:#370188;stroke-width:0.797947;stroke-opacity:1"
         id="path3-3-6-6-7"
         r="0.75558645"
         cy="289.18903"
         cx="375.02856"
         inkscape:transform-center-x="2.5473966"
         inkscape:transform-center-y="-7.9173349e-05" />
      <circle
         style="fill:#370188;fill-opacity:1;stroke:#370188;stroke-width:0.797947;stroke-opacity:1"
         id="path3-3-6-60-5"
         r="0.75558645"
         cy="298.46582"
         cx="374.79822"
         inkscape:transform-center-x="2.5474322"
         inkscape:transform-center-y="1.983531e-06" />
      <circle
         style="fill:#370188;fill-opacity:1;stroke:#370188;stroke-width:0.797947;stroke-opacity:1"
         id="path3-3-6-6-7-0"
         r="0.75558645"
         cy="271.1803"
         cx="374.73672"
         inkscape:transform-center-x="2.5473966"
         inkscape:transform-center-y="-7.9173349e-05" />
      <circle
         style="fill:#370188;fill-opacity:1;stroke:#370188;stroke-width:0.797947;stroke-opacity:1"
         id="path3-3-6-60-5-3"
         r="0.75558645"
         cy="280.1915"
         cx="374.94904"
         inkscape:transform-center-x="2.5474322"
         inkscape:transform-center-y="1.983531e-06" />
      <circle
         style="fill:#370188;fill-opacity:1;stroke:#370188;stroke-width:0.797947;stroke-opacity:1"
         id="path3-3-6-6-7-0-0"
         r="0.75558645"
         cy="252.55988"
         cx="374.6452"
         inkscape:transform-center-x="2.5473966"
         inkscape:transform-center-y="-7.9173349e-05" />
      <circle
         style="fill:#370188;fill-opacity:1;stroke:#370188;stroke-width:0.797947;stroke-opacity:1"
         id="path3-3-6-60-5-3-6"
         r="0.75558645"
         cy="262.10226"
         cx="374.68045"
         inkscape:transform-center-x="2.5474322"
         inkscape:transform-center-y="1.983531e-06" />
      <path
         style="fill:#ffffff;fill-opacity:1;fill-rule:nonzero;stroke:#370188;stroke-width:3.175;stroke-dasharray:none;stroke-opacity:1"
         d="m 352.13719,197.3643 c 0,0 9.8352,-1.20621 12.3404,1.48455 2.5052,2.69076 1.57734,10.4847 -3.5258,10.29913 -5.10318,-0.18558 -9.27853,-3.61861 -8.8146,-11.78368 z"
         id="path62" />
      <path
         style="fill:#ffffff;fill-opacity:1;fill-rule:nonzero;stroke:#370188;stroke-width:3.175;stroke-dasharray:none;stroke-opacity:1"
         d="m 386.14306,197.48861 c 0,0 -9.8352,-1.2062 -12.3404,1.48456 -2.5052,2.69076 -1.57734,10.48469 3.52581,10.29913 5.10318,-0.18558 9.27852,-3.61862 8.81459,-11.78369 z"
         id="path62-2" />
      <circle
         style="fill:#370188;fill-opacity:1;stroke:none;stroke-width:12.6211;stroke-dasharray:none;stroke-opacity:1"
         id="path9-5-7"
         cx="359.66571"
         cy="203.325"
         r="2.6458333" />
      <circle
         style="fill:#370188;fill-opacity:1;stroke:none;stroke-width:12.6211;stroke-dasharray:none;stroke-opacity:1"
         id="path9-5-7-6"
         cx="378.72897"
         cy="203.42162"
         r="2.6458333" />
      <path
         style="fill:#ffffff;fill-opacity:1;fill-rule:nonzero;stroke:#370188;stroke-width:3.175;stroke-dasharray:none;stroke-opacity:1"
         d="m 351.93879,199.57485 -8.09517,-1.80952"
         id="path63" />
      <path
         style="fill:#ffffff;fill-opacity:1;fill-rule:nonzero;stroke:#370188;stroke-width:3.175;stroke-dasharray:none;stroke-opacity:1"
         d="m 386.31953,199.9558 8.57135,-1.71428"
         id="path64" />
      <path
         style="fill:#ffffff;fill-opacity:1;fill-rule:nonzero;stroke:#370188;stroke-width:3.175;stroke-dasharray:none;stroke-opacity:1"
         d="m 365.46251,201.95578 c 0.85712,-1.5238 5.80949,-1.80951 7.3333,-0.28571"
         id="path65" />
      <path
         style="fill:#b98bfe;fill-opacity:1;fill-rule:nonzero;stroke:#370188;stroke-width:3.175;stroke-dasharray:none;stroke-opacity:1"
         d="m 387.22339,191.64686 c 0,0 1.31327,-13.11396 -0.93622,-14.04122 -2.24948,-0.92726 -10.69803,10.16317 -10.69803,10.16317"
         id="path66-0"
         sodipodi:nodetypes="czc" />
      <path
         style="fill:#b98bfe;fill-opacity:1;fill-rule:nonzero;stroke:#370188;stroke-width:3.175;stroke-dasharray:none;stroke-opacity:1"
         d="m 349.93927,191.77323 c 0,0 -1.31328,-13.11396 0.93621,-14.04122 2.24949,-0.92726 10.69804,10.16317 10.69804,10.16317"
         id="path66-0-3"
         sodipodi:nodetypes="czc" />
      <path
         style="fill:none;fill-opacity:1;fill-rule:nonzero;stroke:#370188;stroke-width:3.175;stroke-dasharray:none;stroke-opacity:1"
         d="m 373.48154,324.26736 4.00387,0.24578 -2.77495,-14.501"
         id="path78"
         sodipodi:nodetypes="ccc" />
    </g>
    <g
       id="g1"
       transform="translate(-5.9563232,-1.1001507)">
      <path
         style="fill:#018816;fill-opacity:1;stroke:#370188;stroke-width:3.175;stroke-dasharray:none;stroke-opacity:1"
         d="m 78.391144,269.34437 -2.44821,35.65858 51.518656,1.38376 -2.02244,-39.59697 z"
         id="path25-4" />
      <path
         style="fill:#ffffff;fill-opacity:1;stroke:#370188;stroke-width:3.175;stroke-dasharray:none;stroke-opacity:1"
         d="m 61.729888,277.79219 c 0,15.83268 7.109174,26.92819 17.072324,33.2866 2.370486,1.51283 4.90258,2.75752 7.53891,3.73403 23.316628,8.63653 54.788078,-3.70364 54.763758,-37.02063 l -15.06804,15.50714 -15.15129,-6.57609 -19.957538,9.34238 -10.755375,-11.69093 -8.490204,5.1436 z"
         id="path1-8"
         sodipodi:nodetypes="cssccccccc" />
      <path
         style="fill:#370189;fill-opacity:1;stroke:#370188;stroke-width:0;stroke-dasharray:none;stroke-opacity:1"
         d="m 85.657894,313.12813 -3.826923,-5.2726 5.071173,2.35369 1.326261,-3.92795 0.376809,4.14214 4.169982,-3.19913 -2.573465,4.76485 5.63245,0.54648 -3.692811,2.899 z"
         id="path3-2"
         sodipodi:nodetypes="cccccccccc" />
      <path
         style="fill:#370189;fill-opacity:1;stroke:#370188;stroke-width:0;stroke-dasharray:none;stroke-opacity:1"
         d="m 116.80261,313.66448 3.03511,-5.32825 -4.74552,2.65566 -0.40824,-3.99875 -1.23584,4.49196 -4.72465,-1.36681 3.40941,3.17529 -4.7818,1.08258 4.5025,2.28216 z"
         id="path3-1-5"
         sodipodi:nodetypes="cccccccccc" />
      <path
         style="fill:#ee4302;fill-opacity:1;stroke:#370188;stroke-width:3.175;stroke-dasharray:none;stroke-opacity:1"
         d="m 86.252222,314.4582 c -0.09081,0.82798 -0.110808,10.87926 -0.110808,10.87926 l -7.657909,4.01428 9.170479,-1.55092 0.742855,0.90941 0.700278,-0.93297 8.75249,1.41576 -6.925976,-3.71138 c 0,0 0.07017,-8.9828 0.0127,-9.10428 z"
         id="path7-8"
         sodipodi:nodetypes="cccccccccc" />
      <path
         style="fill:#ee4302;fill-opacity:1;stroke:#370188;stroke-width:3.175;stroke-dasharray:none;stroke-opacity:1"
         d="m 116.29076,313.7203 0.34005,12.60687 7.87114,2.6912 -9.9795,-1.45317 -0.74286,0.90942 -0.70031,-0.93298 -9.07621,1.20136 7.41826,-3.10318 c 0,0 0.16637,-9.20293 0.17971,-9.394 z"
         id="path7-4-0"
         sodipodi:nodetypes="cccccccccc" />
      <path
         style="fill:none;fill-opacity:1;stroke:#370188;stroke-width:3.175;stroke-dasharray:none;stroke-opacity:1"
         d="m 86.750379,290.14056 3.905726,-9.47852 22.305455,-0.053 3.05492,7.69032"
         id="path19-60"
         sodipodi:nodetypes="cccc" />
      <path
         style="fill:#fdc458;fill-opacity:1;stroke:#370188;stroke-width:3.175;stroke-dasharray:none;stroke-opacity:1"
         d="m 75.106385,259.39818 c 0,0 -38.472776,27.21073 6.956202,15.58833 z"
         id="path17-0"
         sodipodi:nodetypes="ccc" />
      <path
         style="fill:#fdc458;fill-opacity:1;stroke:#370188;stroke-width:3.175;stroke-dasharray:none;stroke-opacity:1"
         d="m 131.3589,260.43707 c 0,0 34.30229,21.19084 -7.53478,15.42339 z"
         id="path16-7"
         sodipodi:nodetypes="ccc" />
      <path
         style="fill:#fdc458;fill-opacity:1;stroke:#370188;stroke-width:3.175;stroke-dasharray:none;stroke-opacity:1"
         d="M 117.73701,245.63674 C 135.16296,206.69483 68.106177,207.2916 85.145512,246.28 l 15.592738,7.69652 z"
         id="path23-5"
         sodipodi:nodetypes="cccc" />
      <path
         style="fill:#018816;fill-opacity:1;stroke:#370188;stroke-width:3.175;stroke-dasharray:none;stroke-opacity:1"
         d="m 84.10516,275.09941 -9.800304,4.0472 -6.621494,-19.13718 13.522515,-5.46456 -0.305753,-10.09069 19.875566,9.57891 20.48709,-10.49623 v 8.56177 l 14.32217,7.7724 -6.59069,18.69103 -9.53129,-3.85835"
         id="path12-0"
         sodipodi:nodetypes="ccccccccccc" />
      <circle
         style="fill:#370188;fill-opacity:1;stroke:none;stroke-width:8.13508;stroke-dasharray:none;stroke-opacity:1"
         id="path9-8"
         cx="95.476143"
         cy="230.67378"
         r="1.7054044" />
      <circle
         style="fill:#370188;fill-opacity:1;stroke:none;stroke-width:8.13508;stroke-dasharray:none;stroke-opacity:1"
         id="path9-4"
         cx="107.97276"
         cy="230.7589"
         r="1.7054044" />
      <path
         style="fill:none;fill-opacity:1;stroke:#370188;stroke-width:3.175;stroke-dasharray:none;stroke-opacity:1"
         d="m 80.900759,254.34335 19.874931,4.48241 20.9963,-6.52114"
         id="path22-1"
         sodipodi:nodetypes="ccc" />
      <path
         style="fill:none;fill-opacity:1;stroke:#370188;stroke-width:3.175;stroke-dasharray:none;stroke-opacity:1"
         d="m 91.594096,253.39641 -3.37312,20.3066"
         id="path10-79"
         sodipodi:nodetypes="cc" />
      <path
         style="fill:none;fill-opacity:1;stroke:#370188;stroke-width:3.175;stroke-dasharray:none;stroke-opacity:1"
         d="m 109.03399,252.89 2.50113,20.97738"
         id="path11-71"
         sodipodi:nodetypes="cc" />
      <path
         style="fill:none;fill-opacity:1;stroke:#370188;stroke-width:3.175;stroke-dasharray:none;stroke-opacity:1"
         d="m 100.43074,235.80145 5.98277,3.09451 -7.220565,3.30086"
         id="path24-70" />
      <path
         style="fill:none;fill-opacity:1;stroke:#370188;stroke-width:3.175;stroke-dasharray:none;stroke-opacity:1"
         d="m 101.54505,218.73306 c 5.40633,-4.70871 -5.057486,-5.05752 0.52321,-8.89425"
         id="path26-0"
         sodipodi:nodetypes="cc" />
    </g>
    <text
       xml:space="preserve"
       style="font-style:normal;font-variant:normal;font-weight:normal;font-stretch:normal;font-size:19.05px;font-family:'Nanum Pen';-inkscape-font-specification:'Nanum Pen';text-align:center;letter-spacing:0px;word-spacing:0px;writing-mode:lr-tb;direction:ltr;text-anchor:middle;white-space:pre;inline-size:274.682;display:inline;fill:#370188;fill-opacity:1;stroke:none;stroke-width:1.5875;stroke-linecap:round;stroke-dasharray:none;stroke-opacity:1"
       x="15.039584"
       y="156.49693"
       id="text17-7"
       transform="translate(85.930172,-117.39171)"><tspan
         x="15.039584"
         y="156.49693"
         id="tspan1">Erm... Boredom? Maybe?</tspan></text>
    <g
       id="g10"
       transform="translate(-122.05327,20.125805)"
       clip-path="url(#clipPath10)">
      <path
         style="fill:#bb7a02;fill-opacity:1;stroke:#370188;stroke-width:3.175;stroke-dasharray:none;stroke-opacity:1"
         d="m 358.67315,294.73718 31.97746,5.88806 42.11444,-6.06376 -13.47289,-36.36905 -48.2159,-2.95889 z"
         id="path31"
         sodipodi:nodetypes="cccccc" />
      <path
         style="fill:#fdc458;fill-opacity:1;stroke:#370188;stroke-width:3.175;stroke-dasharray:none;stroke-opacity:1"
         d="m 342.91496,254.16222 c -5.55973,0.9605 -8.23371,4.3201 -9.96277,6.15951 -2.63135,2.79929 -4.99161,2.40659 -4.65757,-0.72919 0.59754,-5.60935 10.19091,-11.53087 14.20248,-11.90652"
         id="path30"
         sodipodi:nodetypes="cssc" />
      <path
         style="fill:#fdc458;fill-opacity:1;stroke:#370188;stroke-width:3.175;stroke-dasharray:none;stroke-opacity:1"
         d="m 359.08212,219.15211 c -12.13056,0.26607 -15.89227,11.18217 -16.14989,18.02856 -0.35985,9.56319 -1.39128,41.01085 1.92154,52.84228 3.3128,11.83142 5.2058,15.61748 24.13607,16.09073 18.9303,0.47326 66.25599,-0.47325 66.25599,-0.47325 0,0 -50.40306,-5.73794 -56.08215,-15.67634 -5.67909,-9.9384 -6.6762,-42.05426 -6.38778,-52.47267 0.20733,-7.48503 -2.33563,-17.86605 -13.69378,-18.33931 z"
         id="path26"
         sodipodi:nodetypes="cssscssc" />
      <path
         sodipodi:type="spiral"
         style="fill:#bb7a02;fill-opacity:1;fill-rule:evenodd;stroke:#370188;stroke-width:0.695287;stroke-dasharray:none;stroke-opacity:1"
         id="path27"
         sodipodi:cx="105.75211"
         sodipodi:cy="39.133308"
         sodipodi:expansion="1.9"
         sodipodi:revolution="1.8526812"
         sodipodi:radius="10.963904"
         sodipodi:argument="-18.497511"
         sodipodi:t0="0.12886804"
         d="m 105.69006,39.348002 c -0.32401,0.23185 -0.69518,-0.169724 -0.77545,-0.456763 -0.23505,-0.84048 0.61833,-1.513252 1.36817,-1.59391 1.54382,-0.166068 2.64192,1.346958 2.66371,2.75927 0.0376,2.433734 -2.34374,4.074062 -4.61129,3.978909 -3.50843,-0.147224 -5.803332,-3.600767 -5.534662,-6.911455 0.386726,-4.765445 5.112132,-7.824404 9.650082,-7.326992 2.50124,0.274164 4.82855,1.527219 6.51074,3.386706"
         transform="matrix(-4.5664566,0,0,4.5664566,898.82644,100.70542)" />
      <circle
         style="fill:#fdc458;fill-opacity:1;stroke:#370188;stroke-width:3.175;stroke-dasharray:none;stroke-opacity:1"
         id="path28"
         cx="339.51639"
         cy="200.60025"
         r="2.4649308" />
      <path
         style="fill:#ffffff;fill-opacity:1;stroke:#370188;stroke-width:3.175;stroke-dasharray:none;stroke-opacity:1"
         d="m 348.8831,221.99587 -7.88775,-18.53628"
         id="path29" />
      <circle
         style="fill:#fdc458;fill-opacity:1;stroke:#370188;stroke-width:3.175;stroke-dasharray:none;stroke-opacity:1"
         id="path28-0"
         cx="-376.67294"
         cy="200.28001"
         r="2.4649308"
         transform="scale(-1,1)" />
      <path
         style="fill:#ffffff;fill-opacity:1;stroke:#370188;stroke-width:3.175;stroke-dasharray:none;stroke-opacity:1"
         d="m 367.30623,221.67562 7.88775,-18.53628"
         id="path29-6" />
      <circle
         style="fill:#370188;fill-opacity:1;stroke:none;stroke-width:12.6211;stroke-dasharray:none;stroke-opacity:1"
         id="path9"
         cx="352.32635"
         cy="233.04077"
         r="2.6458333" />
      <circle
         style="fill:#370188;fill-opacity:1;stroke:none;stroke-width:12.6211;stroke-dasharray:none;stroke-opacity:1"
         id="path9-5"
         cx="362.40564"
         cy="233.60535"
         r="2.6458333" />
      <path
         style="fill:#fdc458;fill-opacity:1;stroke:#370188;stroke-width:3.175;stroke-dasharray:none;stroke-opacity:1"
         d="m 370.61198,253.60102 c 5.55971,0.9605 7.91991,6.20282 9.64898,8.04224 2.63135,2.79928 5.30539,1.67442 4.97135,-1.46137 -0.59753,-5.60935 -10.19092,-12.68142 -14.20247,-13.05707"
         id="path30-2"
         sodipodi:nodetypes="cssc" />
      <path
         style="mix-blend-mode:normal;fill:#02ee25;fill-opacity:1;fill-rule:nonzero;stroke:#370188;stroke-width:3.175;stroke-dasharray:none;stroke-opacity:1"
         d="m 340.2721,248.07554 1.62537,6.72842 -0.67368,5.19753 c 0,4.76464 -0.0632,31.61077 -8.46842,42.20189 15.83811,0.55553 79.83357,-0.15519 88.3358,-0.18221 -37.05259,-4.98841 -47.55622,-40.64825 -49.38614,-44.23874 -0.26352,-0.51678 -0.23241,-2.66961 -0.23241,-2.66961 l 2.67863,-6.24797 -2.90824,-3.10851 -4.96751,6.207 -19.50784,-0.1624 -3.45027,-6.30801 z"
         id="path33"
         sodipodi:nodetypes="cccccsccccccc" />
    </g>
    <text
       xml:space="preserve"
       style="font-style:normal;font-variant:normal;font-weight:normal;font-stretch:normal;font-size:19.05px;font-family:'Nanum Pen';-inkscape-font-specification:'Nanum Pen';text-align:center;letter-spacing:0px;word-spacing:0px;writing-mode:lr-tb;direction:ltr;text-anchor:middle;white-space:pre;inline-size:176.014;display:inline;fill:#370188;fill-opacity:1;stroke:none;stroke-width:1.5875;stroke-linecap:round;stroke-dasharray:none;stroke-opacity:1"
       x="15.039584"
       y="156.49693"
       id="text17-7-9"
       transform="translate(187.88255,-77.334772)"><tspan
         x="15.039584"
         y="156.49693"
         id="tspan2">Hmm...
</tspan><tspan
         x="15.039584"
         y="180.30944"
         id="tspan3">Or we could make the<tspan
   y="180.30944"
   id="tspan4"> </tspan></tspan><tspan
         x="15.039584"
         y="204.12194"
         id="tspan5">wait shorter instead?</tspan></text>
    <g
       id="g11"
       transform="translate(115.31855,-20.967009)"
       clip-path="url(#clipPath11)">
      <path
         style="fill:#ffffff;fill-opacity:1;stroke:#370188;stroke-width:3.21643;stroke-dasharray:none;stroke-opacity:1"
         d="m -77.209014,251.70604 c 1.24358,8.17195 13.4967,27.73728 15.45088,31.82325 1.95415,4.08597 -3.22145,8.96309 -6.77443,5.76539 -3.55302,-3.19777 -15.76829,-21.08607 -17.36715,-27.30386"
         id="path5-1-2-1-7-3"
         sodipodi:nodetypes="cssc" />
      <path
         style="fill:#ffffff;fill-opacity:1;stroke:#370188;stroke-width:3.21643;stroke-dasharray:none;stroke-opacity:1"
         d="m -119.57507,293.9431 c -0.81686,6.53498 -4.51006,21.22091 -12.1399,30.13967 -6.13108,7.16677 -14.56271,8.4803 -18.80835,10.80214 -9.77519,5.34601 -6.769,14.03995 1.93155,11.82475 12.68041,-3.22847 31.83632,-6.967 30.95234,-15.8067"
         id="path2-4-2-5-8-3-2"
         sodipodi:nodetypes="csssc" />
      <path
         style="fill:#9a58fe;fill-opacity:1;stroke:#370188;stroke-width:3.21643;stroke-dasharray:none;stroke-opacity:1"
         d="m -75.761844,257.82884 14.44256,20.39693 -11.14863,9.75506"
         id="path13-6-7-6-8-9"
         sodipodi:nodetypes="ccc" />
      <path
         style="fill:#ffffff;fill-opacity:1;stroke:#370188;stroke-width:3.21643;stroke-dasharray:none;stroke-opacity:1"
         d="m -72.057294,206.11975 c 2.98009,-3.66221 -0.72158,-6.68728 -3.80158,-2.51292"
         id="path15-0-5-6-6-1-9"
         sodipodi:nodetypes="cc" />
      <path
         style="fill:#ffffff;fill-opacity:1;stroke:#370188;stroke-width:3.21656;stroke-dasharray:none;stroke-opacity:1"
         d="m -92.882174,230.46415 c 9.26553,17.31194 44.37713,6.82724 30.47879,-11.94765 -13.89834,-18.77498 -19.2626,-20.4818 -30.23495,-19.99418 -10.972386,0.48771 -19.640046,10.31735 -20.725606,18.2873 -1.42977,10.49709 -3.32731,59.21102 -5.76565,73.59704 -1.99771,11.78674 0.79395,34.08943 2.08242,46.63332 0.28417,2.76612 0.49511,5.05771 0.56557,6.6573 0.44358,10.0706 13.41428,10.82717 14.14215,0.73152 0.53937,-7.48017 10.085446,-6.2115 10.387546,0 0.45123,9.27808 13.78369,9.12607 14.58449,-0.2613 0.92951,-10.89466 6.17163,-40.69924 5.15074,-52.22005 -0.97228,-10.97235 -6.7672,-52.94937 -6.7672,-52.94937 v 0"
         id="path1-2-4-7-1-7-8"
         sodipodi:nodetypes="csssssssssscc" />
      <circle
         style="fill:#370188;fill-opacity:1;stroke:#370188;stroke-width:0.804104;stroke-opacity:1"
         id="path3-29-2-0-0"
         cx="75.630486"
         cy="212.4232"
         r="1.5030103"
         transform="scale(-1,1)" />
      <circle
         style="fill:#370188;fill-opacity:1;stroke:#370188;stroke-width:0.804104;stroke-opacity:1"
         id="path3-3-5-9-1-8"
         cx="86.277382"
         cy="214.75717"
         r="1.5030103"
         transform="scale(-1,1)" />
      <path
         style="fill:#370188;fill-opacity:1;stroke:#370188;stroke-width:3.21643;stroke-dasharray:none;stroke-opacity:1"
         d="m -70.689434,223.97779 c -1.06385,-0.69009 -5.0199,0.46523 -5.52069,1.5527 -0.46854,1.01736 3.81838,3.16652 4.54307,2.76034 0.53051,-0.29718 2.04153,-3.62296 0.97762,-4.31304 z"
         id="path4-2-3-9-6-9"
         sodipodi:nodetypes="zssz" />
      <path
         style="fill:#9a58fe;fill-opacity:1;stroke:#370188;stroke-width:3.21643;stroke-dasharray:none;stroke-opacity:1"
         d="m -118.90673,318.32843 c 0.34052,5.32857 0.99514,27.69689 0.99514,27.69689 l 19.155596,-0.58045 1.99019,-5.97062 1.74142,6.05349 20.39947,0.58051 c 0,0 0.21209,-19.99024 0.66339,-29.02366 0.45123,-9.03341 3.11143,-13.35293 1.94037,-25.16196 -1.17107,-11.80907 -5.49523,-45.01379 -5.49523,-45.01379 l -5.28793,1.13319 -4.91023,10.19816 -4.15487,-10.38704 -23.229216,-1.51086 c 0,0 -1.73711,30.37409 -4.16313,44.75871 -2.42599,14.38449 -0.33385,17.47355 -0.12986,20.37635 0.20415,2.90281 0.14415,1.52251 0.48473,6.85108 z"
         id="path14-0-7-8-2-7"
         sodipodi:nodetypes="zccccczzccccczzz" />
      <path
         style="fill:#ffffff;fill-opacity:1;stroke:#370188;stroke-width:3.21643;stroke-dasharray:none;stroke-opacity:1"
         d="m -116.17839,257.6519 c -0.6911,10.08986 1.55305,30.37776 1.96276,34.40325 0.55286,5.43208 7.64343,6.63438 8.74919,0.13811 1.10572,-6.49627 1.55673,-27.26404 1.55673,-27.26404"
         id="path6-86-3-4-3-0"
         sodipodi:nodetypes="cssc" />
      <path
         style="fill:#ffffff;fill-opacity:1;stroke:#370188;stroke-width:3.21643;stroke-dasharray:none;stroke-opacity:1"
         d="m -92.575444,246.99761 4.17071,11.2469"
         id="path10-5-4-0-6-1-8"
         sodipodi:nodetypes="cc" />
      <path
         style="fill:#9a58fe;fill-opacity:1;stroke:#370188;stroke-width:3.21643;stroke-dasharray:none;stroke-opacity:1"
         d="m -96.322384,256.97219 3.07457,-8.95407 -22.081066,-1.61388 -2.64091,9.02313 z"
         id="path7-1-7-2-3-4-8"
         sodipodi:nodetypes="ccccc" />
      <path
         style="fill:#ffffff;fill-opacity:1;stroke:#370188;stroke-width:3.21643;stroke-dasharray:none;stroke-opacity:1"
         d="m -88.094024,258.52493 5.09152,-11.52732"
         id="path9-9-9-5-8-8-6"
         sodipodi:nodetypes="cc" />
      <path
         style="fill:#9a58fe;fill-opacity:1;stroke:#370188;stroke-width:3.21643;stroke-dasharray:none;stroke-opacity:1"
         d="m -77.402304,246.99107 -5.11909,0.79594 2.01381,9.07552 6.3901,-1.8254 z"
         id="path8-9-5-7-9-9-2"
         sodipodi:nodetypes="ccccc" />
      <path
         style="fill:#9a58fe;fill-opacity:1;stroke:#370188;stroke-width:3.21643;stroke-dasharray:none;stroke-opacity:1"
         d="m -100.88054,263.01771 -0.75266,24.69109 -15.03528,-3.05023 0.69475,-27.08948"
         id="path12-2-2-7-8-2-2"
         sodipodi:nodetypes="cccc" />
      <path
         style="fill:#9a58fe;fill-opacity:1;stroke:#370188;stroke-width:3.21643;stroke-dasharray:none;stroke-opacity:1"
         d="m -88.190734,258.0562 c 0,0 1.32988,28.23528 1.43218,31.202 0.10255,2.96675 -1.85966,33.12029 -1.85966,33.12029 l -5.23132,-0.403"
         id="path11-7-9-4-2-3-7"
         sodipodi:nodetypes="csc" />
      <circle
         style="fill:#370188;fill-opacity:1;stroke:#370188;stroke-width:0.804104;stroke-opacity:1"
         id="path3-3-6-16-4-6-1-3"
         r="0.76141715"
         cy="266.67526"
         cx="91.86116"
         inkscape:transform-center-x="-2.5670617"
         inkscape:transform-center-y="-5.6852825e-06"
         transform="scale(-1,1)" />
      <circle
         style="fill:#370188;fill-opacity:1;stroke:#370188;stroke-width:0.804104;stroke-opacity:1"
         id="path3-3-6-9-41-1-0-5-1"
         r="0.76141715"
         cy="276.8038"
         cx="91.37397"
         inkscape:transform-center-x="-2.5670282"
         inkscape:transform-center-y="-3.6976775e-06"
         transform="scale(-1,1)" />
      <circle
         style="fill:#370188;fill-opacity:1;stroke:#370188;stroke-width:0.804104;stroke-opacity:1"
         id="path3-3-6-2-6-2-9-0-1"
         r="0.76141715"
         cy="286.23068"
         cx="90.89299"
         inkscape:transform-center-x="-2.5670486"
         inkscape:transform-center-y="7.9723223e-06"
         transform="scale(-1,1)" />
      <circle
         style="fill:#370188;fill-opacity:1;stroke:#370188;stroke-width:0.804104;stroke-opacity:1"
         id="path3-3-6-1-3-7-6-7-1"
         r="0.76141715"
         cy="296.02231"
         cx="91.058098"
         inkscape:transform-center-x="-2.5670669"
         inkscape:transform-center-y="1.4437816e-05"
         transform="scale(-1,1)" />
      <circle
         style="fill:#370188;fill-opacity:1;stroke:#370188;stroke-width:0.804104;stroke-opacity:1"
         id="path3-3-6-6-9-8-5-4-7"
         r="0.76141715"
         cy="306.15979"
         cx="91.630936"
         inkscape:transform-center-x="-2.5670396"
         inkscape:transform-center-y="-8.241693e-06"
         transform="scale(-1,1)" />
      <circle
         style="fill:#370188;fill-opacity:1;stroke:#370188;stroke-width:0.804104;stroke-opacity:1"
         id="path3-3-6-60-59-6-9-2-8"
         r="0.76141715"
         cy="315.95416"
         cx="92.201828"
         inkscape:transform-center-x="-2.5670348"
         inkscape:transform-center-y="-1.4574684e-05"
         transform="scale(-1,1)" />
      <path
         style="fill:#ffffff;fill-opacity:1;stroke:#370188;stroke-width:3.21643;stroke-dasharray:none;stroke-opacity:1"
         d="m -99.682614,210.484 c -3.372576,-3.08898 -6.144096,1.80683 -3.088956,3.72209"
         id="path15-1-0-5-7-3"
         sodipodi:nodetypes="cc" />
    </g>
    <rect
       style="fill:none;fill-opacity:1;fill-rule:nonzero;stroke:#370188;stroke-width:3.175;stroke-dasharray:none;stroke-opacity:1"
       id="rect113-4-2"
       width="282.57498"
       height="354.01248"
       x="1.5875"
       y="1.5875" />
  </g>
</svg>
