<?xml version="1.0" encoding="UTF-8" standalone="no"?>
<!-- Created with Inkscape (http://www.inkscape.org/) -->

<svg
   width="1080"
   height="1350"
   viewBox="0 0 285.74999 357.1875"
   version="1.1"
   id="svg1"
   inkscape:version="1.4 (e7c3feb1, 2024-10-09)"
   sodipodi:docname="panel-00.svg"
   xmlns:inkscape="http://www.inkscape.org/namespaces/inkscape"
   xmlns:sodipodi="http://sodipodi.sourceforge.net/DTD/sodipodi-0.dtd"
   xmlns="http://www.w3.org/2000/svg"
   xmlns:svg="http://www.w3.org/2000/svg">
  <sodipodi:namedview
     id="namedview1"
     pagecolor="#ffffff"
     bordercolor="#000000"
     borderopacity="0.25"
     inkscape:showpageshadow="2"
     inkscape:pageopacity="0.0"
     inkscape:pagecheckerboard="0"
     inkscape:deskcolor="#d1d1d1"
     inkscape:document-units="px"
     inkscape:zoom="0.33229962"
     inkscape:cx="108.33596"
     inkscape:cy="628.95046"
     inkscape:window-width="1728"
     inkscape:window-height="1057"
     inkscape:window-x="2560"
     inkscape:window-y="355"
     inkscape:window-maximized="0"
     inkscape:current-layer="layer1"
     showguides="false">
    <sodipodi:guide
       position="-39.692685,26.570778"
       orientation="0,-1"
       id="guide1"
       inkscape:locked="false" />
  </sodipodi:namedview>
  <defs
     id="defs1">
    <rect
       x="337.60629"
       y="293.08679"
       width="868.13049"
       height="871.84045"
       id="rect26" />
    <rect
       x="358.01108"
       y="335.75131"
       width="877.4054"
       height="734.57196"
       id="rect25" />
    <rect
       x="418.44797"
       y="244.75258"
       width="748.0744"
       height="801.36731"
       id="rect16" />
    <clipPath
       clipPathUnits="userSpaceOnUse"
       id="clipPath32">
      <rect
         style="fill:none;fill-opacity:1;fill-rule:nonzero;stroke:#370188;stroke-width:3.175;stroke-dasharray:none;stroke-opacity:1"
         id="rect33"
         width="282.57498"
         height="354.01248"
         x="1.5875"
         y="15.875003" />
    </clipPath>
    <clipPath
       clipPathUnits="userSpaceOnUse"
       id="clipPath33">
      <rect
         style="fill:none;fill-opacity:1;fill-rule:nonzero;stroke:#370188;stroke-width:3.175;stroke-dasharray:none;stroke-opacity:1"
         id="rect34"
         width="282.57498"
         height="354.01248"
         x="1.5875"
         y="15.875003"
         transform="scale(-1,1)" />
    </clipPath>
    <clipPath
       clipPathUnits="userSpaceOnUse"
       id="clipPath34">
      <rect
         style="fill:none;fill-opacity:1;fill-rule:nonzero;stroke:#370188;stroke-width:3.175;stroke-dasharray:none;stroke-opacity:1"
         id="rect35"
         width="282.57498"
         height="354.01248"
         x="1.5875"
         y="15.875003" />
    </clipPath>
    <clipPath
       clipPathUnits="userSpaceOnUse"
       id="clipPath35">
      <rect
         style="fill:none;fill-opacity:1;fill-rule:nonzero;stroke:#370188;stroke-width:3.175;stroke-dasharray:none;stroke-opacity:1"
         id="rect36"
         width="282.57498"
         height="354.01248"
         x="1.5875"
         y="15.875003" />
    </clipPath>
    <clipPath
       clipPathUnits="userSpaceOnUse"
       id="clipPath1">
      <rect
         style="fill:none;fill-opacity:1;fill-rule:nonzero;stroke:#370188;stroke-width:0.695287;stroke-dasharray:none;stroke-opacity:1"
         id="rect2"
         width="61.880581"
         height="77.524551"
         x="-167.02388"
         y="-16.952217"
         transform="scale(-1,1)" />
    </clipPath>
    <clipPath
       clipPathUnits="userSpaceOnUse"
       id="clipPath2">
      <rect
         style="fill:none;fill-opacity:1;fill-rule:nonzero;stroke:#370188;stroke-width:3.175;stroke-dasharray:none;stroke-opacity:1"
         id="rect3"
         width="282.57498"
         height="354.01248"
         x="1.5875"
         y="1.5875" />
    </clipPath>
    <clipPath
       clipPathUnits="userSpaceOnUse"
       id="clipPath3">
      <rect
         style="fill:none;fill-opacity:1;fill-rule:nonzero;stroke:#370188;stroke-width:3.175;stroke-dasharray:none;stroke-opacity:1"
         id="rect4"
         width="282.57498"
         height="354.01248"
         x="-61.912533"
         y="1.5875" />
    </clipPath>
    <clipPath
       clipPathUnits="userSpaceOnUse"
       id="clipPath6">
      <rect
         style="fill:none;fill-opacity:1;fill-rule:nonzero;stroke:#370188;stroke-width:3.175;stroke-dasharray:none;stroke-opacity:1"
         id="rect6"
         width="282.57498"
         height="354.01248"
         x="-166.95877"
         y="-51.58847"
         transform="rotate(-22.343004)" />
    </clipPath>
    <clipPath
       clipPathUnits="userSpaceOnUse"
       id="clipPath5">
      <rect
         style="fill:none;fill-opacity:1;fill-rule:nonzero;stroke:#370188;stroke-width:3.175;stroke-dasharray:none;stroke-opacity:1"
         id="rect5"
         width="282.57498"
         height="354.01248"
         x="1.5875"
         y="1.5875" />
    </clipPath>
    <clipPath
       clipPathUnits="userSpaceOnUse"
       id="clipPath4">
      <rect
         style="fill:none;fill-opacity:1;fill-rule:nonzero;stroke:#370188;stroke-width:3.175;stroke-dasharray:none;stroke-opacity:1"
         id="rect7"
         width="282.57498"
         height="354.01248"
         x="1.5875"
         y="1.5874997" />
    </clipPath>
    <clipPath
       clipPathUnits="userSpaceOnUse"
       id="clipPath7">
      <rect
         style="fill:none;fill-opacity:1;fill-rule:nonzero;stroke:#370188;stroke-width:3.175;stroke-dasharray:none;stroke-opacity:1"
         id="rect8"
         width="282.57498"
         height="354.01248"
         x="1.5875"
         y="1.5874997"
         transform="scale(-1,1)" />
    </clipPath>
    <clipPath
       clipPathUnits="userSpaceOnUse"
       id="clipPath8">
      <rect
         style="fill:none;fill-opacity:1;fill-rule:nonzero;stroke:#370188;stroke-width:3.175;stroke-dasharray:none;stroke-opacity:1"
         id="rect9"
         width="282.57498"
         height="354.01248"
         x="1.5875"
         y="1.5874997" />
    </clipPath>
    <clipPath
       clipPathUnits="userSpaceOnUse"
       id="clipPath9">
      <rect
         style="fill:none;fill-opacity:1;fill-rule:nonzero;stroke:#370188;stroke-width:3.175;stroke-dasharray:none;stroke-opacity:1"
         id="rect11"
         width="282.57498"
         height="354.01248"
         x="1.5875"
         y="1.5874997" />
    </clipPath>
    <clipPath
       clipPathUnits="userSpaceOnUse"
       id="clipPath11">
      <rect
         style="fill:none;fill-opacity:1;fill-rule:nonzero;stroke:#370188;stroke-width:3.175;stroke-dasharray:none;stroke-opacity:1"
         id="rect12"
         width="282.57498"
         height="354.01248"
         x="1.5875"
         y="1.5875" />
    </clipPath>
  </defs>
  <g
     inkscape:label="Layer 1"
     inkscape:groupmode="layer"
     id="layer1">
    <text
       xml:space="preserve"
       transform="scale(0.26458333)"
       id="text16"
       style="font-style:normal;font-variant:normal;font-weight:bold;font-stretch:normal;font-size:60px;font-family:'Josefin Slab';-inkscape-font-specification:'Josefin Slab Bold';text-align:start;letter-spacing:0px;word-spacing:0px;writing-mode:lr-tb;direction:ltr;white-space:pre;shape-inside:url(#rect16);display:inline;fill:#000000;fill-opacity:0;stroke:#370188;stroke-width:12;stroke-opacity:1" />
    <text
       xml:space="preserve"
       transform="scale(0.26458333)"
       id="text25"
       style="font-style:normal;font-variant:normal;font-weight:bold;font-stretch:normal;font-size:60px;font-family:'Josefin Slab';-inkscape-font-specification:'Josefin Slab Bold';text-align:start;letter-spacing:0px;word-spacing:0px;writing-mode:lr-tb;direction:ltr;white-space:pre;shape-inside:url(#rect25);display:inline;fill:#000000;fill-opacity:0;stroke:#370188;stroke-width:12;stroke-opacity:1" />
    <text
       xml:space="preserve"
       transform="scale(0.26458333)"
       id="text26"
       style="font-style:normal;font-variant:normal;font-weight:bold;font-stretch:normal;font-size:60px;font-family:'Josefin Slab';-inkscape-font-specification:'Josefin Slab Bold';text-align:start;letter-spacing:0px;word-spacing:0px;writing-mode:lr-tb;direction:ltr;white-space:pre;shape-inside:url(#rect26);display:inline;fill:#000000;fill-opacity:0;stroke:#370188;stroke-width:12;stroke-opacity:1" />
    <rect
       width="9.8019896"
       height="15.875"
       rx="0"
       ry="0"
       fill="#6002ee"
       stroke-width="0"
       id="rect1-3-4-39-4-2-0-5-6"
       x="247.60098"
       y="332.84583" />
    <text
       font-family="Montserrat"
       font-size="618.11px"
       font-weight="200"
       stroke-width="0"
       fill="#33333"
       id="text3-0-3-0-0-5-3-3-2"
       x="248.33717"
       y="345.42685"
       style="font-style:normal;font-variant:normal;font-weight:300;font-stretch:normal;font-size:13.0774px;font-family:Montserrat;-inkscape-font-specification:'Montserrat Light'"
       transform="scale(0.99938968,1.0006107)"><tspan
         y="345.42685"
         font-weight="200"
         stroke-width="0"
         id="tspan1-4-8-6-2-1-2-5-9"
         style="font-style:normal;font-variant:normal;font-weight:300;font-stretch:normal;font-size:13.0774px;font-family:Montserrat;-inkscape-font-specification:'Montserrat Light'"><tspan
           style="font-style:normal;font-variant:normal;font-weight:300;font-stretch:normal;font-size:13.0774px;font-family:Montserrat;-inkscape-font-specification:'Montserrat Light';fill:#ffffff;fill-opacity:1;stroke-width:0"
           id="tspan3-6-3-13-5-2-1-6-6">k</tspan></tspan></text>
    <text
       dx="0"
       dy="0"
       font-family="Montserrat"
       font-size="465.256px"
       font-weight="200"
       stroke-width="0"
       fill="#33333"
       id="text3-0-3-6-8-4-0-8-9"
       x="195.17656"
       y="345.42685"
       style="font-style:normal;font-variant:normal;font-weight:300;font-stretch:normal;font-size:13.0774px;font-family:Montserrat;-inkscape-font-specification:'Montserrat Light'"
       transform="scale(0.99938968,1.0006107)"><tspan
         y="345.42685"
         font-weight="200"
         stroke-width="0"
         id="tspan1-4-8-3-9-0-0-6-9"
         style="font-style:normal;font-variant:normal;font-weight:300;font-stretch:normal;font-size:13.0774px;font-family:Montserrat;-inkscape-font-specification:'Montserrat Light'">product</tspan></text>
    <text
       font-family="Montserrat"
       font-size="465.256px"
       font-weight="200"
       stroke-width="0"
       fill="#33333"
       id="text3-0-3-6-4-3-4-3-7-8"
       x="257.78415"
       y="345.42685"
       style="font-style:normal;font-variant:normal;font-weight:300;font-stretch:normal;font-size:13.0774px;font-family:Montserrat;-inkscape-font-specification:'Montserrat Light'"
       transform="scale(0.99938968,1.0006107)"><tspan
         y="345.42685"
         font-weight="200"
         stroke-width="0"
         id="tspan1-4-8-3-6-9-9-9-7-0"
         style="font-style:normal;font-variant:normal;font-weight:300;font-stretch:normal;font-size:13.0774px;font-family:Montserrat;-inkscape-font-specification:'Montserrat Light'">ind</tspan></text>
    <path
       style="fill:none;fill-opacity:1;stroke:#370188;stroke-width:1.5875;stroke-linecap:round;stroke-dasharray:none;stroke-opacity:1"
       d="m 149.56654,153.3249 c 0.19775,-29.04434 -25.78125,-38.1528 -5.22831,-62.849731"
       id="path13-1-4"
       sodipodi:nodetypes="cc" />
    <text
       xml:space="preserve"
       style="font-style:normal;font-variant:normal;font-weight:normal;font-stretch:normal;font-size:19.05px;font-family:'Nanum Pen';-inkscape-font-specification:'Nanum Pen';text-align:center;letter-spacing:0px;word-spacing:0px;writing-mode:lr-tb;direction:ltr;text-anchor:middle;white-space:pre;inline-size:274.682;display:inline;fill:#370188;fill-opacity:1;stroke:none;stroke-width:1.5875;stroke-linecap:round;stroke-dasharray:none;stroke-opacity:1"
       x="15.039584"
       y="156.49693"
       id="text17-7"
       transform="translate(127.24752,-122.32511)"><tspan
         x="15.039584"
         y="156.49693"
         id="tspan5">
</tspan><tspan
         x="15.039584"
         y="180.30944"
         id="tspan6">Let’s add a sparkly progress bar that<tspan
   y="180.30944"
   id="tspan7"> </tspan></tspan><tspan
         x="15.039584"
         y="204.12194"
         id="tspan8">changes colour every second!</tspan></text>
    <path
       style="fill:#b98bfe;fill-opacity:1;fill-rule:nonzero;stroke:#370188;stroke-width:3.175;stroke-dasharray:none;stroke-opacity:1"
       d="m 176.48249,278.45459 c 14.38475,-0.25686 19.43243,-7.842 21.83397,-15.15535 3.22393,-9.8177 7.98582,-11.95541 12.58662,-3.08244 3.5962,6.9355 7.96299,2.05496 5.13744,-2.05496 -2.8256,-4.10993 -6.39569,-10.61688 -14.8985,-8.21985 -8.74875,2.46635 -4.88055,24.14581 -25.43013,23.63207"
       id="path68-40"
       sodipodi:nodetypes="cssssc" />
    <path
       style="fill:#b98bfe;fill-opacity:1;fill-rule:nonzero;stroke:#370188;stroke-width:3.175;stroke-dasharray:none;stroke-opacity:1"
       d="m 185.37579,230.03021 c 16.19635,5.32379 13.87641,14.98207 -2.92417,11.09709"
       id="path61-9-95"
       sodipodi:nodetypes="cc" />
    <path
       style="fill:#b98bfe;fill-opacity:1;fill-rule:nonzero;stroke:#370188;stroke-width:3.175;stroke-dasharray:none;stroke-opacity:1"
       d="m 115.23538,230.44887 c -16.196344,5.3238 -13.8764,14.98207 2.92417,11.09709"
       id="path61-5"
       sodipodi:nodetypes="cc" />
    <path
       style="fill:#b98bfe;fill-opacity:1;fill-rule:nonzero;stroke:#370188;stroke-width:3.175;stroke-dasharray:none;stroke-opacity:1"
       d="m 132.58463,215.2955 c -25.53269,-25.4005 -6.65649,-52.884 18.84146,-51.92555 25.11597,0.9441 40.37051,29.17676 17.00911,51.85551 3.85426,24.96866 10.08031,70.52398 10.63111,104.67395 -1.63141,9.34331 -16.16078,8.97821 -17.23816,-1.43651 -1.0774,-10.41472 -14.01283,-11.94106 -14.57937,-0.16732 -0.50343,10.462 -17.3109,10.41553 -17.74219,-0.19181 -2.53708,-17.45114 1.06293,-77.48944 3.07804,-102.80824 z"
       id="path49-5"
       sodipodi:nodetypes="csccssccc" />
    <path
       style="fill:#370188;fill-opacity:1;fill-rule:nonzero;stroke:#370188;stroke-width:3.175;stroke-dasharray:none;stroke-opacity:1"
       d="m 150.12371,197.79601 c 0.53238,0.0111 3.57276,-4.01334 3.31508,-4.46342 -0.25781,-0.45008 -6.11673,-0.63217 -6.46579,-0.15106 -0.34906,0.48111 2.61832,4.6035 3.15071,4.61448 z"
       id="path51-1"
       sodipodi:nodetypes="zzzz" />
    <path
       style="fill:#6002ee;fill-opacity:1;fill-rule:nonzero;stroke:#370188;stroke-width:3.175;stroke-dasharray:none;stroke-opacity:1"
       d="m 157.018,194.81841 9.24445,1.75721"
       id="path52-3" />
    <path
       style="fill:#6002ee;fill-opacity:1;fill-rule:nonzero;stroke:#370188;stroke-width:3.175;stroke-dasharray:none;stroke-opacity:1"
       d="m 155.56639,198.94403 7.33444,3.66721"
       id="path53-8" />
    <path
       style="fill:#6002ee;fill-opacity:1;fill-rule:nonzero;stroke:#370188;stroke-width:3.175;stroke-dasharray:none;stroke-opacity:1"
       d="m 142.98116,194.69325 -9.24445,1.75721"
       id="path52-5-4" />
    <path
       style="fill:#6002ee;fill-opacity:1;fill-rule:nonzero;stroke:#370188;stroke-width:3.175;stroke-dasharray:none;stroke-opacity:1"
       d="m 144.43277,198.81887 -7.33444,3.66722"
       id="path53-5-8" />
    <path
       style="fill:#ee02ca;fill-opacity:1;fill-rule:nonzero;stroke:#370188;stroke-width:3.175;stroke-dasharray:none;stroke-opacity:1"
       d="m 124.25022,318.73812 26.58288,0.41306 3.29812,-15.55067 3.43056,15.49143 27.34977,-0.10287 -5.70738,-57.54784 -53.14426,0.29356 z"
       id="path55-5"
       sodipodi:nodetypes="cccccccc" />
    <path
       style="fill:#ee02ca;fill-opacity:1;fill-rule:nonzero;stroke:#370188;stroke-width:3.175;stroke-dasharray:none;stroke-opacity:1"
       d="m 168.46635,214.35125 16.8729,71.52353 -63.39859,-0.3447 9.64289,-70.83413 15.05207,4.21067 4.05041,7.53826 3.71288,-7.31323 z"
       id="path56-4"
       sodipodi:nodetypes="cccccccc" />
    <path
       style="fill:#ee02ca;fill-opacity:1;fill-rule:nonzero;stroke:#370188;stroke-width:3.175;stroke-dasharray:none;stroke-opacity:1"
       d="m 132.19883,220.65846 -17.53946,6.13269 3.43427,17.48754 13.61456,-3.06634"
       id="path57-5"
       sodipodi:nodetypes="cccc" />
    <path
       style="fill:#ee02ca;fill-opacity:1;fill-rule:nonzero;stroke:#370188;stroke-width:3.175;stroke-dasharray:none;stroke-opacity:1"
       d="m 168.8129,220.47533 17.53946,6.13268 -3.43427,17.48755 -13.61456,-3.06635"
       id="path57-4-6"
       sodipodi:nodetypes="cccc" />
    <path
       style="fill:#ee02ca;fill-opacity:1;fill-rule:nonzero;stroke:#370188;stroke-width:3.175;stroke-dasharray:none;stroke-opacity:1"
       d="m 131.54304,214.72016 -3.91468,6.00248 17.09404,5.21954 1.21104,-6.91701 z"
       id="path58-6"
       sodipodi:nodetypes="ccccc" />
    <path
       style="fill:#ee02ca;fill-opacity:1;fill-rule:nonzero;stroke:#370188;stroke-width:3.175;stroke-dasharray:none;stroke-opacity:1"
       d="m 155.25308,218.76531 13.21822,-4.43661 3.91465,6.43651 -14.98673,4.87935 z"
       id="path59-0"
       sodipodi:nodetypes="ccccc" />
    <path
       style="fill:#ffffff;fill-opacity:1;fill-rule:nonzero;stroke:#370188;stroke-width:3.175;stroke-dasharray:none;stroke-opacity:1"
       d="m 150.71445,224.96326 3e-5,59.83336"
       id="path60-3"
       sodipodi:nodetypes="cc" />
    <circle
       style="fill:#370188;fill-opacity:1;stroke:#370188;stroke-width:0.797947;stroke-opacity:1"
       id="path3-3-6-6-7-8"
       r="0.75558645"
       cy="269.72116"
       cx="155.94954"
       inkscape:transform-center-x="2.5473966"
       inkscape:transform-center-y="-7.9173349e-05" />
    <circle
       style="fill:#370188;fill-opacity:1;stroke:#370188;stroke-width:0.797947;stroke-opacity:1"
       id="path3-3-6-60-5-0"
       r="0.75558645"
       cy="278.99792"
       cx="155.71922"
       inkscape:transform-center-x="2.5474322"
       inkscape:transform-center-y="1.983531e-06" />
    <circle
       style="fill:#370188;fill-opacity:1;stroke:#370188;stroke-width:0.797947;stroke-opacity:1"
       id="path3-3-6-6-7-0-9"
       r="0.75558645"
       cy="251.7126"
       cx="155.6577"
       inkscape:transform-center-x="2.5473966"
       inkscape:transform-center-y="-7.9173349e-05" />
    <circle
       style="fill:#370188;fill-opacity:1;stroke:#370188;stroke-width:0.797947;stroke-opacity:1"
       id="path3-3-6-60-5-3-0"
       r="0.75558645"
       cy="260.7236"
       cx="155.87004"
       inkscape:transform-center-x="2.5474322"
       inkscape:transform-center-y="1.983531e-06" />
    <circle
       style="fill:#370188;fill-opacity:1;stroke:#370188;stroke-width:0.797947;stroke-opacity:1"
       id="path3-3-6-6-7-0-0-7"
       r="0.75558645"
       cy="233.09227"
       cx="155.56622"
       inkscape:transform-center-x="2.5473966"
       inkscape:transform-center-y="-7.9173349e-05" />
    <circle
       style="fill:#370188;fill-opacity:1;stroke:#370188;stroke-width:0.797947;stroke-opacity:1"
       id="path3-3-6-60-5-3-6-9"
       r="0.75558645"
       cy="242.63463"
       cx="155.60139"
       inkscape:transform-center-x="2.5474322"
       inkscape:transform-center-y="1.983531e-06" />
    <path
       style="fill:#ffffff;fill-opacity:1;fill-rule:nonzero;stroke:#370188;stroke-width:3.175;stroke-dasharray:none;stroke-opacity:1"
       d="m 133.05821,177.89661 c 0,0 9.8352,-1.2062 12.3404,1.48456 2.5052,2.69076 1.57734,10.4847 -3.52581,10.29913 -5.10317,-0.18558 -9.27852,-3.61862 -8.81459,-11.78369 z"
       id="path62-8" />
    <path
       style="fill:#ffffff;fill-opacity:1;fill-rule:nonzero;stroke:#370188;stroke-width:3.175;stroke-dasharray:none;stroke-opacity:1"
       d="m 167.06408,178.02093 c 0,0 -9.8352,-1.20621 -12.3404,1.48455 -2.5052,2.69077 -1.57734,10.4847 3.5258,10.29913 5.10318,-0.18558 9.27853,-3.61861 8.8146,-11.78368 z"
       id="path62-2-7" />
    <path
       style="fill:#ffffff;fill-opacity:1;fill-rule:nonzero;stroke:#370188;stroke-width:3.175;stroke-dasharray:none;stroke-opacity:1"
       d="m 132.8598,180.10716 -8.09517,-1.80951"
       id="path63-1" />
    <path
       style="fill:#ffffff;fill-opacity:1;fill-rule:nonzero;stroke:#370188;stroke-width:3.175;stroke-dasharray:none;stroke-opacity:1"
       d="m 167.24054,180.48811 8.57136,-1.71427"
       id="path64-1" />
    <path
       style="fill:#ffffff;fill-opacity:1;fill-rule:nonzero;stroke:#370188;stroke-width:3.175;stroke-dasharray:none;stroke-opacity:1"
       d="m 146.38353,182.4881 c 0.85712,-1.5238 5.80948,-1.80951 7.33329,-0.28572"
       id="path65-1" />
    <path
       style="fill:#b98bfe;fill-opacity:1;fill-rule:nonzero;stroke:#370188;stroke-width:3.175;stroke-dasharray:none;stroke-opacity:1"
       d="m 168.1444,172.17918 c 0,0 1.31328,-13.11396 -0.93621,-14.04122 -2.24949,-0.92726 -10.69803,10.16317 -10.69803,10.16317"
       id="path66-0-8"
       sodipodi:nodetypes="czc" />
    <path
       style="fill:#b98bfe;fill-opacity:1;fill-rule:nonzero;stroke:#370188;stroke-width:3.175;stroke-dasharray:none;stroke-opacity:1"
       d="m 130.86028,172.30554 c 0,0 -1.31327,-13.11395 0.93622,-14.04121 2.24948,-0.92726 10.69803,10.16316 10.69803,10.16316"
       id="path66-0-3-2"
       sodipodi:nodetypes="czc" />
    <path
       style="fill:none;fill-opacity:1;fill-rule:nonzero;stroke:#370188;stroke-width:3.175;stroke-dasharray:none;stroke-opacity:1"
       d="m 154.40256,304.79968 4.00386,0.24578 -2.77495,-14.501"
       id="path78-9"
       sodipodi:nodetypes="ccc" />
    <path
       style="fill:none;stroke:#370188;stroke-width:3.175"
       d="m 137.60598,185.27931 c 0.40012,-3.0739 4.73898,-3.17942 5.66938,-0.23355"
       id="path1"
       sodipodi:nodetypes="cc" />
    <path
       style="fill:none;stroke:#370188;stroke-width:3.175"
       d="m 156.919,185.17185 c 0.40011,-3.07391 4.73897,-3.17942 5.66938,-0.23356"
       id="path1-0"
       sodipodi:nodetypes="cc" />
    <path
       style="fill:#018816;fill-opacity:1;stroke:#370188;stroke-width:3.175;stroke-dasharray:none;stroke-opacity:1"
       d="m 37.318506,265.27517 -2.44822,35.65858 51.51866,1.38376 -2.02244,-39.59698 z"
       id="path25-4-0" />
    <path
       style="fill:#ffffff;fill-opacity:1;stroke:#370188;stroke-width:3.175;stroke-dasharray:none;stroke-opacity:1"
       d="m 20.657246,273.72298 c 0,15.83268 7.10917,26.92819 17.07232,33.28661 2.37049,1.51282 4.90258,2.75752 7.53891,3.73402 23.31663,8.63654 54.788094,-3.70364 54.763774,-37.02063 l -15.068044,15.50715 -15.15129,-6.57609 -19.95755,9.34237 -10.75537,-11.69092 -8.49021,5.14359 z"
       id="path1-8-5"
       sodipodi:nodetypes="cssccccccc" />
    <path
       style="fill:#370189;fill-opacity:1;stroke:#370188;stroke-width:0;stroke-dasharray:none;stroke-opacity:1"
       d="m 44.585246,309.05892 -3.82692,-5.27259 5.07118,2.35369 1.32626,-3.92795 0.37681,4.14213 4.16998,-3.19913 -2.57347,4.76485 5.63245,0.54649 -3.69281,2.89899 z"
       id="path3-2-0"
       sodipodi:nodetypes="cccccccccc" />
    <path
       style="fill:#370189;fill-opacity:1;stroke:#370188;stroke-width:0;stroke-dasharray:none;stroke-opacity:1"
       d="m 75.729966,309.59528 3.03511,-5.32826 -4.74551,2.65567 -0.40824,-3.99876 -1.23584,4.49196 -4.72465,-1.3668 3.40941,3.17528 -4.78181,1.08258 4.5025,2.28216 z"
       id="path3-1-5-5"
       sodipodi:nodetypes="cccccccccc" />
    <path
       style="fill:#ee4302;fill-opacity:1;stroke:#370188;stroke-width:3.175;stroke-dasharray:none;stroke-opacity:1"
       d="m 45.179576,310.38899 c -0.0908,0.82798 -0.1108,10.87927 -0.1108,10.87927 l -7.65791,4.01428 9.17048,-1.55093 0.74285,0.90942 0.70028,-0.93297 8.75249,1.41576 -6.92598,-3.71138 c 0,0 0.0702,-8.98281 0.0127,-9.10428 z"
       id="path7-8-7"
       sodipodi:nodetypes="cccccccccc" />
    <path
       style="fill:#ee4302;fill-opacity:1;stroke:#370188;stroke-width:3.175;stroke-dasharray:none;stroke-opacity:1"
       d="m 75.218126,309.65109 0.34004,12.60688 7.87114,2.69119 -9.9795,-1.45316 -0.74285,0.90941 -0.70031,-0.93297 -9.07621,1.20136 7.41826,-3.10319 c 0,0 0.16637,-9.20292 0.1797,-9.394 z"
       id="path7-4-0-4"
       sodipodi:nodetypes="cccccccccc" />
    <path
       style="fill:none;fill-opacity:1;stroke:#370188;stroke-width:3.175;stroke-dasharray:none;stroke-opacity:1"
       d="m 45.677736,286.07135 3.90573,-9.47851 22.30545,-0.053 3.05492,7.69033"
       id="path19-60-8"
       sodipodi:nodetypes="cccc" />
    <path
       style="fill:#fdc458;fill-opacity:1;stroke:#370188;stroke-width:3.175;stroke-dasharray:none;stroke-opacity:1"
       d="m 34.033746,255.32897 c 0,0 -38.4727804,27.21074 6.9562,15.58833 z"
       id="path17-0-0"
       sodipodi:nodetypes="ccc" />
    <path
       style="fill:#fdc458;fill-opacity:1;stroke:#370188;stroke-width:3.175;stroke-dasharray:none;stroke-opacity:1"
       d="m 90.286266,256.36786 c 0,0 34.302284,21.19084 -7.53479,15.42339 z"
       id="path16-7-6"
       sodipodi:nodetypes="ccc" />
    <path
       style="fill:#fdc458;fill-opacity:1;stroke:#370188;stroke-width:3.175;stroke-dasharray:none;stroke-opacity:1"
       d="m 76.664366,241.56754 c 17.42596,-38.94192 -49.63083,-38.34514 -32.5915,0.64325 l 15.59275,7.69652 z"
       id="path23-5-0"
       sodipodi:nodetypes="cccc" />
    <path
       style="fill:#018816;fill-opacity:1;stroke:#370188;stroke-width:3.175;stroke-dasharray:none;stroke-opacity:1"
       d="m 43.032516,271.0302 -9.8003,4.04721 -6.6215,-19.13719 13.52252,-5.46455 -0.30575,-10.09069 19.87556,9.57891 20.4871,-10.49623 v 8.56176 l 14.32217,7.7724 -6.5907,18.69104 -9.53128,-3.85836"
       id="path12-0-59"
       sodipodi:nodetypes="ccccccccccc" />
    <path
       style="fill:none;fill-opacity:1;stroke:#370188;stroke-width:3.175;stroke-dasharray:none;stroke-opacity:1"
       d="m 39.828116,250.27415 19.87493,4.4824 20.9963,-6.52113"
       id="path22-1-3"
       sodipodi:nodetypes="ccc" />
    <path
       style="fill:none;fill-opacity:1;stroke:#370188;stroke-width:3.175;stroke-dasharray:none;stroke-opacity:1"
       d="m 50.521456,249.32721 -3.37312,20.3066"
       id="path10-79-76"
       sodipodi:nodetypes="cc" />
    <path
       style="fill:none;fill-opacity:1;stroke:#370188;stroke-width:3.175;stroke-dasharray:none;stroke-opacity:1"
       d="m 67.961346,248.82079 2.50114,20.97739"
       id="path11-71-2"
       sodipodi:nodetypes="cc" />
    <path
       style="fill:none;fill-opacity:1;stroke:#370188;stroke-width:3.175;stroke-dasharray:none;stroke-opacity:1"
       d="m 59.358116,231.73225 5.98274,3.09451 -7.22055,3.30086"
       id="path24-70-98" />
    <path
       style="fill:none;fill-opacity:1;stroke:#370188;stroke-width:3.175;stroke-dasharray:none;stroke-opacity:1"
       d="m 60.472406,214.66386 c 5.40633,-4.70872 -5.05748,-5.05752 0.52321,-8.89426"
       id="path26-0-5"
       sodipodi:nodetypes="cc" />
    <path
       style="fill:none;stroke:#370188;stroke-width:3.175"
       d="m 51.487796,226.65569 c 0.40011,-3.07391 4.73897,-3.17942 5.66938,-0.23356"
       id="path1-7"
       sodipodi:nodetypes="cc" />
    <path
       style="fill:none;stroke:#370188;stroke-width:3.175"
       d="m 64.186046,226.54822 c 0.40012,-3.0739 4.73898,-3.17942 5.66938,-0.23355"
       id="path1-0-8"
       sodipodi:nodetypes="cc" />
    <g
       id="g11"
       clip-path="url(#clipPath11)">
      <path
         style="fill:#bb7a02;fill-opacity:1;stroke:#370188;stroke-width:3.175;stroke-dasharray:none;stroke-opacity:1"
         d="m 236.61988,314.86299 31.97746,5.88806 42.11444,-6.06376 -13.47289,-36.36905 -48.2159,-2.95889 z"
         id="path31"
         sodipodi:nodetypes="cccccc"
         clip-path="url(#clipPath9)" />
      <path
         style="fill:#fdc458;fill-opacity:1;stroke:#370188;stroke-width:3.175;stroke-dasharray:none;stroke-opacity:1"
         d="m 220.86169,274.28802 c -5.55973,0.9605 -8.23371,4.32011 -9.96277,6.15952 -2.63135,2.79928 -4.99161,2.40658 -4.65757,-0.7292 0.59754,-5.60935 10.19091,-11.53087 14.20248,-11.90652"
         id="path30"
         sodipodi:nodetypes="cssc" />
      <path
         style="fill:#fdc458;fill-opacity:1;stroke:#370188;stroke-width:3.175;stroke-dasharray:none;stroke-opacity:1"
         d="m 237.02885,239.27791 c -12.13056,0.26608 -15.89227,11.18217 -16.14989,18.02856 -0.35985,9.56319 -1.39128,41.01085 1.92154,52.84228 3.3128,11.83142 5.2058,15.61748 24.13607,16.09073 18.9303,0.47326 66.25599,-0.47325 66.25599,-0.47325 0,0 -50.40306,-5.73793 -56.08215,-15.67633 -5.67909,-9.93841 -6.6762,-42.05426 -6.38778,-52.47267 0.20733,-7.48503 -2.33563,-17.86606 -13.69378,-18.33932 z"
         id="path26"
         sodipodi:nodetypes="cssscssc"
         clip-path="url(#clipPath8)" />
      <path
         sodipodi:type="spiral"
         style="fill:#bb7a02;fill-opacity:1;fill-rule:evenodd;stroke:#370188;stroke-width:0.695287;stroke-dasharray:none;stroke-opacity:1"
         id="path27"
         sodipodi:cx="105.75211"
         sodipodi:cy="39.133308"
         sodipodi:expansion="1.9"
         sodipodi:revolution="1.8526812"
         sodipodi:radius="10.963904"
         sodipodi:argument="-18.497511"
         sodipodi:t0="0.12886804"
         d="m 105.69006,39.348002 c -0.32401,0.23185 -0.69518,-0.169724 -0.77545,-0.456763 -0.23505,-0.84048 0.61833,-1.513252 1.36817,-1.59391 1.54382,-0.166068 2.64192,1.346958 2.66371,2.75927 0.0376,2.433734 -2.34374,4.074062 -4.61129,3.978909 -3.50843,-0.147224 -5.803332,-3.600767 -5.534662,-6.911455 0.386726,-4.765445 5.112132,-7.824404 9.650082,-7.326992 2.50124,0.274164 4.82855,1.527219 6.51074,3.386706"
         transform="matrix(-4.5664566,0,0,4.5664566,776.77317,120.83123)" />
      <circle
         style="fill:#fdc458;fill-opacity:1;stroke:#370188;stroke-width:3.175;stroke-dasharray:none;stroke-opacity:1"
         id="path28"
         cx="217.46312"
         cy="220.72606"
         r="2.4649308" />
      <path
         style="fill:#ffffff;fill-opacity:1;stroke:#370188;stroke-width:3.175;stroke-dasharray:none;stroke-opacity:1"
         d="m 226.82983,242.12167 -7.88775,-18.53628"
         id="path29" />
      <circle
         style="fill:#fdc458;fill-opacity:1;stroke:#370188;stroke-width:3.175;stroke-dasharray:none;stroke-opacity:1"
         id="path28-0"
         cx="-254.61967"
         cy="220.40582"
         r="2.4649308"
         transform="scale(-1,1)"
         clip-path="url(#clipPath7)" />
      <path
         style="fill:#ffffff;fill-opacity:1;stroke:#370188;stroke-width:3.175;stroke-dasharray:none;stroke-opacity:1"
         d="m 245.25296,241.80142 7.88775,-18.53627"
         id="path29-6" />
      <path
         style="fill:#fdc458;fill-opacity:1;stroke:#370188;stroke-width:3.175;stroke-dasharray:none;stroke-opacity:1"
         d="m 248.55871,273.72683 c 5.55971,0.96049 7.91991,6.20281 9.64898,8.04223 2.63135,2.79929 5.30539,1.67442 4.97135,-1.46136 -0.59753,-5.60935 -10.19092,-12.68142 -14.20247,-13.05707"
         id="path30-2"
         sodipodi:nodetypes="cssc" />
      <path
         style="mix-blend-mode:normal;fill:#02ee25;fill-opacity:1;fill-rule:nonzero;stroke:#370188;stroke-width:3.175;stroke-dasharray:none;stroke-opacity:1"
         d="m 218.21883,268.20134 1.62537,6.72842 -0.67368,5.19753 c 0,4.76464 -0.0632,31.61077 -8.46842,42.20189 15.83811,0.55553 79.83357,-0.15519 88.3358,-0.18221 -37.05259,-4.98841 -47.55622,-40.64825 -49.38614,-44.23874 -0.26352,-0.51678 -0.23241,-2.66961 -0.23241,-2.66961 l 2.67863,-6.24797 -2.90824,-3.10851 -4.96751,6.207 -19.50784,-0.1624 -3.45027,-6.30801 z"
         id="path33"
         sodipodi:nodetypes="cccccsccccccc"
         clip-path="url(#clipPath4)" />
      <path
         style="fill:none;stroke:#370188;stroke-width:3.175"
         d="m 227.94715,253.74447 c 0.40011,-3.07391 4.73897,-3.17944 5.66937,-0.23368"
         id="path1-75"
         sodipodi:nodetypes="cc" />
      <path
         style="fill:none;stroke:#370188;stroke-width:3.175"
         d="m 238.01949,253.74449 c 0.40011,-3.07391 4.73897,-3.17942 5.66937,-0.23368"
         id="path1-0-7"
         sodipodi:nodetypes="cc" />
    </g>
    <rect
       style="fill:none;fill-opacity:1;fill-rule:nonzero;stroke:#370188;stroke-width:3.175;stroke-dasharray:none;stroke-opacity:1"
       id="rect113-4-2"
       width="282.57498"
       height="354.01248"
       x="1.5875"
       y="1.5875" />
  </g>
</svg>
