<?xml version="1.0" encoding="UTF-8" standalone="no"?>
<!-- Created with Inkscape (http://www.inkscape.org/) -->

<svg
   width="1080"
   height="1350"
   viewBox="0 0 285.74999 357.1875"
   version="1.1"
   id="svg1"
   inkscape:version="1.4 (e7c3feb1, 2024-10-09)"
   sodipodi:docname="panel-00.svg"
   xmlns:inkscape="http://www.inkscape.org/namespaces/inkscape"
   xmlns:sodipodi="http://sodipodi.sourceforge.net/DTD/sodipodi-0.dtd"
   xmlns="http://www.w3.org/2000/svg"
   xmlns:svg="http://www.w3.org/2000/svg">
  <sodipodi:namedview
     id="namedview1"
     pagecolor="#ffffff"
     bordercolor="#000000"
     borderopacity="0.25"
     inkscape:showpageshadow="2"
     inkscape:pageopacity="0.0"
     inkscape:pagecheckerboard="0"
     inkscape:deskcolor="#d1d1d1"
     inkscape:document-units="px"
     inkscape:zoom="0.37172659"
     inkscape:cx="336.26865"
     inkscape:cy="785.52358"
     inkscape:window-width="1728"
     inkscape:window-height="1057"
     inkscape:window-x="0"
     inkscape:window-y="32"
     inkscape:window-maximized="0"
     inkscape:current-layer="layer1" />
  <defs
     id="defs1">
    <rect
       x="337.60629"
       y="293.08679"
       width="868.13049"
       height="871.84045"
       id="rect26" />
    <rect
       x="358.01108"
       y="335.75131"
       width="877.4054"
       height="734.57196"
       id="rect25" />
    <rect
       x="418.44797"
       y="244.75258"
       width="748.0744"
       height="801.36731"
       id="rect16" />
    <clipPath
       clipPathUnits="userSpaceOnUse"
       id="clipPath3">
      <rect
         style="fill:#370188;stroke:#370188;stroke-width:3.175"
         id="rect4"
         width="387.91391"
         height="225.63065"
         x="-131.6772"
         y="-44.129654"
         ry="1.5951835" />
    </clipPath>
  </defs>
  <g
     inkscape:label="Layer 1"
     inkscape:groupmode="layer"
     id="layer1">
    <rect
       style="fill:none;fill-opacity:1;fill-rule:nonzero;stroke:#370188;stroke-width:3.175;stroke-dasharray:none;stroke-opacity:1"
       id="rect113-4-2"
       width="282.57498"
       height="354.01248"
       x="1.5875"
       y="1.5875"
       inkscape:label="panel-border" />
    <g
       id="g1"
       inkscape:label="productkind-logo">
      <rect
         width="9.8019896"
         height="15.875"
         rx="0"
         ry="0"
         fill="#6002ee"
         stroke-width="0"
         id="rect1-3-4-39-4-2-0-5-6"
         x="247.60098"
         y="332.84583"
         inkscape:label="logo-k-rect" />
      <text
         font-family="Montserrat"
         font-size="465.256px"
         font-weight="200"
         stroke-width="0"
         fill="#33333"
         id="text3-0-3-6-4-3-4-3-7-8"
         x="257.78415"
         y="345.42685"
         style="font-style:normal;font-variant:normal;font-weight:300;font-stretch:normal;font-size:13.0774px;font-family:Montserrat;-inkscape-font-specification:'Montserrat Light'"
         transform="scale(0.99938968,1.0006107)"
         inkscape:label="logo-ind"><tspan
           y="345.42685"
           font-weight="200"
           stroke-width="0"
           id="tspan1-4-8-3-6-9-9-9-7-0"
           style="font-style:normal;font-variant:normal;font-weight:300;font-stretch:normal;font-size:13.0774px;font-family:Montserrat;-inkscape-font-specification:'Montserrat Light'">ind</tspan></text>
      <text
         font-family="Montserrat"
         font-size="618.11px"
         font-weight="200"
         stroke-width="0"
         fill="#33333"
         id="text3-0-3-0-0-5-3-3-2"
         x="248.33717"
         y="345.42685"
         style="font-style:normal;font-variant:normal;font-weight:300;font-stretch:normal;font-size:13.0774px;font-family:Montserrat;-inkscape-font-specification:'Montserrat Light'"
         transform="scale(0.99938968,1.0006107)"
         inkscape:label="logo-k"><tspan
           y="345.42685"
           font-weight="200"
           stroke-width="0"
           id="tspan1-4-8-6-2-1-2-5-9"
           style="font-style:normal;font-variant:normal;font-weight:300;font-stretch:normal;font-size:13.0774px;font-family:Montserrat;-inkscape-font-specification:'Montserrat Light'"><tspan
             style="font-style:normal;font-variant:normal;font-weight:300;font-stretch:normal;font-size:13.0774px;font-family:Montserrat;-inkscape-font-specification:'Montserrat Light';fill:#ffffff;fill-opacity:1;stroke-width:0"
             id="tspan3-6-3-13-5-2-1-6-6">k</tspan></tspan></text>
      <text
         dx="0"
         dy="0"
         font-family="Montserrat"
         font-size="465.256px"
         font-weight="200"
         stroke-width="0"
         fill="#33333"
         id="text3-0-3-6-8-4-0-8-9"
         x="195.17656"
         y="345.42685"
         style="font-style:normal;font-variant:normal;font-weight:300;font-stretch:normal;font-size:13.0774px;font-family:Montserrat;-inkscape-font-specification:'Montserrat Light'"
         transform="scale(0.99938968,1.0006107)"
         inkscape:label="logo-product"><tspan
           y="345.42685"
           font-weight="200"
           stroke-width="0"
           id="tspan1-4-8-3-9-0-0-6-9"
           style="font-style:normal;font-variant:normal;font-weight:300;font-stretch:normal;font-size:13.0774px;font-family:Montserrat;-inkscape-font-specification:'Montserrat Light'">product</tspan></text>
    </g>
    <g
       id="g9"
       inkscape:label="chick-egg"
       transform="matrix(3.1749999,0,0,3.1749999,-887.95932,-453.56286)">
      <path
         style="fill:#ee4302;fill-opacity:1;stroke:#370188;stroke-width:1;stroke-dasharray:none;stroke-opacity:1"
         d="m 304.83549,237.71341 c -0.0286,0.26077 -0.0349,3.42654 -0.0349,3.42654 l -2.41194,1.26434 2.88834,-0.48849 0.23397,0.28643 0.22056,-0.29385 2.75669,0.44592 -2.18141,-1.16894 c 0,0 0.0221,-2.82924 0.004,-2.8675 z"
         id="path7-8-1"
         sodipodi:nodetypes="cccccccccc" />
      <path
         style="fill:#ee4302;fill-opacity:1;stroke:#370188;stroke-width:1;stroke-dasharray:none;stroke-opacity:1"
         d="m 314.29645,237.48099 0.1071,3.97068 2.4791,0.84761 -3.14315,-0.45768 -0.23397,0.28643 -0.22057,-0.29385 -2.85865,0.37838 2.33646,-0.97738 c 0,0 0.0524,-2.89857 0.0566,-2.95875 z"
         id="path7-4-0-2-3"
         sodipodi:nodetypes="cccccccccc" />
      <path
         style="fill:#ffffff;fill-opacity:1;stroke:#370188;stroke-width:1;stroke-dasharray:none;stroke-opacity:1"
         d="m 297.18989,225.91247 c 0,4.98667 2.23911,8.48133 5.37711,10.48397 0.74661,0.47649 1.54412,0.86851 2.37446,1.17607 7.34382,2.72018 17.25609,-1.1665 17.24844,-11.66004 -0.007,-10.13621 -6.39549,-20.91407 -12.50001,-20.83333 -6.10451,0.0807 -12.5,10.51866 -12.5,20.83333 z"
         id="path1-1"
         sodipodi:nodetypes="sssszs" />
      <path
         style="fill:#370188;fill-opacity:1;stroke:#370188;stroke-width:0;stroke-dasharray:none;stroke-opacity:1"
         d="m 304.72627,237.04191 -1.20533,-1.66067 1.59722,0.74132 0.41772,-1.23714 0.11868,1.3046 1.31338,-1.0076 -0.81054,1.50074 1.774,0.17212 -1.16309,0.91307 z"
         id="path3-19"
         sodipodi:nodetypes="cccccccccc" />
      <path
         style="fill:#370188;fill-opacity:1;stroke:#370188;stroke-width:0;stroke-dasharray:none;stroke-opacity:1"
         d="m 314.53563,237.21083 0.95594,-1.67819 -1.49465,0.83643 -0.12858,-1.25945 -0.38924,1.4148 -1.48808,-0.4305 1.07383,1.00009 -1.50608,0.34097 1.41811,0.71879 z"
         id="path3-1-8"
         sodipodi:nodetypes="cccccccccc" />
      <path
         style="fill:#fdc458;fill-opacity:1;stroke:#370188;stroke-width:1;stroke-dasharray:none;stroke-opacity:1"
         d="m 304.27922,214.44244 -0.8352,-3.04252 2.52747,0.96241 1.4099,-1.85727 1.16532,1.63456 2.83172,-2.11182 -0.17898,2.50561 3.04252,-1.19315 -1.13349,2.74423 1.61075,1.19315 -3.86085,0.19468 -0.31516,2.13195 -1.74284,-2.73185 -4.00574,2.33786 0.73738,-2.64853 z"
         id="path27"
         sodipodi:nodetypes="cccccccccccccccc" />
      <circle
         style="fill:#370188;fill-opacity:1;stroke:none;stroke-width:2.56223;stroke-dasharray:none;stroke-opacity:1"
         id="path9-5-5"
         cx="307.1008"
         cy="213.92265"
         r="0.53713524" />
      <circle
         style="fill:#370188;fill-opacity:1;stroke:none;stroke-width:2.56223;stroke-dasharray:none;stroke-opacity:1"
         id="path9-4-2-2"
         cx="311.03677"
         cy="213.94948"
         r="0.53713524" />
    </g>
    <g
       id="g3"
       inkscape:label="kim-coffee"
       transform="matrix(3.1749999,0,0,3.1749999,40.885912,-504.93238)">
      <path
         style="fill:#ffffff;fill-opacity:1;stroke:#370188;stroke-width:1.0053;stroke-dasharray:none;stroke-opacity:1"
         d="m 53.1253,241.37655 c 0.25531,2.0425 1.409609,6.63258 3.794299,9.42012 1.916261,2.23997 4.551562,2.65051 5.878532,3.37621 3.055229,1.67087 2.115638,4.38815 -0.603701,3.69579 -3.963241,-1.00905 -9.9504,-2.17752 -9.674119,-4.94036"
         id="path2-4"
         sodipodi:nodetypes="csssc" />
      <path
         style="fill:#ffffff;fill-opacity:1;stroke:#370188;stroke-width:1.0053;stroke-dasharray:none;stroke-opacity:1"
         d="m 38.273671,213.92748 c -0.931411,-1.14462 0.225537,-2.0901 1.188189,-0.78542"
         id="path15-0"
         sodipodi:nodetypes="cc" />
      <path
         style="fill:#ffffff;fill-opacity:1;stroke:#370188;stroke-width:1.00532;stroke-dasharray:none;stroke-opacity:1"
         d="m 44.782471,221.53629 c -2.89593,5.41084 -13.870011,2.13385 -9.526111,-3.73423 4.3439,-5.86809 6.020499,-6.40155 9.4499,-6.24914 3.429399,0.15242 6.13847,3.22467 6.477761,5.71568 0.446879,3.28084 1.03994,18.50631 1.802038,23.00263 0.62439,3.68395 -0.248139,10.65462 -0.650838,14.57519 -0.0888,0.86456 -0.154762,1.5808 -0.176781,2.08076 -0.13864,3.14753 -4.192611,3.384 -4.420129,0.22863 -0.168561,-2.33793 -3.15218,-1.94141 -3.246602,0 -0.14103,2.89984 -4.308069,2.85233 -4.558368,-0.0816 -0.290501,-3.40514 -1.928933,-12.72052 -1.609862,-16.32132 0.30389,-3.4294 2.11508,-16.54927 2.11508,-16.54927 v 0"
         id="path1-2"
         sodipodi:nodetypes="csssssssssscc" />
      <path
         style="fill:none;fill-opacity:1;stroke:#370188;stroke-width:1.00493;stroke-dasharray:none;stroke-opacity:1"
         d="m 38.713391,216.0683 c 0.487578,-1.41508 2.635968,-0.54537 1.99971,0.45448"
         id="path32"
         sodipodi:nodetypes="cc" />
      <path
         style="fill:none;fill-opacity:1;stroke:#370188;stroke-width:1.00493;stroke-dasharray:none;stroke-opacity:1"
         d="m 42.347511,217.31598 c 0.487578,-1.41508 2.635978,-0.54537 1.999697,0.45448"
         id="path32-9"
         sodipodi:nodetypes="cc" />
      <path
         style="fill:#370188;fill-opacity:1;stroke:#370188;stroke-width:1.0053;stroke-dasharray:none;stroke-opacity:1"
         d="m 37.84615,219.50898 c 0.33251,-0.21568 1.568961,0.14542 1.72549,0.4853 0.146441,0.31798 -1.19343,0.9897 -1.419931,0.86275 -0.165808,-0.0929 -0.638079,-1.13236 -0.305559,-1.34805 z"
         id="path4"
         sodipodi:nodetypes="zssz" />
      <path
         style="fill:#fd58e5;fill-opacity:1;stroke:#370188;stroke-width:1.0053;stroke-dasharray:none;stroke-opacity:1"
         d="m 52.916408,248.99817 -0.31103,8.65662 -5.987058,-0.18143 -0.622031,-1.86609 -0.544281,1.89201 -6.37583,0.18143 c 0,0 -0.0663,-6.24793 -0.207338,-9.07131 -0.14103,-2.82337 -0.972479,-4.17345 -0.60646,-7.86435 0.366019,-3.6909 1.717521,-14.06899 1.717521,-14.06899 l 1.65275,0.35416 1.53469,3.18744 1.298589,-3.24646 7.26028,-0.47222 c 0,0 0.54292,9.49339 1.301159,13.98927 0.758239,4.49588 -0.110961,8.50992 -0.110961,8.50992 z"
         id="path14"
         sodipodi:nodetypes="cccccczzccccczc" />
      <path
         style="fill:#ffffff;fill-opacity:1;stroke:#370188;stroke-width:1.0053;stroke-dasharray:none;stroke-opacity:1"
         d="m 44.6866,226.70381 -1.303549,3.5152"
         id="path10-5"
         sodipodi:nodetypes="cc" />
      <path
         style="fill:#fd58e5;fill-opacity:1;stroke:#370188;stroke-width:1.0053;stroke-dasharray:none;stroke-opacity:1"
         d="m 45.85769,229.82134 -0.960929,-2.79858 6.901398,-0.50441 0.825412,2.82017 z"
         id="path7-1"
         sodipodi:nodetypes="ccccc" />
      <path
         style="fill:#ffffff;fill-opacity:1;stroke:#370188;stroke-width:1.0053;stroke-dasharray:none;stroke-opacity:1"
         d="M 43.285939,230.30665 41.6946,226.7038"
         id="path9-9"
         sodipodi:nodetypes="cc" />
      <path
         style="fill:#fd58e5;fill-opacity:1;stroke:#370188;stroke-width:1.0053;stroke-dasharray:none;stroke-opacity:1"
         d="m 39.94426,226.70177 1.599959,0.24876 -0.629411,2.83654 -1.997209,-0.57053 z"
         id="path8-9"
         sodipodi:nodetypes="ccccc" />
      <path
         style="fill:#fd58e5;fill-opacity:1;stroke:#370188;stroke-width:1.0053;stroke-dasharray:none;stroke-opacity:1"
         d="m 43.316169,230.16015 c 0,0 -0.41566,8.8249 -0.447638,9.75216 -0.032,0.92726 0.581238,10.35169 0.581238,10.35169 l 1.635052,-0.12595"
         id="path11-7"
         sodipodi:nodetypes="csc" />
      <circle
         style="fill:#370188;fill-opacity:1;stroke:#370188;stroke-width:0.251322;stroke-opacity:1"
         id="path3-3-6"
         r="0.23798001"
         cy="232.85405"
         cx="44.463379"
         inkscape:transform-center-x="2.5473964"
         inkscape:transform-center-y="-3.3359917e-05" />
      <circle
         style="fill:#370188;fill-opacity:1;stroke:#370188;stroke-width:0.251322;stroke-opacity:1"
         id="path3-3-6-9"
         r="0.23798001"
         cy="236.0197"
         cx="44.311127"
         inkscape:transform-center-x="2.5473672"
         inkscape:transform-center-y="-8.8337132e-06" />
      <circle
         style="fill:#370188;fill-opacity:1;stroke:#370188;stroke-width:0.251322;stroke-opacity:1"
         id="path3-3-6-2"
         r="0.23798001"
         cy="238.96605"
         cx="44.160797"
         inkscape:transform-center-x="2.5473177"
         inkscape:transform-center-y="2.1149829e-06" />
      <circle
         style="fill:#370188;fill-opacity:1;stroke:#370188;stroke-width:0.251322;stroke-opacity:1"
         id="path3-3-6-1"
         r="0.23798001"
         cy="242.02641"
         cx="44.212372"
         inkscape:transform-center-x="2.547382"
         inkscape:transform-center-y="3.4559455e-05" />
      <circle
         style="fill:#370188;fill-opacity:1;stroke:#370188;stroke-width:0.251322;stroke-opacity:1"
         id="path3-3-6-6"
         r="0.23798001"
         cy="245.19487"
         cx="44.391418"
         inkscape:transform-center-x="2.5473966"
         inkscape:transform-center-y="-7.9173349e-05" />
      <circle
         style="fill:#370188;fill-opacity:1;stroke:#370188;stroke-width:0.251322;stroke-opacity:1"
         id="path3-3-6-60"
         r="0.23798001"
         cy="248.25612"
         cx="44.569824"
         inkscape:transform-center-x="2.5474322"
         inkscape:transform-center-y="1.983531e-06" />
      <path
         style="fill:#ffffff;fill-opacity:1;stroke:#370188;stroke-width:1.0053;stroke-dasharray:none;stroke-opacity:1"
         d="m 46.907939,215.29153 c 1.054082,-0.96547 1.920321,0.56471 0.965452,1.16333"
         id="path15"
         sodipodi:nodetypes="cc" />
      <path
         style="fill:#ffffff;fill-opacity:1;stroke:#370188;stroke-width:1.00532;stroke-opacity:1"
         d="m 39.843249,226.34195 c 0.205241,6.4309 8.369301,6.48952 8.50612,-0.01"
         id="path18"
         sodipodi:nodetypes="cc" />
      <ellipse
         style="fill:#ffffff;fill-opacity:1;stroke:#370188;stroke-width:1.00532;stroke-opacity:1"
         id="path2"
         cx="44.095459"
         cy="226.36685"
         rx="4.2585411"
         ry="1.1075325" />
      <ellipse
         style="fill:#370188;fill-opacity:1;stroke:none;stroke-width:1.95987"
         id="path20"
         cx="44.114563"
         cy="226.61852"
         rx="2.7531805"
         ry="0.58996719" />
      <path
         style="fill:#ffffff;fill-opacity:1;stroke:#370188;stroke-width:1.0053;stroke-dasharray:none;stroke-opacity:1"
         d="m 39.760251,232.44764 c 0.859288,-1.06756 0.837808,-1.15799 1.84971,-1.95796 1.110488,-0.87793 2.639118,0.82873 1.596438,1.89873 -1.04269,1.06999 -1.032369,1.05618 -1.21069,1.14359"
         id="path5"
         sodipodi:nodetypes="cssc" />
      <path
         style="fill:#fd58e5;fill-opacity:1;stroke:#370188;stroke-width:1.0053;stroke-dasharray:none;stroke-opacity:1"
         d="m 40.020509,231.15399 3.0864,2.29269 -4.367058,3.40435 c -0.86555,-1.85303 -0.789071,-3.61634 0.621508,-5.25259 z"
         id="path13"
         sodipodi:nodetypes="ccccc" />
      <path
         style="fill:#ffffff;fill-opacity:1;stroke:#370188;stroke-width:1.0053;stroke-dasharray:none;stroke-opacity:1"
         d="m 48.728408,234.23087 c -2.436378,-2.01389 -1.460239,-1.12111 -2.2848,-2.07999 -1.112699,-1.29394 0.378391,-3.33691 1.912413,-1.96264 2.654989,2.3785 2.007238,1.87694 1.998639,1.86573"
         id="path6"
         sodipodi:nodetypes="cssc" />
      <path
         style="fill:#fd58e5;fill-opacity:1;stroke:#370188;stroke-width:1.0053;stroke-dasharray:none;stroke-opacity:1"
         d="m 52.095019,232.74017 -2.889848,-2.63359 -2.310312,3.02852 5.75343,4.56 c 0.277571,-1.65164 1.297719,-3.30328 -0.55327,-4.95493 z"
         id="path12-2"
         sodipodi:nodetypes="ccccc" />
    </g>
  </g>
</svg>
