<?xml version="1.0" encoding="UTF-8" standalone="no"?>
<!-- Created with Inkscape (http://www.inkscape.org/) -->

<svg
   width="1080"
   height="1350"
   viewBox="0 0 285.74999 357.1875"
   version="1.1"
   id="svg1"
   inkscape:version="1.4 (e7c3feb1, 2024-10-09)"
   sodipodi:docname="panel-00.svg"
   xmlns:inkscape="http://www.inkscape.org/namespaces/inkscape"
   xmlns:sodipodi="http://sodipodi.sourceforge.net/DTD/sodipodi-0.dtd"
   xmlns="http://www.w3.org/2000/svg"
   xmlns:svg="http://www.w3.org/2000/svg">
  <sodipodi:namedview
     id="namedview1"
     pagecolor="#ffffff"
     bordercolor="#000000"
     borderopacity="0.25"
     inkscape:showpageshadow="2"
     inkscape:pageopacity="0.0"
     inkscape:pagecheckerboard="0"
     inkscape:deskcolor="#d1d1d1"
     inkscape:document-units="px"
     inkscape:zoom="0.30174945"
     inkscape:cx="490.47313"
     inkscape:cy="328.08676"
     inkscape:window-width="1728"
     inkscape:window-height="1057"
     inkscape:window-x="2560"
     inkscape:window-y="355"
     inkscape:window-maximized="0"
     inkscape:current-layer="layer1"
     showguides="true" />
  <defs
     id="defs1">
    <rect
       x="337.60629"
       y="293.08679"
       width="868.13049"
       height="871.84045"
       id="rect26" />
    <rect
       x="358.01108"
       y="335.75131"
       width="877.4054"
       height="734.57196"
       id="rect25" />
    <rect
       x="418.44797"
       y="244.75258"
       width="748.0744"
       height="801.36731"
       id="rect16" />
    <clipPath
       clipPathUnits="userSpaceOnUse"
       id="clipPath32">
      <rect
         style="fill:none;fill-opacity:1;fill-rule:nonzero;stroke:#370188;stroke-width:3.175;stroke-dasharray:none;stroke-opacity:1"
         id="rect33"
         width="282.57498"
         height="354.01248"
         x="1.5875"
         y="15.875003" />
    </clipPath>
    <clipPath
       clipPathUnits="userSpaceOnUse"
       id="clipPath33">
      <rect
         style="fill:none;fill-opacity:1;fill-rule:nonzero;stroke:#370188;stroke-width:3.175;stroke-dasharray:none;stroke-opacity:1"
         id="rect34"
         width="282.57498"
         height="354.01248"
         x="1.5875"
         y="15.875003"
         transform="scale(-1,1)" />
    </clipPath>
    <clipPath
       clipPathUnits="userSpaceOnUse"
       id="clipPath34">
      <rect
         style="fill:none;fill-opacity:1;fill-rule:nonzero;stroke:#370188;stroke-width:3.175;stroke-dasharray:none;stroke-opacity:1"
         id="rect35"
         width="282.57498"
         height="354.01248"
         x="1.5875"
         y="15.875003" />
    </clipPath>
    <clipPath
       clipPathUnits="userSpaceOnUse"
       id="clipPath35">
      <rect
         style="fill:none;fill-opacity:1;fill-rule:nonzero;stroke:#370188;stroke-width:3.175;stroke-dasharray:none;stroke-opacity:1"
         id="rect36"
         width="282.57498"
         height="354.01248"
         x="1.5875"
         y="15.875003" />
    </clipPath>
    <clipPath
       clipPathUnits="userSpaceOnUse"
       id="clipPath1">
      <rect
         style="fill:none;fill-opacity:1;fill-rule:nonzero;stroke:#370188;stroke-width:0.695287;stroke-dasharray:none;stroke-opacity:1"
         id="rect2"
         width="61.880581"
         height="77.524551"
         x="-167.02388"
         y="-16.952217"
         transform="scale(-1,1)" />
    </clipPath>
  </defs>
  <g
     inkscape:label="Layer 1"
     inkscape:groupmode="layer"
     id="layer1">
    <rect
       style="fill:none;fill-opacity:1;stroke:#370188;stroke-width:4.23333;stroke-linecap:round;stroke-dasharray:none;stroke-opacity:1"
       id="rect37"
       width="259.29166"
       height="140.15659"
       x="13.758331"
       y="56.796234" />
    <text
       xml:space="preserve"
       transform="scale(0.26458333)"
       id="text16"
       style="font-style:normal;font-variant:normal;font-weight:bold;font-stretch:normal;font-size:60px;font-family:'Josefin Slab';-inkscape-font-specification:'Josefin Slab Bold';text-align:start;letter-spacing:0px;word-spacing:0px;writing-mode:lr-tb;direction:ltr;white-space:pre;shape-inside:url(#rect16);display:inline;fill:#000000;fill-opacity:0;stroke:#370188;stroke-width:12;stroke-opacity:1" />
    <text
       xml:space="preserve"
       transform="scale(0.26458333)"
       id="text25"
       style="font-style:normal;font-variant:normal;font-weight:bold;font-stretch:normal;font-size:60px;font-family:'Josefin Slab';-inkscape-font-specification:'Josefin Slab Bold';text-align:start;letter-spacing:0px;word-spacing:0px;writing-mode:lr-tb;direction:ltr;white-space:pre;shape-inside:url(#rect25);display:inline;fill:#000000;fill-opacity:0;stroke:#370188;stroke-width:12;stroke-opacity:1" />
    <text
       xml:space="preserve"
       transform="scale(0.26458333)"
       id="text26"
       style="font-style:normal;font-variant:normal;font-weight:bold;font-stretch:normal;font-size:60px;font-family:'Josefin Slab';-inkscape-font-specification:'Josefin Slab Bold';text-align:start;letter-spacing:0px;word-spacing:0px;writing-mode:lr-tb;direction:ltr;white-space:pre;shape-inside:url(#rect26);display:inline;fill:#000000;fill-opacity:0;stroke:#370188;stroke-width:12;stroke-opacity:1" />
    <rect
       width="9.8019896"
       height="15.875"
       rx="0"
       ry="0"
       fill="#6002ee"
       stroke-width="0"
       id="rect1-3-4-39-4-2-0-5-6"
       x="247.60098"
       y="332.84583" />
    <text
       font-family="Montserrat"
       font-size="618.11px"
       font-weight="200"
       stroke-width="0"
       fill="#33333"
       id="text3-0-3-0-0-5-3-3-2"
       x="248.33717"
       y="345.42685"
       style="font-style:normal;font-variant:normal;font-weight:300;font-stretch:normal;font-size:13.0774px;font-family:Montserrat;-inkscape-font-specification:'Montserrat Light'"
       transform="scale(0.99938968,1.0006107)"><tspan
         y="345.42685"
         font-weight="200"
         stroke-width="0"
         id="tspan1-4-8-6-2-1-2-5-9"
         style="font-style:normal;font-variant:normal;font-weight:300;font-stretch:normal;font-size:13.0774px;font-family:Montserrat;-inkscape-font-specification:'Montserrat Light'"><tspan
           style="font-style:normal;font-variant:normal;font-weight:300;font-stretch:normal;font-size:13.0774px;font-family:Montserrat;-inkscape-font-specification:'Montserrat Light';fill:#ffffff;fill-opacity:1;stroke-width:0"
           id="tspan3-6-3-13-5-2-1-6-6">k</tspan></tspan></text>
    <text
       dx="0"
       dy="0"
       font-family="Montserrat"
       font-size="465.256px"
       font-weight="200"
       stroke-width="0"
       fill="#33333"
       id="text3-0-3-6-8-4-0-8-9"
       x="195.17656"
       y="345.42685"
       style="font-style:normal;font-variant:normal;font-weight:300;font-stretch:normal;font-size:13.0774px;font-family:Montserrat;-inkscape-font-specification:'Montserrat Light'"
       transform="scale(0.99938968,1.0006107)"><tspan
         y="345.42685"
         font-weight="200"
         stroke-width="0"
         id="tspan1-4-8-3-9-0-0-6-9"
         style="font-style:normal;font-variant:normal;font-weight:300;font-stretch:normal;font-size:13.0774px;font-family:Montserrat;-inkscape-font-specification:'Montserrat Light'">product</tspan></text>
    <text
       font-family="Montserrat"
       font-size="465.256px"
       font-weight="200"
       stroke-width="0"
       fill="#33333"
       id="text3-0-3-6-4-3-4-3-7-8"
       x="257.78415"
       y="345.42685"
       style="font-style:normal;font-variant:normal;font-weight:300;font-stretch:normal;font-size:13.0774px;font-family:Montserrat;-inkscape-font-specification:'Montserrat Light'"
       transform="scale(0.99938968,1.0006107)"><tspan
         y="345.42685"
         font-weight="200"
         stroke-width="0"
         id="tspan1-4-8-3-6-9-9-9-7-0"
         style="font-style:normal;font-variant:normal;font-weight:300;font-stretch:normal;font-size:13.0774px;font-family:Montserrat;-inkscape-font-specification:'Montserrat Light'">ind</tspan></text>
    <path
       style="fill:#018816;fill-opacity:1;stroke:#370188;stroke-width:3.175;stroke-dasharray:none;stroke-opacity:1"
       d="m 31.723905,268.3247 -2.44821,35.65858 51.518659,1.38376 -2.022443,-39.59698 z"
       id="path25-4" />
    <path
       style="fill:#ffffff;fill-opacity:1;stroke:#370188;stroke-width:3.175;stroke-dasharray:none;stroke-opacity:1"
       d="m 15.062649,276.77251 c 0,15.83268 7.109174,26.92819 17.072324,33.28661 2.370486,1.51282 4.90258,2.75752 7.53891,3.73402 23.316628,8.63654 54.788084,-3.70364 54.763763,-37.02063 l -15.068041,15.50715 -15.15129,-6.5761 -19.957542,9.34238 -10.755375,-11.69092 -8.490204,5.14359 z"
       id="path1-8"
       sodipodi:nodetypes="cssccccccc" />
    <path
       style="fill:#370189;fill-opacity:1;stroke:#370188;stroke-width:0;stroke-dasharray:none;stroke-opacity:1"
       d="m 38.990655,312.10845 -3.826923,-5.27259 5.071173,2.35369 1.326261,-3.92795 0.376809,4.14213 4.169982,-3.19913 -2.573465,4.76485 5.63245,0.54648 -3.692811,2.899 z"
       id="path3-2"
       sodipodi:nodetypes="cccccccccc" />
    <path
       style="fill:#370189;fill-opacity:1;stroke:#370188;stroke-width:0;stroke-dasharray:none;stroke-opacity:1"
       d="m 70.135372,312.6448 3.035109,-5.32825 -4.745514,2.65567 -0.408241,-3.99876 -1.235837,4.49196 -4.724654,-1.3668 3.40941,3.17528 -4.781804,1.08258 4.5025,2.28216 z"
       id="path3-1-5"
       sodipodi:nodetypes="cccccccccc" />
    <path
       style="fill:#ee4302;fill-opacity:1;stroke:#370188;stroke-width:3.175;stroke-dasharray:none;stroke-opacity:1"
       d="m 39.584983,313.43852 c -0.0908,0.82798 -0.110808,10.87927 -0.110808,10.87927 l -7.657909,4.01428 9.170479,-1.55093 0.742855,0.90942 0.700278,-0.93298 8.75249,1.41577 -6.925976,-3.71139 c 0,0 0.07017,-8.9828 0.0127,-9.10428 z"
       id="path7-8"
       sodipodi:nodetypes="cccccccccc" />
    <path
       style="fill:#ee4302;fill-opacity:1;stroke:#370188;stroke-width:3.175;stroke-dasharray:none;stroke-opacity:1"
       d="m 69.62353,312.70062 0.340042,12.60688 7.871143,2.69119 -9.979501,-1.45316 -0.742855,0.90941 -0.70031,-0.93297 -9.076213,1.20135 7.41826,-3.10318 c 0,0 0.16637,-9.20293 0.179705,-9.394 z"
       id="path7-4-0"
       sodipodi:nodetypes="cccccccccc" />
    <path
       style="fill:#fdc458;fill-opacity:1;stroke:#370188;stroke-width:3.175;stroke-dasharray:none;stroke-opacity:1"
       d="m 28.439146,258.3785 c 0,0 -38.472776,27.21073 6.956202,15.58833 z"
       id="path17-0"
       sodipodi:nodetypes="ccc" />
    <path
       style="fill:#fdc458;fill-opacity:1;stroke:#370188;stroke-width:3.175;stroke-dasharray:none;stroke-opacity:1"
       d="m 84.691667,259.41739 c 0,0 34.302293,21.19084 -7.534783,15.42339 z"
       id="path16-7"
       sodipodi:nodetypes="ccc" />
    <path
       style="fill:#fdc458;fill-opacity:1;stroke:#370188;stroke-width:3.175;stroke-dasharray:none;stroke-opacity:1"
       d="m 71.069774,244.61707 c 17.425955,-38.94192 -49.630836,-38.34514 -32.591501,0.64325 l 15.592742,7.69652 z"
       id="path23-5"
       sodipodi:nodetypes="cccc" />
    <path
       style="fill:#018816;fill-opacity:1;stroke:#370188;stroke-width:3.175;stroke-dasharray:none;stroke-opacity:1"
       d="m 37.437921,274.07973 -9.800304,4.04721 -6.621494,-19.13719 13.522515,-5.46456 -0.305753,-10.09068 c 14.737543,2.54163 25.855745,0.94063 40.362663,-0.91733 v 8.56177 l 14.322171,7.7724 -6.590697,18.69104 -9.531286,-3.85836"
       id="path12-0"
       sodipodi:nodetypes="cccccccccc" />
    <path
       style="fill:none;fill-opacity:1;stroke:#370188;stroke-width:3.175;stroke-dasharray:none;stroke-opacity:1"
       d="m 34.23352,253.32368 c 16.683061,23.49109 26.669876,22.63731 40.871234,-2.03873"
       id="path22-1"
       sodipodi:nodetypes="cc" />
    <path
       style="fill:none;fill-opacity:1;stroke:#370188;stroke-width:3.175;stroke-dasharray:none;stroke-opacity:1"
       d="m 54.877814,217.71339 c 5.406327,-4.70872 -5.057489,-5.05752 0.523209,-8.89426"
       id="path26-0"
       sodipodi:nodetypes="cc" />
    <path
       style="fill:#b98bfe;fill-opacity:1;fill-rule:nonzero;stroke:#370188;stroke-width:3.175;stroke-dasharray:none;stroke-opacity:1"
       d="m 171.62471,231.29974 c 16.19634,5.3238 13.8764,14.98207 -2.92418,11.09709"
       id="path61-9"
       sodipodi:nodetypes="cc" />
    <path
       style="fill:#b98bfe;fill-opacity:1;fill-rule:nonzero;stroke:#370188;stroke-width:3.175;stroke-dasharray:none;stroke-opacity:1"
       d="m 101.48429,231.71841 c -16.196346,5.32379 -13.876405,14.98207 2.92418,11.09709"
       id="path61"
       sodipodi:nodetypes="cc" />
    <path
       style="fill:#b98bfe;fill-opacity:1;fill-rule:nonzero;stroke:#370188;stroke-width:3.175;stroke-dasharray:none;stroke-opacity:1"
       d="m 118.83354,216.56504 c -25.53269,-25.40051 -6.65648,-52.88401 18.84146,-51.92555 25.11597,0.94409 40.37051,29.17676 17.00911,51.85551 3.85426,24.96865 10.08031,70.52397 10.63111,104.67395 -1.63141,9.3433 -16.16078,8.9782 -17.23815,-1.43652 -1.07741,-10.41472 -14.01283,-11.94105 -14.57938,-0.16732 -0.50343,10.462 -17.31089,10.41554 -17.74219,-0.1918 -2.53708,-17.45114 1.06293,-77.48945 3.07804,-102.80824 z"
       id="path49"
       sodipodi:nodetypes="csccssccc" />
    <path
       style="fill:#ee02ca;fill-opacity:1;fill-rule:nonzero;stroke:#370188;stroke-width:3.175;stroke-dasharray:none;stroke-opacity:1"
       d="m 110.49913,320.00766 26.58288,0.41306 3.29813,-15.55068 3.43055,15.49144 27.34977,-0.10287 -5.70738,-57.54784 -53.14426,0.29356 z"
       id="path55"
       sodipodi:nodetypes="cccccccc" />
    <path
       style="fill:#ee02ca;fill-opacity:1;fill-rule:nonzero;stroke:#370188;stroke-width:3.175;stroke-dasharray:none;stroke-opacity:1"
       d="m 154.71526,215.62079 16.8729,71.52352 -63.39859,-0.3447 9.64289,-70.83412 15.05207,4.21067 7.76329,0.22502 z"
       id="path56"
       sodipodi:nodetypes="ccccccc" />
    <path
       style="fill:#ee02ca;fill-opacity:1;fill-rule:nonzero;stroke:#370188;stroke-width:3.175;stroke-dasharray:none;stroke-opacity:1"
       d="m 118.44774,221.928 -17.53946,6.13268 3.43427,17.48755 13.61456,-3.06635"
       id="path57"
       sodipodi:nodetypes="cccc" />
    <path
       style="fill:#ee02ca;fill-opacity:1;fill-rule:nonzero;stroke:#370188;stroke-width:3.175;stroke-dasharray:none;stroke-opacity:1"
       d="m 155.06181,221.74487 17.53946,6.13268 -3.43427,17.48754 -13.61456,-3.06634"
       id="path57-4"
       sodipodi:nodetypes="cccc" />
    <path
       style="fill:#ee02ca;fill-opacity:1;fill-rule:nonzero;stroke:#370188;stroke-width:3.175;stroke-dasharray:none;stroke-opacity:1"
       d="m 117.79195,215.9897 -3.91468,6.00248 c 16.73338,6.11428 28.60553,5.66285 44.05984,-0.0971 l -3.06725,-6.31861 c -13.42763,4.39851 -25.70765,4.4445 -37.07791,0.41324 z"
       id="path58"
       sodipodi:nodetypes="ccccc" />
    <path
       style="fill:#b98bfe;fill-opacity:1;fill-rule:nonzero;stroke:#370188;stroke-width:3.175;stroke-dasharray:none;stroke-opacity:1"
       d="m 154.39332,173.44871 c 0,0 1.31327,-13.11396 -0.93622,-14.04121 -2.24948,-0.92726 -10.69803,10.16316 -10.69803,10.16316"
       id="path66-0"
       sodipodi:nodetypes="czc" />
    <path
       style="fill:#b98bfe;fill-opacity:1;fill-rule:nonzero;stroke:#370188;stroke-width:3.175;stroke-dasharray:none;stroke-opacity:1"
       d="m 117.1092,173.57508 c 0,0 -1.31328,-13.11396 0.93621,-14.04122 2.24949,-0.92725 10.69803,10.16317 10.69803,10.16317"
       id="path66-0-3"
       sodipodi:nodetypes="czc" />
    <path
       style="fill:#fdc458;fill-opacity:1;stroke:#370188;stroke-width:3.175;stroke-dasharray:none;stroke-opacity:1"
       d="m 208.38335,275.31863 c -5.55973,0.96051 -8.23371,4.3201 -9.96277,6.15952 -2.63135,2.79929 -4.99161,2.40659 -4.65757,-0.72919 0.59754,-5.60936 10.19091,-11.53088 14.20248,-11.90652"
       id="path30"
       sodipodi:nodetypes="cssc" />
    <path
       style="fill:#fdc458;fill-opacity:1;stroke:#370188;stroke-width:3.175;stroke-dasharray:none;stroke-opacity:1"
       d="m 224.55052,197.44576 c -12.13057,0.26606 -15.89228,11.18217 -16.1499,18.02856 -0.35985,9.56318 -1.39128,41.01085 1.92155,52.84227 3.31279,11.83143 5.20579,15.61748 24.13606,16.09074 18.9303,0.47326 66.25599,-0.47326 66.25599,-0.47326 0,0 -50.40306,-5.73793 -56.08215,-15.67633 -5.67909,-9.9384 -6.6762,-42.05426 -6.38778,-52.47267 0.20733,-7.48504 -2.33563,-17.86606 -13.69377,-18.33931 z"
       id="path26"
       sodipodi:nodetypes="cssscssc"
       clip-path="url(#clipPath34)"
       transform="translate(0,42.862521)" />
    <path
       style="fill:#bb7a02;fill-opacity:1;stroke:#370188;stroke-width:3.175;stroke-dasharray:none;stroke-opacity:1"
       d="m 224.14154,273.03083 31.97746,5.88806 23.05606,0.40001 3.08089,-22.66843 -1.5087,-20.24011 -58.74293,-3.00527 z"
       id="path31"
       sodipodi:nodetypes="ccccccc"
       clip-path="url(#clipPath35)"
       transform="translate(2.0124602,43.815792)" />
    <circle
       style="fill:#fdc458;fill-opacity:1;stroke:#370188;stroke-width:3.175;stroke-dasharray:none;stroke-opacity:1"
       id="path28"
       cx="204.98477"
       cy="221.75583"
       r="2.4649308" />
    <path
       style="fill:#ffffff;fill-opacity:1;stroke:#370188;stroke-width:3.175;stroke-dasharray:none;stroke-opacity:1"
       d="m 214.35149,243.15228 -7.88775,-18.53627"
       id="path29" />
    <circle
       style="fill:#fdc458;fill-opacity:1;stroke:#370188;stroke-width:3.175;stroke-dasharray:none;stroke-opacity:1"
       id="path28-0"
       cx="-242.14134"
       cy="178.57367"
       r="2.4649308"
       transform="matrix(-1,0,0,1,0,42.862521)"
       clip-path="url(#clipPath33)" />
    <path
       style="fill:#ffffff;fill-opacity:1;stroke:#370188;stroke-width:3.175;stroke-dasharray:none;stroke-opacity:1"
       d="m 232.77462,242.83204 7.88775,-18.53628"
       id="path29-6" />
    <path
       style="mix-blend-mode:normal;fill:#02ee25;fill-opacity:1;fill-rule:nonzero;stroke:#370188;stroke-width:3.175;stroke-dasharray:none;stroke-opacity:1"
       d="m 205.74049,226.36918 1.62537,6.72842 -0.67367,5.19754 c 0,4.76463 -0.0632,31.61076 -8.46842,42.20189 15.8381,0.55553 79.83356,-0.1552 88.3358,-0.18222 -37.7825,1.13922 -58.0682,-12.11164 -59.33911,-26.02342 0.36421,-2.27978 4.38098,-11.00972 9.95297,-18.21531 0.35485,-0.45889 -0.23241,-2.66962 -0.23241,-2.66962 l 2.67862,-6.24797 -2.90824,-3.1085 -4.96751,6.207 -19.50783,-0.1624 -3.45028,-6.30801 z"
       id="path33"
       sodipodi:nodetypes="cccccccccccccc"
       clip-path="url(#clipPath32)"
       transform="translate(0,42.862521)" />
    <text
       xml:space="preserve"
       style="font-style:normal;font-variant:normal;font-weight:normal;font-stretch:normal;font-size:19.05px;font-family:'Nanum Pen';-inkscape-font-specification:'Nanum Pen';text-align:center;letter-spacing:0px;word-spacing:0px;writing-mode:lr-tb;direction:ltr;text-anchor:middle;white-space:pre;inline-size:253.265;display:inline;fill:#370188;fill-opacity:1;stroke:none;stroke-width:1.5875;stroke-linecap:round;stroke-dasharray:none;stroke-opacity:1"
       x="23.771687"
       y="156.49693"
       id="text17"
       transform="translate(119.63673,-130.10104)"><tspan
         x="23.771687"
         y="156.49693"
         id="tspan3">Look at this! We’ve found 47 edge<tspan
   y="156.49693"
   id="tspan4"> </tspan></tspan><tspan
         x="23.771687"
         y="180.30944"
         id="tspan5">cases. Forty-seven!</tspan></text>
    <path
       sodipodi:type="spiral"
       style="fill:#bb7a02;fill-opacity:1;fill-rule:evenodd;stroke:#370188;stroke-width:0.695287;stroke-dasharray:none;stroke-opacity:1"
       id="path27"
       sodipodi:cx="105.75211"
       sodipodi:cy="39.133308"
       sodipodi:expansion="1.9"
       sodipodi:revolution="1.9334221"
       sodipodi:radius="11.889563"
       sodipodi:argument="-18.497511"
       sodipodi:t0="0.12348633"
       d="m 105.69006,39.348002 c -0.32401,0.231852 -0.69518,-0.169723 -0.77546,-0.456763 -0.23505,-0.840481 0.61834,-1.513255 1.36818,-1.593915 1.54382,-0.16607 2.64192,1.346958 2.66372,2.759274 0.0376,2.433739 -2.34375,4.074075 -4.6113,3.978925 -3.50844,-0.14722 -5.803349,-3.60077 -5.534683,-6.911467 0.386721,-4.765458 5.112133,-7.824431 9.650103,-7.327023 4.56164,0.500002 8.17504,4.151459 9.16495,8.548855"
       transform="matrix(-4.5664566,0,0,4.5664566,764.29483,121.86171)"
       clip-path="url(#clipPath1)" />
    <path
       style="fill:#b98bfe;fill-opacity:1;fill-rule:nonzero;stroke:#370188;stroke-width:3.175;stroke-dasharray:none;stroke-opacity:1"
       d="m 141.95497,291.48306 c 20.54958,0.51374 16.68139,-21.16571 25.43013,-23.63206 8.50281,-2.39704 12.07291,4.10992 14.8985,8.21984 2.82556,4.10993 -1.54124,8.99046 -5.13744,2.05497 -4.6008,-8.87297 -9.36269,-6.73526 -12.58662,3.08244 -2.40154,7.31334 -7.44922,14.89849 -21.83397,15.15534 -3.05296,-0.461 -3.79534,-3.88663 -0.7706,-4.88053 z"
       id="path68"
       sodipodi:nodetypes="csssscc" />
    <rect
       style="fill:none;fill-opacity:1;fill-rule:nonzero;stroke:#370188;stroke-width:3.175;stroke-dasharray:none;stroke-opacity:1"
       id="rect113-4-2"
       width="282.57498"
       height="354.01248"
       x="1.5875"
       y="1.5875" />
    <path
       style="fill:#fe8b96;fill-opacity:1;stroke:#370188;stroke-width:3.175;stroke-linejoin:miter;stroke-dasharray:none;stroke-opacity:1"
       d="m 28.452779,85.98959 h 17.184687 v 10.108637 c 0,0 0.604298,3.170384 1.819561,5.054333 -5.23621,0.002 -14.970633,0.40207 -17.860105,0.0896 -1.276572,-2.194163 -1.548479,-5.548277 -1.548479,-5.548277 z"
       id="path2"
       sodipodi:nodetypes="ccccccc" />
    <path
       style="fill:#fe8b96;fill-opacity:1;stroke:#370188;stroke-width:3.175;stroke-linejoin:miter;stroke-dasharray:none;stroke-opacity:1"
       d="m 59.938179,146.05006 h 17.184687 v 10.10863 c 0,0 0.604298,3.17039 1.819561,5.05433 -5.23621,0.002 -14.970633,0.40207 -17.860105,0.0896 -1.276572,-2.19416 -1.548479,-5.54827 -1.548479,-5.54827 z"
       id="path2-0"
       sodipodi:nodetypes="ccccccc" />
    <path
       style="fill:#fe8b96;fill-opacity:1;stroke:#370188;stroke-width:3.175;stroke-linejoin:miter;stroke-dasharray:none;stroke-opacity:1"
       d="m 196.72778,97.366673 h 17.18469 v 10.108677 c 0,0 0.60429,3.17039 1.81956,5.05434 -5.23621,0.002 -14.97064,0.40207 -17.86011,0.0896 -1.27657,-2.19415 -1.54848,-5.54828 -1.54848,-5.54828 z"
       id="path2-09"
       sodipodi:nodetypes="ccccccc" />
    <path
       style="fill:#fe8b96;fill-opacity:1;stroke:#370188;stroke-width:3.175;stroke-linejoin:miter;stroke-dasharray:none;stroke-opacity:1"
       d="m 100.94868,89.429173 h 17.18469 V 99.53781 c 0,0 0.60429,3.1704 1.81956,5.05435 -5.23621,0.002 -14.97064,0.40207 -17.86011,0.0896 -1.27657,-2.19417 -1.54848,-5.548294 -1.54848,-5.548294 z"
       id="path2-02"
       sodipodi:nodetypes="ccccccc" />
    <path
       style="fill:#fe8b96;fill-opacity:1;stroke:#370188;stroke-width:3.175;stroke-linejoin:miter;stroke-dasharray:none;stroke-opacity:1"
       d="m 214.98408,168.01047 h 17.18469 v 10.10864 c 0,0 0.60429,3.17038 1.81956,5.05432 -5.23621,0.002 -14.97064,0.40208 -17.86011,0.0896 -1.27657,-2.19415 -1.54848,-5.54827 -1.54848,-5.54827 z"
       id="path2-8"
       sodipodi:nodetypes="ccccccc" />
    <path
       style="fill:#fe8b96;fill-opacity:1;stroke:#370188;stroke-width:3.175;stroke-linejoin:miter;stroke-dasharray:none;stroke-opacity:1"
       d="m 175.82577,144.46255 h 17.18469 v 10.10864 c 0,0 0.60429,3.17038 1.81956,5.05432 -5.23621,0.002 -14.97064,0.40208 -17.86011,0.0896 -1.27657,-2.19415 -1.54848,-5.54827 -1.54848,-5.54827 z"
       id="path2-8-9"
       sodipodi:nodetypes="ccccccc" />
    <path
       style="fill:#fe8b96;fill-opacity:1;stroke:#370188;stroke-width:3.175;stroke-linejoin:miter;stroke-dasharray:none;stroke-opacity:1"
       d="m 160.21535,98.954171 h 17.18469 v 10.108689 c 0,0 0.60429,3.17038 1.81956,5.05432 -5.23621,0.002 -14.97064,0.40208 -17.86011,0.0896 -1.27657,-2.19415 -1.54848,-5.54827 -1.54848,-5.54827 z"
       id="path2-8-3"
       sodipodi:nodetypes="ccccccc" />
    <path
       style="fill:#fe8b96;fill-opacity:1;stroke:#370188;stroke-width:3.175;stroke-linejoin:miter;stroke-dasharray:none;stroke-opacity:1"
       d="m 214.19035,65.881259 h 17.18469 v 10.10864 c 0,0 0.60429,3.17038 1.81956,5.05432 -5.23621,0.002 -14.97064,0.40208 -17.86011,0.0896 -1.27657,-2.19415 -1.54848,-5.54827 -1.54848,-5.54827 z"
       id="path2-8-4"
       sodipodi:nodetypes="ccccccc" />
    <path
       style="fill:#fe8b96;fill-opacity:1;stroke:#370188;stroke-width:3.175;stroke-linejoin:miter;stroke-dasharray:none;stroke-opacity:1"
       d="m 36.39035,125.94172 h 17.18469 v 10.10864 c 0,0 0.60429,3.17038 1.81956,5.05432 -5.23621,0.002 -14.97064,0.40208 -17.86011,0.0896 -1.27657,-2.19415 -1.54848,-5.54827 -1.54848,-5.54827 z"
       id="path2-8-0"
       sodipodi:nodetypes="ccccccc" />
    <path
       style="fill:#fe8b96;fill-opacity:1;stroke:#370188;stroke-width:3.175;stroke-linejoin:miter;stroke-dasharray:none;stroke-opacity:1"
       d="m 236.15073,85.98959 h 17.18469 v 10.108637 c 0,0 0.60429,3.170384 1.81956,5.054333 -5.23621,0.002 -14.97064,0.40207 -17.86011,0.0896 -1.27657,-2.194163 -1.54848,-5.548277 -1.54848,-5.548277 z"
       id="path2-1"
       sodipodi:nodetypes="ccccccc" />
    <path
       style="fill:#fe8b96;fill-opacity:1;stroke:#370188;stroke-width:3.175;stroke-linejoin:miter;stroke-dasharray:none;stroke-opacity:1"
       d="m 141.69448,129.64589 h 17.18469 v 10.10864 c 0,0 0.60429,3.17038 1.81956,5.05432 -5.23621,0.002 -14.97064,0.40207 -17.86011,0.0896 -1.27657,-2.19415 -1.54848,-5.54827 -1.54848,-5.54827 z"
       id="path2-17"
       sodipodi:nodetypes="ccccccc" />
    <path
       style="fill:#fed68b;fill-opacity:1;stroke:#370188;stroke-width:3.175;stroke-linejoin:miter;stroke-dasharray:none;stroke-opacity:1"
       d="m 68.669517,115.62296 h 17.184687 v 10.10864 c 0,0 0.604266,3.17039 1.81956,5.05433 -5.236209,0.002 -14.970632,0.40207 -17.860104,0.0896 -1.276572,-2.19416 -1.548479,-5.54827 -1.548479,-5.54827 z"
       id="path2-41"
       sodipodi:nodetypes="ccccccc" />
    <path
       style="fill:#fed68b;fill-opacity:1;stroke:#370188;stroke-width:3.175;stroke-linejoin:miter;stroke-dasharray:none;stroke-opacity:1"
       d="M 97.244511,115.62297 H 114.4292 v 10.10864 c 0,0 0.60426,3.17039 1.81956,5.05433 -5.23621,0.002 -14.97063,0.40207 -17.860106,0.0896 -1.276572,-2.19416 -1.548479,-5.54827 -1.548479,-5.54827 z"
       id="path2-41-07"
       sodipodi:nodetypes="ccccccc" />
    <path
       style="fill:#fed68b;fill-opacity:1;stroke:#370188;stroke-width:3.175;stroke-linejoin:miter;stroke-dasharray:none;stroke-opacity:1"
       d="m 85.073678,144.46255 h 17.184682 v 10.10864 c 0,0 0.60427,3.17039 1.81956,5.05433 -5.236204,0.002 -14.970627,0.40207 -17.860099,0.0896 -1.276572,-2.19416 -1.548479,-5.54827 -1.548479,-5.54827 z"
       id="path2-41-1"
       sodipodi:nodetypes="ccccccc" />
    <path
       style="fill:#fed68b;fill-opacity:1;stroke:#370188;stroke-width:3.175;stroke-linejoin:miter;stroke-dasharray:none;stroke-opacity:1"
       d="m 100.94868,64.951198 h 17.18468 v 10.10864 c 0,0 0.60427,3.17039 1.81956,5.05433 -5.2362,0.002 -14.97063,0.40207 -17.8601,0.0896 -1.27657,-2.19416 -1.54848,-5.54827 -1.54848,-5.54827 z"
       id="path2-41-87"
       sodipodi:nodetypes="ccccccc" />
    <path
       style="fill:#fed68b;fill-opacity:1;stroke:#370188;stroke-width:3.175;stroke-linejoin:miter;stroke-dasharray:none;stroke-opacity:1"
       d="m 137.46122,73.818748 h 17.18468 v 10.108641 c 0,0 0.60427,3.170383 1.81956,5.054324 -5.23621,0.0023 -14.97063,0.402072 -17.8601,0.0896 -1.27657,-2.194157 -1.54848,-5.548271 -1.54848,-5.548271 z"
       id="path2-41-6"
       sodipodi:nodetypes="ccccccc" />
    <path
       style="fill:#fed68b;fill-opacity:1;stroke:#370188;stroke-width:3.175;stroke-linejoin:miter;stroke-dasharray:none;stroke-opacity:1"
       d="m 194.08202,118.2688 h 17.18468 v 10.10864 c 0,0 0.60427,3.17038 1.81956,5.05432 -5.23621,0.002 -14.97063,0.40208 -17.8601,0.0896 -1.27657,-2.19416 -1.54848,-5.54827 -1.54848,-5.54827 z"
       id="path2-41-8"
       sodipodi:nodetypes="ccccccc" />
    <path
       style="fill:#fed68b;fill-opacity:1;stroke:#370188;stroke-width:3.175;stroke-linejoin:miter;stroke-dasharray:none;stroke-opacity:1"
       d="m 233.50492,112.18338 h 17.18468 v 10.10864 c 0,0 0.60427,3.17039 1.81956,5.05433 -5.23621,0.002 -14.97063,0.40207 -17.8601,0.0896 -1.27657,-2.19415 -1.54848,-5.54827 -1.54848,-5.54827 z"
       id="path2-41-4"
       sodipodi:nodetypes="ccccccc" />
    <path
       style="fill:#fed68b;fill-opacity:1;stroke:#370188;stroke-width:3.175;stroke-linejoin:miter;stroke-dasharray:none;stroke-opacity:1"
       d="m 244.88202,148.69588 h 17.18468 v 10.10864 c 0,0 0.60427,3.17039 1.81956,5.05433 -5.23621,0.002 -14.97063,0.40207 -17.8601,0.0896 -1.27657,-2.19415 -1.54848,-5.54827 -1.54848,-5.54827 z"
       id="path2-41-0"
       sodipodi:nodetypes="ccccccc" />
    <path
       style="fill:#fed68b;fill-opacity:1;stroke:#370188;stroke-width:3.175;stroke-linejoin:miter;stroke-dasharray:none;stroke-opacity:1"
       d="m 28.337382,163.64082 h 17.184687 v 10.10864 c 0,0 0.604266,3.17039 1.81956,5.05433 -5.236209,0.002 -14.970632,0.40207 -17.860104,0.0896 -1.276572,-2.19416 -1.548479,-5.54827 -1.548479,-5.54827 z"
       id="path2-41-43"
       sodipodi:nodetypes="ccccccc" />
    <path
       style="fill:#fed68b;fill-opacity:1;stroke:#370188;stroke-width:3.175;stroke-linejoin:miter;stroke-dasharray:none;stroke-opacity:1"
       d="m 187.99662,65.794651 h 17.18468 v 10.108641 c 0,0 0.60427,3.170383 1.81956,5.054324 -5.23621,0.0023 -14.97063,0.402072 -17.8601,0.0896 -1.27657,-2.194157 -1.54848,-5.548271 -1.54848,-5.548271 z"
       id="path2-41-64"
       sodipodi:nodetypes="ccccccc" />
    <path
       style="fill:#fed68b;fill-opacity:1;stroke:#370188;stroke-width:3.175;stroke-linejoin:miter;stroke-dasharray:none;stroke-opacity:1"
       d="m 64.171617,77.258331 h 17.184687 v 10.108641 c 0,0 0.604266,3.170383 1.81956,5.054324 -5.236209,0.0023 -14.970632,0.402072 -17.860104,0.0896 -1.276572,-2.194157 -1.548479,-5.548271 -1.548479,-5.548271 z"
       id="path2-41-81"
       sodipodi:nodetypes="ccccccc" />
    <path
       style="fill:none;fill-opacity:1;stroke:#370188;stroke-width:1.5875;stroke-linecap:round;stroke-dasharray:none;stroke-opacity:1"
       d="M 26.809836,216.37659 C 11.645651,210.54352 7.2670007,216.25452 6.9225111,179.2233 6.5257991,136.57839 4.9581485,77.355053 9.5336968,47.900299 11.866769,32.881318 16.467769,29.083427 23.382876,26.911666"
       id="path13-1"
       sodipodi:nodetypes="cssc" />
  </g>
</svg>
