<?xml version="1.0" encoding="UTF-8" standalone="no"?>
<!-- Created with Inkscape (http://www.inkscape.org/) -->

<svg
   width="1080"
   height="1350"
   viewBox="0 0 285.74999 357.1875"
   version="1.1"
   id="svg1"
   inkscape:version="1.4 (e7c3feb1, 2024-10-09)"
   sodipodi:docname="panel-01.svg"
   xmlns:inkscape="http://www.inkscape.org/namespaces/inkscape"
   xmlns:sodipodi="http://sodipodi.sourceforge.net/DTD/sodipodi-0.dtd"
   xmlns="http://www.w3.org/2000/svg"
   xmlns:svg="http://www.w3.org/2000/svg">
  <sodipodi:namedview
     id="namedview1"
     pagecolor="#ffffff"
     bordercolor="#000000"
     borderopacity="0.25"
     inkscape:showpageshadow="2"
     inkscape:pageopacity="0.0"
     inkscape:pagecheckerboard="0"
     inkscape:deskcolor="#d1d1d1"
     inkscape:document-units="px"
     inkscape:zoom="0.88368987"
     inkscape:cx="365.51284"
     inkscape:cy="940.37515"
     inkscape:window-width="1728"
     inkscape:window-height="1057"
     inkscape:window-x="2560"
     inkscape:window-y="355"
     inkscape:window-maximized="0"
     inkscape:current-layer="layer1"
     showguides="true">
    <sodipodi:guide
       position="-39.692685,26.570778"
       orientation="0,-1"
       id="guide1"
       inkscape:locked="false" />
  </sodipodi:namedview>
  <defs
     id="defs1">
    <rect
       x="337.60629"
       y="293.08679"
       width="868.13049"
       height="871.84045"
       id="rect26" />
    <rect
       x="358.01108"
       y="335.75131"
       width="877.4054"
       height="734.57196"
       id="rect25" />
    <rect
       x="418.44797"
       y="244.75258"
       width="748.0744"
       height="801.36731"
       id="rect16" />
    <clipPath
       clipPathUnits="userSpaceOnUse"
       id="clipPath32">
      <rect
         style="fill:none;fill-opacity:1;fill-rule:nonzero;stroke:#370188;stroke-width:3.175;stroke-dasharray:none;stroke-opacity:1"
         id="rect33"
         width="282.57498"
         height="354.01248"
         x="1.5875"
         y="15.875003" />
    </clipPath>
    <clipPath
       clipPathUnits="userSpaceOnUse"
       id="clipPath33">
      <rect
         style="fill:none;fill-opacity:1;fill-rule:nonzero;stroke:#370188;stroke-width:3.175;stroke-dasharray:none;stroke-opacity:1"
         id="rect34"
         width="282.57498"
         height="354.01248"
         x="1.5875"
         y="15.875003"
         transform="scale(-1,1)" />
    </clipPath>
    <clipPath
       clipPathUnits="userSpaceOnUse"
       id="clipPath34">
      <rect
         style="fill:none;fill-opacity:1;fill-rule:nonzero;stroke:#370188;stroke-width:3.175;stroke-dasharray:none;stroke-opacity:1"
         id="rect35"
         width="282.57498"
         height="354.01248"
         x="1.5875"
         y="15.875003" />
    </clipPath>
    <clipPath
       clipPathUnits="userSpaceOnUse"
       id="clipPath35">
      <rect
         style="fill:none;fill-opacity:1;fill-rule:nonzero;stroke:#370188;stroke-width:3.175;stroke-dasharray:none;stroke-opacity:1"
         id="rect36"
         width="282.57498"
         height="354.01248"
         x="1.5875"
         y="15.875003" />
    </clipPath>
    <clipPath
       clipPathUnits="userSpaceOnUse"
       id="clipPath1">
      <rect
         style="fill:none;fill-opacity:1;fill-rule:nonzero;stroke:#370188;stroke-width:0.695287;stroke-dasharray:none;stroke-opacity:1"
         id="rect2"
         width="61.880581"
         height="77.524551"
         x="-167.02388"
         y="-16.952217"
         transform="scale(-1,1)" />
    </clipPath>
    <clipPath
       clipPathUnits="userSpaceOnUse"
       id="clipPath2">
      <rect
         style="fill:none;fill-opacity:1;fill-rule:nonzero;stroke:#370188;stroke-width:3.175;stroke-dasharray:none;stroke-opacity:1"
         id="rect3"
         width="282.57498"
         height="354.01248"
         x="1.5875"
         y="1.5875" />
    </clipPath>
    <clipPath
       clipPathUnits="userSpaceOnUse"
       id="clipPath3">
      <rect
         style="fill:none;fill-opacity:1;fill-rule:nonzero;stroke:#370188;stroke-width:3.175;stroke-dasharray:none;stroke-opacity:1"
         id="rect4"
         width="282.57498"
         height="354.01248"
         x="-61.912533"
         y="1.5875" />
    </clipPath>
    <clipPath
       clipPathUnits="userSpaceOnUse"
       id="clipPath6">
      <rect
         style="fill:none;fill-opacity:1;fill-rule:nonzero;stroke:#370188;stroke-width:3.175;stroke-dasharray:none;stroke-opacity:1"
         id="rect6"
         width="282.57498"
         height="354.01248"
         x="-166.95877"
         y="-51.58847"
         transform="rotate(-22.343004)" />
    </clipPath>
  </defs>
  <g
     inkscape:label="Layer 1"
     inkscape:groupmode="layer"
     id="layer1">
    <text
       xml:space="preserve"
       transform="scale(0.26458333)"
       id="text16"
       style="font-style:normal;font-variant:normal;font-weight:bold;font-stretch:normal;font-size:60px;font-family:'Josefin Slab';-inkscape-font-specification:'Josefin Slab Bold';text-align:start;letter-spacing:0px;word-spacing:0px;writing-mode:lr-tb;direction:ltr;white-space:pre;shape-inside:url(#rect16);display:inline;fill:#000000;fill-opacity:0;stroke:#370188;stroke-width:12;stroke-opacity:1" />
    <text
       xml:space="preserve"
       transform="scale(0.26458333)"
       id="text25"
       style="font-style:normal;font-variant:normal;font-weight:bold;font-stretch:normal;font-size:60px;font-family:'Josefin Slab';-inkscape-font-specification:'Josefin Slab Bold';text-align:start;letter-spacing:0px;word-spacing:0px;writing-mode:lr-tb;direction:ltr;white-space:pre;shape-inside:url(#rect25);display:inline;fill:#000000;fill-opacity:0;stroke:#370188;stroke-width:12;stroke-opacity:1" />
    <text
       xml:space="preserve"
       transform="scale(0.26458333)"
       id="text26"
       style="font-style:normal;font-variant:normal;font-weight:bold;font-stretch:normal;font-size:60px;font-family:'Josefin Slab';-inkscape-font-specification:'Josefin Slab Bold';text-align:start;letter-spacing:0px;word-spacing:0px;writing-mode:lr-tb;direction:ltr;white-space:pre;shape-inside:url(#rect26);display:inline;fill:#000000;fill-opacity:0;stroke:#370188;stroke-width:12;stroke-opacity:1" />
    <rect
       width="9.8019896"
       height="15.875"
       rx="0"
       ry="0"
       fill="#6002ee"
       stroke-width="0"
       id="rect1-3-4-39-4-2-0-5-6"
       x="247.60098"
       y="332.84583" />
    <text
       font-family="Montserrat"
       font-size="618.11px"
       font-weight="200"
       stroke-width="0"
       fill="#33333"
       id="text3-0-3-0-0-5-3-3-2"
       x="248.33717"
       y="345.42685"
       style="font-style:normal;font-variant:normal;font-weight:300;font-stretch:normal;font-size:13.0774px;font-family:Montserrat;-inkscape-font-specification:'Montserrat Light'"
       transform="scale(0.99938968,1.0006107)"><tspan
         y="345.42685"
         font-weight="200"
         stroke-width="0"
         id="tspan1-4-8-6-2-1-2-5-9"
         style="font-style:normal;font-variant:normal;font-weight:300;font-stretch:normal;font-size:13.0774px;font-family:Montserrat;-inkscape-font-specification:'Montserrat Light'"><tspan
           style="font-style:normal;font-variant:normal;font-weight:300;font-stretch:normal;font-size:13.0774px;font-family:Montserrat;-inkscape-font-specification:'Montserrat Light';fill:#ffffff;fill-opacity:1;stroke-width:0"
           id="tspan3-6-3-13-5-2-1-6-6">k</tspan></tspan></text>
    <text
       dx="0"
       dy="0"
       font-family="Montserrat"
       font-size="465.256px"
       font-weight="200"
       stroke-width="0"
       fill="#33333"
       id="text3-0-3-6-8-4-0-8-9"
       x="195.17656"
       y="345.42685"
       style="font-style:normal;font-variant:normal;font-weight:300;font-stretch:normal;font-size:13.0774px;font-family:Montserrat;-inkscape-font-specification:'Montserrat Light'"
       transform="scale(0.99938968,1.0006107)"><tspan
         y="345.42685"
         font-weight="200"
         stroke-width="0"
         id="tspan1-4-8-3-9-0-0-6-9"
         style="font-style:normal;font-variant:normal;font-weight:300;font-stretch:normal;font-size:13.0774px;font-family:Montserrat;-inkscape-font-specification:'Montserrat Light'">product</tspan></text>
    <text
       font-family="Montserrat"
       font-size="465.256px"
       font-weight="200"
       stroke-width="0"
       fill="#33333"
       id="text3-0-3-6-4-3-4-3-7-8"
       x="257.78415"
       y="345.42685"
       style="font-style:normal;font-variant:normal;font-weight:300;font-stretch:normal;font-size:13.0774px;font-family:Montserrat;-inkscape-font-specification:'Montserrat Light'"
       transform="scale(0.99938968,1.0006107)"><tspan
         y="345.42685"
         font-weight="200"
         stroke-width="0"
         id="tspan1-4-8-3-6-9-9-9-7-0"
         style="font-style:normal;font-variant:normal;font-weight:300;font-stretch:normal;font-size:13.0774px;font-family:Montserrat;-inkscape-font-specification:'Montserrat Light'">ind</tspan></text>
    <text
       xml:space="preserve"
       style="font-style:normal;font-variant:normal;font-weight:normal;font-stretch:normal;font-size:19.05px;font-family:'Nanum Pen';-inkscape-font-specification:'Nanum Pen';text-align:center;letter-spacing:0px;word-spacing:0px;writing-mode:lr-tb;direction:ltr;text-anchor:middle;white-space:pre;inline-size:253.265;display:inline;fill:#370188;fill-opacity:1;stroke:none;stroke-width:1.5875;stroke-linecap:round;stroke-dasharray:none;stroke-opacity:1"
       x="23.771687"
       y="156.49693"
       id="text17"
       transform="translate(119.63673,-130.10104)"><tspan
         x="23.771687"
         y="156.49693"
         id="tspan4">Wow! That’s a lot of imaginary<tspan
   y="156.49693"
   id="tspan5"> </tspan></tspan><tspan
         x="23.771687"
         y="180.30944"
         id="tspan6">disasters. Planning to build them all?</tspan></text>
    <path
       style="fill:none;fill-opacity:1;stroke:#370188;stroke-width:1.5875;stroke-linecap:round;stroke-dasharray:none;stroke-opacity:1"
       d="M 44.497935,171.82878 C 52.620633,157.41512 51.890607,77.567596 62.689763,58.357176"
       id="path13-1"
       sodipodi:nodetypes="cc" />
    <g
       id="g1"
       transform="translate(63.500034)"
       clip-path="url(#clipPath3)">
      <rect
         style="fill:none;fill-opacity:1;stroke:#370188;stroke-width:4.23333;stroke-linecap:round;stroke-dasharray:none;stroke-opacity:1"
         id="rect37"
         width="259.29166"
         height="140.15659"
         x="13.758331"
         y="56.796234" />
      <path
         style="fill:#fe8b96;fill-opacity:1;stroke:#370188;stroke-width:3.175;stroke-linejoin:miter;stroke-dasharray:none;stroke-opacity:1"
         d="m 28.452779,85.98959 h 17.184687 v 10.108637 c 0,0 0.604298,3.170384 1.819561,5.054333 -5.23621,0.002 -14.970633,0.40207 -17.860105,0.0896 -1.276572,-2.194163 -1.548479,-5.548277 -1.548479,-5.548277 z"
         id="path2"
         sodipodi:nodetypes="ccccccc" />
      <path
         style="fill:#fe8b96;fill-opacity:1;stroke:#370188;stroke-width:3.175;stroke-linejoin:miter;stroke-dasharray:none;stroke-opacity:1"
         d="m 59.938179,146.05006 h 17.184687 v 10.10863 c 0,0 0.604298,3.17039 1.819561,5.05433 -5.23621,0.002 -14.970633,0.40207 -17.860105,0.0896 -1.276572,-2.19416 -1.548479,-5.54827 -1.548479,-5.54827 z"
         id="path2-0"
         sodipodi:nodetypes="ccccccc" />
      <path
         style="fill:#fe8b96;fill-opacity:1;stroke:#370188;stroke-width:3.175;stroke-linejoin:miter;stroke-dasharray:none;stroke-opacity:1"
         d="m 196.72778,97.366673 h 17.18469 v 10.108677 c 0,0 0.60429,3.17039 1.81956,5.05434 -5.23621,0.002 -14.97064,0.40207 -17.86011,0.0896 -1.27657,-2.19415 -1.54848,-5.54828 -1.54848,-5.54828 z"
         id="path2-09"
         sodipodi:nodetypes="ccccccc" />
      <path
         style="fill:#fe8b96;fill-opacity:1;stroke:#370188;stroke-width:3.175;stroke-linejoin:miter;stroke-dasharray:none;stroke-opacity:1"
         d="m 100.94868,89.429173 h 17.18469 V 99.53781 c 0,0 0.60429,3.1704 1.81956,5.05435 -5.23621,0.002 -14.97064,0.40207 -17.86011,0.0896 -1.27657,-2.19417 -1.54848,-5.548294 -1.54848,-5.548294 z"
         id="path2-02"
         sodipodi:nodetypes="ccccccc" />
      <path
         style="fill:#fe8b96;fill-opacity:1;stroke:#370188;stroke-width:3.175;stroke-linejoin:miter;stroke-dasharray:none;stroke-opacity:1"
         d="m 214.98408,168.01047 h 17.18469 v 10.10864 c 0,0 0.60429,3.17038 1.81956,5.05432 -5.23621,0.002 -14.97064,0.40208 -17.86011,0.0896 -1.27657,-2.19415 -1.54848,-5.54827 -1.54848,-5.54827 z"
         id="path2-8"
         sodipodi:nodetypes="ccccccc" />
      <path
         style="fill:#fe8b96;fill-opacity:1;stroke:#370188;stroke-width:3.175;stroke-linejoin:miter;stroke-dasharray:none;stroke-opacity:1"
         d="m 175.82577,144.46255 h 17.18469 v 10.10864 c 0,0 0.60429,3.17038 1.81956,5.05432 -5.23621,0.002 -14.97064,0.40208 -17.86011,0.0896 -1.27657,-2.19415 -1.54848,-5.54827 -1.54848,-5.54827 z"
         id="path2-8-9"
         sodipodi:nodetypes="ccccccc" />
      <path
         style="fill:#fe8b96;fill-opacity:1;stroke:#370188;stroke-width:3.175;stroke-linejoin:miter;stroke-dasharray:none;stroke-opacity:1"
         d="m 160.21535,98.954171 h 17.18469 v 10.108689 c 0,0 0.60429,3.17038 1.81956,5.05432 -5.23621,0.002 -14.97064,0.40208 -17.86011,0.0896 -1.27657,-2.19415 -1.54848,-5.54827 -1.54848,-5.54827 z"
         id="path2-8-3"
         sodipodi:nodetypes="ccccccc" />
      <path
         style="fill:#fe8b96;fill-opacity:1;stroke:#370188;stroke-width:3.175;stroke-linejoin:miter;stroke-dasharray:none;stroke-opacity:1"
         d="m 214.19035,65.881259 h 17.18469 v 10.10864 c 0,0 0.60429,3.17038 1.81956,5.05432 -5.23621,0.002 -14.97064,0.40208 -17.86011,0.0896 -1.27657,-2.19415 -1.54848,-5.54827 -1.54848,-5.54827 z"
         id="path2-8-4"
         sodipodi:nodetypes="ccccccc" />
      <path
         style="fill:#fe8b96;fill-opacity:1;stroke:#370188;stroke-width:3.175;stroke-linejoin:miter;stroke-dasharray:none;stroke-opacity:1"
         d="m 36.39035,125.94172 h 17.18469 v 10.10864 c 0,0 0.60429,3.17038 1.81956,5.05432 -5.23621,0.002 -14.97064,0.40208 -17.86011,0.0896 -1.27657,-2.19415 -1.54848,-5.54827 -1.54848,-5.54827 z"
         id="path2-8-0"
         sodipodi:nodetypes="ccccccc" />
      <path
         style="fill:#fe8b96;fill-opacity:1;stroke:#370188;stroke-width:3.175;stroke-linejoin:miter;stroke-dasharray:none;stroke-opacity:1"
         d="m 236.15073,85.98959 h 17.18469 v 10.108637 c 0,0 0.60429,3.170384 1.81956,5.054333 -5.23621,0.002 -14.97064,0.40207 -17.86011,0.0896 -1.27657,-2.194163 -1.54848,-5.548277 -1.54848,-5.548277 z"
         id="path2-1"
         sodipodi:nodetypes="ccccccc" />
      <path
         style="fill:#fe8b96;fill-opacity:1;stroke:#370188;stroke-width:3.175;stroke-linejoin:miter;stroke-dasharray:none;stroke-opacity:1"
         d="m 141.69448,129.64589 h 17.18469 v 10.10864 c 0,0 0.60429,3.17038 1.81956,5.05432 -5.23621,0.002 -14.97064,0.40207 -17.86011,0.0896 -1.27657,-2.19415 -1.54848,-5.54827 -1.54848,-5.54827 z"
         id="path2-17"
         sodipodi:nodetypes="ccccccc" />
      <path
         style="fill:#fed68b;fill-opacity:1;stroke:#370188;stroke-width:3.175;stroke-linejoin:miter;stroke-dasharray:none;stroke-opacity:1"
         d="m 68.669517,115.62296 h 17.184687 v 10.10864 c 0,0 0.604266,3.17039 1.81956,5.05433 -5.236209,0.002 -14.970632,0.40207 -17.860104,0.0896 -1.276572,-2.19416 -1.548479,-5.54827 -1.548479,-5.54827 z"
         id="path2-41"
         sodipodi:nodetypes="ccccccc" />
      <path
         style="fill:#fed68b;fill-opacity:1;stroke:#370188;stroke-width:3.175;stroke-linejoin:miter;stroke-dasharray:none;stroke-opacity:1"
         d="M 97.244511,115.62297 H 114.4292 v 10.10864 c 0,0 0.60426,3.17039 1.81956,5.05433 -5.23621,0.002 -14.97063,0.40207 -17.860106,0.0896 -1.276572,-2.19416 -1.548479,-5.54827 -1.548479,-5.54827 z"
         id="path2-41-07"
         sodipodi:nodetypes="ccccccc" />
      <path
         style="fill:#fed68b;fill-opacity:1;stroke:#370188;stroke-width:3.175;stroke-linejoin:miter;stroke-dasharray:none;stroke-opacity:1"
         d="m 85.073678,144.46255 h 17.184682 v 10.10864 c 0,0 0.60427,3.17039 1.81956,5.05433 -5.236204,0.002 -14.970627,0.40207 -17.860099,0.0896 -1.276572,-2.19416 -1.548479,-5.54827 -1.548479,-5.54827 z"
         id="path2-41-1"
         sodipodi:nodetypes="ccccccc" />
      <path
         style="fill:#fed68b;fill-opacity:1;stroke:#370188;stroke-width:3.175;stroke-linejoin:miter;stroke-dasharray:none;stroke-opacity:1"
         d="m 100.94868,64.951198 h 17.18468 v 10.10864 c 0,0 0.60427,3.17039 1.81956,5.05433 -5.2362,0.002 -14.97063,0.40207 -17.8601,0.0896 -1.27657,-2.19416 -1.54848,-5.54827 -1.54848,-5.54827 z"
         id="path2-41-87"
         sodipodi:nodetypes="ccccccc" />
      <path
         style="fill:#fed68b;fill-opacity:1;stroke:#370188;stroke-width:3.175;stroke-linejoin:miter;stroke-dasharray:none;stroke-opacity:1"
         d="m 137.46122,73.818748 h 17.18468 v 10.108641 c 0,0 0.60427,3.170383 1.81956,5.054324 -5.23621,0.0023 -14.97063,0.402072 -17.8601,0.0896 -1.27657,-2.194157 -1.54848,-5.548271 -1.54848,-5.548271 z"
         id="path2-41-6"
         sodipodi:nodetypes="ccccccc" />
      <path
         style="fill:#fed68b;fill-opacity:1;stroke:#370188;stroke-width:3.175;stroke-linejoin:miter;stroke-dasharray:none;stroke-opacity:1"
         d="m 194.08202,118.2688 h 17.18468 v 10.10864 c 0,0 0.60427,3.17038 1.81956,5.05432 -5.23621,0.002 -14.97063,0.40208 -17.8601,0.0896 -1.27657,-2.19416 -1.54848,-5.54827 -1.54848,-5.54827 z"
         id="path2-41-8"
         sodipodi:nodetypes="ccccccc" />
      <path
         style="fill:#fed68b;fill-opacity:1;stroke:#370188;stroke-width:3.175;stroke-linejoin:miter;stroke-dasharray:none;stroke-opacity:1"
         d="m 233.50492,112.18338 h 17.18468 v 10.10864 c 0,0 0.60427,3.17039 1.81956,5.05433 -5.23621,0.002 -14.97063,0.40207 -17.8601,0.0896 -1.27657,-2.19415 -1.54848,-5.54827 -1.54848,-5.54827 z"
         id="path2-41-4"
         sodipodi:nodetypes="ccccccc" />
      <path
         style="fill:#fed68b;fill-opacity:1;stroke:#370188;stroke-width:3.175;stroke-linejoin:miter;stroke-dasharray:none;stroke-opacity:1"
         d="m 244.88202,148.69588 h 17.18468 v 10.10864 c 0,0 0.60427,3.17039 1.81956,5.05433 -5.23621,0.002 -14.97063,0.40207 -17.8601,0.0896 -1.27657,-2.19415 -1.54848,-5.54827 -1.54848,-5.54827 z"
         id="path2-41-0"
         sodipodi:nodetypes="ccccccc" />
      <path
         style="fill:#fed68b;fill-opacity:1;stroke:#370188;stroke-width:3.175;stroke-linejoin:miter;stroke-dasharray:none;stroke-opacity:1"
         d="m 28.337382,163.64082 h 17.184687 v 10.10864 c 0,0 0.604266,3.17039 1.81956,5.05433 -5.236209,0.002 -14.970632,0.40207 -17.860104,0.0896 -1.276572,-2.19416 -1.548479,-5.54827 -1.548479,-5.54827 z"
         id="path2-41-43"
         sodipodi:nodetypes="ccccccc" />
      <path
         style="fill:#fed68b;fill-opacity:1;stroke:#370188;stroke-width:3.175;stroke-linejoin:miter;stroke-dasharray:none;stroke-opacity:1"
         d="m 187.99662,65.794651 h 17.18468 v 10.108641 c 0,0 0.60427,3.170383 1.81956,5.054324 -5.23621,0.0023 -14.97063,0.402072 -17.8601,0.0896 -1.27657,-2.194157 -1.54848,-5.548271 -1.54848,-5.548271 z"
         id="path2-41-64"
         sodipodi:nodetypes="ccccccc" />
      <path
         style="fill:#fed68b;fill-opacity:1;stroke:#370188;stroke-width:3.175;stroke-linejoin:miter;stroke-dasharray:none;stroke-opacity:1"
         d="m 64.171617,77.258331 h 17.184687 v 10.108641 c 0,0 0.604266,3.170383 1.81956,5.054324 -5.236209,0.0023 -14.970632,0.402072 -17.860104,0.0896 -1.276572,-2.194157 -1.548479,-5.548271 -1.548479,-5.548271 z"
         id="path2-41-81"
         sodipodi:nodetypes="ccccccc" />
    </g>
    <g
       id="g4"
       transform="translate(-186.98266,-16.80743)">
      <path
         style="fill:#b98bfe;fill-opacity:1;fill-rule:nonzero;stroke:#370188;stroke-width:3.175;stroke-dasharray:none;stroke-opacity:1"
         d="m 395.56148,297.92227 c 14.38475,-0.25686 19.43242,-7.842 21.83396,-15.15534 3.22393,-9.8177 7.98583,-11.95542 12.58662,-3.08245 3.5962,6.9355 7.963,2.05497 5.13744,-2.05496 -2.82559,-4.10992 -6.39569,-10.61688 -14.8985,-8.21985 -8.74874,2.46636 -4.88054,24.14581 -25.43013,23.63207"
         id="path68"
         sodipodi:nodetypes="cssssc" />
      <path
         style="fill:#b98bfe;fill-opacity:1;fill-rule:nonzero;stroke:#370188;stroke-width:3.175;stroke-dasharray:none;stroke-opacity:1"
         d="m 404.45478,249.49789 c 16.19634,5.3238 13.8764,14.98207 -2.92418,11.09709"
         id="path61-9"
         sodipodi:nodetypes="cc" />
      <path
         style="fill:#b98bfe;fill-opacity:1;fill-rule:nonzero;stroke:#370188;stroke-width:3.175;stroke-dasharray:none;stroke-opacity:1"
         d="m 334.31436,249.91655 c -16.19634,5.3238 -13.8764,14.98207 2.92418,11.0971"
         id="path61"
         sodipodi:nodetypes="cc" />
      <path
         style="fill:#b98bfe;fill-opacity:1;fill-rule:nonzero;stroke:#370188;stroke-width:3.175;stroke-dasharray:none;stroke-opacity:1"
         d="m 351.66361,234.76319 c -25.53268,-25.40051 -6.65648,-52.88401 18.84147,-51.92556 25.11596,0.9441 40.3705,29.17676 17.00911,51.85551 3.85425,24.96866 10.0803,70.52398 10.6311,104.67395 -1.63141,9.34331 -16.16078,8.97821 -17.23815,-1.43651 -1.07741,-10.41472 -14.01283,-11.94105 -14.57938,-0.16732 -0.50343,10.462 -17.31089,10.41553 -17.74219,-0.1918 -2.53707,-17.45115 1.06293,-77.48945 3.07804,-102.80824 z"
         id="path49"
         sodipodi:nodetypes="csccssccc" />
      <path
         style="fill:#370188;fill-opacity:1;fill-rule:nonzero;stroke:#370188;stroke-width:3.175;stroke-dasharray:none;stroke-opacity:1"
         d="m 369.20269,217.26369 c 0.53238,0.0111 3.57276,-4.01333 3.31508,-4.46341 -0.25781,-0.45009 -6.11673,-0.63218 -6.46579,-0.15107 -0.34906,0.48111 2.61833,4.6035 3.15071,4.61448 z"
         id="path51"
         sodipodi:nodetypes="zzzz" />
      <path
         style="fill:#6002ee;fill-opacity:1;fill-rule:nonzero;stroke:#370188;stroke-width:3.175;stroke-dasharray:none;stroke-opacity:1"
         d="m 376.09698,214.28609 9.24446,1.75721"
         id="path52" />
      <path
         style="fill:#6002ee;fill-opacity:1;fill-rule:nonzero;stroke:#370188;stroke-width:3.175;stroke-dasharray:none;stroke-opacity:1"
         d="m 374.64537,218.41171 7.33444,3.66722"
         id="path53" />
      <path
         style="fill:#6002ee;fill-opacity:1;fill-rule:nonzero;stroke:#370188;stroke-width:3.175;stroke-dasharray:none;stroke-opacity:1"
         d="m 362.06015,214.16093 -9.24446,1.75721"
         id="path52-5" />
      <path
         style="fill:#6002ee;fill-opacity:1;fill-rule:nonzero;stroke:#370188;stroke-width:3.175;stroke-dasharray:none;stroke-opacity:1"
         d="m 363.51176,218.28655 -7.33444,3.66722"
         id="path53-5" />
      <path
         style="fill:#ee02ca;fill-opacity:1;fill-rule:nonzero;stroke:#370188;stroke-width:3.175;stroke-dasharray:none;stroke-opacity:1"
         d="m 343.3292,338.20581 26.58288,0.41306 3.29813,-15.55068 3.43055,15.49144 27.34977,-0.10287 -5.70738,-57.54784 -53.14426,0.29356 z"
         id="path55"
         sodipodi:nodetypes="cccccccc" />
      <path
         style="fill:#ee02ca;fill-opacity:1;fill-rule:nonzero;stroke:#370188;stroke-width:3.175;stroke-dasharray:none;stroke-opacity:1"
         d="m 387.54533,233.81894 16.8729,71.52352 -63.39858,-0.3447 9.64288,-70.83413 15.05207,4.21068 4.05041,7.53825 3.71288,-7.31323 z"
         id="path56"
         sodipodi:nodetypes="cccccccc" />
      <path
         style="fill:#ee02ca;fill-opacity:1;fill-rule:nonzero;stroke:#370188;stroke-width:3.175;stroke-dasharray:none;stroke-opacity:1"
         d="m 351.27782,240.12615 -17.53947,6.13268 3.43427,17.48754 13.61456,-3.06634"
         id="path57"
         sodipodi:nodetypes="cccc" />
      <path
         style="fill:#ee02ca;fill-opacity:1;fill-rule:nonzero;stroke:#370188;stroke-width:3.175;stroke-dasharray:none;stroke-opacity:1"
         d="m 387.89188,239.94301 17.53946,6.13269 -3.43427,17.48754 -13.61455,-3.06634"
         id="path57-4"
         sodipodi:nodetypes="cccc" />
      <path
         style="fill:#ee02ca;fill-opacity:1;fill-rule:nonzero;stroke:#370188;stroke-width:3.175;stroke-dasharray:none;stroke-opacity:1"
         d="m 350.62202,234.18785 -3.91468,6.00247 17.09404,5.21954 1.21104,-6.91701 z"
         id="path58"
         sodipodi:nodetypes="ccccc" />
      <path
         style="fill:#ee02ca;fill-opacity:1;fill-rule:nonzero;stroke:#370188;stroke-width:3.175;stroke-dasharray:none;stroke-opacity:1"
         d="m 374.33206,238.23299 13.21822,-4.43661 3.91465,6.43651 -14.98673,4.87936 z"
         id="path59"
         sodipodi:nodetypes="ccccc" />
      <path
         style="fill:#ffffff;fill-opacity:1;fill-rule:nonzero;stroke:#370188;stroke-width:3.175;stroke-dasharray:none;stroke-opacity:1"
         d="m 369.79343,244.43094 3e-5,59.83336"
         id="path60"
         sodipodi:nodetypes="cc" />
      <circle
         style="fill:#370188;fill-opacity:1;stroke:#370188;stroke-width:0.797947;stroke-opacity:1"
         id="path3-3-6-6-7"
         r="0.75558645"
         cy="289.18903"
         cx="375.02856"
         inkscape:transform-center-x="2.5473966"
         inkscape:transform-center-y="-7.9173349e-05" />
      <circle
         style="fill:#370188;fill-opacity:1;stroke:#370188;stroke-width:0.797947;stroke-opacity:1"
         id="path3-3-6-60-5"
         r="0.75558645"
         cy="298.46582"
         cx="374.79822"
         inkscape:transform-center-x="2.5474322"
         inkscape:transform-center-y="1.983531e-06" />
      <circle
         style="fill:#370188;fill-opacity:1;stroke:#370188;stroke-width:0.797947;stroke-opacity:1"
         id="path3-3-6-6-7-0"
         r="0.75558645"
         cy="271.1803"
         cx="374.73672"
         inkscape:transform-center-x="2.5473966"
         inkscape:transform-center-y="-7.9173349e-05" />
      <circle
         style="fill:#370188;fill-opacity:1;stroke:#370188;stroke-width:0.797947;stroke-opacity:1"
         id="path3-3-6-60-5-3"
         r="0.75558645"
         cy="280.1915"
         cx="374.94904"
         inkscape:transform-center-x="2.5474322"
         inkscape:transform-center-y="1.983531e-06" />
      <circle
         style="fill:#370188;fill-opacity:1;stroke:#370188;stroke-width:0.797947;stroke-opacity:1"
         id="path3-3-6-6-7-0-0"
         r="0.75558645"
         cy="252.55988"
         cx="374.6452"
         inkscape:transform-center-x="2.5473966"
         inkscape:transform-center-y="-7.9173349e-05" />
      <circle
         style="fill:#370188;fill-opacity:1;stroke:#370188;stroke-width:0.797947;stroke-opacity:1"
         id="path3-3-6-60-5-3-6"
         r="0.75558645"
         cy="262.10226"
         cx="374.68045"
         inkscape:transform-center-x="2.5474322"
         inkscape:transform-center-y="1.983531e-06" />
      <path
         style="fill:#ffffff;fill-opacity:1;fill-rule:nonzero;stroke:#370188;stroke-width:3.175;stroke-dasharray:none;stroke-opacity:1"
         d="m 352.13719,197.3643 c 0,0 9.8352,-1.20621 12.3404,1.48455 2.5052,2.69076 1.57734,10.4847 -3.5258,10.29913 -5.10318,-0.18558 -9.27853,-3.61861 -8.8146,-11.78368 z"
         id="path62" />
      <path
         style="fill:#ffffff;fill-opacity:1;fill-rule:nonzero;stroke:#370188;stroke-width:3.175;stroke-dasharray:none;stroke-opacity:1"
         d="m 386.14306,197.48861 c 0,0 -9.8352,-1.2062 -12.3404,1.48456 -2.5052,2.69076 -1.57734,10.48469 3.52581,10.29913 5.10318,-0.18558 9.27852,-3.61862 8.81459,-11.78369 z"
         id="path62-2" />
      <circle
         style="fill:#370188;fill-opacity:1;stroke:none;stroke-width:12.6211;stroke-dasharray:none;stroke-opacity:1"
         id="path9-5-7"
         cx="359.66571"
         cy="203.325"
         r="2.6458333" />
      <circle
         style="fill:#370188;fill-opacity:1;stroke:none;stroke-width:12.6211;stroke-dasharray:none;stroke-opacity:1"
         id="path9-5-7-6"
         cx="378.72897"
         cy="203.42162"
         r="2.6458333" />
      <path
         style="fill:#ffffff;fill-opacity:1;fill-rule:nonzero;stroke:#370188;stroke-width:3.175;stroke-dasharray:none;stroke-opacity:1"
         d="m 351.93879,199.57485 -8.09517,-1.80952"
         id="path63" />
      <path
         style="fill:#ffffff;fill-opacity:1;fill-rule:nonzero;stroke:#370188;stroke-width:3.175;stroke-dasharray:none;stroke-opacity:1"
         d="m 386.31953,199.9558 8.57135,-1.71428"
         id="path64" />
      <path
         style="fill:#ffffff;fill-opacity:1;fill-rule:nonzero;stroke:#370188;stroke-width:3.175;stroke-dasharray:none;stroke-opacity:1"
         d="m 365.46251,201.95578 c 0.85712,-1.5238 5.80949,-1.80951 7.3333,-0.28571"
         id="path65" />
      <path
         style="fill:#b98bfe;fill-opacity:1;fill-rule:nonzero;stroke:#370188;stroke-width:3.175;stroke-dasharray:none;stroke-opacity:1"
         d="m 387.22339,191.64686 c 0,0 1.31327,-13.11396 -0.93622,-14.04122 -2.24948,-0.92726 -10.69803,10.16317 -10.69803,10.16317"
         id="path66-0"
         sodipodi:nodetypes="czc" />
      <path
         style="fill:#b98bfe;fill-opacity:1;fill-rule:nonzero;stroke:#370188;stroke-width:3.175;stroke-dasharray:none;stroke-opacity:1"
         d="m 349.93927,191.77323 c 0,0 -1.31328,-13.11396 0.93621,-14.04122 2.24949,-0.92726 10.69804,10.16317 10.69804,10.16317"
         id="path66-0-3"
         sodipodi:nodetypes="czc" />
      <path
         style="fill:none;fill-opacity:1;fill-rule:nonzero;stroke:#370188;stroke-width:3.175;stroke-dasharray:none;stroke-opacity:1"
         d="m 373.48154,324.26736 4.00387,0.24578 -2.77495,-14.501"
         id="path78"
         sodipodi:nodetypes="ccc" />
    </g>
    <g
       id="g2"
       clip-path="url(#clipPath2)">
      <path
         style="fill:#bb7a02;fill-opacity:1;stroke:#370188;stroke-width:3.175;stroke-dasharray:none;stroke-opacity:1"
         d="m 257.66821,316.75714 31.97746,5.88806 42.11444,-6.06376 -13.47289,-36.36905 -48.2159,-2.95889 z"
         id="path31"
         sodipodi:nodetypes="cccccc" />
      <path
         style="fill:#fdc458;fill-opacity:1;stroke:#370188;stroke-width:3.175;stroke-dasharray:none;stroke-opacity:1"
         d="m 241.91002,276.18218 c -5.55973,0.9605 -8.23371,4.3201 -9.96277,6.15951 -2.63135,2.79929 -4.99161,2.40659 -4.65757,-0.72919 0.59754,-5.60935 10.19091,-11.53087 14.20248,-11.90652"
         id="path30"
         sodipodi:nodetypes="cssc" />
      <path
         style="fill:#fdc458;fill-opacity:1;stroke:#370188;stroke-width:3.175;stroke-dasharray:none;stroke-opacity:1"
         d="m 258.07718,241.17207 c -12.13056,0.26607 -15.89227,11.18217 -16.14989,18.02856 -0.35985,9.56319 -1.39128,41.01085 1.92154,52.84228 3.3128,11.83142 5.2058,15.61748 24.13607,16.09073 18.9303,0.47326 66.25599,-0.47325 66.25599,-0.47325 0,0 -50.40306,-5.73794 -56.08215,-15.67634 -5.67909,-9.9384 -6.6762,-42.05426 -6.38778,-52.47267 0.20733,-7.48503 -2.33563,-17.86605 -13.69378,-18.33931 z"
         id="path26"
         sodipodi:nodetypes="cssscssc" />
      <path
         sodipodi:type="spiral"
         style="fill:#bb7a02;fill-opacity:1;fill-rule:evenodd;stroke:#370188;stroke-width:0.695287;stroke-dasharray:none;stroke-opacity:1"
         id="path27"
         sodipodi:cx="105.75211"
         sodipodi:cy="39.133308"
         sodipodi:expansion="1.9"
         sodipodi:revolution="1.8526812"
         sodipodi:radius="10.963904"
         sodipodi:argument="-18.497511"
         sodipodi:t0="0.12886804"
         d="m 105.69006,39.348002 c -0.32401,0.23185 -0.69518,-0.169724 -0.77545,-0.456763 -0.23505,-0.84048 0.61833,-1.513252 1.36817,-1.59391 1.54382,-0.166068 2.64192,1.346958 2.66371,2.75927 0.0376,2.433734 -2.34374,4.074062 -4.61129,3.978909 -3.50843,-0.147224 -5.803332,-3.600767 -5.534662,-6.911455 0.386726,-4.765445 5.112132,-7.824404 9.650082,-7.326992 2.50124,0.274164 4.82855,1.527219 6.51074,3.386706"
         transform="matrix(-4.5664566,0,0,4.5664566,797.8215,122.72538)" />
      <circle
         style="fill:#fdc458;fill-opacity:1;stroke:#370188;stroke-width:3.175;stroke-dasharray:none;stroke-opacity:1"
         id="path28"
         cx="238.51143"
         cy="222.62022"
         r="2.4649308" />
      <path
         style="fill:#ffffff;fill-opacity:1;stroke:#370188;stroke-width:3.175;stroke-dasharray:none;stroke-opacity:1"
         d="m 247.87816,244.01583 -7.88775,-18.53628"
         id="path29" />
      <circle
         style="fill:#fdc458;fill-opacity:1;stroke:#370188;stroke-width:3.175;stroke-dasharray:none;stroke-opacity:1"
         id="path28-0"
         cx="-275.66803"
         cy="222.29997"
         r="2.4649308"
         transform="scale(-1,1)" />
      <path
         style="fill:#ffffff;fill-opacity:1;stroke:#370188;stroke-width:3.175;stroke-dasharray:none;stroke-opacity:1"
         d="m 266.30129,243.69558 7.88775,-18.53628"
         id="path29-6" />
      <circle
         style="fill:#370188;fill-opacity:1;stroke:none;stroke-width:12.6211;stroke-dasharray:none;stroke-opacity:1"
         id="path9"
         cx="251.32143"
         cy="255.06075"
         r="2.6458333" />
      <circle
         style="fill:#370188;fill-opacity:1;stroke:none;stroke-width:12.6211;stroke-dasharray:none;stroke-opacity:1"
         id="path9-5"
         cx="261.40073"
         cy="255.62532"
         r="2.6458333" />
      <path
         style="fill:#fdc458;fill-opacity:1;stroke:#370188;stroke-width:3.175;stroke-dasharray:none;stroke-opacity:1"
         d="m 269.60704,275.62098 c 5.55971,0.9605 7.91991,6.20282 9.64898,8.04224 2.63135,2.79928 5.30539,1.67442 4.97135,-1.46137 -0.59753,-5.60935 -10.19092,-12.68142 -14.20247,-13.05707"
         id="path30-2"
         sodipodi:nodetypes="cssc" />
      <path
         style="mix-blend-mode:normal;fill:#02ee25;fill-opacity:1;fill-rule:nonzero;stroke:#370188;stroke-width:3.175;stroke-dasharray:none;stroke-opacity:1"
         d="m 239.26716,270.0955 1.62537,6.72842 -0.67368,5.19753 c 0,4.76464 -0.0632,31.61077 -8.46842,42.20189 15.83811,0.55553 79.83357,-0.15519 88.3358,-0.18221 -37.05259,-4.98841 -47.55622,-40.64825 -49.38614,-44.23874 -0.26352,-0.51678 -0.23241,-2.66961 -0.23241,-2.66961 l 2.67863,-6.24797 -2.90824,-3.10851 -4.96751,6.207 -19.50784,-0.1624 -3.45027,-6.30801 z"
         id="path33"
         sodipodi:nodetypes="cccccsccccccc" />
    </g>
    <path
       style="fill:#018816;fill-opacity:1;stroke:#370188;stroke-width:3.175;stroke-dasharray:none;stroke-opacity:1"
       d="m 78.391144,269.34437 -2.44821,35.65858 51.518656,1.38376 -2.02244,-39.59697 z"
       id="path25-4" />
    <path
       style="fill:#ffffff;fill-opacity:1;stroke:#370188;stroke-width:3.175;stroke-dasharray:none;stroke-opacity:1"
       d="m 61.729888,277.79219 c 0,15.83268 7.109174,26.92819 17.072324,33.2866 2.370486,1.51283 4.90258,2.75752 7.53891,3.73403 23.316628,8.63653 54.788078,-3.70364 54.763758,-37.02063 l -15.06804,15.50714 -15.15129,-6.57609 -19.957538,9.34238 -10.755375,-11.69093 -8.490204,5.1436 z"
       id="path1-8"
       sodipodi:nodetypes="cssccccccc" />
    <path
       style="fill:#370189;fill-opacity:1;stroke:#370188;stroke-width:0;stroke-dasharray:none;stroke-opacity:1"
       d="m 85.657894,313.12813 -3.826923,-5.2726 5.071173,2.35369 1.326261,-3.92795 0.376809,4.14214 4.169982,-3.19913 -2.573465,4.76485 5.63245,0.54648 -3.692811,2.899 z"
       id="path3-2"
       sodipodi:nodetypes="cccccccccc" />
    <path
       style="fill:#370189;fill-opacity:1;stroke:#370188;stroke-width:0;stroke-dasharray:none;stroke-opacity:1"
       d="m 116.80261,313.66448 3.03511,-5.32825 -4.74552,2.65566 -0.40824,-3.99875 -1.23584,4.49196 -4.72465,-1.36681 3.40941,3.17529 -4.7818,1.08258 4.5025,2.28216 z"
       id="path3-1-5"
       sodipodi:nodetypes="cccccccccc" />
    <path
       style="fill:#ee4302;fill-opacity:1;stroke:#370188;stroke-width:3.175;stroke-dasharray:none;stroke-opacity:1"
       d="m 86.252222,314.4582 c -0.09081,0.82798 -0.110808,10.87926 -0.110808,10.87926 l -7.657909,4.01428 9.170479,-1.55092 0.742855,0.90941 0.700278,-0.93297 8.75249,1.41576 -6.925976,-3.71138 c 0,0 0.07017,-8.9828 0.0127,-9.10428 z"
       id="path7-8"
       sodipodi:nodetypes="cccccccccc" />
    <path
       style="fill:#ee4302;fill-opacity:1;stroke:#370188;stroke-width:3.175;stroke-dasharray:none;stroke-opacity:1"
       d="m 116.29076,313.7203 0.34005,12.60687 7.87114,2.6912 -9.9795,-1.45317 -0.74286,0.90942 -0.70031,-0.93298 -9.07621,1.20136 7.41826,-3.10318 c 0,0 0.16637,-9.20293 0.17971,-9.394 z"
       id="path7-4-0"
       sodipodi:nodetypes="cccccccccc" />
    <path
       style="fill:none;fill-opacity:1;stroke:#370188;stroke-width:3.175;stroke-dasharray:none;stroke-opacity:1"
       d="m 86.750379,290.14056 3.905726,-9.47852 22.305455,-0.053 3.05492,7.69032"
       id="path19-60"
       sodipodi:nodetypes="cccc" />
    <path
       style="fill:#fdc458;fill-opacity:1;stroke:#370188;stroke-width:3.175;stroke-dasharray:none;stroke-opacity:1"
       d="m 75.106385,259.39818 c 0,0 -38.472776,27.21073 6.956202,15.58833 z"
       id="path17-0"
       sodipodi:nodetypes="ccc" />
    <path
       style="fill:#fdc458;fill-opacity:1;stroke:#370188;stroke-width:3.175;stroke-dasharray:none;stroke-opacity:1"
       d="m 131.3589,260.43707 c 0,0 34.30229,21.19084 -7.53478,15.42339 z"
       id="path16-7"
       sodipodi:nodetypes="ccc" />
    <path
       style="fill:#fdc458;fill-opacity:1;stroke:#370188;stroke-width:3.175;stroke-dasharray:none;stroke-opacity:1"
       d="M 117.73701,245.63674 C 135.16296,206.69483 68.106177,207.2916 85.145512,246.28 l 15.592738,7.69652 z"
       id="path23-5"
       sodipodi:nodetypes="cccc" />
    <path
       style="fill:#018816;fill-opacity:1;stroke:#370188;stroke-width:3.175;stroke-dasharray:none;stroke-opacity:1"
       d="m 84.10516,275.09941 -9.800304,4.0472 -6.621494,-19.13718 13.522515,-5.46456 -0.305753,-10.09069 19.875566,9.57891 20.48709,-10.49623 v 8.56177 l 14.32217,7.7724 -6.59069,18.69103 -9.53129,-3.85835"
       id="path12-0"
       sodipodi:nodetypes="ccccccccccc" />
    <circle
       style="fill:#370188;fill-opacity:1;stroke:none;stroke-width:8.13508;stroke-dasharray:none;stroke-opacity:1"
       id="path9-8"
       cx="95.476143"
       cy="230.67378"
       r="1.7054044" />
    <circle
       style="fill:#370188;fill-opacity:1;stroke:none;stroke-width:8.13508;stroke-dasharray:none;stroke-opacity:1"
       id="path9-4"
       cx="107.97276"
       cy="230.7589"
       r="1.7054044" />
    <path
       style="fill:none;fill-opacity:1;stroke:#370188;stroke-width:3.175;stroke-dasharray:none;stroke-opacity:1"
       d="m 80.900759,254.34335 19.874931,4.48241 20.9963,-6.52114"
       id="path22-1"
       sodipodi:nodetypes="ccc" />
    <path
       style="fill:none;fill-opacity:1;stroke:#370188;stroke-width:3.175;stroke-dasharray:none;stroke-opacity:1"
       d="m 91.594096,253.39641 -3.37312,20.3066"
       id="path10-79"
       sodipodi:nodetypes="cc" />
    <path
       style="fill:none;fill-opacity:1;stroke:#370188;stroke-width:3.175;stroke-dasharray:none;stroke-opacity:1"
       d="m 109.03399,252.89 2.50113,20.97738"
       id="path11-71"
       sodipodi:nodetypes="cc" />
    <path
       style="fill:none;fill-opacity:1;stroke:#370188;stroke-width:3.175;stroke-dasharray:none;stroke-opacity:1"
       d="m 102.84964,235.80145 -5.982732,3.09451 7.220532,3.30086"
       id="path24-70" />
    <path
       style="fill:none;fill-opacity:1;stroke:#370188;stroke-width:3.175;stroke-dasharray:none;stroke-opacity:1"
       d="m 101.54505,218.73306 c 5.40633,-4.70871 -5.057486,-5.05752 0.52321,-8.89425"
       id="path26-0"
       sodipodi:nodetypes="cc" />
    <g
       id="g6"
       transform="rotate(22.343004,-39.639498,451.1956)"
       clip-path="url(#clipPath6)">
      <path
         style="fill:#ffffff;fill-opacity:1;stroke:#370188;stroke-width:3.21643;stroke-dasharray:none;stroke-opacity:1"
         d="m -57.629844,228.95188 c 1.24358,8.17194 13.4967,27.73727 15.45088,31.82324 1.95415,4.08597 -3.22145,8.96309 -6.77443,5.76539 -3.55302,-3.19776 -15.76829,-21.08606 -17.36715,-27.30386"
         id="path5-1-2-1-7"
         sodipodi:nodetypes="cssc" />
      <path
         style="fill:#ffffff;fill-opacity:1;stroke:#370188;stroke-width:3.21643;stroke-dasharray:none;stroke-opacity:1"
         d="m -99.995899,271.18893 c -0.816861,6.53498 -4.510061,21.22091 -12.139901,30.13967 -6.13108,7.16677 -14.56271,8.4803 -18.80835,10.80215 -9.77519,5.346 -6.769,14.03994 1.93155,11.82474 12.68041,-3.22846 31.836323,-6.96699 30.95234,-15.8067"
         id="path2-4-2-5-8-3"
         sodipodi:nodetypes="csssc" />
      <path
         style="fill:#9a58fe;fill-opacity:1;stroke:#370188;stroke-width:3.21643;stroke-dasharray:none;stroke-opacity:1"
         d="m -56.182674,235.07467 14.44256,20.39693 -11.14863,9.75506"
         id="path13-6-7-6-8"
         sodipodi:nodetypes="ccc" />
      <path
         style="fill:#ffffff;fill-opacity:1;stroke:#370188;stroke-width:3.21643;stroke-dasharray:none;stroke-opacity:1"
         d="m -52.478124,183.36558 c 2.98009,-3.66221 -0.72158,-6.68728 -3.80158,-2.51292"
         id="path15-0-5-6-6-1"
         sodipodi:nodetypes="cc" />
      <path
         style="fill:#ffffff;fill-opacity:1;stroke:#370188;stroke-width:3.21656;stroke-dasharray:none;stroke-opacity:1"
         d="m -73.303004,207.70999 c 9.26553,17.31194 44.37713,6.82723 30.47879,-11.94766 -13.89834,-18.77498 -19.2626,-20.48179 -30.23495,-19.99418 -10.972391,0.48771 -19.640045,10.31736 -20.72561,18.2873 -1.429766,10.49709 -3.327304,59.21102 -5.765641,73.59704 -1.997715,11.78674 0.793941,34.08944 2.082419,46.63332 0.284163,2.76612 0.49511,5.05771 0.565563,6.65731 0.443579,10.07059 13.414279,10.82716 14.142148,0.73152 0.539369,-7.48017 10.085451,-6.21151 10.387551,0 0.45123,9.27808 13.78369,9.12606 14.58449,-0.2613 0.92951,-10.89467 6.17163,-40.69925 5.15074,-52.22005 -0.97228,-10.97236 -6.7672,-52.94938 -6.7672,-52.94938 v 0"
         id="path1-2-4-7-1-7"
         sodipodi:nodetypes="csssssssssscc" />
      <circle
         style="fill:#370188;fill-opacity:1;stroke:#370188;stroke-width:0.804104;stroke-opacity:1"
         id="path3-29-2-0"
         cx="56.051304"
         cy="189.66904"
         r="1.5030103"
         transform="scale(-1,1)" />
      <circle
         style="fill:#370188;fill-opacity:1;stroke:#370188;stroke-width:0.804104;stroke-opacity:1"
         id="path3-3-5-9-1"
         cx="66.698219"
         cy="192.00301"
         r="1.5030103"
         transform="scale(-1,1)" />
      <path
         style="fill:#370188;fill-opacity:1;stroke:#370188;stroke-width:3.21643;stroke-dasharray:none;stroke-opacity:1"
         d="m -51.110264,201.22362 c -1.06385,-0.69009 -5.0199,0.46523 -5.52069,1.5527 -0.46854,1.01737 3.81838,3.16652 4.54307,2.76035 0.53051,-0.29718 2.04153,-3.62296 0.97762,-4.31305 z"
         id="path4-2-3-9-6"
         sodipodi:nodetypes="zssz" />
      <path
         style="fill:#9a58fe;fill-opacity:1;stroke:#370188;stroke-width:3.21643;stroke-dasharray:none;stroke-opacity:1"
         d="m -99.327561,295.57427 c 0.340518,5.32857 0.99514,27.69688 0.99514,27.69688 l 19.1556,-0.58045 1.990185,-5.97062 1.741422,6.05349 20.39947,0.58052 c 0,0 0.21209,-19.99025 0.66339,-29.02366 0.45123,-9.03342 3.11143,-13.35294 1.94037,-25.16197 -1.17107,-11.80906 -5.49523,-45.01379 -5.49523,-45.01379 l -5.28793,1.13319 -4.91023,10.19817 -4.15487,-10.38705 -23.229223,-1.51085 c 0,0 -1.737105,30.37408 -4.163123,44.7587 -2.42599,14.3845 -0.33385,17.47355 -0.129857,20.37636 0.204152,2.9028 0.144145,1.5225 0.484727,6.85108 z"
         id="path14-0-7-8-2"
         sodipodi:nodetypes="zccccczzccccczzz" />
      <path
         style="fill:#ffffff;fill-opacity:1;stroke:#370188;stroke-width:3.21643;stroke-dasharray:none;stroke-opacity:1"
         d="m -96.599221,234.89773 c -0.691102,10.08987 1.553052,30.37777 1.962754,34.40325 0.552862,5.43208 7.643431,6.63439 8.749188,0.13812 1.105726,-6.49628 1.556734,-27.26405 1.556734,-27.26405"
         id="path6-86-3-4-3"
         sodipodi:nodetypes="cssc" />
      <path
         style="fill:#ffffff;fill-opacity:1;stroke:#370188;stroke-width:3.21643;stroke-dasharray:none;stroke-opacity:1"
         d="m -72.996274,224.24345 4.17071,11.2469"
         id="path10-5-4-0-6-1"
         sodipodi:nodetypes="cc" />
      <path
         style="fill:#9a58fe;fill-opacity:1;stroke:#370188;stroke-width:3.21643;stroke-dasharray:none;stroke-opacity:1"
         d="m -76.743216,234.21803 3.074572,-8.95407 -22.081074,-1.61389 -2.640901,9.02313 z"
         id="path7-1-7-2-3-4"
         sodipodi:nodetypes="ccccc" />
      <path
         style="fill:#ffffff;fill-opacity:1;stroke:#370188;stroke-width:3.21643;stroke-dasharray:none;stroke-opacity:1"
         d="m -68.514854,235.77076 5.09152,-11.52731"
         id="path9-9-9-5-8-8"
         sodipodi:nodetypes="cc" />
      <path
         style="fill:#9a58fe;fill-opacity:1;stroke:#370188;stroke-width:3.21643;stroke-dasharray:none;stroke-opacity:1"
         d="m -57.823134,224.23691 -5.11909,0.79594 2.01381,9.07551 6.3901,-1.8254 z"
         id="path8-9-5-7-9-9"
         sodipodi:nodetypes="ccccc" />
      <path
         style="fill:#9a58fe;fill-opacity:1;stroke:#370188;stroke-width:3.21643;stroke-dasharray:none;stroke-opacity:1"
         d="m -81.301372,240.26354 -0.752666,24.69109 -15.035275,-3.05022 0.694753,-27.08948"
         id="path12-2-2-7-8-2"
         sodipodi:nodetypes="cccc" />
      <path
         style="fill:#9a58fe;fill-opacity:1;stroke:#370188;stroke-width:3.21643;stroke-dasharray:none;stroke-opacity:1"
         d="m -68.611564,235.30204 c 0,0 1.32988,28.23527 1.43218,31.20199 0.10255,2.96675 -1.85966,33.1203 -1.85966,33.1203 l -5.23132,-0.40301"
         id="path11-7-9-4-2-3"
         sodipodi:nodetypes="csc" />
      <circle
         style="fill:#370188;fill-opacity:1;stroke:#370188;stroke-width:0.804104;stroke-opacity:1"
         id="path3-3-6-16-4-6-1"
         r="0.76141715"
         cy="243.92111"
         cx="72.28199"
         inkscape:transform-center-x="-2.5670621"
         inkscape:transform-center-y="-5.6852825e-06"
         transform="scale(-1,1)" />
      <circle
         style="fill:#370188;fill-opacity:1;stroke:#370188;stroke-width:0.804104;stroke-opacity:1"
         id="path3-3-6-9-41-1-0-5"
         r="0.76141715"
         cy="254.04964"
         cx="71.7948"
         inkscape:transform-center-x="-2.5670286"
         inkscape:transform-center-y="-3.6976775e-06"
         transform="scale(-1,1)" />
      <circle
         style="fill:#370188;fill-opacity:1;stroke:#370188;stroke-width:0.804104;stroke-opacity:1"
         id="path3-3-6-2-6-2-9-0"
         r="0.76141715"
         cy="263.47653"
         cx="71.31382"
         inkscape:transform-center-x="-2.567049"
         inkscape:transform-center-y="7.9723223e-06"
         transform="scale(-1,1)" />
      <circle
         style="fill:#370188;fill-opacity:1;stroke:#370188;stroke-width:0.804104;stroke-opacity:1"
         id="path3-3-6-1-3-7-6-7"
         r="0.76141715"
         cy="273.26813"
         cx="71.478928"
         inkscape:transform-center-x="-2.5670673"
         inkscape:transform-center-y="1.4437816e-05"
         transform="scale(-1,1)" />
      <circle
         style="fill:#370188;fill-opacity:1;stroke:#370188;stroke-width:0.804104;stroke-opacity:1"
         id="path3-3-6-6-9-8-5-4"
         r="0.76141715"
         cy="283.40564"
         cx="72.051765"
         inkscape:transform-center-x="-2.56704"
         inkscape:transform-center-y="-8.241693e-06"
         transform="scale(-1,1)" />
      <circle
         style="fill:#370188;fill-opacity:1;stroke:#370188;stroke-width:0.804104;stroke-opacity:1"
         id="path3-3-6-60-59-6-9-2"
         r="0.76141715"
         cy="293.20001"
         cx="72.622658"
         inkscape:transform-center-x="-2.5670352"
         inkscape:transform-center-y="-1.4574684e-05"
         transform="scale(-1,1)" />
      <path
         style="fill:#ffffff;fill-opacity:1;stroke:#370188;stroke-width:3.21643;stroke-dasharray:none;stroke-opacity:1"
         d="m -80.103445,187.72984 c -3.37258,-3.08899 -6.144101,1.80683 -3.088957,3.72208"
         id="path15-1-0-5-7"
         sodipodi:nodetypes="cc" />
    </g>
    <rect
       style="fill:none;fill-opacity:1;fill-rule:nonzero;stroke:#370188;stroke-width:3.175;stroke-dasharray:none;stroke-opacity:1"
       id="rect113-4-2"
       width="282.57498"
       height="354.01248"
       x="1.5875"
       y="1.5875" />
  </g>
</svg>
