<?xml version="1.0" encoding="UTF-8" standalone="no"?>
<!-- Created with Inkscape (http://www.inkscape.org/) -->

<svg
   width="1080"
   height="1350"
   viewBox="0 0 285.74999 357.1875"
   version="1.1"
   id="svg1"
   inkscape:version="1.4 (e7c3feb1, 2024-10-09)"
   sodipodi:docname="panel-03.svg"
   xmlns:inkscape="http://www.inkscape.org/namespaces/inkscape"
   xmlns:sodipodi="http://sodipodi.sourceforge.net/DTD/sodipodi-0.dtd"
   xmlns="http://www.w3.org/2000/svg"
   xmlns:svg="http://www.w3.org/2000/svg">
  <sodipodi:namedview
     id="namedview1"
     pagecolor="#ffffff"
     bordercolor="#000000"
     borderopacity="0.25"
     inkscape:showpageshadow="2"
     inkscape:pageopacity="0.0"
     inkscape:pagecheckerboard="0"
     inkscape:deskcolor="#d1d1d1"
     inkscape:document-units="px"
     inkscape:zoom="0.5472546"
     inkscape:cx="381.90634"
     inkscape:cy="760.15807"
     inkscape:window-width="1728"
     inkscape:window-height="1057"
     inkscape:window-x="2560"
     inkscape:window-y="355"
     inkscape:window-maximized="0"
     inkscape:current-layer="layer1"
     showguides="true">
    <sodipodi:guide
       position="-39.692685,26.570778"
       orientation="0,-1"
       id="guide1"
       inkscape:locked="false" />
  </sodipodi:namedview>
  <defs
     id="defs1">
    <rect
       x="337.60629"
       y="293.08679"
       width="868.13049"
       height="871.84045"
       id="rect26" />
    <rect
       x="358.01108"
       y="335.75131"
       width="877.4054"
       height="734.57196"
       id="rect25" />
    <rect
       x="418.44797"
       y="244.75258"
       width="748.0744"
       height="801.36731"
       id="rect16" />
    <clipPath
       clipPathUnits="userSpaceOnUse"
       id="clipPath32">
      <rect
         style="fill:none;fill-opacity:1;fill-rule:nonzero;stroke:#370188;stroke-width:3.175;stroke-dasharray:none;stroke-opacity:1"
         id="rect33"
         width="282.57498"
         height="354.01248"
         x="1.5875"
         y="15.875003" />
    </clipPath>
    <clipPath
       clipPathUnits="userSpaceOnUse"
       id="clipPath33">
      <rect
         style="fill:none;fill-opacity:1;fill-rule:nonzero;stroke:#370188;stroke-width:3.175;stroke-dasharray:none;stroke-opacity:1"
         id="rect34"
         width="282.57498"
         height="354.01248"
         x="1.5875"
         y="15.875003"
         transform="scale(-1,1)" />
    </clipPath>
    <clipPath
       clipPathUnits="userSpaceOnUse"
       id="clipPath34">
      <rect
         style="fill:none;fill-opacity:1;fill-rule:nonzero;stroke:#370188;stroke-width:3.175;stroke-dasharray:none;stroke-opacity:1"
         id="rect35"
         width="282.57498"
         height="354.01248"
         x="1.5875"
         y="15.875003" />
    </clipPath>
    <clipPath
       clipPathUnits="userSpaceOnUse"
       id="clipPath35">
      <rect
         style="fill:none;fill-opacity:1;fill-rule:nonzero;stroke:#370188;stroke-width:3.175;stroke-dasharray:none;stroke-opacity:1"
         id="rect36"
         width="282.57498"
         height="354.01248"
         x="1.5875"
         y="15.875003" />
    </clipPath>
    <clipPath
       clipPathUnits="userSpaceOnUse"
       id="clipPath1">
      <rect
         style="fill:none;fill-opacity:1;fill-rule:nonzero;stroke:#370188;stroke-width:0.695287;stroke-dasharray:none;stroke-opacity:1"
         id="rect2"
         width="61.880581"
         height="77.524551"
         x="-167.02388"
         y="-16.952217"
         transform="scale(-1,1)" />
    </clipPath>
    <clipPath
       clipPathUnits="userSpaceOnUse"
       id="clipPath2">
      <rect
         style="fill:none;fill-opacity:1;fill-rule:nonzero;stroke:#370188;stroke-width:3.175;stroke-dasharray:none;stroke-opacity:1"
         id="rect3"
         width="282.57498"
         height="354.01248"
         x="1.5875"
         y="1.5875" />
    </clipPath>
    <clipPath
       clipPathUnits="userSpaceOnUse"
       id="clipPath3">
      <rect
         style="fill:none;fill-opacity:1;fill-rule:nonzero;stroke:#370188;stroke-width:3.175;stroke-dasharray:none;stroke-opacity:1"
         id="rect4"
         width="282.57498"
         height="354.01248"
         x="-61.912533"
         y="1.5875" />
    </clipPath>
    <clipPath
       clipPathUnits="userSpaceOnUse"
       id="clipPath6">
      <rect
         style="fill:none;fill-opacity:1;fill-rule:nonzero;stroke:#370188;stroke-width:3.175;stroke-dasharray:none;stroke-opacity:1"
         id="rect6"
         width="282.57498"
         height="354.01248"
         x="-166.95877"
         y="-51.58847"
         transform="rotate(-22.343004)" />
    </clipPath>
    <clipPath
       clipPathUnits="userSpaceOnUse"
       id="clipPath5">
      <rect
         style="fill:none;fill-opacity:1;fill-rule:nonzero;stroke:#370188;stroke-width:3.175;stroke-dasharray:none;stroke-opacity:1"
         id="rect5"
         width="282.57498"
         height="354.01248"
         x="1.5875"
         y="1.5875" />
    </clipPath>
  </defs>
  <g
     inkscape:label="Layer 1"
     inkscape:groupmode="layer"
     id="layer1">
    <text
       xml:space="preserve"
       transform="scale(0.26458333)"
       id="text16"
       style="font-style:normal;font-variant:normal;font-weight:bold;font-stretch:normal;font-size:60px;font-family:'Josefin Slab';-inkscape-font-specification:'Josefin Slab Bold';text-align:start;letter-spacing:0px;word-spacing:0px;writing-mode:lr-tb;direction:ltr;white-space:pre;shape-inside:url(#rect16);display:inline;fill:#000000;fill-opacity:0;stroke:#370188;stroke-width:12;stroke-opacity:1" />
    <text
       xml:space="preserve"
       transform="scale(0.26458333)"
       id="text25"
       style="font-style:normal;font-variant:normal;font-weight:bold;font-stretch:normal;font-size:60px;font-family:'Josefin Slab';-inkscape-font-specification:'Josefin Slab Bold';text-align:start;letter-spacing:0px;word-spacing:0px;writing-mode:lr-tb;direction:ltr;white-space:pre;shape-inside:url(#rect25);display:inline;fill:#000000;fill-opacity:0;stroke:#370188;stroke-width:12;stroke-opacity:1" />
    <text
       xml:space="preserve"
       transform="scale(0.26458333)"
       id="text26"
       style="font-style:normal;font-variant:normal;font-weight:bold;font-stretch:normal;font-size:60px;font-family:'Josefin Slab';-inkscape-font-specification:'Josefin Slab Bold';text-align:start;letter-spacing:0px;word-spacing:0px;writing-mode:lr-tb;direction:ltr;white-space:pre;shape-inside:url(#rect26);display:inline;fill:#000000;fill-opacity:0;stroke:#370188;stroke-width:12;stroke-opacity:1" />
    <rect
       width="9.8019896"
       height="15.875"
       rx="0"
       ry="0"
       fill="#6002ee"
       stroke-width="0"
       id="rect1-3-4-39-4-2-0-5-6"
       x="247.60098"
       y="332.84583" />
    <text
       font-family="Montserrat"
       font-size="618.11px"
       font-weight="200"
       stroke-width="0"
       fill="#33333"
       id="text3-0-3-0-0-5-3-3-2"
       x="248.33717"
       y="345.42685"
       style="font-style:normal;font-variant:normal;font-weight:300;font-stretch:normal;font-size:13.0774px;font-family:Montserrat;-inkscape-font-specification:'Montserrat Light'"
       transform="scale(0.99938968,1.0006107)"><tspan
         y="345.42685"
         font-weight="200"
         stroke-width="0"
         id="tspan1-4-8-6-2-1-2-5-9"
         style="font-style:normal;font-variant:normal;font-weight:300;font-stretch:normal;font-size:13.0774px;font-family:Montserrat;-inkscape-font-specification:'Montserrat Light'"><tspan
           style="font-style:normal;font-variant:normal;font-weight:300;font-stretch:normal;font-size:13.0774px;font-family:Montserrat;-inkscape-font-specification:'Montserrat Light';fill:#ffffff;fill-opacity:1;stroke-width:0"
           id="tspan3-6-3-13-5-2-1-6-6">k</tspan></tspan></text>
    <text
       dx="0"
       dy="0"
       font-family="Montserrat"
       font-size="465.256px"
       font-weight="200"
       stroke-width="0"
       fill="#33333"
       id="text3-0-3-6-8-4-0-8-9"
       x="195.17656"
       y="345.42685"
       style="font-style:normal;font-variant:normal;font-weight:300;font-stretch:normal;font-size:13.0774px;font-family:Montserrat;-inkscape-font-specification:'Montserrat Light'"
       transform="scale(0.99938968,1.0006107)"><tspan
         y="345.42685"
         font-weight="200"
         stroke-width="0"
         id="tspan1-4-8-3-9-0-0-6-9"
         style="font-style:normal;font-variant:normal;font-weight:300;font-stretch:normal;font-size:13.0774px;font-family:Montserrat;-inkscape-font-specification:'Montserrat Light'">product</tspan></text>
    <text
       font-family="Montserrat"
       font-size="465.256px"
       font-weight="200"
       stroke-width="0"
       fill="#33333"
       id="text3-0-3-6-4-3-4-3-7-8"
       x="257.78415"
       y="345.42685"
       style="font-style:normal;font-variant:normal;font-weight:300;font-stretch:normal;font-size:13.0774px;font-family:Montserrat;-inkscape-font-specification:'Montserrat Light'"
       transform="scale(0.99938968,1.0006107)"><tspan
         y="345.42685"
         font-weight="200"
         stroke-width="0"
         id="tspan1-4-8-3-6-9-9-9-7-0"
         style="font-style:normal;font-variant:normal;font-weight:300;font-stretch:normal;font-size:13.0774px;font-family:Montserrat;-inkscape-font-specification:'Montserrat Light'">ind</tspan></text>
    <text
       xml:space="preserve"
       style="font-style:normal;font-variant:normal;font-weight:normal;font-stretch:normal;font-size:19.05px;font-family:'Nanum Pen';-inkscape-font-specification:'Nanum Pen';text-align:start;letter-spacing:0px;word-spacing:0px;writing-mode:lr-tb;direction:ltr;text-anchor:start;white-space:pre;inline-size:253.265;display:inline;fill:#370188;fill-opacity:1;stroke:none;stroke-width:1.5875;stroke-linecap:round;stroke-dasharray:none;stroke-opacity:1"
       x="-99.925728"
       y="156.49693"
       id="text17"
       transform="translate(119.63673,-130.10104)"><tspan
         x="-99.925728"
         y="156.49693"
         id="tspan1">Good instinct! Prioritise the likely </tspan><tspan
         x="-99.925728"
         y="180.30944"
         id="tspan2">ones, let the unlikely ones nap in the </tspan><tspan
         x="-99.925728"
         y="204.12194"
         id="tspan3">backlog.</tspan></text>
    <path
       style="fill:none;fill-opacity:1;stroke:#370188;stroke-width:1.5875;stroke-linecap:round;stroke-dasharray:none;stroke-opacity:1"
       d="M 48.155604,165.12305 C 39.209179,136.07871 61.644395,105.00012 52.935981,82.741636"
       id="path13-1"
       sodipodi:nodetypes="cc" />
    <path
       style="fill:none;fill-opacity:1;stroke:#370188;stroke-width:1.5875;stroke-linecap:round;stroke-dasharray:none;stroke-opacity:1"
       d="m 122.94854,205.26247 c 0.19775,-29.04434 18.36568,-48.54032 38.91862,-73.23725"
       id="path13-1-4"
       sodipodi:nodetypes="cc" />
    <g
       id="g4"
       transform="translate(-176.92843,-16.80743)">
      <path
         style="fill:#b98bfe;fill-opacity:1;fill-rule:nonzero;stroke:#370188;stroke-width:3.175;stroke-dasharray:none;stroke-opacity:1"
         d="m 395.56148,297.92227 c 14.38475,-0.25686 19.43242,-7.842 21.83396,-15.15534 3.22393,-9.8177 7.98583,-11.95542 12.58662,-3.08245 3.5962,6.9355 7.963,2.05497 5.13744,-2.05496 -2.82559,-4.10992 -6.39569,-10.61688 -14.8985,-8.21985 -8.74874,2.46636 -4.88054,24.14581 -25.43013,23.63207"
         id="path68"
         sodipodi:nodetypes="cssssc" />
      <path
         style="fill:#b98bfe;fill-opacity:1;fill-rule:nonzero;stroke:#370188;stroke-width:3.175;stroke-dasharray:none;stroke-opacity:1"
         d="m 404.45478,249.49789 c 16.19634,5.3238 13.8764,14.98207 -2.92418,11.09709"
         id="path61-9"
         sodipodi:nodetypes="cc" />
      <path
         style="fill:#b98bfe;fill-opacity:1;fill-rule:nonzero;stroke:#370188;stroke-width:3.175;stroke-dasharray:none;stroke-opacity:1"
         d="m 334.31436,249.91655 c -16.19634,5.3238 -13.8764,14.98207 2.92418,11.0971"
         id="path61"
         sodipodi:nodetypes="cc" />
      <path
         style="fill:#b98bfe;fill-opacity:1;fill-rule:nonzero;stroke:#370188;stroke-width:3.175;stroke-dasharray:none;stroke-opacity:1"
         d="m 351.66361,234.76319 c -25.53268,-25.40051 -6.65648,-52.88401 18.84147,-51.92556 25.11596,0.9441 40.3705,29.17676 17.00911,51.85551 3.85425,24.96866 10.0803,70.52398 10.6311,104.67395 -1.63141,9.34331 -16.16078,8.97821 -17.23815,-1.43651 -1.07741,-10.41472 -14.01283,-11.94105 -14.57938,-0.16732 -0.50343,10.462 -17.31089,10.41553 -17.74219,-0.1918 -2.53707,-17.45115 1.06293,-77.48945 3.07804,-102.80824 z"
         id="path49"
         sodipodi:nodetypes="csccssccc" />
      <path
         style="fill:#370188;fill-opacity:1;fill-rule:nonzero;stroke:#370188;stroke-width:3.175;stroke-dasharray:none;stroke-opacity:1"
         d="m 369.20269,217.26369 c 0.53238,0.0111 3.57276,-4.01333 3.31508,-4.46341 -0.25781,-0.45009 -6.11673,-0.63218 -6.46579,-0.15107 -0.34906,0.48111 2.61833,4.6035 3.15071,4.61448 z"
         id="path51"
         sodipodi:nodetypes="zzzz" />
      <path
         style="fill:#6002ee;fill-opacity:1;fill-rule:nonzero;stroke:#370188;stroke-width:3.175;stroke-dasharray:none;stroke-opacity:1"
         d="m 376.09698,214.28609 9.24446,1.75721"
         id="path52" />
      <path
         style="fill:#6002ee;fill-opacity:1;fill-rule:nonzero;stroke:#370188;stroke-width:3.175;stroke-dasharray:none;stroke-opacity:1"
         d="m 374.64537,218.41171 7.33444,3.66722"
         id="path53" />
      <path
         style="fill:#6002ee;fill-opacity:1;fill-rule:nonzero;stroke:#370188;stroke-width:3.175;stroke-dasharray:none;stroke-opacity:1"
         d="m 362.06015,214.16093 -9.24446,1.75721"
         id="path52-5" />
      <path
         style="fill:#6002ee;fill-opacity:1;fill-rule:nonzero;stroke:#370188;stroke-width:3.175;stroke-dasharray:none;stroke-opacity:1"
         d="m 363.51176,218.28655 -7.33444,3.66722"
         id="path53-5" />
      <path
         style="fill:#ee02ca;fill-opacity:1;fill-rule:nonzero;stroke:#370188;stroke-width:3.175;stroke-dasharray:none;stroke-opacity:1"
         d="m 343.3292,338.20581 26.58288,0.41306 3.29813,-15.55068 3.43055,15.49144 27.34977,-0.10287 -5.70738,-57.54784 -53.14426,0.29356 z"
         id="path55"
         sodipodi:nodetypes="cccccccc" />
      <path
         style="fill:#ee02ca;fill-opacity:1;fill-rule:nonzero;stroke:#370188;stroke-width:3.175;stroke-dasharray:none;stroke-opacity:1"
         d="m 387.54533,233.81894 16.8729,71.52352 -63.39858,-0.3447 9.64288,-70.83413 15.05207,4.21068 4.05041,7.53825 3.71288,-7.31323 z"
         id="path56"
         sodipodi:nodetypes="cccccccc" />
      <path
         style="fill:#ee02ca;fill-opacity:1;fill-rule:nonzero;stroke:#370188;stroke-width:3.175;stroke-dasharray:none;stroke-opacity:1"
         d="m 351.27782,240.12615 -17.53947,6.13268 3.43427,17.48754 13.61456,-3.06634"
         id="path57"
         sodipodi:nodetypes="cccc" />
      <path
         style="fill:#ee02ca;fill-opacity:1;fill-rule:nonzero;stroke:#370188;stroke-width:3.175;stroke-dasharray:none;stroke-opacity:1"
         d="m 387.89188,239.94301 17.53946,6.13269 -3.43427,17.48754 -13.61455,-3.06634"
         id="path57-4"
         sodipodi:nodetypes="cccc" />
      <path
         style="fill:#ee02ca;fill-opacity:1;fill-rule:nonzero;stroke:#370188;stroke-width:3.175;stroke-dasharray:none;stroke-opacity:1"
         d="m 350.62202,234.18785 -3.91468,6.00247 17.09404,5.21954 1.21104,-6.91701 z"
         id="path58"
         sodipodi:nodetypes="ccccc" />
      <path
         style="fill:#ee02ca;fill-opacity:1;fill-rule:nonzero;stroke:#370188;stroke-width:3.175;stroke-dasharray:none;stroke-opacity:1"
         d="m 374.33206,238.23299 13.21822,-4.43661 3.91465,6.43651 -14.98673,4.87936 z"
         id="path59"
         sodipodi:nodetypes="ccccc" />
      <path
         style="fill:#ffffff;fill-opacity:1;fill-rule:nonzero;stroke:#370188;stroke-width:3.175;stroke-dasharray:none;stroke-opacity:1"
         d="m 369.79343,244.43094 3e-5,59.83336"
         id="path60"
         sodipodi:nodetypes="cc" />
      <circle
         style="fill:#370188;fill-opacity:1;stroke:#370188;stroke-width:0.797947;stroke-opacity:1"
         id="path3-3-6-6-7"
         r="0.75558645"
         cy="289.18903"
         cx="375.02856"
         inkscape:transform-center-x="2.5473966"
         inkscape:transform-center-y="-7.9173349e-05" />
      <circle
         style="fill:#370188;fill-opacity:1;stroke:#370188;stroke-width:0.797947;stroke-opacity:1"
         id="path3-3-6-60-5"
         r="0.75558645"
         cy="298.46582"
         cx="374.79822"
         inkscape:transform-center-x="2.5474322"
         inkscape:transform-center-y="1.983531e-06" />
      <circle
         style="fill:#370188;fill-opacity:1;stroke:#370188;stroke-width:0.797947;stroke-opacity:1"
         id="path3-3-6-6-7-0"
         r="0.75558645"
         cy="271.1803"
         cx="374.73672"
         inkscape:transform-center-x="2.5473966"
         inkscape:transform-center-y="-7.9173349e-05" />
      <circle
         style="fill:#370188;fill-opacity:1;stroke:#370188;stroke-width:0.797947;stroke-opacity:1"
         id="path3-3-6-60-5-3"
         r="0.75558645"
         cy="280.1915"
         cx="374.94904"
         inkscape:transform-center-x="2.5474322"
         inkscape:transform-center-y="1.983531e-06" />
      <circle
         style="fill:#370188;fill-opacity:1;stroke:#370188;stroke-width:0.797947;stroke-opacity:1"
         id="path3-3-6-6-7-0-0"
         r="0.75558645"
         cy="252.55988"
         cx="374.6452"
         inkscape:transform-center-x="2.5473966"
         inkscape:transform-center-y="-7.9173349e-05" />
      <circle
         style="fill:#370188;fill-opacity:1;stroke:#370188;stroke-width:0.797947;stroke-opacity:1"
         id="path3-3-6-60-5-3-6"
         r="0.75558645"
         cy="262.10226"
         cx="374.68045"
         inkscape:transform-center-x="2.5474322"
         inkscape:transform-center-y="1.983531e-06" />
      <path
         style="fill:#ffffff;fill-opacity:1;fill-rule:nonzero;stroke:#370188;stroke-width:3.175;stroke-dasharray:none;stroke-opacity:1"
         d="m 352.13719,197.3643 c 0,0 9.8352,-1.20621 12.3404,1.48455 2.5052,2.69076 1.57734,10.4847 -3.5258,10.29913 -5.10318,-0.18558 -9.27853,-3.61861 -8.8146,-11.78368 z"
         id="path62" />
      <path
         style="fill:#ffffff;fill-opacity:1;fill-rule:nonzero;stroke:#370188;stroke-width:3.175;stroke-dasharray:none;stroke-opacity:1"
         d="m 386.14306,197.48861 c 0,0 -9.8352,-1.2062 -12.3404,1.48456 -2.5052,2.69076 -1.57734,10.48469 3.52581,10.29913 5.10318,-0.18558 9.27852,-3.61862 8.81459,-11.78369 z"
         id="path62-2" />
      <circle
         style="fill:#370188;fill-opacity:1;stroke:none;stroke-width:12.6211;stroke-dasharray:none;stroke-opacity:1"
         id="path9-5-7"
         cx="359.66571"
         cy="203.325"
         r="2.6458333" />
      <circle
         style="fill:#370188;fill-opacity:1;stroke:none;stroke-width:12.6211;stroke-dasharray:none;stroke-opacity:1"
         id="path9-5-7-6"
         cx="378.72897"
         cy="203.42162"
         r="2.6458333" />
      <path
         style="fill:#ffffff;fill-opacity:1;fill-rule:nonzero;stroke:#370188;stroke-width:3.175;stroke-dasharray:none;stroke-opacity:1"
         d="m 351.93879,199.57485 -8.09517,-1.80952"
         id="path63" />
      <path
         style="fill:#ffffff;fill-opacity:1;fill-rule:nonzero;stroke:#370188;stroke-width:3.175;stroke-dasharray:none;stroke-opacity:1"
         d="m 386.31953,199.9558 8.57135,-1.71428"
         id="path64" />
      <path
         style="fill:#ffffff;fill-opacity:1;fill-rule:nonzero;stroke:#370188;stroke-width:3.175;stroke-dasharray:none;stroke-opacity:1"
         d="m 365.46251,201.95578 c 0.85712,-1.5238 5.80949,-1.80951 7.3333,-0.28571"
         id="path65" />
      <path
         style="fill:#b98bfe;fill-opacity:1;fill-rule:nonzero;stroke:#370188;stroke-width:3.175;stroke-dasharray:none;stroke-opacity:1"
         d="m 387.22339,191.64686 c 0,0 1.31327,-13.11396 -0.93622,-14.04122 -2.24948,-0.92726 -10.69803,10.16317 -10.69803,10.16317"
         id="path66-0"
         sodipodi:nodetypes="czc" />
      <path
         style="fill:#b98bfe;fill-opacity:1;fill-rule:nonzero;stroke:#370188;stroke-width:3.175;stroke-dasharray:none;stroke-opacity:1"
         d="m 349.93927,191.77323 c 0,0 -1.31328,-13.11396 0.93621,-14.04122 2.24949,-0.92726 10.69804,10.16317 10.69804,10.16317"
         id="path66-0-3"
         sodipodi:nodetypes="czc" />
      <path
         style="fill:none;fill-opacity:1;fill-rule:nonzero;stroke:#370188;stroke-width:3.175;stroke-dasharray:none;stroke-opacity:1"
         d="m 373.48154,324.26736 4.00387,0.24578 -2.77495,-14.501"
         id="path78"
         sodipodi:nodetypes="ccc" />
    </g>
    <g
       id="g2"
       clip-path="url(#clipPath2)">
      <path
         style="fill:#bb7a02;fill-opacity:1;stroke:#370188;stroke-width:3.175;stroke-dasharray:none;stroke-opacity:1"
         d="m 257.66821,316.75714 31.97746,5.88806 42.11444,-6.06376 -13.47289,-36.36905 -48.2159,-2.95889 z"
         id="path31"
         sodipodi:nodetypes="cccccc" />
      <path
         style="fill:#fdc458;fill-opacity:1;stroke:#370188;stroke-width:3.175;stroke-dasharray:none;stroke-opacity:1"
         d="m 241.91002,276.18218 c -5.55973,0.9605 -8.23371,4.3201 -9.96277,6.15951 -2.63135,2.79929 -4.99161,2.40659 -4.65757,-0.72919 0.59754,-5.60935 10.19091,-11.53087 14.20248,-11.90652"
         id="path30"
         sodipodi:nodetypes="cssc" />
      <path
         style="fill:#fdc458;fill-opacity:1;stroke:#370188;stroke-width:3.175;stroke-dasharray:none;stroke-opacity:1"
         d="m 258.07718,241.17207 c -12.13056,0.26607 -15.89227,11.18217 -16.14989,18.02856 -0.35985,9.56319 -1.39128,41.01085 1.92154,52.84228 3.3128,11.83142 5.2058,15.61748 24.13607,16.09073 18.9303,0.47326 66.25599,-0.47325 66.25599,-0.47325 0,0 -50.40306,-5.73794 -56.08215,-15.67634 -5.67909,-9.9384 -6.6762,-42.05426 -6.38778,-52.47267 0.20733,-7.48503 -2.33563,-17.86605 -13.69378,-18.33931 z"
         id="path26"
         sodipodi:nodetypes="cssscssc" />
      <path
         sodipodi:type="spiral"
         style="fill:#bb7a02;fill-opacity:1;fill-rule:evenodd;stroke:#370188;stroke-width:0.695287;stroke-dasharray:none;stroke-opacity:1"
         id="path27"
         sodipodi:cx="105.75211"
         sodipodi:cy="39.133308"
         sodipodi:expansion="1.9"
         sodipodi:revolution="1.8526812"
         sodipodi:radius="10.963904"
         sodipodi:argument="-18.497511"
         sodipodi:t0="0.12886804"
         d="m 105.69006,39.348002 c -0.32401,0.23185 -0.69518,-0.169724 -0.77545,-0.456763 -0.23505,-0.84048 0.61833,-1.513252 1.36817,-1.59391 1.54382,-0.166068 2.64192,1.346958 2.66371,2.75927 0.0376,2.433734 -2.34374,4.074062 -4.61129,3.978909 -3.50843,-0.147224 -5.803332,-3.600767 -5.534662,-6.911455 0.386726,-4.765445 5.112132,-7.824404 9.650082,-7.326992 2.50124,0.274164 4.82855,1.527219 6.51074,3.386706"
         transform="matrix(-4.5664566,0,0,4.5664566,797.8215,122.72538)" />
      <circle
         style="fill:#fdc458;fill-opacity:1;stroke:#370188;stroke-width:3.175;stroke-dasharray:none;stroke-opacity:1"
         id="path28"
         cx="238.51143"
         cy="222.62022"
         r="2.4649308" />
      <path
         style="fill:#ffffff;fill-opacity:1;stroke:#370188;stroke-width:3.175;stroke-dasharray:none;stroke-opacity:1"
         d="m 247.87816,244.01583 -7.88775,-18.53628"
         id="path29" />
      <circle
         style="fill:#fdc458;fill-opacity:1;stroke:#370188;stroke-width:3.175;stroke-dasharray:none;stroke-opacity:1"
         id="path28-0"
         cx="-275.66803"
         cy="222.29997"
         r="2.4649308"
         transform="scale(-1,1)" />
      <path
         style="fill:#ffffff;fill-opacity:1;stroke:#370188;stroke-width:3.175;stroke-dasharray:none;stroke-opacity:1"
         d="m 266.30129,243.69558 7.88775,-18.53628"
         id="path29-6" />
      <circle
         style="fill:#370188;fill-opacity:1;stroke:none;stroke-width:12.6211;stroke-dasharray:none;stroke-opacity:1"
         id="path9"
         cx="251.32143"
         cy="255.06075"
         r="2.6458333" />
      <circle
         style="fill:#370188;fill-opacity:1;stroke:none;stroke-width:12.6211;stroke-dasharray:none;stroke-opacity:1"
         id="path9-5"
         cx="261.40073"
         cy="255.62532"
         r="2.6458333" />
      <path
         style="fill:#fdc458;fill-opacity:1;stroke:#370188;stroke-width:3.175;stroke-dasharray:none;stroke-opacity:1"
         d="m 269.60704,275.62098 c 5.55971,0.9605 7.91991,6.20282 9.64898,8.04224 2.63135,2.79928 5.30539,1.67442 4.97135,-1.46137 -0.59753,-5.60935 -10.19092,-12.68142 -14.20247,-13.05707"
         id="path30-2"
         sodipodi:nodetypes="cssc" />
      <path
         style="mix-blend-mode:normal;fill:#02ee25;fill-opacity:1;fill-rule:nonzero;stroke:#370188;stroke-width:3.175;stroke-dasharray:none;stroke-opacity:1"
         d="m 239.26716,270.0955 1.62537,6.72842 -0.67368,5.19753 c 0,4.76464 -0.0632,31.61077 -8.46842,42.20189 15.83811,0.55553 79.83357,-0.15519 88.3358,-0.18221 -37.05259,-4.98841 -47.55622,-40.64825 -49.38614,-44.23874 -0.26352,-0.51678 -0.23241,-2.66961 -0.23241,-2.66961 l 2.67863,-6.24797 -2.90824,-3.10851 -4.96751,6.207 -19.50784,-0.1624 -3.45027,-6.30801 z"
         id="path33"
         sodipodi:nodetypes="cccccsccccccc" />
    </g>
    <g
       id="g1"
       transform="translate(17.462505)">
      <path
         style="fill:#018816;fill-opacity:1;stroke:#370188;stroke-width:3.175;stroke-dasharray:none;stroke-opacity:1"
         d="m 78.391144,269.34437 -2.44821,35.65858 51.518656,1.38376 -2.02244,-39.59697 z"
         id="path25-4" />
      <path
         style="fill:#ffffff;fill-opacity:1;stroke:#370188;stroke-width:3.175;stroke-dasharray:none;stroke-opacity:1"
         d="m 61.729888,277.79219 c 0,15.83268 7.109174,26.92819 17.072324,33.2866 2.370486,1.51283 4.90258,2.75752 7.53891,3.73403 23.316628,8.63653 54.788078,-3.70364 54.763758,-37.02063 l -15.06804,15.50714 -15.15129,-6.57609 -19.957538,9.34238 -10.755375,-11.69093 -8.490204,5.1436 z"
         id="path1-8"
         sodipodi:nodetypes="cssccccccc" />
      <path
         style="fill:#370189;fill-opacity:1;stroke:#370188;stroke-width:0;stroke-dasharray:none;stroke-opacity:1"
         d="m 85.657894,313.12813 -3.826923,-5.2726 5.071173,2.35369 1.326261,-3.92795 0.376809,4.14214 4.169982,-3.19913 -2.573465,4.76485 5.63245,0.54648 -3.692811,2.899 z"
         id="path3-2"
         sodipodi:nodetypes="cccccccccc" />
      <path
         style="fill:#370189;fill-opacity:1;stroke:#370188;stroke-width:0;stroke-dasharray:none;stroke-opacity:1"
         d="m 116.80261,313.66448 3.03511,-5.32825 -4.74552,2.65566 -0.40824,-3.99875 -1.23584,4.49196 -4.72465,-1.36681 3.40941,3.17529 -4.7818,1.08258 4.5025,2.28216 z"
         id="path3-1-5"
         sodipodi:nodetypes="cccccccccc" />
      <path
         style="fill:#ee4302;fill-opacity:1;stroke:#370188;stroke-width:3.175;stroke-dasharray:none;stroke-opacity:1"
         d="m 86.252222,314.4582 c -0.09081,0.82798 -0.110808,10.87926 -0.110808,10.87926 l -7.657909,4.01428 9.170479,-1.55092 0.742855,0.90941 0.700278,-0.93297 8.75249,1.41576 -6.925976,-3.71138 c 0,0 0.07017,-8.9828 0.0127,-9.10428 z"
         id="path7-8"
         sodipodi:nodetypes="cccccccccc" />
      <path
         style="fill:#ee4302;fill-opacity:1;stroke:#370188;stroke-width:3.175;stroke-dasharray:none;stroke-opacity:1"
         d="m 116.29076,313.7203 0.34005,12.60687 7.87114,2.6912 -9.9795,-1.45317 -0.74286,0.90942 -0.70031,-0.93298 -9.07621,1.20136 7.41826,-3.10318 c 0,0 0.16637,-9.20293 0.17971,-9.394 z"
         id="path7-4-0"
         sodipodi:nodetypes="cccccccccc" />
      <path
         style="fill:none;fill-opacity:1;stroke:#370188;stroke-width:3.175;stroke-dasharray:none;stroke-opacity:1"
         d="m 86.750379,290.14056 3.905726,-9.47852 22.305455,-0.053 3.05492,7.69032"
         id="path19-60"
         sodipodi:nodetypes="cccc" />
      <path
         style="fill:#fdc458;fill-opacity:1;stroke:#370188;stroke-width:3.175;stroke-dasharray:none;stroke-opacity:1"
         d="m 75.106385,259.39818 c 0,0 -38.472776,27.21073 6.956202,15.58833 z"
         id="path17-0"
         sodipodi:nodetypes="ccc" />
      <path
         style="fill:#fdc458;fill-opacity:1;stroke:#370188;stroke-width:3.175;stroke-dasharray:none;stroke-opacity:1"
         d="m 131.3589,260.43707 c 0,0 34.30229,21.19084 -7.53478,15.42339 z"
         id="path16-7"
         sodipodi:nodetypes="ccc" />
      <path
         style="fill:#fdc458;fill-opacity:1;stroke:#370188;stroke-width:3.175;stroke-dasharray:none;stroke-opacity:1"
         d="M 117.73701,245.63674 C 135.16296,206.69483 68.106177,207.2916 85.145512,246.28 l 15.592738,7.69652 z"
         id="path23-5"
         sodipodi:nodetypes="cccc" />
      <path
         style="fill:#018816;fill-opacity:1;stroke:#370188;stroke-width:3.175;stroke-dasharray:none;stroke-opacity:1"
         d="m 84.10516,275.09941 -9.800304,4.0472 -6.621494,-19.13718 13.522515,-5.46456 -0.305753,-10.09069 19.875566,9.57891 20.48709,-10.49623 v 8.56177 l 14.32217,7.7724 -6.59069,18.69103 -9.53129,-3.85835"
         id="path12-0"
         sodipodi:nodetypes="ccccccccccc" />
      <circle
         style="fill:#370188;fill-opacity:1;stroke:none;stroke-width:8.13508;stroke-dasharray:none;stroke-opacity:1"
         id="path9-8"
         cx="95.476143"
         cy="230.67378"
         r="1.7054044" />
      <circle
         style="fill:#370188;fill-opacity:1;stroke:none;stroke-width:8.13508;stroke-dasharray:none;stroke-opacity:1"
         id="path9-4"
         cx="107.97276"
         cy="230.7589"
         r="1.7054044" />
      <path
         style="fill:none;fill-opacity:1;stroke:#370188;stroke-width:3.175;stroke-dasharray:none;stroke-opacity:1"
         d="m 80.900759,254.34335 19.874931,4.48241 20.9963,-6.52114"
         id="path22-1"
         sodipodi:nodetypes="ccc" />
      <path
         style="fill:none;fill-opacity:1;stroke:#370188;stroke-width:3.175;stroke-dasharray:none;stroke-opacity:1"
         d="m 91.594096,253.39641 -3.37312,20.3066"
         id="path10-79"
         sodipodi:nodetypes="cc" />
      <path
         style="fill:none;fill-opacity:1;stroke:#370188;stroke-width:3.175;stroke-dasharray:none;stroke-opacity:1"
         d="m 109.03399,252.89 2.50113,20.97738"
         id="path11-71"
         sodipodi:nodetypes="cc" />
      <path
         style="fill:none;fill-opacity:1;stroke:#370188;stroke-width:3.175;stroke-dasharray:none;stroke-opacity:1"
         d="m 102.84964,235.80145 -5.982732,3.09451 7.220532,3.30086"
         id="path24-70" />
      <path
         style="fill:none;fill-opacity:1;stroke:#370188;stroke-width:3.175;stroke-dasharray:none;stroke-opacity:1"
         d="m 101.54505,218.73306 c 5.40633,-4.70871 -5.057486,-5.05752 0.52321,-8.89425"
         id="path26-0"
         sodipodi:nodetypes="cc" />
    </g>
    <g
       id="g3"
       clip-path="url(#clipPath5)">
      <path
         style="fill:#ffffff;fill-opacity:1;stroke:#370188;stroke-width:3.21643;stroke-dasharray:none;stroke-opacity:1"
         d="m 58.211156,228.37107 c 1.243584,8.17194 13.496703,27.73728 15.450884,31.82325 1.954149,4.08597 -3.22145,8.96308 -6.774434,5.76538 -3.553015,-3.19776 -15.768288,-21.08606 -17.367155,-27.30385"
         id="path5-1-2-1-7"
         sodipodi:nodetypes="cssc" />
      <path
         style="fill:#ffffff;fill-opacity:1;stroke:#370188;stroke-width:3.21643;stroke-dasharray:none;stroke-opacity:1"
         d="m 15.845101,270.60813 c -0.816864,6.53497 -4.510056,21.2209 -12.1398984,30.13967 -6.131083,7.16677 -14.5627076,8.48029 -18.8083496,10.80214 -9.77519,5.346 -6.769004,14.03994 1.931543,11.82475 12.68040964,-3.22847 31.836327,-6.967 30.952344,-15.80671"
         id="path2-4-2-5-8-3"
         sodipodi:nodetypes="csssc" />
      <path
         style="fill:#9a58fe;fill-opacity:1;stroke:#370188;stroke-width:3.21643;stroke-dasharray:none;stroke-opacity:1"
         d="m 59.658321,234.49387 14.442567,20.39693 -11.148631,9.75506"
         id="path13-6-7-6-8"
         sodipodi:nodetypes="ccc" />
      <path
         style="fill:#ffffff;fill-opacity:1;stroke:#370188;stroke-width:3.21643;stroke-dasharray:none;stroke-opacity:1"
         d="m 63.36288,182.78477 c 2.980087,-3.6622 -0.721582,-6.68728 -3.801587,-2.51292"
         id="path15-0-5-6-6-1"
         sodipodi:nodetypes="cc" />
      <path
         style="fill:#ffffff;fill-opacity:1;stroke:#370188;stroke-width:3.21656;stroke-dasharray:none;stroke-opacity:1"
         d="m 42.537992,207.12918 c 9.265538,17.31194 44.377132,6.82723 30.478793,-11.94765 -13.898341,-18.77498 -19.262598,-20.4818 -30.234953,-19.99418 -10.972387,0.48771 -19.640041,10.31735 -20.725606,18.2873 -1.429766,10.49709 -3.327304,59.21101 -5.765641,73.59703 -1.99771,11.78675 0.793941,34.08944 2.082419,46.63332 0.284163,2.76613 0.49511,5.05771 0.565563,6.65731 0.443579,10.07059 13.414279,10.82716 14.142148,0.73152 0.539369,-7.48017 10.085451,-6.21151 10.387552,0 0.451231,9.27808 13.78369,9.12606 14.584489,-0.2613 0.929513,-10.89466 6.171628,-40.69925 5.150739,-52.22005 C 62.231215,257.64012 56.4363,215.6631 56.4363,215.6631 v 0"
         id="path1-2-4-7-1-7"
         sodipodi:nodetypes="csssssssssscc" />
      <circle
         style="fill:#370188;fill-opacity:1;stroke:#370188;stroke-width:0.804104;stroke-opacity:1"
         id="path3-29-2-0"
         cx="-59.789692"
         cy="189.08824"
         r="1.5030103"
         transform="scale(-1,1)" />
      <circle
         style="fill:#370188;fill-opacity:1;stroke:#370188;stroke-width:0.804104;stroke-opacity:1"
         id="path3-3-5-9-1"
         cx="-49.142788"
         cy="191.42221"
         r="1.5030103"
         transform="scale(-1,1)" />
      <path
         style="fill:#370188;fill-opacity:1;stroke:#370188;stroke-width:3.21643;stroke-dasharray:none;stroke-opacity:1"
         d="m 64.730733,200.64281 c -1.063847,-0.69008 -5.019897,0.46523 -5.52069,1.5527 -0.468535,1.01737 3.818382,3.16653 4.543076,2.76035 0.530511,-0.29718 2.041525,-3.62296 0.977614,-4.31305 z"
         id="path4-2-3-9-6"
         sodipodi:nodetypes="zssz" />
      <path
         style="fill:#9a58fe;fill-opacity:1;stroke:#370188;stroke-width:3.21643;stroke-dasharray:none;stroke-opacity:1"
         d="m 16.513439,294.99346 c 0.340518,5.32857 0.99514,27.69689 0.99514,27.69689 l 19.1556,-0.58046 1.990185,-5.97061 1.741424,6.05348 20.399469,0.58052 c 0,0 0.21209,-19.99024 0.663385,-29.02366 0.451231,-9.03341 3.111436,-13.35294 1.940369,-25.16197 -1.171067,-11.80906 -5.495226,-45.01378 -5.495226,-45.01378 l -5.287931,1.13319 -4.910232,10.19816 -4.154869,-10.38704 -23.22922,-1.51086 c 0,0 -1.737105,30.37408 -4.163123,44.7587 -2.425986,14.3845 -0.333851,17.47355 -0.129857,20.37636 0.204152,2.90281 0.144145,1.52251 0.484727,6.85108 z"
         id="path14-0-7-8-2"
         sodipodi:nodetypes="zccccczzccccczzz" />
      <path
         style="fill:#ffffff;fill-opacity:1;stroke:#370188;stroke-width:3.21643;stroke-dasharray:none;stroke-opacity:1"
         d="m 19.241779,234.31692 c -0.691102,10.08987 1.553052,30.37777 1.962754,34.40326 0.552862,5.43207 7.643431,6.63438 8.749188,0.13811 1.105726,-6.49627 1.556734,-27.26404 1.556734,-27.26404"
         id="path6-86-3-4-3"
         sodipodi:nodetypes="cssc" />
      <path
         style="fill:#ffffff;fill-opacity:1;stroke:#370188;stroke-width:3.21643;stroke-dasharray:none;stroke-opacity:1"
         d="m 42.844729,223.66264 4.170711,11.2469"
         id="path10-5-4-0-6-1"
         sodipodi:nodetypes="cc" />
      <path
         style="fill:#9a58fe;fill-opacity:1;stroke:#370188;stroke-width:3.21643;stroke-dasharray:none;stroke-opacity:1"
         d="m 39.097784,233.63722 3.074575,-8.95407 -22.081077,-1.61388 -2.640901,9.02312 z"
         id="path7-1-7-2-3-4"
         sodipodi:nodetypes="ccccc" />
      <path
         style="fill:#ffffff;fill-opacity:1;stroke:#370188;stroke-width:3.21643;stroke-dasharray:none;stroke-opacity:1"
         d="m 47.326146,235.18995 5.091525,-11.52731"
         id="path9-9-9-5-8-8"
         sodipodi:nodetypes="cc" />
      <path
         style="fill:#9a58fe;fill-opacity:1;stroke:#370188;stroke-width:3.21643;stroke-dasharray:none;stroke-opacity:1"
         d="m 58.017862,223.6561 -5.119084,0.79594 2.013808,9.07552 6.3901,-1.82541 z"
         id="path8-9-5-7-9-9"
         sodipodi:nodetypes="ccccc" />
      <path
         style="fill:#9a58fe;fill-opacity:1;stroke:#370188;stroke-width:3.21643;stroke-dasharray:none;stroke-opacity:1"
         d="M 34.539628,239.68274 33.786962,264.37382 18.751687,261.3236 19.44644,234.23412"
         id="path12-2-2-7-8-2"
         sodipodi:nodetypes="cccc" />
      <path
         style="fill:#9a58fe;fill-opacity:1;stroke:#370188;stroke-width:3.21643;stroke-dasharray:none;stroke-opacity:1"
         d="m 47.229435,234.72123 c 0,0 1.32988,28.23527 1.432179,31.20199 0.102552,2.96675 -1.859661,33.1203 -1.859661,33.1203 l -5.23132,-0.403"
         id="path11-7-9-4-2-3"
         sodipodi:nodetypes="csc" />
      <circle
         style="fill:#370188;fill-opacity:1;stroke:#370188;stroke-width:0.804104;stroke-opacity:1"
         id="path3-3-6-16-4-6-1"
         r="0.76141715"
         cy="243.34032"
         cx="-43.559021"
         inkscape:transform-center-x="-2.5670633"
         inkscape:transform-center-y="-5.6852825e-06"
         transform="scale(-1,1)" />
      <circle
         style="fill:#370188;fill-opacity:1;stroke:#370188;stroke-width:0.804104;stroke-opacity:1"
         id="path3-3-6-9-41-1-0-5"
         r="0.76141715"
         cy="253.46886"
         cx="-44.0462"
         inkscape:transform-center-x="-2.5670289"
         inkscape:transform-center-y="-3.6976775e-06"
         transform="scale(-1,1)" />
      <circle
         style="fill:#370188;fill-opacity:1;stroke:#370188;stroke-width:0.804104;stroke-opacity:1"
         id="path3-3-6-2-6-2-9-0"
         r="0.76141715"
         cy="262.89572"
         cx="-44.52718"
         inkscape:transform-center-x="-2.5670512"
         inkscape:transform-center-y="7.9723223e-06"
         transform="scale(-1,1)" />
      <circle
         style="fill:#370188;fill-opacity:1;stroke:#370188;stroke-width:0.804104;stroke-opacity:1"
         id="path3-3-6-1-3-7-6-7"
         r="0.76141715"
         cy="272.68732"
         cx="-44.362072"
         inkscape:transform-center-x="-2.5670676"
         inkscape:transform-center-y="1.4437816e-05"
         transform="scale(-1,1)" />
      <circle
         style="fill:#370188;fill-opacity:1;stroke:#370188;stroke-width:0.804104;stroke-opacity:1"
         id="path3-3-6-6-9-8-5-4"
         r="0.76141715"
         cy="282.82483"
         cx="-43.789242"
         inkscape:transform-center-x="-2.5670431"
         inkscape:transform-center-y="-8.241693e-06"
         transform="scale(-1,1)" />
      <circle
         style="fill:#370188;fill-opacity:1;stroke:#370188;stroke-width:0.804104;stroke-opacity:1"
         id="path3-3-6-60-59-6-9-2"
         r="0.76141715"
         cy="292.61917"
         cx="-43.218346"
         inkscape:transform-center-x="-2.5670383"
         inkscape:transform-center-y="-1.4574684e-05"
         transform="scale(-1,1)" />
      <path
         style="fill:#ffffff;fill-opacity:1;stroke:#370188;stroke-width:3.21643;stroke-dasharray:none;stroke-opacity:1"
         d="m 35.737555,187.14903 c -3.37258,-3.08899 -6.144101,1.80683 -3.088957,3.72208"
         id="path15-1-0-5-7"
         sodipodi:nodetypes="cc" />
    </g>
    <rect
       style="fill:none;fill-opacity:1;fill-rule:nonzero;stroke:#370188;stroke-width:3.175;stroke-dasharray:none;stroke-opacity:1"
       id="rect113-4-2"
       width="282.57498"
       height="354.01248"
       x="1.5875"
       y="1.5875" />
    <text
       xml:space="preserve"
       style="font-style:normal;font-variant:normal;font-weight:normal;font-stretch:normal;font-size:19.05px;font-family:'Nanum Pen';-inkscape-font-specification:'Nanum Pen';text-align:end;letter-spacing:0px;word-spacing:0px;writing-mode:lr-tb;direction:ltr;text-anchor:end;white-space:pre;inline-size:148.411;display:inline;fill:#370188;fill-opacity:1;stroke:none;stroke-width:1.5875;stroke-linecap:round;stroke-dasharray:none;stroke-opacity:1"
       x="88.96624"
       y="156.49693"
       id="text17-7"
       transform="translate(186.65977,-61.780762)"><tspan
         x="88.96624"
         y="156.49693"
         id="tspan4">Thanks, Kim. We’ll let<tspan
   y="156.49693"
   id="tspan5"> </tspan></tspan><tspan
         x="88.96624"
         y="180.30944"
         id="tspan6">some of the edge<tspan
   y="180.30944"
   id="tspan7"> </tspan></tspan><tspan
         x="88.96624"
         y="204.12194"
         id="tspan8">cases hibernate.</tspan></text>
    <path
       style="fill:#26c2fd;fill-opacity:1;stroke:#370188;stroke-width:1.58749997;stroke-dasharray:none"
       d="m 266.14802,247.89237 c -5.54941,8.27806 5.50241,8.35374 0,0 z"
       id="path10"
       sodipodi:nodetypes="cc" />
    <path
       style="fill:#26c2fd;fill-opacity:1;stroke:#370188;stroke-width:2.38125;stroke-dasharray:none"
       d="m 214.70134,181.12953 c -8.55675,12.76412 8.4843,12.88082 0,0 z"
       id="path10-1"
       sodipodi:nodetypes="cc" />
  </g>
</svg>
