<?xml version="1.0" encoding="UTF-8" standalone="no"?>
<!-- Created with Inkscape (http://www.inkscape.org/) -->

<svg
   width="1080"
   height="1350"
   viewBox="0 0 1080 1350.0001"
   version="1.1"
   id="svg1"
   inkscape:version="1.4 (e7c3feb1, 2024-10-09)"
   sodipodi:docname="linkedin-ai-coding-summit.svg"
   xmlns:inkscape="http://www.inkscape.org/namespaces/inkscape"
   xmlns:sodipodi="http://sodipodi.sourceforge.net/DTD/sodipodi-0.dtd"
   xmlns:xlink="http://www.w3.org/1999/xlink"
   xmlns="http://www.w3.org/2000/svg"
   xmlns:svg="http://www.w3.org/2000/svg">
  <sodipodi:namedview
     id="namedview1"
     pagecolor="#ffffff"
     bordercolor="#000000"
     borderopacity="0.25"
     inkscape:showpageshadow="2"
     inkscape:pageopacity="0.0"
     inkscape:pagecheckerboard="0"
     inkscape:deskcolor="#d1d1d1"
     inkscape:document-units="px"
     inkscape:zoom="0.42066663"
     inkscape:cx="324.48497"
     inkscape:cy="565.76867"
     inkscape:window-width="1728"
     inkscape:window-height="1057"
     inkscape:window-x="0"
     inkscape:window-y="32"
     inkscape:window-maximized="0"
     inkscape:current-layer="layer1" />
  <defs
     id="defs1">
    <rect
       x="451.66406"
       y="615.68943"
       width="204.43741"
       height="244.84947"
       id="rect3" />
    <linearGradient
       inkscape:collect="always"
       xlink:href="#linearGradient220-8"
       id="linearGradient89"
       gradientUnits="userSpaceOnUse"
       gradientTransform="matrix(-4.1301824,0.46327419,0.46327419,4.1301824,3831.6724,-1003.3524)"
       x1="825.8642"
       y1="559.99164"
       x2="860.4278"
       y2="627.82635" />
    <linearGradient
       id="linearGradient220-8"
       inkscape:collect="always"
       inkscape:label="LP">
      <stop
         style="stop-color:#eb9600;stop-opacity:1;"
         offset="0.05045871"
         id="stop215-1" />
      <stop
         style="stop-color:#f1c000;stop-opacity:1;"
         offset="0.29931194"
         id="stop216-6" />
      <stop
         style="stop-color:#fbfb00;stop-opacity:1;"
         offset="0.50286698"
         id="stop217-1" />
      <stop
         style="stop-color:#aeff37;stop-opacity:1;"
         offset="0.70326835"
         id="stop218-5" />
      <stop
         style="stop-color:#00ed70;stop-opacity:1;"
         offset="0.94954127"
         id="stop219-7" />
    </linearGradient>
    <linearGradient
       inkscape:collect="always"
       xlink:href="#linearGradient220-8"
       id="linearGradient3"
       x1="-264.44907"
       y1="4.4531169"
       x2="12.468112"
       y2="-227.90799"
       gradientUnits="userSpaceOnUse"
       gradientTransform="matrix(3.2034883,0,0,3.2034883,824.82588,1017.5848)" />
  </defs>
  <rect
     style="opacity:0.2;fill:url(#linearGradient3);stroke:none;stroke-width:320.349;stroke-opacity:1"
     id="rect2"
     width="1080"
     height="1350"
     x="2.3771904"
     y="4.7543473" />
  <g
     inkscape:label="Layer 1"
     inkscape:groupmode="layer"
     id="layer1">
    <path
       d="M 322.8987,248.78293 59.078134,169.6428 190.98881,301.55348 H 111.8382 l 131.91028,131.90988 v -79.15022 h 79.15022 z"
       fill="#000000"
       id="path1"
       style="stroke-width:0.794059" />
    <path
       d="m 377.86188,331.52206 34.02622,-80.16503 h 24.6476 l 34.1358,80.16503 h -20.61218 l -6.54385,-16.05508 h -38.71593 l -6.43427,16.05508 z m 32.28168,-30.35052 h 28.24627 l -10.36089,-24.85167 -3.48988,-9.45725 h -0.65431 l -3.48989,9.34687 z"
       fill="#000000"
       id="path2"
       style="stroke-width:0.794059" />
    <path
       d="m 477.16453,331.52206 v -80.16503 h 18.97642 v 80.16503 z"
       fill="#000000"
       id="path3"
       style="stroke-width:0.794059" />
    <path
       d="m 573.77848,332.51225 c -28.24626,0 -45.0414,-16.27504 -45.0414,-41.1275 0,-24.85246 16.79514,-41.01711 45.0414,-41.01711 23.88371,0 39.26146,11.43683 41.66032,28.59089 h -19.08522 c -2.18127,-8.02715 -11.12397,-13.41563 -22.5751,-13.41563 -15.7049,0 -25.73783,8.90696 -25.73783,25.84185 0,16.9349 10.03293,25.95224 25.73783,25.95224 11.55991,0 20.72097,-5.27891 22.68389,-13.63637 h 18.97643 c -2.18129,17.48517 -19.194,28.81163 -41.66032,28.81163 z"
       fill="#000000"
       id="path4"
       style="stroke-width:0.794059" />
    <path
       d="m 666.22285,332.51225 c -28.35506,0 -45.04142,-16.27504 -45.04142,-41.1275 0,-24.85246 16.79515,-41.01711 45.04142,-41.01711 28.02872,0 44.71508,16.16465 44.71508,41.01711 0,24.85246 -16.79514,41.1275 -44.71508,41.1275 z m 0,-15.17526 c 15.48653,0 25.52029,-9.01734 25.52029,-25.95224 0,-16.93489 -10.14255,-25.84185 -25.52029,-25.84185 -15.8129,0 -25.73784,8.90696 -25.73784,25.84185 0,16.9349 10.03372,25.95224 25.73784,25.95224 z"
       fill="#000000"
       id="path5"
       style="stroke-width:0.794059" />
    <path
       d="m 720.31176,331.52206 v -80.16503 h 38.2793 c 27.5927,0 41.7699,15.94551 41.7699,40.13811 0,25.95142 -16.2497,40.02692 -41.7699,40.02692 z m 18.9765,-14.9553 h 15.5953 c 18.3221,0 26.2833,-9.45725 26.2833,-25.40195 0,-17.81392 -10.4697,-24.96205 -26.2833,-24.96205 h -15.5953 z"
       fill="#000000"
       id="path6"
       style="stroke-width:0.794059" />
    <path
       d="m 809.88096,331.52206 v -80.16503 h 18.9763 v 80.16503 z"
       fill="#000000"
       id="path7"
       style="stroke-width:0.794059" />
    <path
       d="m 841.72506,331.52206 v -80.16503 h 23.1246 l 39.695,55.31337 h 0.7623 l -0.548,-24.30298 v -31.01039 h 18.8669 v 80.16503 h -22.7895 l -39.6949,-54.87266 h -0.8736 l 0.6512,23.42236 v 31.4503 z"
       fill="#000000"
       id="path8"
       style="stroke-width:0.794059" />
    <path
       d="m 977.30426,332.51225 c -27.4824,0 -44.2846,-16.27504 -44.2846,-41.1275 0,-24.85246 16.9055,-41.01711 45.0468,-41.01711 23.77414,0 39.36944,11.43683 41.65644,28.4813 h -19.1923 c -2.28703,-8.46784 -11.12483,-13.30604 -22.46414,-13.30604 -16.7942,0 -25.8465,10.00673 -25.8465,25.84185 0,16.9349 9.9257,25.95224 25.4099,25.95224 14.50741,0 22.78944,-6.37868 24.21074,-16.82531 h -25.63214 v -12.31587 h 44.71344 v 6.59784 c 0,24.85246 -19.4068,37.7186 -43.61764,37.7186 z"
       fill="#000000"
       id="path9"
       style="stroke-width:0.794059" />
    <path
       d="m 417.88643,437.2407 c -25.41069,0 -36.53466,-10.77617 -37.18896,-26.17139 h 13.74119 c 0.54551,10.99613 8.8339,16.71415 23.8845,16.71415 14.3955,0 21.48406,-4.94778 21.48406,-13.30525 0,-10.44665 -8.50596,-11.87675 -23.77492,-13.85555 -20.17546,-2.52986 -33.04477,-6.48825 -33.04477,-22.43295 0,-14.73536 13.19647,-22.98325 33.80866,-22.98325 20.61218,0 32.60883,8.79738 33.4807,23.53274 h -13.30526 c -0.6543,-9.67721 -8.39717,-14.18587 -20.72096,-14.18587 -12.65095,0 -19.8491,4.72862 -19.8491,12.20628 0,9.45724 7.30693,10.77697 23.12062,12.75655 20.61218,2.52908 33.80866,6.15794 33.80866,23.97186 0,14.73535 -12.3238,23.75268 -35.44442,23.75268 z"
       fill="#000000"
       id="path10"
       style="stroke-width:0.794059" />
    <path
       d="m 499.10596,437.2407 c -22.35753,0 -37.08017,-9.78678 -37.08017,-34.52886 v -46.62556 h 12.86932 v 46.40561 c 0,15.06489 6.65262,23.64231 24.21085,23.64231 16.57678,0 24.32045,-7.47766 24.32045,-23.64231 v -46.40561 h 12.86851 v 46.62556 c 0,23.09283 -12.86851,34.52886 -37.18896,34.52886 z"
       fill="#000000"
       id="path11"
       style="stroke-width:0.794059" />
    <path
       d="m 549.06736,436.25131 v -80.16503 h 19.73952 l 25.9562,63.99957 h 0.54553 l 25.84661,-63.99957 h 19.8491 v 80.16503 h -12.3238 v -37.49865 l 0.21837,-29.36033 h -0.87267 l -27.26481,66.85898 h -11.34234 l -27.48318,-66.85898 h -0.7631 l 0.21837,29.47071 v 37.38827 z"
       fill="#000000"
       id="path12"
       style="stroke-width:0.794059" />
    <path
       d="m 654.93132,436.25131 v -80.16503 h 19.73952 l 25.95624,63.99957 h 0.54551 l 25.84667,-63.99957 h 19.8491 v 80.16503 h -12.3238 v -37.49865 l 0.2183,-29.36033 h -0.8726 l -27.26485,66.85898 h -11.34235 l -27.48242,-66.85898 h -0.76389 l 0.21837,29.47071 v 37.38827 z"
       fill="#000000"
       id="path13"
       style="stroke-width:0.794059" />
    <path
       d="m 760.79536,436.25131 v -80.16503 h 13.0876 v 80.16503 z"
       fill="#000000"
       id="path14"
       style="stroke-width:0.794059" />
    <path
       d="m 811.40706,436.25131 v -69.38806 h -28.5743 v -10.77697 h 70.4553 v 10.77697 h -28.7941 v 69.38806 z"
       fill="#000000"
       id="path15"
       style="stroke-width:0.794059" />
    <rect
       style="fill:#ffffff;fill-opacity:1;stroke:#0b0b0d;stroke-width:19.4775;stroke-linecap:round;stroke-dasharray:none;stroke-opacity:1"
       id="rect1"
       width="233.73044"
       height="233.73044"
       x="740.88794"
       y="-386.34094"
       inkscape:label="logo-rect"
       transform="rotate(90)" />
    <rect
       style="fill:none;stroke:#0b0b0d;stroke-width:19.4775;stroke-linecap:round;stroke-dasharray:none;stroke-opacity:1"
       id="rect1-5-6-6-7-3-0-5-1-2-0-0-4-5-7-1-3-6-3-0-3-4-0-72-7"
       width="233.73044"
       height="233.73044"
       x="740.88794"
       y="-386.34094"
       inkscape:label="logo-rect"
       transform="rotate(90)" />
    <g
       id="g45-2-7-0"
       transform="matrix(0.19477536,0,0,0.19477536,-1477.2658,-1269.2496)">
      <path
         style="font-weight:bold;font-size:163.82px;line-height:0;font-family:Montserrat;-inkscape-font-specification:'Montserrat Bold';letter-spacing:0px;word-spacing:0px;white-space:pre;fill:#0b0b0d;stroke-width:9.478;stroke-linecap:round"
         d="m 10322.381,-8123.185 q -11.631,0 -19.986,-4.9146 -8.355,-4.9146 -12.778,-14.9077 -4.423,-10.1568 -4.423,-25.5559 0,-15.5629 4.587,-25.5559 4.751,-9.993 13.105,-14.9076 8.355,-4.9146 19.495,-4.9146 12.45,0 22.28,5.5699 9.993,5.5698 15.726,15.7267 5.898,10.1568 5.898,24.0815 0,13.7609 -5.898,23.9177 -5.733,10.1569 -15.726,15.8906 -9.83,5.5699 -22.28,5.5699 z m -52.095,-1.3106 v -121.5545 h 25.556 v 51.2757 l -1.638,26.0474 0.491,26.2112 v 18.0202 z m 47.672,-19.6584 q 6.389,0 11.303,-2.9488 5.079,-2.9487 8.028,-8.3548 3.112,-5.5699 3.112,-13.1056 0,-7.6995 -3.112,-13.1056 -2.949,-5.406 -8.028,-8.3548 -4.914,-2.9488 -11.303,-2.9488 -6.389,0 -11.468,2.9488 -5.078,2.9488 -8.027,8.3548 -2.948,5.4061 -2.948,13.1056 0,7.5357 2.948,13.1056 2.949,5.4061 8.027,8.3548 5.079,2.9488 11.468,2.9488 z m 74.047,52.75 q -6.881,0 -13.597,-2.1296 -6.717,-2.1297 -10.976,-5.8975 l 9.337,-18.1841 q 2.949,2.6212 6.717,4.0955 3.932,1.4744 7.7,1.4744 5.406,0 8.518,-2.6211 3.277,-2.4573 5.898,-8.3548 l 4.587,-10.8121 1.966,-2.785 31.617,-76.0125 h 24.573 l -39.808,93.5413 q -4.26,10.6483 -9.83,16.7096 -5.406,6.0613 -12.122,8.5186 -6.553,2.4573 -14.58,2.4573 z m 15.071,-29.6514 -39.317,-91.5754 h 26.375 l 30.471,73.719 z m 170.209,-2.1296 q -11.14,0 -19.494,-4.9146 -8.355,-4.9146 -13.106,-14.9077 -4.587,-10.1568 -4.587,-25.5559 0,-15.5629 4.423,-25.5559 4.423,-9.993 12.778,-14.9076 8.355,-4.9146 19.986,-4.9146 12.451,0 22.28,5.7337 9.993,5.5699 15.726,15.7267 5.898,10.1568 5.898,23.9177 0,13.9247 -5.898,24.0816 -5.733,10.1568 -15.726,15.7267 -9.829,5.5699 -22.28,5.5699 z m -52.095,30.4705 v -119.9163 h 24.41 v 18.0202 l -0.492,26.2112 1.638,26.0474 v 49.6375 z m 47.672,-51.4395 q 6.389,0 11.304,-2.9488 5.078,-2.9487 8.027,-8.3548 3.112,-5.5699 3.112,-13.1056 0,-7.6995 -3.112,-13.1056 -2.949,-5.406 -8.027,-8.3548 -4.915,-2.9488 -11.304,-2.9488 -6.389,0 -11.467,2.9488 -5.079,2.9488 -8.028,8.3548 -2.948,5.4061 -2.948,13.1056 0,7.5357 2.948,13.1056 2.949,5.4061 8.028,8.3548 5.078,2.9488 11.467,2.9488 z m 65.364,19.6584 v -88.1352 h 24.41 v 24.9007 l -3.441,-7.2081 q 3.932,-9.3377 12.614,-14.0885 8.683,-4.9146 21.133,-4.9146 v 23.5901 q -1.638,-0.1639 -2.949,-0.1639 -1.31,-0.1638 -2.784,-0.1638 -10.485,0 -17.038,6.0614 -6.389,5.8975 -6.389,18.5116 v 41.6103 z m 111.133,1.3106 q -14.089,0 -25.065,-5.8976 -10.812,-5.8975 -17.201,-16.0543 -6.225,-10.3207 -6.225,-23.4263 0,-13.2694 6.225,-23.4262 6.389,-10.3207 17.201,-16.0544 10.976,-5.8975 25.065,-5.8975 13.925,0 24.901,5.8975 10.976,5.7337 17.201,15.8905 6.225,10.1569 6.225,23.5901 0,13.1056 -6.225,23.4263 -6.225,10.1568 -17.201,16.0543 -10.976,5.8976 -24.901,5.8976 z m 0,-20.969 q 6.389,0 11.467,-2.9488 5.079,-2.9487 8.028,-8.3548 2.948,-5.5699 2.948,-13.1056 0,-7.6995 -2.948,-13.1056 -2.949,-5.406 -8.028,-8.3548 -5.078,-2.9488 -11.467,-2.9488 -6.389,0 -11.467,2.9488 -5.079,2.9488 -8.191,8.3548 -2.949,5.4061 -2.949,13.1056 0,7.5357 2.949,13.1056 3.112,5.4061 8.191,8.3548 5.078,2.9488 11.467,2.9488 z m 103.207,20.969 q -12.451,0 -22.444,-5.5699 -9.993,-5.7337 -15.89,-15.8906 -5.734,-10.1568 -5.734,-23.9177 0,-13.9247 5.734,-24.0815 5.897,-10.1569 15.89,-15.7267 9.993,-5.5699 22.444,-5.5699 11.139,0 19.494,4.9146 8.355,4.9146 12.942,14.9076 4.587,9.993 4.587,25.5559 0,15.3991 -4.423,25.5559 -4.423,9.9931 -12.778,14.9077 -8.191,4.9146 -19.822,4.9146 z m 4.423,-20.969 q 6.225,0 11.303,-2.9488 5.079,-2.9487 8.028,-8.3548 3.112,-5.5699 3.112,-13.1056 0,-7.6995 -3.112,-13.1056 -2.949,-5.406 -8.028,-8.3548 -5.078,-2.9488 -11.303,-2.9488 -6.389,0 -11.468,2.9488 -5.078,2.9488 -8.191,8.3548 -2.948,5.4061 -2.948,13.1056 0,7.5357 2.948,13.1056 3.113,5.4061 8.191,8.3548 5.079,2.9488 11.468,2.9488 z m 23.098,19.6584 v -18.0202 l 0.492,-26.2112 -1.638,-26.0474 v -51.2757 h 25.556 v 121.5545 z m 85.187,1.3106 q -10.976,0 -19.659,-4.2594 -8.518,-4.2593 -13.269,-12.9417 -4.751,-8.8463 -4.751,-22.4434 v -49.8013 h 25.556 v 46.0335 q 0,10.9759 4.587,16.2181 4.751,5.0785 13.269,5.0785 5.898,0 10.485,-2.4573 4.587,-2.6212 7.208,-7.8634 2.621,-5.4061 2.621,-13.4332 v -43.5762 h 25.556 v 88.1352 h -24.245 v -24.2454 l 4.423,7.0443 q -4.423,9.1739 -13.106,13.9247 -8.518,4.587 -18.675,4.587 z m 117.95,0 q -14.252,0 -25.392,-5.7337 -11.14,-5.8976 -17.529,-16.2182 -6.225,-10.3207 -6.225,-23.4263 0,-13.2694 6.225,-23.4262 6.389,-10.3207 17.529,-16.0544 11.14,-5.8975 25.392,-5.8975 13.925,0 24.246,5.8975 10.32,5.7337 15.235,16.5458 l -19.822,10.6483 q -3.441,-6.2251 -8.683,-9.1739 -5.078,-2.9488 -11.14,-2.9488 -6.552,0 -11.795,2.9488 -5.242,2.9488 -8.355,8.3548 -2.948,5.4061 -2.948,13.1056 0,7.6996 2.948,13.1056 3.113,5.4061 8.355,8.3548 5.243,2.9488 11.795,2.9488 6.062,0 11.14,-2.7849 5.242,-2.9488 8.683,-9.3378 l 19.822,10.8121 q -4.915,10.6483 -15.235,16.5459 -10.321,5.7337 -24.246,5.7337 z m 91.607,0 q -15.563,0 -24.246,-7.8634 -8.682,-8.0272 -8.682,-23.7539 v -77.3231 h 25.556 v 76.9955 q 0,5.5698 2.949,8.6824 2.948,2.9488 8.027,2.9488 6.061,0 10.32,-3.2764 l 6.881,18.0202 q -3.932,2.7849 -9.502,4.2593 -5.406,1.3106 -11.303,1.3106 z m -46.525,-69.7874 v -19.6584 h 61.105 v 19.6584 z m 102.879,50.4566 0.655,-31.1258 41.119,-38.9892 h 30.47 l -39.48,40.1359 -13.27,10.8122 z m -21.133,18.0202 v -121.5545 h 25.556 v 121.5545 z m 65.692,0 -29.816,-37.0233 16.055,-19.8222 44.723,56.8455 z m 41.61,0 v -88.1352 h 25.556 v 88.1352 z m 12.778,-100.4217 q -7.044,0 -11.467,-4.0955 -4.423,-4.0955 -4.423,-10.1568 0,-6.0614 4.423,-10.1569 4.423,-4.0955 11.467,-4.0955 7.044,0 11.467,3.9317 4.424,3.7679 4.424,9.8292 0,6.389 -4.424,10.6483 -4.259,4.0955 -11.467,4.0955 z m 36.532,100.4217 v -88.1352 h 24.409 v 24.4092 l -4.587,-7.3719 q 4.751,-8.8463 13.597,-13.597 8.847,-4.7508 20.15,-4.7508 10.485,0 18.676,4.2593 8.355,4.0955 13.105,12.778 4.751,8.5186 4.751,21.9518 v 50.4566 h -25.556 v -46.5249 q 0,-10.6483 -4.751,-15.7267 -4.587,-5.0784 -13.105,-5.0784 -6.062,0 -10.976,2.6211 -4.751,2.4573 -7.536,7.6995 -2.621,5.2423 -2.621,13.4333 v 43.5761 z m 151.692,1.3106 q -12.45,0 -22.443,-5.5699 -9.993,-5.7337 -15.891,-15.8906 -5.733,-10.1568 -5.733,-23.9177 0,-13.9247 5.733,-24.0815 5.898,-10.1569 15.891,-15.7267 9.993,-5.5699 22.443,-5.5699 11.14,0 19.495,4.9146 8.355,4.9146 12.942,14.9076 4.587,9.993 4.587,25.5559 0,15.3991 -4.423,25.5559 -4.424,9.9931 -12.778,14.9077 -8.191,4.9146 -19.823,4.9146 z m 4.423,-20.969 q 6.226,0 11.304,-2.9488 5.078,-2.9487 8.027,-8.3548 3.113,-5.5699 3.113,-13.1056 0,-7.6995 -3.113,-13.1056 -2.949,-5.406 -8.027,-8.3548 -5.078,-2.9488 -11.304,-2.9488 -6.389,0 -11.467,2.9488 -5.078,2.9488 -8.191,8.3548 -2.949,5.4061 -2.949,13.1056 0,7.5357 2.949,13.1056 3.113,5.4061 8.191,8.3548 5.078,2.9488 11.467,2.9488 z m 23.099,19.6584 v -18.0202 l 0.492,-26.2112 -1.639,-26.0474 v -51.2757 h 25.556 v 121.5545 z"
         id="text1-3-8-8-9-2-1-4-0-0-6-4-8-6-3-3-3-6-7-1-7-3-7-6"
         inkscape:label="logo-productkind"
         transform="rotate(90)"
         aria-label="by productkind&#10;" />
      <g
         id="text18-6-2-9-1-0-5-0-3-7-9-7-7-1-2-0"
         style="font-size:24.2507px;line-height:0.8;font-family:'Monaspace Neon';-inkscape-font-specification:'Monaspace Neon';white-space:pre;inline-size:140.957;fill:#0b0b0d;stroke-width:0.524481"
         inkscape:label="LittleParrotText"
         transform="matrix(33.965799,0,0,33.965817,9040.0819,6836.4375)"
         aria-label="Little&#10;Parrot">
        <path
           style="font-weight:bold;font-family:'Space Mono';-inkscape-font-specification:'Space Mono Bold'"
           d="m 19.838167,102.01873 h 3.201092 v 13.9199 h 7.711723 v 3.05559 H 19.838167 Z m 14.96267,14.0654 h 4.074117 v -6.20818 h -3.783109 v -2.91008 h 6.838697 v 9.11826 h 3.492101 v 2.91009 H 34.800837 Z m 7.881477,-12.68311 q 0,0.48501 -0.194005,0.92152 -0.169755,0.41227 -0.485014,0.72752 -0.31526,0.29101 -0.751772,0.48502 -0.412262,0.16975 -0.873025,0.16975 -0.485014,0 -0.897276,-0.16975 -0.412262,-0.19401 -0.727521,-0.48502 -0.315259,-0.31525 -0.509265,-0.72752 -0.169755,-0.43651 -0.169755,-0.92152 0,-0.48502 0.169755,-0.89728 0.194006,-0.43651 0.509265,-0.72752 0.315259,-0.31526 0.727521,-0.48501 0.412262,-0.19401 0.897276,-0.19401 0.460763,0 0.873025,0.19401 0.436512,0.16975 0.751772,0.48501 0.315259,0.29101 0.485014,0.72752 0.194005,0.41226 0.194005,0.89728 z m 6.402173,3.56485 h 3.564853 v -4.94714 h 3.055588 v 4.94714 h 4.340875 v 2.91008 h -4.340875 v 5.48066 q 0,0.72752 0.654769,0.72752 h 3.249594 v 2.91009 h -5.092647 q -0.824524,0 -1.35804,-0.53352 -0.509264,-0.53351 -0.509264,-1.35804 v -7.22671 h -3.564853 z m 14.841417,0 h 3.564853 v -4.94714 h 3.055588 v 4.94714 h 4.340876 v 2.91008 h -4.340876 v 5.48066 q 0,0.72752 0.654769,0.72752 h 3.249594 v 2.91009 h -5.092647 q -0.824524,0 -1.358039,-0.53352 -0.509265,-0.53351 -0.509265,-1.35804 v -7.22671 h -3.564853 z m 15.108173,9.11826 h 4.219622 v -11.15532 h -4.074117 v -2.91008 h 7.129705 v 14.0654 h 3.928614 v 2.91009 H 79.034077 Z m 17.605999,-2.10981 q 0.02425,0.53352 0.242507,0.99428 0.242507,0.43651 0.630519,0.77602 0.412261,0.31526 0.921526,0.50927 0.533516,0.16975 1.115532,0.16975 1.13978,0 1.74605,-0.38801 0.60627,-0.41226 0.87303,-0.97003 l 2.61907,1.45505 q -0.21825,0.46076 -0.60627,0.97002 -0.38801,0.48502 -1.01853,0.89728 -0.60626,0.41226 -1.50354,0.67902 -0.87302,0.26676 -2.061308,0.26676 -1.358039,0 -2.473572,-0.43652 -1.115532,-0.43651 -1.940056,-1.26103 -0.800273,-0.82453 -1.261036,-2.01281 -0.436513,-1.18828 -0.436513,-2.69183 v -0.1455 q 0,-1.38229 0.460764,-2.52208 0.485014,-1.13978 1.309537,-1.94005 0.824524,-0.80027 1.915806,-1.23679 1.115532,-0.46076 2.376568,-0.46076 1.55205,0 2.66758,0.55777 1.11553,0.53351 1.84305,1.38229 0.72752,0.82452 1.06703,1.84305 0.33951,0.99428 0.33951,1.94006 v 1.62479 z m 2.885834,-4.58338 q -1.164034,0 -1.891555,0.60627 -0.727521,0.58201 -0.945777,1.35804 h 5.674662 q -0.1455,-0.84878 -0.92153,-1.40654 -0.75177,-0.55777 -1.9158,-0.55777 z"
           id="path1-1" />
        <path
           style="font-weight:bold;font-family:'Space Mono';-inkscape-font-specification:'Space Mono Bold'"
           d="m 22.796752,132.62928 v 6.40218 H 19.59566 v -16.97549 h 6.644692 q 1.309537,0 2.279565,0.43652 0.970028,0.41226 1.600547,1.11553 0.654768,0.67902 0.970028,1.5763 0.339509,0.87302 0.339509,1.79455 v 0.58201 q 0,0.94578 -0.339509,1.86731 -0.31526,0.89727 -0.970028,1.62479 -0.630519,0.70327 -1.600547,1.13979 -0.970028,0.43651 -2.279565,0.43651 z m 0,-3.05559 h 3.12834 q 1.067031,0 1.673299,-0.58201 0.630518,-0.58202 0.630518,-1.50355 v -0.29101 q 0,-0.92152 -0.630518,-1.50354 -0.606268,-0.58202 -1.673299,-0.58202 h -3.12834 z m 19.570303,7.71172 q -0.485014,1.13979 -1.358039,1.6248 -0.873025,0.46076 -2.037059,0.46076 -1.091281,0 -2.061309,-0.41226 -0.945778,-0.41226 -1.673299,-1.21253 -0.727521,-0.80028 -1.164033,-1.94006 -0.412262,-1.13978 -0.412262,-2.59482 v -0.38801 q 0,-1.4308 0.412262,-2.57058 0.412262,-1.13978 1.115532,-1.94005 0.70327,-0.80028 1.624797,-1.21254 0.945777,-0.43651 2.012808,-0.43651 1.285287,0 2.061309,0.43651 0.800273,0.43651 1.261037,1.35804 h 0.436512 v -1.45504 H 45.6409 v 8.39074 q 0,0.72752 0.654768,0.72752 h 0.460764 v 2.91008 h -2.08556 q -0.824524,0 -1.35804,-0.48501 -0.509264,-0.48501 -0.509264,-1.26104 z m -2.716078,-0.82452 q 1.333788,0 2.134061,-0.87302 0.800273,-0.89728 0.800273,-2.42507 v -0.29101 q 0,-1.5278 -0.800273,-2.40082 -0.800273,-0.89728 -2.134061,-0.89728 -1.333789,0 -2.134062,0.89728 -0.800273,0.87302 -0.800273,2.40082 v 0.29101 q 0,1.52779 0.800273,2.42507 0.800273,0.87302 2.134062,0.87302 z m 9.191003,-9.45777 h 5.092647 v 1.74605 h 0.436512 q 0.33951,-0.99428 1.139783,-1.5278 0.824524,-0.55776 1.964307,-0.55776 1.794552,0 2.885833,1.13978 1.091282,1.11553 1.091282,3.41935 v 0.53351 l -3.152591,0.29101 v -0.33951 q 0,-0.99428 -0.509265,-1.57629 -0.509265,-0.60627 -1.527794,-0.60627 -1.018529,0 -1.600546,0.70327 -0.582017,0.70327 -0.582017,2.01281 v 3.88011 h 2.76458 v 2.91008 h -8.29374 v -2.91008 h 2.473572 V 129.9132 H 48.84198 Z m 14.841417,0 h 5.092647 v 1.74605 h 0.436513 q 0.33951,-0.99428 1.139783,-1.5278 0.824524,-0.55776 1.964306,-0.55776 1.794552,0 2.885834,1.13978 1.091281,1.11553 1.091281,3.41935 v 0.53351 l -3.152591,0.29101 v -0.33951 q 0,-0.99428 -0.509264,-1.57629 -0.509265,-0.60627 -1.527795,-0.60627 -1.018529,0 -1.600546,0.70327 -0.582017,0.70327 -0.582017,2.01281 v 3.88011 h 2.76458 v 2.91008 h -8.293739 v -2.91008 h 2.473571 v -6.20818 h -2.182563 z m 27.209273,6.15968 q 0,1.50354 -0.509265,2.66757 -0.509265,1.13979 -1.38229,1.94006 -0.873025,0.77602 -2.012808,1.18828 -1.115532,0.41226 -2.352318,0.41226 -1.236786,0 -2.376569,-0.41226 -1.115532,-0.41226 -1.988557,-1.18828 -0.873025,-0.80027 -1.38229,-1.94006 -0.509265,-1.16403 -0.509265,-2.66757 v -0.29101 q 0,-1.4793 0.509265,-2.61908 0.509265,-1.16403 1.38229,-1.96431 0.873025,-0.80027 1.988557,-1.21253 1.139783,-0.41226 2.376569,-0.41226 1.236786,0 2.352318,0.41226 1.139783,0.41226 2.012808,1.21253 0.873025,0.80028 1.38229,1.96431 0.509265,1.13978 0.509265,2.61908 z m -6.256681,3.29809 q 0.654769,0 1.236786,-0.21826 0.582017,-0.21825 1.018529,-0.63051 0.436513,-0.41227 0.67902,-0.99428 0.266757,-0.60627 0.266757,-1.35804 v -0.48502 q 0,-0.75177 -0.266757,-1.33378 -0.242507,-0.60627 -0.67902,-1.01853 -0.436512,-0.41227 -1.018529,-0.63052 -0.582017,-0.21826 -1.236786,-0.21826 -0.654769,0 -1.236786,0.21826 -0.582016,0.21825 -1.018529,0.63052 -0.436513,0.41226 -0.70327,1.01853 -0.242507,0.58201 -0.242507,1.33378 v 0.48502 q 0,0.75177 0.242507,1.35804 0.266757,0.58201 0.70327,0.99428 0.436513,0.41226 1.018529,0.63051 0.582017,0.21826 1.236786,0.21826 z m 8.97275,-9.45777 h 3.564853 v -4.94715 h 3.055588 v 4.94715 h 4.34088 v 2.91008 h -4.34088 v 5.48066 q 0,0.72752 0.65477,0.72752 h 3.24959 v 2.91008 h -5.092644 q -0.824524,0 -1.35804,-0.53351 -0.509264,-0.53352 -0.509264,-1.35804 v -7.22671 h -3.564853 z"
           id="path2-3" />
      </g>
    </g>
    <text
       xml:space="preserve"
       id="text3"
       style="font-style:normal;font-variant:normal;font-weight:bold;font-stretch:normal;font-size:144px;line-height:1.3;font-family:Inter;-inkscape-font-specification:'Inter Bold';text-align:end;text-decoration-color:#000000;letter-spacing:0.14px;word-spacing:0px;writing-mode:lr-tb;direction:ltr;white-space:pre;shape-inside:url(#rect3);opacity:0.984509;fill:#000000;fill-opacity:1;stroke:none;stroke-width:100;stroke-opacity:1"
       transform="translate(-77.429687,-133.47684)"><tspan
         x="578.75781"
         y="752.58243"
         id="tspan1">x</tspan></text>
  </g>
  <g
     id="g8-91-5-4-8-8-20-7"
     transform="matrix(-1.1267189,0,0,1.1267189,1681.3589,-905.26672)"
     inkscape:label="little-parrot-normal"
     clip-path="none">
    <g
       id="g44-8-7-23-4"
       transform="matrix(1.2713514,0.85886191,-0.85886191,1.2713514,1355.756,-1002.9656)">
      <g
         id="g20-6-2-1-4-3-8-9"
         inkscape:label="leg-back"
         transform="translate(286.01242)">
        <path
           style="fill:#080809;fill-opacity:1;stroke:#080809;stroke-width:12;stroke-linecap:butt;stroke-dasharray:none;stroke-opacity:1"
           d="m 414.95621,1983.1441 v 72.282"
           id="path17-6-7-3-8-7-2-1-9" />
        <path
           style="fill:#080809;fill-opacity:1;stroke:#080809;stroke-width:12;stroke-linecap:butt;stroke-dasharray:none;stroke-opacity:1"
           d="m 388.32601,2049.7196 25.6141,-6.8633 27.016,7.239"
           id="path18-4-18-5-9-5-1-6-8" />
      </g>
      <path
         style="display:inline;fill:url(#linearGradient89);stroke:#080809;stroke-width:12;stroke-dasharray:none;stroke-opacity:1"
         d="m 722.89882,1755.3872 36.8851,-16.6352 -35.51545,-28.3516 c -0.54342,-25.4982 -13.11133,-45.5318 -45.10484,-40.2141 -12.46797,2.0724 -29.44411,15.8753 -30.79374,44.0222 -1.36269,28.419 5.03288,100.8152 -34.01264,136.1195 -42.64276,38.5568 -92.70361,84.024 -124.15948,89.2563 57.04815,53.3978 183.08167,75.6922 233.57096,44.3358 42.76717,-26.5606 14.77627,-164.1805 -0.86991,-228.5329 -10.1118,4.2329 -20.66188,8.723 -31.50055,8.885 10.83943,-0.1647 21.38559,-4.6465 31.50055,-8.885 z"
         id="path2-5-52-8-5-7-3-2-3-1-0"
         sodipodi:nodetypes="cccssscsccc"
         inkscape:label="parrot-body" />
      <circle
         style="display:inline;fill:#080809;fill-opacity:1;stroke:none;stroke-width:10.9963;stroke-dasharray:none;stroke-opacity:1"
         id="path18-0-5-0-8-5-8-6-2-5-2"
         cx="-501.66467"
         cy="1772.0703"
         r="9.5791836"
         inkscape:label="parrot-eye"
         transform="matrix(-0.99376792,0.11146893,0.11146893,0.99376792,0,0)" />
      <g
         id="g19-1-2-7-7-7-7-3"
         inkscape:label="leg-front"
         transform="translate(286.01242)">
        <path
           style="fill:#080809;fill-opacity:1;stroke:#080809;stroke-width:12;stroke-linecap:butt;stroke-dasharray:none;stroke-opacity:1"
           d="m 355.8219,1985.6347 v 72.282"
           id="path17-3-8-2-5-0-7-7" />
        <path
           style="fill:#080809;fill-opacity:1;stroke:#080809;stroke-width:12;stroke-linecap:butt;stroke-dasharray:none;stroke-opacity:1"
           d="m 329.1917,2052.2102 25.6141,-6.8633 27.016,7.239"
           id="path18-7-6-3-4-5-4-0" />
      </g>
    </g>
  </g>
  <rect
     style="opacity:0.984509;fill:none;fill-opacity:1;stroke:#000000;stroke-width:20;stroke-dasharray:none;stroke-opacity:1"
     id="rect4"
     width="1060"
     height="1330"
     x="10"
     y="10" />
</svg>
