<?xml version="1.0" encoding="UTF-8" standalone="no"?>
<!-- Created with Inkscape (http://www.inkscape.org/) -->

<svg
   width="1080"
   height="867.47699"
   viewBox="0 0 1080 867.47699"
   version="1.1"
   id="svg1"
   inkscape:version="1.4 (e7c3feb1, 2024-10-09)"
   sodipodi:docname="parrot.svg"
   inkscape:export-filename="../../content/video/public/logo.png"
   inkscape:export-xdpi="96"
   inkscape:export-ydpi="96"
   xmlns:inkscape="http://www.inkscape.org/namespaces/inkscape"
   xmlns:sodipodi="http://sodipodi.sourceforge.net/DTD/sodipodi-0.dtd"
   xmlns:xlink="http://www.w3.org/1999/xlink"
   xmlns="http://www.w3.org/2000/svg"
   xmlns:svg="http://www.w3.org/2000/svg">
  <sodipodi:namedview
     id="namedview1"
     pagecolor="#ffffff"
     bordercolor="#000000"
     borderopacity="0.25"
     inkscape:showpageshadow="2"
     inkscape:pageopacity="0.0"
     inkscape:pagecheckerboard="0"
     inkscape:deskcolor="#d1d1d1"
     inkscape:document-units="px"
     inkscape:zoom="0.46985129"
     inkscape:cx="579.97074"
     inkscape:cy="97.903317"
     inkscape:window-width="1728"
     inkscape:window-height="1057"
     inkscape:window-x="0"
     inkscape:window-y="32"
     inkscape:window-maximized="0"
     inkscape:current-layer="layer1"
     showguides="true"
     showgrid="false" />
  <defs
     id="defs1">
    <linearGradient
       inkscape:collect="always"
       xlink:href="#linearGradient6"
       id="linearGradient3"
       x1="858.01971"
       y1="628.94928"
       x2="828.27228"
       y2="558.86871"
       gradientUnits="userSpaceOnUse"
       gradientTransform="matrix(-7.5076549,0.84211843,0.84211843,7.5076549,6208.6438,-3424.455)" />
    <linearGradient
       id="linearGradient6"
       inkscape:collect="always">
      <stop
         style="stop-color:#26fd46;stop-opacity:1;"
         offset="0"
         id="stop4" />
      <stop
         style="stop-color:#8efd23;stop-opacity:1;"
         offset="0.14"
         id="stop1" />
      <stop
         style="stop-color:#c4fd23;stop-opacity:1;"
         offset="0.28"
         id="stop2" />
      <stop
         style="stop-color:#eafd24;stop-opacity:1;"
         offset="0.43000001"
         id="stop3" />
      <stop
         style="stop-color:#fdf024;stop-opacity:1;"
         offset="0.56999999"
         id="stop6" />
      <stop
         style="stop-color:#fdd825;stop-opacity:1;"
         offset="0.70999998"
         id="stop7" />
      <stop
         style="stop-color:#fdc425;stop-opacity:1;"
         offset="0.86000001"
         id="stop8" />
      <stop
         style="stop-color:#fdb226;stop-opacity:1;"
         offset="1"
         id="stop5" />
    </linearGradient>
  </defs>
  <g
     inkscape:label="Layer 1"
     inkscape:groupmode="layer"
     id="layer1">
    <g
       id="g8"
       transform="translate(164.56473,-1299.4863)"
       inkscape:label="Logo">
      <path
         style="display:inline;fill:none;stroke:#ffffff;stroke-width:65.439;stroke-dasharray:none;stroke-opacity:1"
         d="m 557.65863,1590.2545 67.04804,-30.2387 -64.55834,-51.5362 c -0.9878,-46.3495 -23.83319,-82.7656 -81.9895,-73.0993 -22.6637,3.767 -53.52215,28.8573 -55.97545,80.0214 -2.47702,51.6588 9.14854,183.2573 -61.82659,247.4317 -77.51405,70.0869 -168.51235,152.735 -225.69138,162.2462 103.6995,97.0638 332.79741,137.5897 424.57451,80.5915 77.74019,-48.2806 26.85962,-298.4397 -1.58129,-415.4166 -18.38076,7.6944 -37.55821,15.8563 -57.26025,16.1508 19.70343,-0.2994 38.87374,-8.4462 57.26025,-16.1508 z"
         id="path1"
         sodipodi:nodetypes="cccssscsccc"
         inkscape:label="ParrotOutline" />
      <path
         style="display:inline;fill:url(#linearGradient3);stroke:#230156;stroke-width:21.8126;stroke-dasharray:none;stroke-opacity:1"
         d="m 557.65863,1590.2545 67.04804,-30.2387 -64.55834,-51.5362 c -0.9878,-46.3495 -23.83319,-82.7656 -81.9895,-73.0993 -22.6637,3.767 -53.52215,28.8573 -55.97545,80.0214 -2.47702,51.6588 9.14854,183.2573 -61.82659,247.4317 -77.51405,70.0869 -168.51235,152.735 -225.69138,162.2462 103.6995,97.0638 332.79741,137.5897 424.57451,80.5915 77.74019,-48.2806 26.85962,-298.4397 -1.58129,-415.4166 -18.38076,7.6944 -37.55821,15.8563 -57.26025,16.1508 19.70343,-0.2994 38.87374,-8.4462 57.26025,-16.1508 z"
         id="path2-5-52-8"
         sodipodi:nodetypes="cccssscsccc"
         inkscape:label="ParrotBody" />
      <circle
         style="display:inline;fill:#230156;fill-opacity:1;stroke:none;stroke-width:19.9886;stroke-dasharray:none;stroke-opacity:1"
         id="path18-0-5-0"
         cx="-338.64096"
         cy="1546.241"
         r="17.412582"
         inkscape:label="ParrotEyes"
         transform="matrix(-0.99376792,0.11146893,0.11146893,0.99376792,0,0)" />
    </g>
  </g>
</svg>
