<?xml version="1.0" encoding="UTF-8" standalone="no"?>
<!-- Created with Inkscape (http://www.inkscape.org/) -->

<svg
   width="1080"
   height="1350"
   viewBox="0 0 285.74999 357.1875"
   version="1.1"
   id="svg1"
   inkscape:version="1.4 (e7c3feb1, 2024-10-09)"
   sodipodi:docname="panel-03.svg"
   xml:space="preserve"
   xmlns:inkscape="http://www.inkscape.org/namespaces/inkscape"
   xmlns:sodipodi="http://sodipodi.sourceforge.net/DTD/sodipodi-0.dtd"
   xmlns="http://www.w3.org/2000/svg"
   xmlns:svg="http://www.w3.org/2000/svg"><sodipodi:namedview
     id="namedview1"
     pagecolor="#ffffff"
     bordercolor="#000000"
     borderopacity="0.25"
     inkscape:showpageshadow="2"
     inkscape:pageopacity="0.0"
     inkscape:pagecheckerboard="0"
     inkscape:deskcolor="#d1d1d1"
     inkscape:document-units="px"
     inkscape:zoom="0.25442634"
     inkscape:cx="813.595"
     inkscape:cy="180.79889"
     inkscape:window-width="1728"
     inkscape:window-height="1057"
     inkscape:window-x="0"
     inkscape:window-y="32"
     inkscape:window-maximized="0"
     inkscape:current-layer="layer1"
     showguides="true"
     showgrid="false" /><defs
     id="defs1"><rect
       x="337.60629"
       y="293.08679"
       width="868.13049"
       height="871.84045"
       id="rect26" /><rect
       x="358.01108"
       y="335.75131"
       width="877.4054"
       height="734.57196"
       id="rect25" /><rect
       x="418.44797"
       y="244.75258"
       width="748.0744"
       height="801.36731"
       id="rect16" /><clipPath
       clipPathUnits="userSpaceOnUse"
       id="clipPath32"><rect
         style="fill:none;fill-opacity:1;fill-rule:nonzero;stroke:#370188;stroke-width:3.175;stroke-dasharray:none;stroke-opacity:1"
         id="rect33"
         width="282.57498"
         height="354.01248"
         x="1.5875"
         y="15.875003" /></clipPath><clipPath
       clipPathUnits="userSpaceOnUse"
       id="clipPath33"><rect
         style="fill:none;fill-opacity:1;fill-rule:nonzero;stroke:#370188;stroke-width:3.175;stroke-dasharray:none;stroke-opacity:1"
         id="rect34"
         width="282.57498"
         height="354.01248"
         x="1.5875"
         y="15.875003"
         transform="scale(-1,1)" /></clipPath><clipPath
       clipPathUnits="userSpaceOnUse"
       id="clipPath34"><rect
         style="fill:none;fill-opacity:1;fill-rule:nonzero;stroke:#370188;stroke-width:3.175;stroke-dasharray:none;stroke-opacity:1"
         id="rect35"
         width="282.57498"
         height="354.01248"
         x="1.5875"
         y="15.875003" /></clipPath><clipPath
       clipPathUnits="userSpaceOnUse"
       id="clipPath35"><rect
         style="fill:none;fill-opacity:1;fill-rule:nonzero;stroke:#370188;stroke-width:3.175;stroke-dasharray:none;stroke-opacity:1"
         id="rect36"
         width="282.57498"
         height="354.01248"
         x="1.5875"
         y="15.875003" /></clipPath><clipPath
       clipPathUnits="userSpaceOnUse"
       id="clipPath1"><rect
         style="fill:none;fill-opacity:1;fill-rule:nonzero;stroke:#370188;stroke-width:0.695287;stroke-dasharray:none;stroke-opacity:1"
         id="rect2"
         width="61.880581"
         height="77.524551"
         x="-167.02388"
         y="-16.952217"
         transform="scale(-1,1)" /></clipPath><clipPath
       clipPathUnits="userSpaceOnUse"
       id="clipPath2"><rect
         style="fill:none;fill-opacity:1;fill-rule:nonzero;stroke:#370188;stroke-width:3.175;stroke-dasharray:none;stroke-opacity:1"
         id="rect3"
         width="282.57498"
         height="354.01248"
         x="139.64767"
         y="-132.82672"
         transform="rotate(21.214416)" /></clipPath><clipPath
       clipPathUnits="userSpaceOnUse"
       id="clipPath3"><rect
         style="fill:none;fill-opacity:1;fill-rule:nonzero;stroke:#370188;stroke-width:3.175;stroke-dasharray:none;stroke-opacity:1"
         id="rect4"
         width="282.57498"
         height="354.01248"
         x="1.5875"
         y="1.5875"
         transform="rotate(23.854687)" /></clipPath><clipPath
       clipPathUnits="userSpaceOnUse"
       id="clipPath5"><rect
         style="fill:none;fill-opacity:1;fill-rule:nonzero;stroke:#370188;stroke-width:3.175;stroke-dasharray:none;stroke-opacity:1"
         id="rect6"
         width="282.57498"
         height="354.01248"
         x="1.5875"
         y="1.5875"
         transform="rotate(23.854687)" /></clipPath><clipPath
       clipPathUnits="userSpaceOnUse"
       id="clipPath6"><rect
         style="fill:none;fill-opacity:1;fill-rule:nonzero;stroke:#370188;stroke-width:3.175;stroke-dasharray:none;stroke-opacity:1"
         id="rect7"
         width="282.57498"
         height="354.01248"
         x="114.21098"
         y="-148.05612"
         transform="rotate(21.830906)" /></clipPath><clipPath
       clipPathUnits="userSpaceOnUse"
       id="clipPath4"><rect
         style="fill:none;fill-opacity:1;fill-rule:nonzero;stroke:#370188;stroke-width:3.175;stroke-dasharray:none;stroke-opacity:1"
         id="rect8"
         width="282.57498"
         height="354.01248"
         x="1.5875157"
         y="-10.583325"
         transform="matrix(-0.96921458,-0.24621757,-0.24621757,0.96921458,0,0)" /></clipPath><clipPath
       clipPathUnits="userSpaceOnUse"
       id="clipPath8"><rect
         style="fill:none;fill-opacity:1;fill-rule:nonzero;stroke:#370188;stroke-width:3.175;stroke-dasharray:none;stroke-opacity:1"
         id="rect12"
         width="282.57498"
         height="354.01248"
         x="1.5875157"
         y="-10.583325"
         transform="matrix(-0.96921458,-0.24621757,-0.24621757,0.96921458,0,0)" /></clipPath><clipPath
       clipPathUnits="userSpaceOnUse"
       id="clipPath12"><rect
         style="fill:none;fill-opacity:1;fill-rule:nonzero;stroke:#370188;stroke-width:3.175;stroke-dasharray:none;stroke-opacity:1"
         id="rect13"
         width="282.57498"
         height="354.01248"
         x="1.5875157"
         y="-10.583325"
         transform="matrix(-0.96921458,-0.24621757,-0.24621757,0.96921458,0,0)" /></clipPath><clipPath
       clipPathUnits="userSpaceOnUse"
       id="clipPath13"><rect
         style="fill:none;fill-opacity:1;fill-rule:nonzero;stroke:#370188;stroke-width:3.175;stroke-dasharray:none;stroke-opacity:1"
         id="rect14"
         width="282.57498"
         height="354.01248"
         x="1.5875157"
         y="-10.583325"
         transform="matrix(-0.96921458,-0.24621757,-0.24621757,0.96921458,0,0)" /></clipPath><clipPath
       clipPathUnits="userSpaceOnUse"
       id="clipPath14"><rect
         style="fill:none;fill-opacity:1;fill-rule:nonzero;stroke:#370188;stroke-width:3.175;stroke-dasharray:none;stroke-opacity:1"
         id="rect15"
         width="282.57498"
         height="354.01248"
         x="1.5875157"
         y="-10.583325"
         transform="matrix(-0.96921458,-0.24621757,-0.24621757,0.96921458,0,0)" /></clipPath><clipPath
       clipPathUnits="userSpaceOnUse"
       id="clipPath15"><rect
         style="fill:none;fill-opacity:1;fill-rule:nonzero;stroke:#370188;stroke-width:3.175;stroke-dasharray:none;stroke-opacity:1"
         id="rect19"
         width="282.57498"
         height="354.01248"
         x="1.5875157"
         y="-10.583325"
         transform="matrix(-0.96921458,-0.24621757,-0.24621757,0.96921458,0,0)" /></clipPath><clipPath
       clipPathUnits="userSpaceOnUse"
       id="clipPath19"><rect
         style="fill:none;fill-opacity:1;fill-rule:nonzero;stroke:#370188;stroke-width:3.175;stroke-dasharray:none;stroke-opacity:1"
         id="rect20"
         width="282.57498"
         height="354.01248"
         x="1.5875157"
         y="-10.583325" /></clipPath><clipPath
       clipPathUnits="userSpaceOnUse"
       id="clipPath20"><rect
         style="fill:none;fill-opacity:1;fill-rule:nonzero;stroke:#370188;stroke-width:3.175;stroke-dasharray:none;stroke-opacity:1"
         id="rect21"
         width="282.57498"
         height="354.01248"
         x="1.5875157"
         y="-10.583325" /></clipPath><clipPath
       clipPathUnits="userSpaceOnUse"
       id="clipPath21"><rect
         style="fill:none;fill-opacity:1;fill-rule:nonzero;stroke:#370188;stroke-width:3.175;stroke-dasharray:none;stroke-opacity:1"
         id="rect22"
         width="282.57498"
         height="354.01248"
         x="1.5875157"
         y="-10.583325" /></clipPath><clipPath
       clipPathUnits="userSpaceOnUse"
       id="clipPath22"><rect
         style="fill:none;fill-opacity:1;fill-rule:nonzero;stroke:#370188;stroke-width:3.175;stroke-dasharray:none;stroke-opacity:1"
         id="rect23"
         width="282.57498"
         height="354.01248"
         x="1.5875157"
         y="-10.583325" /></clipPath><clipPath
       clipPathUnits="userSpaceOnUse"
       id="clipPath23"><rect
         style="fill:none;fill-opacity:1;fill-rule:nonzero;stroke:#370188;stroke-width:3.175;stroke-dasharray:none;stroke-opacity:1"
         id="rect24"
         width="282.57498"
         height="354.01248"
         x="1.5875157"
         y="-10.583325" /></clipPath><clipPath
       clipPathUnits="userSpaceOnUse"
       id="clipPath24"><rect
         style="fill:none;fill-opacity:1;fill-rule:nonzero;stroke:#370188;stroke-width:3.175;stroke-dasharray:none;stroke-opacity:1"
         id="rect27"
         width="282.57498"
         height="354.01248"
         x="1.5875157"
         y="-10.583325"
         transform="matrix(-0.96921458,-0.24621757,-0.24621757,0.96921458,0,0)" /></clipPath><clipPath
       clipPathUnits="userSpaceOnUse"
       id="clipPath27"><rect
         style="fill:none;fill-opacity:1;fill-rule:nonzero;stroke:#370188;stroke-width:3.175;stroke-dasharray:none;stroke-opacity:1"
         id="rect28"
         width="282.57498"
         height="354.01248"
         x="1.5875157"
         y="-10.583325"
         transform="matrix(-0.96921458,-0.24621757,-0.24621757,0.96921458,0,0)" /></clipPath><clipPath
       clipPathUnits="userSpaceOnUse"
       id="clipPath28"><rect
         style="fill:none;fill-opacity:1;fill-rule:nonzero;stroke:#370188;stroke-width:3.175;stroke-dasharray:none;stroke-opacity:1"
         id="rect29"
         width="282.57498"
         height="354.01248"
         x="1.5875157"
         y="-10.583325" /></clipPath><clipPath
       clipPathUnits="userSpaceOnUse"
       id="clipPath29"><rect
         style="fill:none;fill-opacity:1;fill-rule:nonzero;stroke:#370188;stroke-width:3.175;stroke-dasharray:none;stroke-opacity:1"
         id="rect30"
         width="282.57498"
         height="354.01248"
         x="1.5875157"
         y="-10.583325" /></clipPath><clipPath
       clipPathUnits="userSpaceOnUse"
       id="clipPath7"><rect
         style="fill:none;stroke:#370188;stroke-width:0.00264583;stroke-dasharray:none"
         id="rect8-5"
         width="83.813759"
         height="29.765625"
         x="-175.47217"
         y="109.41206" /></clipPath></defs><g
     inkscape:label="Layer 1"
     inkscape:groupmode="layer"
     id="layer1"><g
       id="g1"
       transform="translate(-271.5865,36.242913)"><circle
         style="fill:#9a58fd;fill-opacity:1;stroke:#370188;stroke-width:3.175;stroke-dasharray:none;stroke-opacity:1"
         id="path41"
         cx="470.8912"
         cy="128.15683"
         r="23.385317" /><circle
         style="fill:#ffffff;fill-opacity:1;stroke:#370188;stroke-width:3.175;stroke-dasharray:none;stroke-opacity:1"
         id="path41-0"
         cx="471.21396"
         cy="128.04312"
         r="12.645529" /><path
         style="fill:#fd5869;fill-opacity:1;stroke:#370188;stroke-width:3.175;stroke-dasharray:none;stroke-opacity:1"
         d="m 412.21745,133.73616 h 29.86221 c -7.00395,-40.489065 58.59212,-51.251705 57.60701,0 h 32.84328 c 0,0 2.6729,-28.34808 -4.74466,-38.014845 -7.41756,-9.66677 -38.64816,-11.62711 -38.64816,-11.62711 0,0 -5.59048,-19.73503 -19.56934,-27.80573 -13.97885,-8.070687 -57.35189,-6.709088 -57.35189,-6.709088 z"
         id="path42"
         sodipodi:nodetypes="cccczczcc" /><path
         style="fill:#ffffff;fill-opacity:1;stroke:#370188;stroke-width:3.175;stroke-dasharray:none;stroke-opacity:1"
         d="m 480.31282,83.482795 c 0,0 -3.95589,-15.18828 -15.2961,-21.87254 -11.34021,-6.684263 -47.20758,-6.082918 -47.20758,-6.082918 v 27.880528 z"
         id="path43"
         sodipodi:nodetypes="czccc" /><path
         style="fill:none;fill-opacity:1;stroke:#370188;stroke-width:3.175;stroke-dasharray:none;stroke-opacity:1"
         d="m 411.33147,97.786585 h -61.66352 l 41.41581,-41.41581 h 21.32146"
         id="path44" /><path
         style="fill:none;fill-opacity:1;stroke:#370188;stroke-width:3.175;stroke-dasharray:none;stroke-opacity:1"
         d="M 390.62358,97.786585 V 45.63337"
         id="path46" /><circle
         style="fill:none;fill-opacity:1;stroke:#370188;stroke-width:3.175;stroke-dasharray:none;stroke-opacity:1"
         id="path47"
         cx="349.46198"
         cy="98.709793"
         r="28.792616" /><path
         sodipodi:type="star"
         style="fill:#370188;fill-opacity:1;stroke:#370188;stroke-width:0.25;stroke-dasharray:none;stroke-opacity:1"
         id="path48"
         inkscape:flatsided="false"
         sodipodi:sides="30"
         sodipodi:cx="197.32634"
         sodipodi:cy="211.24562"
         sodipodi:r1="1.8075725"
         sodipodi:r2="1.0885963"
         sodipodi:arg1="0.12499812"
         sodipodi:arg2="0.20029035"
         inkscape:rounded="0"
         inkscape:randomized="0"
         d="m 199.11981,211.47098 -0.72664,-0.009 0.64059,0.37673 -0.70893,-0.15965 0.54827,0.50168 -0.66025,-0.30356 0.43198,0.60471 -0.58271,-0.4342 0.29681,0.68131 -0.47969,-0.54587 0.14867,0.72814 -0.35572,-0.63367 -0.006,0.74313 -0.2162,-0.69378 -0.16034,0.72565 -0.0672,-0.72357 -0.30771,0.67646 0.0847,-0.72174 -0.44163,0.5977 0.23289,-0.68836 -0.55625,0.49282 0.37092,-0.62489 -0.64656,0.3664 0.49274,-0.53413 -0.70861,0.22397 0.59302,-0.42001 -0.73969,0.0717 0.66739,-0.28753 -0.73844,-0.0836 0.71258,-0.14249 -0.70492,-0.23531 0.72664,0.009 -0.64059,-0.37673 0.70893,0.15966 -0.54827,-0.50169 0.66025,0.30356 -0.43198,-0.60471 0.58271,0.4342 -0.29681,-0.68131 0.47969,0.54587 -0.14867,-0.72814 0.35572,0.63368 0.006,-0.74314 0.2162,0.69378 0.16034,-0.72565 0.0672,0.72357 0.30771,-0.67646 -0.0847,0.72174 0.44163,-0.5977 -0.23289,0.68836 0.55625,-0.49282 -0.37092,0.6249 0.64656,-0.3664 -0.49274,0.53412 0.70861,-0.22397 -0.59302,0.42001 0.73969,-0.0718 -0.66739,0.28754 0.73844,0.0836 -0.71258,0.14249 z"
         transform="matrix(3.1749999,0,0,3.1749999,-276.67668,-572.74385)" /><path
         style="fill:#370188;fill-opacity:1;stroke:#370188;stroke-width:0.79375;stroke-dasharray:none;stroke-opacity:1"
         d="m 380.75435,46.128035 c 0,0 21.09768,0 23.15934,0 2.06165,0 5.01672,-2.680144 0.75593,-3.298634 -4.26075,-0.618522 -13.67568,-3.504851 -18.28006,-3.57359 -4.60439,-0.06858 -9.48366,-0.755935 -9.27751,3.298666 0.20606,4.054602 3.6423,3.573558 3.6423,3.573558 z"
         id="path51" /><rect
         style="fill:#9a58fd;fill-opacity:1;stroke:#370188;stroke-width:3.175;stroke-dasharray:none;stroke-opacity:1"
         id="rect18"
         width="105.83333"
         height="21.166666"
         x="298.42102"
         y="130.341"
         rx="10.583333" /><circle
         style="fill:#d7bdfe;fill-opacity:1;stroke:#370188;stroke-width:3.175;stroke-dasharray:none;stroke-opacity:1"
         id="path10-3"
         cx="309.53351"
         cy="140.92436"
         r="5.2916665" /><circle
         style="fill:#d7bdfe;fill-opacity:1;stroke:#370188;stroke-width:3.175;stroke-dasharray:none;stroke-opacity:1"
         id="path10-9"
         cx="392.6127"
         cy="140.92436"
         r="5.2916665" /><circle
         style="fill:#d7bdfe;fill-opacity:1;stroke:#370188;stroke-width:3.175;stroke-dasharray:none;stroke-opacity:1"
         id="path10-4"
         cx="326.14935"
         cy="140.92436"
         r="5.2916665" /><circle
         style="fill:#d7bdfe;fill-opacity:1;stroke:#370188;stroke-width:3.175;stroke-dasharray:none;stroke-opacity:1"
         id="path10-7"
         cx="342.76517"
         cy="140.92436"
         r="5.2916665" /><circle
         style="fill:#d7bdfe;fill-opacity:1;stroke:#370188;stroke-width:3.175;stroke-dasharray:none;stroke-opacity:1"
         id="path10-1"
         cx="359.38104"
         cy="140.92436"
         r="5.2916665" /><circle
         style="fill:#d7bdfe;fill-opacity:1;stroke:#370188;stroke-width:3.175;stroke-dasharray:none;stroke-opacity:1"
         id="path10-74"
         cx="375.99686"
         cy="140.92436"
         r="5.2916665" /><path
         style="fill:#370188;fill-opacity:1;stroke:#370188;stroke-width:0.79375;stroke-dasharray:none;stroke-opacity:1"
         d="m 329.57684,77.652705 40.50281,40.502845"
         id="path52" /><path
         style="fill:#370188;fill-opacity:1;stroke:#370188;stroke-width:0.79375;stroke-dasharray:none;stroke-opacity:1"
         d="M 370.15737,77.820315 329.65453,118.32312"
         id="path52-5" /><path
         style="fill:#370188;fill-opacity:1;stroke:#370188;stroke-width:0.79375;stroke-dasharray:none;stroke-opacity:1"
         d="M 349.76165,127.01758 V 69.737935"
         id="path52-1" /><path
         style="fill:#370188;fill-opacity:1;stroke:#370188;stroke-width:0.79375;stroke-dasharray:none;stroke-opacity:1"
         d="M 319.90166,97.693305 H 377.1813"
         id="path52-1-2" /><path
         style="fill:none;fill-opacity:1;stroke:#370188;stroke-width:3.175;stroke-dasharray:none;stroke-opacity:1"
         d="m 385.24323,129.96274 v -14.49575 h 25.98296"
         id="path53" /><path
         style="fill:none;fill-opacity:1;stroke:#370188;stroke-width:3.175;stroke-dasharray:none;stroke-opacity:1"
         d="M 380.32013,66.509625 343.26027,29.449729 h -25.55231"
         id="path54"
         sodipodi:nodetypes="ccc" /><circle
         style="fill:none;fill-opacity:1;stroke:#370188;stroke-width:3.175;stroke-dasharray:none;stroke-opacity:1"
         id="path55"
         cx="317.94089"
         cy="30.095722"
         r="21.423645" /><path
         style="fill:#370188;fill-opacity:1;stroke:#370188;stroke-width:0.79375;stroke-dasharray:none;stroke-opacity:1"
         d="m 299.65412,43.40017 47.08772,58.90629"
         id="path52-1-2-2"
         sodipodi:nodetypes="cc" /><path
         style="fill:#370188;fill-opacity:1;stroke:#370188;stroke-width:0.79375;stroke-dasharray:none;stroke-opacity:1"
         d="m 340.03123,25.245775 14.99587,71.41696"
         id="path52-1-2-2-2"
         sodipodi:nodetypes="cc" /><path
         style="fill:#bb7a02;fill-opacity:1;stroke:#370188;stroke-width:1.3791;stroke-dasharray:none;stroke-opacity:1"
         d="m 309.25005,45.673439 c -0.0835,1.506347 1.24542,4.775009 2.91912,0.841819"
         id="path59"
         sodipodi:nodetypes="cc" /><path
         style="fill:#bb7a02;fill-opacity:1;stroke:#370188;stroke-width:1.3791;stroke-dasharray:none;stroke-opacity:1"
         d="m 324.66855,45.865526 c 0.0835,1.506347 -1.24546,4.740561 -2.91916,0.807339"
         id="path59-1"
         sodipodi:nodetypes="cc" /><path
         style="fill:#bb7a02;fill-opacity:1;stroke:#370188;stroke-width:1.3791;stroke-dasharray:none;stroke-opacity:1"
         d="m 310.68658,46.520211 c -3.63805,-1.032986 -4.94056,-2.649918 -4.94056,-4.626102 0,-1.976215 2.02114,-4.221956 4.53628,-4.26685 2.51521,-0.04509 4.76092,0.49403 6.51253,0.628808 1.75165,0.134938 4.93995,-0.665003 6.96166,-0.538988 3.32864,0.207645 7.28657,4.205859 7.46624,5.508308 0.1797,1.302543 -3.1904,2.096389 -5.89423,2.666047 -3.21812,0.678021 -5.49929,1.750568 -8.39892,1.423003 -3.04302,-0.343789 -6.243,-0.794226 -6.243,-0.794226 z"
         id="path56"
         sodipodi:nodetypes="csssssssc" /><circle
         style="fill:#370188;fill-opacity:1;stroke:none;stroke-width:2.06865;stroke-dasharray:none;stroke-opacity:1"
         id="path57"
         cx="326.25034"
         cy="40.607433"
         r="0.8758204" /><circle
         style="fill:#370188;fill-opacity:1;stroke:none;stroke-width:2.06865;stroke-dasharray:none;stroke-opacity:1"
         id="path57-0"
         cx="330.26654"
         cy="43.325726"
         r="0.8758204" /><path
         style="fill:#bb7a02;fill-opacity:1;stroke:#370188;stroke-width:1.3791;stroke-dasharray:none;stroke-opacity:1"
         d="m 324.38892,38.058297 c -2.78434,-2.197164 -5.23008,0.871664 -1.59823,1.961292"
         id="path58"
         sodipodi:nodetypes="cc" /><circle
         style="fill:#370188;fill-opacity:1;stroke:#370188;stroke-width:1.05833;stroke-dasharray:none;stroke-opacity:1"
         id="path60"
         cx="318.08755"
         cy="29.409473"
         r="3.219589" /><path
         style="fill:#370188;fill-opacity:1;stroke:#370188;stroke-width:3.175;stroke-dasharray:none;stroke-opacity:1"
         d="m 471.15409,83.697335 -8.60987,-8.34612"
         id="path61"
         sodipodi:nodetypes="cc" /><path
         style="fill:#370188;fill-opacity:1;stroke:#370188;stroke-width:3.175;stroke-dasharray:none;stroke-opacity:1"
         d="m 457.12173,80.434795 10.16711,-11.18384"
         id="path62"
         sodipodi:nodetypes="cc" /><path
         style="fill:#ffffff;fill-opacity:1;stroke:#370188;stroke-width:3.175;stroke-dasharray:none;stroke-opacity:1"
         d="m 532.10605,107.27774 c -5.08352,1.0167 -16.26794,-5.17334 -19.65696,-19.407315 5.96233,1.32785 18.46313,4.98332 19.65696,19.407315 z"
         id="path63"
         sodipodi:nodetypes="ccc" /></g><text
       xml:space="preserve"
       transform="scale(0.26458333)"
       id="text16"
       style="font-style:normal;font-variant:normal;font-weight:bold;font-stretch:normal;font-size:60px;font-family:'Josefin Slab';-inkscape-font-specification:'Josefin Slab Bold';text-align:start;letter-spacing:0px;word-spacing:0px;writing-mode:lr-tb;direction:ltr;white-space:pre;shape-inside:url(#rect16);display:inline;fill:#000000;fill-opacity:0;stroke:#370188;stroke-width:12;stroke-opacity:1" /><text
       xml:space="preserve"
       transform="scale(0.26458333)"
       id="text25"
       style="font-style:normal;font-variant:normal;font-weight:bold;font-stretch:normal;font-size:60px;font-family:'Josefin Slab';-inkscape-font-specification:'Josefin Slab Bold';text-align:start;letter-spacing:0px;word-spacing:0px;writing-mode:lr-tb;direction:ltr;white-space:pre;shape-inside:url(#rect25);display:inline;fill:#000000;fill-opacity:0;stroke:#370188;stroke-width:12;stroke-opacity:1" /><text
       xml:space="preserve"
       transform="scale(0.26458333)"
       id="text26"
       style="font-style:normal;font-variant:normal;font-weight:bold;font-stretch:normal;font-size:60px;font-family:'Josefin Slab';-inkscape-font-specification:'Josefin Slab Bold';text-align:start;letter-spacing:0px;word-spacing:0px;writing-mode:lr-tb;direction:ltr;white-space:pre;shape-inside:url(#rect26);display:inline;fill:#000000;fill-opacity:0;stroke:#370188;stroke-width:12;stroke-opacity:1" /><rect
       width="9.8019896"
       height="15.875"
       rx="0"
       ry="0"
       fill="#6002ee"
       stroke-width="0"
       id="rect1-3-4-39-4-2-0-5-6"
       x="247.60098"
       y="332.84583" /><text
       font-family="Montserrat"
       font-size="618.11px"
       font-weight="200"
       stroke-width="0"
       fill="#33333"
       id="text3-0-3-0-0-5-3-3-2"
       x="248.33717"
       y="345.42685"
       style="font-style:normal;font-variant:normal;font-weight:300;font-stretch:normal;font-size:13.0774px;font-family:Montserrat;-inkscape-font-specification:'Montserrat Light'"
       transform="scale(0.99938968,1.0006107)"><tspan
         y="345.42685"
         font-weight="200"
         stroke-width="0"
         id="tspan1-4-8-6-2-1-2-5-9"
         style="font-style:normal;font-variant:normal;font-weight:300;font-stretch:normal;font-size:13.0774px;font-family:Montserrat;-inkscape-font-specification:'Montserrat Light'"><tspan
           style="font-style:normal;font-variant:normal;font-weight:300;font-stretch:normal;font-size:13.0774px;font-family:Montserrat;-inkscape-font-specification:'Montserrat Light';fill:#ffffff;fill-opacity:1;stroke-width:0"
           id="tspan3-6-3-13-5-2-1-6-6">k</tspan></tspan></text><text
       dx="0"
       dy="0"
       font-family="Montserrat"
       font-size="465.256px"
       font-weight="200"
       stroke-width="0"
       fill="#33333"
       id="text3-0-3-6-8-4-0-8-9"
       x="195.17656"
       y="345.42685"
       style="font-style:normal;font-variant:normal;font-weight:300;font-stretch:normal;font-size:13.0774px;font-family:Montserrat;-inkscape-font-specification:'Montserrat Light'"
       transform="scale(0.99938968,1.0006107)"><tspan
         y="345.42685"
         font-weight="200"
         stroke-width="0"
         id="tspan1-4-8-3-9-0-0-6-9"
         style="font-style:normal;font-variant:normal;font-weight:300;font-stretch:normal;font-size:13.0774px;font-family:Montserrat;-inkscape-font-specification:'Montserrat Light'">product</tspan></text><text
       font-family="Montserrat"
       font-size="465.256px"
       font-weight="200"
       stroke-width="0"
       fill="#33333"
       id="text3-0-3-6-4-3-4-3-7-8"
       x="257.78415"
       y="345.42685"
       style="font-style:normal;font-variant:normal;font-weight:300;font-stretch:normal;font-size:13.0774px;font-family:Montserrat;-inkscape-font-specification:'Montserrat Light'"
       transform="scale(0.99938968,1.0006107)"><tspan
         y="345.42685"
         font-weight="200"
         stroke-width="0"
         id="tspan1-4-8-3-6-9-9-9-7-0"
         style="font-style:normal;font-variant:normal;font-weight:300;font-stretch:normal;font-size:13.0774px;font-family:Montserrat;-inkscape-font-specification:'Montserrat Light'">ind</tspan></text><text
       xml:space="preserve"
       style="font-weight:bold;font-size:12.7px;font-family:Helvetica;-inkscape-font-specification:'Helvetica Bold';text-align:center;letter-spacing:0px;word-spacing:0px;writing-mode:lr-tb;direction:ltr;text-anchor:middle;fill:#fe8bed;fill-opacity:1;stroke:#370188;stroke-width:3.175;stroke-dasharray:none"
       x="112.57917"
       y="100.13621"
       id="text4"><tspan
         sodipodi:role="line"
         id="tspan4"
         style="stroke-width:3.175" /></text><path
       style="fill:#ffffff;fill-opacity:1;stroke:#370188;stroke-width:3.21643;stroke-dasharray:none;stroke-opacity:1"
       d="m -26.488883,250.94133 c -2.400743,6.13267 -9.596173,19.45716 -19.187086,26.22275 -7.706916,5.43656 -16.202389,4.63363 -20.889006,5.83865 -10.790536,2.7746 -10.017493,11.94107 -1.039375,11.9363 13.084945,-0.007 32.571627,1.08615 33.891349,-7.69908"
       id="path2-4-2-5-8-3"
       sodipodi:nodetypes="csssc"
       clip-path="url(#clipPath29)" /><path
       style="fill:#ffffff;fill-opacity:1;stroke:#370188;stroke-width:3.21643;stroke-dasharray:none;stroke-opacity:1"
       d="m -14.261242,216.60369 c -3.154129,9.60909 -5.9743,29.82497 -6.568355,33.8274 -0.801632,5.40097 5.774621,8.31209 8.445833,2.28807 2.6711842,-6.02404 8.2216977,-26.04142 8.2216977,-26.04142"
       id="path6-86-3-4-3"
       sodipodi:nodetypes="cssc"
       clip-path="url(#clipPath22)" /><path
       style="fill:#fd8658;fill-opacity:1;stroke:#370188;stroke-width:3.21643;stroke-dasharray:none;stroke-opacity:1"
       d="m -0.75550281,225.57092 -6.80887269,23.74563 -13.8213905,-6.65826 7.343271,-26.08446"
       id="path12-2-2-7-8-2"
       sodipodi:nodetypes="cccc"
       clip-path="url(#clipPath20)" /><circle
       style="fill:#370188;fill-opacity:1;stroke:#370188;stroke-width:0.804104;stroke-opacity:1"
       id="path3-3-6-6-9-8-5-4"
       r="0.76141715"
       cy="261.95474"
       cx="-64.056885"
       inkscape:transform-center-x="-2.5670416"
       inkscape:transform-center-y="-8.241693e-06"
       transform="matrix(-0.96921458,-0.24621757,-0.24621757,0.96921458,0,0)"
       clip-path="url(#clipPath8)" /><circle
       style="fill:#370188;fill-opacity:1;stroke:#370188;stroke-width:0.804104;stroke-opacity:1"
       id="path3-3-6-60-59-6-9-2"
       r="0.76141715"
       cy="271.74911"
       cx="-63.485996"
       inkscape:transform-center-x="-2.5670368"
       inkscape:transform-center-y="-1.4574684e-05"
       transform="matrix(-0.96921458,-0.24621757,-0.24621757,0.96921458,0,0)"
       clip-path="url(#clipPath4)" /><rect
       style="fill:none;fill-opacity:1;fill-rule:nonzero;stroke:#370188;stroke-width:3.175;stroke-dasharray:none;stroke-opacity:1"
       id="rect113-4-2"
       width="282.57498"
       height="354.01248"
       x="1.5875"
       y="1.5875" /><text
       xml:space="preserve"
       style="font-style:normal;font-variant:normal;font-weight:normal;font-stretch:normal;font-size:16.9333px;font-family:'Nanum Pen';-inkscape-font-specification:'Nanum Pen';text-align:center;letter-spacing:0px;word-spacing:0px;writing-mode:lr-tb;direction:ltr;text-anchor:middle;white-space:pre;inline-size:216.28;display:inline;fill:#370188;fill-opacity:1;stroke:none;stroke-width:1.5875;stroke-linecap:round;stroke-dasharray:none;stroke-opacity:1"
       x="31.271128"
       y="156.49693"
       id="text5"
       transform="translate(139.83418,-35.624704)" /><text
       xml:space="preserve"
       style="font-style:normal;font-variant:normal;font-weight:normal;font-stretch:normal;font-size:19.05px;font-family:'Nanum Pen';-inkscape-font-specification:'Nanum Pen';text-align:center;letter-spacing:0px;word-spacing:0px;writing-mode:lr-tb;direction:ltr;text-anchor:middle;white-space:pre;inline-size:267.982;display:inline;fill:#370188;fill-opacity:1;stroke:none;stroke-width:1.5875;stroke-linecap:round;stroke-dasharray:none;stroke-opacity:1"
       x="-19.642523"
       y="156.49693"
       id="text17-6-3"
       transform="translate(164.32983,-124.37609)"><tspan
         x="-19.642523"
         y="156.49693"
         id="tspan1">I mean, it gets you from A to B, but...</tspan></text><path
       style="fill:none;fill-opacity:1;stroke:#370188;stroke-width:1.5875;stroke-linecap:round;stroke-dasharray:none;stroke-opacity:1"
       d="M 61.001336,221.79091 C -1.4874334,225.43118 7.0954439,69.322885 15.838039,38.281703"
       id="path13-1-9-2-0-1"
       sodipodi:nodetypes="cc" /><path
       style="fill:#018816;fill-opacity:1;stroke:#370188;stroke-width:3.175;stroke-dasharray:none;stroke-opacity:1"
       d="m 65.043319,256.81824 -2.44821,35.65858 51.518661,1.38376 -2.02245,-39.59698 z"
       id="path25-4-5" /><path
       style="fill:#ffffff;fill-opacity:1;stroke:#370188;stroke-width:3.175;stroke-dasharray:none;stroke-opacity:1"
       d="m 48.382059,265.26605 c 0,15.83268 7.10918,26.92819 17.07233,33.28661 2.37048,1.51282 4.90258,2.75752 7.53891,3.73402 23.316624,8.63654 54.788081,-3.70364 54.763761,-37.02063 l -15.06804,15.50715 -15.151293,-6.5761 -19.957538,9.34238 -10.75538,-11.69092 -8.4902,5.14359 z"
       id="path1-8-6"
       sodipodi:nodetypes="cssccccccc" /><path
       style="fill:#370189;fill-opacity:1;stroke:#370188;stroke-width:0;stroke-dasharray:none;stroke-opacity:1"
       d="m 72.310069,300.60199 -3.82692,-5.27259 5.07117,2.35369 1.32626,-3.92795 0.37681,4.14213 4.16998,-3.19913 -2.57346,4.76485 5.632445,0.54648 -3.692805,2.899 z"
       id="path3-2-5"
       sodipodi:nodetypes="cccccccccc" /><path
       style="fill:#370189;fill-opacity:1;stroke:#370188;stroke-width:0;stroke-dasharray:none;stroke-opacity:1"
       d="m 103.45478,301.13834 3.03511,-5.32825 -4.74551,2.65567 -0.40824,-3.99876 -1.23584,4.49196 -4.724652,-1.3668 3.40941,3.17528 -4.781804,1.08258 4.502499,2.28216 z"
       id="path3-1-5-4"
       sodipodi:nodetypes="cccccccccc" /><path
       style="fill:#ee4302;fill-opacity:1;stroke:#370188;stroke-width:3.175;stroke-dasharray:none;stroke-opacity:1"
       d="m 72.904399,301.93206 c -0.0908,0.82798 -0.11081,10.87927 -0.11081,10.87927 l -7.65791,4.01428 9.17048,-1.55093 0.74285,0.90942 0.70028,-0.93298 8.752492,1.41577 -6.925972,-3.71139 c 0,0 0.0702,-8.9828 0.0127,-9.10428 z"
       id="path7-8-04"
       sodipodi:nodetypes="cccccccccc" /><path
       style="fill:#ee4302;fill-opacity:1;stroke:#370188;stroke-width:3.175;stroke-dasharray:none;stroke-opacity:1"
       d="m 102.94294,301.19416 0.34005,12.60688 7.87114,2.69119 -9.9795,-1.45316 -0.74286,0.90941 -0.700308,-0.93297 -9.076214,1.20135 7.418261,-3.10318 c 0,0 0.16637,-9.20293 0.179705,-9.394 z"
       id="path7-4-0-0"
       sodipodi:nodetypes="cccccccccc" /><path
       style="fill:none;fill-opacity:1;stroke:#370188;stroke-width:3.175;stroke-dasharray:none;stroke-opacity:1"
       d="m 73.402549,277.61442 3.90573,-9.47852 22.305454,-0.053 3.054917,7.69033"
       id="path19-60-4"
       sodipodi:nodetypes="cccc" /><path
       style="fill:#fdc458;fill-opacity:1;stroke:#370188;stroke-width:3.175;stroke-dasharray:none;stroke-opacity:1"
       d="m 61.758559,246.87204 c 0,0 -38.47278,27.21073 6.9562,15.58833 z"
       id="path17-0-4"
       sodipodi:nodetypes="ccc" /><path
       style="fill:#fdc458;fill-opacity:1;stroke:#370188;stroke-width:3.175;stroke-dasharray:none;stroke-opacity:1"
       d="m 118.01108,247.91093 c 0,0 34.30229,21.19084 -7.53478,15.42339 z"
       id="path16-7-3"
       sodipodi:nodetypes="ccc" /><path
       style="fill:#fdc458;fill-opacity:1;stroke:#370188;stroke-width:3.175;stroke-dasharray:none;stroke-opacity:1"
       d="m 104.38919,233.11061 c 17.42595,-38.94192 -49.630841,-38.34514 -32.591501,0.64325 l 15.592739,7.69652 z"
       id="path23-5-43"
       sodipodi:nodetypes="cccc" /><path
       style="fill:#018816;fill-opacity:1;stroke:#370188;stroke-width:3.175;stroke-dasharray:none;stroke-opacity:1"
       d="m 70.757329,262.57327 -9.8003,4.04721 -6.62149,-19.13719 13.52251,-5.46456 -0.30575,-10.09068 19.875562,9.57891 20.487099,-10.49624 v 8.56178 l 14.32217,7.77239 -6.5907,18.69104 -9.53128,-3.85836"
       id="path12-0-7"
       sodipodi:nodetypes="ccccccccccc" /><path
       style="fill:none;fill-opacity:1;stroke:#370188;stroke-width:3.175;stroke-dasharray:none;stroke-opacity:1"
       d="m 67.552929,241.81722 19.874932,4.4824 20.996309,-6.52113"
       id="path22-1-2"
       sodipodi:nodetypes="ccc" /><path
       style="fill:none;fill-opacity:1;stroke:#370188;stroke-width:3.175;stroke-dasharray:none;stroke-opacity:1"
       d="m 78.246269,240.87027 -3.37312,20.3066"
       id="path10-79-3"
       sodipodi:nodetypes="cc" /><path
       style="fill:none;fill-opacity:1;stroke:#370188;stroke-width:3.175;stroke-dasharray:none;stroke-opacity:1"
       d="m 95.686163,240.36386 2.501138,20.97738"
       id="path11-71-9"
       sodipodi:nodetypes="cc" /><path
       style="fill:none;fill-opacity:1;stroke:#370188;stroke-width:3.175;stroke-dasharray:none;stroke-opacity:1"
       d="m 87.082929,223.27532 5.982748,3.09451 -7.220554,3.30085"
       id="path24-70-3" /><path
       style="fill:none;fill-opacity:1;stroke:#370188;stroke-width:3.175;stroke-dasharray:none;stroke-opacity:1"
       d="m 88.197227,206.20694 c 5.406326,-4.70873 -5.057489,-5.05753 0.523208,-8.89426"
       id="path26-0-54"
       sodipodi:nodetypes="cc" /><ellipse
       style="fill:#ffffff;fill-opacity:1;stroke:#370188;stroke-width:1.5875;stroke-dasharray:none;stroke-opacity:1"
       id="path9-9"
       cx="83.012505"
       cy="216.92917"
       rx="3.0748799"
       ry="4.3256369" /><ellipse
       style="fill:#ffffff;fill-opacity:1;stroke:#370188;stroke-width:1.5875;stroke-dasharray:none;stroke-opacity:1"
       id="path9-2-0"
       cx="94.601334"
       cy="216.73169"
       rx="3.0745678"
       ry="4.3334799" /><path
       style="fill:#ffffff;fill-opacity:1;stroke:#370188;stroke-width:3.21643;stroke-dasharray:none;stroke-opacity:1"
       d="m 177.48985,218.35364 c -1.24359,8.17194 -13.4967,27.73728 -15.45088,31.82325 -1.95415,4.08597 3.22145,8.96309 6.77443,5.76539 3.55301,-3.19777 15.76829,-21.08607 17.36715,-27.30386"
       id="path5-1-2-1-7-5"
       sodipodi:nodetypes="cssc" /><path
       style="fill:#ffffff;fill-opacity:1;stroke:#370188;stroke-width:3.21643;stroke-dasharray:none;stroke-opacity:1"
       d="m 219.8559,260.5907 c 0.81687,6.53497 4.51006,21.2209 12.1399,30.13967 6.13109,7.16677 14.56271,8.4803 18.80835,10.80214 9.77519,5.346 6.76901,14.03995 -1.93154,11.82475 -12.68041,-3.22847 -31.83633,-6.967 -30.95234,-15.80671"
       id="path2-4-2-5-8-3-7"
       sodipodi:nodetypes="csssc" /><path
       style="fill:#58fdaf;fill-opacity:1;stroke:#370188;stroke-width:3.21643;stroke-dasharray:none;stroke-opacity:1"
       d="m 176.04268,224.47644 -14.44256,20.39693 11.14863,9.75506"
       id="path13-6-7-6-8-9"
       sodipodi:nodetypes="ccc" /><path
       style="fill:#ffffff;fill-opacity:1;stroke:#370188;stroke-width:3.21643;stroke-dasharray:none;stroke-opacity:1"
       d="m 172.33813,172.76734 c -2.98009,-3.6622 0.72158,-6.68728 3.80158,-2.51291"
       id="path15-0-5-6-6-1-8"
       sodipodi:nodetypes="cc" /><path
       style="fill:#ffffff;fill-opacity:1;stroke:#370188;stroke-width:3.21656;stroke-dasharray:none;stroke-opacity:1"
       d="m 193.16301,197.11175 c -9.26554,17.31194 -44.37713,6.82723 -30.47879,-11.94765 13.89834,-18.77498 19.2626,-20.4818 30.23495,-19.99418 10.97239,0.48771 19.64004,10.31735 20.72561,18.2873 1.42976,10.49709 3.3273,59.21102 5.76564,73.59704 1.99771,11.78674 -0.79394,34.08943 -2.08242,46.63332 -0.28416,2.76612 -0.49511,5.05771 -0.56556,6.6573 -0.44358,10.0706 -13.41428,10.82717 -14.14215,0.73152 -0.53937,-7.48017 -10.08545,-6.2115 -10.38755,0 -0.45123,9.27808 -13.78369,9.12606 -14.58449,-0.2613 -0.92951,-10.89466 -6.17163,-40.69924 -5.15074,-52.22005 0.97228,-10.97235 6.7672,-52.94938 6.7672,-52.94938 v 0"
       id="path1-2-4-7-1-7-4"
       sodipodi:nodetypes="csssssssssscc" /><path
       style="fill:#370188;fill-opacity:1;stroke:#370188;stroke-width:3.21643;stroke-dasharray:none;stroke-opacity:1"
       d="m 170.97027,190.62538 c 1.06385,-0.69008 5.0199,0.46524 5.52069,1.55271 0.46854,1.01736 -3.81838,3.16652 -4.54307,2.76034 -0.53051,-0.29718 -2.04153,-3.62296 -0.97762,-4.31305 z"
       id="path4-2-3-9-6-8"
       sodipodi:nodetypes="zssz" /><path
       style="fill:#58fdaf;fill-opacity:1;stroke:#370188;stroke-width:3.21643;stroke-dasharray:none;stroke-opacity:1"
       d="m 219.18757,284.97603 c -0.34052,5.32857 -0.99514,27.69689 -0.99514,27.69689 l -19.1556,-0.58045 -1.99019,-5.97062 -1.74142,6.05348 -20.39947,0.58052 c 0,0 -0.21209,-19.99024 -0.66339,-29.02366 -0.45123,-9.03341 -3.11143,-13.35294 -1.94037,-25.16197 1.17107,-11.80906 5.49523,-45.01378 5.49523,-45.01378 l 5.28793,1.13319 4.91023,10.19816 4.15487,-10.38704 23.22922,-1.51086 c 0,0 1.73711,30.37408 4.16313,44.75871 2.42598,14.38449 0.33385,17.47355 0.12985,20.37635 -0.20415,2.90281 -0.14414,1.52251 -0.48472,6.85108 z"
       id="path14-0-7-8-2-9"
       sodipodi:nodetypes="zccccczzccccczzz" /><path
       style="fill:#ffffff;fill-opacity:1;stroke:#370188;stroke-width:3.21643;stroke-dasharray:none;stroke-opacity:1"
       d="m 216.45923,224.2995 c 0.6911,10.08986 -1.55306,30.37776 -1.96276,34.40325 -0.55286,5.43207 -7.64343,6.63438 -8.74919,0.13811 -1.10572,-6.49627 -1.55673,-27.26404 -1.55673,-27.26404"
       id="path6-86-3-4-3-4"
       sodipodi:nodetypes="cssc" /><path
       style="fill:#ffffff;fill-opacity:1;stroke:#370188;stroke-width:3.21643;stroke-dasharray:none;stroke-opacity:1"
       d="m 192.85628,213.64521 -4.17072,11.2469"
       id="path10-5-4-0-6-1-7"
       sodipodi:nodetypes="cc" /><path
       style="fill:#58fdaf;fill-opacity:1;stroke:#370188;stroke-width:3.21643;stroke-dasharray:none;stroke-opacity:1"
       d="m 196.60322,223.61979 -3.07457,-8.95407 22.08107,-1.61388 2.6409,9.02313 z"
       id="path7-1-7-2-3-4-0"
       sodipodi:nodetypes="ccccc" /><path
       style="fill:#ffffff;fill-opacity:1;stroke:#370188;stroke-width:3.21643;stroke-dasharray:none;stroke-opacity:1"
       d="m 188.37486,225.17253 -5.09153,-11.52732"
       id="path9-9-9-5-8-8-4"
       sodipodi:nodetypes="cc" /><path
       style="fill:#58fdaf;fill-opacity:1;stroke:#370188;stroke-width:3.21643;stroke-dasharray:none;stroke-opacity:1"
       d="m 177.68314,213.63867 5.11909,0.79594 -2.01381,9.07552 -6.3901,-1.8254 z"
       id="path8-9-5-7-9-9-0"
       sodipodi:nodetypes="ccccc" /><path
       style="fill:#58fdaf;fill-opacity:1;stroke:#370188;stroke-width:3.21643;stroke-dasharray:none;stroke-opacity:1"
       d="m 201.16138,229.66531 0.75266,24.69109 15.03528,-3.05023 -0.69475,-27.08948"
       id="path12-2-2-7-8-2-6"
       sodipodi:nodetypes="cccc" /><path
       style="fill:#58fdaf;fill-opacity:1;stroke:#370188;stroke-width:3.21643;stroke-dasharray:none;stroke-opacity:1"
       d="m 188.47157,224.7038 c 0,0 -1.32988,28.23528 -1.43218,31.202 -0.10255,2.96675 1.85966,33.12029 1.85966,33.12029 l 5.23132,-0.403"
       id="path11-7-9-4-2-3-5"
       sodipodi:nodetypes="csc" /><circle
       style="fill:#370188;fill-opacity:1;stroke:#370188;stroke-width:0.804104;stroke-opacity:1"
       id="path3-3-6-16-4-6-1-3"
       r="0.76141715"
       cy="233.32289"
       cx="192.14198"
       inkscape:transform-center-x="2.5670641"
       inkscape:transform-center-y="-5.6852825e-06" /><circle
       style="fill:#370188;fill-opacity:1;stroke:#370188;stroke-width:0.804104;stroke-opacity:1"
       id="path3-3-6-9-41-1-0-5-8"
       r="0.76141715"
       cy="243.4514"
       cx="191.65483"
       inkscape:transform-center-x="2.5670306"
       inkscape:transform-center-y="-3.6976775e-06" /><circle
       style="fill:#370188;fill-opacity:1;stroke:#370188;stroke-width:0.804104;stroke-opacity:1"
       id="path3-3-6-2-6-2-9-0-5"
       r="0.76141715"
       cy="252.87831"
       cx="191.17384"
       inkscape:transform-center-x="2.567051"
       inkscape:transform-center-y="7.9723223e-06" /><circle
       style="fill:#370188;fill-opacity:1;stroke:#370188;stroke-width:0.804104;stroke-opacity:1"
       id="path3-3-6-1-3-7-6-7-1"
       r="0.76141715"
       cy="262.66989"
       cx="191.33891"
       inkscape:transform-center-x="2.5670693"
       inkscape:transform-center-y="1.4437816e-05" /><circle
       style="fill:#370188;fill-opacity:1;stroke:#370188;stroke-width:0.804104;stroke-opacity:1"
       id="path3-3-6-6-9-8-5-4-2"
       r="0.76141715"
       cy="272.8074"
       cx="191.91176"
       inkscape:transform-center-x="2.567042"
       inkscape:transform-center-y="-8.241693e-06" /><circle
       style="fill:#370188;fill-opacity:1;stroke:#370188;stroke-width:0.804104;stroke-opacity:1"
       id="path3-3-6-60-59-6-9-2-4"
       r="0.76141715"
       cy="282.60175"
       cx="192.48265"
       inkscape:transform-center-x="2.5670372"
       inkscape:transform-center-y="-1.4574684e-05" /><path
       style="fill:#ffffff;fill-opacity:1;stroke:#370188;stroke-width:3.21643;stroke-dasharray:none;stroke-opacity:1"
       d="m 199.96345,177.1316 c 3.37258,-3.08899 6.1441,1.80683 3.08896,3.72209"
       id="path15-1-0-5-7-6"
       sodipodi:nodetypes="cc" /><path
       style="fill:none;fill-opacity:1;stroke:#370188;stroke-width:3.19065;stroke-dasharray:none;stroke-opacity:1"
       d="m 174.35714,180.13782 c 1.54807,-4.49288 8.3692,-1.73155 6.34908,1.44297"
       id="path32-7"
       sodipodi:nodetypes="cc" /><path
       style="fill:none;fill-opacity:1;stroke:#370188;stroke-width:3.19065;stroke-dasharray:none;stroke-opacity:1"
       d="m 185.89547,184.0992 c 1.54807,-4.49287 8.36924,-1.73155 6.34905,1.44298"
       id="path32-9-7"
       sodipodi:nodetypes="cc" /></g></svg>
