<?xml version="1.0" encoding="UTF-8" standalone="no"?>
<!-- Created with Inkscape (http://www.inkscape.org/) -->

<svg
   width="1080"
   height="1350"
   viewBox="0 0 285.74999 357.1875"
   version="1.1"
   id="svg1"
   inkscape:version="1.4 (e7c3feb1, 2024-10-09)"
   sodipodi:docname="panel-03.svg"
   xmlns:inkscape="http://www.inkscape.org/namespaces/inkscape"
   xmlns:sodipodi="http://sodipodi.sourceforge.net/DTD/sodipodi-0.dtd"
   xmlns="http://www.w3.org/2000/svg"
   xmlns:svg="http://www.w3.org/2000/svg">
  <sodipodi:namedview
     id="namedview1"
     pagecolor="#ffffff"
     bordercolor="#000000"
     borderopacity="0.25"
     inkscape:showpageshadow="2"
     inkscape:pageopacity="0.0"
     inkscape:pagecheckerboard="0"
     inkscape:deskcolor="#d1d1d1"
     inkscape:document-units="px"
     inkscape:zoom="0.43656993"
     inkscape:cx="16.034086"
     inkscape:cy="552.03069"
     inkscape:window-width="1728"
     inkscape:window-height="1057"
     inkscape:window-x="0"
     inkscape:window-y="32"
     inkscape:window-maximized="0"
     inkscape:current-layer="layer1"
     showguides="true" />
  <defs
     id="defs1">
    <rect
       x="337.60629"
       y="293.08679"
       width="868.13049"
       height="871.84045"
       id="rect26" />
    <rect
       x="358.01108"
       y="335.75131"
       width="877.4054"
       height="734.57196"
       id="rect25" />
    <rect
       x="418.44797"
       y="244.75258"
       width="748.0744"
       height="801.36731"
       id="rect16" />
    <clipPath
       clipPathUnits="userSpaceOnUse"
       id="clipPath32">
      <rect
         style="fill:none;fill-opacity:1;fill-rule:nonzero;stroke:#370188;stroke-width:3.175;stroke-dasharray:none;stroke-opacity:1"
         id="rect33"
         width="282.57498"
         height="354.01248"
         x="1.5875"
         y="15.875003" />
    </clipPath>
    <clipPath
       clipPathUnits="userSpaceOnUse"
       id="clipPath33">
      <rect
         style="fill:none;fill-opacity:1;fill-rule:nonzero;stroke:#370188;stroke-width:3.175;stroke-dasharray:none;stroke-opacity:1"
         id="rect34"
         width="282.57498"
         height="354.01248"
         x="1.5875"
         y="15.875003"
         transform="scale(-1,1)" />
    </clipPath>
    <clipPath
       clipPathUnits="userSpaceOnUse"
       id="clipPath34">
      <rect
         style="fill:none;fill-opacity:1;fill-rule:nonzero;stroke:#370188;stroke-width:3.175;stroke-dasharray:none;stroke-opacity:1"
         id="rect35"
         width="282.57498"
         height="354.01248"
         x="1.5875"
         y="15.875003" />
    </clipPath>
    <clipPath
       clipPathUnits="userSpaceOnUse"
       id="clipPath35">
      <rect
         style="fill:none;fill-opacity:1;fill-rule:nonzero;stroke:#370188;stroke-width:3.175;stroke-dasharray:none;stroke-opacity:1"
         id="rect36"
         width="282.57498"
         height="354.01248"
         x="1.5875"
         y="15.875003" />
    </clipPath>
    <clipPath
       clipPathUnits="userSpaceOnUse"
       id="clipPath1">
      <rect
         style="fill:none;fill-opacity:1;fill-rule:nonzero;stroke:#370188;stroke-width:0.695287;stroke-dasharray:none;stroke-opacity:1"
         id="rect2"
         width="61.880581"
         height="77.524551"
         x="-167.02388"
         y="-16.952217"
         transform="scale(-1,1)" />
    </clipPath>
    <clipPath
       clipPathUnits="userSpaceOnUse"
       id="clipPath2">
      <rect
         style="fill:none;fill-opacity:1;fill-rule:nonzero;stroke:#370188;stroke-width:3.175;stroke-dasharray:none;stroke-opacity:1"
         id="rect3"
         width="282.57498"
         height="354.01248"
         x="139.64767"
         y="-132.82672"
         transform="rotate(21.214416)" />
    </clipPath>
  </defs>
  <g
     inkscape:label="Layer 1"
     inkscape:groupmode="layer"
     id="layer1">
    <text
       xml:space="preserve"
       transform="scale(0.26458333)"
       id="text16"
       style="font-style:normal;font-variant:normal;font-weight:bold;font-stretch:normal;font-size:60px;font-family:'Josefin Slab';-inkscape-font-specification:'Josefin Slab Bold';text-align:start;letter-spacing:0px;word-spacing:0px;writing-mode:lr-tb;direction:ltr;white-space:pre;shape-inside:url(#rect16);display:inline;fill:#000000;fill-opacity:0;stroke:#370188;stroke-width:12;stroke-opacity:1" />
    <text
       xml:space="preserve"
       transform="scale(0.26458333)"
       id="text25"
       style="font-style:normal;font-variant:normal;font-weight:bold;font-stretch:normal;font-size:60px;font-family:'Josefin Slab';-inkscape-font-specification:'Josefin Slab Bold';text-align:start;letter-spacing:0px;word-spacing:0px;writing-mode:lr-tb;direction:ltr;white-space:pre;shape-inside:url(#rect25);display:inline;fill:#000000;fill-opacity:0;stroke:#370188;stroke-width:12;stroke-opacity:1" />
    <text
       xml:space="preserve"
       transform="scale(0.26458333)"
       id="text26"
       style="font-style:normal;font-variant:normal;font-weight:bold;font-stretch:normal;font-size:60px;font-family:'Josefin Slab';-inkscape-font-specification:'Josefin Slab Bold';text-align:start;letter-spacing:0px;word-spacing:0px;writing-mode:lr-tb;direction:ltr;white-space:pre;shape-inside:url(#rect26);display:inline;fill:#000000;fill-opacity:0;stroke:#370188;stroke-width:12;stroke-opacity:1" />
    <rect
       width="9.8019896"
       height="15.875"
       rx="0"
       ry="0"
       fill="#6002ee"
       stroke-width="0"
       id="rect1-3-4-39-4-2-0-5-6"
       x="247.60098"
       y="332.84583" />
    <text
       font-family="Montserrat"
       font-size="618.11px"
       font-weight="200"
       stroke-width="0"
       fill="#33333"
       id="text3-0-3-0-0-5-3-3-2"
       x="248.33717"
       y="345.42685"
       style="font-style:normal;font-variant:normal;font-weight:300;font-stretch:normal;font-size:13.0774px;font-family:Montserrat;-inkscape-font-specification:'Montserrat Light'"
       transform="scale(0.99938968,1.0006107)"><tspan
         y="345.42685"
         font-weight="200"
         stroke-width="0"
         id="tspan1-4-8-6-2-1-2-5-9"
         style="font-style:normal;font-variant:normal;font-weight:300;font-stretch:normal;font-size:13.0774px;font-family:Montserrat;-inkscape-font-specification:'Montserrat Light'"><tspan
           style="font-style:normal;font-variant:normal;font-weight:300;font-stretch:normal;font-size:13.0774px;font-family:Montserrat;-inkscape-font-specification:'Montserrat Light';fill:#ffffff;fill-opacity:1;stroke-width:0"
           id="tspan3-6-3-13-5-2-1-6-6">k</tspan></tspan></text>
    <text
       dx="0"
       dy="0"
       font-family="Montserrat"
       font-size="465.256px"
       font-weight="200"
       stroke-width="0"
       fill="#33333"
       id="text3-0-3-6-8-4-0-8-9"
       x="195.17656"
       y="345.42685"
       style="font-style:normal;font-variant:normal;font-weight:300;font-stretch:normal;font-size:13.0774px;font-family:Montserrat;-inkscape-font-specification:'Montserrat Light'"
       transform="scale(0.99938968,1.0006107)"><tspan
         y="345.42685"
         font-weight="200"
         stroke-width="0"
         id="tspan1-4-8-3-9-0-0-6-9"
         style="font-style:normal;font-variant:normal;font-weight:300;font-stretch:normal;font-size:13.0774px;font-family:Montserrat;-inkscape-font-specification:'Montserrat Light'">product</tspan></text>
    <text
       font-family="Montserrat"
       font-size="465.256px"
       font-weight="200"
       stroke-width="0"
       fill="#33333"
       id="text3-0-3-6-4-3-4-3-7-8"
       x="257.78415"
       y="345.42685"
       style="font-style:normal;font-variant:normal;font-weight:300;font-stretch:normal;font-size:13.0774px;font-family:Montserrat;-inkscape-font-specification:'Montserrat Light'"
       transform="scale(0.99938968,1.0006107)"><tspan
         y="345.42685"
         font-weight="200"
         stroke-width="0"
         id="tspan1-4-8-3-6-9-9-9-7-0"
         style="font-style:normal;font-variant:normal;font-weight:300;font-stretch:normal;font-size:13.0774px;font-family:Montserrat;-inkscape-font-specification:'Montserrat Light'">ind</tspan></text>
    <text
       xml:space="preserve"
       style="font-style:normal;font-variant:normal;font-weight:normal;font-stretch:normal;font-size:19.05px;font-family:'Nanum Pen';-inkscape-font-specification:'Nanum Pen';text-align:end;letter-spacing:0px;word-spacing:0px;writing-mode:lr-tb;direction:ltr;text-anchor:end;white-space:pre;inline-size:163.916;display:inline;fill:#370188;fill-opacity:1;stroke:none;stroke-width:1.5875;stroke-linecap:round;stroke-dasharray:none;stroke-opacity:1"
       x="101.10519"
       y="156.49693"
       id="text17"
       transform="translate(167.64006,-115.73027)"><tspan
         x="101.10519"
         y="156.49693"
         id="tspan2">Relax. True leaders don’t<tspan
   y="156.49693"
   id="tspan3"> </tspan></tspan><tspan
         x="101.10519"
         y="180.30944"
         id="tspan4">shout. They listen.</tspan></text>
    <text
       xml:space="preserve"
       style="font-style:normal;font-variant:normal;font-weight:normal;font-stretch:normal;font-size:19.05px;font-family:'Nanum Pen';-inkscape-font-specification:'Nanum Pen';text-align:start;letter-spacing:0px;word-spacing:0px;writing-mode:lr-tb;direction:ltr;text-anchor:start;white-space:pre;inline-size:148.383;display:inline;fill:#370188;fill-opacity:1;stroke:none;stroke-width:1.5875;stroke-linecap:round;stroke-dasharray:none;stroke-opacity:1"
       x="-52.474213"
       y="156.49693"
       id="text17-9"
       transform="translate(65.876916,-61.37897)"><tspan
         x="-52.474213"
         y="156.49693"
         id="tspan5">...phew. My scary </tspan><tspan
         x="-52.474213"
         y="180.30944"
         id="tspan6">voice sounds like a </tspan><tspan
         x="-52.474213"
         y="204.12194"
         id="tspan7">squeaky toy anyway.</tspan></text>
    <path
       style="fill:none;fill-opacity:1;stroke:#370188;stroke-width:1.5875;stroke-linecap:round;stroke-dasharray:none;stroke-opacity:1"
       d="M 75.672026,151.98221 C 75.3306,162.3634 86.712351,179.47265 84.058652,198.4571"
       id="path13-1-4"
       sodipodi:nodetypes="cc" />
    <rect
       style="fill:none;fill-opacity:1;fill-rule:nonzero;stroke:#370188;stroke-width:3.175;stroke-dasharray:none;stroke-opacity:1"
       id="rect113-4-2"
       width="282.57498"
       height="354.01248"
       x="1.5875"
       y="1.5875" />
    <path
       style="fill:#ffffff;fill-opacity:1;stroke:#370188;stroke-width:3.21643;stroke-dasharray:none;stroke-opacity:1"
       d="m 181.1657,225.19039 c -1.24359,8.17194 -13.49671,27.73727 -15.45089,31.82324 -1.95414,4.08597 3.22145,8.96309 6.77444,5.76539 3.55301,-3.19776 15.76829,-21.08606 17.36715,-27.30386"
       id="path5-1-2-1-7"
       sodipodi:nodetypes="cssc" />
    <path
       style="fill:#ffffff;fill-opacity:1;stroke:#370188;stroke-width:3.21643;stroke-dasharray:none;stroke-opacity:1"
       d="m 223.53175,267.42744 c 0.81687,6.53498 4.51006,21.22091 12.1399,30.13967 6.13108,7.16677 14.56271,8.4803 18.80835,10.80215 9.77519,5.346 6.76901,14.03994 -1.93154,11.82474 -12.68041,-3.22846 -31.83633,-6.96699 -30.95235,-15.8067"
       id="path2-4-2-5-8-3"
       sodipodi:nodetypes="csssc" />
    <path
       style="fill:#a5fe8b;fill-opacity:1;stroke:#370188;stroke-width:3.21643;stroke-dasharray:none;stroke-opacity:1"
       d="m 179.71853,231.31318 -14.44256,20.39693 11.14863,9.75506"
       id="path13-6-7-6-8"
       sodipodi:nodetypes="ccc" />
    <path
       style="fill:#ffffff;fill-opacity:1;stroke:#370188;stroke-width:3.21643;stroke-dasharray:none;stroke-opacity:1"
       d="m 176.01397,179.60409 c -2.98008,-3.66221 0.72159,-6.68728 3.80159,-2.51292"
       id="path15-0-5-6-6-1"
       sodipodi:nodetypes="cc" />
    <path
       style="fill:#ffffff;fill-opacity:1;stroke:#370188;stroke-width:3.21656;stroke-dasharray:none;stroke-opacity:1"
       d="m 196.83886,203.9485 c -9.26554,17.31194 -44.37713,6.82723 -30.47879,-11.94766 13.89834,-18.77498 19.2626,-20.48179 30.23495,-19.99418 10.97239,0.48771 19.64004,10.31736 20.72561,18.2873 1.42976,10.49709 3.3273,59.21102 5.76564,73.59704 1.99771,11.78674 -0.79394,34.08944 -2.08242,46.63332 -0.28416,2.76612 -0.49511,5.05771 -0.56556,6.65731 -0.44358,10.07059 -13.41428,10.82716 -14.14215,0.73152 -0.53937,-7.48017 -10.08545,-6.21151 -10.38755,0 -0.45123,9.27808 -13.78369,9.12606 -14.58449,-0.2613 -0.92951,-10.89467 -6.17163,-40.69925 -5.15074,-52.22005 0.97228,-10.97236 6.76719,-52.94938 6.76719,-52.94938 v 0"
       id="path1-2-4-7-1-7"
       sodipodi:nodetypes="csssssssssscc" />
    <circle
       style="fill:#370188;fill-opacity:1;stroke:#370188;stroke-width:0.804104;stroke-opacity:1"
       id="path3-29-2-0"
       cx="179.58716"
       cy="185.90756"
       r="1.5030103" />
    <circle
       style="fill:#370188;fill-opacity:1;stroke:#370188;stroke-width:0.804104;stroke-opacity:1"
       id="path3-3-5-9-1"
       cx="190.23407"
       cy="188.24153"
       r="1.5030103" />
    <path
       style="fill:#370188;fill-opacity:1;stroke:#370188;stroke-width:3.21643;stroke-dasharray:none;stroke-opacity:1"
       d="m 174.64612,197.46213 c 1.06385,-0.69009 5.0199,0.46523 5.52069,1.5527 0.46854,1.01737 -3.81838,3.16652 -4.54308,2.76035 -0.53051,-0.29718 -2.04152,-3.62296 -0.97761,-4.31305 z"
       id="path4-2-3-9-6"
       sodipodi:nodetypes="zssz" />
    <path
       style="fill:#a5fe8b;fill-opacity:1;stroke:#370188;stroke-width:3.21643;stroke-dasharray:none;stroke-opacity:1"
       d="m 222.86342,291.81278 c -0.34052,5.32857 -0.99514,27.69688 -0.99514,27.69688 l -19.1556,-0.58045 -1.99019,-5.97062 -1.74142,6.05349 -20.39947,0.58052 c 0,0 -0.21209,-19.99025 -0.66339,-29.02366 -0.45123,-9.03342 -3.11143,-13.35294 -1.94037,-25.16197 1.17107,-11.80906 5.49523,-45.01379 5.49523,-45.01379 l 5.28793,1.13319 4.91023,10.19817 4.15487,-10.38705 23.22922,-1.51085 c 0,0 1.73711,30.37408 4.16312,44.7587 2.42599,14.3845 0.33386,17.47355 0.12986,20.37636 -0.20415,2.9028 -0.14414,1.5225 -0.48473,6.85108 z"
       id="path14-0-7-8-2"
       sodipodi:nodetypes="zccccczzccccczzz" />
    <path
       style="fill:#ffffff;fill-opacity:1;stroke:#370188;stroke-width:3.21643;stroke-dasharray:none;stroke-opacity:1"
       d="m 220.13507,231.13624 c 0.69111,10.08987 -1.55305,30.37777 -1.96275,34.40325 -0.55286,5.43208 -7.64343,6.63439 -8.74919,0.13812 -1.10572,-6.49628 -1.55673,-27.26405 -1.55673,-27.26405"
       id="path6-86-3-4-3"
       sodipodi:nodetypes="cssc" />
    <path
       style="fill:#ffffff;fill-opacity:1;stroke:#370188;stroke-width:3.21643;stroke-dasharray:none;stroke-opacity:1"
       d="m 196.53213,220.48196 -4.17072,11.2469"
       id="path10-5-4-0-6-1"
       sodipodi:nodetypes="cc" />
    <path
       style="fill:#a5fe8b;fill-opacity:1;stroke:#370188;stroke-width:3.21643;stroke-dasharray:none;stroke-opacity:1"
       d="m 200.27907,230.45654 -3.07458,-8.95407 22.08108,-1.61389 2.6409,9.02313 z"
       id="path7-1-7-2-3-4"
       sodipodi:nodetypes="ccccc" />
    <path
       style="fill:#ffffff;fill-opacity:1;stroke:#370188;stroke-width:3.21643;stroke-dasharray:none;stroke-opacity:1"
       d="m 192.05071,232.00927 -5.09153,-11.52731"
       id="path9-9-9-5-8-8"
       sodipodi:nodetypes="cc" />
    <path
       style="fill:#a5fe8b;fill-opacity:1;stroke:#370188;stroke-width:3.21643;stroke-dasharray:none;stroke-opacity:1"
       d="m 181.35899,220.47542 5.11909,0.79594 -2.01381,9.07551 -6.3901,-1.8254 z"
       id="path8-9-5-7-9-9"
       sodipodi:nodetypes="ccccc" />
    <path
       style="fill:#a5fe8b;fill-opacity:1;stroke:#370188;stroke-width:3.21643;stroke-dasharray:none;stroke-opacity:1"
       d="m 204.83723,236.50205 0.75266,24.69109 15.03528,-3.05022 -0.69476,-27.08948"
       id="path12-2-2-7-8-2"
       sodipodi:nodetypes="cccc" />
    <path
       style="fill:#a5fe8b;fill-opacity:1;stroke:#370188;stroke-width:3.21643;stroke-dasharray:none;stroke-opacity:1"
       d="m 192.14742,231.54055 c 0,0 -1.32988,28.23527 -1.43218,31.20199 -0.10255,2.96675 1.85966,33.1203 1.85966,33.1203 l 5.23132,-0.40301"
       id="path11-7-9-4-2-3"
       sodipodi:nodetypes="csc" />
    <circle
       style="fill:#370188;fill-opacity:1;stroke:#370188;stroke-width:0.804104;stroke-opacity:1"
       id="path3-3-6-16-4-6-1"
       r="0.76141715"
       cy="240.15964"
       cx="195.81783"
       inkscape:transform-center-x="2.5670641"
       inkscape:transform-center-y="-5.6852825e-06" />
    <circle
       style="fill:#370188;fill-opacity:1;stroke:#370188;stroke-width:0.804104;stroke-opacity:1"
       id="path3-3-6-9-41-1-0-5"
       r="0.76141715"
       cy="250.28815"
       cx="195.33066"
       inkscape:transform-center-x="2.5670306"
       inkscape:transform-center-y="-3.6976775e-06" />
    <circle
       style="fill:#370188;fill-opacity:1;stroke:#370188;stroke-width:0.804104;stroke-opacity:1"
       id="path3-3-6-2-6-2-9-0"
       r="0.76141715"
       cy="259.71506"
       cx="194.84967"
       inkscape:transform-center-x="2.567051"
       inkscape:transform-center-y="7.9723223e-06" />
    <circle
       style="fill:#370188;fill-opacity:1;stroke:#370188;stroke-width:0.804104;stroke-opacity:1"
       id="path3-3-6-1-3-7-6-7"
       r="0.76141715"
       cy="269.50665"
       cx="195.01479"
       inkscape:transform-center-x="2.5670693"
       inkscape:transform-center-y="1.4437816e-05" />
    <circle
       style="fill:#370188;fill-opacity:1;stroke:#370188;stroke-width:0.804104;stroke-opacity:1"
       id="path3-3-6-6-9-8-5-4"
       r="0.76141715"
       cy="279.64417"
       cx="195.58762"
       inkscape:transform-center-x="2.567042"
       inkscape:transform-center-y="-8.241693e-06" />
    <circle
       style="fill:#370188;fill-opacity:1;stroke:#370188;stroke-width:0.804104;stroke-opacity:1"
       id="path3-3-6-60-59-6-9-2"
       r="0.76141715"
       cy="289.43851"
       cx="196.15851"
       inkscape:transform-center-x="2.5670372"
       inkscape:transform-center-y="-1.4574684e-05" />
    <path
       style="fill:#ffffff;fill-opacity:1;stroke:#370188;stroke-width:3.21643;stroke-dasharray:none;stroke-opacity:1"
       d="m 203.6393,183.96835 c 3.37258,-3.08899 6.1441,1.80683 3.08896,3.72208"
       id="path15-1-0-5-7"
       sodipodi:nodetypes="cc" />
    <path
       style="fill:none;fill-opacity:1;stroke:#370188;stroke-width:1.5875;stroke-linecap:round;stroke-dasharray:none;stroke-opacity:1"
       d="m 210.57863,74.392904 c 1.80451,21.791792 -26.27129,68.355116 -25.03046,91.149776"
       id="path13-1-4-8"
       sodipodi:nodetypes="cc" />
    <path
       style="fill:#018816;fill-opacity:1;stroke:#370188;stroke-width:3.175;stroke-dasharray:none;stroke-opacity:1"
       d="m 54.927762,261.27297 -2.44821,35.65858 51.518658,1.38376 -2.02244,-39.59698 z"
       id="path25-4" />
    <path
       style="fill:#ffffff;fill-opacity:1;stroke:#370188;stroke-width:3.175;stroke-dasharray:none;stroke-opacity:1"
       d="m 38.266506,269.72079 c 0,15.83267 7.109174,26.92819 17.072323,33.2866 2.370487,1.51282 4.902581,2.75752 7.538911,3.73402 23.316628,8.63654 54.78808,-3.70364 54.76376,-37.02062 l -15.06804,15.50714 -15.151288,-6.57609 -19.957542,9.34237 -10.755375,-11.69092 -8.490204,5.1436 z"
       id="path1-8"
       sodipodi:nodetypes="cssccccccc" />
    <path
       style="fill:#370189;fill-opacity:1;stroke:#370188;stroke-width:0;stroke-dasharray:none;stroke-opacity:1"
       d="m 62.194512,305.05672 -3.826923,-5.27259 5.071173,2.35369 1.326261,-3.92795 0.376809,4.14214 4.169982,-3.19913 -2.573465,4.76485 5.63245,0.54648 -3.692811,2.89899 z"
       id="path3-2"
       sodipodi:nodetypes="cccccccccc" />
    <path
       style="fill:#370189;fill-opacity:1;stroke:#370188;stroke-width:0;stroke-dasharray:none;stroke-opacity:1"
       d="m 93.339229,305.59308 3.035109,-5.32826 -4.745514,2.65567 -0.408241,-3.99875 -1.235837,4.49195 -4.724654,-1.3668 3.40941,3.17528 -4.781804,1.08258 4.5025,2.28216 z"
       id="path3-1-5"
       sodipodi:nodetypes="cccccccccc" />
    <path
       style="fill:#ee4302;fill-opacity:1;stroke:#370188;stroke-width:3.175;stroke-dasharray:none;stroke-opacity:1"
       d="m 62.78884,306.3868 c -0.0908,0.82797 -0.110808,10.87926 -0.110808,10.87926 l -7.657909,4.01428 9.170479,-1.55092 0.742855,0.90941 0.700278,-0.93297 8.75249,1.41576 -6.925976,-3.71138 c 0,0 0.07017,-8.98281 0.0127,-9.10428 z"
       id="path7-8"
       sodipodi:nodetypes="cccccccccc" />
    <path
       style="fill:#ee4302;fill-opacity:1;stroke:#370188;stroke-width:3.175;stroke-dasharray:none;stroke-opacity:1"
       d="m 92.827387,305.64889 0.340042,12.60688 7.871141,2.69119 -9.979499,-1.45316 -0.742855,0.90941 -0.70031,-0.93297 -9.076213,1.20136 7.41826,-3.10319 c 0,0 0.16637,-9.20292 0.179705,-9.39399 z"
       id="path7-4-0"
       sodipodi:nodetypes="cccccccccc" />
    <path
       style="fill:none;fill-opacity:1;stroke:#370188;stroke-width:3.175;stroke-dasharray:none;stroke-opacity:1"
       d="m 63.286997,282.06915 3.905726,-9.47851 22.305454,-0.053 3.054922,7.69033"
       id="path19-60"
       sodipodi:nodetypes="cccc" />
    <path
       style="fill:#fdc458;fill-opacity:1;stroke:#370188;stroke-width:3.175;stroke-dasharray:none;stroke-opacity:1"
       d="m 51.643003,251.32677 c 0,0 -38.472776,27.21074 6.956202,15.58833 z"
       id="path17-0"
       sodipodi:nodetypes="ccc" />
    <path
       style="fill:#fdc458;fill-opacity:1;stroke:#370188;stroke-width:3.175;stroke-dasharray:none;stroke-opacity:1"
       d="m 107.89552,252.36566 c 0,0 34.30229,21.19084 -7.53478,15.42339 z"
       id="path16-7"
       sodipodi:nodetypes="ccc" />
    <path
       style="fill:#fdc458;fill-opacity:1;stroke:#370188;stroke-width:3.175;stroke-dasharray:none;stroke-opacity:1"
       d="M 94.273631,237.56534 C 111.69959,198.62343 44.642795,199.2202 61.68213,238.20859 l 15.592742,7.69652 z"
       id="path23-5"
       sodipodi:nodetypes="cccc" />
    <path
       style="fill:#018816;fill-opacity:1;stroke:#370188;stroke-width:3.175;stroke-dasharray:none;stroke-opacity:1"
       d="m 60.641778,267.028 -9.800304,4.04721 -6.621494,-19.13719 13.522515,-5.46455 -0.305753,-10.09069 19.875563,9.57891 20.4871,-10.49623 v 8.56177 l 14.322175,7.7724 -6.5907,18.69103 -9.531287,-3.85836"
       id="path12-0"
       sodipodi:nodetypes="ccccccccccc" />
    <circle
       style="fill:#370188;fill-opacity:1;stroke:none;stroke-width:8.13508;stroke-dasharray:none;stroke-opacity:1"
       id="path9-8"
       cx="72.012764"
       cy="222.60236"
       r="1.7054044" />
    <circle
       style="fill:#370188;fill-opacity:1;stroke:none;stroke-width:8.13508;stroke-dasharray:none;stroke-opacity:1"
       id="path9-4"
       cx="84.509384"
       cy="222.68748"
       r="1.7054044" />
    <path
       style="fill:none;fill-opacity:1;stroke:#370188;stroke-width:3.175;stroke-dasharray:none;stroke-opacity:1"
       d="m 57.437377,246.27195 19.874928,4.4824 20.996306,-6.52113"
       id="path22-1"
       sodipodi:nodetypes="ccc" />
    <path
       style="fill:none;fill-opacity:1;stroke:#370188;stroke-width:3.175;stroke-dasharray:none;stroke-opacity:1"
       d="m 68.130714,245.32501 -3.37312,20.3066"
       id="path10-79"
       sodipodi:nodetypes="cc" />
    <path
       style="fill:none;fill-opacity:1;stroke:#370188;stroke-width:3.175;stroke-dasharray:none;stroke-opacity:1"
       d="m 85.570607,244.81859 2.501138,20.97739"
       id="path11-71"
       sodipodi:nodetypes="cc" />
    <path
       style="fill:none;fill-opacity:1;stroke:#370188;stroke-width:3.175;stroke-dasharray:none;stroke-opacity:1"
       d="m 76.967373,227.73005 5.982748,3.09451 -7.220553,3.30086"
       id="path24-70" />
    <path
       style="fill:none;fill-opacity:1;stroke:#370188;stroke-width:3.175;stroke-dasharray:none;stroke-opacity:1"
       d="m 78.081671,210.66166 c 5.406327,-4.70872 -5.057489,-5.05752 0.523209,-8.89425"
       id="path26-0"
       sodipodi:nodetypes="cc" />
  </g>
</svg>
